<svg width="32" height="32" viewBox="0 0 32 32" fill="none" xmlns="http://www.w3.org/2000/svg">
<path d="M27.1035 2C25.5064 2 24.2069 3.29934 24.2069 4.89654C24.2069 5.80231 24.6251 6.61201 25.2782 7.14353C25.4114 7.25191 25.5543 7.3487 25.7055 7.43246L22.5398 19.3918C22.4528 19.3839 22.3648 19.3792 22.2758 19.3792C21.6511 19.3792 21.0726 19.5786 20.5989 19.9162L16.3492 15.6665L12.0837 11.401C12.4213 10.9274 12.6206 10.3488 12.6206 9.7241C12.6206 8.1269 11.3212 6.82757 9.7241 6.82757C8.12703 6.82757 6.82757 8.1269 6.82757 9.7241C6.82757 10.8944 7.52563 11.904 8.52687 12.3606L5.38014 24.248C5.22276 24.2214 5.0614 24.2068 4.89654 24.2068C3.29946 24.2068 2 25.5061 2 27.1033C2 28.7005 3.29946 29.9999 4.89654 29.9999C6.49362 29.9999 7.79308 28.7005 7.79308 27.1033C7.79308 26.1976 7.37489 25.3879 6.72184 24.8563C6.5886 24.748 6.4457 24.6512 6.29448 24.5674L9.46016 12.6081C9.54717 12.6159 9.63516 12.6206 9.72423 12.6206C10.3489 12.6206 10.9274 12.4213 11.4011 12.0837L15.6508 16.3334L19.9163 20.5989C19.5787 21.0725 19.3794 21.6511 19.3794 22.2758C19.3794 23.873 20.6788 25.1723 22.2759 25.1723C23.873 25.1723 25.1724 23.873 25.1724 22.2758C25.1724 21.1054 24.4744 20.0959 23.4731 19.6393L26.6199 7.75192C26.7772 7.77847 26.9386 7.79308 27.1035 7.79308C28.7005 7.79308 30 6.49374 30 4.89654C30 3.29934 28.7005 2 27.1035 2ZM6.82769 27.1033C6.82769 28.1681 5.96138 29.0344 4.89666 29.0344C3.83194 29.0344 2.96563 28.1681 2.96563 27.1033C2.96563 26.0386 3.83194 25.1723 4.89666 25.1723C5.96138 25.1723 6.82769 26.0386 6.82769 27.1033ZM9.72423 11.6551C8.65951 11.6551 7.7932 10.7888 7.7932 9.7241C7.7932 8.65938 8.65951 7.79308 9.72423 7.79308C10.7889 7.79308 11.6553 8.65938 11.6553 9.7241C11.6553 10.7888 10.7889 11.6551 9.72423 11.6551ZM24.2069 22.2758C24.2069 23.3405 23.3406 24.2068 22.2759 24.2068C21.2112 24.2068 20.3449 23.3405 20.3449 22.2758C20.3449 21.2111 21.2112 20.3447 22.2759 20.3447C23.3406 20.3447 24.2069 21.2111 24.2069 22.2758ZM27.1035 6.82757C26.0387 6.82757 25.1724 5.96126 25.1724 4.89654C25.1724 3.83182 26.0387 2.96551 27.1035 2.96551C28.1682 2.96551 29.0345 3.83182 29.0345 4.89654C29.0345 5.96126 28.1682 6.82757 27.1035 6.82757Z" fill="black"/>
</svg>
