<svg width="32" height="32" viewBox="0 0 32 32" fill="none" xmlns="http://www.w3.org/2000/svg">
<path d="M26.9153 2.00012C25.2143 2.00012 23.8305 3.38399 23.8305 5.08487C23.8305 6.03865 24.2657 6.89265 24.9479 7.45894C25.0486 7.54258 25.1552 7.61934 25.266 7.68982L22.2491 19.0869C22.2225 19.0862 22.1962 19.0849 22.1695 19.0849C21.5764 19.0849 21.0221 19.2535 20.5513 19.5447L16.515 15.5085L12.4553 11.4487C12.7465 10.9779 12.9151 10.4236 12.9151 9.83051C12.9151 8.12963 11.5314 6.74577 9.83039 6.74577C8.12939 6.74577 6.74564 8.12963 6.74564 9.83051C6.74564 11.0052 7.40578 12.0283 8.37439 12.5491L5.38432 23.8452C5.28573 23.8356 5.18583 23.8304 5.08475 23.8304C3.38375 23.8304 2 25.2143 2 26.9151C2 28.616 3.38375 29.9999 5.08475 29.9999C6.78575 29.9999 8.16949 28.616 8.16949 26.9151C8.16949 25.9614 7.7343 25.1074 7.0521 24.5411C6.95137 24.4574 6.84483 24.3807 6.73402 24.3102L9.7509 12.9131C9.77747 12.9138 9.80381 12.9151 9.83051 12.9151C10.4236 12.9151 10.9779 12.7465 11.4487 12.4553L15.485 16.4915L19.5447 20.5513C19.2535 21.0221 19.0849 21.5764 19.0849 22.1695C19.0849 23.8704 20.4686 25.2542 22.1696 25.2542C23.8706 25.2542 25.2544 23.8704 25.2544 22.1695C25.2544 20.9948 24.5942 19.9717 23.6256 19.4509L26.6157 8.15478C26.7143 8.16439 26.8142 8.16961 26.9153 8.16961C28.6163 8.16961 30 6.78575 30 5.08487C30 3.38399 28.6163 2.00012 26.9153 2.00012ZM6.74576 26.9154C6.74576 27.8313 6.00068 28.5764 5.08475 28.5764C4.16881 28.5764 3.42373 27.8313 3.42373 26.9154C3.42373 25.9994 4.16881 25.2544 5.08475 25.2544C6.00068 25.2544 6.74576 25.9994 6.74576 26.9154ZM9.83051 11.4916C8.91458 11.4916 8.16949 10.7466 8.16949 9.83063C8.16949 8.9147 8.91458 8.16961 9.83051 8.16961C10.7464 8.16961 11.4915 8.9147 11.4915 9.83063C11.4915 10.7466 10.7464 11.4916 9.83051 11.4916ZM23.8305 22.1696C23.8305 23.0855 23.0854 23.8306 22.1695 23.8306C21.2536 23.8306 20.5085 23.0855 20.5085 22.1696C20.5085 21.2537 21.2536 20.5086 22.1695 20.5086C23.0854 20.5086 23.8305 21.2537 23.8305 22.1696ZM26.9153 6.74588C25.9993 6.74588 25.2542 6.0008 25.2542 5.08487C25.2542 4.16894 25.9993 3.42385 26.9153 3.42385C27.8312 3.42385 28.5763 4.16894 28.5763 5.08487C28.5763 6.0008 27.8312 6.74588 26.9153 6.74588Z" fill="black"/>
</svg>
