<svg width="32" height="32" viewBox="0 0 32 32" fill="none" xmlns="http://www.w3.org/2000/svg">
<path d="M11.9802 17.2237H11.98C11.2323 17.2237 10.5292 17.5149 10.0006 18.0435C9.47174 18.5722 9.18047 19.2753 9.18047 20.023C9.18047 20.7707 9.47162 21.4738 10.0003 22.0026C10.546 22.5485 11.2631 22.8215 11.98 22.8214C12.6967 22.8214 13.4136 22.5486 13.9593 22.003C14.4882 21.4744 14.7794 20.7713 14.7794 20.0236C14.7794 19.2758 14.4883 18.5727 13.9597 18.0439C13.4309 17.5151 12.7279 17.2239 11.9802 17.2237ZM12.6398 20.6831C12.2759 21.0469 11.6839 21.0468 11.3201 20.6831C11.1438 20.5067 11.0468 20.2724 11.0468 20.0232C11.0468 19.774 11.144 19.5396 11.3202 19.3635C11.4965 19.1873 11.7308 19.0902 11.9801 19.0902C12.2293 19.0902 12.4637 19.1873 12.6399 19.3636C13.0037 19.7275 13.0037 20.3195 12.6399 20.6832L12.6398 20.6831Z" fill="black"/>
<path d="M28.9295 5.98674C26.7336 2.18353 21.8522 0.875242 18.0479 3.07073C16.2051 4.13419 14.8866 5.85144 14.3357 7.90625C14.1255 8.69023 14.0375 9.48749 14.0671 10.2761C11.7345 9.77572 9.21675 10.1023 6.99303 11.3859C4.68521 12.7176 3.03433 14.8681 2.34449 17.4411C1.65454 20.0142 2.00821 22.702 3.34041 25.009C5.18597 28.2053 8.54604 29.9942 11.9968 29.9942C13.6876 29.9942 15.4003 29.5646 16.9669 28.6604C19.2746 27.3288 20.9255 25.1784 21.6154 22.6053C22.0324 21.0502 22.0656 19.4536 21.7345 17.9241C21.8374 17.928 21.9405 17.9307 22.0437 17.9307C23.3939 17.9307 24.7617 17.5877 26.0127 16.8656C27.8556 15.8023 29.174 14.0849 29.7249 12.0302C30.2758 9.97542 29.9934 7.82904 28.9296 5.98663L28.9295 5.98674ZM27.9222 11.547C27.5003 13.1202 26.4908 14.4351 25.0798 15.2493C23.9568 15.8974 22.7114 16.1451 21.5083 16.0401L19.7736 17.7747C20.1819 19.1793 20.2013 20.6731 19.8127 22.1221C19.2518 24.2137 17.91 25.9617 16.034 27.0442C12.1613 29.2789 7.19191 27.9474 4.95653 24.0759C3.87371 22.2006 3.58618 20.016 4.14701 17.9245C4.70784 15.8331 6.04972 14.0851 7.92572 13.0025C9.19949 12.2674 10.5914 11.9183 11.9662 11.9183C12.7413 11.9183 13.5108 12.0299 14.2503 12.2454L15.9553 10.541C15.8885 9.82821 15.9473 9.10187 16.1382 8.38975C16.56 6.81656 17.5696 5.50162 18.9806 4.68732C19.9388 4.13442 20.9859 3.87185 22.0199 3.87185C24.1298 3.87185 26.1848 4.96587 27.3131 6.92014C28.1275 8.33073 28.3437 9.97402 27.9219 11.5472L27.9222 11.547Z" fill="black"/>
<path d="M20.0506 11.9477C20.5794 12.4764 21.2824 12.7677 22.0301 12.7678H22.0303C22.778 12.7678 23.4809 12.4766 24.0097 11.948C25.1012 10.8567 25.1015 9.08052 24.01 7.98896C22.9187 6.89739 21.1427 6.89727 20.051 7.98861C18.9594 9.07994 18.9593 10.8561 20.0506 11.9477ZM21.3705 9.30844C21.7345 8.94463 22.3265 8.94463 22.6902 9.30844C23.054 9.67226 23.054 10.2643 22.6902 10.6282C22.5139 10.8044 22.2796 10.9015 22.0304 10.9015C21.7812 10.9015 21.5468 10.8043 21.3706 10.628C21.0069 10.2641 21.0068 9.67214 21.3705 9.30844Z" fill="black"/>
</svg>
