<svg width="32" height="32" viewBox="0 0 32 32" fill="none" xmlns="http://www.w3.org/2000/svg">
<path d="M11.8415 17.7486C11.1969 17.7486 10.5908 17.9996 10.135 18.4552C9.67911 18.911 9.428 19.5171 9.428 20.1617C9.428 20.8063 9.67899 21.4125 10.1348 21.8683C10.6052 22.339 11.2233 22.5744 11.8415 22.5743C12.4594 22.5743 13.0774 22.3392 13.5479 21.8688C14.0038 21.4131 14.2549 20.8069 14.2549 20.1622C14.2549 19.5176 14.0039 18.9115 13.5481 18.4556C13.0923 17.9997 12.4862 17.7487 11.8415 17.7486ZM12.8651 21.186C12.3005 21.7506 11.3819 21.7505 10.8173 21.1857C10.5438 20.9122 10.3932 20.5486 10.3932 20.1619C10.3932 19.7751 10.5439 19.4114 10.8175 19.1381C11.0911 18.8645 11.4545 18.7139 11.8414 18.7139C12.2281 18.7139 12.5918 18.8647 12.8653 19.1382C13.1387 19.4118 13.2893 19.7754 13.2893 20.1622C13.2893 20.549 13.1387 20.9127 12.8651 21.186Z" fill="black"/>
<path d="M28.9575 5.88264C26.8187 2.17908 22.0645 0.90482 18.3598 3.04271C16.565 4.07841 15.281 5.75087 14.7445 7.75192C14.4817 8.73212 14.4149 9.73342 14.5355 10.7111C12.0632 10.007 9.32061 10.2615 6.92365 11.6447C4.64795 12.9579 3.02001 15.0786 2.33968 17.6157C1.65935 20.153 2.00809 22.8033 3.32181 25.0784C5.14173 28.2302 8.45517 29.9943 11.8579 29.9943C13.5252 29.9943 15.2142 29.5706 16.7591 28.6793C19.0348 27.366 20.6627 25.2455 21.3431 22.7083C21.8124 20.9579 21.7915 19.1538 21.3024 17.4561C21.6166 17.4947 21.9335 17.5149 22.2515 17.5149C23.5664 17.5149 24.8986 17.1806 26.1168 16.4776C27.9117 15.4419 29.1956 13.7695 29.7321 11.7684C30.2687 9.76721 29.9936 7.67699 28.9576 5.88277L28.9575 5.88264ZM28.7996 11.5182C28.3298 13.2703 27.2056 14.7345 25.6342 15.6414C24.5672 16.2573 23.4012 16.5496 22.2497 16.5496C21.9185 16.5496 21.5889 16.5245 21.2628 16.4769L20.2889 17.4507C20.8092 19.0599 20.8587 20.7861 20.4104 22.4582C19.7969 24.7464 18.3288 26.6589 16.2764 27.843C12.0395 30.2878 6.60315 28.8311 4.15756 24.5957C2.97295 22.544 2.65849 20.1539 3.27197 17.8659C3.88545 15.5777 5.35363 13.6652 7.40608 12.4809C8.79956 11.6768 10.3223 11.2948 11.8263 11.2948C12.7623 11.2948 13.6906 11.4437 14.5758 11.7301L15.5214 10.7849C15.3812 9.86845 15.4296 8.92458 15.677 8.00207C16.1467 6.24996 17.2709 4.78577 18.8423 3.87894C19.9093 3.26305 21.0753 2.97067 22.2268 2.97067C24.5764 2.97067 26.8649 4.18906 28.1215 6.36544C29.0286 7.93643 29.2693 9.76637 28.7996 11.5182Z" fill="black"/>
<path d="M20.5319 8.05347C19.5908 8.99445 19.5907 10.5255 20.5316 11.4666C20.9873 11.9225 21.5933 12.1735 22.2381 12.1736H22.2383C22.8828 12.1736 23.4888 11.9226 23.9447 11.467C24.8858 10.526 24.8859 8.99493 23.945 8.05384C23.0042 7.11286 21.4732 7.11274 20.5321 8.05347H20.5319ZM23.2621 10.7842C22.9885 11.0578 22.6251 11.2084 22.2383 11.2084C21.8516 11.2084 21.4879 11.0576 21.2143 10.7841C20.6498 10.2194 20.65 9.30071 21.2146 8.73622C21.7793 8.17173 22.6978 8.17173 23.2624 8.73622C23.8269 9.30095 23.8268 10.2196 23.2622 10.7841L23.2621 10.7842Z" fill="black"/>
</svg>
