<svg width="32" height="32" viewBox="0 0 32 32" fill="none" xmlns="http://www.w3.org/2000/svg">
<path d="M16.001 3.22907L24.9529 12.1818H26.3927L16.212 2H15.7902L5.60741 12.1818H7.04737L16.001 3.22907Z" fill="black"/>
<path d="M11.9273 15.7455V14.7273H5.30908V21.3455H6.32726V15.7455H11.9273Z" fill="black"/>
<path d="M25.6727 28.9818H6.32726V23.3818H5.30908V30H26.6909V23.3818H25.6727V28.9818Z" fill="black"/>
<path d="M26.6909 14.7273H20.0737V15.7455H25.6727V21.3455H26.6909V14.7273Z" fill="black"/>
<path d="M18.5454 25.9273V23.3818H17.5273V24.9091H14.4727V23.3818H13.4545V25.9273H18.5454Z" fill="black"/>
<path d="M14.4727 19.8182H17.5273V21.3455H18.5454V18.8H13.4545V21.3455H14.4727V19.8182Z" fill="black"/>
<path d="M19.5636 10.6545H12.4364V14.2182H13.4545V11.6727H18.5454V14.2182H19.5636V10.6545Z" fill="black"/>
<path d="M18.0374 14.7273H13.9646V15.7455H18.0374V14.7273Z" fill="black"/>
<path d="M12.9454 21.8545H6.83635V22.8727H12.9454V21.8545Z" fill="black"/>
<path d="M25.1636 21.8545H19.0545V22.8727H25.1636V21.8545Z" fill="black"/>
</svg>
