<svg width="32" height="32" viewBox="0 0 32 32" fill="none" xmlns="http://www.w3.org/2000/svg">
<path d="M16.001 3.91412L24.086 12H26.9142L16.9153 2H15.0869L5.08575 12H7.91437L16.001 3.91412Z" fill="black"/>
<path d="M7 16H12V14H5V21H7V16Z" fill="black"/>
<path d="M25 28H7V23H5V30H27V23H25V28Z" fill="black"/>
<path d="M20.001 14V16H25V21H27V14H20.001Z" fill="black"/>
<path d="M15 20H17V21H19V18H13V21H15V20Z" fill="black"/>
<path d="M17 24H15V23H13V26H19V23H17V24Z" fill="black"/>
<path d="M14 12H18V14H18.001H20V10H12V14H14V12Z" fill="black"/>
<path d="M14.001 14V16H18.001V14H18H14.001Z" fill="black"/>
<path d="M13 21H7V23H13V21Z" fill="black"/>
<path d="M25 21H19V23H25V21Z" fill="black"/>
</svg>
