<svg width="32" height="32" viewBox="0 0 32 32" fill="none" xmlns="http://www.w3.org/2000/svg">
<path d="M20.829 7.28394C20.6632 7.28394 20.5015 7.30089 20.345 7.33273V5.82679C20.345 4.49169 19.2588 3.40552 17.9232 3.40552C17.6191 3.40552 17.3293 3.46424 17.061 3.56691C16.631 2.89046 15.8767 2.43945 15.0173 2.43945C13.6821 2.43945 12.5958 3.52562 12.5958 4.86073V5.39588C12.4393 5.36404 12.2774 5.34709 12.1115 5.34709C10.7763 5.34709 9.69001 6.43326 9.69001 7.76836V16.2318L5.99792 12.8759C5.05511 11.9517 3.64578 11.9577 2.70926 12.894C2.25184 13.3513 2 13.9385 2 14.5474C2 15.1563 2.25184 15.7435 2.70926 16.2008L9.69001 23.1804V29.5606H11.6272V22.3779L4.07887 14.8308C4.01422 14.7662 3.93709 14.6645 3.93709 14.5474C3.93709 14.4303 4.01422 14.3286 4.07887 14.264C4.26714 14.0757 4.4582 14.0757 4.64648 14.264L9.21915 18.4211H11.6272V7.76836C11.6272 7.50151 11.8444 7.2843 12.1115 7.2843C12.3786 7.2843 12.5958 7.50139 12.5958 7.76836L12.5962 15.0221H14.5334L14.533 4.86061C14.533 4.59363 14.7503 4.37655 15.0177 4.37655C15.2852 4.37655 15.502 4.59363 15.502 4.86061V5.81965C15.502 5.82207 15.5017 5.82425 15.5017 5.82667V9.3231H15.502V15.029H17.4392V5.82328C17.4412 5.558 17.6573 5.34273 17.9235 5.34273C18.1898 5.34273 18.4078 5.55982 18.4078 5.82679V9.69819C18.4078 9.70061 18.4075 9.70279 18.4075 9.70522V13.1969H18.4078V15.0269H20.345V9.7017C20.347 9.43643 20.5631 9.22115 20.8294 9.22115C21.0956 9.22115 21.3137 9.43824 21.3137 9.70522V15.0273H23.2509V9.70522C23.2509 8.37011 22.1646 7.28394 20.829 7.28394Z" fill="black"/>
<path d="M26.1772 24.8322L25.0936 23.7488H22.3538L25.264 26.6587H27.0902L30 23.7488H27.2604L26.1772 24.8322Z" fill="black"/>
<path d="M20.3447 15.9999C16.606 15.9999 13.5644 19.0416 13.5644 22.7802C13.5644 26.5188 16.606 29.5604 20.3447 29.5604V27.6232C17.6742 27.6232 15.5017 25.4506 15.5017 22.7802C15.5017 20.1097 17.6742 17.9372 20.3447 17.9372C22.6835 17.9372 24.6403 19.6037 25.0903 21.8116H27.0546C26.583 18.5303 23.7544 15.9999 20.3447 15.9999Z" fill="black"/>
</svg>
