<svg width="32" height="32" viewBox="0 0 32 32" fill="none" xmlns="http://www.w3.org/2000/svg">
<path d="M20.9831 7.22183C20.7228 7.22183 20.4739 7.26907 20.2416 7.35155V5.48618C20.2416 4.259 19.243 3.26059 18.0154 3.26059C17.6616 3.26059 17.328 3.34566 17.0307 3.49331C16.6624 2.77091 15.9128 2.27393 15.0476 2.27393C13.8203 2.27393 12.8218 3.27234 12.8218 4.49951V5.3734C12.5893 5.2908 12.3402 5.24356 12.0798 5.24356C10.8525 5.24356 9.85398 6.24197 9.85398 7.46915V16.672L5.66582 12.8653C4.80282 12.016 3.51023 12.0207 2.65192 12.8789C2.23149 13.2992 2 13.8369 2 14.3927C2 14.9486 2.23149 15.4861 2.65192 15.9065L9.85398 23.1074V29.726H11.3379V22.4925L3.70103 14.8571C3.55895 14.715 3.48377 14.5543 3.48377 14.3927C3.48377 14.2311 3.55883 14.0705 3.70103 13.9284C3.99212 13.6374 4.33935 13.6374 4.63044 13.9284L9.49327 18.3491H11.3379V7.46927C11.3379 7.06033 11.6706 6.72757 12.0798 6.72757C12.489 6.72757 12.8218 7.06021 12.8218 7.46927L12.8221 14.8777H14.306L14.3056 4.49951C14.3056 4.09058 14.6384 3.75782 15.048 3.75782C15.4575 3.75782 15.7899 4.09058 15.7899 4.49951V5.479C15.7899 5.48148 15.7895 5.4837 15.7895 5.48618V9.05715H15.7899V14.8848H17.2738V5.47913C17.2776 5.07353 17.6087 4.7446 18.0157 4.7446C18.4249 4.7446 18.7577 5.07724 18.7577 5.4863V9.44025C18.7577 9.44272 18.7573 9.44494 18.7573 9.44742V13.0136H18.7577V14.8825H20.2416V9.44025C20.2454 9.03465 20.5764 8.70572 20.9835 8.70572C21.3927 8.70572 21.7255 9.03836 21.7255 9.44742V14.883H23.2094V9.44742C23.2094 8.22024 22.2108 7.22183 20.9831 7.22183Z" fill="black"/>
<path d="M26.4453 25.2466L24.9889 23.7904H22.8903L25.8624 26.7624H27.0281L30 23.7904H27.9014L26.4453 25.2466Z" fill="black"/>
<path d="M20.4885 16.1237C16.8066 16.1237 13.811 19.1192 13.811 22.8012C13.811 26.4832 16.8066 29.4787 20.4885 29.4787V27.9948C17.6247 27.9948 15.2949 25.665 15.2949 22.8012C15.2949 19.9374 17.6247 17.6076 20.4885 17.6076C23.014 17.6076 25.1231 19.4199 25.5865 21.8119H27.0923C26.6128 18.5975 23.8343 16.1237 20.4885 16.1237Z" fill="black"/>
</svg>
