<svg width="32" height="32" viewBox="0 0 32 32" fill="none" xmlns="http://www.w3.org/2000/svg">
<path d="M14.5 30.0001H2.00038V28.0001H14.5C15.3271 28.0001 16 27.3273 16 26.5001C16 25.673 15.3271 25.0001 14.5 25.0001H5.5C3.57012 25.0001 2 23.43 2 21.5001C2 19.5703 3.57012 18.0001 5.5 18.0001H10V20.0001H5.5C4.67287 20.0001 4 20.673 4 21.5001C4 22.3273 4.67287 23.0001 5.5 23.0001H14.5C16.4299 23.0001 18 24.5703 18 26.5001C18 28.43 16.4299 30.0001 14.5 30.0001Z" fill="black"/>
<path d="M28.4142 2.00013H26.5859L12 16.5874V20.0015H15.4141L30 5.41425V3.58575L28.4142 2V2.00013ZM14.5859 18.0016H14V17.4158L27.5 3.91438L28.0859 4.50025L14.5859 18.0016Z" fill="black"/>
</svg>
