<svg width="32" height="32" viewBox="0 0 32 32" fill="none" xmlns="http://www.w3.org/2000/svg">
<path d="M25 30.0023H5C3.34588 30.0023 2 28.6564 2 27.0023C2 25.6863 2.92675 24.4435 4.20363 24.0472L16.001 20.2683V1.99805H18.001V21.7278L4.805 25.9547C4.36475 26.0913 4 26.5699 4 27.0023C4 27.5537 4.44863 28.0023 5 28.0023H25C26.6541 28.0023 28 26.6564 28 25.0023C28 24.4248 27.9 24.0237 27.6658 23.6612C27.5329 23.4555 27.3452 23.2612 27.108 23.0833L25 21.5023V1.99805H27V20.5023L28.308 21.4833C28.7349 21.8035 29.0839 22.1709 29.3454 22.5755C29.792 23.2664 30 24.0375 30 25.0023C30 27.7593 27.757 30.0023 25 30.0023Z" fill="black"/>
<path d="M20.5 25.0023H20V23.0023H20.5C21.3271 23.0023 22 22.3294 22 21.5023V21.0023H24V21.5023C24 23.4322 22.4299 25.0023 20.5 25.0023Z" fill="black"/>
</svg>
