<svg width="32" height="32" viewBox="0 0 32 32" fill="none" xmlns="http://www.w3.org/2000/svg">
<path d="M28.4444 2.25928H3.55556V3.29631H28.4444V2.25928Z" fill="black"/>
<path d="M3.03704 3.81483H2V20.4074H3.03704V3.81483Z" fill="black"/>
<path d="M22.4426 20.9259L28.963 27.913V3.81483H30V29.7408H29.2611L22.0019 21.963H3.55556V20.9259H22.4426Z" fill="black"/>
<path d="M24.2963 9.51854C25.7222 9.51854 26.8889 10.6852 26.8889 12.1111C26.8889 13.5371 25.7222 14.7037 24.2963 14.7037C22.8704 14.7037 21.7037 13.5371 21.7037 12.1111C21.7037 10.6852 22.8704 9.51854 24.2963 9.51854ZM24.2963 13.6667C25.1519 13.6667 25.8519 12.9667 25.8519 12.1111C25.8519 11.2556 25.1519 10.5556 24.2963 10.5556C23.4407 10.5556 22.7407 11.2556 22.7407 12.1111C22.7407 12.9667 23.4407 13.6667 24.2963 13.6667Z" fill="black"/>
<path d="M16 9.51854C17.4259 9.51854 18.5926 10.6852 18.5926 12.1111C18.5926 13.5371 17.4259 14.7037 16 14.7037C14.5741 14.7037 13.4074 13.5371 13.4074 12.1111C13.4074 10.6852 14.5741 9.51854 16 9.51854ZM16 13.6667C16.8556 13.6667 17.5556 12.9667 17.5556 12.1111C17.5556 11.2556 16.8556 10.5556 16 10.5556C15.1444 10.5556 14.4444 11.2556 14.4444 12.1111C14.4444 12.9667 15.1444 13.6667 16 13.6667Z" fill="black"/>
<path d="M7.7037 9.51854C9.12963 9.51854 10.2963 10.6852 10.2963 12.1111C10.2963 13.5371 9.12963 14.7037 7.7037 14.7037C6.27778 14.7037 5.11111 13.5371 5.11111 12.1111C5.11111 10.6852 6.27778 9.51854 7.7037 9.51854ZM7.7037 13.6667C8.55926 13.6667 9.25926 12.9667 9.25926 12.1111C9.25926 11.2556 8.55926 10.5556 7.7037 10.5556C6.84815 10.5556 6.14815 11.2556 6.14815 12.1111C6.14815 12.9667 6.84815 13.6667 7.7037 13.6667Z" fill="black"/>
</svg>
