<svg width="32" height="32" viewBox="0 0 32 32" fill="none" xmlns="http://www.w3.org/2000/svg">
<path d="M22.44 20.7091L28.4727 27.1746V4.16365H30V29.6182H28.6636L21.7782 22.2364H3.78182V20.7091H22.44Z" fill="black"/>
<path d="M3.52727 4.16365H2V20.4546H3.52727V4.16365Z" fill="black"/>
<path d="M28.2182 2.38184H3.78182V3.90911H28.2182V2.38184Z" fill="black"/>
<path d="M24.1455 9.50911C25.6855 9.50911 26.9455 10.7691 26.9455 12.3091C26.9455 13.8491 25.6855 15.1091 24.1455 15.1091C22.6055 15.1091 21.3455 13.8491 21.3455 12.3091C21.3455 10.7691 22.6055 9.50911 24.1455 9.50911ZM24.1455 13.5818C24.8455 13.5818 25.4182 13.0091 25.4182 12.3091C25.4182 11.6091 24.8455 11.0364 24.1455 11.0364C23.4455 11.0364 22.8727 11.6091 22.8727 12.3091C22.8727 13.0091 23.4455 13.5818 24.1455 13.5818Z" fill="black"/>
<path d="M16 9.50911C17.54 9.50911 18.8 10.7691 18.8 12.3091C18.8 13.8491 17.54 15.1091 16 15.1091C14.46 15.1091 13.2 13.8491 13.2 12.3091C13.2 10.7691 14.46 9.50911 16 9.50911ZM16 13.5818C16.7 13.5818 17.2727 13.0091 17.2727 12.3091C17.2727 11.6091 16.7 11.0364 16 11.0364C15.3 11.0364 14.7273 11.6091 14.7273 12.3091C14.7273 13.0091 15.3 13.5818 16 13.5818Z" fill="black"/>
<path d="M7.85455 9.50911C9.39455 9.50911 10.6545 10.7691 10.6545 12.3091C10.6545 13.8491 9.39455 15.1091 7.85455 15.1091C6.31455 15.1091 5.05455 13.8491 5.05455 12.3091C5.05455 10.7691 6.31455 9.50911 7.85455 9.50911ZM7.85455 13.5818C8.55455 13.5818 9.12727 13.0091 9.12727 12.3091C9.12727 11.6091 8.55455 11.0364 7.85455 11.0364C7.15455 11.0364 6.58182 11.6091 6.58182 12.3091C6.58182 13.0091 7.15455 13.5818 7.85455 13.5818Z" fill="black"/>
</svg>
