<svg width="32" height="32" viewBox="0 0 32 32" fill="none" xmlns="http://www.w3.org/2000/svg">
<path d="M23 2.00024H9C7.34588 2.00024 6 3.34612 6 5.00024V27.0002C6 28.6544 7.34588 30.0002 9 30.0002H23C24.6541 30.0002 26 28.6544 26 27.0002V5.00024C26 3.34612 24.6541 2.00024 23 2.00024ZM24 27.0002C24 27.5516 23.5514 28.0002 23 28.0002H9C8.44863 28.0002 8 27.5516 8 27.0002V5.00024C8 4.44887 8.44863 4.00024 9 4.00024H23C23.5514 4.00024 24 4.44887 24 5.00024V27.0002Z" fill="black"/>
<path d="M18 24.0002H14V26.0002H18V24.0002Z" fill="black"/>
<path d="M10 22.0002H22V6.00024H10V22.0002ZM12 8.00024H20V20.0002H12V8.00024Z" fill="black"/>
</svg>
