<svg width="32" height="32" viewBox="0 0 32 32" fill="none" xmlns="http://www.w3.org/2000/svg">
<path d="M30 17.5867C30 16.665 29.4058 15.8812 28.5812 15.593C28.8074 15.2564 28.9398 14.8518 28.9398 14.4166C28.9398 13.2512 27.9919 12.303 26.8265 12.303H21.546C21.1609 12.303 20.8008 12.4082 20.4895 12.5887V5.96255C20.4894 4.79706 19.541 3.84888 18.3757 3.84888C17.8111 3.84888 17.2802 4.06882 16.881 4.46814C16.4818 4.86734 16.262 5.39823 16.262 5.96294V7.26422C16.2624 8.55506 15.5751 9.77021 14.4685 10.4351L12.2393 11.7748C11.6641 12.1205 11.0054 12.3032 10.3342 12.3032H8.33625V13.3599H10.3342C11.1971 13.3599 12.0441 13.1251 12.7837 12.6806L15.0128 11.3408C16.4356 10.4859 17.319 8.92374 17.3189 7.26396V5.96268C17.3186 5.68039 17.4286 5.41501 17.6281 5.21528C17.8277 5.01555 18.0933 4.90565 18.3755 4.90565C18.9584 4.90565 19.4325 5.37974 19.4325 5.96255L19.4327 14.4065C19.4327 14.41 19.4322 14.4133 19.4322 14.4167C19.4322 14.4201 19.4327 14.4234 19.4327 14.4269V15.781L18.2725 16.9413C17.1748 18.039 15.7153 18.6436 14.1627 18.6436H10.4485V19.7004H14.1627C15.9976 19.7004 17.7225 18.9859 19.0199 17.6886L19.4627 17.2458C19.4443 17.3571 19.4325 17.4706 19.4325 17.5871C19.4325 18.216 19.7118 18.7801 20.1521 19.1675C20.1166 19.1986 20.0806 19.229 20.047 19.2625C19.65 19.6583 19.4313 20.1861 19.4314 20.7488C19.4314 21.919 20.3835 22.871 21.5538 22.871H21.8194C21.6412 23.1819 21.5448 23.5354 21.5448 23.9054C21.5448 24.47 21.7649 25.0009 22.1641 25.3999C22.5633 25.799 23.094 26.0188 23.6583 26.0188L25.7699 26.0186C26.9351 26.0186 27.8832 25.0704 27.8832 23.905C27.8832 23.4774 27.7523 23.0797 27.5289 22.7481C28.3495 22.4578 28.9399 21.676 28.9399 20.757C28.9399 20.3304 28.8138 19.9247 28.5794 19.5814C29.405 19.2938 30 18.5098 30 17.5867ZM21.546 13.3599H26.8265C27.4091 13.3599 27.883 13.834 27.883 14.4167C27.883 14.9994 27.4091 15.4735 26.8265 15.4735H21.5587C21.557 15.4735 21.5552 15.4737 21.5535 15.4737H21.5461C20.9667 15.4737 20.4952 15.005 20.4896 14.427V14.4067C20.4952 13.8286 20.9666 13.3599 21.546 13.3599ZM25.7698 24.962L23.6585 24.9623C23.0759 24.9623 22.6016 24.4882 22.6016 23.9055C22.6016 23.6266 22.7101 23.3662 22.9074 23.1729C23.1049 22.9793 23.3697 22.8723 23.6534 22.8711H25.7716C26.3633 22.8718 26.8264 23.3258 26.8264 23.9053C26.8264 24.488 26.3523 24.962 25.7698 24.962ZM26.8265 21.8141H25.7713C25.7713 21.8141 25.7703 21.8141 25.7698 21.8141H23.6582C23.6566 21.8141 23.6549 21.8143 23.6533 21.8143H21.5535C20.966 21.8145 20.488 21.3365 20.4879 20.7491C20.4879 20.4693 20.5961 20.2073 20.7928 20.0112C20.9938 19.8107 21.2637 19.7005 21.5531 19.7005H21.5568L26.8247 19.7177H26.8267C27.1113 19.7177 27.3775 19.8255 27.5762 20.0214C27.7739 20.2162 27.8828 20.4775 27.8828 20.7573C27.8828 21.34 27.4091 21.8141 26.8265 21.8141ZM27.8867 18.6438H21.5587C20.969 18.6438 20.4891 18.1698 20.4891 17.5873C20.4891 17.0047 20.9661 16.5333 21.5535 16.5305L27.8867 16.5302C28.4693 16.5302 28.9432 17.0042 28.9432 17.5878C28.9432 18.1714 28.4693 18.6438 27.8867 18.6438Z" fill="black"/>
<path d="M9.92061 22.8708V22.3425H8.86384V22.8708C8.86384 24.7671 10.1379 26.0411 12.0341 26.0411H18.9039V24.9844H12.0341C10.7305 24.9844 9.92061 24.1745 9.92061 22.8708Z" fill="black"/>
<path d="M2 11.312H4.63796V27.0945H2V28.1512H5.69473V10.2553H2V11.312Z" fill="black"/>
</svg>
