<svg width="32" height="32" viewBox="0 0 32 32" fill="none" xmlns="http://www.w3.org/2000/svg">
<path d="M30 17.5571C30 16.635 29.5147 15.8258 28.7875 15.3661C28.8968 15.0796 28.9593 14.7701 28.9593 14.4457C28.9593 13.016 27.7962 11.8527 26.3666 11.8527H21.1838C21.0063 11.8527 20.833 11.8709 20.6655 11.905V6.14829C20.6654 4.71852 19.502 3.55518 18.0723 3.55518C17.3795 3.55518 16.7283 3.82498 16.2385 4.31479C15.7487 4.80461 15.479 5.45597 15.4791 6.14868V7.42586C15.4795 8.51193 14.9013 9.53409 13.9704 10.0934L11.7824 11.4083C11.2986 11.6991 10.7443 11.8529 10.1797 11.8529H8.21876V13.9273H10.1797C11.1207 13.9273 12.0443 13.6711 12.8509 13.1864L15.0388 11.8715C16.5904 10.9392 17.5539 9.23564 17.5537 7.4256V6.14842C17.5535 5.96147 17.6486 5.83817 17.7053 5.78152C17.7621 5.72473 17.8852 5.62957 18.0723 5.62957C18.3583 5.62957 18.591 5.86229 18.591 6.14829L18.5912 14.4356C18.5912 14.4391 18.5907 14.4424 18.5907 14.4459C18.5907 14.4494 18.5912 14.4526 18.5912 14.4561V15.57L17.6045 16.5569C16.625 17.5366 15.3226 18.0759 13.9375 18.0759H10.292V20.1503H13.9375C15.7147 20.1503 17.3935 19.5144 18.7174 18.3527C18.8066 18.6274 18.9419 18.8808 19.1123 19.1071C18.7748 19.552 18.5897 20.0912 18.5897 20.661C18.5897 21.9348 19.511 22.9957 20.7219 23.2177C20.6844 23.3936 20.6639 23.5746 20.6639 23.7592C20.6641 25.189 21.8273 26.352 23.2569 26.352L25.3294 26.3517C26.759 26.3517 27.9221 25.1885 27.9221 23.7587C27.9221 23.4407 27.8608 23.1373 27.754 22.8558C28.4773 22.3953 28.9593 21.5882 28.9593 20.669C28.9593 20.3484 28.8989 20.0382 28.788 19.7483C29.5148 19.2884 30 18.4794 30 17.5571ZM21.1964 18.0759C20.9085 18.0759 20.6652 17.8385 20.6652 17.5576C20.6652 17.2766 20.907 17.0404 21.194 17.039L27.4073 17.0387C27.6931 17.0387 27.9256 17.2713 27.9256 17.5581C27.9256 17.8449 27.6931 18.0759 27.4073 18.0759H21.1964ZM21.184 13.9271H26.3667C26.6525 13.9271 26.885 14.1597 26.885 14.4457C26.885 14.7317 26.6526 14.9643 26.3667 14.9643H21.1964C21.1947 14.9643 21.193 14.9646 21.1914 14.9646H21.184C20.8996 14.9646 20.6685 14.7346 20.6656 14.451V14.4408C20.6685 14.1571 20.8998 13.9271 21.184 13.9271ZM20.6641 20.6607C20.6641 20.4867 20.7439 20.3707 20.8108 20.3039C20.9103 20.2048 21.0452 20.1503 21.1911 20.1503H21.193L26.3633 20.1672H26.3668C26.5092 20.1672 26.6413 20.2199 26.7387 20.3159C26.8054 20.3817 26.8849 20.4963 26.8849 20.6689C26.8849 20.9549 26.6525 21.1875 26.3666 21.1875H25.3309C25.3309 21.1875 25.3299 21.1875 25.3294 21.1875H23.2569C23.2554 21.1875 23.2538 21.1878 23.2521 21.1878H21.1912C20.9006 21.1879 20.6641 20.9514 20.6641 20.6607ZM25.3294 24.2773L23.2572 24.2776C22.9712 24.2776 22.7385 24.045 22.7385 23.759C22.7385 23.5881 22.8172 23.475 22.8832 23.4102C22.98 23.3153 23.1119 23.2629 23.2547 23.2623H25.3304C25.6207 23.2625 25.8478 23.4805 25.8478 23.7587C25.8478 24.0447 25.6154 24.2773 25.3294 24.2773Z" fill="black"/>
<path d="M10.2925 22.7433V22.2247H8.21812V22.7433C8.21812 24.8807 9.7109 26.3735 11.8483 26.3735H18.5908V24.2991H11.8483C10.8451 24.2991 10.2925 23.7465 10.2925 22.7433Z" fill="black"/>
<path d="M2 11.9172H4.0705V26.3701H2V28.4445H6.14489V9.84278H2V11.9172Z" fill="black"/>
</svg>
