<svg width="32" height="32" viewBox="0 0 32 32" fill="none" xmlns="http://www.w3.org/2000/svg">
<path d="M15.2763 16.8937L13.8613 18.2987L25.4222 29.9409L28.2522 29.9607L15.2763 16.8937Z" fill="black"/>
<path d="M18.1063 14.0834L16.6913 15.4884L29.9803 28.8709L30 26.0606L18.1063 14.0834Z" fill="black"/>
<path d="M12.4449 5.0235C11.6259 3.44709 10.1494 2.38456 8.39455 2.10862C6.63904 1.83217 4.9082 2.39079 3.64488 3.63953C2.39191 4.87817 1.81197 6.58944 2.05389 8.33461C2.29569 10.0798 3.31921 11.5687 4.86184 12.4198L12.6335 16.7075L16.5139 12.8539L12.4449 5.0235ZM12.2886 14.2397L5.82516 10.6738C4.83853 10.1295 4.18394 9.17703 4.02926 8.06078C3.87447 6.94466 4.24539 5.85009 5.0468 5.05778C5.71934 4.39296 6.59878 4.03426 7.52197 4.03426C7.70817 4.03426 7.89625 4.04884 8.0847 4.0785C9.20731 4.25499 10.1514 4.93451 10.6754 5.94282L14.0683 12.4723L12.2886 14.2397Z" fill="black"/>
</svg>
