<svg width="32" height="32" viewBox="0 0 32 32" fill="none" xmlns="http://www.w3.org/2000/svg">
<path d="M15.4565 21.8032C14.1389 23.1209 11.9949 23.1206 10.6773 21.8032C9.35983 20.4856 9.35983 18.3416 10.6773 17.0241L13.4082 14.2931L12.7256 13.6105L9.99466 16.3414C8.30066 18.0353 8.30066 20.7917 9.99466 22.4859C10.8418 23.333 11.9543 23.7564 13.0669 23.7564C14.1796 23.7564 15.2922 23.3329 16.1391 22.4859L18.8701 19.7549L18.1874 19.0723L15.4565 21.8032Z" fill="black"/>
<path d="M22.9664 9.51414C21.2723 7.82002 18.5158 7.82002 16.822 9.51414L14.091 12.2451L14.7736 12.9277L17.5046 10.1968C18.1634 9.53791 19.0286 9.20855 19.8941 9.20855C20.7596 9.20855 21.625 9.53803 22.2838 10.1968C23.6012 11.5144 23.6012 13.6584 22.2838 14.9759L19.5528 17.7069L20.2354 18.3895L22.9664 15.6586C24.6604 13.9647 24.6604 11.2083 22.9664 9.51414Z" fill="black"/>
<path d="M14.7737 13.6104L14.091 14.2931L18.1874 18.3894L18.87 17.7068L14.7737 13.6104Z" fill="black"/>
<path d="M16.5405 29.0345C9.3229 29.0345 3.45099 23.1873 3.45099 16C3.45099 8.81269 9.3229 2.96552 16.5405 2.96552C19.356 2.96552 22.0384 3.84197 24.2977 5.49988L24.8688 4.72155C22.4426 2.94114 19.5627 2 16.5404 2C8.79042 2 2.48535 8.28033 2.48535 16C2.48535 23.7197 8.79042 30 16.5404 30C20.4195 30 24.0695 28.429 26.7179 25.6552H25.3341C22.9414 27.8214 19.8297 29.0345 16.5403 29.0345H16.5405Z" fill="black"/>
<path d="M24.2047 22.2759V23.2414H28.5495V27.5862H29.515V22.2759H24.2047Z" fill="black"/>
</svg>
