<svg width="32" height="32" viewBox="0 0 32 32" fill="none" xmlns="http://www.w3.org/2000/svg">
<path d="M17.7839 18.6399L15.1441 21.2797C14.0525 22.3716 12.2758 22.3713 11.1844 21.2797C10.0927 20.1879 10.0927 18.4115 11.1844 17.3199L13.8242 14.6801L12.5042 13.3601L9.86428 16.0001C8.04486 17.8196 8.04486 20.7803 9.86428 22.5998C10.7741 23.5096 11.9691 23.9643 13.1641 23.9643C14.3591 23.9643 15.5541 23.5095 16.4639 22.5998L19.1039 19.9599L17.7839 18.6399Z" fill="black"/>
<path d="M23.0637 9.4002C21.2441 7.58066 18.2835 7.58089 16.464 9.4002L13.8241 12.0401L15.1441 13.3601L17.7839 10.7203C18.3298 10.1743 19.0466 9.9014 19.7637 9.9014C20.4809 9.9014 21.1979 10.1744 21.7437 10.7202C22.8353 11.8119 22.8353 13.5884 21.7437 14.68L19.1039 17.3198L20.4238 18.6398L23.0638 15.9998C24.8832 14.1803 24.8832 11.2196 23.0638 9.40008L23.0637 9.4002Z" fill="black"/>
<path d="M13.8242 14.6801L17.7839 18.6398L19.1039 17.3198L15.1441 13.3601L13.8242 14.6801Z" fill="black"/>
<path d="M16.522 28.1333C9.80221 28.1333 4.33542 22.6903 4.33542 15.9999C4.33542 9.30955 9.80221 3.86656 16.522 3.86656C19.1436 3.86656 21.6411 4.68241 23.7445 6.22603L24.849 4.72126C22.423 2.94092 19.5436 2 16.522 2C8.77298 1.99988 2.46875 8.28031 2.46875 15.9999C2.46875 23.7196 8.77298 30 16.522 30C20.5481 30 24.3272 28.307 26.9956 25.3333H24.3121C22.1426 27.1333 19.4052 28.1333 16.522 28.1333Z" fill="black"/>
<path d="M23.9307 21.6V23.4666H27.6641V27.2H29.5307V21.6H23.9307Z" fill="black"/>
</svg>
