<svg width="32" height="32" viewBox="0 0 32 32" fill="none" xmlns="http://www.w3.org/2000/svg">
<path d="M22 29.4999V27.538L19.4684 24.4999H12.5316L10 27.5379V29.4999M13.4684 26.4999H18.5316L19.365 27.5H12.635L13.4684 26.4999Z" fill="black"/>
<path d="M4 18.4999V20.4999H4.0005H28V18.4999H4Z" fill="black"/>
<path d="M27 21.4999H5.0005C4.44913 21.4999 4.0005 21.0513 4.0005 20.4999H2.0005C2.0005 22.154 3.34638 23.4999 5.0005 23.4999H27C28.6541 23.4999 30 22.154 30 20.4999H28C28 21.0513 27.5514 21.4999 27 21.4999Z" fill="black"/>
<path d="M4 18.4999L4.00037 5.49988C4.00037 4.9485 4.449 4.49988 5.00037 4.49988H27C27.5514 4.49988 28 4.9485 28 5.49988V18.4999H30V5.49988C30 3.84575 28.6541 2.49988 27 2.49988H5.00037C3.34625 2.49988 2.00038 3.84563 2.00038 5.49975L2 18.4999H4Z" fill="black"/>
<path d="M17.3246 12.411L15.9103 13.8252L17.9395 15.8545L19.3537 14.4403L17.3246 12.411Z" fill="black"/>
<path d="M12.216 7.87225L11.3721 8.71613L12.768 14.3566L13.4299 15.0185L18.5189 9.93013L17.8577 9.26888L12.216 7.87225ZM14.9986 10.6215L14.1211 11.499L13.8325 10.3329L14.9986 10.6215Z" fill="black"/>
</svg>
