<svg width="32" height="32" viewBox="0 0 32 32" fill="none" xmlns="http://www.w3.org/2000/svg">
<path d="M22.1091 29.491V28.1455L19.4123 24.909H12.5878L9.89104 28.1452V29.4909H22.1092L22.1091 29.491ZM13.3032 26.4363H18.6969L19.9698 27.9637H12.0305L13.3032 26.4363Z" fill="black"/>
<path d="M28.2182 18.7999H3.78182V20.3272H28.2182V18.7999Z" fill="black"/>
<path d="M30 20.5818H28.4727C28.4727 21.2835 27.9018 21.8545 27.2 21.8545H4.80051C4.09873 21.8545 3.52778 21.2835 3.52778 20.5818H2.00051C2.00051 22.1257 3.25656 23.3818 4.80051 23.3818H27.2C28.7439 23.3818 30 22.1257 30 20.5818Z" fill="black"/>
<path d="M3.52765 5.30903C3.52765 4.60725 4.0986 4.03631 4.80038 4.03631H27.2C27.9018 4.03631 28.4727 4.60725 28.4727 5.30903V18.5454H30V5.30903C30 3.76509 28.7439 2.50903 27.2 2.50903H4.80038C3.25644 2.50903 2.00038 3.76509 2.00038 5.30891L2 18.5454H3.52727L3.52765 5.30903Z" fill="black"/>
<path d="M17.1687 12.5258L16.0887 13.6057L18.1548 15.6719L19.2347 14.592L17.1687 12.5258Z" fill="black"/>
<path d="M13.0578 14.6754L13.2033 14.8209L18.3847 9.63987L18.24 9.49516L11.9372 7.9348L11.4984 8.37351L13.0578 14.6754ZM13.9482 11.9159L13.4447 9.88131L15.4792 10.3851L13.9482 11.9159Z" fill="black"/>
</svg>
