<svg width="32" height="32" viewBox="0 0 32 32" fill="none" xmlns="http://www.w3.org/2000/svg">
<path d="M22.2222 29.4815V28.7753L19.354 25.3333H12.6461L9.77778 28.7752V29.4814H22.2222V29.4815ZM13.1317 26.3703H18.8682L20.5967 28.4445H11.4033L13.1317 26.3703Z" fill="black"/>
<path d="M28.4444 19.111H3.55556V20.1481H28.4444V19.111Z" fill="black"/>
<path d="M30 20.6666H28.963C28.963 21.5243 28.2652 22.2221 27.4074 22.2221H4.59311C3.73535 22.2221 3.03756 21.5243 3.03756 20.6666H2.00052C2.00052 22.0961 3.16356 23.2592 4.59311 23.2592H27.4074C28.837 23.2592 30 22.0961 30 20.6666Z" fill="black"/>
<path d="M3.03743 5.11103C3.03743 4.25327 3.73522 3.55547 4.59298 3.55547H27.4074C28.2652 3.55547 28.963 4.25327 28.963 5.11103V18.5925H30V5.11103C30 3.68147 28.837 2.51843 27.4074 2.51843H4.59298C3.16343 2.51843 2.00039 3.68147 2.00039 5.11103L2 18.5925H3.03704L3.03743 5.11103Z" fill="black"/>
<path d="M17.0069 12.6449L16.2737 13.3781L18.378 15.4825L19.1112 14.7493L17.0069 12.6449Z" fill="black"/>
<path d="M13.2035 14.3802L18.0096 9.57443L11.6477 7.99943L11.629 8.0181L13.2035 14.3802ZM13.7689 12.3482L13.0426 9.41304L15.9778 10.1396L13.7689 12.3482Z" fill="black"/>
</svg>
