<svg width="32" height="32" viewBox="0 0 32 32" fill="none" xmlns="http://www.w3.org/2000/svg">
<path d="M24.4488 16.7258L24.4333 29.4104L25.4087 29.4116L25.4242 16.727L24.4488 16.7258Z" fill="black"/>
<path d="M25.1232 11.8544H24.8171L19.9403 16.7312H21.3197L24.9701 13.0809L28.6206 16.7312H30L25.1232 11.8544Z" fill="black"/>
<path d="M19.5566 14.7805V9.40913C19.5578 8.87231 19.9949 8.43583 20.5324 8.43583C21.0698 8.43583 21.5077 8.8734 21.5077 9.4112V11.8544H22.4831V9.4112C22.4831 8.33561 21.6079 7.46046 20.532 7.46046C20.1766 7.46046 19.8441 7.55751 19.5567 7.7243V5.50497C19.5567 4.42939 18.6818 3.55424 17.6059 3.55424C17.2027 3.55424 16.8277 3.67726 16.5164 3.88757C16.2474 3.13178 15.5269 2.58838 14.6798 2.58838C13.6042 2.58838 12.7292 3.46353 12.7292 4.53911V5.76893C12.4418 5.60214 12.1092 5.50497 11.7537 5.50497C11.2326 5.50497 10.7427 5.70785 10.3743 6.07642C10.0058 6.44498 9.80282 6.93474 9.80294 7.45571L9.80331 17.0698L5.32344 12.9019C4.95573 12.5377 4.46866 12.3372 3.95074 12.3372C3.42965 12.3372 2.93977 12.5401 2.57144 12.9085C2.203 13.2769 2 13.7668 2 14.2878C2 14.8088 2.20288 15.2989 2.57425 15.6703L9.80331 22.7782L9.80294 29.4109H10.7783L10.7787 22.3693L3.26103 14.9776C3.07681 14.7933 2.97537 14.5483 2.97537 14.2879C2.97537 14.0275 3.07693 13.7824 3.26115 13.5982C3.44537 13.414 3.69031 13.3125 3.95086 13.3125C4.2114 13.3125 4.45634 13.414 4.64044 13.5982L10.104 18.6818H10.7782L10.7783 7.45559C10.7783 7.19504 10.8797 6.9501 11.064 6.766C11.2482 6.58166 11.4933 6.48022 11.7537 6.48022C12.2915 6.48022 12.729 6.91767 12.729 7.45546L12.7294 14.7804H13.7048L13.7044 4.53899C13.7044 4.0012 14.1419 3.56362 14.68 3.56362C15.2182 3.56362 15.6551 4.0012 15.6551 4.53899V14.7804H16.6305V5.50497C16.6305 4.96718 17.068 4.5296 17.6061 4.5296C18.1443 4.5296 18.5812 4.96718 18.5812 5.50497V9.40913C18.5812 9.40986 18.5811 9.41047 18.5811 9.4112V14.7805H19.5566Z" fill="black"/>
<path d="M21.5074 23.0711C21.5074 24.2743 20.7599 25.0218 19.5566 25.0218H19.0689V25.9972H19.5566C19.9068 25.9972 20.2327 25.9482 20.532 25.8588V29.411H21.5074V25.342C22.1229 24.8271 22.4827 24.0373 22.4827 23.0711V21.608H21.5074V23.0711Z" fill="black"/>
</svg>
