<svg width="32" height="32" viewBox="0 0 32 32" fill="none" xmlns="http://www.w3.org/2000/svg">
<path d="M17.9122 15.0641H19.7842V9.91053C19.7848 9.6529 19.9945 9.44347 20.2526 9.44347C20.5107 9.44347 20.7206 9.65337 20.7206 9.91147V12.256H22.5926V9.91147C22.5926 8.62119 21.5428 7.57146 20.2522 7.57146C20.092 7.57146 19.9356 7.58784 19.7843 7.61861V6.16289C19.7843 4.8726 18.7347 3.82287 17.4442 3.82287C17.1491 3.82287 16.8677 3.88009 16.6075 3.98012C16.1915 3.32937 15.4643 2.896 14.6362 2.896C13.346 2.896 12.2963 3.94573 12.2963 5.23601V5.74204C12.145 5.71115 11.9885 5.69488 11.8282 5.69488C11.2031 5.69488 10.6155 5.93825 10.1734 6.38027C9.73152 6.82219 9.48804 7.40988 9.48816 8.0349L9.48851 16.1866L5.9813 12.9235C5.54091 12.49 4.95883 12.2515 4.34013 12.2515C3.71511 12.2515 3.12742 12.4948 2.68551 12.9368C2.24348 13.3787 2 13.9664 2 14.5914C2 15.2164 2.24336 15.8041 2.69101 16.2516L9.48851 22.9353L9.48816 29.1041H11.3602L11.3605 22.1506L4.00913 14.9224C3.88991 14.8031 3.87213 14.6639 3.87213 14.5915C3.87213 14.5191 3.88991 14.3798 4.00925 14.2606C4.12859 14.1414 4.26782 14.1235 4.34025 14.1235C4.41267 14.1235 4.5519 14.1413 4.67112 14.2605L9.55836 18.8081H11.3602L11.3603 8.03478C11.3603 7.8663 11.4462 7.75515 11.4973 7.70402C11.5484 7.65289 11.6596 7.56689 11.8283 7.56689C12.0864 7.56689 12.2963 7.77679 12.2963 8.03478L12.2966 15.0641H14.1686L14.1683 5.23601C14.1683 4.9779 14.3782 4.76801 14.6365 4.76801C14.8949 4.76801 15.1043 4.9779 15.1043 5.23601V15.0641H16.9763V6.16289C16.9763 5.90478 17.1862 5.69488 17.4445 5.69488C17.7029 5.69488 17.9123 5.90478 17.9123 6.16289L17.9122 15.0641Z" fill="black"/>
<path d="M20.7202 23.0201C20.7202 23.9254 20.2216 24.4241 19.3162 24.4241H18.8482V26.2961H19.3162C19.4765 26.2961 19.6323 26.2859 19.7842 26.2678V29.1041H21.6562V25.4016C22.2468 24.8227 22.5922 23.9961 22.5922 23.0201V21.6161H20.7202V23.0201Z" fill="black"/>
<path d="M25.4002 16.9406H23.5282V29.1041H25.4002V16.9406Z" fill="black"/>
<path d="M21.576 16.9361L24.4642 14.0477L27.3525 16.9361H30L25.32 12.256H23.6085L18.9285 16.9361H21.576Z" fill="black"/>
</svg>
