<svg width="32" height="32" viewBox="0 0 32 32" fill="none" xmlns="http://www.w3.org/2000/svg">
<path d="M18.5959 30C24.7534 30 29.7651 24.9896 29.7678 18.8308V18.6202C29.7651 12.4565 24.7492 7.44197 18.5865 7.44197H15.5596C15.2696 7.44197 15.0336 7.20585 15.0336 6.91153L14.9909 2L14.0085 2.0086L14.0513 6.91582C14.0513 7.74759 14.728 8.42428 15.5596 8.42428H18.5865C24.2078 8.42428 28.783 12.9984 28.7855 18.6205V18.8306C28.783 24.4478 24.212 29.0177 18.5959 29.0177H18.4951C16.3914 29.0177 14.221 28.2652 12.3838 26.899C11.8466 26.4994 11.3539 26.056 10.9083 25.5796H9.60192C11.7311 28.2483 15.0619 30 18.495 30H18.5959Z" fill="black"/>
<path d="M13.0352 18.2123H7.35969C6.69762 18.2123 6.15907 18.7509 6.15907 19.4128V29.5088H7.14137V19.4128C7.14137 19.2925 7.23923 19.1946 7.35969 19.1946H13.0352V18.2123Z" fill="black"/>
<path d="M2.23218 17.7212V29.5088H3.21448V17.7212C3.21448 16.3671 4.31589 15.2654 5.66976 15.2654H17.4553C18.2677 15.2654 18.9287 14.6045 18.9287 13.792V13.4887C18.9287 12.8794 18.5458 12.3254 17.976 12.1101L12.0243 9.86213C11.4544 9.647 11.0717 9.09298 11.0717 8.48371V2.0043H10.0894V8.48395C10.0894 9.49953 10.7275 10.4227 11.6773 10.7813L17.629 13.0293C17.8189 13.101 17.9465 13.2857 17.9465 13.4888V13.7921C17.9465 14.063 17.7262 14.2832 17.4555 14.2832H5.66976C3.77427 14.2832 2.23218 15.8256 2.23218 17.7213V17.7212Z" fill="black"/>
</svg>
