<svg width="32" height="32" viewBox="0 0 32 32" fill="none" xmlns="http://www.w3.org/2000/svg">
<path d="M16.7303 10.0644V6.86957H15.2694V10.0644C10.1052 10.4402 6.01758 14.759 6.01758 20.0174C6.01758 25.5218 10.4958 30 16.0002 30C21.5046 30 25.9828 25.5218 25.9828 20.0174C25.9828 14.7587 21.8948 10.4398 16.7303 10.0644ZM16.0002 28.5391C11.3013 28.5391 7.47845 24.7163 7.47845 20.0174C7.47845 15.3185 11.3013 11.4957 16.0002 11.4957C20.6991 11.4957 24.5219 15.3185 24.5219 20.0174C24.5219 24.7163 20.6991 28.5391 16.0002 28.5391Z" fill="black"/>
<path d="M16.5458 2H15.4538L11.0713 6.38261H13.1371L15.9998 3.51991L18.8625 6.38261H20.9283L16.5458 2Z" fill="black"/>
</svg>
