<svg width="32" height="32" viewBox="0 0 32 32" fill="none" xmlns="http://www.w3.org/2000/svg">
<path d="M15.1079 17.629L15.1124 19.9126C15.1177 22.5495 17.2671 24.6948 19.9038 24.6948H20.1641V29.7386H29.9909V28.2254H21.6772V23.1819L19.9039 23.1817C18.0998 23.1817 16.6291 21.7138 16.6256 19.9097L16.618 16.1158H12.6833L16.6333 12.1453L16.6345 8.80716L15.1214 8.80666L15.1204 11.5204L11.8427 14.815V17.6289H15.1077L15.1079 17.629Z" fill="black"/>
<path d="M15.1204 2.75389C15.1204 6.50842 18.175 9.56311 21.9296 9.56311H24.1993V24.6947H29.991V23.1815H25.7125V8.04995H21.9296C19.2662 8.04995 17.0557 6.07364 16.6875 3.51047L30 3.51085V1.99769L15.1204 1.99731V2.75389Z" fill="black"/>
<path d="M12.34 21.6802C13.0365 21.6802 13.601 21.1157 13.601 20.4193C13.601 19.7229 13.0365 19.1583 12.34 19.1583C11.6436 19.1583 11.0791 19.7229 11.0791 20.4193C11.0791 21.1157 11.6436 21.6802 12.34 21.6802Z" fill="black"/>
<path d="M3.51329 22.2106L6.33482 18.6745C6.45865 18.5191 6.61602 18.4076 6.78814 18.3409C7.10326 18.2188 7.46818 18.2488 7.77094 18.4505C7.9394 18.5629 8.06802 18.716 8.14986 18.8943C8.18945 18.9805 8.21896 19.0722 8.23497 19.1689C8.28428 19.4653 8.21076 19.76 8.0278 19.9985L6.03522 22.5983V27.7329H8.74402L10.2248 25.1415C10.3233 24.969 10.4835 24.8463 10.6758 24.7961C10.8676 24.746 11.0676 24.7745 11.2373 24.8765L11.276 24.9C11.6014 25.0954 11.7237 25.5146 11.5545 25.8542C10.9321 27.1031 9.99213 28.9912 9.48862 30.0026H11.1789C11.6986 28.9589 12.4071 27.5359 12.9089 26.5289C13.4279 25.4872 13.053 24.2019 12.0562 23.6033L12.0176 23.58C11.4955 23.2662 10.8833 23.1784 10.2938 23.3319C9.70425 23.4858 9.21323 23.8617 8.91098 24.3907L7.86576 26.2196H7.54825V23.1116L9.22874 20.9187C9.66238 20.3527 9.84434 19.6245 9.72758 18.9209C9.72606 18.9118 9.72329 18.9032 9.72165 18.8941C9.59896 18.2015 9.19583 17.582 8.61011 17.1914C8.05062 16.8185 7.40248 16.6883 6.78801 16.781C6.16522 16.8749 5.57711 17.1976 5.15178 17.7306L2 21.6807V30.0025H3.51316V22.2105L3.51329 22.2106Z" fill="black"/>
</svg>
