<svg width="32" height="32" viewBox="0 0 32 32" fill="none" xmlns="http://www.w3.org/2000/svg">
<path d="M16 1.25C7.86687 1.25 1.25 7.86675 1.25 16C1.25 24.1333 7.86687 30.75 16 30.75C24.1331 30.75 30.75 24.1331 30.75 16C30.75 7.86687 24.1332 1.25 16 1.25ZM16 29.25C8.694 29.25 2.75 23.306 2.75 16C2.75 8.694 8.694 2.75 16 2.75C23.306 2.75 29.25 8.694 29.25 16C29.25 23.306 23.306 29.25 16 29.25Z" fill="black"/>
<path d="M22.5278 8.40419L16.1631 14.7674L17.2236 15.8282L23.5884 9.46498L22.5278 8.40419Z" fill="black"/>
<path d="M17.2237 16.1817L16.163 17.2423L22.5269 23.6066L23.5876 22.546L17.2237 16.1817Z" fill="black"/>
<path d="M14.7492 16.182L8.38443 22.5451L9.44496 23.6059L15.8097 17.2427L14.7492 16.182Z" fill="black"/>
<path d="M9.44597 8.40309L8.38527 9.46371L14.7491 15.828L15.8098 14.7674L9.44597 8.40309Z" fill="black"/>
</svg>
