<svg width="32" height="32" viewBox="0 0 32 32" fill="none" xmlns="http://www.w3.org/2000/svg">
<path d="M23.7987 24.7635V22.403L10.2716 8.87597H7.91115L2.6748 28.4188L4.25597 30L23.7988 24.7635H23.7987ZM21.9193 23.2622L4.83463 27.8402L9.41244 10.7555L21.9193 23.2622Z" fill="black"/>
<path d="M25.2398 17.5903C27.1023 17.5903 28.6175 16.0751 28.6175 14.2128V13.7286H26.681V14.2128C26.681 15.0074 26.0345 15.6538 25.2398 15.6538C24.4451 15.6538 23.7988 15.0074 23.7988 14.2128V13.7286H21.8623V14.2128C21.8623 16.0752 23.3775 17.5903 25.2398 17.5903Z" fill="black"/>
<path d="M26.5942 2C25.692 2 24.8439 2.35136 24.206 2.9892C22.8892 4.30603 22.889 6.44879 24.206 7.76574L24.5484 8.10814L25.9176 6.7389L25.5753 6.3965C25.0135 5.83455 25.0135 4.92039 25.5753 4.35856C25.8475 4.08636 26.2094 3.93652 26.5943 3.93652C26.9792 3.93652 27.3411 4.08636 27.6133 4.35856L27.9557 4.70096L29.3249 3.33172L28.9827 2.98932C28.3447 2.35136 27.4966 2 26.5944 2H26.5942Z" fill="black"/>
<path d="M16.659 10.8122C18.1501 10.8122 19.5184 9.81567 19.9223 8.30845C20.4042 6.50955 19.3329 4.65388 17.534 4.17181L17.0663 4.04654L16.5651 5.91709L17.0326 6.04236C17.8002 6.248 18.2574 7.03979 18.0516 7.80726C17.846 8.57484 17.0542 9.03222 16.2867 8.82635L15.819 8.70096L15.3176 10.5714L15.7854 10.6968C16.0771 10.775 16.3701 10.8122 16.6588 10.8122H16.659Z" fill="black"/>
</svg>
