<svg width="32" height="32" viewBox="0 0 32 32" fill="none" xmlns="http://www.w3.org/2000/svg">
<path d="M23.9102 24.6263V22.8305L9.81953 8.73987H8.02377L2.6499 28.7952L3.8547 30L23.9102 24.6263ZM22.4758 23.4829L4.29577 28.3543L9.16721 10.1741L22.4758 23.4829Z" fill="black"/>
<path d="M25.3743 17.3472C27.1308 17.3472 28.5599 15.9181 28.5599 14.1617V13.6698H27.0843V14.1617C27.0843 15.1046 26.3172 15.8716 25.3743 15.8716C24.4314 15.8716 23.6644 15.1046 23.6644 14.1617V13.6698H22.1888V14.1617C22.1888 15.9182 23.6179 17.3472 25.3743 17.3472Z" fill="black"/>
<path d="M26.7502 2C25.8995 2 25.0995 2.33139 24.4978 2.93292C23.2557 4.17498 23.2557 6.19588 24.4978 7.43793L24.8457 7.7858L25.889 6.74245L25.5411 6.39459C24.8744 5.72788 24.8746 4.64298 25.5411 3.97627C25.864 3.65337 26.2936 3.47544 26.7502 3.47544C27.2069 3.47544 27.6364 3.65324 27.9593 3.97627L28.3072 4.32413L29.3505 3.28079L29.0027 2.93292C28.401 2.33126 27.6011 2 26.7502 2Z" fill="black"/>
<path d="M16.6565 10.461C18.0629 10.461 19.3534 9.52106 19.7343 8.09948C20.1889 6.40283 19.1784 4.65269 17.4817 4.19797L17.0066 4.0707L16.6248 5.49597L17.0998 5.62324C18.0106 5.86732 18.553 6.80676 18.309 7.71755C18.065 8.62834 17.1253 9.17061 16.2147 8.92678L15.7396 8.79939L15.3577 10.2247L15.8328 10.352C16.1079 10.4258 16.3843 10.461 16.6565 10.461Z" fill="black"/>
</svg>
