<svg width="32" height="32" viewBox="0 0 32 32" fill="none" xmlns="http://www.w3.org/2000/svg">
<path d="M15.2941 27.4118C15.2941 28.0605 14.7664 28.5882 14.1177 28.5882C13.469 28.5882 12.9412 28.0605 12.9412 27.4118V26.466H11.5294V27.4118C11.5294 28.8389 12.6905 30 14.1177 30C15.5448 30 16.7059 28.8389 16.7059 27.4118V18.9412H15.2941V27.4118Z" fill="black"/>
<path d="M16.7059 3.19588V2H15.2941V3.196C8.48531 3.56388 3.05884 9.21965 3.05884 16.1196V16.8255H28.2353L28.9412 16.8189V16.1131C28.9412 9.21659 23.5147 3.56353 16.7059 3.19588ZM4.49201 15.4138C4.81743 10.0529 8.82154 5.66929 14.0058 4.76129C11.7632 7.14341 10.5883 10.0559 10.5883 13.2896H12C12 10.0099 13.3732 7.09423 15.9777 4.82165H16.0224C18.6268 7.09423 20 10.0099 20 13.2896H21.4118C21.4118 10.0559 20.2368 7.14341 17.9941 4.76118C23.1807 5.66882 27.1861 10.0529 27.5085 15.4139L4.49201 15.4138Z" fill="black"/>
<path d="M25.4122 22.9412H21.6475V24.3529H25.4122V22.9412Z" fill="black"/>
<path d="M23.5153 18.2353C20.5313 18.2353 18.1035 20.6631 18.1035 23.6471C18.1035 26.6311 20.5313 29.0588 23.5153 29.0588C26.4993 29.0588 28.9271 26.6311 28.9271 23.6471C28.9271 20.6631 26.4993 18.2353 23.5153 18.2353ZM23.5153 27.6471C21.3097 27.6471 19.5153 25.8527 19.5153 23.6471C19.5153 21.4414 21.3097 19.6471 23.5153 19.6471C25.721 19.6471 27.5153 21.4414 27.5153 23.6471C27.5153 25.8527 25.721 27.6471 23.5153 27.6471Z" fill="black"/>
</svg>
