<svg width="32" height="32" viewBox="0 0 32 32" fill="none" xmlns="http://www.w3.org/2000/svg">
<path d="M9.2592 18.5926H10.8148V20.6667H14.9629V18.5926H16.5185V5.11111H9.2592V18.5926ZM10.2962 6.14815H15.4814V17.5556H13.9259V19.6296H11.8518V17.5556H10.2962V6.14815Z" fill="black"/>
<path d="M14.9733 2H10.8251V3.03704H14.9733V2Z" fill="black"/>
<path d="M19.631 25.8495L18.0744 25.8485L18.0736 26.8855L19.6309 26.8866C21.7075 26.8866 23.66 26.0779 25.1287 24.6097C26.5982 23.1408 27.4073 21.1876 27.4073 19.1099C27.4073 14.8219 23.9188 11.3333 19.6307 11.3333H18.074V12.3704H19.6307C23.347 12.3704 26.3703 15.3937 26.3703 19.1099C26.3703 20.9105 25.669 22.6032 24.3957 23.8763C23.1227 25.1489 21.4306 25.8496 19.631 25.8495Z" fill="black"/>
<path d="M21.1851 28.963H4.59253V30H21.1851V28.963Z" fill="black"/>
<path d="M16.0103 25.8519H9.78808V26.8889H16.0103V25.8519Z" fill="black"/>
<path d="M18.074 22.7407H7.70364V23.7778H18.074V22.7407Z" fill="black"/>
</svg>
