<svg width="32" height="32" viewBox="0 0 32 32" fill="none" xmlns="http://www.w3.org/2000/svg">
<path d="M6.34461 17.4483C6.34461 15.8512 7.64407 14.5517 9.24116 14.5517H13.1032V12.6194C11.8893 11.708 11.1722 10.2852 11.1722 8.75862C11.1722 6.09669 13.3378 3.93103 15.9998 3.93103C18.6617 3.93103 20.8274 6.09669 20.8274 8.75862C20.8274 10.2852 20.1102 11.708 18.8963 12.6194V14.5517H22.7584C24.3555 14.5517 25.655 15.8512 25.655 17.4483V30H27.586V17.4483C27.586 14.7863 25.4203 12.6207 22.7584 12.6207H21.5473C22.3256 11.5041 22.7584 10.1626 22.7584 8.75862C22.7584 5.03184 19.7266 2 15.9998 2C12.273 2 9.24116 5.03184 9.24116 8.75862C9.24116 10.1626 9.67395 11.5041 10.4523 12.6207H9.24116C6.57923 12.6207 4.41357 14.7863 4.41357 17.4483V30H6.34461V17.4483Z" fill="black"/>
<path d="M20.7302 19.3793C20.2816 17.1785 18.3311 15.5172 15.9998 15.5172C13.6684 15.5172 11.7178 17.1785 11.2694 19.3793C11.2057 19.6914 11.1722 20.0143 11.1722 20.3448C11.1722 23.0068 13.3378 25.1724 15.9998 25.1724C18.6617 25.1724 20.8274 23.0068 20.8274 20.3448C20.8274 20.0143 20.7938 19.6914 20.7302 19.3793ZM15.9998 23.2414C14.4027 23.2414 13.1032 21.9419 13.1032 20.3448C13.1032 20.0064 13.1621 19.6815 13.2693 19.3793C13.3685 19.0998 13.509 18.8397 13.6841 18.607C13.7668 18.8896 13.9004 19.1499 14.0733 19.3793C14.5142 19.9643 15.2125 20.3448 15.9998 20.3448V18.4138C15.7335 18.4138 15.517 18.1973 15.517 17.931C15.517 17.6648 15.7335 17.4483 15.9998 17.4483C17.2585 17.4483 18.3316 18.2556 18.7303 19.3793C18.8374 19.6815 18.8963 20.0064 18.8963 20.3448C18.8963 21.9419 17.5969 23.2414 15.9998 23.2414Z" fill="black"/>
<path d="M7.79288 20.8276C7.79288 22.1586 8.87571 23.2414 10.2067 23.2414V21.3103C9.94044 21.3103 9.72392 21.0938 9.72392 20.8276C9.72392 20.5613 9.94044 20.3448 10.2067 20.3448V18.4138C8.87571 18.4138 7.79288 19.4966 7.79288 20.8276Z" fill="black"/>
<path d="M21.7929 18.4138V20.3448C22.0591 20.3448 22.2756 20.5613 22.2756 20.8276C22.2756 21.0938 22.0591 21.3103 21.7929 21.3103V23.2414C23.1238 23.2414 24.2067 22.1586 24.2067 20.8276C24.2067 19.4966 23.1238 18.4138 21.7929 18.4138Z" fill="black"/>
<path d="M15.9998 26.1379C13.147 26.1379 10.6524 27.6936 9.31478 30H11.6865C12.7479 28.8158 14.288 28.069 15.9998 28.069C17.7115 28.069 19.2516 28.8158 20.3131 30H22.6848C21.3472 27.6936 18.8525 26.1379 15.9998 26.1379Z" fill="black"/>
</svg>
