<svg width="32" height="32" viewBox="0 0 32 32" fill="none" xmlns="http://www.w3.org/2000/svg">
<path d="M5.68412 17.2281C5.68412 15.3321 7.2267 13.7895 9.12271 13.7895H13.0525V12.9148L13.0139 12.8892C11.5001 11.8831 10.5964 10.1998 10.5964 8.38596C10.5964 5.40642 13.0204 2.98246 15.9999 2.98246C18.9795 2.98246 21.4034 5.40642 21.4034 8.38596C21.4034 10.1998 20.4998 11.8831 18.986 12.8892L18.9473 12.9148V13.7895H22.8771C24.7731 13.7895 26.3157 15.3321 26.3157 17.2281V30H27.2982V17.2281C27.2982 14.7902 25.3149 12.807 22.8771 12.807H20.608C21.7387 11.6303 22.3859 10.0549 22.3859 8.38596C22.3859 4.86472 19.5212 2 15.9999 2C12.4787 2 9.61394 4.86472 9.61394 8.38596C9.61394 10.0549 10.2611 11.6303 11.3918 12.807H9.12271C6.68487 12.807 4.70166 14.7902 4.70166 17.2281V30H5.68412V17.2281Z" fill="black"/>
<path d="M20.3096 19.193C19.8615 17.2267 18.1 15.7544 15.9999 15.7544C13.8998 15.7544 12.1384 17.2267 11.6902 19.193C11.6182 19.5092 11.5789 19.8377 11.5789 20.1754C11.5789 22.6133 13.5621 24.5965 15.9999 24.5965C18.4377 24.5965 20.421 22.6133 20.421 20.1754C20.421 19.8377 20.3817 19.5092 20.3096 19.193ZM15.9999 23.614C14.1039 23.614 12.5613 22.0715 12.5613 20.1754C12.5613 19.834 12.612 19.5045 12.7051 19.193C12.9345 18.4248 13.4253 17.7683 14.0744 17.3279C14.0487 17.4544 14.0351 17.5853 14.0351 17.7193C14.0351 18.3063 14.2952 18.8325 14.7048 19.193C15.051 19.4977 15.5036 19.6842 16 19.6842V18.7018C15.4583 18.7018 15.0176 18.261 15.0176 17.7193C15.0176 17.1776 15.4583 16.7368 16 16.7368C17.5548 16.7368 18.871 17.7742 19.2948 19.193C19.3879 19.5045 19.4386 19.834 19.4386 20.1754C19.4386 22.0715 17.8959 23.614 15.9999 23.614Z" fill="black"/>
<path d="M8.14026 20.6667C8.14026 21.7501 9.02177 22.6316 10.1052 22.6316V21.6491C9.56347 21.6491 9.12271 21.2084 9.12271 20.6667C9.12271 20.125 9.56347 19.6842 10.1052 19.6842V18.7018C9.02177 18.7018 8.14026 19.5833 8.14026 20.6667Z" fill="black"/>
<path d="M21.8946 18.7018V19.6842C22.4363 19.6842 22.8771 20.125 22.8771 20.6667C22.8771 21.2084 22.4363 21.6491 21.8946 21.6491V22.6316C22.978 22.6316 23.8596 21.7501 23.8596 20.6667C23.8596 19.5833 22.978 18.7018 21.8946 18.7018Z" fill="black"/>
<path d="M15.9999 26.5614C13.3812 26.5614 11.0787 27.9357 9.77163 30H10.9719C12.1419 28.5064 13.9601 27.5439 16 27.5439C18.04 27.5439 19.8581 28.5064 21.0281 30H22.2284C20.9213 27.9357 18.6189 26.5614 16.0002 26.5614H15.9999Z" fill="black"/>
</svg>
