<svg width="32" height="32" viewBox="0 0 32 32" fill="none" xmlns="http://www.w3.org/2000/svg">
<path d="M5.67115 2H4.60002L7.26206 10.1449H8.33306L5.67115 2Z" fill="black"/>
<path d="M11.2552 22.3636H12.3264L11.3279 19.3086H10.2568L11.2552 22.3636Z" fill="black"/>
<path d="M14.6416 2H13.5576L6.1166 22.3636H7.20058L14.6416 2Z" fill="black"/>
<path d="M5.30918 23.8909C4.34687 23.8909 3.48766 24.3388 2.92728 25.0364C2.50689 25.5597 2.25464 26.2236 2.25464 26.9455C2.25464 28.6297 3.62498 30 5.30918 30C6.99338 30 8.36373 28.6297 8.36373 26.9455C8.36373 26.2236 8.11147 25.5597 7.69109 25.0364C7.13084 24.3388 6.27149 23.8909 5.30918 23.8909ZM7.34555 26.9455C7.34555 28.0683 6.43198 28.9818 5.30918 28.9818C4.18638 28.9818 3.27282 28.0683 3.27282 26.9455C3.27282 25.8227 4.18638 24.9091 5.30918 24.9091C6.43198 24.9091 7.34555 25.8227 7.34555 26.9455Z" fill="black"/>
<path d="M13.4546 23.8909C12.4923 23.8909 11.6331 24.3388 11.0727 25.0364C10.6523 25.5597 10.4001 26.2236 10.4001 26.9455C10.4001 28.6297 11.7704 30 13.4546 30C15.1388 30 16.5092 28.6297 16.5092 26.9455C16.5092 26.1336 16.1901 25.3951 15.6716 24.8475C15.1145 24.2591 14.327 23.8909 13.4546 23.8909ZM13.4546 28.9818C12.3318 28.9818 11.4183 28.0683 11.4183 26.9455C11.4183 25.8227 12.3318 24.9091 13.4546 24.9091C14.5774 24.9091 15.491 25.8227 15.491 26.9455C15.491 28.0683 14.5774 28.9818 13.4546 28.9818Z" fill="black"/>
<path d="M27.2001 2.50909H19.0546V3.52727H27.2001C28.0423 3.52727 28.7274 4.21238 28.7274 5.05455V27.4545C28.7274 28.2967 28.0423 28.9818 27.2001 28.9818C26.3579 28.9818 25.6728 28.2967 25.6728 27.4545V21.3455C25.6728 19.9419 24.5309 18.8 23.1274 18.8H19.0546V19.8182H23.1274C23.9695 19.8182 24.6546 20.5033 24.6546 21.3455V27.4545C24.6546 28.8581 25.7965 30 27.2001 30C28.6037 30 29.7455 28.8581 29.7455 27.4545V5.05455C29.7455 3.65098 28.6037 2.50909 27.2001 2.50909Z" fill="black"/>
<path d="M26.1819 6.58182H19.0546V7.6H26.1819V6.58182Z" fill="black"/>
<path d="M26.1819 10.6545H19.0546V11.6727H26.1819V10.6545Z" fill="black"/>
<path d="M26.1819 14.7273H19.0546V15.7455H26.1819V14.7273Z" fill="black"/>
</svg>
