<svg width="32" height="32" viewBox="0 0 32 32" fill="none" xmlns="http://www.w3.org/2000/svg">
<path d="M12.918 22L11.9374 18.9995H9.83313L10.8138 22H12.918Z" fill="black"/>
<path d="M8.996 9.9995L6.38163 2H4.27738L6.89187 9.9995H8.996Z" fill="black"/>
<path d="M5.76062 22H7.88987L15.1981 2H13.0689L5.76062 22Z" fill="black"/>
<path d="M5.5 23C4.48375 23 3.56762 23.4357 2.92762 24.1297C2.35225 24.7536 2 25.5864 2 26.5C2 28.4299 3.57012 30 5.5 30C7.42987 30 9 28.4299 9 26.5C9 25.8105 8.79875 25.1675 8.45312 24.625C7.83138 23.6491 6.74038 23 5.5 23ZM5.5 28C4.67287 28 4 27.3271 4 26.5C4 25.6729 4.67287 25 5.5 25C6.32713 25 7 25.6729 7 26.5C7 27.3271 6.32713 28 5.5 28Z" fill="black"/>
<path d="M15.6774 23.7628C15.0793 23.286 14.3226 23 13.5 23C12.2596 23 11.1686 23.6491 10.5469 24.625C10.2013 25.1675 10 25.8105 10 26.5C10 28.4299 11.5701 30 13.5 30C15.4299 30 17 28.4299 17 26.5C17 25.3927 16.4825 24.4045 15.6774 23.7628ZM13.5 28C12.6729 28 12 27.3271 12 26.5C12 25.6729 12.6729 25 13.5 25C14.3271 25 15 25.6729 15 26.5C15 27.3271 14.3271 28 13.5 28Z" fill="black"/>
<path d="M27 2H19V4H27C27.5514 4 28 4.44863 28 5V27C28 27.5514 27.5514 28 27 28C26.4486 28 26 27.5514 26 27V21C26 19.3459 24.6541 18 23 18H19V20H23C23.5514 20 24 20.4486 24 21V27C24 28.6541 25.3459 30 27 30C28.6541 30 30 28.6541 30 27V5C30 3.34588 28.6541 2 27 2Z" fill="black"/>
<path d="M26 6H19V8H26V6Z" fill="black"/>
<path d="M26 10H19V12H26V10Z" fill="black"/>
<path d="M26 14H19V16H26V14Z" fill="black"/>
</svg>
