<svg width="32" height="32" viewBox="0 0 32 32" fill="none" xmlns="http://www.w3.org/2000/svg">
<path d="M6.02957 2H4.43736L7.07528 10.0716H8.66763L6.02957 2Z" fill="black"/>
<path d="M11.0326 22.1802H12.625L11.6355 19.1526H10.0432L11.0326 22.1802Z" fill="black"/>
<path d="M14.9225 2H13.3111L5.937 22.1802H7.54838L14.9225 2Z" fill="black"/>
<path d="M5.4055 23.4414C4.35008 23.4414 3.41006 23.9432 2.80995 24.72C2.38188 25.2741 2.12622 25.9679 2.12622 26.7207C2.12622 28.529 3.59723 30 5.4055 30C7.21377 30 8.68478 28.529 8.68478 26.7207C8.68478 26.0164 8.46091 25.3639 8.08152 24.8288C7.48696 23.9903 6.50948 23.4414 5.4055 23.4414ZM5.4055 28.4865C4.43181 28.4865 3.63973 27.6944 3.63973 26.7207C3.63973 25.747 4.43181 24.955 5.4055 24.955C6.37919 24.955 7.17127 25.747 7.17127 26.7207C7.17127 27.6944 6.37919 28.4865 5.4055 28.4865Z" fill="black"/>
<path d="M15.6746 24.2885C15.0927 23.7624 14.322 23.4414 13.4776 23.4414C12.3736 23.4414 11.3961 23.9903 10.8016 24.8288C10.4222 25.3639 10.1983 26.0164 10.1983 26.7207C10.1983 28.529 11.6693 30 13.4776 30C15.2858 30 16.7569 28.529 16.7569 26.7207C16.7569 25.7569 16.3387 24.889 15.6746 24.2885ZM13.4776 28.4865C12.5039 28.4865 11.7118 27.6944 11.7118 26.7207C11.7118 25.747 12.5039 24.955 13.4776 24.955C14.4513 24.955 15.2433 25.747 15.2433 26.7207C15.2433 27.6944 14.4513 28.4865 13.4776 28.4865Z" fill="black"/>
<path d="M27.0992 2.25225H19.0271V3.76577H27.0992C27.7947 3.76577 28.3605 4.33157 28.3605 5.02703V27.2252C28.3605 27.9207 27.7947 28.4865 27.0992 28.4865C26.4037 28.4865 25.8379 27.9207 25.8379 27.2252V21.1712C25.8379 19.6411 24.5932 18.3964 23.0632 18.3964H19.0271V19.9099H23.0632C23.7586 19.9099 24.3244 20.4757 24.3244 21.1712V27.2252C24.3244 28.7553 25.5692 30 27.0992 30C28.6292 30 29.874 28.7553 29.874 27.2252V5.02703C29.874 3.49699 28.6292 2.25225 27.0992 2.25225Z" fill="black"/>
<path d="M26.0902 6.28829H19.0271V7.8018H26.0902V6.28829Z" fill="black"/>
<path d="M26.0902 10.3243H19.0271V11.8378H26.0902V10.3243Z" fill="black"/>
<path d="M26.0902 14.3604H19.0271V15.8739H26.0902V14.3604Z" fill="black"/>
</svg>
