<svg width="32" height="32" viewBox="0 0 32 32" fill="none" xmlns="http://www.w3.org/2000/svg">
<path d="M10.8667 2C8.55072 2 6.66667 3.88405 6.66667 6.2V6.23547C5.81232 6.73095 5.17088 7.5545 4.91807 8.53333H6.91913C7.24242 7.97637 7.84418 7.6 8.53368 7.6C9.5628 7.6 10.4 8.43732 10.4 9.46643V9.46667H12.2667V9.46643C12.2667 7.42383 10.6175 5.75993 8.58023 5.7345C8.79653 4.67015 9.73943 3.86667 10.8667 3.86667C12.1533 3.86667 13.2 4.9134 13.2 6.2V15.33L10.4 13.7915V15.9215L13.2 17.4601V25.8001C13.2 27.0867 12.1533 28.1335 10.8667 28.1335C9.73932 28.1335 8.7963 27.3297 8.58012 26.2653C10.6171 26.2402 12.2667 24.5763 12.2667 22.5335H10.4C10.4 23.5626 9.5628 24.3998 8.53298 24.3998C7.84407 24.3998 7.24253 24.0236 6.91925 23.4668H4.91818C5.171 24.4454 5.81232 25.2688 6.66667 25.7642V25.8001C6.66667 28.1161 8.55072 30.0001 10.8667 30.0001C13.1826 30.0001 15.0667 28.1161 15.0667 25.8001V6.2C15.0667 3.88405 13.1826 2 10.8667 2Z" fill="black"/>
<path d="M8.06667 22.5142C8.22288 22.5254 8.38003 22.5331 8.53905 22.5331L8.53322 20.6664C5.96002 20.6664 3.86667 18.5731 3.86667 15.9999C3.86667 13.4267 5.96002 11.3333 8.53322 11.3333H8.54068L8.53322 9.46667C8.37618 9.46667 8.2209 9.47425 8.06667 9.48522C7.01398 9.56 6.0292 9.88375 5.17217 10.4C3.27318 11.5442 2 13.626 2 15.9999C2 18.3738 3.2733 20.456 5.17415 21.6C6.03048 22.1153 7.01445 22.4388 8.06667 22.5142Z" fill="black"/>
<path d="M23.4663 24.3997C22.4372 24.3997 21.6 23.5625 21.6 22.5333H19.7333C19.7333 24.5759 21.3825 26.2397 23.4199 26.2652C23.2037 27.3296 22.2607 28.1333 21.1333 28.1333C19.8467 28.1333 18.8 27.0866 18.8 25.8V17.4825L21.6 15.927V13.7916L18.8 15.3471V6.2C18.8 4.9134 19.8467 3.86667 21.1333 3.86667C22.2606 3.86667 23.2035 4.67015 23.4198 5.7345C21.3828 5.75958 19.7333 7.4236 19.7333 9.46643V9.46667H21.6V9.46643C21.6 8.43732 22.4372 7.6 23.467 7.6C24.156 7.6 24.7576 7.97637 25.0809 8.53333H27.0819C26.8291 7.55462 26.1878 6.73107 25.3333 6.23558V6.2C25.3333 3.88405 23.4493 2 21.1333 2C18.8174 2 16.9333 3.88405 16.9333 6.2V25.8C16.9333 28.116 18.8174 30 21.1333 30C23.4493 30 25.3333 28.116 25.3333 25.8V25.7642C26.1876 25.2688 26.829 24.4454 27.0818 23.4667H25.0806C24.7572 24.0235 24.1558 24.3997 23.4663 24.3997Z" fill="black"/>
<path d="M26.8278 10.4C25.9708 9.88363 24.986 9.55988 23.9333 9.48522C23.779 9.47425 23.6238 9.46667 23.4668 9.46667H23.4593L23.4668 11.3333C26.04 11.3333 28.1333 13.4267 28.1333 15.9999C28.1333 18.5731 26.04 20.6664 23.461 20.6664L23.4668 22.5331C23.6238 22.5331 23.7791 22.5255 23.9333 22.5146C24.9859 22.4399 25.9706 22.1161 26.8275 21.6C28.7267 20.456 30 18.3741 30 15.9999C30 13.6257 28.7269 11.5442 26.8278 10.4Z" fill="black"/>
</svg>
