<svg width="32" height="32" viewBox="0 0 32 32" fill="none" xmlns="http://www.w3.org/2000/svg">
<path d="M10.6897 2C8.56009 2 6.82759 3.7325 6.82759 5.86207V6.18866C5.97129 6.59647 5.31305 7.35416 5.03776 8.27586H6.06495C6.43824 7.4244 7.28814 6.82759 8.27622 6.82759C9.60695 6.82759 10.6897 7.91029 10.6897 9.24114V9.24138H11.6552V9.24114C11.6552 7.37793 10.1393 5.86207 8.2755 5.86207C8.11172 5.86207 7.95072 5.87438 7.7931 5.89707V5.86207C7.7931 4.26498 9.09257 2.96552 10.6897 2.96552C12.2867 2.96552 13.5862 4.26498 13.5862 5.86207V16.123L10.2069 14.2662V15.3678L13.5862 17.2246V26.1379C13.5862 27.735 12.2867 29.0345 10.6897 29.0345C9.09257 29.0345 7.7931 27.735 7.7931 26.1379V26.1026C7.95097 26.1253 8.11221 26.1377 8.27622 26.1377C10.1394 26.1377 11.6552 24.6218 11.6552 22.7587H10.6897C10.6897 24.0895 9.60695 25.1722 8.2755 25.1722C7.28802 25.1722 6.43836 24.5755 6.06507 23.7243H5.03788C5.31317 24.6456 5.97129 25.4032 6.82759 25.811V26.1381C6.82759 28.2676 8.56009 30.0001 10.6897 30.0001C12.8192 30.0001 14.5517 28.2676 14.5517 26.1381V5.86207C14.5517 3.7325 12.8192 2 10.6897 2Z" fill="black"/>
<path d="M7.7931 22.2549C7.95459 22.2673 8.11716 22.2756 8.28178 22.2756L8.27574 21.3101C5.34769 21.3101 2.96552 18.9279 2.96552 15.9999C2.96552 13.0718 5.34769 10.6897 8.27574 10.6897H8.28347L8.27574 9.72414C8.11317 9.72414 7.95265 9.73235 7.7931 9.74453C7.11434 9.79643 6.46528 9.95538 5.86364 10.2069C3.59709 11.1542 2 13.3937 2 15.9999C2 18.6061 3.59733 20.8459 5.86678 21.7931C6.46745 22.0438 7.11543 22.2025 7.7931 22.2549Z" fill="black"/>
<path d="M23.7238 25.1721C22.3931 25.1721 21.3103 24.0893 21.3103 22.7586H20.3448C20.3448 24.6218 21.8607 26.1376 23.7245 26.1376C23.8883 26.1376 24.0493 26.1253 24.2069 26.1026V26.1379C24.2069 27.735 22.9074 29.0345 21.3103 29.0345C19.7133 29.0345 18.4138 27.735 18.4138 26.1379V17.2496L21.7931 15.3722V14.2676L18.4138 16.1451V5.86207C18.4138 4.26498 19.7133 2.96552 21.3103 2.96552C22.9074 2.96552 24.2069 4.26498 24.2069 5.86207V5.89719C24.049 5.8745 23.8878 5.86207 23.7238 5.86207C21.8606 5.86207 20.3448 7.37793 20.3448 9.24114V9.24138H21.3103V9.24114C21.3103 7.91029 22.3931 6.82759 23.7245 6.82759C24.7121 6.82759 25.5619 7.4244 25.9351 8.27586H26.9621C26.6868 7.3544 26.0287 6.59671 25.1723 6.18878V5.86207C25.1723 3.7325 23.4398 2 21.3102 2C19.1807 2 17.4482 3.7325 17.4482 5.86207V26.1379C17.4482 28.2675 19.1807 30 21.3102 30C23.4398 30 25.1723 28.2675 25.1723 26.1379V25.811C26.0285 25.4032 26.6867 24.6456 26.962 23.7241H25.9348C25.5614 24.5754 24.7117 25.1721 23.7238 25.1721Z" fill="black"/>
<path d="M26.1364 10.2069C25.5347 9.9555 24.8857 9.79643 24.2069 9.74453C24.0473 9.73235 23.8868 9.72414 23.7243 9.72414H23.7165L23.7243 10.6897C26.6523 10.6897 29.0345 13.0718 29.0345 15.9999C29.0345 18.9279 26.6523 21.3101 23.7182 21.3101L23.7243 22.2756C23.8868 22.2756 24.0473 22.2674 24.2069 22.2552C24.8854 22.2033 25.5342 22.0444 26.1358 21.7931C28.4025 20.8459 30 18.6063 30 15.9999C30 13.3935 28.4029 11.1542 26.1364 10.2069Z" fill="black"/>
</svg>
