<svg width="32" height="32" viewBox="0 0 32 32" fill="none" xmlns="http://www.w3.org/2000/svg">
<path d="M6.34483 11.6552C3.94902 11.6552 2 13.6042 2 16C2 18.3958 3.94902 20.3448 6.34483 20.3448C7.8701 20.3448 9.21338 19.5542 9.98881 18.3618L18.8966 22.8156V21.736L10.4228 17.4992C10.5953 17.0317 10.6897 16.5267 10.6897 16C10.6897 15.4733 10.5953 14.9683 10.4228 14.5008L18.8966 10.264V9.18441L9.98881 13.6382C9.21338 12.4459 7.8701 11.6552 6.34483 11.6552ZM6.34483 19.3793C4.4815 19.3793 2.96552 17.8633 2.96552 16C2.96552 14.1367 4.4815 12.6207 6.34483 12.6207C8.20816 12.6207 9.72414 14.1367 9.72414 16C9.72414 17.8633 8.20816 19.3793 6.34483 19.3793Z" fill="black"/>
<path d="M25.6552 10.6897C28.051 10.6897 30 8.74064 30 6.34483C30 3.94902 28.051 2 25.6552 2C23.2594 2 21.3103 3.94902 21.3103 6.34483C21.3103 8.74064 23.2594 10.6897 25.6552 10.6897ZM25.6552 2.96552C27.5185 2.96552 29.0345 4.4815 29.0345 6.34483C29.0345 8.20816 27.5185 9.72414 25.6552 9.72414C23.7918 9.72414 22.2759 8.20816 22.2759 6.34483C22.2759 4.4815 23.7918 2.96552 25.6552 2.96552Z" fill="black"/>
<path d="M25.6552 21.3103C23.2594 21.3103 21.3103 23.2594 21.3103 25.6552C21.3103 28.051 23.2594 30 25.6552 30C28.051 30 30 28.051 30 25.6552C30 23.2594 28.051 21.3103 25.6552 21.3103ZM25.6552 29.0345C23.7918 29.0345 22.2759 27.5185 22.2759 25.6552C22.2759 23.7918 23.7918 22.2759 25.6552 22.2759C27.5185 22.2759 29.0345 23.7918 29.0345 25.6552C29.0345 27.5185 27.5185 29.0345 25.6552 29.0345Z" fill="black"/>
</svg>
