<svg width="32" height="32" viewBox="0 0 32 32" fill="none" xmlns="http://www.w3.org/2000/svg">
<path d="M6.66667 11.3333C4.09347 11.3333 2 13.4268 2 16C2 18.5732 4.09347 20.6667 6.66667 20.6667C8.15452 20.6667 9.4809 19.966 10.3359 18.8782L18.8 23.1101V21.0231L11.1734 17.2097C11.2771 16.8237 11.3333 16.4183 11.3333 15.9999C11.3333 15.5815 11.2771 15.1761 11.1734 14.79L18.8 10.9767V8.88963L10.3359 13.1216C9.48078 12.0338 8.1544 11.3331 6.66667 11.3331V11.3333ZM6.66667 18.8C5.12282 18.8 3.86667 17.5438 3.86667 16C3.86667 14.4562 5.12282 13.2 6.66667 13.2C8.21052 13.2 9.46667 14.4562 9.46667 16C9.46667 17.5438 8.21052 18.8 6.66667 18.8Z" fill="black"/>
<path d="M25.3333 11.3333C27.9065 11.3333 30 9.23987 30 6.66667C30 4.09347 27.9065 2 25.3333 2C22.7601 2 20.6667 4.09347 20.6667 6.66667C20.6667 9.23987 22.7601 11.3333 25.3333 11.3333ZM25.3333 3.86667C26.8772 3.86667 28.1333 5.12282 28.1333 6.66667C28.1333 8.21052 26.8772 9.46667 25.3333 9.46667C23.7895 9.46667 22.5333 8.21052 22.5333 6.66667C22.5333 5.12282 23.7895 3.86667 25.3333 3.86667Z" fill="black"/>
<path d="M25.3333 20.6667C22.7601 20.6667 20.6667 22.7601 20.6667 25.3333C20.6667 27.9065 22.7601 30 25.3333 30C27.9065 30 30 27.9065 30 25.3333C30 22.7601 27.9065 20.6667 25.3333 20.6667ZM25.3333 28.1333C23.7895 28.1333 22.5333 26.8772 22.5333 25.3333C22.5333 23.7895 23.7895 22.5333 25.3333 22.5333C26.8772 22.5333 28.1333 23.7895 28.1333 25.3333C28.1333 26.8772 26.8772 28.1333 25.3333 28.1333Z" fill="black"/>
</svg>
