<svg width="32" height="32" viewBox="0 0 32 32" fill="none" xmlns="http://www.w3.org/2000/svg">
<path d="M21.7931 15.4371L13.0762 10.2069H11.6552V21.7884H13.084L21.7931 16.5629V15.4371ZM12.6207 11.0596L20.8549 16.0001L12.6207 20.9407V11.0596Z" fill="black"/>
<path d="M16 30C8.28045 30 2 23.7197 2 16C2 8.28033 8.28045 2 16 2C23.7196 2 30 8.28033 30 16C30 23.7197 23.7196 30 16 30ZM16 2.96552C8.81281 2.96552 2.96552 8.81269 2.96552 16C2.96552 23.1873 8.81281 29.0345 16 29.0345C23.1872 29.0345 29.0345 23.1873 29.0345 16C29.0345 8.81269 23.1872 2.96552 16 2.96552Z" fill="black"/>
</svg>
