<svg width="32" height="32" viewBox="0 0 32 32" fill="none" xmlns="http://www.w3.org/2000/svg">
<path d="M22 14.8338L13.9436 9.99988H10.9999V21.995H13.9517L22 17.166V14.8338ZM13 11.7661L20.0564 15.9999L13 20.2336V11.7661Z" fill="black"/>
<path d="M16 30.9999C7.729 30.9999 1 24.2709 1 15.9999C1 7.72888 7.729 0.999878 16 0.999878C24.271 0.999878 31 7.72888 31 15.9999C31 24.2709 24.271 30.9999 16 30.9999ZM16 2.99988C8.83175 2.99988 3 8.83163 3 15.9999C3 23.1681 8.83175 28.9999 16 28.9999C23.1683 28.9999 29 23.1681 29 15.9999C29 8.83163 23.1683 2.99988 16 2.99988Z" fill="black"/>
</svg>
