<svg width="32" height="32" viewBox="0 0 32 32" fill="none" xmlns="http://www.w3.org/2000/svg">
<path d="M22 15.1255L13.4576 10.0001H11.25V21.9952H13.4659L22.0001 16.8747V15.1255H22ZM12.75 11.3247L20.5422 16.0001L12.75 20.6755V11.3247Z" fill="black"/>
<path d="M16 30.7501C7.86687 30.7501 1.25 24.1332 1.25 16.0001C1.25 7.867 7.86687 1.25012 16 1.25012C24.1331 1.25012 30.75 7.867 30.75 16.0001C30.75 24.1332 24.1331 30.7501 16 30.7501ZM16 2.75012C8.69387 2.75012 2.75 8.69412 2.75 16.0001C2.75 23.3061 8.69387 29.2501 16 29.2501C23.3061 29.2501 29.25 23.3061 29.25 16.0001C29.25 8.69412 23.3061 2.75012 16 2.75012Z" fill="black"/>
</svg>
