<svg width="32" height="32" viewBox="0 0 32 32" fill="none" xmlns="http://www.w3.org/2000/svg">
<path d="M24.1451 6.07342C22.461 6.07342 21.0907 7.44371 21.0907 9.12784C21.0907 10.812 22.461 12.1823 24.1451 12.1823C25.8293 12.1823 27.1996 10.812 27.1996 9.12784C27.1996 7.44371 25.8293 6.07342 24.1451 6.07342ZM24.1451 11.1641C23.0224 11.1641 22.1089 10.2506 22.1089 9.12784C22.1089 8.00509 23.0224 7.09156 24.1451 7.09156C25.2679 7.09156 26.1814 8.00509 26.1814 9.12784C26.1814 10.2506 25.2679 11.1641 24.1451 11.1641Z" fill="black"/>
<path d="M24.2808 14.5979C23.1883 14.1291 21.9354 14.4723 21.234 15.4324L16.7598 21.5578H12.9456V13.1146L19.7744 6.26445C20.6068 5.42931 20.7398 4.10878 20.0908 3.12437C19.7174 2.55828 19.1452 2.17546 18.4794 2.04654C17.8133 1.91736 17.1398 2.05927 16.5821 2.44527L4.80045 10.6013V29.9997H5.81859V11.1349L17.1615 3.28256C17.4921 3.05374 17.8912 2.97038 18.2859 3.04635C18.6804 3.12284 19.0196 3.34963 19.2408 3.68511C19.6252 4.26838 19.5464 5.05095 19.0532 5.54576L11.9273 12.694V22.5761H17.2768L22.0563 16.0331C22.4759 15.4588 23.2256 15.2531 23.8794 15.5337C24.2808 15.7061 24.5789 16.0288 24.7186 16.4428C24.8583 16.8567 24.8169 17.294 24.602 17.6744L17.6373 30H18.8068L25.4884 18.1753C25.8424 17.549 25.9134 16.7989 25.6833 16.1173C25.4531 15.4356 24.9421 14.8819 24.2808 14.5982V14.5979Z" fill="black"/>
</svg>
