<svg width="32" height="32" viewBox="0 0 32 32" fill="none" xmlns="http://www.w3.org/2000/svg">
<path d="M16.3606 12.6472L10.664 6.97935C10.2193 6.53684 9.9744 5.9488 9.97452 5.32366C9.97452 4.69829 10.2195 4.11024 10.6643 3.66786C11.1241 3.21025 11.7281 2.98156 12.3321 2.98156C12.9361 2.98156 13.5402 3.21037 14.0001 3.66798L16.3608 6.01696L18.7219 3.66823C19.6416 2.75337 21.1381 2.75325 22.0578 3.66823C22.5025 4.11073 22.7474 4.69878 22.7473 5.32391C22.7473 5.7292 22.6429 6.11804 22.4494 6.46254H23.5294C23.6609 6.10244 23.7298 5.71864 23.7298 5.32403C23.7298 4.43534 23.3821 3.59982 22.7507 2.97161C21.4489 1.67627 19.3307 1.6764 18.0289 2.97161L16.3608 4.63098L14.6929 2.97137C13.3911 1.67627 11.2729 1.67615 9.97108 2.97137C9.33956 3.59957 8.99174 4.43497 8.99174 5.32366C8.99174 6.21236 9.33944 7.04788 9.97083 7.67608L16.3603 14.0334L16.367 14.0269V12.6409L16.3603 12.6474L16.3606 12.6472Z" fill="black"/>
<path d="M20.7886 6.9107H19.8061V9.36284H20.7886V6.9107Z" fill="black"/>
<path d="M20.7886 11.3279H19.8061V13.7884H20.7886V11.3279Z" fill="black"/>
<path d="M23.7378 9.85828H21.2799V10.8408H23.7378V9.85828Z" fill="black"/>
<path d="M19.3148 9.85828H16.8601V10.8408H19.3148V9.85828Z" fill="black"/>
<path d="M8.21923 18.701H16.8585C17.4002 18.701 17.841 19.1418 17.841 19.6836C17.841 20.2253 17.4002 20.6661 16.8585 20.6661H13.4196V21.6486H22.5321L26.115 16.0184C26.2818 15.7578 26.5739 15.5705 26.9161 15.5043C27.2622 15.4372 27.618 15.4997 27.8925 15.6757C28.4076 16.0058 28.5688 16.8786 28.2254 17.4693L23.4552 25.5786H7.81222L3.39084 30H4.78026L8.21911 26.5611H24.0171L29.0735 17.9653C29.6824 16.9175 29.3784 15.461 28.4226 14.8485C27.938 14.5381 27.3211 14.4256 26.7297 14.5394C26.1243 14.6563 25.5987 15.0023 25.2867 15.4895L21.9927 20.6659H18.5597C18.7274 20.3767 18.8234 20.041 18.8234 19.6833C18.8234 18.5998 17.9418 17.7183 16.8584 17.7183H7.81222L2.61182 22.9187V24.3081L8.21923 18.7007V18.701Z" fill="black"/>
</svg>
