<svg width="32" height="32" viewBox="0 0 32 32" fill="none" xmlns="http://www.w3.org/2000/svg">
<path d="M16.1099 14.9893L16.1164 14.9828V12.2587L16.11 12.2651L10.8521 7.0338C10.5069 6.69017 10.3167 6.23393 10.3167 5.74884C10.3167 5.26375 10.5069 4.80727 10.8523 4.46388C11.2104 4.1077 11.6806 3.92955 12.1508 3.92955C12.6211 3.92955 13.0915 4.1077 13.4496 4.46388L16.1101 7.11129L18.7709 4.46425C19.487 3.75188 20.6521 3.75176 21.3684 4.46425C21.7136 4.80788 21.9038 5.26412 21.9038 5.74921C21.9038 6.16018 21.766 6.54956 21.5144 6.8682H23.6649C23.7766 6.51069 23.835 6.1346 23.835 5.74933C23.835 4.74644 23.4428 3.8039 22.7306 3.09528C21.2635 1.63555 18.8763 1.63555 17.4091 3.09504L16.1104 4.387L14.8118 3.09492C13.3447 1.63519 10.9575 1.63495 9.49041 3.09468C8.77804 3.8033 8.38577 4.74596 8.38565 5.74872C8.38553 6.75149 8.7778 7.69414 9.49004 8.40277L16.1099 14.9893Z" fill="black"/>
<path d="M20.9444 7.30851H19.0132V9.71838H20.9444V7.30851Z" fill="black"/>
<path d="M19.0132 11.6496V11.6537V14.0676H20.9444V11.6537V11.6496H19.0132Z" fill="black"/>
<path d="M20.9444 9.72249V11.6496V11.6537H23.3599V9.72249H20.9444Z" fill="black"/>
<path d="M19.0132 9.72249H16.6008V11.6537H19.0132V11.6496V9.72249Z" fill="black"/>
<path d="M28.2245 14.7031C27.6451 14.3316 26.9104 14.1962 26.2088 14.332C25.4847 14.4717 24.8532 14.8896 24.4749 15.4805L21.38 20.3441H18.9648C18.9966 20.188 19.0133 20.0267 19.0133 19.8613C19.0133 18.5302 17.9304 17.4473 16.5993 17.4473H7.50902L2.59814 22.3581V25.0892L8.30876 19.3785H16.5992C16.8655 19.3785 17.082 19.595 17.082 19.8613C17.082 20.1276 16.8655 20.3441 16.5992 20.3441H13.2196V22.2753H22.4401L26.1028 16.5195C26.1958 16.3743 26.368 16.2681 26.5752 16.228C26.7915 16.1865 27.0186 16.224 27.1826 16.3291C27.4666 16.5111 27.5549 17.095 27.3541 17.4406L22.8061 25.172H7.50902L2.68106 30H5.41224L8.30901 27.1032H23.9108L29.0213 18.4155C29.7562 17.1509 29.3913 15.451 28.2247 14.7032L28.2245 14.7031Z" fill="black"/>
</svg>
