<svg width="32" height="32" viewBox="0 0 32 32" fill="none" xmlns="http://www.w3.org/2000/svg">
<path d="M10.8149 14.4443C12.8163 14.4443 14.4447 16.0725 14.4447 18.074C14.4447 20.0755 12.8163 21.7038 10.8149 21.7038C8.81359 21.7038 7.18531 20.0755 7.18518 18.0741H6.14815C6.14815 20.6474 8.2418 22.7408 10.8149 22.7408C13.3881 22.7408 15.4817 20.6473 15.4817 18.074C15.4817 15.5007 13.3882 13.4072 10.8149 13.4072V14.4443Z" fill="black"/>
<path d="M25.8519 17.037H24.8148V23.2592H25.8519V17.037Z" fill="black"/>
<path d="M22.7407 14.963H21.7037V23.2593H22.7407V14.963Z" fill="black"/>
<path d="M19.6296 12.889H18.5926V23.2593H19.6296V12.889Z" fill="black"/>
<path d="M28.963 27.926H3.03704V8.74081H2V28.963H30V8.74081H28.963V27.926Z" fill="black"/>
<path d="M3.03704 4.07415H28.963V6.66674H30V3.03711H2V6.66674H3.03704V4.07415Z" fill="black"/>
<path d="M28.4444 7.18526H3.55556V8.22229H28.4444V7.18526Z" fill="black"/>
</svg>
