<svg width="32" height="32" viewBox="0 0 32 32" fill="none" xmlns="http://www.w3.org/2000/svg">
<path d="M10.9092 14.7269C12.7339 14.7269 14.2184 16.2114 14.2184 18.0361C14.2184 19.8608 12.7339 21.3453 10.9092 21.3453C9.08451 21.3453 7.60013 19.8608 7.6 18.0362H6.07273C6.07273 20.703 8.24235 22.8726 10.9092 22.8726C13.5761 22.8726 15.7457 20.703 15.7457 18.0361C15.7457 15.3692 13.5761 13.1996 10.9092 13.1996V14.7269Z" fill="black"/>
<path d="M25.9273 17.0179H24.4V23.127H25.9273V17.0179Z" fill="black"/>
<path d="M22.8727 14.9817H21.3455V23.1272H22.8727V14.9817Z" fill="black"/>
<path d="M19.8182 12.9453H18.2909V23.1272H19.8182V12.9453Z" fill="black"/>
<path d="M28.4727 27.4544H3.52727V8.87261H2V28.9817H30V8.87261H28.4727V27.4544Z" fill="black"/>
<path d="M3.52727 4.54534H28.4727V6.83625H30V3.01807H2V6.83625H3.52727V4.54534Z" fill="black"/>
<path d="M28.2182 7.09079H3.78182V8.61807H28.2182V7.09079Z" fill="black"/>
</svg>
