<svg width="32" height="32" viewBox="0 0 32 32" fill="none" xmlns="http://www.w3.org/2000/svg">
<path d="M4.06591 8.01143H4.06653C4.53204 5.72771 6.55602 4.00381 8.97524 4.00381C11.3945 4.00381 13.4184 5.72771 13.884 8.01143H15.9158C15.428 4.61723 12.5022 2 8.97524 2C5.44828 2 2.52235 4.61723 2.03467 8.01143H4.06591Z" fill="black"/>
<path d="M15.9158 10.0152H13.884C13.4184 12.299 11.3945 14.0229 8.97524 14.0229C6.55602 14.0229 4.53204 12.299 4.06653 10.0152H2.03467C2.52247 13.4094 5.44828 16.0267 8.97524 16.0267C12.5022 16.0267 15.4281 13.4094 15.9158 10.0152Z" fill="black"/>
<path d="M13.8846 8.01143H13.884H4.06653H4.06591V10.0152H4.06653H13.884H13.8846V8.01143Z" fill="black"/>
<path d="M17.0153 26.972C15.6479 28.3391 13.4232 28.3391 12.0561 26.9717C11.3937 26.3094 11.029 25.4288 11.0291 24.492C11.0291 23.5554 11.394 22.6748 12.0562 22.0126L16.3073 17.762L14.8905 16.345L10.6395 20.5956C9.59855 21.6363 9.02534 23.02 9.02534 24.4919C9.02534 25.9638 9.5983 27.3477 10.6392 28.3884C11.7134 29.4629 13.1246 30 14.5358 30C15.947 30 17.3578 29.463 18.432 28.3889L22.6829 24.1384L21.2661 22.7214L17.0153 26.972Z" fill="black"/>
<path d="M29.9652 14.5747C29.9652 13.1027 29.3922 11.7189 28.3513 10.6781C27.3106 9.63715 25.927 9.06393 24.4551 9.06393H24.4548C22.983 9.06393 21.5991 9.63702 20.5585 10.6778L16.3076 14.9283L17.7244 16.3453L16.4086 17.6609L21.9753 12.0948C22.6377 11.4326 23.5183 11.0677 24.4551 11.0679C25.3917 11.0679 26.2723 11.4327 26.9345 12.0949C28.3017 13.4623 28.3016 15.687 26.9345 17.0543L22.6836 21.3047L24.1004 22.7217L28.3512 18.4712C29.3922 17.4303 29.9654 16.0467 29.9654 14.5748L29.9652 14.5747Z" fill="black"/>
<path d="M16.3073 17.762L21.2662 22.7214L22.6832 21.3047L17.7243 16.3453L16.3073 17.762Z" fill="black"/>
</svg>
