<svg width="32" height="32" viewBox="0 0 32 32" fill="none" xmlns="http://www.w3.org/2000/svg">
<path d="M15.6564 9.90543H14.1037C13.6259 12.372 11.4512 14.2407 8.84698 14.2407C6.24277 14.2407 4.06802 12.372 3.59025 9.90543H2.0376C2.53207 13.22 5.39702 15.7707 8.84698 15.7707C12.2969 15.7707 15.1619 13.22 15.6564 9.90543Z" fill="black"/>
<path d="M8.84698 3.53008C11.451 3.53008 13.6259 5.3987 14.1037 7.86532H15.6564C15.1619 4.55078 12.2969 2 8.84698 2C5.39702 2 2.53207 4.55078 2.0376 7.86532H3.59025C4.06802 5.3987 6.24277 3.53008 8.84698 3.53008Z" fill="black"/>
<path d="M13.8452 8.12033H3.84871V9.65041H13.8452V8.12033Z" fill="black"/>
<path d="M29.9621 14.5474C29.9621 13.1169 29.4053 11.772 28.3938 10.7606C27.3823 9.74898 26.0376 9.1919 24.6071 9.1919C23.1767 9.1919 21.8319 9.74885 20.8205 10.7602L16.4925 15.0878L17.5744 16.1698L21.9024 11.8424C22.625 11.1199 23.5855 10.722 24.6073 10.7221C25.6292 10.7221 26.5897 11.1201 27.312 11.8425C28.0346 12.5651 28.4324 13.5256 28.4323 14.5474C28.4323 15.5693 28.0343 16.5298 27.3119 17.2522L22.9839 21.5798L24.0658 22.6619L28.3937 18.3344C29.4053 17.3229 29.9624 15.9781 29.9624 14.5477L29.9621 14.5474Z" fill="black"/>
<path d="M17.213 27.3498C16.4905 28.0722 15.53 28.4699 14.5083 28.4699H14.508C13.4862 28.4699 12.5257 28.072 11.8034 27.3495C11.0808 26.6269 10.6829 25.6664 10.6831 24.6446C10.6831 23.6227 11.081 22.6622 11.8035 21.9399L16.1316 17.6123L15.0497 16.5303L10.7217 20.8579C9.71007 21.8694 9.15299 23.2141 9.15299 24.6446C9.15299 26.075 9.70981 27.4199 10.7213 28.4313C11.7328 29.4429 13.0775 30 14.5079 30H14.5083C15.9385 30 17.2835 29.4431 18.2947 28.4318L22.6228 24.1042L21.5409 23.0222L17.213 27.3496V27.3498Z" fill="black"/>
<path d="M16.4922 17.6122L21.5409 22.6615L22.6229 21.5797L17.5742 16.5304L16.4922 17.6122Z" fill="black"/>
</svg>
