<svg width="32" height="32" viewBox="0 0 32 32" fill="none" xmlns="http://www.w3.org/2000/svg">
<path d="M16 2C8.28033 2 2 8.28033 2 16C2 23.7197 8.28033 30 16 30C23.7197 30 30 23.7197 30 16C30 8.28033 23.7197 2 16 2ZM16 29.0345C8.81269 29.0345 2.96552 23.1873 2.96552 16C2.96552 8.81269 8.81269 2.96552 16 2.96552C23.1873 2.96552 29.0345 8.81269 29.0345 16C29.0345 23.1873 23.1873 29.0345 16 29.0345Z" fill="black"/>
<path d="M16 10.6897C13.0718 10.6897 10.6897 13.0718 10.6897 16C10.6897 18.9282 13.0718 21.3103 16 21.3103C18.9282 21.3103 21.3103 18.9282 21.3103 16C21.3103 13.0718 18.9282 10.6897 16 10.6897ZM16 20.3448C13.6042 20.3448 11.6552 18.3958 11.6552 16C11.6552 13.6042 13.6042 11.6552 16 11.6552C18.3958 11.6552 20.3448 13.6042 20.3448 16C20.3448 18.3958 18.3958 20.3448 16 20.3448Z" fill="black"/>
<path d="M16 13.5862C14.669 13.5862 13.5862 14.669 13.5862 16C13.5862 17.331 14.669 18.4138 16 18.4138C17.331 18.4138 18.4138 17.331 18.4138 16C18.4138 14.669 17.331 13.5862 16 13.5862ZM16 17.4483C15.2014 17.4483 14.5517 16.7986 14.5517 16C14.5517 15.2014 15.2014 14.5517 16 14.5517C16.7986 14.5517 17.4483 15.2014 17.4483 16C17.4483 16.7986 16.7986 17.4483 16 17.4483Z" fill="black"/>
</svg>
