<svg width="32" height="32" viewBox="0 0 32 32" fill="none" xmlns="http://www.w3.org/2000/svg">
<path d="M16 2C8.2804 2 2 8.2804 2 16C2 23.7196 8.2804 30 16 30C23.7196 30 30 23.7196 30 16C30 8.2804 23.7196 2 16 2ZM16 28.1333C9.30963 28.1333 3.86667 22.6904 3.86667 16C3.86667 9.30963 9.30963 3.86667 16 3.86667C22.6904 3.86667 28.1333 9.30963 28.1333 16C28.1333 22.6904 22.6904 28.1333 16 28.1333Z" fill="black"/>
<path d="M16 10.4C12.9121 10.4 10.4 12.9121 10.4 16C10.4 19.0879 12.9121 21.6 16 21.6C19.0879 21.6 21.6 19.0879 21.6 16C21.6 12.9121 19.0879 10.4 16 10.4ZM16 19.7333C13.9414 19.7333 12.2667 18.0586 12.2667 16C12.2667 13.9414 13.9414 12.2667 16 12.2667C18.0586 12.2667 19.7333 13.9414 19.7333 16C19.7333 18.0586 18.0586 19.7333 16 19.7333Z" fill="black"/>
<path d="M16 13.2C14.4562 13.2 13.2 14.4562 13.2 16C13.2 17.5438 14.4562 18.8 16 18.8C17.5438 18.8 18.8 17.5438 18.8 16C18.8 14.4562 17.5438 13.2 16 13.2ZM16 16.9333C15.4854 16.9333 15.0667 16.5146 15.0667 16C15.0667 15.4854 15.4854 15.0667 16 15.0667C16.5146 15.0667 16.9333 15.4854 16.9333 16C16.9333 16.5146 16.5146 16.9333 16 16.9333Z" fill="black"/>
</svg>
