<svg width="32" height="32" viewBox="0 0 32 32" fill="none" xmlns="http://www.w3.org/2000/svg">
<path d="M23.8909 14.3248V4.8C23.8909 3.25605 22.6349 2 21.0909 2H10.9091C9.36517 2 8.10912 3.25605 8.10912 4.8V14.3248C6.93528 14.6582 6.07275 15.739 6.07275 17.0182V21.0909H7.60003V17.0182C7.60003 16.3164 8.17097 15.7455 8.87275 15.7455H23.1273C23.8291 15.7455 24.4 16.3164 24.4 17.0182V21.0909H25.9273V17.0182C25.9273 15.739 25.0648 14.6583 23.8909 14.3248ZM9.63639 14.2182V4.8C9.63639 4.09822 10.2073 3.52727 10.9091 3.52727H21.0909C21.7927 3.52727 22.3637 4.09822 22.3637 4.8V14.2182H9.63639Z" fill="black"/>
<path d="M20.0728 10.1455H11.9273V11.6727H20.0728V10.1455Z" fill="black"/>
<path d="M23.8909 30V21.0909H22.3637V28.4727H19.8182V19.3043L12.1818 19.3091V28.4727H9.63639V21.0909H8.10912V30H13.7091V20.8359L18.2909 20.8327V30H23.8909Z" fill="black"/>
</svg>
