<svg width="32" height="32" viewBox="0 0 32 32" fill="none" xmlns="http://www.w3.org/2000/svg">
<path d="M23.7778 14.4967V4.59259C23.7778 3.16304 22.6148 2 21.1852 2H10.8149C9.3853 2 8.22227 3.16304 8.22227 4.59259V14.4967C7.0403 14.7375 6.14819 15.7849 6.14819 17.037V21.1852H7.18523V17.037C7.18523 16.1793 7.88303 15.4815 8.74079 15.4815H23.2593C24.1171 15.4815 24.8149 16.1793 24.8149 17.037V21.1852H25.8519V17.037C25.8519 15.7849 24.9598 14.7375 23.7778 14.4967ZM9.2593 14.4444V4.59259C9.2593 3.73483 9.9571 3.03704 10.8149 3.03704H21.1852C22.043 3.03704 22.7408 3.73483 22.7408 4.59259V14.4444H9.2593Z" fill="black"/>
<path d="M20.1482 10.2963H11.8519V11.3333H20.1482V10.2963Z" fill="black"/>
<path d="M23.7778 30V21.1852H22.7408V28.963H19.6297V19.6248L12.3704 19.6296V28.963H9.2593V21.1852H8.22227V30H13.4075V20.6663L18.5926 20.6626V30H23.7778Z" fill="black"/>
</svg>
