<svg width="32" height="32" viewBox="0 0 32 32" fill="none" xmlns="http://www.w3.org/2000/svg">
<path d="M28.4325 17.3503L24.6807 18.355L24.5891 18.6104C24.5851 18.6214 24.1912 19.7167 23.9324 20.2031L23.7972 20.4573L26.0311 24.3095L24.322 26.0185L20.4694 23.7942L20.2157 23.9296C19.712 24.198 19.1826 24.4184 18.6424 24.5847L18.3678 24.6691L17.2262 28.9642H14.8085L13.6645 24.6924L13.409 24.6009C13.3979 24.5969 12.2881 24.1983 11.7957 23.9358L11.5415 23.8003L7.70264 26.0268L5.99363 24.3177L8.2117 20.4765L8.0765 20.2228C7.80456 19.7125 7.58182 19.175 7.41411 18.6254L7.33007 18.3498L3.56876 17.3501V18.4222L6.51215 19.2045C6.65589 19.6302 6.82917 20.0479 7.02963 20.452L4.69903 24.4882L7.53364 27.3227L11.5725 24.9802C11.975 25.1667 12.4968 25.3675 12.8038 25.4821L14.0135 30.0004H18.0228L19.223 25.4858C19.6396 25.344 20.049 25.1735 20.4454 24.9766L24.4928 27.3134L27.3273 24.479L24.9772 20.4261C25.1603 20.0302 25.3576 19.5189 25.4706 19.2162L28.4331 18.423V17.3505L28.4325 17.3503Z" fill="black"/>
<path d="M3.56863 14.656L7.31893 13.6517L7.41088 13.3972C7.41489 13.386 7.81621 12.2769 8.07858 11.7855L8.21442 11.5311L5.98781 7.69096L7.69694 5.98183L11.5506 8.20728L11.8041 8.07234C12.3045 7.80609 12.8321 7.58801 13.3724 7.42381L13.6449 7.34106L14.8404 3.03623H17.2106L18.3647 7.343L18.6389 7.42704C19.1785 7.59241 19.7047 7.81114 20.203 8.07713L20.4573 8.21285L24.3164 5.9738L26.0254 7.68281L23.7937 11.5489L23.9287 11.8024C24.194 12.3013 24.4127 12.8282 24.579 13.3687L24.6635 13.6433L28.4324 14.6456V13.5736L25.4798 12.7885C25.3387 12.3733 25.1698 11.9665 24.9754 11.5737L27.3199 7.51251L24.4853 4.6779L20.4315 7.03C20.039 6.83523 19.6327 6.66636 19.2179 6.5256L18.0052 2.00037H14.0525L12.7974 6.52016C12.38 6.66067 11.9708 6.82979 11.5752 7.02534L7.52613 4.68709L4.69165 7.52158L7.03403 11.5614C6.8473 11.9632 6.64541 12.4841 6.53028 12.7904L3.56824 13.5835V14.656H3.56863Z" fill="black"/>
<path d="M15.9994 11.3298C13.4287 11.3298 11.3374 13.4211 11.3374 15.9918C11.3374 18.5624 13.4287 20.6537 15.9994 20.6537C18.5701 20.6537 20.6614 18.5624 20.6614 15.9918C20.6614 13.4211 18.5701 11.3298 15.9994 11.3298ZM19.6254 15.9918C19.6254 17.9911 17.9988 19.6177 15.9994 19.6177C14.0001 19.6177 12.3734 17.9911 12.3734 15.9918C12.3734 13.9924 14.0001 12.3658 15.9994 12.3658C17.9988 12.3658 19.6254 13.9924 19.6254 15.9918Z" fill="black"/>
</svg>
