<svg width="32" height="32" viewBox="0 0 32 32" fill="none" xmlns="http://www.w3.org/2000/svg">
<path d="M24.328 18.1012L24.1931 18.4772C24.0869 18.7731 23.7667 19.6247 23.5632 20.0074L23.3641 20.3818L25.5301 24.1172L24.1283 25.5189L20.3924 23.362L20.0188 23.5612C19.5387 23.8173 19.034 24.0273 18.519 24.1856L18.1146 24.3101L17.0076 28.4746H15.0244L13.9173 24.3401L13.5411 24.2052C13.2414 24.0978 12.3783 23.7737 11.9911 23.5672L11.6166 23.3677L7.89435 25.5265L6.49255 24.1247L8.64325 20.4001L8.44427 20.0265C8.18514 19.5399 7.97255 19.0275 7.81272 18.5034L7.68888 18.0978L3.79383 17.0626V18.6412L6.48772 19.3572C6.608 19.6983 6.74722 20.0337 6.904 20.361L4.58584 24.3759L7.64514 27.4352L11.6662 25.1029C11.9961 25.2501 12.3738 25.398 12.6493 25.5023L13.8538 30.0004H18.1809L19.3748 25.5092C19.707 25.391 20.0344 25.2547 20.3538 25.1015L24.3796 27.4256L27.4389 24.3664L25.0991 20.3317C25.2432 20.0086 25.3877 19.64 25.4901 19.3697L28.2064 18.6424V17.0629L24.3282 18.1012H24.328Z" fill="black"/>
<path d="M7.67006 13.9059L7.80522 13.531C7.9133 13.2316 8.23905 12.3697 8.44605 11.982L8.64605 11.6074L6.48683 7.8835L7.88876 6.48169L11.6255 8.63965L11.9991 8.44104C12.4759 8.18738 12.9786 7.9795 13.4934 7.82323L13.8945 7.7013L15.0539 3.52627H16.9928L18.1118 7.70244L18.5158 7.82628C19.03 7.98395 19.5314 8.19234 20.0062 8.44562L20.3809 8.64562L24.1233 6.47432L25.5249 7.876L23.3607 11.6248L23.5594 11.9984C23.8122 12.4738 24.0209 12.9762 24.1793 13.4915L24.3038 13.8958L28.206 14.9336V13.3547L25.5029 12.6358C25.3855 12.3053 25.2508 11.9808 25.0995 11.6645L27.4315 7.62488L24.3721 4.56545L20.3401 6.90497C20.0241 6.75366 19.6998 6.61889 19.3696 6.50178L18.1633 2.00037H13.8941L12.6457 6.49555C12.3125 6.61278 11.9847 6.7482 11.6653 6.90077L7.63777 4.57498L4.57846 7.63429L6.91036 11.6561C6.76286 11.9853 6.61435 12.3623 6.50984 12.6372L3.79358 13.3645V14.9439L7.66994 13.906L7.67006 13.9059Z" fill="black"/>
<path d="M15.9988 11.1605C13.3346 11.1605 11.1671 13.328 11.1671 15.9921C11.1671 18.6562 13.3346 20.8237 15.9988 20.8237C18.6629 20.8237 20.8304 18.6562 20.8304 15.9921C20.8304 13.328 18.6629 11.1605 15.9988 11.1605ZM19.3046 15.9921C19.3046 17.815 17.8217 19.2979 15.9988 19.2979C14.1758 19.2979 12.6929 17.815 12.6929 15.9921C12.6929 14.1692 14.1758 12.6863 15.9988 12.6863C17.8217 12.6863 19.3046 14.1692 19.3046 15.9921Z" fill="black"/>
</svg>
