<svg width="32" height="32" viewBox="0 0 32 32" fill="none" xmlns="http://www.w3.org/2000/svg">
<path d="M4.01111 15.2209L8.00886 14.1505L8.18607 13.6596C8.29072 13.37 8.60504 12.5378 8.80085 12.1711L9.06284 11.6805L6.96875 8.06886L8.0743 6.96331L11.6984 9.05616L12.1874 8.79591C12.6416 8.55427 13.1204 8.35633 13.6106 8.20748L14.1359 8.04801L15.2606 3.99806H16.7832L17.8684 8.04813L18.3974 8.21035C18.8872 8.36045 19.3647 8.55901 19.8168 8.80028L20.3076 9.06215L23.9371 6.95619L25.0426 8.06174L22.9436 11.6977L23.2038 12.1866C23.4448 12.6397 23.6435 13.1183 23.7944 13.6094L23.9573 14.1387L27.9879 15.2107V13.1432L25.5234 12.4877C25.4315 12.2392 25.3296 11.9939 25.2186 11.7534L27.5394 7.73294L24.2635 4.45699L20.2505 6.78548C20.0101 6.67421 19.7652 6.57256 19.517 6.48078L18.3164 2.00037H13.7417L12.4994 6.47366C12.2473 6.56607 11.9986 6.66884 11.7545 6.78161L7.74574 4.4666L4.46979 7.74255L6.79292 11.7489C6.68365 12.0003 6.57713 12.2669 6.49158 12.4886L4.01136 13.1527V15.2211L4.01111 15.2209Z" fill="black"/>
<path d="M27.9879 16.7852L23.9881 17.8563L23.8114 18.3484C23.7089 18.6344 23.4002 19.4558 23.2074 19.8185L22.9466 20.3085L25.0474 23.9314L23.9417 25.0369L20.3183 22.945L19.8289 23.2058C19.3715 23.4498 18.8906 23.6501 18.4 23.801L17.8706 23.9638L16.797 28.0023H15.2331L14.1615 24.0004L13.6689 23.8238C13.3792 23.7199 12.5467 23.4076 12.1796 23.2121L11.689 22.9507L8.0793 25.0444L6.97374 23.9389L9.05947 20.3266L8.79885 19.8373C8.55171 19.3735 8.34916 18.8854 8.19693 18.3861L8.03484 17.8548L4.01099 16.7853V18.8527L6.46611 19.5053C6.56139 19.7645 6.66754 20.0204 6.78405 20.2717L4.47654 24.2677L7.75249 27.5436L11.7585 25.2201C12.0104 25.3293 12.2776 25.4354 12.5 25.5207L13.6995 30.0004H18.3331L19.5216 25.5297C19.7725 25.4368 20.0201 25.3336 20.2636 25.2206L24.2702 27.5338L27.5461 24.2581L25.2152 20.2384C25.3212 19.9934 25.4242 19.7343 25.5075 19.5178L27.9875 18.8537V16.7853L27.9879 16.7852Z" fill="black"/>
<path d="M15.9984 10.9969C13.244 10.9969 11.0032 13.2377 11.0032 15.9921C11.0032 18.7464 13.244 20.9872 15.9984 20.9872C18.7527 20.9872 20.9935 18.7464 20.9935 15.9921C20.9935 13.2377 18.7527 10.9969 15.9984 10.9969ZM18.9955 15.9921C18.9955 17.6446 17.6509 18.9892 15.9984 18.9892C14.3458 18.9892 13.0013 17.6446 13.0013 15.9921C13.0013 14.3395 14.3458 12.995 15.9984 12.995C17.6509 12.995 18.9955 14.3395 18.9955 15.9921Z" fill="black"/>
</svg>
