<svg width="32" height="32" viewBox="0 0 32 32" fill="none" xmlns="http://www.w3.org/2000/svg">
<path d="M15.9266 23.4856L12.3232 27.0896C12.1411 27.2718 11.8444 27.2722 11.6618 27.0896C11.5425 26.9705 11.5249 26.8313 11.5249 26.759C11.5249 26.6866 11.5425 26.5476 11.6617 26.4285L14.635 23.4548L13.3123 22.1321L10.3391 25.1056V25.1057L9.0166 26.4283C8.83433 26.6107 8.5376 26.6107 8.35522 26.4283C8.23597 26.3091 8.21819 26.1701 8.21819 26.0977C8.21819 26.0253 8.23597 25.8863 8.35522 25.7671L12.6511 21.4708L11.3283 20.1482L6.37107 25.1059C6.25193 25.2251 6.1128 25.2428 6.04055 25.2428C5.9683 25.2428 5.82894 25.2251 5.7098 25.1059C5.59067 24.9868 5.57278 24.8475 5.57278 24.7752C5.57278 24.7028 5.59055 24.5637 5.7098 24.4445L7.02661 23.1275L7.02637 23.1273C7.02836 23.1253 7.03058 23.1236 7.03257 23.1218L10.6671 19.4869L9.34431 18.1643L5.7098 21.7991C5.52753 21.9815 5.2308 21.9815 5.04842 21.7991C4.92917 21.6799 4.9114 21.5409 4.9114 21.4685C4.9114 21.3961 4.92917 21.257 5.04842 21.1379L9.58422 16.6015L8.26145 15.2789L6.93752 16.6031C6.81838 16.7222 6.67949 16.74 6.60723 16.74C6.53498 16.74 6.39597 16.7222 6.27695 16.6032C6.15793 16.4842 6.14016 16.3451 6.14016 16.2728C6.14016 16.2006 6.15793 16.0615 6.27719 15.9424L8.08994 14.1325H5.44242L4.95547 14.6186C4.5133 15.0601 4.26977 15.6472 4.26954 16.272C4.2693 16.8968 4.51248 17.4842 4.95419 17.9259C5.06642 18.0381 5.18825 18.1373 5.31756 18.2231L3.72565 19.8152C3.28407 20.2569 3.04089 20.8441 3.04089 21.4687C3.04089 22.0933 3.28418 22.6804 3.72589 23.1221C3.84865 23.2449 3.9824 23.3498 4.12316 23.4394C3.85075 23.8288 3.70239 24.2903 3.70239 24.7755C3.70239 25.4001 3.94568 25.9872 4.38739 26.4289C4.82897 26.8705 5.41623 27.1137 6.04079 27.1137C6.21581 27.1137 6.38732 27.0926 6.55416 27.0554C6.66908 27.311 6.82879 27.5473 7.03292 27.7515C7.48865 28.2072 8.08749 28.4352 8.68632 28.4352C9.15456 28.4352 9.62187 28.2937 10.0218 28.015C10.1126 28.1568 10.2178 28.2908 10.3397 28.4127C10.7814 28.8544 11.3687 29.0976 11.9934 29.0975C12.6179 29.0975 13.2049 28.8542 13.6468 28.4125L18.5725 23.4858H15.9273L15.9266 23.4856Z" fill="black"/>
<path d="M28.4663 10.1975C28.3436 10.0747 28.2097 9.96987 28.069 9.88008C28.3416 9.49076 28.4899 9.02918 28.4899 8.54399C28.4899 7.91943 28.2468 7.33217 27.8052 6.89059C27.601 6.68634 27.3648 6.52675 27.1091 6.41182C27.1462 6.24499 27.1674 6.07347 27.1674 5.89845C27.1674 5.2739 26.9242 4.68664 26.4826 4.24505C26.041 3.80335 25.4539 3.56017 24.8292 3.56005C24.3443 3.56005 23.8828 3.70842 23.4935 3.98071C23.4029 3.83901 23.2978 3.70526 23.176 3.58344C22.7344 3.14174 22.1472 2.89855 21.5226 2.89844C20.8981 2.89844 20.311 3.14162 19.8693 3.5832L18.2771 5.17522C18.1913 5.04592 18.0922 4.92409 17.9799 4.81185C17.5385 4.37027 16.9513 4.12709 16.3268 4.12709H16.326C15.7012 4.12732 15.114 4.37085 14.6726 4.81291L12.4651 7.02317C11.333 8.15653 10.5883 9.58955 10.3113 11.1671L10.2859 11.3115C9.86458 13.7109 10.6412 16.1722 12.3634 17.8951L12.9266 18.4587C13.9175 19.4501 15.138 20.1278 16.4679 20.4453C17.0345 20.5805 17.6205 20.6516 18.2177 20.6517H18.219C19.069 20.6517 19.8967 20.5096 20.6768 20.2391C21.7309 19.8737 22.6974 19.2725 23.5095 18.4604L28.4662 13.5042C29.3779 12.5926 29.378 11.1092 28.4664 10.1974L28.4663 10.1975ZM27.1436 12.1815L22.1869 17.1378C21.1269 18.1976 19.7179 18.7812 18.2189 18.7812H18.218C16.7188 18.781 15.3094 18.1968 14.2496 17.1365L13.6864 16.5729C12.3948 15.2807 11.8125 13.4349 12.1285 11.6352L12.1539 11.4908C12.3641 10.2934 12.9294 9.20572 13.7886 8.34535L15.9961 6.13497C16.1152 6.01572 16.2542 5.99795 16.3265 5.99795C16.3989 5.99795 16.5379 6.01572 16.6568 6.13474C16.776 6.25376 16.7936 6.39277 16.7936 6.46502C16.7936 6.53727 16.7758 6.67628 16.6568 6.7953L14.2499 9.2021L15.5724 10.5249L21.1915 4.90632C21.3741 4.72382 21.6706 4.72405 21.8528 4.90632C22.0352 5.08871 22.0352 5.38543 21.8528 5.5677L18.2179 9.20221L19.5405 10.5251L23.1755 6.89047C23.1775 6.88848 23.1791 6.88626 23.1811 6.88439L23.1813 6.88463L24.4984 5.56782C24.6176 5.44869 24.7566 5.43091 24.829 5.43091C24.9014 5.43091 25.0405 5.44869 25.1596 5.56794C25.2788 5.68719 25.2967 5.82632 25.2967 5.89869C25.2967 5.97106 25.2789 6.11019 25.1598 6.22932L20.202 11.1865L21.5245 12.5092L25.821 8.21324C26.0035 8.03109 26.2998 8.0312 26.4823 8.21335C26.6647 8.39574 26.6647 8.69247 26.4823 8.87474L22.1859 13.1705L23.5085 14.4933L26.4819 11.52C26.6643 11.3379 26.9607 11.3377 27.1433 11.52C27.3257 11.7024 27.3257 11.9992 27.1433 12.1814L27.1436 12.1815Z" fill="black"/>
<path d="M22.6205 21.615H23.9502V21.6188H25.2623L26.3086 20.5726L27.3546 21.6188H30L27.1902 18.8089H25.4268L22.6205 21.615Z" fill="black"/>
<path d="M20.6766 27.2307V29.1013C23.9691 29.1013 26.7006 26.658 27.1558 23.4895H25.259C24.8244 25.6215 22.935 27.2307 20.6766 27.2307Z" fill="black"/>
<path d="M11.3234 4.77526V2.90463C8.0309 2.90463 5.29943 5.34802 4.84417 8.51651H6.74099C7.17556 6.38447 9.065 4.77526 11.3234 4.77526Z" fill="black"/>
<path d="M6.57333 13.1971L9.38336 10.3871H6.73771L5.69145 11.4334L4.64542 10.3871H2L4.8098 13.1971H6.57333Z" fill="black"/>
</svg>
