<svg width="32" height="32" viewBox="0 0 32 32" fill="none" xmlns="http://www.w3.org/2000/svg">
<path d="M7.78391 23.4844L1.96973 29.2822L2.6855 30L8.49968 24.2022L7.78391 23.4844Z" fill="black"/>
<path d="M22.8587 2L22.1364 2.70959L25.3549 5.94075L22.4785 8.80445L17.8282 4.14144L17.1059 4.85103L19.6148 7.35993L7.39977 19.537L12.4302 24.5675L24.6326 12.4031L27.1415 14.912L27.8638 14.2024L23.2135 9.53938L26.0898 6.67568L29.3083 9.90685L30.0306 9.19726L22.8587 2ZM8.85696 19.5497L12.9498 15.4695H20.1344L12.4429 23.1356L8.85696 19.5497ZM23.923 11.6808L21.1481 14.4431H13.9635L20.3371 8.09486L23.923 11.6808Z" fill="black"/>
</svg>
