<svg width="32" height="32" viewBox="0 0 32 32" fill="none" xmlns="http://www.w3.org/2000/svg">
<path d="M7.65885 22.9459L1.98877 28.6L3.38483 30L9.05491 24.3459L7.65885 22.9459Z" fill="black"/>
<path d="M23.066 2L21.6697 3.39636L24.4624 6.20144L22.3617 8.28981L18.1726 4.08836L16.7639 5.48473L18.8522 7.58545L6.93992 19.4483L12.5254 25.0461L24.4253 13.1833L26.5137 15.284L27.9101 13.8876L23.721 9.68617L25.8217 7.5978L28.6144 10.4029L30.0108 9.00652L23.066 2ZM9.745 19.4607L13.2421 15.9636H18.8399L12.5377 22.2534L9.745 19.4607ZM20.8294 13.9988H15.2316L20.2486 8.98181L23.0413 11.7869L20.8294 13.9988Z" fill="black"/>
</svg>
