<svg width="32" height="32" viewBox="0 0 32 32" fill="none" xmlns="http://www.w3.org/2000/svg">
<path d="M8.66597 13.7271L16.8031 27.9747C17.5165 29.2239 18.8533 30 20.292 30C22.5076 30 24.3099 28.1977 24.3099 25.9821V9.87808C24.3099 9.82244 24.3093 9.76715 24.3081 9.7121C24.2653 7.64271 23.4268 5.70395 21.9476 4.25305C20.4661 2.80014 18.5071 2 16.4318 2H15.7408C11.3017 2 7.69012 5.61153 7.69012 10.0507C7.69012 11.3379 8.02767 12.609 8.66609 13.727L8.66597 13.7271ZM15.7407 3.42373H16.4317C18.132 3.42373 19.7368 4.07924 20.9506 5.26971C22.1627 6.45841 22.8495 8.04646 22.8846 9.74153C22.8856 9.78697 22.8862 9.83253 22.8862 9.87808V25.982C22.8862 27.4125 21.7223 28.5762 20.2919 28.5762C19.363 28.5762 18.4999 28.0751 18.0393 27.2686L9.90212 13.0211C9.38626 12.1178 9.11362 11.0907 9.11362 10.0508C9.11362 6.39659 12.0865 3.42385 15.7406 3.42385L15.7407 3.42373Z" fill="black"/>
<path d="M12.9152 10.7797C12.9152 8.81705 14.5119 7.22034 16.4745 7.22034C17.9138 7.22034 19.0847 8.39124 19.0847 9.83051V14.1017H20.5084V9.83051C20.5084 7.60617 18.6989 5.79661 16.4745 5.79661C13.7269 5.79661 11.4915 8.03198 11.4915 10.7797V11.2542H12.9152V10.7797Z" fill="black"/>
<path d="M15.2881 18.8475C15.2881 20.2867 16.459 21.4576 17.8983 21.4576H18.8569V20.0339H17.8983C17.2441 20.0339 16.7118 19.5017 16.7118 18.8475C16.7118 18.1933 17.2441 17.661 17.8983 17.661H20.7552V16.2373H17.8983C16.459 16.2373 15.2881 17.4082 15.2881 18.8475Z" fill="black"/>
<path d="M19.0847 22.1695C19.0847 22.5621 18.7654 22.8814 18.3728 22.8814H17.8983V24.3051H18.3728C19.5504 24.3051 20.5084 23.347 20.5084 22.1695V21.6949H19.0847V22.1695Z" fill="black"/>
</svg>
