<svg width="32" height="32" viewBox="0 0 32 32" fill="none" xmlns="http://www.w3.org/2000/svg">
<path d="M16 2C8.28043 2 2 8.28043 2 16C2 23.7196 8.28043 30 16 30C23.7196 30 30 23.7196 30 16C30 8.28043 23.7197 2 16 2ZM16 28.1375C9.30746 28.1375 3.86266 22.6927 3.86266 16.0001C3.86266 9.30757 9.30746 3.86266 16 3.86266C22.6925 3.86266 28.1373 9.30746 28.1373 16C28.1373 22.6925 22.6925 28.1373 16 28.1373V28.1375Z" fill="black"/>
<path d="M11.3211 13.2232C11.8346 13.2232 12.2524 13.6411 12.2524 14.1546H14.1151C14.1151 12.6139 12.8618 11.3606 11.3211 11.3606C9.78046 11.3606 8.52712 12.6139 8.52712 14.1546H10.3898C10.3898 13.6411 10.8076 13.2232 11.3211 13.2232Z" fill="black"/>
<path d="M20.6257 11.3606C19.085 11.3606 17.8317 12.6139 17.8317 14.1546H19.6944C19.6944 13.6411 20.1122 13.2232 20.6257 13.2232C21.1392 13.2232 21.557 13.6411 21.557 14.1546H23.4197C23.4197 12.6139 22.1663 11.3606 20.6257 11.3606Z" fill="black"/>
<path d="M10.382 18.8179C10.382 21.8954 12.8888 24.3992 15.97 24.3992C19.0512 24.3992 21.5579 21.8954 21.5579 18.8179V17.8865H10.382V18.8179ZM19.577 19.7492C19.1619 21.3504 17.702 22.5365 15.97 22.5365C14.2379 22.5365 12.7782 21.3505 12.3629 19.7492H19.577Z" fill="black"/>
</svg>
