<svg width="32" height="32" viewBox="0 0 32 32" fill="none" xmlns="http://www.w3.org/2000/svg">
<path d="M9.49913 8.5C9.49913 12.0841 12.415 15 15.9991 15C19.5833 15 22.4991 12.0841 22.4991 8.5C22.4991 4.91587 19.5833 2 15.9991 2C12.415 2 9.49913 4.91587 9.49913 8.5ZM21.4991 8.5C21.4991 11.5328 19.0319 14 15.9991 14C12.9664 14 10.4991 11.5328 10.4991 8.5C10.4991 5.46725 12.9664 3 15.9991 3C19.0319 3 21.4991 5.46725 21.4991 8.5Z" fill="black"/>
<path d="M20.2062 19H22.4991V22.0502C21.3595 22.2821 20.4991 23.2919 20.4991 24.4989V26.5001H21.4991V24.4989C21.4991 23.6724 22.1715 23 22.998 23C23.8245 23 24.4969 23.6724 24.4969 24.4989V26.5001H25.4969V24.4989C25.4969 23.2926 24.6376 22.2833 23.4991 22.0505V18.9999H24.9991C26.929 18.9999 28.4991 20.57 28.4991 22.4999V26.4999H29.4991V22.4999C29.4991 20.0185 27.4805 17.9999 24.9991 17.9999H19.792L17.292 20.4999H18.7062L20.2062 18.9999V19Z" fill="black"/>
<path d="M30 29H2V30H30V29Z" fill="black"/>
<path d="M3.49913 22.5C3.49913 20.5701 5.06925 19 6.99913 19H8.499V22.066C7.63775 22.2889 6.999 23.0703 6.999 24.0001C6.999 25.1029 7.89625 26.0001 8.999 26.0001C10.1018 26.0001 10.9989 25.103 10.9989 24.0001C10.9989 23.0703 10.3601 22.2889 9.499 22.066V19H11.792L15.4991 22.7071V26.5H16.4991V22.2929L12.2063 18H6.99913C4.51775 18 2.49913 20.0186 2.49913 22.5V26.5H3.49913V22.5ZM9.99888 24C9.99888 24.5514 9.55037 25 8.999 25C8.44763 25 7.999 24.5515 7.999 24C7.999 23.4485 8.44763 23 8.999 23C9.55037 23 9.99888 23.4485 9.99888 24Z" fill="black"/>
</svg>
