<svg width="32" height="32" viewBox="0 0 32 32" fill="none" xmlns="http://www.w3.org/2000/svg">
<path d="M9.36755 8.63158C9.36755 12.2883 12.3426 15.2632 15.9991 15.2632C19.6557 15.2632 22.6307 12.2883 22.6307 8.63158C22.6307 4.97488 19.6557 2 15.9991 2C12.3426 2 9.36755 4.97488 9.36755 8.63158ZM21.157 8.63158C21.157 11.4757 18.8432 13.7895 15.9991 13.7895C13.155 13.7895 10.8412 11.4757 10.8412 8.63158C10.8412 5.78749 13.155 3.47368 15.9991 3.47368C18.8432 3.47368 21.157 5.78749 21.157 8.63158Z" fill="black"/>
<path d="M20.2341 19.193H22.1395V21.7518C21.007 22.0731 20.1746 23.1157 20.1746 24.3498V26.3159H21.6483V24.3498C21.6483 23.6732 22.1987 23.1228 22.8752 23.1228C23.5518 23.1228 24.1022 23.6732 24.1022 24.3498V26.3159H25.5759V24.3498C25.5759 23.1165 24.7446 22.0744 23.6132 21.7524V19.193H24.8412C26.6019 19.193 28.0342 20.6254 28.0342 22.386V26.3158H29.5079V22.386C29.5079 19.8128 27.4144 17.7193 24.8412 17.7193H19.6238L16.922 20.4211H19.0061L20.2341 19.193Z" fill="black"/>
<path d="M29.7544 28.5263H2.24561V30H29.7544V28.5263Z" fill="black"/>
<path d="M3.96404 22.386C3.96404 20.6254 5.39634 19.193 7.15703 19.193H8.38497V21.7782C7.5279 22.0826 6.91129 22.8994 6.91129 23.8596C6.91129 25.0785 7.90296 26.0702 9.12182 26.0702C10.3407 26.0702 11.3322 25.0785 11.3322 23.8596C11.3322 22.8994 10.7157 22.0826 9.85866 21.7782V19.193H11.7641L15.2623 22.6911V26.3158H16.736V22.0808L12.3745 17.7193H7.15703C4.58385 17.7193 2.49036 19.8128 2.49036 22.386V26.3158H3.96404V22.386ZM9.12182 24.5965C8.71545 24.5965 8.38497 24.266 8.38497 23.8596C8.38497 23.4533 8.71545 23.1228 9.12182 23.1228C9.52818 23.1228 9.85854 23.4533 9.85854 23.8596C9.85854 24.266 9.52806 24.5965 9.12182 24.5965Z" fill="black"/>
</svg>
