<svg width="32" height="32" viewBox="0 0 32 32" fill="none" xmlns="http://www.w3.org/2000/svg">
<path d="M15.2927 7.39646L13.2929 9.39659L14.0001 10.1036L15.9999 8.1035L15.2927 7.39646Z" fill="black"/>
<path d="M3.14648 25.75V9.75C3.14648 8.3715 4.26798 7.25 5.64648 7.25H8.64648V6.25H5.64648C3.71661 6.25 2.14648 7.82013 2.14648 9.75V25.75C2.14648 27.6799 3.71661 29.25 5.64648 29.25H19.6465V28.25H5.64648C4.26798 28.25 3.14648 27.1285 3.14648 25.75Z" fill="black"/>
<path d="M29.1465 9.75C29.1465 7.82013 27.5764 6.25 25.6465 6.25H22.6465V7.25H25.6465C27.025 7.25 28.1465 8.3715 28.1465 9.75V23.25H29.1465V9.75Z" fill="black"/>
<path d="M21.1465 7.75C21.1465 4.71725 18.6792 2.25 15.6465 2.25C12.6137 2.25 10.1465 4.71725 10.1465 7.75C10.1465 10.7828 12.6137 13.25 15.6465 13.25C18.6792 13.25 21.1465 10.7828 21.1465 7.75ZM15.6465 12.25C13.1651 12.25 11.1465 10.2314 11.1465 7.75C11.1465 5.26863 13.1651 3.25 15.6465 3.25C18.1279 3.25 20.1465 5.26863 20.1465 7.75C20.1465 10.2314 18.1279 12.25 15.6465 12.25Z" fill="black"/>
<path d="M25.1465 11.75H24.1465V24.7451H25.1465V11.75Z" fill="black"/>
<path d="M24.6465 28.5429L20.8536 24.75H19.4394L24.4394 29.75H24.8536L29.8536 24.75H28.4394L24.6465 28.5429Z" fill="black"/>
</svg>
