<svg width="32" height="32" viewBox="0 0 32 32" fill="none" xmlns="http://www.w3.org/2000/svg">
<path d="M28.963 10.8148C28.963 13.3881 26.8696 15.4815 24.2963 15.4815H22.2226V16.5185H24.2963C27.4414 16.5185 30 13.9599 30 10.8148C30 7.66974 27.4414 5.11111 24.2963 5.11111H11.8522V6.14815H24.2963C26.8696 6.14815 28.963 8.24154 28.963 10.8148Z" fill="black"/>
<path d="M7.7037 26.8889H20.1485V25.8519H7.7037C5.13043 25.8519 3.03704 23.7585 3.03704 21.1852C3.03704 18.6119 5.13043 16.5185 7.7037 16.5185H9.77817V15.4815H7.7037C4.55863 15.4815 2 18.0401 2 21.1852C2 24.3303 4.55863 26.8889 7.7037 26.8889Z" fill="black"/>
<path d="M12.3704 16C12.3704 18.0014 13.9986 19.6296 16 19.6296C18.0014 19.6296 19.6296 18.0014 19.6296 16C19.6296 13.9986 18.0014 12.3704 16 12.3704C13.9986 12.3704 12.3704 13.9986 12.3704 16ZM18.5926 16C18.5926 17.4296 17.4296 18.5926 16 18.5926C14.5704 18.5926 13.4074 17.4296 13.4074 16C13.4074 14.5704 14.5704 13.4074 16 13.4074C17.4296 13.4074 18.5926 14.5704 18.5926 16Z" fill="black"/>
<path d="M30 22.7407H22.7407V30H30V22.7407ZM28.963 28.963H23.7778V23.7778H28.963V28.963Z" fill="black"/>
<path d="M9.25926 2H2V9.25926H9.25926V2ZM8.22222 8.22222H3.03704V3.03704H8.22222V8.22222Z" fill="black"/>
</svg>
