<svg width="32" height="32" viewBox="0 0 32 32" fill="none" xmlns="http://www.w3.org/2000/svg">
<path d="M21.1485 3.51921L16.7487 7.9187L17.4818 8.65189L21.8817 4.25226C22.6653 3.46878 23.707 3.03737 24.815 3.0375C25.9231 3.0375 26.9648 3.46904 27.7482 4.25252C28.5317 5.03613 28.9631 6.07784 28.963 7.18578C28.963 8.29385 28.5315 9.33556 27.748 10.119L23.348 14.5185L24.0812 15.2517L28.4812 10.8521C30.503 8.83039 30.5031 5.54091 28.4814 3.51921C26.4597 1.49724 23.1701 1.4975 21.1485 3.51921Z" fill="black"/>
<path d="M17.4818 9.38484L16.7485 10.118L21.8813 15.2514L22.6145 14.5182L17.4818 9.38484Z" fill="black"/>
<path d="M4.25182 10.1183C2.63456 8.5008 2.63469 5.86931 4.25221 4.2518C5.03569 3.46831 6.0774 3.03691 7.18534 3.03704C8.29342 3.03704 9.33512 3.46857 10.1186 4.25206L14.5181 8.65207L15.2514 7.91889L10.8518 3.51887C9.87244 2.53939 8.57031 2 7.18547 2C5.80051 2 4.49812 2.53926 3.5189 3.51861C1.49706 5.54031 1.49693 8.82993 3.51864 10.8515L7.91814 15.2514L8.65145 14.5182L4.25182 10.1183Z" fill="black"/>
<path d="M9.38475 14.5189L10.1179 15.2522L15.2513 10.1194L14.5181 9.38619L9.38475 14.5189Z" fill="black"/>
<path d="M20.1482 24.8229H18.0742V25.86H20.1482V24.8229Z" fill="black"/>
<path d="M13.926 24.8229H11.8519V25.86H13.926V24.8229Z" fill="black"/>
<path d="M20.1482 16.5266H18.0742V17.5637H20.1482V16.5266Z" fill="black"/>
<path d="M13.926 16.5266H11.8519V17.5637H13.926V16.5266Z" fill="black"/>
<path d="M23.2593 20.6748H21.1853V21.7118H23.2593V20.6748Z" fill="black"/>
<path d="M10.8149 20.6748H8.74082V21.7118H10.8149V20.6748Z" fill="black"/>
<path d="M17.0371 20.6707H14.963V21.7078H17.0371V20.6707Z" fill="black"/>
<path d="M17.0371 28.963H14.963V30H17.0371V28.963Z" fill="black"/>
</svg>
