<svg width="32" height="32" viewBox="0 0 32 32" fill="none" xmlns="http://www.w3.org/2000/svg">
<path d="M20.6111 3.6091L16.3683 7.8516L17.7825 9.26585L22.0252 5.02348C22.6863 4.36235 23.5652 3.99835 24.5002 3.99848C25.4351 3.99848 26.3141 4.3626 26.9751 5.0236C27.6361 5.6846 28.0002 6.5636 28.0001 7.4986C28.0001 8.43348 27.636 9.31248 26.975 9.97348L22.7321 14.216L24.1462 15.6302L28.3891 11.3879C30.5337 9.24348 30.5338 5.75423 28.3895 3.6096C26.2448 1.46473 22.7556 1.46498 20.6111 3.6091Z" fill="black"/>
<path d="M17.7825 9.26585L16.3683 10.6794L21.3177 15.6295L22.7321 14.216L17.7825 9.26585Z" fill="black"/>
<path d="M5.025 9.97348C4.36388 9.31235 3.99988 8.43348 4 7.49848C4 6.5636 4.36413 5.6846 5.02513 5.0236C5.68613 4.3626 6.56513 3.99848 7.50013 3.9986C8.435 3.9986 9.314 4.36273 9.97501 5.02373L14.2175 9.2666L15.6318 7.85248L11.3893 3.6096C9.24463 1.46473 5.7555 1.4651 3.611 3.60923C1.46638 5.7536 1.46625 9.24285 3.61063 11.3875L7.85313 15.6304L9.26738 14.2162L5.025 9.97348Z" fill="black"/>
<path d="M9.26738 14.2162L10.6816 15.6303L15.6317 10.6809L14.2175 9.2666L9.26738 14.2162Z" fill="black"/>
<path d="M20 24.0062H18V26.0062H20V24.0062Z" fill="black"/>
<path d="M14 24.0062H12V26.0062H14V24.0062Z" fill="black"/>
<path d="M20 16.0062H18V18.0062H20V16.0062Z" fill="black"/>
<path d="M14 16.0062H12V18.0062H14V16.0062Z" fill="black"/>
<path d="M23 20.0062H21V22.0062H23V20.0062Z" fill="black"/>
<path d="M11 20.0062H9V22.0062H11V20.0062Z" fill="black"/>
<path d="M17 20.0023H15V22.0023H17V20.0023Z" fill="black"/>
<path d="M17 27.9984H15V29.9984H17V27.9984Z" fill="black"/>
</svg>
