<svg width="32" height="32" viewBox="0 0 32 32" fill="none" xmlns="http://www.w3.org/2000/svg">
<path d="M24.6547 2C23.2269 2 21.8843 2.55593 20.8748 3.56545L16.5548 7.88509L17.6347 8.96513L21.9547 4.64562C22.676 3.92449 23.6347 3.52727 24.6547 3.5274C25.6746 3.5274 26.6334 3.92462 27.3545 4.64575C28.8431 6.13458 28.843 8.55684 27.3543 10.0455L23.0342 14.3652L24.1141 15.4452L28.434 11.1257C30.5184 9.04149 30.5185 5.65031 28.4344 3.56609C27.4248 2.55631 26.0824 2 24.6547 2Z" fill="black"/>
<path d="M17.6348 9.32481L16.5548 10.4047L21.5944 15.4447L22.6743 14.3648L17.6348 9.32481Z" fill="black"/>
<path d="M4.64558 10.0457C3.15687 8.55685 3.157 6.13459 4.64558 4.64588C6.13429 3.15717 8.5568 3.1573 10.0454 4.64588L14.365 8.9659L15.4449 7.88612L11.1254 3.5661C9.04094 1.48163 5.64976 1.4815 3.5658 3.56572C1.48145 5.64994 1.48132 9.04112 3.56541 11.1253L7.88505 15.4452L8.96509 14.3653L4.64558 10.0457Z" fill="black"/>
<path d="M9.32493 14.3655L10.3977 15.4387L10.4048 15.4457L15.4447 10.4062L14.3649 9.32614L9.32493 14.3655Z" fill="black"/>
<path d="M20.0727 24.408H18.0363V25.9352H20.0727V24.408Z" fill="black"/>
<path d="M13.9636 24.408H11.9272V25.9352H13.9636V24.408Z" fill="black"/>
<path d="M20.0727 16.2625H18.0363V17.7898H20.0727V16.2625Z" fill="black"/>
<path d="M13.9636 16.2625H11.9272V17.7898H13.9636V16.2625Z" fill="black"/>
<path d="M23.1272 20.3352H21.0909V21.8625H23.1272V20.3352Z" fill="black"/>
<path d="M10.909 20.3352H8.87268V21.8625H10.909V20.3352Z" fill="black"/>
<path d="M17.0181 20.3313H14.9818V21.8585H17.0181V20.3313Z" fill="black"/>
<path d="M17.0181 28.4727H14.9818V30H17.0181V28.4727Z" fill="black"/>
</svg>
