<svg width="32" height="32" viewBox="0 0 32 32" fill="none" xmlns="http://www.w3.org/2000/svg">
<path d="M12.3973 5.60283V11.4658L2.00024 14.5769V20.1486H3.03729V15.3491L13.4343 12.238V5.60283C13.4343 4.18804 14.5853 3.03705 16.0001 3.03705C17.4149 3.03705 18.5659 4.18804 18.5659 5.60283V12.238L28.9629 15.3491V20.1486H30V14.5769L19.6029 11.4658V5.60283C19.6029 3.61624 17.9867 2 16.0001 2C14.0135 2 12.3973 3.61624 12.3973 5.60283Z" fill="black"/>
<path d="M26.3705 19.6297V18.5926H18.5927V26.6479L21.7039 28.722V28.963H10.2965V28.722L13.4076 26.6479V18.5925L5.62991 18.5927V19.6298L12.3706 19.6295V26.0928L9.25944 28.1669V30H22.7407L22.7409 28.1669L19.6298 26.0928V19.6297H26.3705Z" fill="black"/>
</svg>
