<svg width="32" height="32" viewBox="0 0 32 32" fill="none" xmlns="http://www.w3.org/2000/svg">
<path d="M20.8277 28.069H11.1725V30H20.8277V28.069Z" fill="black"/>
<path d="M16.0001 2C10.1439 2 5.37939 6.76447 5.37939 12.6207C5.37939 16.6278 7.63303 20.2741 11.1725 22.0809V26.1379H20.8277V22.0809C24.3671 20.2741 26.6208 16.6278 26.6208 12.6207C26.6208 6.76447 21.8563 2 16.0001 2ZM19.4755 20.5855L18.8966 20.8384V24.2069H13.1035V20.8384L12.5247 20.5855C9.3572 19.2012 7.31043 16.0747 7.31043 12.6207C7.31043 7.82919 11.2086 3.93103 16.0001 3.93103C20.7916 3.93103 24.6897 7.82919 24.6897 12.6207C24.6897 16.0747 22.6431 19.2011 19.4755 20.5855Z" fill="black"/>
</svg>
