<svg width="32" height="32" viewBox="0 0 32 32" fill="none" xmlns="http://www.w3.org/2000/svg">
<path d="M21 29H11V30H21V29Z" fill="black"/>
<path d="M16 2C10.2102 2 5.5 6.71025 5.5 12.5C5.5 16.5635 7.84425 20.2517 11.5 21.987V26H20.5V21.987C24.1558 20.2516 26.5 16.5635 26.5 12.5C26.5 6.71025 21.7897 2 16 2ZM19.7997 21.2074L19.5 21.3384V25H12.5V21.3384L12.2002 21.2074C8.7375 19.694 6.5 16.2761 6.5 12.5C6.5 7.26162 10.7616 3 16 3C21.2384 3 25.5 7.26162 25.5 12.5C25.5 16.2761 23.2625 19.694 19.7997 21.2074Z" fill="black"/>
</svg>
