<svg width="32" height="32" viewBox="0 0 32 32" fill="none" xmlns="http://www.w3.org/2000/svg">
<path d="M29.704 19.2819V18.7866C29.704 17.3918 28.5691 16.2569 27.1743 16.2569C26.5929 16.2569 26.0582 16.4562 25.6305 16.7873V15.7315C25.6305 14.3367 24.4957 13.2019 23.1009 13.2019C22.4484 13.2019 21.8548 13.4524 21.4056 13.8595C21.0542 12.8841 20.1223 12.1835 19.0274 12.1835C18.4532 12.1835 17.9247 12.3781 17.4997 12.7018V8.60841C17.4994 7.20791 16.36 6.06848 14.9595 6.06848C14.2783 6.06848 13.6388 6.3344 13.1585 6.81736C12.6782 7.30032 12.4159 7.94151 12.4195 8.61936L12.409 22.7957L5.92112 17.0474C5.46783 16.6458 4.88685 16.4531 4.28245 16.5049C3.67907 16.5566 3.13832 16.8456 2.76 17.3185C2.06688 18.185 2.13193 19.434 2.9055 20.2175L12.2371 30H13.6445L3.6363 19.5083C3.21941 19.086 3.18453 18.4179 3.55521 17.9546C3.75749 17.7016 4.0467 17.5471 4.36939 17.5195C4.6926 17.4916 5.00333 17.5948 5.2457 17.8097L12.1494 23.9264H13.4265L13.4378 8.61681C13.4355 8.2087 13.5927 7.82465 13.8804 7.53531C14.1681 7.24609 14.5514 7.08672 14.9593 7.08672C15.7983 7.08672 16.481 7.76928 16.481 8.60828L16.4814 20.6066H16.4977V21.8742C16.4977 23.269 17.6325 24.4038 19.0273 24.4038C19.8633 24.4038 20.6036 23.9945 21.0644 23.3675C21.1402 23.4701 21.2215 23.5693 21.3135 23.6611C21.7913 24.1381 22.4257 24.4005 23.1008 24.4005H23.105C23.938 24.3993 24.6759 23.9908 25.1362 23.3661C25.597 23.9938 26.3378 24.4038 27.1743 24.4038C27.7451 24.4038 28.2706 24.2115 28.6944 23.8914L28.6845 29.9999H29.7028L29.7201 19.2819H29.7038H29.704ZM20.5387 21.8742C20.5387 22.7075 19.8607 23.3855 19.0274 23.3855C18.1942 23.3855 17.5162 22.7075 17.5162 21.8742V14.713C17.5162 13.8797 18.1942 13.2017 19.0274 13.2017C19.8607 13.2017 20.5387 13.8797 20.5387 14.713V21.8742ZM24.6121 21.8709C24.6121 22.7029 23.9353 23.3808 23.1034 23.3822H23.1009C22.6978 23.3822 22.3185 23.2253 22.0333 22.9405C21.7472 22.6549 21.5898 22.2751 21.5898 21.871V15.7315C21.5898 14.8982 22.2677 14.2202 23.101 14.2202C23.9343 14.2202 24.6123 14.8982 24.6123 15.7315V21.871L24.6121 21.8709ZM28.6856 21.8742C28.6856 22.7075 28.0076 23.3855 27.1743 23.3855C26.3411 23.3855 25.6631 22.7075 25.6631 21.8742V18.7864C25.6631 17.9532 26.3411 17.2752 27.1743 17.2752C28.0076 17.2752 28.6856 17.9532 28.6856 18.7864V21.8742Z" fill="black"/>
<path d="M21.5735 8.60344C21.5735 4.96229 18.6112 2 14.97 2V3.01836C18.0497 3.01836 20.5551 5.52392 20.5551 8.60344V8.6093L21.5735 8.60344Z" fill="black"/>
</svg>
