<svg width="32" height="32" viewBox="0 0 32 32" fill="none" xmlns="http://www.w3.org/2000/svg">
<path d="M25.9995 4.44362L26.9333 6H29.2658L26.8658 2H25.1333L22.7333 6H25.0658L25.9995 4.44362Z" fill="black"/>
<path d="M21.9995 28V24.9151C24.8334 24.4375 26.9995 21.9676 26.9995 19V7.99512H24.9995V14.5326C23.9371 13.5804 22.535 13 20.9995 13C18.7584 13 16.8015 14.236 15.7714 16.0614L13.6566 9.97412L13.6478 9.97725C12.9249 7.965 11.1558 6.4485 8.99951 6.085V4.00012H13.4995V2.00012H2.00051V4.00012H6.99951V6.085C4.16564 6.56262 1.99951 9.0325 1.99951 12.0001V25.9953H3.99951V16.4675C5.06189 17.4198 6.46401 18.0001 7.99951 18.0001C10.2569 18.0001 12.2264 16.7465 13.2504 14.8993L15.1756 20.4409C15.7443 22.7386 17.64 24.5175 19.9996 24.9151V28H2.00051V30H30.0005V28H21.9995ZM7.99951 16C5.79389 16 3.99951 14.2056 3.99951 12C3.99951 9.79437 5.79389 8 7.99951 8C10.2051 8 11.9995 9.79437 11.9995 12C11.9995 14.2056 10.2051 16 7.99951 16ZM16.9995 19C16.9995 16.7944 18.7939 15 20.9995 15C23.2051 15 24.9995 16.7944 24.9995 19C24.9995 21.2056 23.2051 23 20.9995 23C18.7939 23 16.9995 21.2056 16.9995 19Z" fill="black"/>
</svg>
