<svg width="32" height="32" viewBox="0 0 32 32" fill="none" xmlns="http://www.w3.org/2000/svg">
<path d="M26.8883 10.3418H21.7033V5.15555C21.7033 3.43982 20.3075 2.04395 18.5917 2.04395C16.876 2.04395 15.4801 3.43982 15.4801 5.15555V7.23003H15.4799C15.4799 10.0897 13.1533 12.4163 10.2937 12.4163H8.21918V14.4907H10.2937C14.2222 14.4907 17.4321 11.3545 17.551 7.45421L17.5546 5.15555C17.5546 4.58364 18.0198 4.11843 18.5917 4.11843C19.1637 4.11843 19.6289 4.58364 19.6289 5.15555V12.4163H26.8883C27.4602 12.4163 27.9255 12.8816 27.9255 13.4535V15.5271H27.9251V19.0821C27.9251 19.2766 27.8707 19.4667 27.7675 19.6317L23.5075 26.4499C23.3168 26.7552 22.988 26.9375 22.6279 26.9375H8.22022V29.012H22.6279C23.7082 29.012 24.6946 28.465 25.2669 27.549L29.5268 20.7311C29.8361 20.236 29.9996 19.6658 29.9996 19.0821V15.5279H30V13.4534C30 11.7376 28.604 10.3418 26.8883 10.3418Z" fill="black"/>
<path d="M2 13.4282H4.0706V27.8817H2V29.9562H6.14508V11.3537H2V13.4282Z" fill="black"/>
</svg>
