<svg width="32" height="32" viewBox="0 0 32 32" fill="none" xmlns="http://www.w3.org/2000/svg">
<path d="M27.3581 10.7633H21.5469V4.95076C21.5469 3.49406 20.3616 2.30884 18.9049 2.30884C17.4482 2.30884 16.263 3.49406 16.263 4.95076V7.06441H16.2628C16.2628 10.2695 13.6553 12.8769 10.4502 12.8769H8.33658V13.9338H10.4502C14.1615 13.9338 17.1947 10.9752 17.3159 7.29282L17.3198 4.95076C17.3198 4.07677 18.031 3.36566 18.9049 3.36566C19.7789 3.36566 20.49 4.07677 20.49 4.95076V11.8201H27.3581C28.2322 11.8201 28.9433 12.5312 28.9433 13.4053V15.5181H28.9429V19.1402C28.9429 19.4376 28.8597 19.7281 28.7021 19.9801L24.3617 26.927C24.0702 27.3937 23.5676 27.6723 23.0173 27.6723H8.33764V28.7292H23.0173C23.9345 28.7292 24.7722 28.2647 25.2579 27.487L29.5981 20.5402C29.8608 20.12 29.9996 19.6358 29.9996 19.1402V15.5189H30V13.4052C30 11.9484 28.8148 10.7632 27.3579 10.7632L27.3581 10.7633Z" fill="black"/>
<path d="M2 12.8512H4.63809V28.6343H2V29.6911H5.69492V11.7944H2V12.8512Z" fill="black"/>
</svg>
