<svg width="32" height="32" viewBox="0 0 32 32" fill="none" xmlns="http://www.w3.org/2000/svg">
<path d="M16 30C8.2804 30 2 23.7196 2 16C2 8.2804 8.2804 2 16 2C23.7196 2 30 8.2804 30 16C30 23.7196 23.7196 30 16 30ZM16 3.86667C9.30963 3.86667 3.86667 9.30963 3.86667 16C3.86667 22.6904 9.30963 28.1333 16 28.1333C22.6904 28.1333 28.1333 22.6904 28.1333 16C28.1333 9.30963 22.6904 3.86667 16 3.86667Z" fill="black"/>
<path d="M16.5189 15.7139L17.0649 15.2771C17.7019 14.7857 18.1388 14.1486 18.1388 13.3842C18.1388 12.3104 17.3926 11.5641 16.155 11.5641C14.7171 11.5641 13.8435 12.5105 13.8435 14.2032H11.8232C11.8232 11.5641 13.5887 9.94418 16.1733 9.94418C18.4666 9.94418 20.1228 11.3457 20.1228 13.2931C20.1228 14.6946 19.3038 15.7502 18.3392 16.4964L17.7568 16.9514C16.956 17.5703 16.7011 18.1708 16.7011 19.3539H14.8265C14.8265 17.6612 15.1904 16.7876 16.5192 15.7138L16.5189 15.7139ZM14.626 20.6462H16.9374V22.9942H14.626V20.6462Z" fill="black"/>
</svg>
