<svg width="32" height="32" viewBox="0 0 32 32" fill="none" xmlns="http://www.w3.org/2000/svg">
<path d="M16 30C8.28045 30 2 23.7197 2 16C2 8.28033 8.28045 2 16 2C23.7196 2 30 8.28033 30 16C30 23.7197 23.7196 30 16 30ZM16 2.96552C8.81281 2.96552 2.96552 8.81269 2.96552 16C2.96552 23.1873 8.81281 29.0345 16 29.0345C23.1872 29.0345 29.0345 23.1873 29.0345 16C29.0345 8.81269 23.1872 2.96552 16 2.96552Z" fill="black"/>
<path d="M16.8474 16.0241L17.4123 15.5534C18.1466 14.951 18.8056 14.2732 18.8056 13.1059C18.8056 11.7878 17.8077 10.8088 16.1884 10.8088C14.3055 10.8088 13.1947 12.0702 13.1194 14.0096H11.8955C11.9708 11.4301 13.6841 9.77314 16.1883 9.77314C18.4665 9.77314 20.0481 11.2229 20.0481 13.0493C20.0481 14.5555 19.2007 15.5159 18.1275 16.3819L17.525 16.8902C16.5837 17.6811 16.4142 18.4907 16.4142 19.7709H15.2092C15.2092 18.2271 15.4353 17.1914 16.8474 16.0241ZM15.0587 21.4467H16.5839V23.2353H15.0587V21.4467Z" fill="black"/>
</svg>
