<svg width="32" height="32" viewBox="0 0 32 32" fill="none" xmlns="http://www.w3.org/2000/svg">
<path d="M25.4182 19.5636C25.4182 24.4761 21.4216 28.4727 16.5091 28.4727C11.5966 28.4727 7.6 24.4761 7.6 19.5636V15.8982H6.07273V19.5636C6.07273 25.3183 10.7545 30 16.5091 30C22.2637 30 26.9455 25.3183 26.9455 19.5636V13.8364H25.4182V19.5636Z" fill="black"/>
<path d="M26.1818 6.07273C24.0765 6.07273 22.3636 7.78556 22.3636 9.89091C22.3636 11.6436 23.5512 13.1233 25.1636 13.5701V11.94C24.4106 11.5642 23.8909 10.7879 23.8909 9.89078C23.8909 8.6276 24.9186 7.59987 26.1818 7.59987C27.445 7.59987 28.4727 8.6276 28.4727 9.89078C28.4727 10.7879 27.9531 11.5642 27.2 11.94V13.5701C28.8124 13.1233 30 11.6436 30 9.89091C30 7.78556 28.2872 6.07273 26.1818 6.07273Z" fill="black"/>
<path d="M11.6727 10.9091V2H7.85455V3.52727H10.1455V10.9091C10.1455 12.3786 9.18238 13.6267 7.85455 14.0572V15.6366C10.034 15.1676 11.6727 13.2265 11.6727 10.9091Z" fill="black"/>
<path d="M3.52727 10.9091V3.52727H5.81818V2H2V10.9091C2 13.2266 3.63876 15.1676 5.81818 15.6366V14.0572C4.49035 13.6266 3.52727 12.3786 3.52727 10.9091Z" fill="black"/>
</svg>
