<svg width="32" height="32" viewBox="0 0 32 32" fill="none" xmlns="http://www.w3.org/2000/svg">
<path d="M26 14C25.6571 14 25.3243 13.9565 25.0065 13.875H25V19.5C25 24.1869 21.1869 28 16.5 28C11.8131 28 8 24.1869 8 19.5V15.9H7.9965C7.67438 15.9654 7.34113 16 7 16C6.65887 16 6.32562 15.9654 6.0035 15.9H6V19.5C6 25.2896 10.7104 30 16.5 30C22.2896 30 27 25.2896 27 19.5V13.875H26.9935C26.6757 13.9565 26.3429 14 26 14Z" fill="black"/>
<path d="M30 10C30 7.79437 28.2056 6 26 6C23.7944 6 22 7.79437 22 10C22 11.8604 23.2768 13.4282 25 13.8734V11.7294C24.4032 11.3829 24 10.7384 24 10C24 8.89725 24.8973 8 26 8C27.1027 8 28 8.89725 28 10C28 10.7382 27.5968 11.3829 27 11.7294V13.8734C28.7232 13.4281 30 11.8604 30 10Z" fill="black"/>
<path d="M26.9935 13.875H25.0065C25.3243 13.9565 25.6571 14 26 14C26.3429 14 26.6757 13.9565 26.9935 13.875Z" fill="black"/>
<path d="M6 13.828C4.83612 13.4152 4 12.3036 4 11V4H6V2H2V11C2 13.4146 3.72062 15.4349 6 15.8994V13.828Z" fill="black"/>
<path d="M8 15.8994C10.2794 15.4347 12 13.4146 12 11V2H8V4H10V11C10 12.3036 9.16388 13.4151 8 13.828V15.8994Z" fill="black"/>
<path d="M7 16C7.34113 16 7.67438 15.9654 7.9965 15.9H6.0035C6.32562 15.9654 6.65887 16 7 16Z" fill="black"/>
</svg>
