<svg width="32" height="32" viewBox="0 0 32 32" fill="none" xmlns="http://www.w3.org/2000/svg">
<path d="M2.25439 7.09091H3.27258V4.54545H5.81803V3.52727H2.25439V7.09091Z" fill="black"/>
<path d="M28.7271 28.9818H3.27258V9.12727H2.25439V30H29.7453V9.12727H28.7271V28.9818Z" fill="black"/>
<path d="M26.182 4.54545H28.7271V7.09091H29.7453V3.52727H26.182V4.54545Z" fill="black"/>
<path d="M9.38167 2H8.36349V5.05455H9.38167V2Z" fill="black"/>
<path d="M23.6362 2H22.618V5.05455H23.6362V2Z" fill="black"/>
<path d="M20.073 3.52727H11.9275V4.54545H20.073V3.52727Z" fill="black"/>
<path d="M28.2184 7.6H3.78167V8.61818H28.2184V7.6Z" fill="black"/>
<path d="M8.36349 10.6545C7.24069 10.6545 6.32712 11.5681 6.32712 12.6909C6.32712 13.8137 7.24069 14.7273 8.36349 14.7273C9.48629 14.7273 10.3998 13.8137 10.3998 12.6909C10.3998 11.5681 9.48629 10.6545 8.36349 10.6545ZM8.36349 13.7091C7.80209 13.7091 7.3453 13.2523 7.3453 12.6909C7.3453 12.1295 7.80209 11.6727 8.36349 11.6727C8.92489 11.6727 9.38167 12.1295 9.38167 12.6909C9.38167 13.2523 8.92489 13.7091 8.36349 13.7091Z" fill="black"/>
<path d="M15.9998 10.6545C14.877 10.6545 13.9635 11.5681 13.9635 12.6909C13.9635 13.8137 14.877 14.7273 15.9998 14.7273C17.1226 14.7273 18.0362 13.8137 18.0362 12.6909C18.0362 11.5681 17.1226 10.6545 15.9998 10.6545ZM15.9998 13.7091C15.4384 13.7091 14.9817 13.2523 14.9817 12.6909C14.9817 12.1295 15.4384 11.6727 15.9998 11.6727C16.5612 11.6727 17.018 12.1295 17.018 12.6909C17.018 13.2523 16.5612 13.7091 15.9998 13.7091Z" fill="black"/>
<path d="M23.6362 10.6545C22.5134 10.6545 21.5998 11.5681 21.5998 12.6909C21.5998 13.8137 22.5134 14.7273 23.6362 14.7273C24.759 14.7273 25.6726 13.8137 25.6726 12.6909C25.6726 11.5681 24.759 10.6545 23.6362 10.6545ZM23.6362 13.7091C23.0748 13.7091 22.618 13.2523 22.618 12.6909C22.618 12.1295 23.0748 11.6727 23.6362 11.6727C24.1976 11.6727 24.6544 12.1295 24.6544 12.6909C24.6544 13.2523 24.1976 13.7091 23.6362 13.7091Z" fill="black"/>
<path d="M8.36349 16.7636C7.24069 16.7636 6.32712 17.6772 6.32712 18.8C6.32712 19.9228 7.24069 20.8364 8.36349 20.8364C9.48629 20.8364 10.3998 19.9228 10.3998 18.8C10.3998 17.6772 9.48629 16.7636 8.36349 16.7636ZM8.36349 19.8182C7.80209 19.8182 7.3453 19.3614 7.3453 18.8C7.3453 18.2386 7.80209 17.7818 8.36349 17.7818C8.92489 17.7818 9.38167 18.2386 9.38167 18.8C9.38167 19.3614 8.92489 19.8182 8.36349 19.8182Z" fill="black"/>
<path d="M15.9998 20.8364C17.1245 20.8364 18.0362 19.9247 18.0362 18.8C18.0362 17.6753 17.1245 16.7636 15.9998 16.7636C14.8752 16.7636 13.9635 17.6753 13.9635 18.8C13.9635 19.9247 14.8752 20.8364 15.9998 20.8364Z" fill="black"/>
<path d="M23.6362 20.8364C24.7609 20.8364 25.6726 19.9247 25.6726 18.8C25.6726 17.6753 24.7609 16.7636 23.6362 16.7636C22.5116 16.7636 21.5998 17.6753 21.5998 18.8C21.5998 19.9247 22.5116 20.8364 23.6362 20.8364Z" fill="black"/>
<path d="M8.36349 22.8727C7.24069 22.8727 6.32712 23.7863 6.32712 24.9091C6.32712 26.0319 7.24069 26.9455 8.36349 26.9455C9.48629 26.9455 10.3998 26.0319 10.3998 24.9091C10.3998 23.7863 9.48629 22.8727 8.36349 22.8727ZM8.36349 25.9273C7.80209 25.9273 7.3453 25.4705 7.3453 24.9091C7.3453 24.3477 7.80209 23.8909 8.36349 23.8909C8.92489 23.8909 9.38167 24.3477 9.38167 24.9091C9.38167 25.4705 8.92489 25.9273 8.36349 25.9273Z" fill="black"/>
<path d="M15.9998 22.8727C14.877 22.8727 13.9635 23.7863 13.9635 24.9091C13.9635 26.0319 14.877 26.9455 15.9998 26.9455C17.1226 26.9455 18.0362 26.0319 18.0362 24.9091C18.0362 23.7863 17.1226 22.8727 15.9998 22.8727ZM15.9998 25.9273C15.4384 25.9273 14.9817 25.4705 14.9817 24.9091C14.9817 24.3477 15.4384 23.8909 15.9998 23.8909C16.5612 23.8909 17.018 24.3477 17.018 24.9091C17.018 25.4705 16.5612 25.9273 15.9998 25.9273Z" fill="black"/>
<path d="M23.6362 22.8727C22.5134 22.8727 21.5998 23.7863 21.5998 24.9091C21.5998 26.0319 22.5134 26.9455 23.6362 26.9455C24.759 26.9455 25.6726 26.0319 25.6726 24.9091C25.6726 23.7863 24.759 22.8727 23.6362 22.8727ZM23.6362 25.9273C23.0748 25.9273 22.618 25.4705 22.618 24.9091C22.618 24.3477 23.0748 23.8909 23.6362 23.8909C24.1976 23.8909 24.6544 24.3477 24.6544 24.9091C24.6544 25.4705 24.1976 25.9273 23.6362 25.9273Z" fill="black"/>
</svg>
