<svg width="32" height="32" viewBox="0 0 32 32" fill="none" xmlns="http://www.w3.org/2000/svg">
<path d="M6 5.00012V3.00012H2V7.00012H4V5.00012H6Z" fill="black"/>
<path d="M28 28.0001H4V9.00012H2V30.0001H30V9.00012H28.0004H28V28.0001Z" fill="black"/>
<path d="M26.0004 5.00012H28V7.00012H28.0004H30V3.00012H26.0004V5.00012Z" fill="black"/>
<path d="M10 2.00012H8V5.00012H10V2.00012Z" fill="black"/>
<path d="M24 2.00012H22V5.00012H24V2.00012Z" fill="black"/>
<path d="M20.0004 3.00012H12.0004V5.00012H20.0004V3.00012Z" fill="black"/>
<path d="M4 7.00012V9.00012H28H28.0004V7.00012H28H4Z" fill="black"/>
<path d="M8.5 15.0001C9.8785 15.0001 11 13.8786 11 12.5001C11 11.1216 9.8785 10.0001 8.5 10.0001C7.1215 10.0001 6 11.1216 6 12.5001C6 13.8786 7.1215 15.0001 8.5 15.0001ZM8.5 12.0001C8.77575 12.0001 9 12.2244 9 12.5001C9 12.7759 8.77575 13.0001 8.5 13.0001C8.22425 13.0001 8 12.7759 8 12.5001C8 12.2244 8.22425 12.0001 8.5 12.0001Z" fill="black"/>
<path d="M16 15.0001C17.3785 15.0001 18.5 13.8786 18.5 12.5001C18.5 11.1216 17.3785 10.0001 16 10.0001C14.6215 10.0001 13.5 11.1216 13.5 12.5001C13.5 13.8786 14.6215 15.0001 16 15.0001ZM16 12.0001C16.2758 12.0001 16.5 12.2244 16.5 12.5001C16.5 12.7759 16.2758 13.0001 16 13.0001C15.7242 13.0001 15.5 12.7759 15.5 12.5001C15.5 12.2244 15.7242 12.0001 16 12.0001Z" fill="black"/>
<path d="M23.5 15.0001C24.8785 15.0001 26 13.8786 26 12.5001C26 11.1216 24.8785 10.0001 23.5 10.0001C22.1215 10.0001 21 11.1216 21 12.5001C21 13.8786 22.1215 15.0001 23.5 15.0001ZM23.5 12.0001C23.7757 12.0001 24 12.2244 24 12.5001C24 12.7759 23.7757 13.0001 23.5 13.0001C23.2243 13.0001 23 12.7759 23 12.5001C23 12.2244 23.2243 12.0001 23.5 12.0001Z" fill="black"/>
<path d="M8.5 21.0001C9.8785 21.0001 11 19.8786 11 18.5001C11 17.1216 9.8785 16.0001 8.5 16.0001C7.1215 16.0001 6 17.1216 6 18.5001C6 19.8786 7.1215 21.0001 8.5 21.0001ZM8.5 18.0001C8.77575 18.0001 9 18.2244 9 18.5001C9 18.7759 8.77575 19.0001 8.5 19.0001C8.22425 19.0001 8 18.7759 8 18.5001C8 18.2244 8.22425 18.0001 8.5 18.0001Z" fill="black"/>
<path d="M16 21.0001C17.3807 21.0001 18.5 19.8808 18.5 18.5001C18.5 17.1194 17.3807 16.0001 16 16.0001C14.6193 16.0001 13.5 17.1194 13.5 18.5001C13.5 19.8808 14.6193 21.0001 16 21.0001Z" fill="black"/>
<path d="M23.5 21.0001C24.8807 21.0001 26 19.8808 26 18.5001C26 17.1194 24.8807 16.0001 23.5 16.0001C22.1193 16.0001 21 17.1194 21 18.5001C21 19.8808 22.1193 21.0001 23.5 21.0001Z" fill="black"/>
<path d="M8.5 27.0001C9.8785 27.0001 11 25.8786 11 24.5001C11 23.1216 9.8785 22.0001 8.5 22.0001C7.1215 22.0001 6 23.1216 6 24.5001C6 25.8786 7.1215 27.0001 8.5 27.0001ZM8.5 24.0001C8.77575 24.0001 9 24.2244 9 24.5001C9 24.7759 8.77575 25.0001 8.5 25.0001C8.22425 25.0001 8 24.7759 8 24.5001C8 24.2244 8.22425 24.0001 8.5 24.0001Z" fill="black"/>
<path d="M16 27.0001C17.3785 27.0001 18.5 25.8786 18.5 24.5001C18.5 23.1216 17.3785 22.0001 16 22.0001C14.6215 22.0001 13.5 23.1216 13.5 24.5001C13.5 25.8786 14.6215 27.0001 16 27.0001ZM16 24.0001C16.2758 24.0001 16.5 24.2244 16.5 24.5001C16.5 24.7759 16.2758 25.0001 16 25.0001C15.7242 25.0001 15.5 24.7759 15.5 24.5001C15.5 24.2244 15.7242 24.0001 16 24.0001Z" fill="black"/>
<path d="M23.5 27.0001C24.8785 27.0001 26 25.8786 26 24.5001C26 23.1216 24.8785 22.0001 23.5 22.0001C22.1215 22.0001 21 23.1216 21 24.5001C21 25.8786 22.1215 27.0001 23.5 27.0001ZM23.5 24.0001C23.7757 24.0001 24 24.2244 24 24.5001C24 24.7759 23.7757 25.0001 23.5 25.0001C23.2243 25.0001 23 24.7759 23 24.5001C23 24.2244 23.2243 24.0001 23.5 24.0001Z" fill="black"/>
</svg>
