<svg width="32" height="32" viewBox="0 0 32 32" fill="none" xmlns="http://www.w3.org/2000/svg">
<path d="M26.9456 8.87273H25.4183V28.4727H6.58196V3.52727H20.0729V2H5.05469V30H26.9456V8.87273Z" fill="black"/>
<path d="M25.1638 6.26364L22.682 3.78182H20.3274V8.61818H25.1638V6.26364ZM21.8547 7.09091V5.11818L23.8274 7.09091H21.8547Z" fill="black"/>
<path d="M13.7856 22.2236L14.8674 23.3055L16.4838 21.6891L18.1129 23.3182L19.1947 22.2364L17.5783 20.62L19.1947 19.0036L18.1129 17.9218L16.4965 19.5382L16.3183 19.36L14.7529 17.7818H15.0965C16.6365 17.7818 17.8965 16.5218 17.8965 14.9818C17.8965 13.4418 16.6365 12.1818 15.0965 12.1818H12.182V20.0727H13.7092V18.9018L15.4147 20.6073L15.2365 20.7855L13.7856 22.2236ZM13.7092 13.7091H15.0965C15.7965 13.7091 16.3692 14.2818 16.3692 14.9818C16.3692 15.6818 15.7965 16.2545 15.0965 16.2545H13.7092V13.7091Z" fill="black"/>
</svg>
