<svg width="32" height="32" viewBox="0 0 32 32" fill="none" xmlns="http://www.w3.org/2000/svg">
<path d="M26.8856 8.74418H25.8487L25.8514 28.9631H6.1482L6.15105 3.03713L20.1459 3.04128V2.00441L5.11418 2L5.11133 30H26.8886L26.8856 8.74418Z" fill="black"/>
<path d="M25.3303 6.45569L22.4344 3.55984H20.6644V8.22575H25.3303V6.45569ZM21.7012 7.18888V4.29304L24.5971 7.18888H21.7012Z" fill="black"/>
<path d="M13.9315 22.5176L14.6631 23.2524L16.5011 21.4229L18.3401 23.2618L19.0732 22.5287L17.2358 20.6916L19.0721 18.8636L18.3405 18.1288L16.5025 19.9584L14.0972 17.5533H15.0771C16.5064 17.5533 17.6692 16.3904 17.6692 14.9611C17.6692 13.5318 16.5064 12.3689 15.0771 12.3689H12.3666V20.1499H13.4034V18.3256L15.7677 20.6898L13.9315 22.5177V22.5176ZM13.4034 13.4057H15.0771C15.9347 13.4057 16.6324 14.1034 16.6324 14.961C16.6324 15.8186 15.9347 16.5163 15.0771 16.5163H13.4034V13.4057Z" fill="black"/>
</svg>
