<svg width="32" height="32" viewBox="0 0 32 32" fill="none" xmlns="http://www.w3.org/2000/svg">
<path d="M28.8404 18.3132C29.542 17.7843 29.9964 16.9444 29.9964 16.0001C29.9964 15.0558 29.5428 14.2177 28.8426 13.6886C29.0463 13.1839 29.2259 12.6814 29.3788 12.1828C30.4917 8.55326 30.1 5.54958 28.2759 3.72498C26.4518 1.90038 23.4484 1.50811 19.8191 2.62047C18.561 3.00609 17.2772 3.55811 15.9987 4.25515C14.7214 3.55871 13.4386 3.00706 12.1816 2.62155C8.55251 1.50884 5.54919 1.90038 3.72483 3.7245C1.90047 5.54849 1.50821 8.55169 2.62032 12.181C3.00571 13.4387 3.5576 14.7222 4.25428 16.0003C3.55796 17.2776 3.00643 18.5602 2.62105 19.8172C1.50821 23.4468 1.89987 26.4505 3.72399 28.2751C4.86771 29.4191 6.47489 30 8.40965 30C9.56025 30 10.8272 29.7944 12.1806 29.3796C13.4381 28.9942 14.7213 28.4424 15.9991 27.746C17.2761 28.4422 18.5585 28.9936 19.8153 29.379C21.1696 29.7942 22.4367 29.9999 23.5879 29.9999C25.5217 29.9999 27.1285 29.4193 28.2721 28.276C30.0965 26.452 30.4888 23.4487 29.3767 19.8194C29.2238 19.3207 29.0441 18.8179 28.8404 18.3131V18.3132ZM29.0311 16.0001C29.0311 17.0645 28.165 17.9306 27.1005 17.9306C26.0361 17.9306 25.17 17.0645 25.17 16.0001C25.17 14.9356 26.0361 14.0695 27.1005 14.0695C28.165 14.0695 29.0311 14.9356 29.0311 16.0001ZM20.1021 3.54339C21.365 3.15631 22.5369 2.96447 23.5894 2.96447C25.2635 2.96447 26.636 3.44976 27.5933 4.40754C29.1527 5.96742 29.4591 8.62819 28.456 11.8999C28.3198 12.3441 28.1611 12.7921 27.9823 13.2421C27.7042 13.1529 27.408 13.1044 27.1005 13.1044C26.7298 13.1044 26.3755 13.1752 26.0494 13.3028C25.0728 11.9306 23.9395 10.5914 22.6743 9.32596C20.8873 7.53876 18.9532 6.014 16.9869 4.8237C18.0322 4.28882 19.0767 3.8577 20.102 3.54351L20.1021 3.54339ZM3.54324 11.8983C2.54081 8.62698 2.84764 5.96658 4.40728 4.40718C5.36459 3.45 6.73648 2.96495 8.40989 2.96495C9.46288 2.96495 10.6352 3.15716 11.8987 3.54447C12.923 3.85855 13.9665 4.2893 15.0107 4.8237C13.0451 6.01351 11.1118 7.53731 9.32533 9.32367C7.53789 11.1109 6.01301 13.0455 4.82271 15.0121C4.28819 13.9673 3.85732 12.9232 3.54324 11.8983ZM11.8979 28.4568C8.62635 29.4594 5.96607 29.1526 4.40655 27.5926C2.84716 26.0327 2.54081 23.372 3.54396 20.1003C3.85804 19.0762 4.28867 18.0328 4.82271 16.9888C6.0124 18.9545 7.53644 20.8882 9.32268 22.6748C11.1099 24.4622 13.0443 25.9872 15.0109 27.1775C13.9664 27.7119 12.9224 28.1427 11.8979 28.4568ZM10.0052 21.9924C8.12357 20.1104 6.54475 18.0653 5.35916 16.0004C6.54523 13.9346 8.12502 11.8888 10.0078 10.006C11.8895 8.12444 13.9343 6.54562 15.9987 5.36003C18.064 6.5461 20.1095 8.12577 21.9917 10.0083C23.201 11.2176 24.2847 12.4946 25.22 13.8007C24.5992 14.3322 24.2047 15.1207 24.2047 16.0001C24.2047 16.8794 24.5999 17.6694 25.2216 18.2009C24.2859 19.5073 23.2018 20.7844 21.9921 21.9942C20.1098 23.8762 18.0644 25.4555 15.9992 26.6412C13.9335 25.455 11.8878 23.8752 10.0052 21.9924ZM27.5897 27.5935C26.0301 29.1531 23.3693 29.4591 20.0982 28.4562C19.0743 28.1422 18.0313 27.7116 16.9875 27.1775C18.9537 25.9876 20.8876 24.4633 22.6745 22.6765C23.9405 21.4107 25.0743 20.0709 26.0515 18.6983C26.3771 18.8252 26.7306 18.8958 27.1005 18.8958C27.407 18.8958 27.7024 18.8475 27.9798 18.7589C28.1588 19.2092 28.3175 19.6576 28.4537 20.1022C29.4562 23.3735 29.1493 26.0341 27.5897 27.5935Z" fill="black"/>
<path d="M16.0004 11.6546C13.6052 11.6546 11.6567 13.6031 11.6567 15.9983C11.6567 18.3935 13.6052 20.342 16.0004 20.342C18.3956 20.342 20.3441 18.3935 20.3441 15.9983C20.3441 13.6031 18.3956 11.6546 16.0004 11.6546ZM16.0004 19.3767C14.1376 19.3767 12.622 17.8611 12.622 15.9983C12.622 14.1354 14.1376 12.6198 16.0004 12.6198C17.8633 12.6198 19.3789 14.1354 19.3789 15.9983C19.3789 17.8611 17.8633 19.3767 16.0004 19.3767Z" fill="black"/>
</svg>
