<svg width="32" height="32" viewBox="0 0 32 32" fill="none" xmlns="http://www.w3.org/2000/svg">
<path d="M28.9082 18.3483C29.5732 17.7821 29.9963 16.9398 29.9963 16.0001C29.9963 15.0603 29.5741 14.2198 28.9104 13.6537C29.0865 13.2059 29.2429 12.7599 29.3788 12.317C30.4997 8.6611 30.0936 5.624 28.2354 3.76533C26.3772 1.90666 23.3407 1.49969 19.6848 2.62047C18.4704 2.99268 17.2323 3.52015 15.9987 4.18415C14.7663 3.52075 13.5292 2.99363 12.3158 2.62154C8.66032 1.50088 5.62346 1.90678 3.76503 3.76485C1.9066 5.62305 1.49999 8.65967 2.62017 12.3153C2.99226 13.5295 3.5195 14.7672 4.18314 16.0004C3.51986 17.2328 2.99286 18.4698 2.62088 19.6831C1.49999 23.339 1.906 26.3761 3.76408 28.2348C4.93444 29.4054 6.57178 30 8.53732 30C9.69261 30 10.9614 29.7946 12.3147 29.3798C13.5286 29.0078 14.7661 28.4807 15.9989 27.8172C17.231 28.4803 18.4678 29.0072 19.6808 29.3792C21.0349 29.7943 22.3039 30 23.4598 30C25.4243 30 27.0615 29.4056 28.2316 28.2359C30.0901 26.3777 30.4967 23.341 29.3765 19.6854C29.2407 19.2424 29.0842 18.7963 28.9081 18.3484L28.9082 18.3483ZM25.2517 16.0001C25.2517 15.0844 25.9966 14.3395 26.9123 14.3395C27.828 14.3395 28.5729 15.0844 28.5729 16.0001C28.5729 16.9158 27.828 17.6607 26.9123 17.6607C25.9966 17.6607 25.2517 16.9158 25.2517 16.0001ZM20.102 3.98132C21.3218 3.60757 22.4506 3.42218 23.4611 3.42218C25.0421 3.42218 26.3335 3.87599 27.229 4.77176C28.697 6.24008 28.9771 8.77164 28.018 11.8998C27.9061 12.2652 27.778 12.6332 27.636 13.0027C27.4037 12.9466 27.1615 12.9161 26.9123 12.9161C26.583 12.9161 26.2659 12.9685 25.968 13.0645C25.0242 11.7558 23.9368 10.4793 22.7289 9.27112C21.0695 7.61137 19.281 6.17994 17.4572 5.03485C18.3453 4.6025 19.2309 4.24832 20.102 3.98132ZM3.98114 11.8983C3.02263 8.77034 3.30327 6.23925 4.77146 4.77141C5.66688 3.87611 6.95751 3.42265 8.53803 3.42265C9.54886 3.42265 10.6785 3.60828 11.8986 3.98239C12.7686 4.24927 13.6532 4.60321 14.5402 5.03497C12.7173 6.17947 10.9294 7.61018 9.27059 9.26887C7.61071 10.9286 6.17917 12.7176 5.03396 14.5417C4.60197 13.654 4.24791 12.7689 3.98114 11.8983ZM11.8978 28.0188C8.7698 28.9773 6.23871 28.6967 4.77075 27.2284C3.30291 25.76 3.02263 23.2285 3.98174 20.1003C4.2485 19.2304 4.60232 18.346 5.03396 17.459C6.17846 19.2822 7.60917 21.0703 9.26798 22.7294C10.9276 24.3893 12.7164 25.821 14.5405 26.9661C13.653 27.398 12.7681 27.752 11.8978 28.0188ZM10.2745 21.723C8.47493 19.9232 6.95988 17.9718 5.81289 16.0004C6.96047 14.0282 8.47635 12.076 10.277 10.2755C12.0765 8.47618 14.0277 6.96113 15.9987 5.81402C17.9704 6.96148 19.9222 8.47724 21.7223 10.2776C22.8493 11.4049 23.8647 12.5917 24.7481 13.8056C24.1808 14.3652 23.8282 15.1421 23.8282 16.0001C23.8282 16.858 24.1814 17.6363 24.7496 18.1961C23.8658 19.4102 22.8502 20.5973 21.7226 21.7247C19.9225 23.5245 17.9708 25.0399 15.9991 26.1873C14.027 25.0397 12.0748 23.5238 10.2745 21.7232V21.723ZM27.2255 27.2292C25.7573 28.697 23.226 28.977 20.0983 28.0182C19.2287 27.7516 18.3445 27.3977 17.4579 26.9662C19.2814 25.8215 21.0698 24.3904 22.7292 22.7313C23.9378 21.5227 25.0259 20.2456 25.9702 18.9363C26.2673 19.0319 26.5838 19.084 26.9123 19.084C27.1607 19.084 27.4019 19.0538 27.6334 18.998C27.7755 19.3681 27.9036 19.7365 28.0157 20.1023C28.9742 23.2303 28.6936 25.7614 27.2255 27.2292Z" fill="black"/>
<path d="M16.0004 11.491C13.515 11.491 11.493 13.513 11.493 15.9983C11.493 18.4836 13.515 20.5056 16.0004 20.5056C18.4857 20.5056 20.5077 18.4836 20.5077 15.9983C20.5077 13.513 18.4857 11.491 16.0004 11.491ZM16.0004 19.0822C14.2999 19.0822 12.9164 17.6988 12.9164 15.9983C12.9164 14.2977 14.2999 12.9143 16.0004 12.9143C17.7008 12.9143 19.0843 14.2977 19.0843 15.9983C19.0843 17.6988 17.7008 19.0822 16.0004 19.0822Z" fill="black"/>
</svg>
