<svg width="32" height="32" viewBox="0 0 32 32" fill="none" xmlns="http://www.w3.org/2000/svg">
<path d="M23.2591 30H8.74054C7.31099 30 6.14795 28.837 6.14795 27.4074V4.59259C6.14795 3.16304 7.31099 2 8.74054 2H23.2591C24.6886 2 25.8517 3.16304 25.8517 4.59259V27.4074C25.8517 28.837 24.6886 30 23.2591 30ZM8.74054 3.03704C7.88278 3.03704 7.18499 3.73483 7.18499 4.59259V27.4074C7.18499 28.2652 7.88278 28.963 8.74054 28.963H23.2591C24.1168 28.963 24.8146 28.2652 24.8146 27.4074V4.59259C24.8146 3.73483 24.1168 3.03704 23.2591 3.03704H8.74054Z" fill="black"/>
<path d="M16.5186 13.9209H15.4815V18.0739H16.5186V13.9209Z" fill="black"/>
<path d="M16.5186 7.7037H15.4815V11.8469H16.5186V7.7037Z" fill="black"/>
<path d="M18.0739 24.8148H13.9257V25.8519H18.0739V24.8148Z" fill="black"/>
<path d="M14.963 12.3653H10.8146V13.4024H14.963V12.3653Z" fill="black"/>
<path d="M21.185 12.3653H17.0371V13.4024H21.185V12.3653Z" fill="black"/>
</svg>
