<svg width="32" height="32" viewBox="0 0 32 32" fill="none" xmlns="http://www.w3.org/2000/svg">
<path d="M23 30H9C7.34588 30 6 28.6541 6 27V5C6 3.34588 7.34588 2 9 2H23C24.6541 2 26 3.34588 26 5V27C26 28.6541 24.6541 30 23 30ZM9 4C8.44863 4 8 4.44863 8 5V27C8 27.5514 8.44863 28 9 28H23C23.5514 28 24 27.5514 24 27V5C24 4.44863 23.5514 4 23 4H9Z" fill="black"/>
<path d="M17.0002 13.9951H15.0002V18H17.0002V13.9951Z" fill="black"/>
<path d="M17.0002 8H15.0002V11.9951H17.0002V8Z" fill="black"/>
<path d="M18 24H14V26H18V24Z" fill="black"/>
<path d="M15.0002 11.9951H11V13.9951H15.0002V11.9951Z" fill="black"/>
<path d="M21 11.9951H17.0002V13.9951H21V11.9951Z" fill="black"/>
</svg>
