<svg width="32" height="32" viewBox="0 0 32 32" fill="none" xmlns="http://www.w3.org/2000/svg">
<path d="M5.90976 3.26126H2.12598V7.04504H3.63949V4.77477H5.90976V3.26126Z" fill="black"/>
<path d="M28.3602 28.4865H3.63949V9.06306H2.12598V30H29.8737V9.06306H28.3602V28.4865Z" fill="black"/>
<path d="M26.0903 4.77477H28.3602V7.04504H29.8737V3.26126H26.0903V4.77477Z" fill="black"/>
<path d="M9.69354 2H8.18003V5.02703H9.69354V2Z" fill="black"/>
<path d="M23.8197 2H22.3062V5.02703H23.8197V2Z" fill="black"/>
<path d="M20.0363 3.26126H11.9642V4.77477H20.0363V3.26126Z" fill="black"/>
<path d="M28.1083 7.2973H3.89174V8.81081H28.1083V7.2973Z" fill="black"/>
<path d="M15.9999 12.3423C14.748 12.3423 13.7296 13.3608 13.7296 14.6126C13.7296 15.8644 14.748 16.8829 15.9999 16.8829C17.2517 16.8829 18.2701 15.8644 18.2701 14.6126C18.2701 13.3608 17.2517 12.3423 15.9999 12.3423ZM15.9999 15.3694C15.5825 15.3694 15.2431 15.03 15.2431 14.6126C15.2431 14.1953 15.5825 13.8559 15.9999 13.8559C16.4172 13.8559 16.7566 14.1953 16.7566 14.6126C16.7566 15.03 16.4172 15.3694 15.9999 15.3694Z" fill="black"/>
<path d="M23.5674 12.3423C22.3156 12.3423 21.2971 13.3608 21.2971 14.6126C21.2971 15.8644 22.3156 16.8829 23.5674 16.8829C24.8192 16.8829 25.8377 15.8644 25.8377 14.6126C25.8377 13.3608 24.8192 12.3423 23.5674 12.3423ZM23.5674 15.3694C23.1501 15.3694 22.8107 15.03 22.8107 14.6126C22.8107 14.1953 23.1501 13.8559 23.5674 13.8559C23.9848 13.8559 24.3242 14.1953 24.3242 14.6126C24.3242 15.03 23.9848 15.3694 23.5674 15.3694Z" fill="black"/>
<path d="M8.43228 12.3423C7.18048 12.3423 6.16201 13.3608 6.16201 14.6126C6.16201 15.8644 7.18048 16.8829 8.43228 16.8829C9.68408 16.8829 10.7026 15.8644 10.7026 14.6126C10.7026 13.3608 9.68408 12.3423 8.43228 12.3423ZM8.43228 15.3694C8.01493 15.3694 7.67553 15.03 7.67553 14.6126C7.67553 14.1953 8.01493 13.8559 8.43228 13.8559C8.84963 13.8559 9.18904 14.1953 9.18904 14.6126C9.18904 15.03 8.84963 15.3694 8.43228 15.3694Z" fill="black"/>
<path d="M8.43228 20.4144C7.18048 20.4144 6.16201 21.4329 6.16201 22.6847C6.16201 23.9365 7.18048 24.955 8.43228 24.955C9.68408 24.955 10.7026 23.9365 10.7026 22.6847C10.7026 21.4329 9.68408 20.4144 8.43228 20.4144ZM8.43228 23.4414C8.01493 23.4414 7.67553 23.102 7.67553 22.6847C7.67553 22.2673 8.01493 21.9279 8.43228 21.9279C8.84963 21.9279 9.18904 22.2673 9.18904 22.6847C9.18904 23.102 8.84963 23.4414 8.43228 23.4414Z" fill="black"/>
<path d="M15.9999 20.4144C14.748 20.4144 13.7296 21.4329 13.7296 22.6847C13.7296 23.9365 14.748 24.955 15.9999 24.955C17.2517 24.955 18.2701 23.9365 18.2701 22.6847C18.2701 21.4329 17.2517 20.4144 15.9999 20.4144ZM15.9999 23.4414C15.5825 23.4414 15.2431 23.102 15.2431 22.6847C15.2431 22.2673 15.5825 21.9279 15.9999 21.9279C16.4172 21.9279 16.7566 22.2673 16.7566 22.6847C16.7566 23.102 16.4172 23.4414 15.9999 23.4414Z" fill="black"/>
<path d="M23.5674 20.4144C22.3156 20.4144 21.2971 21.4329 21.2971 22.6847C21.2971 23.9365 22.3156 24.955 23.5674 24.955C24.8192 24.955 25.8377 23.9365 25.8377 22.6847C25.8377 21.4329 24.8192 20.4144 23.5674 20.4144ZM23.5674 23.4414C23.1501 23.4414 22.8107 23.102 22.8107 22.6847C22.8107 22.2673 23.1501 21.9279 23.5674 21.9279C23.9848 21.9279 24.3242 22.2673 24.3242 22.6847C24.3242 23.102 23.9848 23.4414 23.5674 23.4414Z" fill="black"/>
</svg>
