<svg width="32" height="32" viewBox="0 0 32 32" fill="none" xmlns="http://www.w3.org/2000/svg">
<path d="M16.0011 3.54918L20.1591 5.81743L20.1592 4.71758L16.0011 2.44922L11.1724 5.08279V6.18263L16.0011 3.54918Z" fill="black"/>
<path d="M5.86207 21.0686V14.5854H4.89655V21.6194L10.2069 24.7575V23.6359L5.86207 21.0686Z" fill="black"/>
<path d="M26.1379 21.0686L21.7931 23.6359V24.7574L27.1034 21.6194V14.5854H26.1379V21.0686Z" fill="black"/>
<path d="M5.37931 12.1716C6.01474 12.1716 6.60962 11.995 7.11784 11.6889C8.10014 11.0971 8.75862 10.0203 8.75862 8.7923C8.75862 8.60246 8.74209 8.41648 8.71191 8.23508C8.55972 7.3217 8.04015 6.53155 7.31034 6.02139C6.76253 5.63844 6.09693 5.41287 5.37931 5.41287C3.51598 5.41287 2 6.92886 2 8.79218C2 10.0202 2.65848 11.097 3.64078 11.6887C4.149 11.9949 4.74388 12.1716 5.37931 12.1716ZM5.37931 6.37851C6.71028 6.37851 7.7931 7.46134 7.7931 8.7923C7.7931 10.1233 6.71028 11.2061 5.37931 11.2061C4.04834 11.2061 2.96552 10.1233 2.96552 8.7923C2.96552 7.46134 4.04834 6.37851 5.37931 6.37851Z" fill="black"/>
<path d="M23.2881 8.23508C23.2578 8.41648 23.2414 8.60246 23.2414 8.7923C23.2414 10.0203 23.8999 11.0971 24.8822 11.6889C25.3904 11.995 25.9853 12.1716 26.6207 12.1716C27.2561 12.1716 27.851 11.995 28.3592 11.6889C29.3415 11.0971 30 10.0203 30 8.7923C30 6.92898 28.484 5.41299 26.6207 5.41299C25.7317 5.41299 24.9222 5.75865 24.3183 6.32191C23.7853 6.81891 23.4131 7.48548 23.2881 8.23508ZM26.6207 6.37851C27.9517 6.37851 29.0345 7.46134 29.0345 8.7923C29.0345 10.1233 27.9517 11.2061 26.6207 11.2061C25.2897 11.2061 24.2069 10.1233 24.2069 8.7923C24.2069 7.46134 25.2897 6.37851 26.6207 6.37851Z" fill="black"/>
<path d="M19.3793 26.1716C19.3793 25.7115 19.2866 25.2728 19.1193 24.8728C18.6093 23.6522 17.4033 22.7923 16 22.7923C14.5967 22.7923 13.3907 23.6522 12.8807 24.8728C12.7135 25.2728 12.6207 25.7115 12.6207 26.1716C12.6207 26.6317 12.7134 27.0704 12.8807 27.4705C13.3907 28.691 14.5967 29.5509 16 29.5509C17.4033 29.5509 18.6093 28.691 19.1193 27.4705C19.2865 27.0704 19.3793 26.6317 19.3793 26.1716ZM16 28.5854C14.669 28.5854 13.5862 27.5026 13.5862 26.1716C13.5862 24.8407 14.669 23.7578 16 23.7578C17.331 23.7578 18.4138 24.8407 18.4138 26.1716C18.4138 27.5026 17.331 28.5854 16 28.5854Z" fill="black"/>
</svg>
