<svg width="32" height="32" viewBox="0 0 32 32" fill="none" xmlns="http://www.w3.org/2000/svg">
<path d="M16.0011 4.04691L20.0886 6.27671L20.0887 4.65485L16.0012 2.42505L11.2542 5.0141V6.63573L16.0011 4.04691Z" fill="black"/>
<path d="M25.7288 20.8636L21.6949 23.2473V24.9011L27.1525 21.6761V14.6258H25.7288V20.8636Z" fill="black"/>
<path d="M6.27119 20.8636V14.6258H4.84746V21.6761L10.3051 24.9011V23.2473L6.27119 20.8636Z" fill="black"/>
<path d="M7.69242 11.7784C8.55781 11.1284 9.11864 10.094 9.11864 8.9309C9.11864 8.74463 9.10405 8.56168 9.07641 8.38312C8.91588 7.34866 8.30795 6.46073 7.45763 5.92232C6.90771 5.5741 6.25695 5.37157 5.55932 5.37157C3.59671 5.37157 2 6.96829 2 8.9309C2 10.094 2.56083 11.1284 3.42622 11.7784C4.0211 12.2252 4.75978 12.4902 5.55932 12.4902C6.35886 12.4902 7.09754 12.2252 7.69242 11.7784ZM3.42373 8.9309C3.42373 7.75335 4.38178 6.7953 5.55932 6.7953C6.73686 6.7953 7.69492 7.75335 7.69492 8.9309C7.69492 10.1084 6.73686 11.0665 5.55932 11.0665C4.38178 11.0665 3.42373 10.1084 3.42373 8.9309Z" fill="black"/>
<path d="M22.9236 8.38312C22.8958 8.56168 22.8814 8.74463 22.8814 8.9309C22.8814 10.094 23.4422 11.1284 24.3076 11.7784C24.9025 12.2252 25.6411 12.4902 26.4407 12.4902C27.2402 12.4902 27.9789 12.2252 28.5738 11.7784C29.4392 11.1284 30 10.094 30 8.9309C30 6.96829 28.4033 5.37157 26.4407 5.37157C25.5817 5.37157 24.7929 5.67744 24.1773 6.18595C23.5198 6.7291 23.06 7.50325 22.9236 8.38312ZM26.4407 6.7953C27.6182 6.7953 28.5763 7.75335 28.5763 8.9309C28.5763 10.1084 27.6182 11.0665 26.4407 11.0665C25.2631 11.0665 24.3051 10.1084 24.3051 8.9309C24.3051 7.75335 25.2631 6.7953 26.4407 6.7953Z" fill="black"/>
<path d="M19.0665 24.2117C18.4467 23.1623 17.3045 22.4563 16 22.4563C14.6955 22.4563 13.5532 23.1623 12.9335 24.2117C12.6209 24.7411 12.4407 25.3575 12.4407 26.0156C12.4407 26.6738 12.6209 27.2901 12.9335 27.8196C13.5533 28.8692 14.6955 29.575 16 29.575C17.3045 29.575 18.4468 28.869 19.0665 27.8196C19.3791 27.2902 19.5593 26.6738 19.5593 26.0156C19.5593 25.3575 19.3791 24.7412 19.0665 24.2117ZM16 28.1512C14.8225 28.1512 13.8644 27.1932 13.8644 26.0156C13.8644 24.8381 14.8225 23.88 16 23.88C17.1775 23.88 18.1356 24.8381 18.1356 26.0156C18.1356 27.1932 17.1775 28.1512 16 28.1512Z" fill="black"/>
</svg>
