<svg width="32" height="32" viewBox="0 0 32 32" fill="none" xmlns="http://www.w3.org/2000/svg">
<path d="M16.001 4.52799L20.0205 6.72074L20.0206 4.59437L16.0012 2.40186L11.3333 4.94764V7.07377L16.001 4.52799Z" fill="black"/>
<path d="M25.3333 20.6657L21.6 22.8717V25.04L27.2 21.7308V14.6649H25.3333V20.6657Z" fill="black"/>
<path d="M6.66667 20.6657V14.6649H4.8V21.7308L10.4 25.04V22.8717L6.66667 20.6657Z" fill="black"/>
<path d="M8.19873 11.8649C8.97538 11.1803 9.46667 10.1792 9.46667 9.06492C9.46667 8.88199 9.45278 8.70221 9.42723 8.52627C9.26028 7.37594 8.56682 6.39466 7.6 5.83384C7.05038 5.51511 6.41315 5.33159 5.73333 5.33159C3.67475 5.33159 2 7.00634 2 9.06492C2 10.1792 2.49128 11.1803 3.26793 11.8649C3.92605 12.4451 4.78903 12.7983 5.73333 12.7983C6.67763 12.7983 7.54062 12.4451 8.19873 11.8649ZM3.86667 9.06492C3.86667 8.03569 4.7041 7.19826 5.73333 7.19826C6.76257 7.19826 7.6 8.03569 7.6 9.06492C7.6 10.0942 6.76257 10.9316 5.73333 10.9316C4.7041 10.9316 3.86667 10.0942 3.86667 9.06492Z" fill="black"/>
<path d="M22.5728 8.52627C22.5472 8.70221 22.5333 8.88199 22.5333 9.06492C22.5333 10.1792 23.0246 11.1803 23.8013 11.8649C24.4594 12.4451 25.3224 12.7983 26.2667 12.7983C27.211 12.7983 28.0739 12.4451 28.7321 11.8649C29.5087 11.1803 30 10.1792 30 9.06492C30 7.00634 28.3253 5.33159 26.2667 5.33159C25.4333 5.33159 24.663 5.60622 24.041 6.06951C23.2632 6.64899 22.7183 7.52376 22.5728 8.52627ZM26.2667 7.19826C27.2959 7.19826 28.1333 8.03569 28.1333 9.06492C28.1333 10.0942 27.2959 10.9316 26.2667 10.9316C25.2374 10.9316 24.4 10.0942 24.4 9.06492C24.4 8.03569 25.2374 7.19826 26.2667 7.19826Z" fill="black"/>
<path d="M19.0154 23.6674C18.3357 22.7373 17.2375 22.1316 16 22.1316C14.7625 22.1316 13.6642 22.7373 12.9846 23.6674C12.5337 24.2844 12.2667 25.0439 12.2667 25.8649C12.2667 26.5484 12.4522 27.1889 12.774 27.7405C13.4218 28.8503 14.6249 29.5983 16 29.5983C17.3751 29.5983 18.5781 28.8503 19.226 27.7406C19.548 27.189 19.7333 26.5484 19.7333 25.8649C19.7333 25.0439 19.4663 24.2844 19.0154 23.6674ZM16 27.7316C14.9708 27.7316 14.1333 26.8942 14.1333 25.8649C14.1333 24.8357 14.9708 23.9983 16 23.9983C17.0292 23.9983 17.8667 24.8357 17.8667 25.8649C17.8667 26.8942 17.0292 27.7316 16 27.7316Z" fill="black"/>
</svg>
