<svg width="32" height="32" viewBox="0 0 32 32" fill="none" xmlns="http://www.w3.org/2000/svg">
<path d="M19.9297 5.92982C19.9297 3.76289 18.1669 2 15.9999 2C13.833 2 12.0701 3.76289 12.0701 5.92982C12.0701 8.09675 13.833 9.85965 15.9999 9.85965C18.1669 9.85965 19.9297 8.09675 19.9297 5.92982ZM15.9999 8.87719C14.3748 8.87719 13.0526 7.55505 13.0526 5.92982C13.0526 4.3046 14.3748 2.98246 15.9999 2.98246C17.625 2.98246 18.9473 4.3046 18.9473 5.92982C18.9473 7.55505 17.625 8.87719 15.9999 8.87719Z" fill="black"/>
<path d="M16.4912 12.3158H15.5087V30H16.4912V12.3158Z" fill="black"/>
<path d="M12.0701 13.7895C12.0701 11.6225 10.3072 9.85965 8.14027 9.85965C5.97334 9.85965 4.21045 11.6225 4.21045 13.7895C4.21045 15.9564 5.97334 17.7193 8.14027 17.7193C10.3072 17.7193 12.0701 15.9564 12.0701 13.7895ZM8.14027 16.7368C6.51517 16.7368 5.19291 15.4147 5.19291 13.7895C5.19291 12.1642 6.51517 10.8421 8.14027 10.8421C9.76538 10.8421 11.0876 12.1642 11.0876 13.7895C11.0876 15.4147 9.76538 16.7368 8.14027 16.7368Z" fill="black"/>
<path d="M8.6315 20.1754H7.64905V30H8.6315V20.1754Z" fill="black"/>
<path d="M23.8596 17.7193C26.0265 17.7193 27.7894 15.9564 27.7894 13.7895C27.7894 11.6225 26.0265 9.85965 23.8596 9.85965C21.6926 9.85965 19.9297 11.6225 19.9297 13.7895C19.9297 15.9564 21.6926 17.7193 23.8596 17.7193ZM23.8596 10.8421C25.4847 10.8421 26.8069 12.1642 26.8069 13.7895C26.8069 15.4147 25.4847 16.7368 23.8596 16.7368C22.2345 16.7368 20.9122 15.4147 20.9122 13.7895C20.9122 12.1642 22.2345 10.8421 23.8596 10.8421Z" fill="black"/>
<path d="M24.3508 20.1754H23.3683V30H24.3508V20.1754Z" fill="black"/>
</svg>
