<svg width="32" height="32" viewBox="0 0 32 32" fill="none" xmlns="http://www.w3.org/2000/svg">
<path d="M2.12598 7.04504H3.63949V4.77477H5.90976V3.26126H2.12598V7.04504Z" fill="black"/>
<path d="M28.3602 28.4865H3.63949V9.06306H2.12598V30H29.8737V9.06306H28.3602V28.4865Z" fill="black"/>
<path d="M26.0903 4.77477H28.3602V7.04504H29.8737V3.26126H26.0903V4.77477Z" fill="black"/>
<path d="M9.69354 2H8.18003V5.02703H9.69354V2Z" fill="black"/>
<path d="M23.8197 2H22.3062V5.02703H23.8197V2Z" fill="black"/>
<path d="M20.0363 3.26126H11.9642V4.77477H20.0363V3.26126Z" fill="black"/>
<path d="M28.1083 7.2973H3.89174V8.81081H28.1083V7.2973Z" fill="black"/>
<path d="M7.92677 15.8782C8.62334 15.8782 9.18803 15.3135 9.18803 14.6169C9.18803 13.9203 8.62334 13.3556 7.92677 13.3556C7.23019 13.3556 6.66551 13.9203 6.66551 14.6169C6.66551 15.3135 7.23019 15.8782 7.92677 15.8782Z" fill="black"/>
<path d="M11.9628 15.8782C12.6594 15.8782 13.2241 15.3135 13.2241 14.6169C13.2241 13.9203 12.6594 13.3556 11.9628 13.3556C11.2662 13.3556 10.7015 13.9203 10.7015 14.6169C10.7015 15.3135 11.2662 15.8782 11.9628 15.8782Z" fill="black"/>
<path d="M15.9988 15.8782C16.6954 15.8782 17.2601 15.3135 17.2601 14.6169C17.2601 13.9203 16.6954 13.3556 15.9988 13.3556C15.3023 13.3556 14.7376 13.9203 14.7376 14.6169C14.7376 15.3135 15.3023 15.8782 15.9988 15.8782Z" fill="black"/>
<path d="M20.0349 15.8782C20.7315 15.8782 21.2961 15.3135 21.2961 14.6169C21.2961 13.9203 20.7315 13.3556 20.0349 13.3556C19.3383 13.3556 18.7736 13.9203 18.7736 14.6169C18.7736 15.3135 19.3383 15.8782 20.0349 15.8782Z" fill="black"/>
<path d="M24.0719 15.8782C24.7685 15.8782 25.3332 15.3135 25.3332 14.6169C25.3332 13.9203 24.7685 13.3556 24.0719 13.3556C23.3753 13.3556 22.8107 13.9203 22.8107 14.6169C22.8107 15.3135 23.3753 15.8782 24.0719 15.8782Z" fill="black"/>
<path d="M7.92677 19.9099C8.62334 19.9099 9.18803 19.3452 9.18803 18.6486C9.18803 17.9521 8.62334 17.3874 7.92677 17.3874C7.23019 17.3874 6.66551 17.9521 6.66551 18.6486C6.66551 19.3452 7.23019 19.9099 7.92677 19.9099Z" fill="black"/>
<path d="M11.9628 19.9099C12.6594 19.9099 13.2241 19.3452 13.2241 18.6486C13.2241 17.9521 12.6594 17.3874 11.9628 17.3874C11.2662 17.3874 10.7015 17.9521 10.7015 18.6486C10.7015 19.3452 11.2662 19.9099 11.9628 19.9099Z" fill="black"/>
<path d="M15.9988 19.9099C16.6954 19.9099 17.2601 19.3452 17.2601 18.6486C17.2601 17.9521 16.6954 17.3874 15.9988 17.3874C15.3023 17.3874 14.7376 17.9521 14.7376 18.6486C14.7376 19.3452 15.3023 19.9099 15.9988 19.9099Z" fill="black"/>
<path d="M20.0349 19.9099C20.7315 19.9099 21.2961 19.3452 21.2961 18.6486C21.2961 17.9521 20.7315 17.3874 20.0349 17.3874C19.3383 17.3874 18.7736 17.9521 18.7736 18.6486C18.7736 19.3452 19.3383 19.9099 20.0349 19.9099Z" fill="black"/>
<path d="M24.0719 19.9099C24.7685 19.9099 25.3332 19.3452 25.3332 18.6486C25.3332 17.9521 24.7685 17.3874 24.0719 17.3874C23.3753 17.3874 22.8107 17.9521 22.8107 18.6486C22.8107 19.3452 23.3753 19.9099 24.0719 19.9099Z" fill="black"/>
<path d="M7.92677 23.9502C8.62334 23.9502 9.18803 23.3855 9.18803 22.689C9.18803 21.9924 8.62334 21.4277 7.92677 21.4277C7.23019 21.4277 6.66551 21.9924 6.66551 22.689C6.66551 23.3855 7.23019 23.9502 7.92677 23.9502Z" fill="black"/>
<path d="M11.9628 23.9502C12.6594 23.9502 13.2241 23.3855 13.2241 22.689C13.2241 21.9924 12.6594 21.4277 11.9628 21.4277C11.2662 21.4277 10.7015 21.9924 10.7015 22.689C10.7015 23.3855 11.2662 23.9502 11.9628 23.9502Z" fill="black"/>
<path d="M15.9988 23.9502C16.6954 23.9502 17.2601 23.3855 17.2601 22.689C17.2601 21.9924 16.6954 21.4277 15.9988 21.4277C15.3023 21.4277 14.7376 21.9924 14.7376 22.689C14.7376 23.3855 15.3023 23.9502 15.9988 23.9502Z" fill="black"/>
<path d="M20.0349 23.9502C20.7315 23.9502 21.2961 23.3855 21.2961 22.689C21.2961 21.9924 20.7315 21.4277 20.0349 21.4277C19.3383 21.4277 18.7736 21.9924 18.7736 22.689C18.7736 23.3855 19.3383 23.9502 20.0349 23.9502Z" fill="black"/>
<path d="M24.0719 23.9502C24.7685 23.9502 25.3332 23.3855 25.3332 22.689C25.3332 21.9924 24.7685 21.4277 24.0719 21.4277C23.3753 21.4277 22.8107 21.9924 22.8107 22.689C22.8107 23.3855 23.3753 23.9502 24.0719 23.9502Z" fill="black"/>
</svg>
