<svg width="32" height="32" viewBox="0 0 32 32" fill="none" xmlns="http://www.w3.org/2000/svg">
<path d="M17.0001 2V22H19.0001V4H28.0001V28H19.0001V24.0001H20.1465C20.5779 25.4441 21.9178 26.5 23.5001 26.5C25.43 26.5 27.0001 24.9299 27.0001 23C27.0001 21.0701 25.43 19.5 23.5001 19.5C21.9176 19.5 20.5778 20.556 20.1464 22.0002H19.0001V24H17.0001V22.0001H15.0001V24H13.0001V22.0001H11.8539C11.4225 20.556 10.0826 19.5 8.50012 19.5C6.57025 19.5 5.00012 21.0701 5.00012 23C5.00012 24.9299 6.57025 26.5 8.50012 26.5C10.0826 26.5 11.4224 25.4441 11.8538 24H13.0001V28H4.00012V19.4141L8.50012 14.9141L13.0001 19.4141V22H15.0001V18.5859L9.41425 13H7.58588L2 18.5859V30H15V24.0001H17V30H30V2H17H17.0001ZM23.5001 21.5C24.3273 21.5 25.0001 22.1729 25.0001 23C25.0001 23.8271 24.3273 24.5 23.5001 24.5C22.673 24.5 22.0001 23.8271 22.0001 23C22.0001 22.1729 22.673 21.5 23.5001 21.5ZM8.50012 24.5C7.673 24.5 7.00012 23.8271 7.00012 23C7.00012 22.1729 7.673 21.5 8.50012 21.5C9.32725 21.5 10.0001 22.1729 10.0001 23C10.0001 23.8271 9.32725 24.5 8.50012 24.5Z" fill="black"/>
<path d="M26.0001 6H21.0001V8H26.0001V6Z" fill="black"/>
<path d="M26.0001 10H21.0001V12H26.0001V10Z" fill="black"/>
<path d="M26.0001 14H21.0001V16H26.0001V14Z" fill="black"/>
</svg>
