<svg width="32" height="32" viewBox="0 0 32 32" fill="none" xmlns="http://www.w3.org/2000/svg">
<path d="M10.2963 10.8004V7.17077H9.25929V10.8004H5.63068V11.8375H9.25929V15.4671H10.2963V11.8375H13.927V10.8004H10.2963Z" fill="black"/>
<path d="M24.6016 3.54553H2V25.3234H5.14989C5.40616 27.0807 6.91856 28.4345 8.74077 28.4345C10.7421 28.4345 12.3704 26.8016 12.3704 24.7945C12.3704 22.7875 10.7421 21.1544 8.74077 21.1544C6.9113 21.1544 5.39463 22.519 5.14729 24.2864H3.03704V4.58257H23.9913L25.7171 7.68929H18.5937V14.9486H28.963V24.2864H26.8502C26.5944 22.5286 25.0818 21.1743 23.2592 21.1743C21.4366 21.1743 19.9241 22.5286 19.6682 24.2864H14.9639V25.3234H19.6657C19.9135 27.0904 21.43 28.4545 23.2592 28.4545C25.0884 28.4545 26.605 27.0904 26.8527 25.3234H30V13.2631L24.6014 3.54553H24.6016ZM8.74077 22.1914C10.1703 22.1914 11.3334 23.3593 11.3334 24.7945C11.3334 26.2298 10.1703 27.3975 8.74077 27.3975C7.31121 27.3975 6.14817 26.2298 6.14817 24.7945C6.14817 23.3593 7.31121 22.1914 8.74077 22.1914ZM23.2594 27.4175C21.8298 27.4175 20.6668 26.2498 20.6668 24.8145C20.6668 23.3792 21.8298 22.2114 23.2594 22.2114C24.6889 22.2114 25.852 23.3792 25.852 24.8145C25.852 26.2498 24.6889 27.4175 23.2594 27.4175ZM19.6309 13.9115V8.72633H26.2934L28.9631 13.5317V13.9115H19.6309Z" fill="black"/>
</svg>
