<svg width="32" height="32" viewBox="0 0 32 32" fill="none" xmlns="http://www.w3.org/2000/svg">
<path d="M10.6546 10.6404V7.33133H9.12731V10.6404H5.81922V12.1677H9.12731V15.4768H10.6546V12.1677H13.9647V10.6404H10.6546Z" fill="black"/>
<path d="M24.5948 3.51746H2V25.4085H5.13309C5.49098 27.1498 7.03175 28.463 8.87276 28.463C10.9781 28.463 12.691 26.7456 12.691 24.6346C12.691 22.5237 10.9781 20.8061 8.87276 20.8061C7.02462 20.8061 5.47927 22.1298 5.12914 23.8812H3.52728V5.04474H23.6963L25.108 7.58588H18.2921V15.2223H28.4728V23.8812H26.8673C26.5097 22.1395 24.9686 20.8257 23.1274 20.8257C21.2861 20.8257 19.7451 22.1395 19.3874 23.8812H14.9829V25.4085H19.3839C19.7343 27.1595 21.2794 28.4826 23.1272 28.4826C24.9751 28.4826 26.5203 27.1595 26.8706 25.4085H30V13.2469L24.5948 3.51746ZM8.87276 22.3334C10.1359 22.3334 11.1637 23.3657 11.1637 24.6346C11.1637 25.9036 10.1359 26.9357 8.87276 26.9357C7.60957 26.9357 6.58184 25.9036 6.58184 24.6346C6.58184 23.3657 7.60957 22.3334 8.87276 22.3334ZM23.1274 26.9553C21.8642 26.9553 20.8364 25.9232 20.8364 24.6542C20.8364 23.3853 21.8642 22.353 23.1274 22.353C24.3906 22.353 25.4183 23.3853 25.4183 24.6542C25.4183 25.9232 24.3906 26.9553 23.1274 26.9553ZM19.8194 13.695V9.11316H25.9565L28.4728 13.6427V13.695H19.8194Z" fill="black"/>
</svg>
