<svg width="32" height="32" viewBox="0 0 32 32" fill="none" xmlns="http://www.w3.org/2000/svg">
<path d="M12 11C10.3457 11 9 12.3457 9 14V16H11V14C11 13.4486 11.4486 13 12 13H19C19.5514 13 20 13.4486 20 14V16H22V14C22 12.3457 20.6543 11 19 11H12Z" fill="black"/>
<path d="M15.5005 10C17.7061 10 19.5005 8.20563 19.5005 6C19.5005 3.79437 17.7061 2 15.5005 2C13.2949 2 11.5005 3.79437 11.5005 6C11.5005 8.20563 13.2949 10 15.5005 10ZM15.5005 4C16.6034 4 17.5005 4.89725 17.5005 6C17.5005 7.10275 16.6034 8 15.5005 8C14.3976 8 13.5005 7.10275 13.5005 6C13.5005 4.89725 14.3976 4 15.5005 4Z" fill="black"/>
<path d="M2 16.984V25H8V23H4V18.984H28V23H23V25H21V23H10V25H21V28H10V25H8V30H23V25H30V16.984H2Z" fill="black"/>
<path d="M6 9H7.27063C7.617 9.59675 8.26162 10 9 10C10.1029 10 11 9.10275 11 8C11 6.89725 10.1029 6 9 6C8.26162 6 7.61713 6.40325 7.27063 7H4V16H6V9Z" fill="black"/>
</svg>
