<svg width="32" height="32" viewBox="0 0 32 32" fill="none" xmlns="http://www.w3.org/2000/svg">
<path d="M15.5255 27.6271C15.5255 28.4122 14.8868 29.0508 14.1018 29.0508C13.3167 29.0508 12.678 28.4122 12.678 27.6271V26.6733H11.7289V27.6271C11.7289 28.9355 12.7934 30 14.1018 30C15.4102 30 16.4747 28.9355 16.4747 27.6271V19.0847H15.5255V27.6271Z" fill="black"/>
<path d="M16.4747 3.43346V2H15.5255V3.43346C8.67915 3.68415 3.18652 9.33173 3.18652 16.2393V16.7139H28.3391L28.8136 16.7072V16.2327C28.8136 9.32876 23.321 3.68392 16.4747 3.43346ZM4.14505 15.7647C4.37712 9.89173 8.89769 5.10302 14.6538 4.44976C12.1143 6.89537 10.7797 9.95864 10.7797 13.3853H11.7289C11.7289 10.0921 13.0715 7.15686 15.6209 4.84556H16.3792C18.9287 7.15686 20.2711 10.092 20.2711 13.3853H21.2203C21.2203 9.95876 19.8858 6.89537 17.3462 4.44976C23.1042 5.1029 27.626 9.89232 27.8552 15.7648L4.14505 15.7647Z" fill="black"/>
</svg>
