<svg width="32" height="32" viewBox="0 0 32 32" fill="none" xmlns="http://www.w3.org/2000/svg">
<path d="M3 11H2V21H3V11Z" fill="black"/>
<path d="M25 16C25 18.5023 23.5778 20.6775 21.5 21.7633V22.8718C24.1461 21.7121 26 19.0691 26 16C26 12.9308 24.1461 10.2878 21.5 9.12808V10.2366C23.5778 11.3226 25 13.4977 25 16Z" fill="black"/>
<path d="M21.5 4.89771V5.93896C25.8321 7.23321 29 11.2526 29 16C29 20.7473 25.8321 24.7667 21.5 26.061V27.1022C26.3909 25.7792 30 21.3035 30 16C30 10.6965 26.3909 6.2207 21.5 4.89771Z" fill="black"/>
<path d="M22 16C22 15.3418 21.8171 14.7257 21.5 14.1993C21.0545 13.46 20.3435 12.8983 19.5 12.6463C19.3379 12.598 19.171 12.5608 19 12.5363V5.50008H15.3594L6 11.2197V20.7805L15.3594 26.5001H19V19.4638C19.171 19.4392 19.3379 19.4022 19.5 19.3538C20.3435 19.1018 21.0545 18.5402 21.5 17.8008C21.8171 17.2745 22 16.6581 22 16ZM18 25.5H15.6406L7 20.2196V11.7803L15.6406 6.49996H18V25.5ZM19.5 18.2898C19.3411 18.3595 19.1741 18.4141 19 18.4496V13.5503C19.1741 13.5858 19.3411 13.6405 19.5 13.7101C20.3819 14.0967 21 14.977 21 16C21 17.023 20.3819 17.9031 19.5 18.2898Z" fill="black"/>
</svg>
