<svg width="32" height="32" viewBox="0 0 32 32" fill="none" xmlns="http://www.w3.org/2000/svg">
<path d="M3.89825 11.2368C3.89825 12.676 5.06916 13.8469 6.50845 13.8469H12.4342L12.3909 18.0068L8.8874 26.308C8.54084 27.1288 8.62709 28.0626 9.11781 28.8062C9.60864 29.5497 10.4335 29.996 11.324 30H11.3476C11.3518 30 11.3558 30 11.36 30C12.4566 30 13.4255 29.3425 13.8304 28.3222L16.0569 22.712L18.1781 28.2869C18.5684 29.3128 19.5658 29.9999 20.6628 29.9999H20.6747C21.5681 29.9958 22.3944 29.5476 22.8848 28.8007C23.3753 28.0537 23.4582 27.1174 23.1068 26.2959L19.5602 18.0084V13.8469H25.4915C26.9308 13.8469 28.1017 12.676 28.1017 11.2368C28.1017 9.79747 26.9308 8.62656 25.4915 8.62656H6.50845C5.06916 8.62656 3.89825 9.79747 3.89825 11.2368ZM26.6781 11.2368C26.6781 11.891 26.1459 12.4232 25.4917 12.4232H18.1366V18.3003L21.7978 26.856C21.9634 27.2433 21.9259 27.6672 21.6948 28.0193C21.4637 28.3714 21.0895 28.5744 20.6684 28.5763H20.6628C20.1535 28.5763 19.6902 28.2572 19.5089 27.7807L16.4711 19.7969H15.6823L12.5071 27.7974C12.3191 28.2712 11.8692 28.5765 11.3602 28.5765H11.3309C10.911 28.5745 10.5374 28.3724 10.306 28.0219C10.0748 27.6715 10.0358 27.2486 10.1991 26.8617L13.8116 18.3021L13.8729 12.4233H6.50856C5.85436 12.4233 5.32211 11.8911 5.32211 11.2369C5.32211 10.5827 5.85436 10.0504 6.50856 10.0504H25.4918C26.146 10.0504 26.6782 10.5827 26.6782 11.2369L26.6781 11.2368Z" fill="black"/>
<path d="M18.6232 4.61019C18.6232 3.17091 17.4523 2 16.013 2C14.5737 2 13.4028 3.17091 13.4028 4.61019C13.4028 6.04948 14.5737 7.22038 16.013 7.22038C17.4523 7.22038 18.6232 6.04948 18.6232 4.61019ZM14.8265 4.61019C14.8265 3.95598 15.3588 3.42374 16.013 3.42374C16.6672 3.42374 17.1994 3.95598 17.1994 4.61019C17.1994 5.2644 16.6672 5.79664 16.013 5.79664C15.3588 5.79664 14.8265 5.2644 14.8265 4.61019Z" fill="black"/>
</svg>
