<svg width="32" height="32" viewBox="0 0 32 32" fill="none" xmlns="http://www.w3.org/2000/svg">
<path d="M3.93088 11.1547C3.93088 12.4857 5.01372 13.5685 6.3447 13.5685H12.6165L12.5695 18.0914L8.98687 26.5796C8.66596 27.34 8.74585 28.2052 9.2005 28.894C9.65526 29.5829 10.4195 29.9963 11.2446 30H11.2685C11.2723 30 11.276 30 11.2799 30C12.296 30 13.1936 29.3909 13.5687 28.4457L16.0628 22.1615L18.4415 28.4129C18.8029 29.3634 19.7269 29.9999 20.7433 29.9999H20.7541C21.5818 29.9961 22.3475 29.5808 22.8018 28.8889C23.2563 28.1969 23.3331 27.3293 23.0075 26.5683L19.3803 18.0924V13.5683H25.6553C26.9863 13.5683 28.0691 12.4854 28.0691 11.1544C28.0691 9.82345 26.9863 8.7406 25.6553 8.7406H6.3447C5.01372 8.7406 3.93088 9.82345 3.93088 11.1544V11.1547ZM27.1036 11.1547C27.1036 11.9533 26.4539 12.603 25.6553 12.603H18.4148V18.2905L22.1196 26.9483C22.3206 27.4179 22.2751 27.9321 21.9947 28.3591C21.7144 28.7861 21.2606 29.0323 20.7499 29.0345H20.7432C20.1255 29.0345 19.5636 28.6474 19.3437 28.0697L16.2207 19.8622H15.9363L12.6711 28.0896C12.443 28.6643 11.8975 29.0346 11.2799 29.0346H11.249C10.7398 29.0322 10.2867 28.7871 10.0062 28.3621C9.72575 27.9371 9.67831 27.4242 9.87649 26.9551L13.5328 18.2916L13.5921 12.603H6.34458C5.54597 12.603 4.89629 11.9533 4.89629 11.1547C4.89629 10.3561 5.54597 9.70637 6.34458 9.70637H25.6552C26.4538 9.70637 27.1035 10.3561 27.1035 11.1547H27.1036Z" fill="black"/>
<path d="M18.427 4.41382C18.427 3.08284 17.3441 2 16.0132 2C14.6822 2 13.5993 3.08284 13.5993 4.41382C13.5993 5.74481 14.6822 6.82765 16.0132 6.82765C17.3441 6.82765 18.427 5.74481 18.427 4.41382ZM14.5649 4.41382C14.5649 3.61521 15.2145 2.96553 16.0132 2.96553C16.8118 2.96553 17.4614 3.61521 17.4614 4.41382C17.4614 5.21244 16.8118 5.86212 16.0132 5.86212C15.2145 5.86212 14.5649 5.21244 14.5649 4.41382Z" fill="black"/>
</svg>
