<svg width="32" height="32" viewBox="0 0 32 32" fill="none" xmlns="http://www.w3.org/2000/svg">
<path d="M1.99707 24.6537C1.99707 27.6017 4.39539 30 7.34335 30H14.9809V28.4725H7.34335C5.23768 28.4725 3.52458 26.7594 3.52458 24.6537C3.52458 22.548 5.23768 20.8349 7.34335 20.8349H14.9809V19.3074H7.34335C4.39539 19.3074 1.99707 21.7058 1.99707 24.6537Z" fill="black"/>
<path d="M24.6563 19.3074H17.0176V20.8349H24.6563C26.7619 20.8349 28.475 22.548 28.475 24.6537C28.475 26.7594 26.7619 28.4725 24.6563 28.4725H17.0176V30H24.6563C27.6042 30 30.0025 27.6017 30.0025 24.6537C30.0025 21.7058 27.6042 19.3074 24.6563 19.3074Z" fill="black"/>
<path d="M16.763 21.0895H15.2355V28.2179H16.763V21.0895Z" fill="black"/>
<path d="M28.4739 3.52751C28.4739 3.24607 28.465 2.98626 28.4464 2.73346L28.3981 2.07574L27.7404 2.0275C27.4876 2.00891 27.2278 2 26.9464 2C21.9531 2 17.6804 5.14183 15.9992 9.552C14.3181 5.14183 10.0454 2 5.05209 2C4.77064 2 4.51084 2.00891 4.25804 2.0275L3.60032 2.07574L3.55207 2.73346C3.53349 2.98626 3.52458 3.24607 3.52458 3.52751C3.52458 9.98492 8.77806 15.2384 15.2355 15.2384V19.0529H16.763V15.2384C23.2204 15.2384 28.4739 9.98492 28.4739 3.52751ZM5.05209 3.52751C10.6672 3.52751 15.2355 8.09578 15.2355 13.7109V13.4563H15.2387C15.2369 13.541 15.2355 13.6259 15.2355 13.7109C9.62036 13.7109 5.05209 9.14263 5.05209 3.52751ZM16.763 13.7109C16.763 13.6259 16.7616 13.541 16.7598 13.4563H16.763V13.7109C16.763 8.09578 21.3313 3.52751 26.9464 3.52751C26.9464 9.14263 22.3781 13.7109 16.763 13.7109Z" fill="black"/>
</svg>
