<svg width="32" height="32" viewBox="0 0 32 32" fill="none" xmlns="http://www.w3.org/2000/svg">
<path d="M24.5006 18.9978H16.9995V20.9978H24.5006C26.4305 20.9978 28.0006 22.568 28.0006 24.4978C28.0006 26.4277 26.4305 27.9978 24.5006 27.9978H16.9995V29.9978H24.5006C27.5334 29.9978 30.0006 27.5306 30.0006 24.4978C30.0006 21.4651 27.5334 18.9978 24.5006 18.9978Z" fill="black"/>
<path d="M7.49951 27.9978C5.56964 27.9978 3.99951 26.4277 3.99951 24.4978C3.99951 22.568 5.56964 20.9978 7.49951 20.9978H14.9995V18.9978H7.49951C4.46676 18.9978 1.99951 21.4651 1.99951 24.4978C1.99951 27.5306 4.46676 29.9978 7.49951 29.9978H14.9995V27.9978H7.49951Z" fill="black"/>
<path d="M16.9995 20.9978H14.9995V27.9978H16.9995V20.9978Z" fill="black"/>
<path d="M28.4718 2.95408L28.4086 2.09283L27.5474 2.0297C27.293 2.01108 27.032 2.00195 26.7494 2.00195C21.9564 2.00195 17.8253 4.88695 15.9994 9.01108C14.1735 4.88683 10.0424 2.00195 5.24939 2.00195C4.96676 2.00195 4.70576 2.01095 4.45139 2.0297L3.59014 2.09283L3.52701 2.95408C3.50839 3.20845 3.49926 3.46945 3.49926 3.75208C3.49926 10.1476 8.63526 15.3653 14.9993 15.499V18.9978H16.9993V15.499C23.3633 15.3655 28.4993 10.1476 28.4993 3.75208C28.4993 3.46945 28.4903 3.20845 28.4715 2.95408H28.4718ZM5.50276 4.00533C10.6781 4.13795 14.8636 8.32333 14.9961 13.4987C9.82076 13.3661 5.63526 9.1807 5.50276 4.00533ZM17.0028 13.4987C17.1354 8.32333 21.3208 4.13783 26.4961 4.00533C26.3635 9.1807 22.1781 13.3662 17.0028 13.4987Z" fill="black"/>
</svg>
