<svg width="32" height="32" viewBox="0 0 32 32" fill="none" xmlns="http://www.w3.org/2000/svg">
<path d="M19.4845 17.9955H17.961C19.213 19.0251 20.3359 20.1856 21.319 21.4471H10.68C11.6634 20.1855 12.7862 19.0249 14.0385 17.995C14.3717 17.7209 14.714 17.4559 15.0651 17.2006L17.5339 15.4059C18.1426 14.9633 18.7246 14.4915 19.2817 13.9956C22.8459 10.8234 25.3261 6.61164 26.3965 2.00114H25.371C25.0799 3.19802 24.6876 4.36539 24.2035 5.49202L7.79411 5.48877C7.31048 4.36264 6.91848 3.19577 6.62761 1.99927H5.60211C6.67211 6.61014 9.15223 10.8224 12.7165 13.995H14.2676C12.969 12.9576 11.8024 11.7836 10.7841 10.5001H21.2147C20.1964 11.7838 19.0296 12.9579 17.7309 13.9955C17.4737 14.2009 17.2132 14.4026 16.9457 14.597L14.477 16.3918C13.7899 16.8914 13.1364 17.4278 12.5152 17.9948C9.01423 21.191 6.59173 25.4024 5.56836 29.9989H6.59361C6.87423 28.7961 7.25536 27.622 7.73036 26.4885L24.2699 26.4918C24.7445 27.6249 25.1252 28.7985 25.4056 30.0009H26.4309C25.4079 25.4039 22.9856 21.192 19.4845 17.9955ZM10.0356 9.50014C9.36211 8.54452 8.76748 7.53677 8.25411 6.48877L23.7436 6.49189C23.2306 7.53877 22.6365 8.54539 21.9636 9.50014H10.0356ZM8.17773 25.4888C8.68423 24.4304 9.27573 23.4133 9.94486 22.4471H22.0544C22.7241 23.4143 23.3161 24.4323 23.8229 25.4918L8.17773 25.4888Z" fill="black"/>
</svg>
