<svg width="32" height="32" viewBox="0 0 32 32" fill="none" xmlns="http://www.w3.org/2000/svg">
<path d="M10.831 24.1996H8.47638C10.3605 27.3373 13.7814 29.5762 17.4377 29.9361V27.9933C14.8883 27.6793 12.4446 26.2329 10.8308 24.1995L10.831 24.1996Z" fill="currentcolor"/>
<path d="M18.5574 6.86689H15.5844C15.5654 6.86689 15.5501 6.85145 15.55 6.8242L15.508 2L13.5785 2.01676L13.6204 6.83264C13.6204 7.91555 14.5014 8.79669 15.5844 8.79669H18.5574C23.5149 8.79669 27.6005 12.6025 28.0498 17.4459H29.9883C29.5335 11.5368 24.5796 6.86689 18.5574 6.86689Z" fill="currentcolor"/>
<path d="M7.78942 20.3403H7.79822V19.3754H13.1048V17.4458H7.53024C6.614 17.4458 5.86854 18.1912 5.86854 19.1073V29.0238H7.79822V24.1996H7.78942V20.3403Z" fill="currentcolor"/>
<path d="M17.4463 15.5161C18.5102 15.5161 19.3758 14.6504 19.3758 13.5864V13.2885C19.3758 12.4907 18.8743 11.7651 18.128 11.4832L12.2822 9.27513C11.9092 9.13426 11.6585 8.7716 11.6585 8.37264V2.00832H9.72886V8.37276C9.72886 9.56977 10.4811 10.6579 11.6005 11.0806L17.4463 13.2886V13.5865H5.87047C3.74264 13.5865 2.0116 15.3178 2.0116 17.4459V29.0239H3.94128V17.4459C3.94128 16.3819 4.80674 15.5162 5.87047 15.5162H17.4465L17.4463 15.5161Z" fill="currentcolor"/>
<path d="M24.6741 27.0941C26.0041 27.0941 27.0862 26.0121 27.0862 24.682C27.0862 23.352 26.0041 22.2699 24.6741 22.2699C23.3441 22.2699 22.262 23.352 22.262 24.682C22.262 26.0121 23.3441 27.0941 24.6741 27.0941ZM24.6741 24.1996C24.9402 24.1996 25.1565 24.416 25.1565 24.682C25.1565 24.9481 24.9402 25.1645 24.6741 25.1645C24.4081 25.1645 24.1917 24.9481 24.1917 24.682C24.1917 24.416 24.4081 24.1996 24.6741 24.1996Z" fill="currentcolor"/>
<path d="M24.6741 28.0703C22.8121 28.0703 21.2972 26.5554 21.2972 24.6934V24.211H19.3675V24.6934C19.3675 27.6195 21.748 30 24.6741 30H25.1565V28.0703H24.6741Z" fill="currentcolor"/>
<path d="M24.6741 19.3868H24.1917V21.3164H24.6741C26.5361 21.3164 28.051 22.8314 28.051 24.6934V25.1758H29.9807V24.6934C29.9807 21.7673 27.6002 19.3868 24.6741 19.3868Z" fill="currentcolor"/>
</svg>
