<svg width="32" height="32" viewBox="0 0 32 32" fill="none" xmlns="http://www.w3.org/2000/svg">
<path d="M27.3167 20.9801C26.3307 19.0079 26.0822 16.7438 26.617 14.6047C27.3631 11.6204 27.7413 8.54756 27.7413 5.47151V2.02111H26.2424V5.47151C26.2424 8.42503 25.8792 11.3758 25.1627 14.2413C24.5412 16.7271 24.8301 19.3584 25.9761 21.6504L27.265 24.2284C27.9034 25.5051 28.2408 26.9344 28.2408 28.362V30H29.7396V28.362C29.7396 26.703 29.3474 25.0417 28.6055 23.558L27.3167 20.9801Z" fill="currentcolor"/>
<path d="M3.75937 28.362C3.75937 26.9344 4.09674 25.5051 4.73513 24.2284L6.02404 21.6504C7.17005 19.3583 7.45883 16.7271 6.83742 14.2413C6.12109 11.3758 5.75774 8.42515 5.75774 5.47151V2.02111H4.25887V5.47151C4.25887 8.54756 4.63708 11.6205 5.38314 14.6047C5.91799 16.7438 5.66943 19.0079 4.68342 20.9801L3.39452 23.558C2.65258 25.0417 2.26038 26.703 2.26038 28.362V30H3.75925L3.75937 28.362Z" fill="currentcolor"/>
<path d="M13.7518 2.02111V2H12.253V2.02111C12.253 4.36284 10.3479 6.2679 8.00617 6.2679V7.76677C11.1743 7.76677 13.7518 5.18922 13.7518 2.02111Z" fill="currentcolor"/>
<path d="M23.9941 6.2679C21.6524 6.2679 19.7473 4.36284 19.7473 2.02111V2H18.2484V2.02111C18.2484 5.18922 20.826 7.76677 23.9941 7.76677V6.2679Z" fill="currentcolor"/>
<path d="M18.2484 19.4868C18.2484 18.2471 17.2398 17.2385 16.0001 17.2385C14.7604 17.2385 13.7518 18.2471 13.7518 19.4868C13.7518 20.7265 14.7604 21.7351 16.0001 21.7351C17.2398 21.7351 18.2484 20.7265 18.2484 19.4868ZM16.0001 20.2362C15.5868 20.2362 15.2507 19.9001 15.2507 19.4868C15.2507 19.0735 15.5868 18.7374 16.0001 18.7374C16.4134 18.7374 16.7496 19.0735 16.7496 19.4868C16.7496 19.9001 16.4134 20.2362 16.0001 20.2362Z" fill="currentcolor"/>
<path d="M16.0001 24.7447H16.4998V23.2458H16.0001C13.9339 23.2458 12.253 21.5649 12.253 19.4987V18.999H10.7541V19.4987C10.7541 22.3914 13.1074 24.7447 16.0001 24.7447Z" fill="currentcolor"/>
<path d="M21.2462 19.9983V19.4987C21.2462 16.606 18.8928 14.2526 16.0001 14.2526H15.5005V15.7515H16.0001C18.0663 15.7515 19.7473 17.4325 19.7473 19.4987V19.9983H21.2462Z" fill="currentcolor"/>
</svg>
