<svg width="32" height="32" viewBox="0 0 32 32" fill="none" xmlns="http://www.w3.org/2000/svg">
<path d="M21 14.7452V16.246C22.9566 16.2904 23.97 16.7234 25.0379 17.1809C26.2545 17.7024 27.5128 18.2415 30 18.2415V16.7415C27.8205 16.7415 26.7559 16.2852 25.6286 15.8021C24.4678 15.3045 23.2681 14.7914 21 14.7452Z" fill="currentcolor"/>
<path d="M9.25 18.4999L10.75 18.5001L10.7511 9.75H6.001C5.31175 9.75 4.751 9.18925 4.751 8.5C4.751 7.81075 5.31175 7.25 6.001 7.25H13.2499V13.9014L14.9198 15.0146C16.132 15.8228 17.5429 16.25 18.9999 16.25V14.75C17.84 14.75 16.7169 14.4099 15.7519 13.7666L14.7499 13.0986V5.75H6.00113C4.48475 5.75 3.25113 6.98363 3.25113 8.5C3.25113 10.0164 4.48475 11.25 6.00113 11.25H9.251L9.25 18.4999Z" fill="currentcolor"/>
<path d="M7.75 15.5C7.75 13.9836 6.51638 12.75 5 12.75C3.48363 12.75 2.25 13.9836 2.25 15.5C2.25 17.0164 3.48363 18.25 5 18.25C6.51638 18.25 7.75 17.0164 7.75 15.5ZM3.75 15.5C3.75 14.8108 4.31075 14.25 5 14.25C5.68925 14.25 6.25 14.8108 6.25 15.5C6.25 16.1892 5.68925 16.75 5 16.75C4.31075 16.75 3.75 16.1892 3.75 15.5Z" fill="currentcolor"/>
<path d="M20.6665 22.75C18.1793 22.75 16.921 23.2891 15.7044 23.8106C14.5771 24.2936 13.5125 24.75 11.333 24.75C9.1535 24.75 8.08913 24.2938 6.96188 23.8106C5.74525 23.2891 4.48713 22.75 2 22.75V24.25C4.17938 24.25 5.24388 24.7062 6.37113 25.1894C7.58775 25.7109 8.84588 26.25 11.333 26.25C13.8201 26.25 15.0785 25.7109 16.2951 25.1894C17.4224 24.7064 18.487 24.25 20.6665 24.25C22.846 24.25 23.9106 24.7062 25.0379 25.1894C26.2545 25.7109 27.5128 26.25 30 26.25V24.75C27.8205 24.75 26.7559 24.2938 25.6286 23.8106C24.412 23.2891 23.1538 22.75 20.6665 22.75Z" fill="currentcolor"/>
<path d="M15.7044 19.8106C15.0974 20.0708 14.5069 20.3224 13.7523 20.5C13.1056 20.6521 12.3389 20.75 11.3331 20.75C10.3274 20.75 9.56075 20.6521 8.91413 20.5C8.17538 20.3263 7.59375 20.0812 7.00013 19.827V21.4536C7.03863 21.4692 7.07738 21.4846 7.11638 21.5001C8.14088 21.9051 9.34375 22.2501 11.3331 22.2501C13.3225 22.2501 14.5256 21.9051 15.5501 21.5001C15.8065 21.3988 16.0518 21.2939 16.2953 21.1895C16.5293 21.0893 16.761 20.9904 17.0001 20.8964C17.3814 20.7464 17.7838 20.6094 18.2475 20.5002C18.8941 20.3481 19.6609 20.2502 20.6666 20.2502C20.7814 20.2502 20.8914 20.2523 21.0001 20.2546C22.9568 20.299 23.9701 20.732 25.038 21.1895C26.2546 21.711 27.5129 22.2501 30.0001 22.2501V20.7501C27.8206 20.7501 26.756 20.2939 25.6288 19.8107C24.4679 19.3131 23.2683 18.7999 21.0001 18.7537C20.8911 18.7515 20.7806 18.75 20.6666 18.75C18.1794 18.75 16.921 19.2891 15.7044 19.8106Z" fill="currentcolor"/>
</svg>
