<svg width="32" height="32" viewBox="0 0 32 32" fill="none" xmlns="http://www.w3.org/2000/svg">
<path d="M13.4999 13.0001H12.4999V19.0001H13.4999V13.0001Z" fill="currentcolor"/>
<path d="M16.4999 15.0001H15.4999V19.0001H16.4999V15.0001Z" fill="currentcolor"/>
<path d="M19.4999 17.0001H18.4999V19.0001H19.4999V17.0001Z" fill="currentcolor"/>
<path d="M3.99988 23.0734V24.25C7.51787 26.355 11.704 27.5001 15.9669 27.5001C20.2599 27.5001 24.4746 26.3382 28.008 24.2049V23.0261C24.5286 25.2716 20.2909 26.5001 15.9669 26.5001C11.6734 26.5001 7.46525 25.2887 3.99988 23.0734Z" fill="currentcolor"/>
<path d="M27.9821 8.95762V7.77962C24.4541 5.65612 20.2494 4.50012 15.9669 4.50012C11.6844 4.50012 7.51137 5.64712 3.99175 7.75525V8.93212C7.45875 6.7135 11.6701 5.50012 15.9669 5.50012C20.2636 5.50012 24.5075 6.72262 27.9821 8.95762Z" fill="currentcolor"/>
<path d="M27.4336 12.2501C24.5582 9.37475 20.7894 7.71812 16.7531 7.53787C16.494 7.514 16.2321 7.50012 15.967 7.50012C15.6581 7.50012 15.3534 7.51775 15.053 7.55C11.1021 7.78087 7.42 9.4285 4.5985 12.2501L2 14.8486V17.1985L4.5985 19.797C7.64813 22.8467 11.703 24.5262 16.0161 24.5262C20.3293 24.5262 24.3839 22.8466 27.4338 19.797L30 17.2307V14.8165L27.4338 12.2502L27.4336 12.2501ZM23.467 16.0001C23.467 20.1356 20.1025 23.5001 15.967 23.5001C11.8315 23.5001 8.467 20.1356 8.467 16.0001C8.467 12.143 11.3941 8.95787 15.1434 8.54625C15.4329 8.52987 15.7238 8.52075 16.016 8.52075C16.2457 8.52075 16.4745 8.5265 16.7026 8.53662C20.4941 8.9075 23.467 12.1129 23.467 16.0001ZM5.3055 19.0896L2.23938 16.0234L5.3055 12.9571C6.77962 11.483 8.50463 10.3511 10.3836 9.59925C8.59825 11.1586 7.467 13.449 7.467 16C7.467 18.5985 8.64025 20.927 10.4835 22.4874C8.56575 21.7359 6.80587 20.5899 5.3055 19.0895V19.0896ZM26.7266 19.0896C25.1805 20.6357 23.3588 21.8055 21.3725 22.555C23.2613 20.9947 24.4669 18.6355 24.4669 16.0001C24.4669 13.4094 23.3004 11.0871 21.4666 9.52687C23.4164 10.2776 25.2048 11.4356 26.7265 12.9572L29.7926 16.0235L26.7265 19.0897L26.7266 19.0896Z" fill="currentcolor"/>
</svg>
