<svg width="32" height="32" viewBox="0 0 32 32" fill="none" xmlns="http://www.w3.org/2000/svg">
<path d="M8.53605 4.65012C8.41574 4.52969 8.39882 4.38884 8.39952 4.31567C8.40022 4.24262 8.41983 4.10223 8.54282 3.98367C8.62521 3.90432 8.7363 3.86534 8.85125 3.86534C8.98556 3.86534 9.12525 3.91879 9.22946 4.02311L10.8465 5.64132L12.1669 4.32127L10.5501 2.70329C9.6387 1.79155 8.15738 1.76296 7.24762 2.63899C6.79251 3.07742 6.53859 3.66661 6.53263 4.29805C6.52657 4.9296 6.76906 5.52334 7.21565 5.97005L8.86607 7.62152L10.1865 6.30147L8.53629 4.65023L8.53605 4.65012Z" fill="currentcolor"/>
<path d="M4.46713 9.32935C4.34822 9.21032 4.3306 9.07146 4.3306 8.99934C4.3306 8.92722 4.34845 8.78812 4.46748 8.66921C4.5864 8.55041 4.72515 8.53267 4.79738 8.53267C4.86961 8.53267 5.0086 8.55053 5.12739 8.66956L6.44733 9.99031L7.76773 8.67014L6.44803 7.34962C5.53828 6.43917 4.05765 6.43858 3.14743 7.34857C2.23709 8.25821 2.23663 9.73883 3.14626 10.6492L4.46667 11.9705L5.78707 10.6503L4.4669 9.32935H4.46713Z" fill="currentcolor"/>
<path d="M7.76727 11.3109L8.75707 12.3015C8.87599 12.4205 8.89361 12.5594 8.89361 12.6315C8.89361 12.7036 8.87587 12.8426 8.75684 12.9614C8.57456 13.1434 8.27851 13.1434 8.09681 12.9614L7.10736 11.9713L5.78684 13.2913L6.77618 14.2812C7.21693 14.7221 7.80298 14.965 8.42636 14.9653H8.42706C9.05021 14.9653 9.63602 14.7226 10.0768 14.2821C10.5178 13.8415 10.7608 13.2554 10.761 12.6319C10.7612 12.0086 10.5186 11.4225 10.0779 10.9814L9.08779 9.99066L7.76727 11.3109Z" fill="currentcolor"/>
<path d="M21.8145 8.94204L20.4941 7.62199L18.9601 9.15711C18.255 9.86265 17.8669 10.8004 17.8672 11.7978L17.871 27.6198C17.871 27.8934 17.6615 28.1284 17.4135 28.133C17.4105 28.133 17.4073 28.133 17.4043 28.133C17.2385 28.133 17.1285 28.0497 17.0773 27.9994C17.025 27.9482 16.9374 27.8367 16.9374 27.6663L16.9337 11.7978C16.9333 10.5511 17.4184 9.37883 18.2998 8.49708L19.834 6.96184L18.5135 5.64167L16.9789 7.17726C16.5985 7.55792 16.2713 7.97744 16 8.42648C15.7287 7.97744 15.4015 7.55792 15.021 7.17726L13.4865 5.64167L12.1661 6.96184L13.7003 8.49708C14.5817 9.37895 15.0668 10.5513 15.0664 11.7979L15.0627 27.6663C15.0627 27.8367 14.975 27.948 14.9228 27.9994C14.8706 28.0505 14.7552 28.1387 14.5867 28.1329C14.3386 28.1283 14.129 27.8932 14.1291 27.6197L14.1329 11.7978C14.1332 10.8003 13.7451 9.86253 13.0401 9.15699L11.5059 7.62187L10.1855 8.94192L11.7195 10.4768C12.072 10.8295 12.266 11.2983 12.2659 11.7971L12.2621 27.6191C12.2618 28.9082 13.289 29.9761 14.552 29.9996C14.567 29.9999 14.5818 30 14.5967 30C15.1101 30 15.5969 29.8334 16.0001 29.528C16.4033 29.8334 16.8901 30 17.4035 30C17.4184 30 17.4333 30 17.4483 29.9996C18.7112 29.9761 19.7384 28.9081 19.7381 27.6191L19.7343 11.7971C19.7343 11.2983 19.9282 10.8295 20.2808 10.4768L21.8147 8.94192L21.8145 8.94204Z" fill="currentcolor"/>
<path d="M22.7709 4.023C22.9645 3.82963 23.2788 3.81155 23.4575 3.98355C23.5805 4.10212 23.6001 4.2425 23.6008 4.31555C23.6015 4.38872 23.5846 4.52957 23.4641 4.65L21.8141 6.30123L23.1345 7.62129L24.7848 5.96982C25.2313 5.52311 25.4737 4.92937 25.4678 4.29781C25.4618 3.66638 25.2079 3.07718 24.7528 2.63876C23.8435 1.76261 22.3618 1.79132 21.4503 2.70306L19.8334 4.32104L21.1538 5.64121L22.771 4.023H22.7709Z" fill="currentcolor"/>
<path d="M28.8526 7.34869C27.9425 6.43893 26.4618 6.43952 25.5519 7.34974L24.2323 8.67026L25.5527 9.99043L26.8726 8.66967C26.9916 8.55065 27.1305 8.53279 27.2027 8.53279C27.2749 8.53279 27.4138 8.55053 27.5326 8.66932C27.6516 8.78835 27.6695 8.92722 27.6695 8.99945C27.6695 9.07169 27.6519 9.21056 27.5328 9.32947L26.2129 10.6503L26.3463 10.7836H26.3462L27.5332 11.9706L28.8536 10.6494C29.7633 9.73907 29.7629 8.25844 28.8525 7.3488L28.8526 7.34869Z" fill="currentcolor"/>
<path d="M23.9036 12.9612C23.7216 13.1434 23.4254 13.1434 23.2435 12.9615C23.1244 12.8425 23.1067 12.7036 23.1067 12.6315C23.1067 12.5594 23.1243 12.4204 23.2434 12.3015L24.2332 11.3111L22.9128 9.99089L21.9227 10.9816C21.4821 11.4226 21.2395 12.0088 21.2396 12.6322C21.2396 13.2557 21.4828 13.8416 21.9238 14.2824C22.3644 14.7228 22.9503 14.9655 23.5735 14.9655H23.5742C24.1976 14.9653 24.7835 14.7223 25.2245 14.2814L26.2137 13.2915L24.8933 11.9714L23.9037 12.9616L23.9036 12.9612Z" fill="currentcolor"/>
</svg>
