<svg width="32" height="32" viewBox="0 0 32 32" fill="none" xmlns="http://www.w3.org/2000/svg">
<path d="M13.1595 28.7872L13.1729 28.8001C13.8373 29.4133 14.6958 29.7456 15.5855 29.7456C15.7502 29.7456 15.916 29.7341 16.0816 29.7111C17.1428 29.5633 18.072 28.9541 18.6361 28.0308L27.7347 12.4363H26.5559L17.762 27.5089C17.3628 28.1621 16.6991 28.5972 15.9411 28.7027C15.1855 28.8082 14.4315 28.5729 13.8698 28.0579L2 16.2715V17.7065L13.1595 28.7872Z" fill="currentcolor"/>
<path d="M25.4182 2.25439H25.246C23.5992 2.25439 22.0717 3.14441 21.2627 4.57203L14.0098 17.018H15.1882L22.1456 5.07922C22.7771 3.96481 23.9651 3.27258 25.246 3.27258H25.4182C27.3831 3.27258 28.9818 4.87125 28.9818 6.83622H30C30 4.30972 27.9447 2.25439 25.4182 2.25439Z" fill="currentcolor"/>
<path d="M13.2 23.1271V23.6362C13.2 24.759 14.1136 25.6726 15.2364 25.6726C16.3592 25.6726 17.2727 24.759 17.2727 23.6362V23.1271H16.2546V23.6362C16.2546 24.1976 15.7978 24.6544 15.2364 24.6544C14.675 24.6544 14.2182 24.1976 14.2182 23.6362V23.1271H13.2Z" fill="currentcolor"/>
<path d="M7.25217 15.2907C7.62291 14.2948 7.27673 13.1361 6.35515 12.5217L2 10.095V11.2603L5.80584 13.3793C6.40173 13.7887 6.56044 14.6049 6.15826 15.2083L5.85751 15.6597L15.7455 21.3843V20.2078L7.25217 15.2907Z" fill="currentcolor"/>
</svg>
