<svg width="32" height="32" viewBox="0 0 32 32" fill="none" xmlns="http://www.w3.org/2000/svg">
<path d="M8.27553 22.8557V20.3868C5.17658 22.5735 3.03796 26.0339 2.62846 30H4.57216C4.91299 27.1812 6.27437 24.6723 8.27553 22.8557Z" fill="currentcolor"/>
<path d="M27.4643 30H29.4079C28.9969 26.0181 26.8425 22.5462 23.7238 20.361V22.8226C25.7451 24.6417 27.1213 27.1638 27.4643 29.9999V30Z" fill="currentcolor"/>
<path d="M27.5865 11.6572C27.5865 12.2869 27.1823 12.8224 26.6204 13.0214V15.0017C28.2559 14.7672 29.5175 13.3571 29.5175 11.6572C29.5175 9.95731 28.2561 8.54729 26.6204 8.31279V10.2931C27.1823 10.4922 27.5865 11.0277 27.5865 11.6572Z" fill="currentcolor"/>
<path d="M4.41346 11.6572C4.41346 11.0276 4.81777 10.4921 5.37958 10.2931V8.31279C3.74387 8.54729 2.48242 9.95731 2.48242 11.6572C2.48242 13.3571 3.74387 14.7673 5.37958 15.0017V13.0214C4.81765 12.8222 4.41346 12.2867 4.41346 11.6572Z" fill="currentcolor"/>
<path d="M24.8462 7.7931C24.0176 5.90226 22.6003 4.32726 20.8272 3.29898C19.4059 2.47467 17.7576 2 15.9997 2C12.0485 2 8.64604 4.38664 7.15311 7.7931C6.63439 8.97671 6.34449 10.2823 6.34449 11.6552C6.34449 13.028 6.63439 14.3336 7.15311 15.5172C7.45387 16.2036 7.83078 16.8493 8.27553 17.4416C10.0384 19.7891 12.8446 21.3103 15.9997 21.3103C19.1547 21.3103 21.9609 19.7891 23.7238 17.4416C24.1687 16.8494 24.5455 16.2036 24.8462 15.5172C25.3649 14.3336 25.6548 13.028 25.6548 11.6552C25.6548 10.2823 25.3649 8.97671 24.8462 7.7931ZM22.385 15.9959C20.9933 18.0365 18.6506 19.3793 15.9997 19.3793C13.3487 19.3793 11.006 18.0366 9.61434 15.9959C8.77011 14.7579 8.27553 13.2634 8.27553 11.6552C8.27553 8.75259 9.88565 6.21991 12.2589 4.90041C12.1797 5.20793 12.1376 5.53017 12.1376 5.86207C12.1376 7.99164 13.8701 9.72414 15.9997 9.72414C17.7959 9.72414 19.3097 8.49141 19.7395 6.82759H17.6694C17.3349 7.40376 16.7126 7.7931 15.9997 7.7931C14.9349 7.7931 14.0686 6.92679 14.0686 5.86207C14.0686 4.79734 14.9349 3.93103 15.9997 3.93103C17.8252 3.93103 19.5038 4.569 20.8272 5.63191C22.5915 7.04881 23.7238 9.22171 23.7238 11.6552C23.7238 13.2634 23.2292 14.758 22.385 15.9959Z" fill="currentcolor"/>
</svg>
