<svg width="32" height="32" viewBox="0 0 32 32" fill="none" xmlns="http://www.w3.org/2000/svg">
<path d="M3.95815 15.1061L2 25.8297H3.98203L5.94018 15.1061H3.95815Z" fill="currentcolor"/>
<path d="M27.9345 15.1061H26.1259L28.0273 25.8297H30L27.9345 15.1061Z" fill="currentcolor"/>
<path d="M22.4437 15.1061L18.5388 19.0056H16.9956L17.0033 15.6509L21.8656 12.7334V5.78029L16.0163 2.27075L10.1671 5.78029V12.7334L15.0535 15.6654L15.046 19.0056H13.4956L9.59607 15.1061H7.79768L5.3605 29.7292H7.33717L9.35504 17.6224L12.1317 20.3991V26.8046H19.9307V20.3712L22.6999 17.6058L24.6968 29.7292H26.6728L25.8098 24.4896L24.1459 15.1061H22.4437ZM12.1167 6.88421L16.0162 4.54452L19.9157 6.88421V11.6295L16.0162 13.9692L12.1167 11.6295V6.88421ZM14.0813 24.8549V20.9554H16.0162L16.9911 20.9576V20.9554H17.966L17.9808 20.9702V24.8549H14.0813Z" fill="currentcolor"/>
</svg>
