<svg width="32" height="32" viewBox="0 0 32 32" fill="none" xmlns="http://www.w3.org/2000/svg">
<path d="M5.11251 18.3839C4.33081 18.8351 3.77165 19.5638 3.538 20.4357C3.30434 21.3077 3.42431 22.2184 3.87556 23C4.80729 24.6136 6.87796 25.1687 8.49182 24.2369C9.25844 23.7944 9.81953 23.067 10.0566 22.2187L11.2959 21.503C11.9714 22.0802 12.7523 22.5317 13.5861 22.8274V24.2564C12.97 24.8858 12.6206 25.7356 12.6206 26.6207C12.6206 28.484 14.1366 30 15.9999 30C17.8633 30 19.3792 28.484 19.3792 26.6207C19.3792 25.736 19.0302 24.8867 18.4147 24.2573V22.8271C19.2479 22.5316 20.0285 22.0802 20.7038 21.503L21.9432 22.2187C22.1802 23.0669 22.7414 23.7944 23.508 24.2369C25.1219 25.1687 27.1926 24.6136 28.1243 23C28.5757 22.2183 28.6955 21.3077 28.4619 20.4357C28.2282 19.5638 27.669 18.8351 26.8873 18.3839C26.1212 17.9415 25.2108 17.819 24.3583 18.0375L23.1189 17.3219C23.2002 16.8844 23.2412 16.4411 23.2412 16C23.2412 15.5589 23.2 15.1149 23.1187 14.6771L24.3568 13.9623C25.2099 14.1807 26.1206 14.0587 26.8872 13.6163C28.501 12.6845 29.0558 10.6137 28.1242 9C27.6729 8.21829 26.9442 7.65914 26.0723 7.42548C25.2002 7.19171 24.2896 7.31179 23.508 7.76317C22.7419 8.2055 22.1808 8.93241 21.9436 9.78014L20.7031 10.4964C20.0279 9.91965 19.2476 9.46828 18.4147 9.17307V7.74266C19.0302 7.11338 19.3792 6.26409 19.3792 5.37931C19.3792 3.51598 17.8633 2 15.9999 2C14.1366 2 12.6206 3.51598 12.6206 5.37931C12.6206 6.26457 12.97 7.11434 13.5861 7.74374V9.17271C12.7529 9.46803 11.9722 9.91941 11.2968 10.4964L10.0562 9.78014C9.81893 8.93253 9.25796 8.2055 8.49182 7.76317C7.71012 7.31191 6.79963 7.19195 5.92753 7.42548C5.05567 7.65914 4.32694 8.21829 3.87556 9C2.94396 10.6137 3.49877 12.6845 5.11251 13.6163C5.87889 14.0588 6.7895 14.181 7.64277 13.9623L8.88093 14.6771C8.79958 15.1149 8.75843 15.5585 8.75843 16C8.75843 16.4415 8.79946 16.8844 8.88068 17.3219L7.64132 18.0375C6.78829 17.8188 5.87841 17.9413 5.11227 18.3839H5.11251ZM9.978 17.8032L9.89508 17.4536C9.78163 16.9749 9.72406 16.4858 9.72406 16C9.72406 15.5142 9.78175 15.0245 9.89532 14.5456L9.97836 14.1958L7.76044 12.9153L7.55539 12.9826C6.90331 13.1967 6.1887 13.1226 5.59527 12.7802C4.44269 12.1146 4.04634 10.6355 4.7117 9.48288C5.03406 8.92457 5.5546 8.52509 6.17748 8.35829C6.80012 8.19114 7.45063 8.27695 8.00906 8.59943C8.60225 8.94195 9.02322 9.52331 9.16419 10.1947L9.20848 10.4057L11.4289 11.6878L11.6903 11.4405C12.403 10.7667 13.2731 10.2636 14.2066 9.98579L14.5517 9.88296V7.32205L14.3909 7.17819C13.8794 6.72029 13.5861 6.06471 13.5861 5.37943C13.5861 4.04847 14.669 2.96564 15.9999 2.96564C17.3309 2.96564 18.4137 4.04847 18.4137 5.37943C18.4137 6.06434 18.1207 6.71969 17.6098 7.17734L17.4492 7.32121V9.88321L17.7941 9.98603C18.7271 10.264 19.597 10.7669 20.3094 11.4405L20.5709 11.6878L22.7913 10.4057L22.8355 10.1947C22.9765 9.52343 23.3976 8.94195 23.9907 8.59943C24.5491 8.27719 25.1997 8.19126 25.8223 8.35829C26.445 8.52521 26.9655 8.92457 27.2879 9.48288C27.9534 10.6356 27.557 12.1148 26.4045 12.7802C25.811 13.1228 25.0967 13.1969 24.4443 12.9826L24.2393 12.9153L22.0214 14.1958L22.1044 14.5456C22.2181 15.0245 22.2757 15.5137 22.2757 16C22.2757 16.4863 22.2181 16.9749 22.1047 17.4536L22.0217 17.8032L24.2405 19.0842L24.4454 19.017C25.0974 18.8034 25.8114 18.8772 26.4046 19.2199C26.9629 19.5422 27.3624 20.0628 27.5292 20.6857C27.6961 21.3084 27.6104 21.9589 27.288 22.5172C26.6227 23.6699 25.1435 24.0663 23.9908 23.4008C23.3974 23.0581 22.9762 22.4763 22.8354 21.8044L22.7911 21.5932L20.5715 20.3118L20.3101 20.5591C19.5977 21.233 18.7276 21.7361 17.7941 22.0142L17.4492 22.117V24.6788L17.6098 24.8227C18.1207 25.2806 18.4137 25.936 18.4137 26.6207C18.4137 27.9517 17.3309 29.0345 15.9999 29.0345C14.669 29.0345 13.5861 27.9517 13.5861 26.6207C13.5861 25.9354 13.8794 25.2799 14.3909 24.8221L14.5517 24.6782V22.1173L14.2067 22.0144C13.2727 21.7364 12.4024 21.2331 11.6897 20.5591L11.4282 20.3118L9.2086 21.5932L9.16431 21.8044C9.02346 22.4762 8.60238 23.0581 8.00894 23.4008C6.85636 24.0662 5.37719 23.6698 4.71158 22.5172C4.38922 21.9589 4.30365 21.3084 4.47044 20.6857C4.63724 20.0629 5.03672 19.5422 5.59503 19.2199C6.1881 18.8772 6.9021 18.8034 7.55406 19.017L7.759 19.0842L9.97775 17.8032H9.978Z" fill="currentcolor"/>
<path d="M16.0258 19.4219C17.8891 19.4219 19.4051 17.9059 19.4051 16.0426C19.4051 14.1793 17.8891 12.6633 16.0258 12.6633C14.1624 12.6633 12.6464 14.1793 12.6464 16.0426C12.6464 17.9059 14.1624 19.4219 16.0258 19.4219ZM16.0258 13.6288C17.3567 13.6288 18.4395 14.7116 18.4395 16.0426C18.4395 17.3736 17.3567 18.4564 16.0258 18.4564C14.6948 18.4564 13.612 17.3736 13.612 16.0426C13.612 14.7116 14.6948 13.6288 16.0258 13.6288Z" fill="currentcolor"/>
</svg>
