<svg width="32" height="32" viewBox="0 0 32 32" fill="none" xmlns="http://www.w3.org/2000/svg">
<path d="M26.6207 2.48279C24.9213 2.48279 23.5114 3.74387 23.2764 5.37934H18.4138V3.44831H13.5862V5.37934H8.72362C8.48864 3.74387 7.07874 2.48279 5.37931 2.48279C3.51598 2.48279 2 3.99877 2 5.8621C2 7.72543 3.51598 9.24141 5.37931 9.24141C7.07874 9.24141 8.48864 7.98032 8.72362 6.34486H13.5862V8.27589H18.4138V6.34486H23.2764C23.5114 7.98032 24.9213 9.24141 26.6207 9.24141C28.484 9.24141 30 7.72543 30 5.8621C30 3.99877 28.484 2.48279 26.6207 2.48279ZM5.37931 8.27589C4.04834 8.27589 2.96552 7.19306 2.96552 5.8621C2.96552 4.53113 4.04834 3.44831 5.37931 3.44831C6.71028 3.44831 7.7931 4.53113 7.7931 5.8621C7.7931 7.19306 6.71028 8.27589 5.37931 8.27589ZM17.4483 7.31037H14.5517V4.41382H17.4483V7.31037ZM26.6207 8.27589C25.2897 8.27589 24.2069 7.19306 24.2069 5.8621C24.2069 4.53113 25.2897 3.44831 26.6207 3.44831C27.9517 3.44831 29.0345 4.53113 29.0345 5.8621C29.0345 7.19306 27.9517 8.27589 26.6207 8.27589Z" fill="currentcolor"/>
<path d="M15.4422 10.6897L5.37931 28.071V29.5173H26.6207V28.071L16.5578 10.6897H15.4422ZM6.21666 28.5518L16 11.6532L25.7833 28.5518H6.21666Z" fill="currentcolor"/>
</svg>
