<svg width="32" height="32" viewBox="0 0 32 32" fill="none" xmlns="http://www.w3.org/2000/svg">
<path d="M21.636 5.02703H19.7838V3.51351H27.3514V16.8829H28.8649V2H18.2703V5.02703H16.4181L15.0308 10.5766H23.0232L21.636 5.02703ZM16.9693 9.06306L17.5999 6.54054H20.4543L21.0849 9.06306H16.9693Z" fill="currentcolor"/>
<path d="M27.3514 23.9459C27.3514 25.1977 26.3329 26.2162 25.0811 26.2162H6.91896C5.66716 26.2162 4.64869 25.1977 4.64869 23.9459V21.9279H3.13517V23.9459C3.13517 26.0323 4.83258 27.7297 6.91896 27.7297H8.18022V30H9.69373V27.7297H22.3063V30H23.8199V27.7297H25.0811C27.1675 27.7297 28.8649 26.0323 28.8649 23.9459V21.9279H27.3514V23.9459Z" fill="currentcolor"/>
<path d="M2.37842 18.1441V19.6577H29.6217V18.1441H2.37842Z" fill="currentcolor"/>
<path d="M19.7838 11.8378H18.2703V13.8559H19.7838V11.8378Z" fill="currentcolor"/>
<path d="M19.7838 14.8649H18.2703V16.8829H19.7838V14.8649Z" fill="currentcolor"/>
<path d="M15.7478 14.8649H14.2343V16.8829H15.7478V14.8649Z" fill="currentcolor"/>
<path d="M23.8199 14.8649H22.3063V16.8829H23.8199V14.8649Z" fill="currentcolor"/>
</svg>
