<svg width="32" height="32" viewBox="0 0 32 32" fill="none" xmlns="http://www.w3.org/2000/svg">
<path d="M25.1747 12.1687H18.0474V13.696H25.1747C26.9993 13.696 28.4838 15.1805 28.4838 17.0051V28.4727H3.51629V17.0051C3.51629 15.5274 4.48992 14.2733 5.82921 13.8495V12.2724C3.63885 12.7329 1.98901 14.6798 1.98901 17.0051V30H30.011V17.0051C30.011 14.3383 27.8414 12.1687 25.1747 12.1687Z" fill="currentcolor"/>
<path d="M26.9565 5.81818C26.9565 3.71284 25.2437 2 23.1383 2C21.033 2 19.3201 3.71284 19.3201 5.81818C19.3201 7.92353 21.033 9.63636 23.1383 9.63636C25.2437 9.63636 26.9565 7.92353 26.9565 5.81818ZM20.8474 5.81818C20.8474 4.555 21.8751 3.52727 23.1383 3.52727C24.4015 3.52727 25.4292 4.555 25.4292 5.81818C25.4292 7.08136 24.4015 8.10909 23.1383 8.10909C21.8751 8.10909 20.8474 7.08136 20.8474 5.81818Z" fill="currentcolor"/>
<path d="M20.5895 21.8545H20.5918C22.4159 21.8545 23.8998 20.3705 23.8998 18.5443C23.8998 16.7181 22.4158 15.2364 20.5895 15.2364C18.7633 15.2364 17.2816 16.7204 17.2816 18.5466C17.2816 20.3728 18.7656 21.8545 20.5895 21.8545ZM20.5918 16.7636C21.5737 16.7636 22.3725 17.5624 22.3725 18.5466C22.3725 19.5308 21.5737 20.3273 20.5918 20.3273H20.5895C19.6076 20.3273 18.8089 19.5285 18.8089 18.5443C18.8089 17.5601 19.6076 16.7636 20.5918 16.7636Z" fill="currentcolor"/>
<path d="M7.10194 12.9471C7.10194 13.6737 7.26409 14.3629 7.55249 14.9818C8.32223 16.6336 9.9974 17.7818 11.9367 17.7818H11.9398C13.8786 17.7818 15.5535 16.6342 16.3235 14.9818C16.6123 14.3621 16.7747 13.6719 16.7747 12.9438C16.7747 12.2157 16.6125 11.528 16.324 10.9091C15.5541 9.25735 13.8782 8.10909 11.9367 8.10909C9.99511 8.10909 8.323 9.25671 7.553 10.9091C7.26421 11.5288 7.10194 12.219 7.10194 12.9471ZM11.94 9.63636C12.9966 9.63636 13.9381 10.1349 14.5441 10.9091C14.9841 11.4713 15.2474 12.1785 15.2474 12.9471C15.2474 13.7157 14.9843 14.4203 14.5446 14.9818C13.9387 15.7558 12.9967 16.2545 11.94 16.2545H11.9368C10.8802 16.2545 9.9386 15.756 9.33265 14.9818C8.89267 14.4197 8.62934 13.7124 8.62934 12.9438C8.62934 12.1752 8.89241 11.4706 9.3324 10.9091C9.9386 10.1351 10.8812 9.63636 11.94 9.63636Z" fill="currentcolor"/>
</svg>
