<svg width="32" height="32" viewBox="0 0 32 32" fill="none" xmlns="http://www.w3.org/2000/svg">
<path d="M28.4727 24.1625C28.4727 24.8643 27.9018 25.4352 27.2 25.4352H4.80011C4.09834 25.4352 3.52739 24.8643 3.52739 24.1625V22.1218H2.00013V24.1625C2.00013 25.7065 3.25618 26.9625 4.80011 26.9625H27.2C28.7439 26.9625 30 25.7065 30 24.1625V22.1218H28.4727V24.1625Z" fill="currentcolor"/>
<path d="M3.77023 19.9051C4.92942 21.1155 6.5594 21.8716 8.36373 21.8716C11.8726 21.8716 14.7273 19.0169 14.7273 15.508C14.7273 15.1266 14.6917 14.7535 14.6271 14.3904L15.3769 13.9573C15.7697 13.7308 16.2574 13.7305 16.6498 13.9573L17.3755 14.3763C17.3092 14.7439 17.2727 15.1216 17.2727 15.5081C17.2727 19.017 20.1274 21.8717 23.6363 21.8717C25.4484 21.8717 27.0847 21.1091 28.2448 19.8896C29.3311 18.7476 29.9999 17.2051 29.9999 15.5081C29.9999 15.3352 29.991 15.1643 29.9773 14.9947C29.7363 11.993 27.4045 9.57369 24.4424 9.19735L18.4181 5.68324C16.9263 4.82186 15.0731 4.82199 13.5788 5.68502L7.55747 9.19748C4.42797 9.5952 2 12.2726 2 15.5083C2 15.678 2.00865 15.8457 2.02176 16.0121C2.14038 17.5171 2.784 18.8758 3.7701 19.9054L3.77023 19.9051ZM28.4727 15.508C28.4727 18.1747 26.3031 20.3444 23.6364 20.3444C20.9697 20.3444 18.8001 18.1747 18.8001 15.508C18.8001 12.8413 20.9697 10.6717 23.6364 10.6717C26.3031 10.6717 28.4727 12.8413 28.4727 15.508ZM14.3455 7.00572C15.3659 6.41607 16.6338 6.41633 17.6515 7.00394L21.7904 9.41829C20.0317 9.95246 18.5941 11.2292 17.8421 12.882L17.4134 12.6346C16.5498 12.1359 15.4768 12.1359 14.6132 12.6348L14.1635 12.8946C13.4131 11.2359 11.9728 9.95398 10.2096 9.41842L14.3455 7.00572ZM8.36373 10.6717C11.0305 10.6717 13.2001 12.8413 13.2001 15.508C13.2001 18.1747 11.0305 20.3444 8.36373 20.3444C5.697 20.3444 3.52739 18.1747 3.52739 15.508C3.52739 12.8413 5.697 10.6717 8.36373 10.6717Z" fill="currentcolor"/>
</svg>
