<svg width="32" height="32" viewBox="0 0 32 32" fill="none" xmlns="http://www.w3.org/2000/svg">
<path d="M22.6484 14.7853H21.6649V19.7027H22.6484V14.7853Z" fill="currentcolor"/>
<path d="M28.0575 20.1944H23.1401V21.1779H28.0575V20.1944Z" fill="currentcolor"/>
<path d="M22.6484 21.6697H21.6649V26.5871H22.6484V21.6697Z" fill="currentcolor"/>
<path d="M21.1731 20.1944H16.2557V21.1779H21.1731V20.1944Z" fill="currentcolor"/>
<path d="M14.4245 2H14.191L5.80524 13.5307C3.57777 16.728 3.33006 20.8899 5.1586 24.3926C6.99181 27.9038 10.4129 30 14.31 30V29.0165C10.7861 29.0165 7.69094 27.1178 6.03046 23.9373C4.34686 20.7126 4.56433 17.0324 6.60641 14.101L14.3132 3.50399L21.1976 12.8183H22.4207L14.4245 2Z" fill="currentcolor"/>
</svg>
