<svg width="32" height="32" viewBox="0 0 32 32" fill="none" xmlns="http://www.w3.org/2000/svg">
<path d="M18.035 3.52722C17.2874 3.52722 16.5846 3.81829 16.0561 4.34686C16.0363 4.36671 16.0191 4.38848 15.9999 4.40884C15.9807 4.38848 15.9635 4.36671 15.9436 4.34686C15.4152 3.81817 14.7125 3.52722 13.9654 3.52722H6.0726V22.3636H12.9481V20.8363H7.59987V5.05449H13.9649C14.3045 5.05449 14.6237 5.18673 14.8637 5.42677C15.104 5.66719 15.2364 5.98689 15.2364 6.32735L15.2393 24.1454H16.7666V23.3179C16.7666 22.7916 17.1946 22.3636 17.7209 22.3636H25.9273V3.52722H18.035ZM24.4 20.8363H17.7209C17.3827 20.8363 17.0603 20.9043 16.7662 21.0272L16.7635 6.32722C16.7635 5.98689 16.8959 5.66706 17.1362 5.42677C17.3762 5.1866 17.6954 5.05449 18.035 5.05449H24.4V20.8363Z" fill="currentcolor"/>
<path d="M12.3492 28.4727H19.6507L20.1598 26.4363H30V6.32722H28.4727V24.909H18.9674L18.4583 26.9454H13.5416L13.0325 24.909H3.52727V6.32722H2V26.4363H11.8401L12.3492 28.4727Z" fill="currentcolor"/>
</svg>
