<svg width="32" height="32" viewBox="0 0 32 32" fill="none" xmlns="http://www.w3.org/2000/svg">
<path d="M18.0726 3.55554C17.3804 3.55554 16.7299 3.82504 16.2405 4.31439C16.1522 4.4028 16.0736 4.49808 15.9999 4.59621C15.9261 4.49795 15.8476 4.4028 15.7593 4.31439C15.2701 3.82491 14.6194 3.55554 13.9276 3.55554H6.14802V22.2222H12.8916V21.1852H7.18506V4.59258H13.9272C14.3423 4.59258 14.7325 4.75423 15.026 5.04771C15.3197 5.34158 15.4815 5.73228 15.4815 6.14826L15.4845 24.2963H16.5215V23.4534C16.5215 22.7746 17.0739 22.2222 17.7527 22.2222H25.8519V3.55554H18.0726ZM24.8148 21.1852H17.7527C17.299 21.1852 16.876 21.3191 16.5211 21.5494L16.5184 6.14813C16.5184 5.73228 16.6802 5.34145 16.9739 5.04771C17.2674 4.75423 17.6574 4.59258 18.0726 4.59258H24.8148V21.1852Z" fill="currentcolor"/>
<path d="M12.4841 28.4444H19.5159L20.0345 26.3704H30V6.14813H28.963V25.3333H19.2248L18.7063 27.4074H13.2937L12.7752 25.3333H3.03704V6.14813H2V26.3704H11.9655L12.4841 28.4444Z" fill="currentcolor"/>
</svg>
