<svg width="32" height="32" viewBox="0 0 32 32" fill="none" xmlns="http://www.w3.org/2000/svg">
<path d="M10.7797 2C8.55532 2 6.74576 3.80956 6.74576 6.0339V6.20925C5.88986 6.66283 5.24053 7.45525 4.9769 8.40678H6.49649C6.84673 7.70476 7.57034 7.22034 8.40714 7.22034C9.58456 7.22034 10.5424 8.17827 10.5424 9.35569V9.35593H11.9661V9.35569C11.9661 7.3932 10.3695 5.79661 8.40642 5.79661C8.33037 5.79661 8.25503 5.79981 8.18017 5.80456C8.2968 4.47242 9.41775 3.42373 10.7797 3.42373C12.2189 3.42373 13.3898 4.59463 13.3898 6.0339V15.7198L10.3051 14.0248V15.6494L13.3898 17.3444V25.9661C13.3898 27.4054 12.2189 28.5763 10.7797 28.5763C9.41763 28.5763 8.29656 27.5275 8.18017 26.1951C8.25527 26.1998 8.33085 26.203 8.40714 26.203C10.3695 26.203 11.9661 24.6064 11.9661 22.6441H10.5424C10.5424 23.8215 9.58456 24.7793 8.40642 24.7793C7.57022 24.7793 6.84673 24.295 6.49661 23.5932H4.97702C5.24064 24.5445 5.88986 25.3368 6.74576 25.7904V25.9661C6.74576 28.1904 8.55532 30 10.7797 30C13.004 30 14.8136 28.1904 14.8136 25.9661V6.0339C14.8136 3.80956 13.004 2 10.7797 2Z" fill="currentcolor"/>
<path d="M7.9322 22.3867C8.09095 22.3985 8.25076 22.4065 8.41259 22.4065L8.40666 20.9828C5.6591 20.9828 3.42373 18.7474 3.42373 15.9999C3.42373 13.2523 5.6591 11.0169 8.40666 11.0169H8.41425L8.40666 9.59322C8.24697 9.59322 8.08905 9.60105 7.9322 9.61268C7.05293 9.67746 6.2229 9.91997 5.47722 10.3051C3.41436 11.3705 2 13.5225 2 15.9999C2 18.4773 3.41459 20.6295 5.47971 21.6949C6.22456 22.0792 7.05364 22.3215 7.9322 22.3867Z" fill="currentcolor"/>
<path d="M23.5929 24.7793C22.4154 24.7793 21.4576 23.8215 21.4576 22.6441H20.0339C20.0339 24.6064 21.6305 26.203 23.5936 26.203C23.6696 26.203 23.745 26.1998 23.8198 26.1951C23.7034 27.5275 22.5824 28.5763 21.2203 28.5763C19.7811 28.5763 18.6102 27.4054 18.6102 25.9661V17.3681L21.6949 15.6543V14.0255L18.6102 15.7392V6.0339C18.6102 4.59463 19.7811 3.42373 21.2203 3.42373C22.5823 3.42373 23.7033 4.47242 23.8198 5.80456C23.7447 5.79981 23.6692 5.79661 23.5929 5.79661C21.6305 5.79661 20.0339 7.3932 20.0339 9.35569V9.35593H21.4576V9.35569C21.4576 8.17827 22.4154 7.22034 23.5936 7.22034C24.4299 7.22034 25.1534 7.70476 25.5036 8.40678H27.0231C26.7595 7.45537 26.1103 6.66295 25.2542 6.20937V6.0339C25.2542 3.80956 23.4447 2 21.2203 2C18.996 2 17.1864 3.80956 17.1864 6.0339V25.9661C17.1864 28.1904 18.996 30 21.2203 30C23.4447 30 25.2542 28.1904 25.2542 25.9661V25.7905C26.1101 25.3369 26.7594 24.5446 27.023 23.5932H25.5034C25.1532 24.295 24.4295 24.7793 23.5929 24.7793Z" fill="currentcolor"/>
<path d="M26.5228 10.3051C25.7771 9.91997 24.9471 9.67734 24.0678 9.61268C23.9109 9.60117 23.753 9.59322 23.5933 9.59322H23.5857L23.5933 11.0169C26.3409 11.0169 28.5763 13.2523 28.5763 15.9999C28.5763 18.7474 26.3409 20.9828 23.5874 20.9828L23.5933 22.4065C23.753 22.4065 23.9109 22.3987 24.0678 22.3871C24.9468 22.3223 25.7767 22.0799 26.5223 21.6949C28.5854 20.6295 30 18.4775 30 15.9999C30 13.5222 28.5856 11.3705 26.5228 10.3051Z" fill="currentcolor"/>
</svg>
