<svg xmlns="http://www.w3.org/2000/svg" width="157" height="56" viewBox="0 0 157 56" fill="none">
  <path d="M5.6924 0.0770874H16.8462C18.7832 0.0770874 20.4832 0.349565 21.9581 0.882672C23.4686 1.38616 24.5881 2.18582 25.4411 3.22835C26.2941 4.22348 26.6791 5.49109 26.6791 6.98972C26.6791 8.02631 26.4481 8.98591 25.9801 9.82703C25.5181 10.7096 24.8191 11.4382 23.8891 12.0898C23.0006 12.7058 21.8752 13.1619 20.5957 13.4699C21.5612 13.7009 22.3787 14.0445 23.0717 14.5065C23.7707 14.9686 24.3512 15.5431 24.7777 16.2717C25.1627 17.0003 25.3582 17.8473 25.3582 18.8069C25.3582 20.6077 24.8547 22.1063 23.8121 23.2969C22.7282 24.4875 21.2591 25.3701 19.3577 25.9447C17.4622 26.5607 15.2173 26.8272 12.6228 26.8272H0L5.6924 0.0770874ZM15.6793 20.1516C16.1828 19.962 16.5678 19.731 16.8047 19.3815C17.0772 19.0735 17.1898 18.6529 17.1898 18.1554C17.1898 17.7348 17.1128 17.3853 16.8817 17.0832C16.6507 16.8167 16.3368 16.6212 15.9162 16.5087C15.4897 16.3546 14.9862 16.3191 14.3702 16.3191H10.1113L9.2583 20.3885H13.7483C14.5242 20.3885 15.1403 20.3115 15.6852 20.1575L15.6793 20.1516ZM17.2668 10.1351C17.7288 9.98104 18.0427 9.75003 18.2737 9.44201C18.4692 9.13399 18.5818 8.71343 18.5818 8.2514C18.5818 7.71237 18.3863 7.29181 17.9598 6.98379C17.5333 6.71724 16.9173 6.56323 16.1413 6.56323H12.2319L11.3789 10.3601H15.5964C16.2539 10.3601 16.7988 10.2831 17.2608 10.1291L17.2668 10.1351Z" fill="white"/>
  <path d="M29.854 7.90792H37.2878L37.0568 8.90306C36.9028 9.63164 36.6718 10.3602 36.3993 11.0533C37.1338 9.82711 38.0283 8.86752 38.9938 8.21594C39.9593 7.56437 41.1262 7.25635 42.3998 7.25635C42.9802 7.25635 43.4837 7.29189 43.9102 7.41036L42.3227 14.7021C41.7423 14.5481 41.1618 14.5125 40.6168 14.5125C39.6868 14.5125 38.8753 14.6665 38.1408 15.0516C37.4063 15.3951 36.7488 15.9697 36.2039 16.7397C35.6234 17.5453 35.2383 18.5819 34.9244 19.8495L33.4139 26.8332H25.749L29.854 7.91385V7.90792Z" fill="white"/>
  <path d="M44.4907 26.8273C43.6377 26.3653 42.9447 25.6782 42.3998 24.7956C41.8607 23.8775 41.6238 22.8764 41.6238 21.7273C41.6238 19.7725 42.2457 18.2739 43.4837 17.1958C44.7217 16.1237 46.5402 15.4662 48.9807 15.2767L52.8131 14.9331C53.5891 14.8561 54.1281 14.7021 54.4361 14.5125C54.7442 14.2815 54.8982 14.015 54.8982 13.6299C54.8982 13.2449 54.7442 12.9369 54.4776 12.7118C54.1696 12.5223 53.7786 12.4038 53.2751 12.4038C52.7361 12.4038 52.3096 12.5163 51.9601 12.7474C51.6107 12.9784 51.3797 13.2864 51.2256 13.707H43.5193C43.7503 12.5163 44.2538 11.4027 45.0297 10.4431C45.8413 9.44209 46.9252 8.67797 48.3587 8.1034C49.7922 7.52883 51.4981 7.25635 53.4292 7.25635C55.5616 7.25635 57.2971 7.59991 58.6595 8.36995C60.0101 9.13999 60.9401 10.1766 61.4495 11.5153C61.953 12.8184 61.9885 14.3526 61.6035 16.1178L59.2815 26.8273H52.1556L52.2326 26.4423C52.2741 26.2528 52.3156 26.0573 52.3511 25.9033C52.3926 25.7493 52.4281 25.6367 52.4696 25.4827C52.5466 25.3287 52.5821 25.2162 52.6236 25.1391C52.6591 25.0621 52.7006 24.9496 52.7361 24.7956C52.1142 25.7196 51.3026 26.4068 50.4141 26.8688C49.4842 27.3308 48.4416 27.5618 47.3162 27.5618C46.3092 27.5618 45.3792 27.3308 44.4907 26.8332V26.8273ZM52.1201 22.0708C52.4696 21.8813 52.7835 21.5733 53.0145 21.1882C53.2455 20.8447 53.4351 20.3826 53.5535 19.8081L53.8201 18.5405C53.7076 18.6945 53.5535 18.7715 53.3581 18.8485C53.1271 18.884 52.819 18.961 52.4281 19.038L50.9176 19.3046C50.3786 19.4171 49.9521 19.5711 49.6382 19.8436C49.3302 20.0746 49.1761 20.4182 49.1761 20.8387C49.1761 21.3008 49.3302 21.6858 49.6382 21.9524C49.9462 22.2189 50.3371 22.3729 50.8406 22.3729C51.3026 22.3729 51.7291 22.2604 52.1201 22.0649V22.0708Z" fill="white"/>
  <path d="M65.75 7.9081H73.1839L73.0714 8.37013C72.9944 8.55968 72.9529 8.71369 72.9174 8.8677C72.8759 9.02171 72.7989 9.17572 72.7634 9.32972C72.7219 9.48373 72.6449 9.63774 72.5679 9.79175C72.9529 9.32972 73.4209 8.90916 73.9599 8.52414C74.4989 8.18058 75.1979 7.8311 75.9383 7.60601C76.7143 7.375 77.5613 7.26245 78.4913 7.26245C79.8063 7.26245 80.9318 7.60601 81.8617 8.33459C82.7917 9.10463 83.4078 10.1353 83.7572 11.4444C84.1067 12.789 84.1067 14.2817 83.7572 15.9758L81.3997 26.8394H73.7704L76.0923 15.9403C76.3234 14.9807 76.2819 14.2876 75.9739 13.7901C75.6658 13.328 75.1979 13.097 74.5463 13.097C74.0428 13.097 73.6163 13.2096 73.2313 13.405C72.8463 13.636 72.4909 13.9441 72.2243 14.4061C71.9519 14.8267 71.7623 15.3657 71.6438 16.0173L69.3219 26.8394H61.6925L65.7619 7.91995L65.75 7.9081Z" fill="white"/>
  <path d="M88.4367 26.5609C87.3942 25.9094 86.5353 24.9498 85.9607 23.6466C85.3388 22.379 85.0308 20.8448 85.0308 19.0797C85.0308 16.9709 85.4158 15.0103 86.1503 13.2095C86.9263 11.4088 88.0162 9.94574 89.4082 8.87361C90.8357 7.80147 92.5417 7.26244 94.4431 7.26244C95.296 7.26244 96.0661 7.37498 96.8065 7.64746C97.541 7.87847 98.1985 8.22203 98.779 8.68406C99.3595 9.14608 99.8275 9.64365 100.135 10.2182C100.135 9.60219 100.248 8.68406 100.52 7.57045L102.067 0.083252H109.696L103.962 26.8334H96.4511L96.5281 26.4899C96.6466 26.0278 96.8361 25.4533 97.1086 24.8017C96.5696 25.6073 95.8292 26.3003 94.8992 26.7979C93.9277 27.3369 92.9622 27.5679 91.9908 27.5679C90.6758 27.5679 89.4792 27.2599 88.4308 26.5728L88.4367 26.5609ZM97.1145 20.9574C97.695 20.4184 98.1215 19.7312 98.3881 18.8842C98.6961 18.0016 98.8501 17.1545 98.8501 16.272C98.8501 15.5789 98.7375 14.9688 98.5421 14.5068C98.3525 14.0092 98.08 13.6597 97.6891 13.3932C97.3455 13.1266 96.8776 13.0082 96.3741 13.0082C95.5981 13.0082 94.9406 13.2747 94.3957 13.8137C93.8567 14.3883 93.4657 15.0813 93.1577 15.8869C92.8911 16.734 92.7371 17.5751 92.7371 18.4222C92.7371 19.1152 92.8497 19.7253 93.0451 20.2229C93.2347 20.7204 93.5072 21.0699 93.8981 21.3365C94.2417 21.603 94.7096 21.757 95.2131 21.757C95.9535 21.757 96.5696 21.4905 97.1145 20.9515V20.9574Z" fill="white"/>
  <path d="M112.29 26.4423C110.898 25.7137 109.779 24.6357 109.038 23.2555C108.262 21.8753 107.877 20.2227 107.877 18.3035C107.877 16.1948 108.339 14.3111 109.311 12.623C110.241 10.9348 111.591 9.63164 113.297 8.67205C115.045 7.71245 117.017 7.25043 119.262 7.25043C121.389 7.25043 123.172 7.71245 124.682 8.67205C126.151 9.63164 127.2 10.9348 127.78 12.623C128.402 14.3111 128.444 16.1533 127.976 18.191L127.78 19.038H115.122C115.045 19.5771 115.086 20.0746 115.24 20.5367C115.43 20.9987 115.661 21.3422 116.052 21.6088C116.401 21.8753 116.828 22.0294 117.367 22.0294C117.906 22.0294 118.374 21.9168 118.759 21.6858C119.144 21.4548 119.422 21.1112 119.576 20.6847H127.318C127.01 22.0294 126.388 23.22 125.535 24.2566C124.647 25.2932 123.521 26.0987 122.129 26.6733C120.737 27.2894 119.144 27.5559 117.331 27.5559C115.394 27.5559 113.73 27.2124 112.296 26.4423H112.29ZM120.844 13.4759C120.654 13.1324 120.423 12.8599 120.068 12.6704C119.76 12.4808 119.333 12.4038 118.871 12.4038C118.172 12.4038 117.556 12.5934 117.088 13.0198C116.585 13.4404 116.235 14.0209 116.004 14.785H120.998C121.039 14.246 120.998 13.8254 120.844 13.4819V13.4759Z" fill="white"/>
  <path d="M133.466 16.8882L129.829 7.90826H137.69L138.347 10.8226C138.543 11.7822 138.697 12.6648 138.774 13.4348C139.04 12.9372 139.55 12.0547 140.284 10.8641L142.18 7.90826H150.858L143.341 17.4627L146.978 26.8277H139.194L138.46 23.7593C138.418 23.4928 138.341 23.2618 138.264 23.0308C138.187 22.6872 138.11 22.3792 138.075 22.0712C137.998 21.7631 137.956 21.4551 137.921 21.1886C137.802 21.3781 137.725 21.6091 137.613 21.8046C137.494 21.9942 137.382 22.2252 137.228 22.4206C137.032 22.7287 136.878 22.9597 136.801 23.0722C136.689 23.2262 136.57 23.4572 136.339 23.7653L134.213 26.8336H125.345L133.472 16.8941L133.466 16.8882Z" fill="white"/>
  <path d="M151.865 2.49993C151.865 1.08423 152.984 0.000244141 154.376 0.000244141C155.768 0.000244141 156.935 1.07831 156.935 2.49993C156.935 3.92155 155.768 5.03515 154.376 5.03515C152.984 5.03515 151.865 3.88601 151.865 2.49993ZM156.467 2.49993C156.467 1.35078 155.537 0.42673 154.376 0.42673C153.215 0.42673 152.327 1.34486 152.327 2.49993C152.327 3.65499 153.256 4.53758 154.376 4.53758C155.496 4.53758 156.467 3.65499 156.467 2.49993ZM153.411 1.07831H154.572C155.111 1.07831 155.46 1.38632 155.46 1.88389C155.46 2.34592 155.152 2.6184 154.684 2.65394L155.537 3.80308H154.957L154.139 2.65394H153.873V3.80308H153.411V1.07831ZM155.039 1.88389C155.039 1.65288 154.844 1.54033 154.536 1.54033H153.878V2.26891H154.536C154.844 2.26891 155.039 2.15637 155.039 1.88389Z" fill="white"/>
  <path d="M1.35647 51.5043C0.929988 49.7391 0.698975 47.8199 0.698975 45.7467C0.698975 43.6735 0.929988 41.7958 1.35647 39.9892C1.8185 38.224 2.36346 36.7668 2.98541 35.5762H5.3844C4.92237 36.4233 4.57289 37.3414 4.22341 38.378C3.87393 39.4146 3.60145 40.5282 3.4119 41.7958C3.21643 43.022 3.10388 44.331 3.10388 45.7112C3.10388 47.7844 3.3349 49.6621 3.72584 51.3918C4.15233 53.1214 4.69136 54.6141 5.39032 55.9943H2.99134C2.33384 54.7266 1.78888 53.2339 1.3624 51.5043H1.35647Z" fill="white"/>
  <path d="M10.6858 53.0387C10.3778 52.8847 10.1053 52.7307 9.83281 52.4997C9.6018 52.2687 9.36486 52.0021 9.17531 51.6171C9.21678 51.8066 9.25232 52.0021 9.25232 52.1917V52.8847H6.73486V36.3051H9.25232V41.565C9.25232 41.9086 9.25232 42.2581 9.17531 42.6372C9.44779 42.0982 9.83281 41.6776 10.3008 41.3696C10.7687 41.0616 11.3077 40.9075 11.8882 40.9075C12.6642 40.9075 13.2802 41.1386 13.8607 41.6006C14.3998 42.0982 14.8263 42.7912 15.1402 43.6738C15.4127 44.5978 15.5667 45.747 15.5667 47.0916C15.5667 48.4362 15.4127 49.5084 15.0632 50.4324C14.7552 51.3565 14.2872 52.0436 13.7067 52.5056C13.1262 52.9676 12.4687 53.1986 11.6928 53.1986C11.3433 53.1986 10.9938 53.1631 10.6858 53.0446V53.0387ZM12.1193 50.6634C12.3917 50.3554 12.6227 49.8934 12.7768 49.3188C12.9308 48.7028 13.0078 47.9386 13.0078 47.0916C13.0078 46.2445 12.9308 45.4804 12.7768 44.8644C12.6227 44.2484 12.4273 43.7923 12.1548 43.4428C11.8468 43.1348 11.5328 42.9807 11.1063 42.9807C10.7213 42.9807 10.3718 43.1348 10.0994 43.4783C9.79135 43.8219 9.55441 44.2839 9.4004 44.8999C9.24639 45.516 9.16939 46.2445 9.16939 47.0857C9.16939 47.9268 9.24639 48.6613 9.4004 49.2714C9.55441 49.8875 9.78542 50.3436 10.0579 50.6516C10.3304 50.9596 10.6799 51.1136 11.0649 51.1136C11.4499 51.1136 11.7994 50.9596 12.1133 50.6516L12.1193 50.6634Z" fill="white"/>
  <path d="M17.3852 41.2215H19.9026V42.3351C19.9026 42.6431 19.9026 42.9511 19.8256 43.2947C20.0981 42.5661 20.4476 41.95 20.8741 41.565C21.2591 41.1445 21.7626 40.9135 22.3431 40.9135C22.5741 40.9135 22.7281 40.949 22.8466 40.9905V43.6738C22.6511 43.6382 22.4201 43.6382 22.1476 43.6382C21.6797 43.6382 21.2591 43.7152 20.9452 43.9462C20.5957 44.1358 20.3232 44.4438 20.1692 44.9058C19.9737 45.3264 19.8967 45.901 19.8967 46.594V52.8906H17.3793V41.2215H17.3852Z" fill="white"/>
  <path d="M25.0916 52.7366C24.6296 52.47 24.2386 52.0436 23.9662 51.5104C23.6937 50.9714 23.5397 50.3613 23.5397 49.7038C23.5397 48.6672 23.8477 47.8616 24.4696 47.2456C25.0916 46.6296 25.9387 46.209 27.0226 45.978L28.2606 45.7114C28.6101 45.6344 28.8826 45.4804 29.0366 45.2909C29.1906 45.1368 29.2676 44.8288 29.2676 44.4438C29.2676 43.9462 29.1492 43.5612 28.9181 43.2947C28.7227 43.0281 28.3732 42.9096 27.9526 42.9096C27.4491 42.9096 27.0226 43.0992 26.7502 43.4487C26.4777 43.7922 26.3237 44.3313 26.3237 45.0598H23.7292C23.7707 44.1773 23.9602 43.4487 24.2683 42.8326C24.6177 42.2166 25.0798 41.719 25.7017 41.411C26.3237 41.0675 27.0937 40.9135 27.9882 40.9135C28.8826 40.9135 29.6171 41.0675 30.1976 41.411C30.7426 41.7546 31.1631 42.2581 31.4356 42.8682C31.7081 43.5198 31.8206 44.3253 31.8206 45.2849V52.8847H29.3446V52.1916C29.3446 52.0791 29.3446 52.0021 29.3861 51.8836V51.6941C29.3861 51.6585 29.4276 51.5815 29.4276 51.5045C29.1551 52.0436 28.8056 52.4641 28.3436 52.7307C27.8815 53.0387 27.3366 53.1927 26.7146 53.1927C26.1341 53.1927 25.5892 53.0387 25.0857 52.7307L25.0916 52.7366ZM28.4206 50.93C28.7286 50.6989 28.9241 50.4324 29.0781 50.0829C29.2321 49.6979 29.3091 49.2773 29.3091 48.7798V46.9731C29.2321 47.0501 29.1136 47.1271 28.9596 47.2397C28.8056 47.3167 28.6101 47.3937 28.3791 47.4707L27.6801 47.6602C27.1767 47.8142 26.7916 48.0452 26.4777 48.3533C26.2052 48.6968 26.0927 49.1233 26.0927 49.6209C26.0927 50.1184 26.2111 50.5035 26.4421 50.77C26.7146 51.078 27.0641 51.1906 27.4906 51.1906C27.8401 51.1906 28.1481 51.1136 28.4206 50.924V50.93Z" fill="white"/>
  <path d="M34.0361 41.2215H36.5536V42.2166C36.5121 42.2936 36.5121 42.4062 36.4766 42.5246C36.6306 42.1811 36.8616 41.9086 37.0985 41.6776C37.371 41.4466 37.679 41.257 38.0285 41.103C38.378 40.9905 38.763 40.9135 39.231 40.9135C39.8885 40.9135 40.4334 41.0675 40.8955 41.3755C41.3219 41.6835 41.6714 42.1455 41.9024 42.7201C42.1334 43.2947 42.2519 44.0232 42.2519 44.8288V52.8906H39.7345V45.1368C39.7345 44.4083 39.5805 43.9107 39.3494 43.5257C39.077 43.1821 38.7275 42.9866 38.224 42.9866C37.916 42.9866 37.602 43.0637 37.371 43.2532C37.0985 43.4072 36.909 43.6738 36.7491 43.9818C36.6306 44.2898 36.5536 44.6748 36.5536 45.0539V52.8847H34.0361V41.2155V41.2215Z" fill="white"/>
  <path d="M45.7288 52.5056C45.1483 52.0436 44.7218 51.3565 44.4138 50.4324C44.1413 49.5143 43.9873 48.4007 43.9873 47.0561C43.9873 45.7114 44.1413 44.5978 44.4908 43.6797C44.7988 42.7971 45.2668 42.1041 45.8473 41.6065C46.4278 41.1445 47.0853 40.9135 47.8612 40.9135C48.2107 40.9135 48.5602 40.9905 48.8682 41.103C49.1762 41.2156 49.4487 41.3696 49.7212 41.6006C49.9522 41.8316 50.1832 42.1396 50.3787 42.4832C50.3017 42.1396 50.3017 41.8316 50.3017 41.565V36.3051H52.8191V52.8847H50.3017V52.5411C50.3017 52.1976 50.3017 51.8481 50.3787 51.5045C50.1062 52.0021 49.7212 52.4227 49.2532 52.7307C48.7912 53.0387 48.2877 53.1927 47.6657 53.1927C46.8898 53.1927 46.2737 52.9617 45.7288 52.4997V52.5056ZM49.4842 50.622C49.7567 50.3139 49.9877 49.8164 50.1417 49.2003C50.2957 48.5843 50.3727 47.8557 50.3727 47.0501C50.3727 46.1675 50.2957 45.439 50.1417 44.8229C49.9877 44.2484 49.7567 43.7863 49.4842 43.4428C49.2118 43.1348 48.8623 42.9807 48.4773 42.9807C48.0922 42.9807 47.7428 43.1348 47.4288 43.4428C47.1563 43.7508 46.9253 44.2128 46.7713 44.8229C46.6173 45.439 46.5403 46.1675 46.5403 47.0501C46.5403 47.9327 46.6173 48.6613 46.7713 49.2773C46.9253 49.8934 47.1208 50.3495 47.3933 50.6575C47.7013 50.9655 48.0152 51.1195 48.4417 51.1195C48.8267 51.1195 49.1762 50.9655 49.4842 50.622Z" fill="white"/>
  <path d="M56.6515 52.5411C55.9881 52.0791 55.4905 51.392 55.1411 50.5094C54.7975 49.5913 54.6376 48.4777 54.6376 47.1686C54.6376 45.8595 54.7916 44.7518 55.1766 43.7922C55.5202 42.8741 56.0651 42.1396 56.7226 41.642C57.3801 41.18 58.1916 40.9135 59.0801 40.9135C59.9686 40.9135 60.6676 41.1445 61.2896 41.565C61.9115 41.9856 62.3736 42.6372 62.723 43.4842C63.0311 44.3313 63.1851 45.3679 63.1851 46.5525V47.6662H57.1846C57.2202 48.3177 57.2972 48.9338 57.4512 49.4669C57.6052 49.9644 57.8007 50.385 58.1146 50.693C58.3812 51.001 58.6951 51.1136 59.0801 51.1136C59.5422 51.1136 59.8976 50.924 60.1641 50.539C60.4721 50.154 60.6261 49.6564 60.6676 49.0404H63.1851C63.1436 49.923 62.9126 50.693 62.5631 51.3031C62.2136 51.9192 61.7457 52.4167 61.1711 52.7247C60.5491 53.0328 59.8502 53.1868 59.0742 53.1868C58.1087 53.1868 57.3327 52.9558 56.6397 52.5352L56.6515 52.5411ZM60.4425 44.1773C60.3241 43.7567 60.1345 43.4487 59.9035 43.2177C59.6725 43.0281 59.3645 42.9096 59.0091 42.9096C58.47 42.9096 58.0435 43.1762 57.7355 43.6797C57.4275 44.1773 57.232 44.9058 57.1965 45.7884H60.638C60.638 45.1724 60.6025 44.6393 60.4484 44.1773H60.4425Z" fill="white"/>
  <path d="M66.6385 46.8606L63.8485 41.2215H66.597L67.604 43.5612C67.7935 44.0233 67.989 44.4853 68.1845 44.9414C68.38 44.4794 68.5695 44.0233 68.765 43.5612L69.8904 41.2215H72.556L69.6476 46.748L72.6744 52.8906H69.8845L68.7176 50.1244C68.6406 50.0119 68.6051 49.8578 68.528 49.7394C68.451 49.5084 68.374 49.3188 68.3326 49.2003C68.2556 49.1233 68.22 48.9338 68.1016 48.7028C68.0246 48.8568 67.989 49.0108 67.9476 49.0878C67.9476 49.1648 67.8705 49.2773 67.835 49.4314C67.758 49.5854 67.7165 49.6979 67.681 49.7749C67.6395 49.8519 67.5625 49.9645 67.527 50.1185L66.2475 52.8847H63.5405L66.6385 46.8606Z" fill="white"/>
  <path d="M73.7999 36.7312H76.4299V39.61H73.7999V36.7312ZM73.8414 41.2212H76.3944V52.8903H73.8414V41.2212ZM73.8414 41.2212H75.1564V43.2173H73.8414V41.2212ZM73.8414 50.8171H76.3944V52.8903H73.8414V50.8171Z" fill="white"/>
  <path d="M80.1913 52.5056C79.5338 52.0436 79.0303 51.3564 78.6867 50.4324C78.3728 49.5498 78.1832 48.4007 78.1832 47.0916C78.1832 45.7825 78.3728 44.6334 78.7223 43.7152C79.1073 42.7971 79.6167 42.1041 80.3097 41.6065C81.0087 41.1445 81.8143 40.9135 82.7443 40.9135C83.5972 40.9135 84.2903 41.103 84.9122 41.488C85.4927 41.8316 85.9192 42.3706 86.2272 43.0992C86.5767 43.8278 86.7663 44.6748 86.8077 45.67H84.2903C84.2547 44.7874 84.1007 44.0943 83.8697 43.6738C83.5972 43.2117 83.2063 42.9807 82.7087 42.9807C82.3237 42.9807 81.9683 43.1347 81.6603 43.4013C81.3937 43.6678 81.1568 44.1299 81.0028 44.7459C80.8488 45.3205 80.7718 46.0905 80.7718 47.0501C80.7718 47.9327 80.8488 48.7027 81.0028 49.3129C81.1568 49.9289 81.3463 50.385 81.6603 50.693C81.9327 51.001 82.2822 51.1136 82.7087 51.1136C83.2122 51.1136 83.5972 50.924 83.8697 50.462C84.1363 50.0414 84.2903 49.3484 84.3317 48.4658H86.8847C86.7663 49.5024 86.5767 50.3435 86.2213 51.0366C85.9133 51.7652 85.4453 52.3042 84.8293 52.6477C84.2488 52.9913 83.5143 53.1868 82.6258 53.1868C81.6544 53.1868 80.8428 52.9558 80.1853 52.4937L80.1913 52.5056Z" fill="white"/>
  <path d="M88.5137 36.7312H91.1081V39.61H88.5137V36.7312ZM88.5551 41.2212H91.0667V52.8903H88.5551V41.2212ZM88.5551 41.2212H89.8287V43.2173H88.5551V41.2212ZM88.5551 50.8171H91.0667V52.8903H88.5551V50.8171Z" fill="white"/>
  <path d="M93.3176 36.3107H95.8706V52.8903H93.3176V36.3107ZM93.3176 36.3107H94.6326V38.3424H93.3176V36.3107ZM93.3176 50.8171H95.8706V52.8903H93.3176V50.8171Z" fill="white"/>
  <path d="M98.1215 36.3107H100.633V52.8903H98.1215V36.3107ZM98.1215 36.3107H99.395V38.3424H98.1215V36.3107ZM98.1215 50.8171H100.633V52.8903H98.1215V50.8171Z" fill="white"/>
  <path d="M102.842 36.7312H105.472V39.61H102.842V36.7312ZM102.878 41.2212H105.437V52.8903H102.878V41.2212ZM102.878 41.2212H104.193V43.2173H102.878V41.2212ZM102.878 50.8171H105.437V52.8903H102.878V50.8171Z" fill="white"/>
  <path d="M107.682 41.2215H110.235V41.873C110.235 41.9856 110.193 42.1041 110.193 42.2166C110.158 42.2936 110.158 42.4062 110.158 42.5246C110.312 42.1811 110.501 41.9086 110.78 41.6776C111.011 41.4466 111.319 41.257 111.668 41.103C112.018 40.9905 112.444 40.9135 112.871 40.9135C113.534 40.9135 114.073 41.0675 114.535 41.3755C114.997 41.6835 115.347 42.1455 115.578 42.7201C115.809 43.2947 115.927 44.0232 115.927 44.8288V52.8906H113.374V45.1368C113.374 44.4083 113.256 43.9107 112.983 43.5257C112.752 43.1821 112.361 42.9866 111.864 42.9866C111.556 42.9866 111.283 43.0637 111.011 43.2532C110.738 43.4072 110.549 43.6738 110.43 43.9818C110.276 44.2898 110.241 44.6748 110.241 45.0539V52.8847H107.688V41.2155L107.682 41.2215Z" fill="white"/>
  <path d="M120.731 40.0721C121.152 41.8373 121.389 43.7565 121.389 45.8297C121.389 47.9029 121.158 49.7806 120.731 51.5458C120.269 53.3524 119.724 54.8096 119.108 56.0002H116.745C117.171 55.1531 117.562 54.235 117.87 53.1984C118.214 52.1618 118.492 51.0127 118.682 49.7806C118.877 48.5544 118.99 47.2454 118.99 45.8652C118.99 43.792 118.759 41.9143 118.368 40.1846C117.947 38.455 117.402 36.9208 116.745 35.5762H119.108C119.766 36.8024 120.305 38.301 120.731 40.0662V40.0721Z" fill="white"/>
  <path d="M130.297 39.9182C130.066 40.3033 129.675 40.5698 129.172 40.5698V39.6872C129.835 39.5747 130.22 39.2252 130.333 38.6506H131.192V44.5207H130.256V40.2973C130.256 40.1848 130.256 40.0663 130.297 39.9123V39.9182Z" fill="white"/>
  <path d="M131.998 41.6062C131.998 39.456 132.578 38.5379 133.745 38.5379C134.912 38.5379 135.486 39.456 135.486 41.6062C135.486 43.7564 134.906 44.639 133.745 44.639C132.584 44.639 131.998 43.715 131.998 41.6062ZM134.515 41.6062C134.515 39.9181 134.243 39.3435 133.739 39.3435C133.2 39.3435 132.922 39.9181 132.922 41.6062C132.922 43.2944 133.194 43.8334 133.739 43.8334C134.243 43.8334 134.515 43.2589 134.515 41.6062Z" fill="white"/>
  <path d="M136.102 41.6062C136.102 39.456 136.683 38.5379 137.85 38.5379C139.017 38.5379 139.556 39.456 139.556 41.6062C139.556 43.7564 139.017 44.639 137.85 44.639C136.683 44.639 136.102 43.715 136.102 41.6062ZM138.62 41.6062C138.62 39.9181 138.347 39.3435 137.844 39.3435C137.305 39.3435 137.026 39.9181 137.026 41.6062C137.026 43.2944 137.299 43.8334 137.844 43.8334C138.347 43.8334 138.62 43.2589 138.62 41.6062Z" fill="white"/>
  <path d="M140.284 40.3744H141.173V40.8364C141.327 40.5284 141.635 40.2974 142.067 40.2974C142.5 40.2974 142.802 40.5639 142.92 40.8719C143.074 40.5639 143.459 40.2974 143.927 40.2974C144.549 40.2974 144.97 40.7949 144.97 41.6775V44.5148H144.04V41.7486C144.04 41.2866 143.886 41.02 143.578 41.02C143.27 41.02 143.074 41.2866 143.074 41.7486V44.5148H142.18V41.7486C142.18 41.2866 142.026 41.02 141.718 41.02C141.41 41.02 141.179 41.2866 141.179 41.7486V44.5148H140.29V40.3684L140.284 40.3744Z" fill="white"/>
  <path d="M145.704 44.8288H146.593C146.634 45.4033 146.865 45.5988 147.173 45.5988C147.558 45.5988 147.831 45.3323 147.831 44.7518V43.9047C147.677 44.2127 147.369 44.4793 146.901 44.4793C146.089 44.4793 145.586 43.7507 145.586 42.3706C145.586 40.9904 146.166 40.2974 146.942 40.2974C147.363 40.2974 147.641 40.4514 147.831 40.8364V40.3744H148.725V44.6333C148.725 45.7469 148.103 46.3215 147.179 46.3215C146.255 46.3215 145.71 45.8595 145.71 44.8229L145.704 44.8288ZM147.831 42.3706C147.831 41.5235 147.6 41.0259 147.173 41.0259C146.747 41.0259 146.51 41.488 146.51 42.3706C146.51 43.2531 146.741 43.7507 147.173 43.7507C147.606 43.7507 147.831 43.2117 147.831 42.3706Z" fill="white"/>
  <path d="M130.564 47.8972H129.172V47.0561H132.927V47.8972H131.535V52.9677H130.564V47.8972Z" fill="white"/>
  <path d="M132.465 51.8541C132.465 51.084 132.969 50.6635 133.703 50.5095L134.165 50.4325C134.396 50.3555 134.515 50.2429 134.515 49.9704C134.515 49.6269 134.361 49.4314 134.053 49.4314C133.668 49.4314 133.472 49.6624 133.472 50.16H132.542C132.584 49.2419 133.081 48.7028 134.053 48.7028C135.024 48.7028 135.445 49.2418 135.445 50.2784V52.9677H134.55V52.4701C134.396 52.8551 134.047 53.0862 133.585 53.0862C132.963 53.0862 132.459 52.5886 132.459 51.86L132.465 51.8541ZM134.515 51.5046V50.853C134.473 50.93 134.361 51.007 134.207 51.0426L133.934 51.1196C133.591 51.1966 133.395 51.4276 133.395 51.8126C133.395 52.1562 133.591 52.3872 133.899 52.3872C134.242 52.3872 134.521 52.0436 134.521 51.5046H134.515Z" fill="white"/>
  <path d="M137.074 52.5409C137.11 52.6535 137.11 52.7305 137.11 52.849V52.9615H136.18V47.0499H137.11V48.9336C137.11 49.0876 137.11 49.2001 137.074 49.3186C137.264 48.975 137.613 48.7026 138.04 48.7026C138.815 48.7026 139.355 49.4311 139.355 50.8883C139.355 52.3455 138.733 53.074 137.963 53.074C137.578 53.074 137.264 52.8845 137.074 52.535V52.5409ZM138.425 50.8942C138.425 49.9702 138.194 49.4371 137.767 49.4371C137.341 49.4371 137.068 50.0116 137.068 50.8942C137.068 51.7768 137.299 52.3514 137.726 52.3514C138.188 52.3514 138.425 51.8538 138.425 50.8942Z" fill="white"/>
  <path d="M139.976 47.0561H140.906V52.9677H139.976V47.0561Z" fill="white"/>
  <path d="M141.528 50.93C141.528 49.5084 142.15 48.7028 143.11 48.7028C144.069 48.7028 144.579 49.4314 144.579 50.699V51.1196H142.452C142.452 51.8126 142.683 52.3457 143.11 52.3457C143.459 52.3457 143.649 52.0022 143.69 51.6171H144.579C144.502 52.5767 143.957 53.0743 143.11 53.0743C142.103 53.0743 141.528 52.3813 141.528 50.9241V50.93ZM143.074 49.4314C142.689 49.4314 142.452 49.8164 142.452 50.4265H143.649C143.649 49.7335 143.459 49.4314 143.068 49.4314H143.074Z" fill="white"/>
  <path d="M145.509 51.8541V49.5499H144.81V48.8213H145.509V47.3641H146.403V48.8213H147.179V49.5499H146.439V51.7356C146.439 52.0792 146.557 52.2747 146.865 52.2747H147.096V52.9677C146.978 53.0032 146.788 53.0447 146.593 53.0447C145.894 53.0447 145.509 52.6241 145.509 51.8541Z" fill="white"/>
  <path d="M147.523 51.5043H148.417C148.417 52.0433 148.648 52.3869 149.039 52.3869C149.347 52.3869 149.543 52.1559 149.543 51.8478C149.543 51.5398 149.389 51.3858 149.039 51.2733L148.654 51.1607C147.991 50.9297 147.647 50.5092 147.647 49.9346C147.647 49.1645 148.228 48.7084 149.004 48.7084C149.78 48.7084 150.396 49.1705 150.396 50.1301H149.501C149.501 49.668 149.312 49.437 148.962 49.437C148.696 49.437 148.5 49.591 148.5 49.899C148.5 50.1301 148.654 50.2841 149.039 50.4381L149.424 50.5151C150.046 50.7461 150.431 51.1311 150.431 51.7827C150.431 52.5883 149.851 53.0858 149.004 53.0858C148.157 53.0858 147.529 52.5113 147.529 51.5102L147.523 51.5043Z" fill="white"/>
</svg>
