<svg width="32" height="32" viewBox="0 0 32 32" fill="none" xmlns="http://www.w3.org/2000/svg">
<path d="M16 2C8.28042 2 2 8.28042 2 16C2 23.7196 8.28042 30 16 30C23.7196 30 30 23.7196 30 16C30 8.28042 23.7196 2 16 2ZM16 28.5763C9.06549 28.5763 3.42373 22.9345 3.42373 16C3.42373 9.06549 9.06549 3.42373 16 3.42373C22.9345 3.42373 28.5763 9.06549 28.5763 16C28.5763 22.9345 22.9345 28.5763 16 28.5763Z" fill="currentcolor"/>
<path d="M16 10.5424C12.9907 10.5424 10.5424 12.9907 10.5424 16C10.5424 19.0093 12.9907 21.4576 16 21.4576C19.0093 21.4576 21.4576 19.0093 21.4576 16C21.4576 12.9907 19.0093 10.5424 16 10.5424ZM16 20.0339C13.7757 20.0339 11.9661 18.2243 11.9661 16C11.9661 13.7757 13.7757 11.9661 16 11.9661C18.2243 11.9661 20.0339 13.7757 20.0339 16C20.0339 18.2243 18.2243 20.0339 16 20.0339Z" fill="currentcolor"/>
<path d="M16 13.3898C14.5607 13.3898 13.3898 14.5607 13.3898 16C13.3898 17.4393 14.5607 18.6102 16 18.6102C17.4393 18.6102 18.6102 17.4393 18.6102 16C18.6102 14.5607 17.4393 13.3898 16 13.3898ZM16 17.1864C15.3458 17.1864 14.8136 16.6542 14.8136 16C14.8136 15.3458 15.3458 14.8136 16 14.8136C16.6542 14.8136 17.1864 15.3458 17.1864 16C17.1864 16.6542 16.6542 17.1864 16 17.1864Z" fill="currentcolor"/>
</svg>
