<svg width="32" height="32" viewBox="0 0 32 32" fill="none" xmlns="http://www.w3.org/2000/svg">
<path d="M6 5V3H2V7H4V5H6Z" fill="currentcolor"/>
<path d="M28 28H4V9H2V30H30V9H28.0004H28V28Z" fill="currentcolor"/>
<path d="M26.0004 5H28V7H28.0004H30V3H26.0004V5Z" fill="currentcolor"/>
<path d="M10 2H8V5H10V2Z" fill="currentcolor"/>
<path d="M24 2H22V5H24V2Z" fill="currentcolor"/>
<path d="M20.0004 3H12.0004V5H20.0004V3Z" fill="currentcolor"/>
<path d="M4 7V9H28H28.0004V7H28H4Z" fill="currentcolor"/>
<path d="M16 17C17.3785 17 18.5 15.8785 18.5 14.5C18.5 13.1215 17.3785 12 16 12C14.6215 12 13.5 13.1215 13.5 14.5C13.5 15.8785 14.6215 17 16 17ZM16 14C16.2758 14 16.5 14.2242 16.5 14.5C16.5 14.7758 16.2758 15 16 15C15.7242 15 15.5 14.7758 15.5 14.5C15.5 14.2242 15.7242 14 16 14Z" fill="currentcolor"/>
<path d="M23.5 17C24.8785 17 26 15.8785 26 14.5C26 13.1215 24.8785 12 23.5 12C22.1215 12 21 13.1215 21 14.5C21 15.8785 22.1215 17 23.5 17ZM23.5 14C23.7757 14 24 14.2242 24 14.5C24 14.7758 23.7757 15 23.5 15C23.2243 15 23 14.7758 23 14.5C23 14.2242 23.2243 14 23.5 14Z" fill="currentcolor"/>
<path d="M8.5 17C9.8785 17 11 15.8785 11 14.5C11 13.1215 9.8785 12 8.5 12C7.1215 12 6 13.1215 6 14.5C6 15.8785 7.1215 17 8.5 17ZM8.5 14C8.77575 14 9 14.2242 9 14.5C9 14.7758 8.77575 15 8.5 15C8.22425 15 8 14.7758 8 14.5C8 14.2242 8.22425 14 8.5 14Z" fill="currentcolor"/>
<path d="M8.5 25C9.8785 25 11 23.8785 11 22.5C11 21.1215 9.8785 20 8.5 20C7.1215 20 6 21.1215 6 22.5C6 23.8785 7.1215 25 8.5 25ZM8.5 22C8.77575 22 9 22.2243 9 22.5C9 22.7757 8.77575 23 8.5 23C8.22425 23 8 22.7757 8 22.5C8 22.2243 8.22425 22 8.5 22Z" fill="currentcolor"/>
<path d="M16 25C17.3785 25 18.5 23.8785 18.5 22.5C18.5 21.1215 17.3785 20 16 20C14.6215 20 13.5 21.1215 13.5 22.5C13.5 23.8785 14.6215 25 16 25ZM16 22C16.2758 22 16.5 22.2243 16.5 22.5C16.5 22.7757 16.2758 23 16 23C15.7242 23 15.5 22.7757 15.5 22.5C15.5 22.2243 15.7242 22 16 22Z" fill="currentcolor"/>
<path d="M23.5 25C24.8785 25 26 23.8785 26 22.5C26 21.1215 24.8785 20 23.5 20C22.1215 20 21 21.1215 21 22.5C21 23.8785 22.1215 25 23.5 25ZM23.5 22C23.7757 22 24 22.2243 24 22.5C24 22.7757 23.7757 23 23.5 23C23.2243 23 23 22.7757 23 22.5C23 22.2243 23.2243 22 23.5 22Z" fill="currentcolor"/>
</svg>
