<svg width="32" height="32" viewBox="0 0 32 32" fill="none" xmlns="http://www.w3.org/2000/svg">
<path d="M10.7967 28.9776L5.6486 28.9943L9.79977 24.4972H8.43864L3.99316 29.3131V29.9999L11.2123 29.9765L13.691 27.4978H12.2765L10.7967 28.9776Z" fill="currentcolor"/>
<path d="M13.3582 14.8367C12.6403 14.1187 12.2286 13.0628 12.2287 11.9393C12.2287 10.8161 12.6404 9.76027 13.3582 9.04276C14.8675 7.5336 17.1433 7.53385 18.6521 9.04276C20.1655 10.5563 20.1681 13.3107 18.6603 14.8285L17.9276 15.4936L19.4058 15.4947C21.2443 13.5988 21.2296 10.206 19.3593 8.33563C17.4474 6.42339 14.5634 6.42339 12.6509 8.33563C11.747 9.23942 11.2285 10.5529 11.2285 11.9394C11.2285 13.3261 11.7469 14.64 12.6533 15.5464L26.2754 28.9942L21.2013 28.9777L9.85678 17.8364C8.21334 16.1925 7.30855 14.0093 7.30867 11.6889C7.3088 9.36832 8.21409 7.18541 9.85753 5.54197C13.2477 2.15208 18.7632 2.1522 22.1527 5.54197C23.7961 7.18541 24.701 9.3687 24.701 11.6898C24.701 14.0108 23.7961 16.1941 22.1527 17.8372L21.5333 18.4961H22.9063C24.7086 16.6695 25.7012 14.2558 25.7012 11.6898C25.7012 9.10152 24.6921 6.66706 22.86 4.83484C19.0805 1.05499 12.9304 1.05512 9.15027 4.83484C7.3178 6.66706 6.3086 9.10127 6.30835 11.6889C6.3081 14.2769 7.31742 16.7116 9.15015 18.5446L20.7907 29.9765L28.0072 30V29.2987L13.3581 14.8369L13.3582 14.8367Z" fill="currentcolor"/>
</svg>
