<svg width="32" height="32" viewBox="0 0 32 32" fill="none" xmlns="http://www.w3.org/2000/svg">
<path d="M11.912 17.4819H11.9118C11.2148 17.4819 10.5595 17.7533 10.0666 18.2461C9.57362 18.739 9.30209 19.3943 9.30209 20.0914C9.30209 20.7884 9.5735 21.4438 10.0663 21.9368C10.5752 22.4456 11.2435 22.7003 11.9118 22.7001C12.5799 22.7001 13.2482 22.4458 13.757 21.9373C14.25 21.4444 14.5215 20.789 14.5215 20.0919C14.5215 19.3948 14.2501 18.7394 13.7574 18.2464C13.2646 17.7534 12.6092 17.482 11.912 17.4819ZM12.7505 20.9305C12.2881 21.393 11.5353 21.393 11.0729 20.9303C10.8488 20.7062 10.7255 20.4083 10.7255 20.0915C10.7255 19.7747 10.8489 19.4768 11.073 19.2528C11.2971 19.0288 11.595 18.9054 11.9118 18.9054C12.2287 18.9054 12.5265 19.0289 12.7505 19.2529C12.9744 19.477 13.0979 19.7749 13.0979 20.0917C13.0979 20.4087 12.9746 20.7066 12.7505 20.9305Z" fill="currentcolor"/>
<path d="M23.9782 8.02085C22.9608 7.00318 21.3052 7.00329 20.2875 8.02049C19.2698 9.03792 19.2697 10.6936 20.2871 11.7112C20.78 12.2041 21.4354 12.4756 22.1324 12.4758H22.1326C22.8296 12.4758 23.485 12.2043 23.9778 11.7116C24.9955 10.6941 24.9956 9.03852 23.9782 8.02085ZM22.9713 10.7049C22.5088 11.1676 21.7561 11.1672 21.2937 10.7049C20.8313 10.2424 20.8315 9.48976 21.2939 9.02725C21.7565 8.56485 22.5092 8.56509 22.9714 9.02725C23.4338 9.48976 23.4338 10.2424 22.9713 10.7049Z" fill="currentcolor"/>
<path d="M28.9434 5.93568C26.7757 2.18125 21.9568 0.889677 18.2013 3.05717C16.3821 4.10698 15.0806 5.80223 14.5367 7.83057C14.3012 8.70863 14.2206 9.60364 14.2894 10.4838C11.8887 9.88964 9.26496 10.1826 6.95892 11.5131C4.66688 12.8358 3.02726 14.9716 2.34209 17.5271C1.65692 20.0826 2.00817 22.7519 3.33118 25.0432C5.16415 28.2178 8.50126 29.9944 11.9284 29.9944C13.6078 29.9944 15.3088 29.5676 16.8647 28.6699C19.1566 27.3473 20.7963 25.2115 21.4814 22.656C21.9234 21.0076 21.9316 19.3123 21.5284 17.7011C21.7335 17.7172 21.9393 17.7263 22.1457 17.7263C23.4785 17.7263 24.8288 17.3877 26.0638 16.675C27.883 15.6252 29.1846 13.93 29.7285 11.9015C30.2724 9.87303 29.9935 7.7543 28.9433 5.93556L28.9434 5.93568ZM28.3536 11.5331C27.9082 13.1943 26.8424 14.5825 25.3524 15.4423C24.1054 16.1619 22.7151 16.4157 21.3845 16.2583L20.027 17.6156C20.4897 19.1212 20.5246 20.7289 20.1067 22.2876C19.52 24.4757 18.1159 26.3045 16.1533 27.437C12.1017 29.7754 6.90281 28.3821 4.56391 24.3316C3.43106 22.3695 3.13035 20.0839 3.71694 17.8958C4.30365 15.7076 5.70768 13.8787 7.67042 12.7462C9.00304 11.9772 10.4593 11.6119 11.8976 11.6119C12.7519 11.6119 13.5995 11.7418 14.411 11.9918L15.7391 10.6641C15.6374 9.8499 15.6927 9.01574 15.9117 8.19926C16.3571 6.53817 17.4229 5.1498 18.9128 4.29002C19.9245 3.70627 21.03 3.42893 22.1218 3.42893C24.3496 3.42893 26.5192 4.58397 27.7107 6.64754C28.5707 8.13698 28.799 9.87197 28.3536 11.5331Z" fill="currentcolor"/>
</svg>
