<svg width="32" height="32" viewBox="0 0 32 32" fill="none" xmlns="http://www.w3.org/2000/svg">
<path d="M24.0719 2H3.89174V3.51351H24.0719V2Z" fill="currentcolor"/>
<path d="M25.8377 15.6216H28.108V14.1081H25.8377V3.76577H24.3242V17.8919H25.8377V15.6216Z" fill="currentcolor"/>
<path d="M24.0719 19.6577V18.1441H8.62336L3.63949 23.128V3.76577H2.12598V24.955H3.95291L9.25021 19.6577H24.0719Z" fill="currentcolor"/>
<path d="M28.3602 15.8739V27.9859L25.9289 25.2072H15.9999V26.7207H25.242L28.1114 30H29.8737V15.8739H28.3602Z" fill="currentcolor"/>
<path d="M15.7476 20.9189H14.2341V24.955H15.7476V20.9189Z" fill="currentcolor"/>
<path d="M15.7476 5.78378H14.2341V9.81982H15.7476V5.78378Z" fill="currentcolor"/>
<path d="M15.7476 11.8378H14.2341V15.8739H15.7476V11.8378Z" fill="currentcolor"/>
<path d="M20.0359 10.0721H15.9999V11.5856H20.0359V10.0721Z" fill="currentcolor"/>
<path d="M13.9818 10.0721H9.9458V11.5856H13.9818V10.0721Z" fill="currentcolor"/>
</svg>
