<svg width="32" height="32" viewBox="0 0 32 32" fill="none" xmlns="http://www.w3.org/2000/svg">
<path d="M4 4.49988H2V20.4999H4V4.49988Z" fill="currentcolor"/>
<path d="M28 2.49988H4V4.49988H28V2.49988Z" fill="currentcolor"/>
<path d="M22.4375 20.4999L28 26.4624V4.49988H30V29.4999H28.1L21.5625 22.4999H4V20.4999H22.4375Z" fill="currentcolor"/>
<path d="M24 15.4999C22.35 15.4999 21 14.1499 21 12.4999C21 10.8499 22.35 9.49988 24 9.49988C25.65 9.49988 27 10.8499 27 12.4999C27 14.1499 25.65 15.4999 24 15.4999ZM24 11.4999C23.45 11.4999 23 11.9499 23 12.4999C23 13.0499 23.45 13.4999 24 13.4999C24.55 13.4999 25 13.0499 25 12.4999C25 11.9499 24.55 11.4999 24 11.4999Z" fill="currentcolor"/>
<path d="M16 15.4999C14.35 15.4999 13 14.1499 13 12.4999C13 10.8499 14.35 9.49988 16 9.49988C17.65 9.49988 19 10.8499 19 12.4999C19 14.1499 17.65 15.4999 16 15.4999ZM16 11.4999C15.45 11.4999 15 11.9499 15 12.4999C15 13.0499 15.45 13.4999 16 13.4999C16.55 13.4999 17 13.0499 17 12.4999C17 11.9499 16.55 11.4999 16 11.4999Z" fill="currentcolor"/>
<path d="M8 15.4999C6.35 15.4999 5 14.1499 5 12.4999C5 10.8499 6.35 9.49988 8 9.49988C9.65 9.49988 11 10.8499 11 12.4999C11 14.1499 9.65 15.4999 8 15.4999ZM8 11.4999C7.45 11.4999 7 11.9499 7 12.4999C7 13.0499 7.45 13.4999 8 13.4999C8.55 13.4999 9 13.0499 9 12.4999C9 11.9499 8.55 11.4999 8 11.4999Z" fill="currentcolor"/>
</svg>
