<svg width="32" height="32" viewBox="0 0 32 32" fill="none" xmlns="http://www.w3.org/2000/svg">
<path d="M20.6709 11.1724L14.933 21.009L11.8552 17.931H10.4897L14.3519 21.7931H15.5934L21.7888 11.1724H20.6709Z" fill="currentcolor"/>
<path d="M16 30C8.28045 30 2 23.7197 2 16C2 8.28033 8.28045 2 16 2C23.7196 2 30 8.28033 30 16C30 23.7197 23.7196 30 16 30ZM16 2.96552C8.81281 2.96552 2.96552 8.81269 2.96552 16C2.96552 23.1873 8.81281 29.0345 16 29.0345C23.1872 29.0345 29.0345 23.1873 29.0345 16C29.0345 8.81269 23.1872 2.96552 16 2.96552Z" fill="currentcolor"/>
</svg>
