<svg width="32" height="32" viewBox="0 0 32 32" fill="none" xmlns="http://www.w3.org/2000/svg">
<path d="M11.1726 8.31914V7.23873L9.11346 8.27255C8.50181 7.39985 7.48935 6.82766 6.3451 6.82766C4.48179 6.82766 2.96582 8.34363 2.96582 10.2069C2.96582 11.435 3.6243 12.5117 4.60658 13.1035C5.1148 13.4097 5.70968 13.5862 6.3451 13.5862C6.98053 13.5862 7.5754 13.4097 8.08362 13.1035C9.06591 12.5117 9.72438 11.435 9.72438 10.2069C9.72438 9.83209 9.66211 9.47159 9.5489 9.13439L11.1726 8.31914ZM6.3451 12.6207C5.01415 12.6207 3.93133 11.5379 3.93133 10.2069C3.93133 8.87599 5.01415 7.79317 6.3451 7.79317C7.67606 7.79317 8.75887 8.87599 8.75887 10.2069C8.75887 11.5379 7.67606 12.6207 6.3451 12.6207Z" fill="currentcolor"/>
<path d="M6.82882 18.4489V16H5.86331V18.4487C4.22738 18.6833 2.96582 20.0933 2.96582 21.7931C2.96582 23.6564 4.48179 25.1723 6.3451 25.1723C7.49333 25.1723 8.50905 24.5962 9.11997 23.7183C9.16234 23.6573 9.20313 23.5953 9.24163 23.5316C9.54781 23.0234 9.72438 22.4285 9.72438 21.7931C9.72438 20.094 8.46379 18.6844 6.82882 18.4489ZM6.3451 24.2068C5.01415 24.2068 3.93133 23.124 3.93133 21.7931C3.93133 20.4621 5.01415 19.3793 6.3451 19.3793C7.67606 19.3793 8.75887 20.4621 8.75887 21.7931C8.75887 23.124 7.67606 24.2068 6.3451 24.2068Z" fill="currentcolor"/>
<path d="M25.1735 13.5513V16H26.139V13.5511C27.774 13.3156 29.0346 11.9061 29.0346 10.2069C29.0346 8.34363 27.5186 6.82766 25.6553 6.82766C24.5073 6.82766 23.4918 7.40347 22.8809 8.281C22.8383 8.34219 22.7974 8.40446 22.7588 8.46843C22.4526 8.97665 22.276 9.57152 22.276 10.2069C22.276 11.9067 23.5376 13.3167 25.1735 13.5513ZM25.6553 7.79317C26.9862 7.79317 28.0691 8.87599 28.0691 10.2069C28.0691 11.5379 26.9862 12.6207 25.6553 12.6207C24.3243 12.6207 23.2415 11.5379 23.2415 10.2069C23.2415 8.87599 24.3243 7.79317 25.6553 7.79317Z" fill="currentcolor"/>
<path d="M27.3938 18.8965C26.8856 18.5903 26.2907 18.4138 25.6553 18.4138C25.0199 18.4138 24.425 18.5903 23.9168 18.8965C22.9345 19.4883 22.276 20.565 22.276 21.7931C22.276 22.1622 22.3363 22.5174 22.4463 22.8503L20.8277 23.6578V24.7368L22.8775 23.7142C23.4882 24.5944 24.5052 25.1723 25.6553 25.1723C27.5186 25.1723 29.0346 23.6564 29.0346 21.7931C29.0346 20.565 28.3761 19.4883 27.3938 18.8965ZM25.6553 24.2068C24.3243 24.2068 23.2415 23.124 23.2415 21.7931C23.2415 20.4621 24.3243 19.3793 25.6553 19.3793C26.9862 19.3793 28.0691 20.4621 28.0691 21.7931C28.0691 23.124 26.9862 24.2068 25.6553 24.2068Z" fill="currentcolor"/>
<path d="M13.2169 7.2928C13.827 8.17745 14.8468 8.75868 16.0002 8.75868C17.145 8.75868 18.1581 8.18589 18.7696 7.31235L20.8277 8.33712V7.25852L19.2045 6.45027C19.3173 6.11343 19.3795 5.75366 19.3795 5.37928C19.3795 3.51597 17.8635 2 16.0002 2C14.1369 2 12.6209 3.51597 12.6209 5.37928C12.6209 6.01471 12.7975 6.60958 13.1037 7.1178C13.1395 7.17742 13.1774 7.23571 13.2169 7.2928ZM16.0002 2.96563C17.3311 2.96563 18.414 4.04845 18.414 5.3794C18.414 6.71036 17.3311 7.79317 16.0002 7.79317C14.6692 7.79317 13.5864 6.71036 13.5864 5.3794C13.5864 4.04845 14.6692 2.96563 16.0002 2.96563Z" fill="currentcolor"/>
<path d="M18.7681 24.6855C18.1564 23.8133 17.1441 23.2413 16.0002 23.2413C14.8563 23.2413 13.8361 23.8175 13.2252 24.6955L11.1726 23.667V24.7469L12.7928 25.5588C12.6819 25.893 12.6209 26.2497 12.6209 26.6207C12.6209 28.484 14.1369 30 16.0002 30C17.5281 30 18.8216 28.9805 19.2381 27.5862C19.3296 27.2802 19.3795 26.9562 19.3795 26.6207C19.3795 25.9853 19.2029 25.3904 18.8967 24.8822C18.8562 24.815 18.813 24.7496 18.7681 24.6855ZM16.0002 29.0344C14.6692 29.0344 13.5864 27.9516 13.5864 26.6206C13.5864 25.2896 14.6692 24.2068 16.0002 24.2068C17.3311 24.2068 18.414 25.2896 18.414 26.6206C18.414 27.9516 17.3311 29.0344 16.0002 29.0344Z" fill="currentcolor"/>
</svg>
