<svg width="32" height="32" viewBox="0 0 32 32" fill="none" xmlns="http://www.w3.org/2000/svg">
<path d="M13.1882 7.74237C13.8407 8.57288 14.8611 9.11864 16.0001 9.11864C17.1272 9.11864 18.1475 8.58475 18.8001 7.7661L20.7458 8.73898V7.13729L19.4407 6.48475C19.5238 6.18814 19.5594 5.87966 19.5594 5.55932C19.5594 3.60169 17.9577 2 16.0001 2C14.0424 2 12.4407 3.60169 12.4407 5.55932C12.4407 6.35424 12.7018 7.1017 13.1526 7.69492M16.0001 3.42373C17.1746 3.42373 18.1357 4.38475 18.1357 5.55932C18.1357 6.7339 17.1746 7.69492 16.0001 7.69492C14.8255 7.69492 13.8645 6.7339 13.8645 5.55932C13.8645 4.38475 14.8255 3.42373 16.0001 3.42373Z" fill="currentcolor"/>
<path d="M18.7882 24.2339C18.1357 23.4034 17.1272 22.8814 16.0001 22.8814C14.8729 22.8814 13.8526 23.4153 13.2001 24.2458L11.2543 23.2729V24.8627L12.5594 25.5153C12.4763 25.8119 12.4407 26.1203 12.4407 26.4407C12.4407 28.3983 14.0424 30 16.0001 30C17.6374 30 19.0136 28.8966 19.4289 27.3898C19.5119 27.0932 19.5594 26.7729 19.5594 26.4407C19.5594 25.6458 19.2984 24.8983 18.8475 24.3051M16.0001 28.5763C14.8255 28.5763 13.8645 27.6153 13.8645 26.4407C13.8645 25.2661 14.8255 24.3051 16.0001 24.3051C17.1746 24.3051 18.1357 25.2661 18.1357 26.4407C18.1357 27.6153 17.1746 28.5763 16.0001 28.5763Z" fill="currentcolor"/>
<path d="M11.2543 8.71525V7.12542L9.29668 8.11017C8.64413 7.27966 7.63566 6.74576 6.50854 6.74576C4.55091 6.74576 2.94922 8.34746 2.94922 10.3051C2.94922 11.5746 3.61363 12.678 4.61024 13.3186C5.156 13.6627 5.80854 13.8644 6.50854 13.8644C7.20854 13.8644 7.86108 13.6627 8.40685 13.3186C9.40346 12.678 10.0679 11.5746 10.0679 10.3051C10.0679 9.98475 10.0204 9.66441 9.93735 9.3678L11.2543 8.71525ZM6.50854 12.4407C5.33396 12.4407 4.37295 11.4797 4.37295 10.3051C4.37295 9.13051 5.33396 8.16949 6.50854 8.16949C7.68312 8.16949 8.64413 9.13051 8.64413 10.3051C8.64413 11.4797 7.68312 12.4407 6.50854 12.4407Z" fill="currentcolor"/>
<path d="M9.356 23.8305C9.80685 23.2373 10.0679 22.5017 10.0679 21.6949C10.0679 19.9746 8.84583 18.539 7.22041 18.2068V16H5.79668V18.2068C4.17125 18.539 2.94922 19.9746 2.94922 21.6949C2.94922 23.6525 4.55091 25.2542 6.50854 25.2542C7.64752 25.2542 8.656 24.7203 9.30854 23.8898M6.50854 23.8305C5.33396 23.8305 4.37295 22.8695 4.37295 21.6949C4.37295 20.5203 5.33396 19.5593 6.50854 19.5593C7.68312 19.5593 8.64413 20.5203 8.64413 21.6949C8.64413 22.8695 7.68312 23.8305 6.50854 23.8305Z" fill="currentcolor"/>
<path d="M22.6441 8.16949C22.1933 8.76271 21.9323 9.4983 21.9323 10.3051C21.9323 12.0254 23.1543 13.461 24.7797 13.7932V16H26.2035V13.7932C27.8289 13.461 29.0509 12.0254 29.0509 10.3051C29.0509 8.34746 27.4492 6.74576 25.4916 6.74576C24.3526 6.74576 23.3441 7.27966 22.6916 8.11017M25.4916 8.16949C26.6662 8.16949 27.6272 9.13051 27.6272 10.3051C27.6272 11.4797 26.6662 12.4407 25.4916 12.4407C24.317 12.4407 23.356 11.4797 23.356 10.3051C23.356 9.13051 24.317 8.16949 25.4916 8.16949Z" fill="currentcolor"/>
<path d="M27.3899 18.6814C26.8441 18.3373 26.1916 18.1356 25.4916 18.1356C24.7916 18.1356 24.139 18.3373 23.5933 18.6814C22.5967 19.3102 21.9323 20.4254 21.9323 21.6949C21.9323 22.0153 21.9797 22.3237 22.0509 22.6085L20.7458 23.261V24.8508L22.6916 23.878C23.3441 24.7085 24.3526 25.2424 25.4916 25.2424C27.4492 25.2424 29.0509 23.6407 29.0509 21.6831C29.0509 20.4254 28.3865 19.322 27.3899 18.6814ZM25.4916 23.8305C24.317 23.8305 23.356 22.8695 23.356 21.6949C23.356 20.5203 24.317 19.5593 25.4916 19.5593C26.6662 19.5593 27.6272 20.5203 27.6272 21.6949C27.6272 22.8695 26.6662 23.8305 25.4916 23.8305Z" fill="currentcolor"/>
</svg>
