<svg width="32" height="32" viewBox="0 0 32 32" fill="none" xmlns="http://www.w3.org/2000/svg">
<path d="M6.50012 6.5145H12.5001V2.0145H11.5001V5.5145H6.498C5.291 5.5195 3.9615 5.89762 2.75425 6.57912C2.4905 6.728 2.23937 6.8915 2 7.06687V8.35975C2.36988 8.01712 2.7845 7.71038 3.24575 7.45C4.29125 6.85975 5.47813 6.51888 6.5 6.51463L6.50012 6.5145Z" fill="currentcolor"/>
<path d="M5.50012 18.5041V13.9999H4.50012V17.4999C4.50012 19.1409 3.4505 20.5885 2.00013 21.1958V22.2595C3.15138 21.8836 4.135 21.0922 4.7635 20.071C4.94062 20.588 5.20087 21.0701 5.529 21.4999H5.5V29.9999H6.5V22.4717C7.34237 23.1162 8.38538 23.5041 9.5 23.5041H15V22.5041H9.5C7.33175 22.5041 5.50012 20.6724 5.50012 18.5041Z" fill="currentcolor"/>
<path d="M27.5001 17.722V13.9955H26.5001V18.504C26.5001 20.6723 24.6684 22.504 22.5001 22.504H17.0001V23.504H22.5001C23.6194 23.504 24.6664 23.1128 25.5106 22.4634L25.5139 30L26.5139 29.9995L26.5103 21.4995H26.4714C26.7748 21.1021 27.0211 20.6604 27.1964 20.1874C27.8155 21.1875 28.806 21.942 30.0003 22.289V21.2334C28.5215 20.6836 27.5003 19.3365 27.5003 17.722H27.5001Z" fill="currentcolor"/>
<path d="M29.246 6.56463C28.0391 5.88325 26.7095 5.505 25.5001 5.5H20.5001V2H19.5001V6.5H25.498C26.5223 6.50425 27.709 6.84525 28.7543 7.43538C29.2129 7.69425 29.6294 8.00225 30 8.35075V7.0525C29.7607 6.877 29.5098 6.7135 29.246 6.56463Z" fill="currentcolor"/>
</svg>
