<svg width="32" height="32" viewBox="0 0 32 32" fill="none" xmlns="http://www.w3.org/2000/svg">
<path d="M3.49163 7.88513C4.465 7.33563 5.56313 7.01813 6.5 7.01426H13V2.01426H11V5.01426H6.49575C5.20475 5.01963 3.78863 5.42063 2.50838 6.14338C2.33375 6.24188 2.16463 6.34676 2 6.45626V9.06788C2.41863 8.60863 2.91738 8.20913 3.4915 7.88501L3.49163 7.88513Z" fill="currentcolor"/>
<path d="M6.00013 13.9996H4.00013V17.4996C4.00013 18.8639 3.17125 20.0759 2.00013 20.6493V22.781C3.03688 22.4755 3.95725 21.8654 4.65325 21.0585C4.75787 21.2521 4.87388 21.4389 5.00013 21.6184V29.9998H7.00013V23.3793C7.75525 23.7764 8.6065 24.0041 9.50013 24.0041H15.0001V22.0041H9.50013C7.60288 22.0041 6.00013 20.4014 6.00013 18.5041V13.9996Z" fill="currentcolor"/>
<path d="M28.0001 17.7218V13.9953H26.0001V18.5038C26.0001 20.401 24.3974 22.0038 22.5001 22.0038H17.0001V24.0038H22.5001C23.398 24.0038 24.2533 23.774 25.011 23.3733L25.0139 30L27.0139 29.999L27.0103 21.604C27.1136 21.456 27.21 21.303 27.2988 21.1455C27.4101 21.2709 27.5275 21.3923 27.652 21.5084C28.3176 22.1289 29.1231 22.5681 30.0001 22.8026V20.6936C28.8081 20.1765 28.0001 19.054 28.0001 17.7218Z" fill="currentcolor"/>
<path d="M29.4918 6.12901C28.2118 5.40626 26.7956 5.00513 25.5 4.99976H21V1.99976H19V6.99976H25.4958C26.4373 7.00363 27.5351 7.32101 28.5084 7.87063C29.0826 8.19476 29.5814 8.59463 30 9.05488V6.44201C29.8354 6.33238 29.6663 6.22763 29.4916 6.12913L29.4918 6.12901Z" fill="currentcolor"/>
</svg>
