<svg width="32" height="32" viewBox="0 0 32 32" fill="none" xmlns="http://www.w3.org/2000/svg">
<path d="M16 30C8.2804 30 2 23.7196 2 16C2 8.2804 8.2804 2 16 2C23.7196 2 30 8.2804 30 16C30 23.7196 23.7196 30 16 30ZM16 3.86667C9.30963 3.86667 3.86667 9.30963 3.86667 16C3.86667 22.6904 9.30963 28.1333 16 28.1333C22.6904 28.1333 28.1333 22.6904 28.1333 16C28.1333 9.30963 22.6904 3.86667 16 3.86667Z" fill="currentcolor"/>
<path d="M12.2667 9.95223V12.1205L18.832 16L12.2667 19.8795V22.0478L20.6667 17.0841V14.9159L12.2667 9.95223Z" fill="currentcolor"/>
</svg>
