<svg width="32" height="32" viewBox="0 0 32 32" fill="none" xmlns="http://www.w3.org/2000/svg">
<path d="M16 30C8.28042 30 2 23.7196 2 16C2 8.28042 8.2803 2 16 2C23.7197 2 30 8.28042 30 16C30 23.7196 23.7196 30 16 30ZM16 3.42373C9.06537 3.42373 3.42373 9.06549 3.42373 16C3.42373 22.9345 9.06537 28.5763 16 28.5763C22.9346 28.5763 28.5763 22.9345 28.5763 16C28.5763 9.06549 22.9345 3.42373 16 3.42373Z" fill="currentcolor"/>
<path d="M16.7301 6.50847H15.3064V15.0462H16.7301V6.50847Z" fill="currentcolor"/>
<path d="M21.7132 15.2881H16.9678V16.7119H21.7132V15.2881Z" fill="currentcolor"/>
</svg>
