<svg width="32" height="32" viewBox="0 0 32 32" fill="none" xmlns="http://www.w3.org/2000/svg">
<path d="M16.4956 6.34483H15.53V15.0345H16.4956V6.34483Z" fill="currentcolor"/>
<path d="M16 30C8.28045 30 2 23.7197 2 16C2 8.28033 8.28033 2 16 2C23.7197 2 30 8.28033 30 16C30 23.7197 23.7196 30 16 30ZM16 2.96552C8.81281 2.96552 2.96552 8.81269 2.96552 16C2.96552 23.1873 8.81281 29.0345 16 29.0345C23.1872 29.0345 29.0345 23.1873 29.0345 16C29.0345 8.81269 23.1872 2.96552 16 2.96552Z" fill="currentcolor"/>
<path d="M25.668 15.5172H16.9783V16.4828H25.668V15.5172Z" fill="currentcolor"/>
<path d="M16.4956 22.7586H15.53V25.6552H16.4956V22.7586Z" fill="currentcolor"/>
<path d="M9.25417 15.5172H6.35762V16.4828H9.25417V15.5172Z" fill="currentcolor"/>
<path d="M10.8921 20.4374L8.84384 22.4856L9.52648 23.1683L11.5747 21.12L10.8921 20.4374Z" fill="currentcolor"/>
<path d="M22.499 8.83163L20.4507 10.8799L21.1334 11.5625L23.1816 9.51427L22.499 8.83163Z" fill="currentcolor"/>
<path d="M21.1334 20.4373L20.4508 21.1199L22.4991 23.1681L23.1817 22.4855L21.1334 20.4373Z" fill="currentcolor"/>
<path d="M9.52654 8.83165L8.84392 9.51431L10.8923 11.5625L11.5749 10.8798L9.52654 8.83165Z" fill="currentcolor"/>
</svg>
