<svg width="32" height="32" viewBox="0 0 32 32" fill="none" xmlns="http://www.w3.org/2000/svg">
<path d="M16 1C7.729 1 1 7.729 1 16C1 24.271 7.729 31 16 31C24.271 31 31 24.271 31 16C31 7.729 24.271 1 16 1ZM16 29C8.83175 29 3 23.1683 3 16C3 8.83175 8.83187 3 16 3C23.1681 3 29 8.83175 29 16C29 23.1683 23.1682 29 16 29Z" fill="currentcolor"/>
<path d="M22.3507 8.22714L15.9864 14.5908L17.4005 16.0051L23.7648 9.64142L22.3507 8.22714Z" fill="currentcolor"/>
<path d="M17.4007 16.0049L15.9864 17.419L22.3499 23.7836L23.7642 22.3695L17.4007 16.0049Z" fill="currentcolor"/>
<path d="M14.5723 16.005L8.20783 22.3684L9.62192 23.7828L15.9864 17.4194L14.5723 16.005Z" fill="currentcolor"/>
<path d="M9.62275 8.22632L8.20849 9.64048L14.5723 16.0048L15.9866 14.5906L9.62275 8.22632Z" fill="currentcolor"/>
</svg>
