<svg width="32" height="32" viewBox="0 0 32 32" fill="none" xmlns="http://www.w3.org/2000/svg">
<path d="M8.38579 15.5063V30H23.6165V15.5063H22.1425V28.5261H9.85973V15.5063H8.38579Z" fill="currentcolor"/>
<path d="M25.15 6.90833H19.1947V7.6453C19.1947 9.40628 17.7621 10.8388 16.0011 10.8388C14.2401 10.8388 12.8076 9.40628 12.8076 7.6453V6.90833H6.85228L2.24341 11.5172V13.5995L6.1739 17.5299V15.4456L3.28671 12.5584L7.46286 8.38227H11.3918C11.7462 10.6069 13.6782 12.3128 16.0011 12.3128C18.3241 12.3128 20.2561 10.6069 20.6105 8.38227H24.5394L28.7155 12.5584L25.8263 15.4478V17.5321L29.7568 13.6017V11.5151L25.15 6.90833Z" fill="currentcolor"/>
<path d="M16 5.9305H15.2631V8.63271H16.737V7.30236C17.8701 6.9808 18.7022 5.93688 18.7022 4.70222C18.7022 3.21219 17.4901 2 16 2C14.51 2 13.2978 3.21219 13.2978 4.70222H14.7717C14.7717 4.02494 15.3228 3.47394 16 3.47394C16.6773 3.47394 17.2283 4.02494 17.2283 4.70222C17.2283 5.37949 16.6773 5.9305 16 5.9305Z" fill="currentcolor"/>
</svg>
