<svg width="32" height="32" viewBox="0 0 32 32" fill="none" xmlns="http://www.w3.org/2000/svg">
<path d="M20.7691 28.963H11.2307L10.424 25.3333H9.36183L10.3987 30H21.6011L22.638 25.3333H21.5758L20.7691 28.963Z" fill="currentcolor"/>
<path d="M6.14805 2V5.11111H4.07397V9.25926H27.9258V5.11111H25.8515V2H6.14805ZM7.18509 3.03704H24.8145V5.11111H7.18509V3.03704ZM26.8888 6.14815V8.22222H5.11101V6.14815H26.8888Z" fill="currentcolor"/>
<path d="M8.00434 14.4444L7.42814 11.8519H6.36596L8.78562 22.7407H23.2143L25.634 11.8519H24.5718L23.9956 14.4444H8.00434ZM23.765 15.4815L22.3822 21.7037H9.61746L8.2347 15.4815H23.765Z" fill="currentcolor"/>
</svg>
