<svg width="32" height="32" viewBox="0 0 32 32" fill="none" xmlns="http://www.w3.org/2000/svg">
<path d="M27 15V12H5V15H2V22H5V27C5 28.6541 6.34587 30 8 30H24C25.6541 30 27 28.6541 27 27V22H30V15H27ZM5 20H4V17H5V20ZM25 27C25 27.5514 24.5514 28 24 28H8C7.44863 28 7 27.5514 7 27V14H25V27ZM28 20H27V17H28V20Z" fill="currentcolor"/>
<path d="M13.985 7.49575C14.5336 7.49575 14.98 7.94213 14.98 8.49075V11H16.98V8.49075C16.98 6.83925 15.6364 5.49575 13.985 5.49575C13.4364 5.49575 12.99 5.0495 12.99 4.50087V2H10.99V4.50087C10.99 6.15225 12.3336 7.49575 13.985 7.49575Z" fill="currentcolor"/>
<path d="M20 7.49575C20.5486 7.49575 20.995 7.94213 20.995 8.49075V11H22.995V8.49075C22.995 6.83925 21.6514 5.49575 20 5.49575C19.4514 5.49575 19.0051 5.0495 19.0051 4.50087V2H17.0051V4.50087C17.0051 6.15225 18.3486 7.49575 20 7.49575Z" fill="currentcolor"/>
<path d="M7.985 7.49575C8.53362 7.49575 8.98 7.94213 8.98 8.49075V11H10.98V8.49075C10.98 6.83925 9.63637 5.49575 7.985 5.49575C7.43637 5.49575 6.99 5.0495 6.99 4.50087V2H4.99V4.50087C4.99 6.15225 6.33362 7.49575 7.985 7.49575Z" fill="currentcolor"/>
</svg>
