<svg width="32" height="32" viewBox="0 0 32 32" fill="none" xmlns="http://www.w3.org/2000/svg">
<path d="M26.8469 15.3694V12.3423H5.15325V15.3694H2.12622V21.9279H5.15325V27.2252C5.15325 28.7553 6.39799 30 7.92802 30H24.0722C25.6022 30 26.8469 28.7553 26.8469 27.2252V21.9279H29.874V15.3694H26.8469ZM5.15325 20.4144H3.63973V16.8829H5.15325V20.4144ZM25.3334 27.2252C25.3334 27.9207 24.7676 28.4865 24.0722 28.4865H7.92802C7.23256 28.4865 6.66676 27.9207 6.66676 27.2252V13.8559H25.3334V27.2252ZM28.3605 20.4144H26.8469V16.8829H28.3605V20.4144Z" fill="currentcolor"/>
<path d="M13.9669 7.29301C14.6596 7.29301 15.2232 7.85654 15.2232 8.54923V11.0811H16.7367V8.54923C16.7367 7.02209 15.4942 5.7795 13.9669 5.7795C13.2743 5.7795 12.7107 5.21596 12.7107 4.52341V2H11.1972V4.52341C11.1972 6.05054 12.4397 7.29301 13.9669 7.29301Z" fill="currentcolor"/>
<path d="M20.0361 7.29301C20.7288 7.29301 21.2923 7.85654 21.2923 8.54923V11.0811H22.8059V8.54923C22.8059 7.02209 21.5634 5.7795 20.0361 5.7795C19.3434 5.7795 18.78 5.21596 18.78 4.52341V2H17.2665V4.52341C17.2665 6.05054 18.509 7.29301 20.0361 7.29301Z" fill="currentcolor"/>
<path d="M7.91289 7.29301C8.60557 7.29301 9.1691 7.85654 9.1691 8.54923V11.0811H10.6826V8.54923C10.6826 7.02209 9.44015 5.7795 7.91289 5.7795C7.2202 5.7795 6.65667 5.21596 6.65667 4.52341V2H5.14316V4.52341C5.14316 6.05054 6.38563 7.29301 7.91289 7.29301Z" fill="currentcolor"/>
</svg>
