<svg width="32" height="32" viewBox="0 0 32 32" fill="none" xmlns="http://www.w3.org/2000/svg">
<path d="M26.7333 2C24.9321 2 23.4667 3.46545 23.4667 5.26667C23.4667 6.26697 23.919 7.1632 24.6294 7.76287C24.6983 7.82108 24.77 7.87627 24.8436 7.92877L21.9652 18.8026C21.4412 18.8187 20.9476 18.9579 20.5134 19.1935L16.6753 15.3554L12.8065 11.4866C13.0573 11.0244 13.2 10.4953 13.2 9.93345C13.2 8.13223 11.7346 6.66678 9.93333 6.66678C8.13212 6.66678 6.66667 8.13223 6.66667 9.93345C6.66667 11.1111 7.29317 12.145 8.23023 12.7198L5.38473 23.4698C5.34542 23.4684 5.30622 23.4668 5.26667 23.4668C3.46545 23.4668 2 24.9322 2 26.7335C2 28.5347 3.46545 30.0001 5.26667 30.0001C7.06788 30.0001 8.53333 28.5347 8.53333 26.7335C8.53333 25.7332 8.08102 24.8369 7.37063 24.2373C7.30168 24.179 7.23005 24.1239 7.15643 24.0714L10.0348 13.1976C10.5588 13.1814 11.0524 13.0423 11.4866 12.8066L15.3247 16.6447L19.1935 20.5135C18.9427 20.9757 18.8 21.5048 18.8 22.0667C18.8 23.8679 20.2654 25.3333 22.0667 25.3333C23.8679 25.3333 25.3333 23.8679 25.3333 22.0667C25.3333 20.889 24.7068 19.8551 23.7698 19.2803L26.6153 8.5303C26.6546 8.5317 26.6938 8.53333 26.7333 8.53333C28.5345 8.53333 30 7.06788 30 5.26667C30 3.46545 28.5345 2 26.7333 2ZM5.26667 28.1333C4.49468 28.1333 3.86667 27.5053 3.86667 26.7333C3.86667 25.9614 4.49468 25.3333 5.26667 25.3333C6.03865 25.3333 6.66667 25.9614 6.66667 26.7333C6.66667 27.5053 6.03865 28.1333 5.26667 28.1333ZM9.93333 11.3333C9.16135 11.3333 8.53333 10.7053 8.53333 9.93333C8.53333 9.16135 9.16135 8.53333 9.93333 8.53333C10.7053 8.53333 11.3333 9.16135 11.3333 9.93333C11.3333 10.7053 10.7053 11.3333 9.93333 11.3333ZM22.0667 23.4667C21.2947 23.4667 20.6667 22.8387 20.6667 22.0667C20.6667 21.2947 21.2947 20.6667 22.0667 20.6667C22.8386 20.6667 23.4667 21.2947 23.4667 22.0667C23.4667 22.8387 22.8386 23.4667 22.0667 23.4667ZM26.7333 6.66667C25.9613 6.66667 25.3333 6.03865 25.3333 5.26667C25.3333 4.49468 25.9613 3.86667 26.7333 3.86667C27.5053 3.86667 28.1333 4.49468 28.1333 5.26667C28.1333 6.03865 27.5053 6.66667 26.7333 6.66667Z" fill="currentcolor"/>
</svg>
