<svg width="32" height="32" viewBox="0 0 32 32" fill="none" xmlns="http://www.w3.org/2000/svg">
<path d="M6.00032 22H5.99982C3.79457 22 2.00007 23.7942 1.99982 25.9996C1.99957 28.2052 3.79382 29.9998 5.99944 30H5.99995C8.20519 30 9.99969 28.2057 9.99994 26.0004C10.0002 23.7948 8.20595 22.0002 6.00032 22ZM5.99995 28C4.89707 28 3.99982 27.1026 3.99995 25.9999C4.00007 24.8971 4.8972 24 5.99995 24C7.10282 24 8.00007 24.8974 7.99995 26.0001C7.99982 27.1029 7.10269 28 5.99995 28Z" fill="currentcolor"/>
<path d="M26.0029 10C28.2082 10 30.0027 8.20575 30.0029 6.00037C30.0031 3.79475 28.2088 2.00025 26.0033 2H26.0028C24.9347 2 23.9302 2.416 23.1747 3.17138C22.4192 3.92675 22.0029 4.93125 22.0028 5.99963C22.0028 7.06813 22.4187 8.07263 23.1741 8.82812C23.9294 9.58362 24.9339 9.99988 26.0023 10H26.0029ZM24.5887 4.58563C24.9664 4.208 25.4686 4 26.0027 4H26.0029C27.1058 4 28.0029 4.89738 28.0028 6.00012C28.0028 7.10287 27.1056 8 26.0028 8C25.4686 8 24.9662 7.79187 24.5886 7.414C24.2109 7.03613 24.0028 6.53387 24.0029 5.99975C24.0029 5.46563 24.2109 4.96338 24.5887 4.58563Z" fill="currentcolor"/>
<path d="M1.99995 20H9.99995V12H1.99995V20ZM3.99995 14H7.99995V18H3.99995V14Z" fill="currentcolor"/>
<path d="M29.9999 12H21.9999V20H29.9999V12ZM27.9999 18H23.9999V14H27.9999V18Z" fill="currentcolor"/>
<path d="M20.0028 15H17.0028V17H20.0028V15Z" fill="currentcolor"/>
<path d="M17.0013 11.9958H15.0013V14.9958H17.0013V11.9958Z" fill="currentcolor"/>
<path d="M16.9999 19.9958V16.9958H15.0028V15H12.0028V17H14.9999V19.9958H16.9999Z" fill="currentcolor"/>
<path d="M19.9999 2H11.9999V10H19.9999V2ZM17.9999 8H13.9999V4H17.9999V8Z" fill="currentcolor"/>
<path d="M11.9999 30H19.9999V22H11.9999V30ZM13.9999 24H17.9999V28H13.9999V24Z" fill="currentcolor"/>
<path d="M5.99707 10C8.2027 10 9.99707 8.20563 9.99707 6C9.99707 3.79437 8.2027 2 5.99707 2C3.79145 2 1.99707 3.79437 1.99707 6C1.99707 8.20563 3.79145 10 5.99707 10ZM5.99707 4C7.09982 4 7.99707 4.89725 7.99707 6C7.99707 7.10275 7.09982 8 5.99707 8C4.89432 8 3.99707 7.10275 3.99707 6C3.99707 4.89725 4.89432 4 5.99707 4Z" fill="currentcolor"/>
<path d="M26.0028 22C23.7972 22 22.0028 23.7944 22.0028 26C22.0028 28.2056 23.7972 30 26.0028 30C28.2084 30 30.0028 28.2056 30.0028 26C30.0028 23.7944 28.2084 22 26.0028 22ZM26.0028 28C24.9001 28 24.0028 27.1027 24.0028 26C24.0028 24.8973 24.9001 24 26.0028 24C27.1056 24 28.0028 24.8973 28.0028 26C28.0028 27.1027 27.1056 28 26.0028 28Z" fill="currentcolor"/>
</svg>
