<svg width="32" height="32" viewBox="0 0 32 32" fill="none" xmlns="http://www.w3.org/2000/svg">
<path d="M14.4862 23.4415H5.40516C4.43147 23.4415 3.6394 22.6494 3.6394 21.6757C3.6394 20.702 4.43147 19.91 5.40516 19.91H9.94568V18.3965H5.40516C3.5969 18.3965 2.1259 19.8676 2.1259 21.6757C2.1259 23.4839 3.5969 24.955 5.40516 24.955H14.4862C15.4599 24.955 16.252 25.747 16.252 26.7207C16.252 27.6944 15.4599 28.4865 14.4862 28.4865H1.87402V30H14.4862C16.2945 30 17.7655 28.5289 17.7655 26.7207C17.7655 24.9126 16.2945 23.4415 14.4862 23.4415Z" fill="currentcolor"/>
<path d="M28.1689 2.00013H27.0376L12.2159 16.8232V19.9113H15.3041L30.1258 5.08831V3.95684L28.1689 2V2.00013ZM14.6772 18.398H13.7293V17.4501L27.6033 3.5748L28.5511 4.52264L14.6772 18.398Z" fill="currentcolor"/>
</svg>
