<svg width="32" height="32" viewBox="0 0 32 32" fill="none" xmlns="http://www.w3.org/2000/svg">
<path d="M15.9999 3.52727C20.4882 3.52727 24.3812 6.12262 26.2589 9.89091H27.9413C25.9578 5.25589 21.3521 2 15.9999 2C10.6477 2 6.04212 5.25589 4.05857 9.89091H5.74099C7.61864 6.12262 11.5115 3.52727 15.9999 3.52727Z" fill="currentcolor"/>
<path d="M27.2 11.1636V12.6909C27.9018 12.6909 28.4727 13.2619 28.4727 13.9636V16C28.4727 16.7018 27.9018 17.2727 27.2 17.2727V18.8C28.7439 18.8 30 17.5439 30 16V13.9636C30 12.4197 28.7439 11.1636 27.2 11.1636Z" fill="currentcolor"/>
<path d="M2.26702 12.7717C2.09609 13.1336 2 13.5375 2 13.9636V16C2 17.5439 3.25605 18.8 4.8 18.8V17.2727C4.09822 17.2727 3.52727 16.7018 3.52727 16V13.9636C3.52727 13.2619 4.09822 12.6909 4.8 12.6909V11.1636C3.68216 11.1636 2.71565 11.8223 2.26702 12.7717Z" fill="currentcolor"/>
<path d="M26.4364 26.1818C26.4364 26.8836 25.8654 27.4545 25.1636 27.4545H17.6075C17.3207 26.8536 16.709 26.4364 16 26.4364C15.0175 26.4364 14.2182 27.2356 14.2182 28.2182C14.2182 29.2007 15.0175 30 16 30C16.709 30 17.3207 29.5828 17.6075 28.9818H25.1636C26.7076 28.9818 27.9636 27.7258 27.9636 26.1818V20.0727H26.4364V26.1818Z" fill="currentcolor"/>
<path d="M19.7056 18.0364H18.0775C17.6985 18.8076 16.906 19.3412 15.9888 19.3412C15.0717 19.3412 14.2791 18.8076 13.9 18.0364H12.272C12.7202 19.6667 14.2162 20.8684 15.9888 20.8684C17.7615 20.8684 19.2573 19.6667 19.7056 18.0364Z" fill="currentcolor"/>
<path d="M24.7606 19.5631C25.4737 18.1997 25.8795 16.6513 25.8795 15.0091C25.8795 13.3447 25.4633 11.7761 24.732 10.3994C24.6404 10.227 24.5452 10.0566 24.4437 9.89035C22.7112 7.04949 19.583 5.14867 16.019 5.14867C12.455 5.14867 9.3269 7.04949 7.59433 9.89035C7.4929 10.0566 7.3977 10.227 7.30606 10.3994C6.57475 11.7761 6.15857 13.3447 6.15857 15.0091C6.15857 16.6513 6.56432 18.1997 7.27742 19.5631C8.92535 22.7133 12.2241 24.8695 16.0189 24.8695C19.8137 24.8695 23.1127 22.7133 24.7606 19.5631ZM7.85461 16.6809C7.74413 16.1406 7.68597 15.5816 7.68597 15.0091C7.68597 14.4367 7.74413 13.8777 7.85461 13.3374C8.63084 9.54086 11.9966 6.67595 16.0192 6.67595C19.9824 6.67595 23.306 9.458 24.1455 13.1712C24.2793 13.7629 24.3523 14.3775 24.3523 15.009C24.3523 15.6405 24.2794 16.2551 24.1455 16.8468C23.306 20.56 19.9824 23.3421 16.0192 23.3421C11.9966 23.3421 8.63084 20.4774 7.85461 16.6809Z" fill="currentcolor"/>
<path d="M14.7273 13.4545C14.7273 12.1914 13.6995 11.1636 12.4364 11.1636C11.1732 11.1636 10.1455 12.1914 10.1455 13.4545C10.1455 14.7177 11.1732 15.7455 12.4364 15.7455C13.6995 15.7455 14.7273 14.7177 14.7273 13.4545ZM11.6727 13.4545C11.6727 13.0334 12.0152 12.6909 12.4364 12.6909C12.8575 12.6909 13.2 13.0334 13.2 13.4545C13.2 13.8757 12.8575 14.2182 12.4364 14.2182C12.0152 14.2182 11.6727 13.8757 11.6727 13.4545Z" fill="currentcolor"/>
<path d="M19.5636 15.7455C20.8268 15.7455 21.8545 14.7177 21.8545 13.4545C21.8545 12.1914 20.8268 11.1636 19.5636 11.1636C18.3005 11.1636 17.2727 12.1914 17.2727 13.4545C17.2727 14.7177 18.3005 15.7455 19.5636 15.7455ZM19.5636 12.6909C19.9848 12.6909 20.3273 13.0334 20.3273 13.4545C20.3273 13.8757 19.9848 14.2182 19.5636 14.2182C19.1425 14.2182 18.8 13.8757 18.8 13.4545C18.8 13.0334 19.1425 12.6909 19.5636 12.6909Z" fill="currentcolor"/>
</svg>
