<svg width="32" height="32" viewBox="0 0 32 32" fill="none" xmlns="http://www.w3.org/2000/svg">
<path d="M20.2165 17.9954L17.1602 17.9951C18.3 18.8783 19.3375 19.8695 20.2649 20.947H11.7353C12.6627 19.8694 13.7003 18.8781 14.8403 17.995C15.0112 17.8626 15.1843 17.7325 15.3597 17.605L17.8284 15.8103C18.6018 15.248 19.3348 14.6411 20.026 13.9956C23.476 10.7743 25.871 6.57652 26.9095 2.00114H24.8552C24.6005 3.02277 24.2715 4.02227 23.8723 4.99189L8.12628 4.98877C7.7274 4.01964 7.39878 3.02052 7.14428 1.99927H5.0899C6.12803 6.57502 8.5229 10.7733 11.9729 13.9949L15.0844 13.9951C13.8978 13.1041 12.8174 12.0988 11.8539 11H20.1457C19.1822 12.0989 18.1017 13.1043 16.9149 13.9953C16.8273 14.061 16.7408 14.128 16.652 14.1925L14.1833 15.9873C13.3338 16.6049 12.5343 17.2773 11.7842 17.9946C8.39265 21.2381 6.04965 25.4353 5.05615 29.9989H7.10653C7.35215 28.9713 7.67253 27.965 8.06415 26.9886L23.9364 26.9916C24.3277 27.9676 24.6478 28.9734 24.8933 30.0008H26.9438C25.9508 25.4369 23.6078 21.2393 20.2163 17.9955L20.2165 17.9954ZM10.299 8.99989C9.85365 8.35177 9.4439 7.68052 9.0724 6.98877L22.9264 6.99152C22.5553 7.68239 22.146 8.35264 21.7013 8.99989H10.299ZM8.98915 24.9886C9.35765 24.2868 9.76415 23.6049 10.2082 22.9469H21.7919C22.2365 23.6058 22.6434 24.2885 23.0123 24.9914L8.98915 24.9886Z" fill="currentcolor"/>
</svg>
