<svg width="32" height="32" viewBox="0 0 32 32" fill="none" xmlns="http://www.w3.org/2000/svg">
<path d="M19.8547 17.9954L17.5605 17.9951C18.7585 18.9519 19.8424 20.0268 20.8 21.1969H11.1997C12.1575 20.0266 13.2414 18.9518 14.4395 17.9949C14.6926 17.7926 14.9493 17.594 15.2125 17.4026L17.6812 15.608C18.3726 15.1054 19.0302 14.5658 19.6554 13.9955C23.1615 10.7979 25.5988 6.59365 26.6531 2.00102H25.1133C24.8401 3.11015 24.4791 4.1934 24.038 5.24177L7.96038 5.23852C7.51963 4.19065 7.159 3.1079 6.88613 1.99902H5.34625C6.40013 6.59215 8.83725 10.7969 12.3436 13.9948L14.6689 13.995C13.4257 13.0313 12.3032 11.9404 11.3111 10.7499H20.6886C19.6964 11.9404 18.5738 13.0314 17.3306 13.9953C17.1558 14.1308 16.9787 14.2641 16.7992 14.3946L14.3304 16.1895C13.5612 16.7486 12.8327 17.3524 12.1458 17.9946C8.70113 21.215 6.32062 25.4195 5.3125 29.9989H6.85025C7.1135 28.8839 7.46375 27.7936 7.8965 26.7385L24.1042 26.7416C24.5366 27.7964 24.8865 28.886 25.1496 30.0008H26.6875C25.6799 25.4211 23.2994 21.2161 19.8547 17.9954ZM10.1674 9.2499C9.60838 8.44677 9.10338 7.60802 8.65763 6.73865L23.3407 6.74152C22.8954 7.60977 22.3909 8.44752 21.8325 9.24977L10.1674 9.2499ZM8.57913 25.2386C9.01988 24.3593 9.5205 23.5101 10.0765 22.6969H21.9231C22.4797 23.511 22.9807 24.361 23.4219 25.2414L8.57913 25.2385V25.2386Z" fill="currentcolor"/>
</svg>
