<svg width="32" height="32" viewBox="0 0 32 32" fill="none" xmlns="http://www.w3.org/2000/svg">
<path d="M16 2C8.28042 2 2 8.28042 2 16C2 23.7196 8.28042 30 16 30C23.7196 30 30 23.7196 30 16C30 8.28042 23.7196 2 16 2ZM16 28.5763C9.06537 28.5763 3.42373 22.9345 3.42373 16C3.42373 9.06549 9.06537 3.42373 16 3.42373C22.9346 3.42373 28.5763 9.06549 28.5763 16C28.5763 22.9345 22.9346 28.5763 16 28.5763Z" fill="currentcolor"/>
<path d="M24.5424 21.9235H7.45763V23.3473H24.5424V21.9235Z" fill="currentcolor"/>
<path d="M16.9492 15.7627H19.0847V20.7458H20.5085V15.7627H21.6949C22.3491 15.7627 22.8814 16.2949 22.8814 16.9492V20.7458H24.3051V16.9492C24.3051 15.5099 23.1342 14.339 21.6949 14.339H16.9492V15.7627Z" fill="currentcolor"/>
<path d="M16.004 12.9135C17.9666 12.9135 19.5634 11.3168 19.5634 9.35415C19.5634 7.39154 17.9666 5.79483 16.004 5.79483C14.0414 5.79483 12.4447 7.39154 12.4447 9.35415C12.4447 11.3168 14.0414 12.9135 16.004 12.9135ZM16.004 7.21856C17.1816 7.21856 18.1396 8.17661 18.1396 9.35415C18.1396 10.5317 17.1816 11.4897 16.004 11.4897C14.8265 11.4897 13.8684 10.5317 13.8684 9.35415C13.8684 8.17661 14.8265 7.21856 16.004 7.21856Z" fill="currentcolor"/>
<path d="M9.11864 16.9492C9.11864 16.2949 9.65088 15.7627 10.3051 15.7627H11.5035V17.3366C10.9441 17.6038 10.5558 18.1734 10.5558 18.8336C10.5558 19.7487 11.3003 20.493 12.2154 20.493C13.1305 20.493 13.8748 19.7487 13.8748 18.8336C13.8748 18.1734 13.4865 17.6038 12.9272 17.3366V15.7627H13.3323L15.2881 17.7186V20.7458H16.7119V17.1289L13.9219 14.339H10.3051C8.86581 14.339 7.69492 15.5099 7.69492 16.9492V20.7458H9.11864V16.9492Z" fill="currentcolor"/>
</svg>
