<svg width="32" height="32" viewBox="0 0 32 32" fill="none" xmlns="http://www.w3.org/2000/svg">
<path d="M16 2C8.28045 2 2 8.28033 2 16C2 23.7197 8.28045 30 16 30C23.7196 30 30 23.7197 30 16C30 8.28033 23.7196 2 16 2ZM16 29.0345C8.81281 29.0345 2.96552 23.1873 2.96552 16C2.96552 8.81269 8.81281 2.96552 16 2.96552C23.1872 2.96552 29.0345 8.81269 29.0345 16C29.0345 23.1873 23.1872 29.0345 16 29.0345Z" fill="currentcolor"/>
<path d="M24.6897 22.2671H7.31034V23.2326H24.6897V22.2671Z" fill="currentcolor"/>
<path d="M16.9655 15.5172H19.3793V20.8276H20.3448V15.5172H21.7931C22.5917 15.5172 23.2414 16.1669 23.2414 16.9655V20.8276H24.2069V16.9655C24.2069 15.6346 23.1241 14.5517 21.7931 14.5517H16.9655V15.5172Z" fill="currentcolor"/>
<path d="M16.0041 12.6189C17.8674 12.6189 19.3834 11.1029 19.3834 9.23957C19.3834 7.37624 17.8674 5.86026 16.0041 5.86026C14.1408 5.86026 12.6248 7.37624 12.6248 9.23957C12.6248 11.1029 14.1408 12.6189 16.0041 12.6189ZM16.0041 6.82578C17.3351 6.82578 18.4179 7.9086 18.4179 9.23957C18.4179 10.5705 17.3351 11.6534 16.0041 11.6534C14.6731 11.6534 13.5903 10.5705 13.5903 9.23957C13.5903 7.9086 14.6731 6.82578 16.0041 6.82578Z" fill="currentcolor"/>
<path d="M8.75862 16.9655C8.75862 16.1669 9.40829 15.5172 10.2069 15.5172H11.6674V17.5201C11.1066 17.7195 10.7033 18.254 10.7033 18.8823C10.7033 19.6799 11.3524 20.329 12.1501 20.329C12.9479 20.329 13.5968 19.6799 13.5968 18.8823C13.5968 18.254 13.1936 17.7195 12.6329 17.5201V15.5172H13.3863L15.5174 17.6483V20.8276H16.4829V17.2483L13.7863 14.5517H10.207C8.87605 14.5517 7.79322 15.6346 7.79322 16.9655V20.8276H8.75874L8.75862 16.9655Z" fill="currentcolor"/>
</svg>
