<svg width="9" height="5" viewBox="0 0 9 5" fill="none" xmlns="http://www.w3.org/2000/svg">
<path d="M8.74746 0.232761C8.5875 0.0836789 8.37111 0 8.14556 0C7.92001 0 7.70362 0.0836789 7.54366 0.232761L4.47866 3.06631L1.45634 0.232761C1.29638 0.0836789 1.07999 0 0.854442 0C0.628891 0 0.412504 0.0836789 0.252541 0.232761C0.172519 0.307172 0.109004 0.395701 0.0656599 0.493242C0.0223156 0.590782 0 0.695404 0 0.801071C0 0.906738 0.0223156 1.01136 0.0656599 1.1089C0.109004 1.20644 0.172519 1.29497 0.252541 1.36938L3.87249 4.76323C3.95185 4.83826 4.04628 4.8978 4.15032 4.93844C4.25436 4.97908 4.36595 5 4.47866 5C4.59136 5 4.70295 4.97908 4.80699 4.93844C4.91103 4.8978 5.00546 4.83826 5.08483 4.76323L8.74746 1.36938C8.82748 1.29497 8.89099 1.20644 8.93434 1.1089C8.97768 1.01136 9 0.906738 9 0.801071C9 0.695404 8.97768 0.590782 8.93434 0.493242C8.89099 0.395701 8.82748 0.307172 8.74746 0.232761Z"  fill="#0080BB" />
</svg>
