<svg width="32" height="32" viewBox="0 0 32 32" fill="none" xmlns="http://www.w3.org/2000/svg">
<path d="M24.4029 9.81188C24.3595 7.71562 23.5104 5.75177 22.0118 4.28223C20.5111 2.81048 18.5269 2 16.4245 2H15.7451C11.2512 2 7.59521 5.6561 7.59521 10.1499C7.59521 11.4561 7.93775 12.7462 8.58548 13.8807L16.5869 27.8908C17.3299 29.1917 18.7222 30 20.2205 30C22.5277 30 24.4048 28.1229 24.4048 25.8158V9.98C24.4048 9.92377 24.4041 9.86777 24.4029 9.81188ZM22.5381 25.8156C22.5381 27.0936 21.4984 28.1332 20.2204 28.1332C19.3907 28.1332 18.6194 27.6856 18.208 26.9649L10.2066 12.9548C9.71936 12.1018 9.46188 11.1319 9.46188 10.1498C9.46188 6.68522 12.2805 3.86655 15.7451 3.86655H16.4245C18.0351 3.86655 19.5552 4.48745 20.7048 5.61492C21.8529 6.74075 22.5035 8.24505 22.5367 9.85062C22.5376 9.89355 22.5381 9.93672 22.5381 9.98V25.8156Z" fill="currentcolor"/>
<path d="M18.8 9.93322V14.1332H20.6667V9.93322C20.6667 7.61727 18.7826 5.73322 16.4667 5.73322C13.6361 5.73322 11.3333 8.03598 11.3333 10.8666V11.3332H13.2V10.8666C13.2 9.06533 14.6654 7.59988 16.4667 7.59988C17.7533 7.59988 18.8 8.64662 18.8 9.93322Z" fill="currentcolor"/>
<path d="M15.0667 18.7999C15.0667 20.3437 16.3228 21.5999 17.8667 21.5999H18.8V22.0665C18.8 22.3239 18.5907 22.5332 18.3333 22.5332H17.8667V24.3999H18.3333C19.6199 24.3999 20.6667 23.3531 20.6667 22.0665V21.5999H18.8093V19.7332H17.8667C17.352 19.7332 16.9333 19.3145 16.9333 18.7999C16.9333 18.2853 17.352 17.8665 17.8667 17.8665H20.676V15.9999H17.8667C16.3228 15.9999 15.0667 17.256 15.0667 18.7999Z" fill="currentcolor"/>
</svg>
