<svg width="32" height="32" viewBox="0 0 32 32" fill="none" xmlns="http://www.w3.org/2000/svg">
<path d="M8.74908 13.5682L17.0265 28.0615C17.7093 29.2573 18.989 30 20.3661 30C22.4866 30 24.2118 28.2747 24.2118 26.1542V9.77253C24.2118 9.71774 24.2112 9.66307 24.21 9.60864C24.1677 7.56705 23.3407 5.65424 21.8811 4.22298C20.4194 2.78943 18.4868 2 16.4392 2H15.7363C11.3537 2 7.78815 5.56553 7.78815 9.94814C7.78815 11.2156 8.12041 12.4674 8.74908 13.5682ZM15.7363 2.96552H16.4392C18.2324 2.96552 19.9249 3.65695 21.205 4.91224C22.4833 6.16597 23.2077 7.8409 23.2446 9.62867C23.2456 9.67647 23.2462 9.72438 23.2462 9.77253V26.1541C23.2462 27.7423 21.9541 29.0344 20.3658 29.0344C19.3345 29.0344 18.3762 28.4781 17.8648 27.5826L9.58751 13.0894C9.04187 12.1342 8.75366 11.048 8.75366 9.94826C8.75366 6.09802 11.886 2.96552 15.7363 2.96552Z" fill="currentcolor"/>
<path d="M12.6207 10.6897C12.6207 8.56009 14.3532 6.82759 16.4827 6.82759C18.0798 6.82759 19.3793 8.12705 19.3793 9.72414V14.069H20.3448V9.72414C20.3448 7.59457 18.6123 5.86207 16.4827 5.86207C13.8208 5.86207 11.6552 8.02772 11.6552 10.6897V11.1724H12.6207V10.6897Z" fill="currentcolor"/>
<path d="M15.5172 18.8966C15.5172 20.2275 16.6001 21.3103 17.931 21.3103H18.9062V20.3448H17.931C17.1324 20.3448 16.4827 19.6952 16.4827 18.8966C16.4827 18.0979 17.1324 17.4483 17.931 17.4483H20.8372V16.4828H17.931C16.6001 16.4828 15.5172 17.5656 15.5172 18.8966Z" fill="currentcolor"/>
<path d="M19.3793 22.2759C19.3793 22.8082 18.9461 23.2414 18.4138 23.2414H17.931V24.2069H18.4138C19.4785 24.2069 20.3448 23.3406 20.3448 22.2759V21.7931H19.3793V22.2759Z" fill="currentcolor"/>
</svg>
