<svg width="32" height="32" viewBox="0 0 32 32" fill="none" xmlns="http://www.w3.org/2000/svg">
<path d="M15.25 8.25H11.75V2H10.25V8.25H6.75V2H5.25V11.5C5.25 14.3294 7.30475 16.6862 10 17.1611V15.63C8.13762 15.179 6.75 13.499 6.75 11.4999V9.74988H15.25V11.4999C15.25 13.4989 13.8624 15.1789 12 15.63V17.1611C14.6952 16.6862 16.75 14.3294 16.75 11.5V2H15.25V8.25Z" fill="currentcolor"/>
<path d="M11.75 17.4171H10.25V30H11.75V17.4171Z" fill="currentcolor"/>
<path d="M19 2.25H18.25V30H19.75V3.79475C22.8441 4.16625 25.25 6.80737 25.25 10V17.75H22V19.25H26.75V10C26.75 5.72662 23.2734 2.25 19 2.25Z" fill="currentcolor"/>
</svg>
