<svg width="32" height="32" viewBox="0 0 32 32" fill="none" xmlns="http://www.w3.org/2000/svg">
<path d="M15 8H12V2H10V8H7V2H5V11.5C5 14.4676 7.16613 16.9375 10 17.4151V15.3735C8.27675 14.9284 7 13.3605 7 11.5001V10.0001H15V11.5001C15 13.3605 13.7233 14.9284 12 15.3735V17.4151C14.8339 16.9375 17 14.4678 17 11.5V2H15V8Z" fill="currentcolor"/>
<path d="M12 17.4171H10V30H12V17.4171Z" fill="currentcolor"/>
<path d="M19 2H18V30H20V4.08337C22.8341 4.56075 25 7.03225 25 10V17.5H22V19.5H27V10C27 5.58875 23.4113 2 19 2Z" fill="currentcolor"/>
</svg>
