<svg width="32" height="32" viewBox="0 0 32 32" fill="none" xmlns="http://www.w3.org/2000/svg">
<path d="M27.9175 8.66155C28.3448 8.10925 28.6 7.41742 28.6 6.66667C28.6 4.86545 27.1346 3.4 25.3333 3.4C24.5826 3.4 23.8907 3.65527 23.3384 4.0825C21.2032 2.76288 18.6892 2 16 2C8.2804 2 2 8.2804 2 16C2 18.6892 2.76288 21.2032 4.0825 23.3384C3.65515 23.8907 3.4 24.5826 3.4 25.3333C3.4 27.1346 4.86545 28.6 6.66667 28.6C7.41742 28.6 8.10925 28.3447 8.66155 27.9175C10.7968 29.2372 13.3108 30 16 30C23.7196 30 30 23.7196 30 16C30 13.3108 29.2371 10.7968 27.9175 8.66155ZM25.3333 5.26667C26.1053 5.26667 26.7333 5.89468 26.7333 6.66667C26.7333 7.43865 26.1053 8.06667 25.3333 8.06667C24.5613 8.06667 23.9333 7.43865 23.9333 6.66667C23.9333 5.89468 24.5613 5.26667 25.3333 5.26667ZM6.66667 26.7333C5.89468 26.7333 5.26667 26.1053 5.26667 25.3333C5.26667 24.5613 5.89468 23.9333 6.66667 23.9333C7.43865 23.9333 8.06667 24.5613 8.06667 25.3333C8.06667 26.1053 7.43865 26.7333 6.66667 26.7333ZM16 28.1333C13.7172 28.1333 11.5799 27.4993 9.75413 26.3985C9.86975 26.0644 9.93333 25.7063 9.93333 25.3333C9.93333 23.5321 8.46788 22.0667 6.66667 22.0667C6.2938 22.0667 5.93563 22.1304 5.6015 22.2459C4.50075 20.4201 3.86667 18.2828 3.86667 16C3.86667 9.30963 9.30963 3.86667 16 3.86667C18.2828 3.86667 20.4201 4.50075 22.2459 5.6015C22.1302 5.93563 22.0667 6.29368 22.0667 6.66667C22.0667 8.46788 23.5321 9.93333 25.3333 9.93333C25.7062 9.93333 26.0644 9.86963 26.3985 9.75413C27.4993 11.5799 28.1333 13.7172 28.1333 16C28.1333 22.6904 22.6904 28.1333 16 28.1333Z" fill="currentcolor"/>
<path d="M16 7.13333C14.7437 7.13333 13.5486 7.39758 12.4647 7.87078C11.9015 7.41018 11.1825 7.13333 10.4 7.13333C8.59878 7.13333 7.13333 8.59878 7.13333 10.4C7.13333 11.1826 7.41018 11.9015 7.87078 12.4648C7.39758 13.5486 7.13333 14.7439 7.13333 16C7.13333 20.889 11.1109 24.8667 16 24.8667C17.2563 24.8667 18.4514 24.6024 19.5353 24.1292C20.0985 24.5898 20.8175 24.8667 21.6 24.8667C23.4012 24.8667 24.8667 23.4012 24.8667 21.6C24.8667 20.8174 24.5898 20.0985 24.1292 19.5352C24.6024 18.4514 24.8667 17.2562 24.8667 16C24.8667 11.111 20.8892 7.13333 16 7.13333ZM10.4 9C11.172 9 11.8 9.62802 11.8 10.4C11.8 11.172 11.172 11.8 10.4 11.8C9.62802 11.8 9 11.172 9 10.4C9 9.62802 9.62802 9 10.4 9ZM21.6 23C20.828 23 20.2 22.372 20.2 21.6C20.2 20.828 20.828 20.2 21.6 20.2C22.372 20.2 23 20.828 23 21.6C23 22.372 22.372 23 21.6 23ZM22.5471 18.4738C22.2472 18.3828 21.9292 18.3333 21.6 18.3333C19.7988 18.3333 18.3333 19.7988 18.3333 21.6C18.3333 21.9293 18.3828 22.2472 18.4738 22.5471C17.7041 22.8389 16.8707 23 16 23C12.1402 23 9 19.8598 9 16C9 15.1293 9.16112 14.2958 9.4529 13.5262C9.75285 13.6172 10.0708 13.6667 10.4 13.6667C12.2012 13.6667 13.6667 12.2012 13.6667 10.4C13.6667 10.0707 13.6172 9.75285 13.5262 9.4529C14.2958 9.16112 15.1293 9 16 9C19.8598 9 23 12.1402 23 16C23 16.8707 22.8389 17.7041 22.5471 18.4738Z" fill="currentcolor"/>
</svg>
