<svg width="32" height="32" viewBox="0 0 32 32" fill="none" xmlns="http://www.w3.org/2000/svg">
<path d="M24.7578 6.00561L22.2295 7.52248V8.68873L26.2295 6.28873V5.72248L22.2295 3.32248V4.48873L24.7578 6.00561Z" fill="currentcolor"/>
<path d="M24.7578 16.0056L22.2295 17.5225V18.6887L26.2295 16.2887V15.7225L22.2295 13.3225V14.4887L24.7578 16.0056Z" fill="currentcolor"/>
<path d="M24.7578 26.0056L22.2295 27.5225V28.6887L26.2295 26.2887V25.7225L22.2295 23.3225V24.4887L24.7578 26.0056Z" fill="currentcolor"/>
<path d="M29.7569 2.00073H28.7569V29.9992H29.7569V2.00073Z" fill="currentcolor"/>
<path d="M20.2295 5.50561H2.24316V6.50561H20.2295V5.50561Z" fill="currentcolor"/>
<path d="M20.2295 15.5056H2.24316V16.5056H20.2295V15.5056Z" fill="currentcolor"/>
<path d="M20.2295 25.5056H2.24316V26.5056H20.2295V25.5056Z" fill="currentcolor"/>
</svg>
