<svg width="32" height="32" viewBox="0 0 32 32" fill="none" xmlns="http://www.w3.org/2000/svg">
<path d="M15.9831 4.46613L16.868 6H19.177L16.8695 2H15.1371L12.7186 6H15.0557L15.9831 4.46613Z" fill="currentcolor"/>
<path d="M15 30H17V8H15V30Z" fill="currentcolor"/>
<path d="M9.1335 11.5005L6.73387 15.4998H9.06637L10 13.9436L10.9336 15.4998H13.2661L10.8665 11.5005H9.1335Z" fill="currentcolor"/>
<path d="M9 28H2V30H11V17.5H9V28Z" fill="currentcolor"/>
<path d="M22 13.9436L22.9338 15.5H25.2663L22.8662 11.5H21.1338L18.7337 15.5H21.0662L22 13.9436Z" fill="currentcolor"/>
<path d="M23 28V17.5H21V30H30V28H23Z" fill="currentcolor"/>
</svg>
