<svg width="32" height="32" viewBox="0 0 32 32" fill="none" xmlns="http://www.w3.org/2000/svg">
<path d="M2 21.7038H6.14815V10.2964H2V21.7038ZM3.03704 11.3335H5.11111V20.6668H3.03704V11.3335Z" fill="currentcolor"/>
<path d="M8.22222 24.8149H12.3704V7.1853H8.22222V24.8149ZM9.25926 8.22234H11.3333V23.7779H9.25926V8.22234Z" fill="currentcolor"/>
<path d="M25.8519 21.7038H30V10.2964H25.8519V21.7038ZM26.8889 11.3335H28.963V20.6668H26.8889V11.3335Z" fill="currentcolor"/>
<path d="M19.6296 24.8149H23.7778V7.1853H19.6296V24.8149ZM20.6667 8.22234H22.7407V23.7779H20.6667V8.22234Z" fill="currentcolor"/>
<path d="M18.0741 13.926H13.9259V14.9631H18.0741V13.926Z" fill="currentcolor"/>
<path d="M18.0741 17.0372H13.9259V18.0742H18.0741V17.0372Z" fill="currentcolor"/>
</svg>
