<svg width="32" height="32" viewBox="0 0 32 32" fill="none" xmlns="http://www.w3.org/2000/svg">
<path d="M14.321 12.4174C14.0579 11.8913 13.5815 11.5015 13.0136 11.3482C12.4455 11.1948 11.8378 11.2914 11.3455 11.6135L8.22532 13.6551L5.20964 11.6445C4.71497 11.3147 4.10215 11.2144 3.5282 11.3689C2.95412 11.5235 2.47466 11.9183 2.21254 12.452C1.74599 13.4024 2.06977 14.5444 2.96595 15.1082L5.36833 16.6198L5.34492 18.3879L3.66927 22.3578C3.42055 22.9472 3.48258 23.6176 3.83533 24.1513C4.18808 24.6849 4.7805 25.0048 5.42023 25.007H5.42698C6.21382 25.007 6.90918 24.5352 7.19966 23.8032L8.22231 21.2267L9.19089 23.7726C9.47208 24.5116 10.191 25.007 10.9813 25.007H10.9877C11.623 25.0048 12.2143 24.6891 12.5693 24.1625C12.9245 23.6358 12.9956 22.9692 12.7595 22.3794L11.1645 18.3957V16.6231L13.5805 15.1131C14.4877 14.5461 14.8109 13.3971 14.3328 12.4413L14.321 12.4176V12.4174ZM13.0687 14.2942L10.1991 16.0878V18.5815L11.8631 22.7381C11.982 23.035 11.9476 23.3573 11.7689 23.6225C11.5901 23.8876 11.3041 24.0402 10.9843 24.0413H10.9812C10.5893 24.0413 10.2327 23.7956 10.0932 23.4291L8.50374 19.2516H7.96731L6.3024 23.4469C6.15891 23.8084 5.81558 24.0415 5.42686 24.0415H5.42361C5.10296 24.0404 4.81767 23.8864 4.64087 23.619C4.46407 23.3514 4.43427 23.0286 4.55893 22.7332L6.30783 18.5894L6.3409 16.091L3.48005 14.2908C3.00324 13.9908 2.83078 13.3831 3.07927 12.8773C3.21865 12.5933 3.47389 12.3832 3.77933 12.301C3.87334 12.2757 3.9694 12.2633 4.06486 12.2633C4.27955 12.2633 4.49195 12.3263 4.67418 12.4478L8.2205 14.812L11.8741 12.4215C12.14 12.2476 12.4549 12.1974 12.7619 12.2803C13.0685 12.3632 13.3156 12.5652 13.4573 12.8485L13.469 12.8721C13.7237 13.3813 13.5517 13.9927 13.069 14.2945L13.0687 14.2942Z" fill="currentcolor"/>
<path d="M8.2001 11.0454C9.31748 11.0454 10.2264 10.1364 10.2264 9.01902C10.2264 7.90164 9.31748 6.99268 8.2001 6.99268C7.08272 6.99268 6.17376 7.90164 6.17376 9.01902C6.17376 10.1364 7.08272 11.0454 8.2001 11.0454ZM8.2001 7.95812C8.78516 7.95812 9.261 8.43408 9.261 9.01902C9.261 9.60396 8.78516 10.0799 8.2001 10.0799C7.61504 10.0799 7.1392 9.60396 7.1392 9.01902C7.1392 8.43408 7.61504 7.95812 8.2001 7.95812Z" fill="currentcolor"/>
<path d="M29.78 12.441L29.7681 12.4174C29.505 11.8913 29.0286 11.5015 28.4607 11.3482C27.8928 11.1948 27.2849 11.2914 26.7926 11.6135L23.6724 13.6551L20.6567 11.6445C20.1621 11.3147 19.5491 11.2144 18.9753 11.3689C18.4012 11.5235 17.9218 11.9183 17.6596 12.452C17.1931 13.4024 17.5169 14.5444 18.4131 15.1082L20.8154 16.6198L20.792 18.3879L19.1164 22.3578C18.8677 22.9472 18.9297 23.6176 19.2824 24.1513C19.6352 24.6849 20.2276 25.0048 20.8673 25.007H20.8741C21.6609 25.007 22.3563 24.5352 22.6468 23.8032L23.6694 21.2267L24.638 23.7726C24.9192 24.5116 25.6381 25.007 26.4284 25.007H26.4348C27.0701 25.0048 27.6614 24.6891 28.0164 24.1625C28.3716 23.6358 28.4427 22.9692 28.2066 22.3794L26.6116 18.3957V16.6231L29.0276 15.1131C29.9348 14.5461 30.258 13.3971 29.78 12.4413V12.441ZM28.5158 14.2942L25.6462 16.0878V18.5815L27.3102 22.7381C27.4291 23.035 27.3947 23.3573 27.216 23.6225C27.0372 23.8876 26.7512 24.0402 26.4314 24.0413H26.4283C26.0364 24.0413 25.6798 23.7956 25.5403 23.4291L23.9508 19.2516H23.4144L21.7495 23.4469C21.606 23.8084 21.2627 24.0415 20.874 24.0415H20.8707C20.5501 24.0404 20.2648 23.8864 20.088 23.619C19.9112 23.3514 19.8814 23.0286 20.006 22.7332L21.7549 18.5894L21.788 16.091L18.9272 14.2908C18.4503 13.9908 18.2779 13.3831 18.5264 12.8773C18.6658 12.5933 18.921 12.3832 19.2264 12.301C19.3205 12.2757 19.4165 12.2633 19.512 12.2633C19.7267 12.2633 19.9391 12.3263 20.1213 12.4478L23.6676 14.812L27.3212 12.4215C27.5871 12.2476 27.9019 12.1974 28.2091 12.2803C28.5156 12.3632 28.7627 12.5652 28.9044 12.8485L28.9161 12.8721C29.1708 13.3813 28.9988 13.9927 28.5161 14.2945L28.5158 14.2942Z" fill="currentcolor"/>
<path d="M23.6472 11.0454C24.7646 11.0454 25.6736 10.1364 25.6736 9.01902C25.6736 7.90164 24.7646 6.99268 23.6472 6.99268C22.5298 6.99268 21.6209 7.90164 21.6209 9.01902C21.6209 10.1364 22.5298 11.0454 23.6472 11.0454ZM23.6472 7.95812C24.2323 7.95812 24.7081 8.43408 24.7081 9.01902C24.7081 9.60396 24.2323 10.0799 23.6472 10.0799C23.0622 10.0799 22.5863 9.60396 22.5863 9.01902C22.5863 8.43408 23.0622 7.95812 23.6472 7.95812Z" fill="currentcolor"/>
</svg>
