<svg width="32" height="32" viewBox="0 0 32 32" fill="none" xmlns="http://www.w3.org/2000/svg">
<path d="M3.99988 22.7766V24.5398C7.52987 26.6193 11.7106 27.7499 15.967 27.7499C20.253 27.7499 24.4627 26.6039 28.008 24.4965V22.728C24.5436 25.0036 20.2994 26.2499 15.967 26.2499C11.6652 26.2499 7.45063 25.0215 3.99988 22.7766Z" fill="currentcolor"/>
<path d="M27.9823 9.2545V7.48825C24.4424 5.39063 20.2426 4.25 15.967 4.25C11.6914 4.25 7.52337 5.38238 3.99175 7.46488V9.2285C7.444 6.98038 11.6619 5.75 15.967 5.75C20.2721 5.75 24.5226 6.98963 27.9823 9.2545Z" fill="currentcolor"/>
<path d="M27.6104 12.073C24.6909 9.15337 20.8641 7.47113 16.7659 7.28788C16.5026 7.26388 16.2364 7.24988 15.967 7.24988C15.6505 7.24988 15.3381 7.26775 15.0302 7.30062C11.0212 7.53687 7.28512 9.20963 4.42175 12.073L2 14.4948V17.5515L4.42175 19.9733C7.5185 23.0699 11.6366 24.7757 16.0161 24.7757C20.3956 24.7757 24.5135 23.0701 27.6105 19.9733L30 17.5838V14.4624L27.6105 12.0729L27.6104 12.073ZM23.217 15.9999C23.217 19.9975 19.9646 23.2499 15.967 23.2499C11.9694 23.2499 8.717 19.9975 8.717 15.9999C8.717 12.273 11.544 9.19513 15.166 8.79513C15.448 8.77938 15.7314 8.7705 16.0161 8.7705C16.2416 8.7705 16.4662 8.77612 16.6901 8.78613C20.3495 9.15025 23.217 12.2463 23.217 15.9999ZM5.48225 18.9126L2.59288 16.0231L5.48225 13.1336C6.61 12.0059 7.887 11.0817 9.26838 10.3786C7.98938 11.9002 7.217 13.8611 7.217 15.9998C7.217 18.1781 8.01912 20.1716 9.341 21.7048C7.93175 20.9971 6.62987 20.06 5.48225 18.9125V18.9126ZM26.5499 18.9126C25.3564 20.1061 23.9956 21.0711 22.521 21.788C23.886 20.2442 24.717 18.2178 24.717 15.9999C24.717 13.8204 23.9141 11.826 22.591 10.2926C24.0386 11.0059 25.3752 11.9592 26.5499 13.1337L29.4392 16.0232L26.5499 18.9126Z" fill="currentcolor"/>
<path d="M15.967 20.7541C18.5861 20.7541 20.717 18.6232 20.717 16.0041C20.717 13.385 18.5861 11.2541 15.967 11.2541V12.7541C17.7591 12.7541 19.217 14.2121 19.217 16.0041C19.217 17.7961 17.7591 19.2541 15.967 19.2541C14.1749 19.2541 12.717 17.7961 12.717 16.0041H11.217C11.217 18.6232 13.3479 20.7541 15.967 20.7541Z" fill="currentcolor"/>
</svg>
