<svg width="32" height="32" viewBox="0 0 32 32" fill="none" xmlns="http://www.w3.org/2000/svg">
<path d="M13.5686 14.0911C13.5686 12.7631 12.4881 11.6826 11.1601 11.6826C9.83212 11.6826 8.75169 12.7631 8.75169 14.0911C8.75169 15.4191 9.83212 16.4995 11.1601 16.4995C12.4881 16.4995 13.5686 15.4191 13.5686 14.0911ZM9.71507 14.0911C9.71507 13.2942 10.3633 12.646 11.1601 12.646C11.957 12.646 12.6052 13.2942 12.6052 14.0911C12.6052 14.8879 11.957 15.5361 11.1601 15.5361C10.3633 15.5361 9.71507 14.8879 9.71507 14.0911Z" fill="currentcolor"/>
<path d="M20.7848 11.6826C19.4568 11.6826 18.3764 12.7631 18.3764 14.0911C18.3764 15.4191 19.4568 16.4995 20.7848 16.4995C22.1129 16.4995 23.1933 15.4191 23.1933 14.0911C23.1933 12.7631 22.1129 11.6826 20.7848 11.6826ZM20.7848 15.5361C19.988 15.5361 19.3398 14.8879 19.3398 14.0911C19.3398 13.2942 19.988 12.646 20.7848 12.646C21.5817 12.646 22.2299 13.2942 22.2299 14.0911C22.2299 14.8879 21.5817 15.5361 20.7848 15.5361Z" fill="currentcolor"/>
<path d="M15.9689 18.4331C13.0473 18.4331 10.6704 20.807 10.6704 23.7248H11.6337C11.6337 21.3382 13.5784 19.3965 15.9689 19.3965C18.3594 19.3965 20.3041 21.3382 20.3041 23.7248H21.2675C21.2675 20.807 18.8906 18.4331 15.9689 18.4331Z" fill="currentcolor"/>
<path d="M16 2C8.28036 2 2 8.28048 2 16C2 23.7195 8.28036 30 16 30C23.7196 30 30.0001 23.7196 30.0001 16C30.0001 8.28036 23.7196 2 16 2ZM16 29.0366C8.81166 29.0366 2.96337 23.1885 2.96337 16C2.96337 8.81154 8.81154 2.96337 16 2.96337C23.1885 2.96337 29.0367 8.81154 29.0367 16C29.0367 23.1885 23.1886 29.0366 16 29.0366Z" fill="currentcolor"/>
</svg>
