<svg width="32" height="32" viewBox="0 0 32 32" fill="none" xmlns="http://www.w3.org/2000/svg">
<path d="M4.44795 25.9037L17.528 21.7139V2H16.51V20.971L4.14178 24.9328C3.067 25.2663 2.25665 26.3508 2.25665 27.4549C2.25665 28.8583 3.39837 30 4.80171 30H25.1622C27.6883 30 29.7433 27.945 29.7433 25.4189C29.7433 24.5393 29.5575 23.842 29.1585 23.2247C28.925 22.8634 28.6106 22.5333 28.2244 22.2437L26.6892 21.0923V2H25.6712V21.6013L27.6136 23.0581C27.9034 23.2753 28.1355 23.5173 28.3034 23.7772C28.5951 24.2286 28.7252 24.7348 28.7252 25.4188C28.7252 27.3834 27.1267 28.9818 25.1621 28.9818H4.80171C3.95968 28.9818 3.27468 28.2968 3.27468 27.4548C3.27468 26.7891 3.78814 26.1085 4.44795 25.9037Z" fill="currentcolor"/>
<path d="M23.6352 21.8558V21.3468H22.6171V21.8558C22.6171 22.9784 21.7037 23.8919 20.5811 23.8919H20.0721V24.9099H20.5811C22.265 24.9099 23.6352 23.5397 23.6352 21.8558Z" fill="currentcolor"/>
</svg>
