<svg width="32" height="32" viewBox="0 0 32 32" fill="none" xmlns="http://www.w3.org/2000/svg">
<path d="M4.62906 25.9285L17.7666 21.7203V2H16.2533V20.6161L4.17394 24.4853C2.98866 24.8532 2.12823 26.0058 2.12823 27.2257C2.12823 28.7555 3.37278 30 4.90258 30H25.0797C27.722 30 29.8717 27.8503 29.8717 25.2079C29.8717 24.2855 29.6748 23.551 29.2517 22.8965C29.004 22.5134 28.6722 22.1645 28.2656 21.8596L26.8452 20.7942V2H25.3319V21.5508L27.3577 23.0702C27.6209 23.2675 27.8306 23.4856 27.9809 23.7181C28.2456 24.1276 28.3585 24.5731 28.3585 25.2079C28.3585 27.0159 26.8875 28.4867 25.0797 28.4867H4.90271C4.20736 28.4867 3.64164 27.921 3.64164 27.2257C3.64164 26.6795 4.08163 26.0985 4.62906 25.9285Z" fill="currentcolor"/>
<path d="M23.8187 21.677V21.1725H22.3055V21.677C22.3055 22.6505 21.5135 23.4424 20.54 23.4424H20.0355V24.9557H20.54C22.3478 24.9557 23.8187 23.4849 23.8187 21.677Z" fill="currentcolor"/>
</svg>
