<svg width="32" height="32" viewBox="0 0 32 32" fill="none" xmlns="http://www.w3.org/2000/svg">
<path d="M27.5318 26.481L26.4806 27.5401L28.9519 29.9929L30.0031 28.9338L27.5318 26.481Z" fill="currentcolor"/>
<path d="M25.0717 26.4827L22.6096 28.9447L23.6648 30L26.1269 27.538L25.0717 26.4827Z" fill="currentcolor"/>
<path d="M28.9408 22.6136L26.4786 25.0755L27.5338 26.1308L29.996 23.6689L28.9408 22.6136Z" fill="currentcolor"/>
<path d="M23.9667 12.3627C23.5549 11.9509 23.1094 11.5931 22.6397 11.2872V13.1614C22.732 13.2441 22.8229 13.3292 22.9115 13.4179C24.1798 14.6863 24.8782 16.3726 24.8781 18.1663C24.8781 19.96 24.1794 21.6462 22.911 22.9145C20.2927 25.5326 16.0326 25.5324 13.4144 22.9141C13.1727 22.6724 12.9521 22.4153 12.7526 22.1453C11.9057 20.9989 11.4478 19.6175 11.4478 18.1658C11.4478 17.9989 11.4559 17.8334 11.4678 17.6686C11.5847 16.0624 12.2644 14.5678 13.4148 13.4175C14.5975 12.2349 16.1154 11.5884 17.6655 11.4742V9.97937C15.7328 10.0958 13.8334 10.8888 12.3597 12.3624C10.9272 13.7947 10.0911 15.6634 9.97197 17.6686C9.96214 17.8335 9.95555 17.999 9.95555 18.1657C9.95555 19.5813 10.3134 20.9414 10.983 22.1453C11.3503 22.8059 11.81 23.4201 12.3592 23.9692C13.9592 25.5695 16.0609 26.3696 18.1629 26.3695C20.0308 26.3695 21.8982 25.7358 23.4139 24.4717L25.0713 26.1307L26.1269 25.0761L24.4696 23.4172C25.6993 21.9454 26.3699 20.1078 26.3701 18.1665C26.3701 15.9743 25.5165 13.9132 23.9664 12.363L23.9667 12.3627Z" fill="currentcolor"/>
<path d="M8.10294 2H2.82191L1.99707 2.82471V8.10525L3.48931 6.61326V3.49224H6.61057L8.10294 2Z" fill="currentcolor"/>
<path d="M20.6251 9.7099C20.2256 8.85833 19.6774 8.07354 18.9925 7.3886C15.9706 4.36694 11.1593 4.19993 7.93805 6.88584L5.75776 4.70555L4.70262 5.76069L6.88229 7.94035C5.65243 9.4122 4.98167 11.2499 4.98155 13.1914C4.98155 15.3836 5.83511 17.4448 7.38517 18.995C7.79703 19.4068 8.24246 19.7647 8.71214 20.0705V18.1961C8.61987 18.1134 8.52897 18.0284 8.44031 17.9397C7.17203 16.6713 6.47366 14.985 6.47379 13.1913C6.47379 11.3976 7.1724 9.71139 8.44081 8.44311C9.75 7.13405 11.4693 6.4797 13.1889 6.4797C14.9084 6.4797 16.6283 7.13442 17.9374 8.44349C18.3235 8.8296 18.6559 9.25489 18.9327 9.70965C19.5653 10.7489 19.9041 11.9442 19.9039 13.1918C19.9039 13.5278 19.8794 13.8599 19.8312 14.1864C19.815 14.2955 19.7962 14.4042 19.7749 14.5122C19.7322 14.7272 19.6791 14.9395 19.6159 15.1481C19.5843 15.2524 19.5501 15.3559 19.5135 15.4585C19.1834 16.3811 18.6503 17.2268 17.9368 17.9402C16.7541 19.1228 15.2362 19.7693 13.6861 19.8835V21.3783C15.6188 21.2619 17.5183 20.4688 18.9919 18.9954C20.3051 17.6822 21.1161 16.002 21.3342 14.1865C21.3737 13.8588 21.396 13.5273 21.396 13.192C21.396 11.9683 21.1296 10.7857 20.6249 9.70978L20.6251 9.7099Z" fill="currentcolor"/>
</svg>
