<svg width="32" height="32" viewBox="0 0 32 32" fill="none" xmlns="http://www.w3.org/2000/svg">
<path d="M16.9654 9.77121V6.82759H15.0344V9.77133C9.89587 10.2594 5.8623 14.5979 5.8623 19.8621C5.8623 25.4521 10.4103 30 16.0002 30C21.5902 30 26.1382 25.4521 26.1382 19.8621C26.1382 14.5977 22.1042 10.259 16.9654 9.77121ZM16.0002 28.069C11.475 28.069 7.79334 24.3873 7.79334 19.8621C7.79334 15.3368 11.475 11.6552 16.0002 11.6552C20.5255 11.6552 24.2071 15.3368 24.2071 19.8621C24.2071 24.3873 20.5255 28.069 16.0002 28.069Z" fill="currentcolor"/>
<path d="M15.9999 3.84812L18.4965 6.34483H21.2274L16.8825 2H15.1173L10.7723 6.34483H13.5033L15.9999 3.84812Z" fill="currentcolor"/>
</svg>
