<svg width="32" height="32" viewBox="0 0 32 32" fill="none" xmlns="http://www.w3.org/2000/svg">
<path d="M26.1379 12.1383C26.1379 6.5481 21.5898 2 15.9996 2C10.4094 2 5.86133 6.5481 5.86133 12.1383C5.86133 17.4027 9.89516 21.7414 15.0341 22.2294V24.2077H16.9652V22.2294C22.1041 21.7414 26.1379 17.4027 26.1379 12.1383ZM7.79243 12.1383C7.79243 7.61287 11.4742 3.9311 15.9996 3.9311C20.525 3.9311 24.2068 7.61287 24.2068 12.1383C24.2068 16.6637 20.525 20.3455 15.9996 20.3455C11.4742 20.3455 7.79243 16.6637 7.79243 12.1383Z" fill="currentcolor"/>
<path d="M15.0341 26.1425L15.0491 30L16.9802 29.9925L16.9652 26.1388H20.8274V24.2077H16.9652V26.135L15.0341 26.1425Z" fill="currentcolor"/>
<path d="M15.0341 24.2077H11.1719V26.1388H15.0341V24.2077Z" fill="currentcolor"/>
</svg>
