<svg width="32" height="32" viewBox="0 0 32 32" fill="none" xmlns="http://www.w3.org/2000/svg">
<path d="M6.75 29.5H5.25V30H6.75V29.5Z" fill="currentcolor"/>
<path d="M24.772 21.7633C24.0191 20.4722 23.0376 19.247 21.7515 18.0001L19.5247 17.9998C20.6525 18.9624 21.7326 20.0156 22.6448 21.2499H13.5V22.7499H23.6095C24.0314 23.5127 24.3876 24.3415 24.6597 25.2499H11V26.7499H25.0155C25.1667 27.5997 25.25 28.5124 25.25 29.4999V29.9999H26.75V29.4999C26.75 26.5764 26.103 24.0457 24.772 21.7633Z" fill="currentcolor"/>
<path d="M21.75 2.5V2H20.25V2.5C20.25 3.50013 20.1892 4.41237 20.0764 5.25H7.01275C6.84025 4.346 6.74975 3.42563 6.75 2.5V2H5.25V2.49988C5.24875 6.74788 6.957 10.9028 9.90313 13.9996L12.0764 14C10.975 13.0498 10.0219 11.9517 9.23838 10.7502L18.0643 10.7526C16.9541 12.371 15.5205 13.5599 14.002 14.6969C13.6896 14.9307 13.3739 15.1624 13.0565 15.3953C12.7831 15.5957 12.5091 15.7968 12.2359 16.0001H12.2169L12.2265 16.0071C8.66738 18.6575 5.25 21.7238 5.25 29.5H6.75C6.75 21.8801 10.2443 19.3176 13.9435 16.6047C17.7814 13.7902 21.75 10.88 21.75 2.5ZM8.37525 9.25012C7.97075 8.4465 7.63638 7.60975 7.37888 6.75H19.8011C19.5808 7.68225 19.2858 8.50913 18.9301 9.25288L8.37525 9.25012Z" fill="currentcolor"/>
</svg>
