<svg width="16" height="16" viewBox="0 0 16 16" xmlns="http://www.w3.org/2000/svg">
<path d="M9.07951 14.9716C10.4961 13.2868 11.3161 11.1982 11.4243 9h-.8764c-.1155 2.14-.96958 4.164-2.43527 5.7453l-.11262.1215-.11263-.1215C6.42169 13.164 5.56763 11.1401 5.45219 9h-.87643c.10825 2.1999.92937 4.2899 2.34781 5.9753C3.97144 14.4906 1.67613 12.0294 1.44682 9H.57007c.25812 3.8687 3.48731 6.9375 7.42031 6.9375 3.93302 0 7.16222-3.0688 7.42032-6.9375h-.8768c-.2287 3.0218-2.513 5.4782-5.45439 5.9716ZM6.92332 2.02475C5.50501 3.71012 4.68394 5.80013 4.57569 8h.87644c.11544-2.14131.97031-4.16631 2.43738-5.748l.1105-.11913.11043.11907C9.57751 3.83369 10.4324 5.85869 10.5479 8h.8764c-.1082-2.19831-.9282-4.28681-2.34454-5.97156C12.0209 2.52194 14.3052 4.97825 14.5339 8h.8767c-.2581-3.86875-3.4873-6.9375-7.42028-6.9375C4.05732 1.0625.82813 4.13125.57007 8h.87675c.22925-3.02938 2.5245-5.4905 5.4765-5.97525ZM4.50951 8.0625H1.50938v.875h3.00013v-.875ZM14.5 8.0625h-3.0094v.875H14.5v-.875ZM10.4875 8.0625H5.51126v.875h4.97624v-.875Z"/>
</svg>