<svg width="32" height="32" viewBox="0 0 32 32" fill="none" xmlns="http://www.w3.org/2000/svg">
<path d="M17.1939 28.9792L17.2096 28.9623C20.2682 25.6624 22.044 21.4339 22.2683 16.9655H21.3012C21.0777 21.1897 19.3941 25.1853 16.5015 28.3061L16.0185 28.8273L15.5355 28.3061C12.6429 25.1853 10.9593 21.1897 10.7359 16.9655H9.76881C9.99305 21.4341 11.7688 25.6625 14.8274 28.9623L14.8463 28.9828C8.51509 28.425 3.46881 23.3219 3.00114 16.9655H2.03369C2.53142 24.2365 8.60476 30 15.9998 30C23.3948 30 29.4681 24.2365 29.9659 16.9655H28.9984C28.5317 23.3084 23.5062 28.4032 17.1939 28.9792Z" fill="currentcolor"/>
<path d="M14.8457 3.01717L14.8319 3.03214C11.7705 6.33276 9.99293 10.5635 9.76869 15.0345H10.7359C10.9593 10.8079 12.6445 6.81009 15.5398 3.68869L16.0186 3.1725L16.4974 3.68857C19.3926 6.81009 21.078 10.8079 21.3014 15.0345H22.2686C22.0444 10.5634 20.2668 6.33276 17.2053 3.03202L17.195 3.02079C23.5069 3.59721 28.5322 8.69188 28.9988 15.0345H29.9662C29.4685 7.76353 23.3952 2 16.0001 2C8.60512 2 2.53142 7.76353 2.03369 15.0345H3.00114C3.46881 8.67824 8.51473 3.57536 14.8457 3.01717Z" fill="currentcolor"/>
<path d="M9.27821 15.5172H3.48486V16.4828H9.27821V15.5172Z" fill="currentcolor"/>
<path d="M28.5702 15.5172H22.759V16.4828H28.5702V15.5172Z" fill="currentcolor"/>
<path d="M20.8219 15.5172H11.2126V16.4828H20.8219V15.5172Z" fill="currentcolor"/>
</svg>
