<svg width="32" height="32" viewBox="0 0 32 32" fill="none" xmlns="http://www.w3.org/2000/svg">
<path d="M20.6667 21.6C18.1435 21.6 16.8806 20.0314 16.1495 18.8404C16.1331 18.8291 16.0812 18.8 15.9753 18.8C15.904 18.8 15.8655 18.8262 15.8531 18.8364L15.8301 18.874C14.9344 20.3368 14.1608 21.6 11.3335 21.6C7.87452 21.6 5.73345 18.6932 5.73345 16C5.73345 12.7028 8.03622 10.4 11.3335 10.4H20.6668C23.3599 10.4 26.2668 12.5411 26.2668 16C26.2668 18.6932 24.1256 21.6 20.6667 21.6ZM15.9753 16.9334C16.7132 16.9334 17.3854 17.2834 17.7297 17.8466C18.5594 19.2044 19.3829 19.7334 20.6667 19.7334C22.9727 19.7334 24.4 17.7955 24.4 16C24.4 13.694 22.4622 12.2667 20.6667 12.2667H11.3333C9.06545 12.2667 7.6 13.7321 7.6 16C7.6 17.7955 9.0273 19.7334 11.3333 19.7334C13.115 19.7334 13.4207 19.2339 14.2381 17.8991L14.2708 17.8458C14.5409 17.4048 15.1307 16.9334 15.9753 16.9334Z" fill="currentcolor"/>
<path d="M3.86667 12.2627H2V18.7961H3.86667V12.2627Z" fill="currentcolor"/>
<path d="M30 12.2627H28.1333V18.7961H30V12.2627Z" fill="currentcolor"/>
</svg>
