<svg width="32" height="32" viewBox="0 0 32 32" fill="none" xmlns="http://www.w3.org/2000/svg">
<path d="M20.8276 10.6897H11.1724C7.9961 10.6897 5.86207 12.8237 5.86207 16C5.86207 18.554 7.89231 21.3104 11.1724 21.3104C13.8267 21.3104 14.4919 20.2242 15.4125 18.721L15.4462 18.666C15.4995 18.5787 15.6787 18.4138 15.9743 18.4138C16.3101 18.4138 16.4964 18.5721 16.5535 18.6655C17.3059 19.8969 18.4717 21.3104 20.8275 21.3104C24.1076 21.3104 26.1378 18.554 26.1378 16C26.1378 12.7199 23.3814 10.6897 20.8275 10.6897H20.8276ZM20.8276 20.3449C19.3244 20.3449 18.3248 19.7125 17.3774 18.1621C17.1665 17.817 16.6872 17.4483 15.9744 17.4483C15.2993 17.4483 14.8244 17.8326 14.6229 18.1617L14.5891 18.2167C13.7215 19.6336 13.2859 20.3449 11.1724 20.3449C8.48876 20.3449 6.82759 18.0895 6.82759 16C6.82759 13.3607 8.53305 11.6552 11.1724 11.6552H20.8276C22.9171 11.6552 25.1724 13.3164 25.1724 16C25.1724 18.0895 23.5112 20.3449 20.8276 20.3449Z" fill="currentcolor"/>
<path d="M2.96552 12.1339H2V18.8925H2.96552V12.1339Z" fill="currentcolor"/>
<path d="M30 12.1339H29.0345V18.8925H30V12.1339Z" fill="currentcolor"/>
</svg>
