<svg width="32" height="32" viewBox="0 0 32 32" fill="none" xmlns="http://www.w3.org/2000/svg">
<path d="M3.96429 23.3684C3.96429 22.6913 4.5152 22.1404 5.19236 22.1404H17.9643C18.6414 22.1404 19.1924 22.6913 19.1924 23.3684V26.3158H20.666V23.3684C20.666 21.8786 19.4541 20.6667 17.9643 20.6667H5.19236C3.70258 20.6667 2.4906 21.8786 2.4906 23.3684V26.3158H3.96429V23.3684Z" fill="currentcolor"/>
<path d="M21.8941 13.7895V15.2632H24.8415C26.6022 15.2632 28.0345 16.6956 28.0345 18.4561H29.5081C29.5081 15.883 27.4147 13.7895 24.8415 13.7895H21.8941Z" fill="currentcolor"/>
<path d="M29.7549 20.6667H21.8941V22.1404H29.7549V20.6667Z" fill="currentcolor"/>
<path d="M11.0872 18.2105C13.6604 18.2105 15.7539 16.117 15.7539 13.5439C15.7539 10.9707 13.6604 8.87719 11.0872 8.87719C8.51404 8.87719 6.42055 10.9707 6.42055 13.5439C6.42055 16.117 8.51404 18.2105 11.0872 18.2105ZM11.0872 10.3509C12.8479 10.3509 14.2802 11.7833 14.2802 13.5439C14.2802 15.3044 12.8479 16.7368 11.0872 16.7368C9.32653 16.7368 7.89423 15.3044 7.89423 13.5439C7.89423 11.7833 9.32653 10.3509 11.0872 10.3509Z" fill="currentcolor"/>
<path d="M20.9118 11.3333C23.485 11.3333 25.5784 9.23984 25.5784 6.66667C25.5784 4.09349 23.485 2 20.9118 2C18.3386 2 16.2451 4.09349 16.2451 6.66667C16.2451 9.23984 18.3386 11.3333 20.9118 11.3333ZM20.9118 3.47368C22.6725 3.47368 24.1048 4.90611 24.1048 6.66667C24.1048 8.42723 22.6725 9.85965 20.9118 9.85965C19.1511 9.85965 17.7188 8.42723 17.7188 6.66667C17.7188 4.90611 19.1511 3.47368 20.9118 3.47368Z" fill="currentcolor"/>
<path d="M20.9128 28.5263H2.24609V30H20.9128V28.5263Z" fill="currentcolor"/>
</svg>
