<svg width="32" height="32" viewBox="0 0 32 32" fill="none" xmlns="http://www.w3.org/2000/svg">
<path d="M18.6473 24.3995L18.2699 24.6181V29.9999H19.7831V25.4585C19.9639 25.3222 20.1324 25.17 20.2861 25.0042C20.9899 25.7638 21.9895 26.2168 23.0618 26.2168C25.1478 26.2168 26.8449 24.5197 26.8449 22.4337C26.8449 21.3662 26.3952 20.3698 25.6406 19.6661C26.4036 18.9622 26.8586 17.9607 26.8586 16.8852C26.8586 15.8096 26.4036 14.808 25.6406 14.1041C26.3952 13.4005 26.8449 12.4041 26.8449 11.3367C26.8449 10.2634 26.3918 9.26365 25.6314 8.55987C26.3916 7.85609 26.8449 6.85647 26.8449 5.78309C26.8449 3.69709 25.1478 2 23.0618 2C21.9902 2 20.9913 2.4522 20.2875 3.21109C19.5837 2.4522 18.5849 2 17.5133 2C16.4416 2 15.4428 2.4522 14.739 3.21109C14.0352 2.4522 13.0363 2 11.9647 2C10.8931 2 9.89425 2.4522 9.19046 3.21109C8.48669 2.4522 7.48782 2 6.4162 2C4.33021 2 2.63312 3.69709 2.63312 5.78309C2.63312 6.85635 3.08621 7.85609 3.84661 8.55987C3.08633 9.26352 2.63312 10.2633 2.63312 11.3367C2.63312 12.41 3.08532 13.4071 3.84421 14.1109C3.08532 14.8147 2.63312 15.8136 2.63312 16.8852C2.63312 18.9712 4.33021 20.6683 6.4162 20.6683C8.5022 20.6683 10.1993 18.9712 10.1993 16.8852C10.1993 15.8136 9.74708 14.8147 8.9882 14.1109C9.74708 13.4071 10.1993 12.4083 10.1993 11.3367C10.1993 10.265 9.74633 9.2639 8.98618 8.56025C9.05705 8.49467 9.1254 8.42645 9.19097 8.35571C9.89475 9.11422 10.8934 9.5663 11.9647 9.5663C13.0361 9.5663 14.0352 9.11409 14.739 8.35521C15.4428 9.11409 16.4416 9.5663 17.5133 9.5663C18.5849 9.5663 19.5837 9.11409 20.2875 8.35521C20.3532 8.42595 20.4214 8.49417 20.4924 8.55962C19.7319 9.26327 19.2787 10.263 19.2787 11.3367C19.2787 12.4103 19.7335 13.4138 20.4967 14.1177C19.7421 14.8214 19.2924 15.8177 19.2924 16.8852C19.2924 17.9526 19.7421 18.9492 20.4968 19.6529C20.4245 19.7197 20.3547 19.7895 20.2878 19.8618C19.584 19.1029 18.5851 18.6507 17.5134 18.6507C15.4274 18.6507 13.7303 20.3478 13.7303 22.4338C13.7303 23.6274 14.3004 24.7498 15.2435 25.4593V30H16.7568V24.6181L16.3791 24.3995C15.6786 23.9941 15.2435 23.2409 15.2435 22.4338C15.2435 21.1823 16.2618 20.164 17.5134 20.164C18.3783 20.164 19.1631 20.6558 19.5453 21.425H21.0329C21.2542 20.98 21.6103 20.6234 22.0531 20.4031V18.9103C21.2918 18.5254 20.8058 17.7442 20.8058 16.8853C20.8058 16.0264 21.2918 15.2451 22.0531 14.8603V13.3689C21.2837 12.9866 20.7921 12.2022 20.7921 11.3368C20.7921 10.4713 21.2836 9.68698 22.0531 9.30463V7.81233C21.61 7.59203 21.2543 7.23768 21.0338 6.79708H19.5429C19.1597 7.56353 18.3763 8.05319 17.5134 8.05319C16.6505 8.05319 15.8671 7.56353 15.4839 6.79708H13.9944C13.6111 7.56353 12.8278 8.05319 11.9649 8.05319C11.1019 8.05319 10.3186 7.56353 9.93535 6.79708H8.44444C8.22338 7.23919 7.86765 7.59405 7.42515 7.81397V9.30463C8.1945 9.68698 8.68618 10.4715 8.68618 11.3367C8.68618 12.2018 8.19438 12.9862 7.42515 13.3685V14.8533C8.19438 15.2356 8.68618 16.0205 8.68618 16.8852C8.68618 18.1367 7.6679 19.155 6.41633 19.155C5.16476 19.155 4.14648 18.1367 4.14648 16.8852C4.14648 16.0205 4.63828 15.2356 5.40751 14.8533V13.3685C4.63828 12.9862 4.14648 12.2013 4.14648 11.3367C4.14648 10.472 4.63815 9.68685 5.40751 9.30463V7.81523C4.63815 7.43289 4.14648 6.6484 4.14648 5.78321C4.14648 4.53164 5.16476 3.51336 6.41633 3.51336C7.28291 3.51336 8.06916 4.0073 8.45062 4.77931H9.93069C10.3122 4.0073 11.0984 3.51336 11.965 3.51336C12.8316 3.51336 13.6178 4.0073 13.9993 4.77931H15.4793C15.8608 4.0073 16.6471 3.51336 17.5136 3.51336C18.3802 3.51336 19.1665 4.0073 19.5479 4.77931H21.028C21.4095 4.0073 22.1957 3.51336 23.0623 3.51336C24.3139 3.51336 25.3321 4.53164 25.3321 5.78321C25.3321 6.6484 24.8405 7.43289 24.0711 7.81523V9.30476C24.8405 9.6871 25.3321 10.4716 25.3321 11.3368C25.3321 12.202 24.8402 12.9861 24.0711 13.3684V14.8466C24.8484 15.2264 25.3459 16.0148 25.3459 16.8853C25.3459 17.7558 24.8484 18.5442 24.0711 18.924V20.4022C24.8402 20.7847 25.3321 21.5699 25.3321 22.434C25.3321 23.6855 24.3139 24.7038 23.0623 24.7038C22.1976 24.7038 21.4127 24.212 21.0304 23.4428H19.5451C19.3474 23.839 19.0332 24.1766 18.6478 24.3996L18.6473 24.3995Z" fill="currentcolor"/>
<path d="M17.0088 17.6419V16.1287C13.8104 16.1287 11.2081 18.7309 11.2081 21.9294H12.7213C12.7213 19.5652 14.6447 17.6419 17.0088 17.6419Z" fill="currentcolor"/>
<path d="M29.3669 22.9382H27.8537C27.8537 25.3024 25.9304 27.2257 23.5662 27.2257V28.739C26.7647 28.739 29.3669 26.1367 29.3669 22.9382Z" fill="currentcolor"/>
</svg>
