<svg width="32" height="32" viewBox="0 0 32 32" fill="none" xmlns="http://www.w3.org/2000/svg">
<path d="M29.75 15C29.75 12.3809 27.6191 10.25 25 10.25H16.9993C17.4861 9.60475 17.75 8.82312 17.75 8.0005V2.00025H16.25V8.0005C16.25 8.60075 16.016 9.16487 15.5913 9.589C15.1674 10.0122 14.6044 10.2451 14.0055 10.2451H14.0017V10.25H8.5V11.75H25C26.792 11.75 28.25 13.2079 28.25 15C28.25 16.7921 26.792 18.25 25 18.25H22.1588C22.107 18.2484 22.0553 18.2463 22.0033 18.2463L6.49975 18.25L6.50012 19.75L17.5 19.7474V19.75H22.1585C22.9674 19.7879 23.7225 20.1206 24.2991 20.697C24.9126 21.3104 25.2506 22.126 25.2506 22.9974C25.2506 23.8647 24.9129 24.6804 24.2996 25.2939C23.6863 25.9072 22.8706 26.2451 22.0033 26.2451H17.7509C16.9238 26.2451 16.2509 26.9181 16.2509 27.7453V29.9999H17.7509V27.7453H22.0033C23.2714 27.745 24.4636 27.2511 25.3603 26.3544C26.257 25.4576 26.7508 24.2653 26.7506 22.9934C26.7506 21.7676 26.288 20.6136 25.4473 19.7281C27.8573 19.5019 29.7499 17.468 29.7499 14.9999L29.75 15Z" fill="currentcolor"/>
<path d="M22.5 23.75V22.25H7.00087C5.20837 22.25 3.75 20.7916 3.75 18.9991C3.75 17.2066 5.20775 15.749 6.99937 15.7481L8.92962 15.7472C8.95287 15.7476 8.976 15.749 8.99925 15.749L25.5001 15.7451L25.4998 14.2451L13.9994 14.2479V14.2451L8.92962 14.2474C8.088 14.2297 7.29925 13.8947 6.702 13.2976C6.088 12.6839 5.75 11.8678 5.75 10.9995C5.75 9.20775 7.20775 7.75 8.9995 7.75H12.251C13.0781 7.75 13.751 7.07713 13.751 6.25V2H12.251V6.25H8.9995C6.38063 6.25 4.25 8.38063 4.25 10.9995C4.25 12.2684 4.74425 13.4611 5.6415 14.3584C5.665 14.3819 5.6895 14.404 5.7135 14.4269C3.71775 14.9899 2.25 16.826 2.25 18.9991C2.25 21.6187 4.38125 23.75 7.00087 23.75H13.0002C12.53 24.3759 12.251 25.1532 12.251 25.9946V30H13.751V25.9946C13.751 24.757 14.758 23.75 15.9956 23.75H22.5Z" fill="currentcolor"/>
</svg>
