<svg width="32" height="32" viewBox="0 0 32 32" fill="none" xmlns="http://www.w3.org/2000/svg">
<path d="M30 17.5717C30 16.6544 29.4717 15.8599 28.7045 15.4713C28.8599 15.1572 28.9497 14.8049 28.9497 14.4313C28.9497 13.1325 27.8931 12.0758 26.5945 12.0758H21.3633C21.0878 12.0758 20.8244 12.1258 20.5784 12.2131V6.05632C20.5782 4.75739 19.5214 3.70068 18.2226 3.70068C17.5933 3.70068 17.0017 3.94579 16.5569 4.39072C16.1121 4.83564 15.867 5.4274 15.8671 6.05658V7.34569C15.8675 8.53326 15.2353 9.65095 14.2175 10.2626L12.0091 11.5898C11.48 11.9078 10.874 12.0758 10.2566 12.0758H8.27729V13.6461H10.2566C11.1589 13.6461 12.0447 13.4005 12.8179 12.9357L15.0263 11.6085C16.5141 10.7146 17.4381 9.08118 17.4377 7.34543V6.05632C17.4376 5.84642 17.5192 5.64934 17.6675 5.50094C17.8158 5.35255 18.0131 5.27089 18.2229 5.27089C18.6559 5.27089 19.0082 5.62317 19.0082 6.05619L19.0084 14.421C19.0084 14.4245 19.0079 14.4278 19.0079 14.4313C19.0079 14.4348 19.0084 14.4381 19.0084 14.4416V15.6745L17.9358 16.7473C16.8976 17.7853 15.5176 18.357 14.0494 18.357H10.3699V19.9274H14.0494C15.9342 19.9274 17.7062 19.1943 19.0404 17.8631C19.1004 18.3469 19.3077 18.7847 19.616 19.132C19.2238 19.5629 19.0069 20.1158 19.0069 20.7043C19.0069 21.9611 19.9936 22.9889 21.2324 23.0614C21.1472 23.3055 21.1005 23.5642 21.1005 23.8315C21.1005 24.4609 21.3457 25.0523 21.7907 25.4972C22.2356 25.9419 22.827 26.187 23.4562 26.187L25.548 26.1867C26.8466 26.1867 27.9032 25.13 27.9032 23.8312C27.9032 23.4645 27.815 23.1187 27.6623 22.8097C28.4255 22.4196 28.9501 21.627 28.9501 20.7127C28.9501 20.3447 28.8639 19.9916 28.7049 19.6727C29.4721 19.284 30 18.4895 30 17.5717ZM21.3758 18.3571C20.9427 18.3571 20.5904 18.0051 20.5904 17.5722C20.5904 17.1394 20.9401 16.7898 21.3709 16.7871L27.6449 16.7868C28.0776 16.7868 28.4298 17.1388 28.4298 17.5728C28.4298 18.0067 28.0776 18.3571 27.6449 18.3571H21.3758ZM21.3633 13.6461H26.5945C27.0272 13.6461 27.3794 13.9983 27.3794 14.4313C27.3794 14.8643 27.0274 15.2165 26.5945 15.2165H21.3758C21.3741 15.2165 21.3724 15.2167 21.3707 15.2167H21.3633C20.9338 15.2167 20.5841 14.87 20.5785 14.4418V14.4211C20.5841 13.9929 20.9337 13.6461 21.3633 13.6461ZM20.5768 20.7045C20.5768 20.4974 20.6568 20.3037 20.8019 20.159C20.9517 20.0095 21.1535 19.9275 21.3705 19.9275H21.3732L26.5918 19.9445H26.5946C26.8074 19.9445 27.006 20.0245 27.1535 20.1701C27.299 20.3135 27.3792 20.5062 27.3792 20.7127C27.3792 21.1457 27.0272 21.4978 26.5943 21.4978H25.549C25.549 21.4978 25.548 21.4978 25.5474 21.4978H23.4556C23.4541 21.4978 23.4524 21.4981 23.4508 21.4981H21.3706C20.9329 21.4982 20.5769 21.1423 20.5768 20.7045ZM25.5474 24.6165L23.4558 24.6168C23.0227 24.6168 22.6705 24.2646 22.6705 23.8316C22.6705 23.6262 22.7502 23.4347 22.895 23.2927C23.0414 23.1492 23.2387 23.0697 23.4508 23.0686H25.5491C25.9884 23.0692 26.3323 23.4041 26.3323 23.8313C26.3323 24.2644 25.9803 24.6165 25.5474 24.6165Z" fill="currentcolor"/>
<path d="M10.1083 22.8064V22.283H8.53796V22.8064C8.53796 24.8416 9.90533 26.2088 11.9404 26.2088H18.7459V24.6385H11.9404C10.7761 24.6385 10.1083 23.9707 10.1083 22.8064Z" fill="currentcolor"/>
<path d="M2 11.6174H4.35158V26.7289H2V28.2992H5.92191V10.0471H2V11.6174Z" fill="currentcolor"/>
</svg>
