<svg width="32" height="32" viewBox="0 0 32 32" fill="none" xmlns="http://www.w3.org/2000/svg">
<path d="M24.0002 13.0006C25.93 13.0006 27.5002 11.4304 27.5002 9.50057C27.5002 7.57069 25.93 6.00057 24.0002 6.00057C22.0703 6.00057 20.5002 7.57069 20.5002 9.50057C20.5002 11.4304 22.0703 13.0006 24.0002 13.0006ZM24.0002 8.00057C24.8273 8.00057 25.5002 8.67344 25.5002 9.50057C25.5002 10.3277 24.8273 11.0006 24.0002 11.0006C23.173 11.0006 22.5002 10.3277 22.5002 9.50057C22.5002 8.67344 23.173 8.00057 24.0002 8.00057Z" fill="currentcolor"/>
<path d="M18.5303 2.05457C17.7428 1.90232 16.9464 2.06969 16.2872 2.52607L4.50015 10.6858V30.0006H6.50015V11.7338L17.4255 4.17057C17.6385 4.02294 17.896 3.96907 18.1502 4.01819C18.4045 4.06744 18.623 4.21357 18.7657 4.42994C19.0135 4.80594 18.9628 5.31019 18.6448 5.62919L11.5 12.7964V23.2091H17.5082L22.3522 16.5776C22.626 16.2027 23.115 16.0687 23.542 16.2518C23.804 16.3642 23.9984 16.5748 24.0897 16.8449C24.1808 17.1151 24.1539 17.4004 24.0137 17.6487L17.034 30.0006H19.3312L25.7548 18.6326C26.1723 17.8939 26.256 17.0092 25.9845 16.2052C25.7132 15.4013 25.1103 14.7483 24.3307 14.4138C23.0419 13.8609 21.5644 14.2656 20.7373 15.3979L16.4924 21.2091H13.5002V13.6229L20.0614 7.04119C21.0455 6.05394 21.2029 4.49257 20.4354 3.32894C19.9942 2.65957 19.3177 2.20694 18.5304 2.05457H18.5303Z" fill="currentcolor"/>
</svg>
