<svg width="32" height="32" viewBox="0 0 32 32" fill="none" xmlns="http://www.w3.org/2000/svg">
<path d="M24.5459 7.04658C24.2804 7.04658 24.0265 7.09476 23.7895 7.17889V5.27639C23.7895 4.02471 22.771 3.00636 21.5188 3.00636C21.158 3.00636 20.8177 3.09327 20.5145 3.24361C20.1389 2.5069 19.3743 2 18.4918 2C17.24 2 16.2215 3.01835 16.2215 4.27003V5.16137C15.9844 5.07711 15.7304 5.02893 15.4647 5.02893C14.8583 5.02893 14.2882 5.26504 13.8594 5.69375C13.4306 6.12245 13.1943 6.69254 13.1945 7.29896V16.6857L8.92281 12.803C8.0427 11.937 6.72442 11.9413 5.84859 12.8168C5.41976 13.2455 5.18365 13.7939 5.18365 14.3607C5.18365 14.9275 5.41976 15.476 5.84859 15.9047L13.1945 23.2492V30H14.708V22.6222L6.91865 14.8343C6.77373 14.6894 6.69705 14.5255 6.69705 14.3605C6.69705 14.1956 6.77361 14.032 6.91853 13.8869C7.21543 13.5904 7.56985 13.59 7.8665 13.8869L12.8263 18.396H14.7079V7.29896C14.7079 7.09691 14.7866 6.90696 14.9295 6.76406C15.0724 6.62116 15.2624 6.54245 15.4646 6.54245C15.8818 6.54245 16.2214 6.88173 16.2214 7.29896V7.91231L16.2218 14.8553H17.7353L17.7349 7.29896V4.27003C17.7349 3.8528 18.0743 3.51352 18.492 3.51352C18.9098 3.51352 19.2488 3.8528 19.2488 4.27003V5.26782C19.2488 5.27072 19.2484 5.27349 19.2484 5.27639V8.91868H19.2488V14.8628H20.7623V5.26782C20.767 4.85463 21.1042 4.51976 21.5191 4.51976C21.9364 4.51976 22.2758 4.85904 22.2758 5.27627V9.30803C22.2758 9.31093 22.2755 9.31371 22.2755 9.31661V12.954H22.2758V14.8603H23.7894V9.30803C23.794 8.89484 24.1313 8.55998 24.5461 8.55998C24.9635 8.55998 25.3029 8.89926 25.3029 9.31648V18.3963H25.3025V23.4414C25.3025 24.5636 24.6589 25.2072 23.5367 25.2072H23.0322V26.7207H23.5367C23.8015 26.7207 24.0539 26.696 24.2935 26.6496V30H25.807V25.916C26.4462 25.3385 26.816 24.4802 26.816 23.4414V20.2951H26.8164V9.31648C26.8164 8.0648 25.7979 7.04646 24.5457 7.04646L24.5459 7.04658Z" fill="currentcolor"/>
</svg>
