<svg width="32" height="32" viewBox="0 0 32 32" fill="none" xmlns="http://www.w3.org/2000/svg">
<path d="M29.8323 18.8874C29.8323 17.3661 28.5946 16.1283 27.0732 16.1283C26.6123 16.1283 26.1778 16.2425 25.7956 16.4432V15.8598C25.7956 14.3385 24.5578 13.1007 23.0365 13.1007C22.4495 13.1007 21.9052 13.2856 21.4575 13.5993C21.0005 12.7054 20.0708 12.0916 18.9998 12.0916C18.5453 12.0916 18.1165 12.2027 17.738 12.3982V8.80075C17.7379 7.27386 16.4955 6.03143 14.9685 6.03143C14.2258 6.03143 13.5284 6.32144 13.0049 6.84798C12.4812 7.37452 12.1951 8.07363 12.1992 8.81147L12.1891 22.2999L6.17888 16.975C5.67732 16.5307 5.03359 16.3181 4.36614 16.3747C3.69857 16.4319 3.1005 16.7515 2.68194 17.2747C1.91673 18.2314 1.98687 19.6095 2.84442 20.4834L11.922 29.9996H14.014L3.93598 19.4346L3.92702 19.4254C3.6037 19.0978 3.57671 18.5798 3.86407 18.2205C4.021 18.0243 4.24516 17.9046 4.49544 17.8831C4.74559 17.8618 4.98691 17.9415 5.175 18.1082L11.8033 23.981H13.7016L13.7128 8.80819C13.7109 8.4715 13.8406 8.15449 14.0781 7.91582C14.3155 7.67703 14.6318 7.54558 14.9685 7.54558C15.6608 7.54558 16.2242 8.10883 16.2242 8.80113L16.2245 20.6913H16.2407V21.9475C16.2407 23.4688 17.4784 24.7066 18.9998 24.7066C19.7972 24.7066 20.5163 24.3661 21.0205 23.8234C21.0431 23.8476 21.0637 23.8733 21.0871 23.8968C21.6083 24.4171 22.3003 24.7034 23.0365 24.7034H23.041C23.8344 24.7022 24.55 24.3635 25.0531 23.8241C25.5572 24.3665 26.2761 24.7067 27.0732 24.7067C27.5243 24.7067 27.9502 24.5972 28.3266 24.4043L28.3176 30H29.8313L29.8485 19.3791H29.8323V18.8874ZM20.2451 21.9474C20.2451 22.634 19.6865 23.1927 18.9998 23.1927C18.313 23.1927 17.7544 22.6341 17.7544 21.9474V14.8507C17.7544 14.164 18.313 13.6053 18.9998 13.6053C19.6865 13.6053 20.2451 14.1639 20.2451 14.8507V21.9474ZM24.2818 21.9441C24.2818 22.6297 23.7241 23.1883 23.0387 23.1894H23.0366C22.7044 23.1894 22.392 23.0602 22.1567 22.8253C21.9211 22.5901 21.7913 22.2771 21.7913 21.9441V15.8598C21.7913 15.1732 22.3499 14.6145 23.0366 14.6145C23.7234 14.6145 24.282 15.1731 24.282 15.8598L24.2818 21.9441ZM28.3186 21.9474C28.3186 22.634 27.76 23.1927 27.0732 23.1927C26.3865 23.1927 25.8279 22.6341 25.8279 21.9474V18.8874C25.8279 18.2008 26.3865 17.6421 27.0732 17.6421C27.76 17.6421 28.3186 18.2006 28.3186 18.8874V21.9474Z" fill="currentcolor"/>
<path d="M21.7752 8.79621C21.7752 5.04874 18.7264 2 14.9789 2V3.51377C17.8917 3.51377 20.2614 5.88346 20.2614 8.79621V8.80201L21.7752 8.79621Z" fill="currentcolor"/>
</svg>
