<svg width="32" height="32" viewBox="0 0 32 32" fill="none" xmlns="http://www.w3.org/2000/svg">
<path d="M13.7706 12.4485H11.3215L6.21984 17.5501C5.96089 17.809 5.61748 17.9417 5.25112 17.924C4.88526 17.9063 4.55568 17.7408 4.3231 17.4579C3.90538 16.95 3.9381 16.2133 4.39919 15.7444L10.139 9.9072H14.7863V7.8782H9.28858L2.95251 14.3218C1.76174 15.5327 1.67741 17.4349 2.75608 18.7467C3.34817 19.4666 4.22178 19.9054 5.15271 19.9506C5.2061 19.9533 5.25923 19.9544 5.31249 19.9544C5.76737 19.9544 6.21413 19.8595 6.62589 19.6817L13.7708 12.536V12.4484L13.7706 12.4485Z" fill="currentcolor"/>
<path d="M30 8.96067V6.93167H25.9457V25.1264H30V23.0974H27.9747V8.96067H30Z" fill="currentcolor"/>
<path d="M8.31504 22.0813C8.31504 22.0708 8.31567 22.0603 8.3158 22.0498L7.26338 23.1023H6.66914V22.5079L8.93883 20.238C9.10432 20.0213 9.29822 19.8274 9.51494 19.6619L20.365 8.81078L20.9593 9.40515L11.3266 19.0387C11.3372 19.0387 11.3478 19.038 11.3585 19.038H14.1967L22.9012 10.3327V8.47764L21.2924 6.8689H19.4375L4.64026 21.6677V25.1313H8.10402L9.10762 24.1276C8.61546 23.5867 8.31504 22.8685 8.31504 22.0813Z" fill="currentcolor"/>
<path d="M22.5673 20.0573L19.0514 22.6621C18.6722 22.943 18.213 23.0951 17.7411 23.0957H11.3943C10.8545 23.0957 10.3823 22.6893 10.3463 22.1507C10.3068 21.56 10.7761 21.0667 11.3585 21.0667H16.431V19.0377H11.3585C11.3479 19.0377 11.3374 19.0385 11.3266 19.0385C11.0234 19.0416 10.7304 19.0887 10.4545 19.1747C10.1113 19.2817 9.79443 19.4483 9.51494 19.6619C9.29822 19.8274 9.10445 20.0213 8.93883 20.238C8.55383 20.7422 8.32277 21.3693 8.3158 22.0495C8.3158 22.06 8.31504 22.0706 8.31504 22.0811C8.31504 22.8682 8.61546 23.5865 9.10749 24.1273C9.46789 24.5234 9.93101 24.8244 10.4545 24.9875C10.7402 25.0765 11.0439 25.1246 11.3585 25.1246H17.7316C17.7811 25.1246 17.8303 25.1237 17.8791 25.1219C18.764 25.0905 19.6144 24.77 20.3258 24.2429L23.237 22.086H23.9176V20.057H22.5673V20.0573Z" fill="currentcolor"/>
</svg>
