<svg width="32" height="32" viewBox="0 0 32 32" fill="none" xmlns="http://www.w3.org/2000/svg">
<path d="M13.0991 7.04504H14.6126C14.6126 6.90593 14.7257 6.79279 14.8649 6.79279H19.9099V5.27928H14.8649C13.8912 5.27928 13.0991 6.07135 13.0991 7.04504Z" fill="currentcolor"/>
<path d="M8.30631 7.8018H10.5766V6.03604C10.5766 4.78423 11.595 3.76577 12.8468 3.76577H19.9099V2.25225H12.8468C10.7605 2.25225 9.06306 3.94966 9.06306 6.03604V6.28829H8.30631C7.88896 6.28829 7.54955 5.94888 7.54955 5.53153V2H6.03604V5.53153C6.03604 6.78333 7.0545 7.8018 8.30631 7.8018Z" fill="currentcolor"/>
<path d="M16.8829 13.8559C19.8038 13.8559 22.1802 16.2322 22.1802 19.1532V28.1081C22.1802 28.3167 22.0104 28.4865 21.8018 28.4865H12.8468C7.7004 28.4865 3.51351 24.2996 3.51351 19.1532V2H2V19.1532C2 25.1342 6.86582 30 12.8468 30H21.8018C22.845 30 23.6937 29.1513 23.6937 28.1081V19.1532C23.6937 17.0153 22.7028 15.1055 21.157 13.8559H30V12.3423H16.8829V13.8559Z" fill="currentcolor"/>
<path d="M13.5424 8.30631L5.78378 16.065V18.2052L14.1693 9.81982H30V8.30631H13.5424Z" fill="currentcolor"/>
<path d="M12.3423 25.964V24.4505C9.47562 24.4505 7.54955 22.7272 7.54955 20.1622H6.03604C6.03604 23.5782 8.62932 25.964 12.3423 25.964Z" fill="currentcolor"/>
</svg>
