<?xml version="1.0" encoding="UTF-8"?>
<svg version="1.1" xmlns="http://www.w3.org/2000/svg" width="244" height="78">
<path d="M0 0 C80.52 0 161.04 0 244 0 C244 25.74 244 51.48 244 78 C163.48 78 82.96 78 0 78 C0 52.26 0 26.52 0 0 Z " fill="#FDFDFE" transform="translate(0,0)"/>
<path d="M0 0 C7.59 0 15.18 0 23 0 C23 0.99 23 1.98 23 3 C16.73 3 10.46 3 4 3 C3.690625 4.77375 3.38125 6.5475 3.0625 8.375 C2.125 13.75 2.125 13.75 1 16 C6.61 16 12.22 16 18 16 C18 16.99 18 17.98 18 19 C12.06 19 6.12 19 0 19 C-0.66 23.29 -1.32 27.58 -2 32 C4.27 32 10.54 32 17 32 C16.67 33.32 16.34 34.64 16 36 C12.54173658 36.05789006 9.08359707 36.09355821 5.625 36.125 C4.64015625 36.14175781 3.6553125 36.15851562 2.640625 36.17578125 C1.69960937 36.18222656 0.75859375 36.18867187 -0.2109375 36.1953125 C-1.51490479 36.21102295 -1.51490479 36.21102295 -2.84521484 36.22705078 C-5 36 -5 36 -7 34 C-7.78901838 26.46846095 -5.54788221 19.69526182 -3.5 12.5 C-3.16613281 11.29601562 -2.83226562 10.09203125 -2.48828125 8.8515625 C-1.66798348 5.89849053 -0.83523266 2.94888265 0 0 Z " fill="#801459" transform="translate(66,24)"/>
<path d="M0 0 C0.76183594 -0.02578125 1.52367187 -0.0515625 2.30859375 -0.078125 C5.21992612 0.34570848 6.53792253 1.11886582 8.5625 3.25 C8.8046875 5.5625 8.8046875 5.5625 8.4375 8.25 C8.24994141 9.69826172 8.24994141 9.69826172 8.05859375 11.17578125 C7.29904522 15.88258988 6.49408815 20.57397014 5.5625 25.25 C2.33942845 26.19482476 -0.64558753 26.44523408 -4 26.5 C-4.95003906 26.52578125 -5.90007812 26.5515625 -6.87890625 26.578125 C-9.4375 26.25 -9.4375 26.25 -11.28125 24.98046875 C-12.96469054 22.46099524 -12.47199438 20.19565936 -12.15234375 17.28515625 C-11.13736951 14.39553015 -9.87785142 13.09354856 -7.4375 11.25 C-4.421875 10.859375 -4.421875 10.859375 -1.1875 11 C-0.10984375 11.03609375 0.9678125 11.0721875 2.078125 11.109375 C3.30789062 11.17898437 3.30789062 11.17898437 4.5625 11.25 C4.2325 8.94 3.9025 6.63 3.5625 4.25 C-0.0675 4.25 -3.6975 4.25 -7.4375 4.25 C-7.4375 3.26 -7.4375 2.27 -7.4375 1.25 C-4.69320004 0.33523335 -2.84716906 0.05761556 0 0 Z " fill="#1F7794" transform="translate(155.4375,33.75)"/>
<path d="M0 0 C3 1.3125 3 1.3125 5 4 C5.11543014 7.82018803 4.58945632 11.19120533 4 15 C-0.95 15 -5.9 15 -11 15 C-10.67 17.31 -10.34 19.62 -10 22 C-6.04 22 -2.08 22 2 22 C2 22.99 2 23.98 2 25 C-1.03236443 26.01078814 -3.32053167 26.2313039 -6.5 26.3125 C-7.4590625 26.34988281 -8.418125 26.38726562 -9.40625 26.42578125 C-12 26 -12 26 -13.8203125 24.20703125 C-16.45070479 19.2859331 -15.14307078 13.90501138 -13.8125 8.75 C-12.76082667 5.57052248 -11.96898627 3.96381732 -9.75 1.375 C-6.16974491 -0.41512754 -3.95790225 -0.56541461 0 0 Z " fill="#1B93A1" transform="translate(198,34)"/>
<path d="M0 0 C1.32 0 2.64 0 4 0 C2.28294261 10.74074198 0.40553046 21.38836919 -2 32 C1.63 32 5.26 32 9 32 C9 33.32 9 34.64 9 36 C6.68756208 36.02685412 4.3750373 36.04632841 2.0625 36.0625 C0.77472656 36.07410156 -0.51304688 36.08570313 -1.83984375 36.09765625 C-5 36 -5 36 -6 35 C-6.22217262 30.17787834 -5.72750316 25.89308721 -4.6875 21.19140625 C-4.41679688 19.95068359 -4.14609375 18.70996094 -3.8671875 17.43164062 C-3.58101563 16.15482422 -3.29484375 14.87800781 -3 13.5625 C-2.71026995 12.2455894 -2.42120142 10.92853307 -2.1328125 9.61132812 C-1.42835815 6.40606085 -0.71723193 3.20242787 0 0 Z " fill="#81165A" transform="translate(95,24)"/>
<path d="M0 0 C2.4375 1 2.4375 1 4 2 C4 2.66 4 3.32 4 4 C3.31292969 3.98839844 2.62585938 3.97679687 1.91796875 3.96484375 C1.01691406 3.95582031 0.11585938 3.94679687 -0.8125 3.9375 C-1.70582031 3.92589844 -2.59914062 3.91429687 -3.51953125 3.90234375 C-6.13413791 3.88990033 -6.13413791 3.88990033 -9 5 C-11.20018889 10.3769322 -11.20783455 16.28454981 -11 22 C-7.37 22 -3.74 22 0 22 C0 22.99 0 23.98 0 25 C-2.46369532 26.23184766 -4.1894501 26.16732342 -6.9375 26.1875 C-7.81277344 26.20167969 -8.68804687 26.21585938 -9.58984375 26.23046875 C-12 26 -12 26 -15 24 C-15.99942484 16.9942278 -15.7504266 10.07827759 -12 4 C-8.22365569 -0.09103967 -5.47542969 -0.5973196 0 0 Z " fill="#1D5986" transform="translate(138,34)"/>
<path d="M0 0 C1.32 0 2.64 0 4 0 C3.45548361 8.22147429 2.12288195 16.12882497 0.4375 24.1875 C0.20353516 25.33025391 -0.03042969 26.47300781 -0.27148438 27.65039062 C-0.84233371 30.43473738 -1.41858235 33.21784449 -2 36 C-3.32 36 -4.64 36 -6 36 C-4.70831624 23.83097934 -2.52607805 11.96821447 0 0 Z " fill="#811559" transform="translate(116,24)"/>
<path d="M0 0 C0.61875 0.185625 1.2375 0.37125 1.875 0.5625 C4.04160178 1.23686176 4.04160178 1.23686176 6 0 C7.99960012 -0.039992 10.00047242 -0.04346799 12 0 C11.67 0.99 11.34 1.98 11 3 C7.4375 4.1875 7.4375 4.1875 4 5 C2.35318751 11.30760257 0.73690113 17.51527007 0 24 C-1.32 24.33 -2.64 24.66 -4 25 C-3.02716362 16.5653016 -2.06297567 8.2519027 0 0 Z " fill="#1D8299" transform="translate(171,35)"/>
<path d="M0 0 C1.21236328 0.04060547 1.21236328 0.04060547 2.44921875 0.08203125 C3.06410156 0.11683594 3.67898437 0.15164062 4.3125 0.1875 C3.99065583 3.08409753 3.69841512 5.50647331 2.25 8.0625 C-0.94806073 9.91943849 -4.04268997 9.36675295 -7.6875 9.1875 C-8.05369718 3.69454225 -8.05369718 3.69454225 -6.46875 1.5 C-4.16706546 -0.19597808 -2.82643251 -0.12288837 0 0 Z " fill="#F6F9FA" transform="translate(154.6875,47.8125)"/>
<path d="M0 0 C3 0.1875 3 0.1875 5 1.1875 C5 3.8275 5 6.4675 5 9.1875 C1.37 9.1875 -2.26 9.1875 -6 9.1875 C-5.01398601 0.31337413 -5.01398601 0.31337413 0 0 Z " fill="#F4F9FA" transform="translate(194,36.8125)"/>
<path d="M0 0 C0.66 0.33 1.32 0.66 2 1 C1.67 4.3 1.34 7.6 1 11 C3.97 11.495 3.97 11.495 7 12 C7 12.66 7 13.32 7 14 C-0.26325581 14.3572093 -0.26325581 14.3572093 -3.0625 13 C-4.62024847 9.67680326 -3.97388296 6.46269495 -3 3 C-1.4375 1 -1.4375 1 0 0 Z " fill="#1C6A8D" transform="translate(147,46)"/>
<path d="M0 0 C7.42857143 -0.28571429 7.42857143 -0.28571429 11 2 C11 2.66 11 3.32 11 4 C8.03 3.505 8.03 3.505 5 3 C5 2.34 5 1.68 5 1 C3.35 1 1.7 1 0 1 C0 0.67 0 0.34 0 0 Z " fill="#2A6B91" transform="translate(131,34)"/>
<path d="M0 0 C0 0.99 0 1.98 0 3 C-1.65 3.33 -3.3 3.66 -5 4 C-5 3.34 -5 2.68 -5 2 C-6.98 2 -8.96 2 -11 2 C-11 1.67 -11 1.34 -11 1 C-3.375 0 -3.375 0 0 0 Z " fill="#33A1AC" transform="translate(200,56)"/>
<path d="M0 0 C2.33944736 0.28730055 4.6739143 0.61936779 7 1 C7 1.33 7 1.66 7 2 C2.05 3.485 2.05 3.485 -3 5 C-1 1 -1 1 0 0 Z " fill="#088898" transform="translate(189,35)"/>
<path d="M0 0 C0.7734375 0.2165625 0.7734375 0.2165625 1.5625 0.4375 C4.68509571 1.15809901 7.82550692 1.57266439 11 2 C11 2.33 11 2.66 11 3 C7.37 3.33 3.74 3.66 0 4 C0 2.68 0 1.36 0 0 Z " fill="#347E9B" transform="translate(148,45)"/>
<path d="M0 0 C2.64 0 5.28 0 8 0 C7.67 0.66 7.34 1.32 7 2 C4.67843403 2.40729228 2.3431213 2.74438677 0 3 C0 2.01 0 1.02 0 0 Z " fill="#1B6D8F" transform="translate(148,35)"/>
<path d="M0 0 C0 0.99 0 1.98 0 3 C-1.32 3.33 -2.64 3.66 -4 4 C-4 3.34 -4 2.68 -4 2 C-5.65 2 -7.3 2 -9 2 C-9 1.67 -9 1.34 -9 1 C-2.25 0 -2.25 0 0 0 Z " fill="#387297" transform="translate(138,56)"/>
</svg>
