<?xml version="1.0" encoding="UTF-8"?>
<svg version="1.1" xmlns="http://www.w3.org/2000/svg" width="236" height="74">
<path d="M0 0 C77.88 0 155.76 0 236 0 C236 24.42 236 48.84 236 74 C158.12 74 80.24 74 0 74 C0 49.58 0 25.16 0 0 Z " fill="#FDFCFD" transform="translate(0,0)"/>
<path d="M0 0 C1.71219727 -0.0309375 1.71219727 -0.0309375 3.45898438 -0.0625 C4.56177734 -0.06765625 5.66457031 -0.0728125 6.80078125 -0.078125 C7.80923096 -0.0874707 8.81768066 -0.09681641 9.85668945 -0.10644531 C13.20399547 0.31503522 15.01736947 1.20400706 17.6875 3.25 C20.66674709 7.60052161 20.0173786 12.55044764 20 17.625 C20.01611328 18.55828125 20.03222656 19.4915625 20.04882812 20.453125 C20.05256496 25.729537 19.92447858 29.84770913 16.6875 34.25 C12.22623742 37.29874248 8.63591785 37.58816277 3.3125 37.4375 C2.06726563 37.41042969 0.82203125 37.38335937 -0.4609375 37.35546875 C-1.40195312 37.32066406 -2.34296875 37.28585938 -3.3125 37.25 C-3.3125 34.61 -3.3125 31.97 -3.3125 29.25 C-2.38566406 29.12882812 -1.45882812 29.00765625 -0.50390625 28.8828125 C0.69363281 28.71523438 1.89117187 28.54765625 3.125 28.375 C4.31996094 28.21257813 5.51492187 28.05015625 6.74609375 27.8828125 C7.71675781 27.67398438 8.68742187 27.46515625 9.6875 27.25 C11.28162284 24.06175432 10.78924735 20.62103338 10.75 17.125 C10.74548828 16.37089844 10.74097656 15.61679687 10.73632812 14.83984375 C10.72453499 12.97652873 10.70659942 11.11325445 10.6875 9.25 C7.1392225 8.15151606 3.82539215 8.11658045 0.125 8.125 C-1.57849609 8.12113281 -1.57849609 8.12113281 -3.31640625 8.1171875 C-6.36483998 8.1152772 -6.36483998 8.1152772 -9.3125 9.25 C-9.6425 18.16 -9.9725 27.07 -10.3125 36.25 C-15.3125 34.25 -15.3125 34.25 -17.09765625 31.78125 C-18.73266649 27.02868005 -18.78828673 22.74119767 -18.75 17.75 C-18.76998047 16.82574219 -18.78996094 15.90148437 -18.81054688 14.94921875 C-18.80634982 9.08173945 -18.20638032 5.71672304 -14.3125 1.25 C-10.11338549 -0.84955726 -4.61356096 0.02063079 0 0 Z " fill="#522F87" transform="translate(34.3125,16.75)"/>
<path d="M0 0 C2.27024968 -0.08097324 4.54132075 -0.13917704 6.8125 -0.1875 C8.07707031 -0.22230469 9.34164062 -0.25710937 10.64453125 -0.29296875 C14 0 14 0 15.92578125 1.16796875 C17.40600757 3.69242745 17.39849155 5.58704752 17.375 8.5 C17.38273437 9.4590625 17.39046875 10.418125 17.3984375 11.40625 C17 14 17 14 15.73828125 15.83203125 C12.64366708 17.91133381 9.63255775 17.17865038 6 17 C6 19.64 6 22.28 6 25 C4.33388095 25.042721 2.66617115 25.04063832 1 25 C0 24 0 24 -0.11352539 21.68334961 C-0.10828857 20.68311768 -0.10305176 19.68288574 -0.09765625 18.65234375 C-0.09443359 17.57275391 -0.09121094 16.49316406 -0.08789062 15.38085938 C-0.07951172 14.24455078 -0.07113281 13.10824219 -0.0625 11.9375 C-0.05798828 10.79732422 -0.05347656 9.65714844 -0.04882812 8.48242188 C-0.03699747 5.65489649 -0.0205141 2.8274736 0 0 Z " fill="#59388C" transform="translate(68,27)"/>
<path d="M0 0 C12.625 -0.25 12.625 -0.25 16 2 C16.3984375 4.71484375 16.3984375 4.71484375 16.375 7.9375 C16.38273437 8.99839844 16.39046875 10.05929688 16.3984375 11.15234375 C16 14 16 14 14.73828125 15.8671875 C11.62926905 17.89328534 8.61935834 17.17800123 5 17 C5 19.64 5 22.28 5 25 C3.35 25 1.7 25 0 25 C0 16.75 0 8.5 0 0 Z " fill="#533188" transform="translate(163,27)"/>
<path d="M0 0 C0.7734375 -0.00773437 1.546875 -0.01546875 2.34375 -0.0234375 C4.5 0.375 4.5 0.375 6.2578125 1.5546875 C7.96826077 4.06119345 7.89929399 5.86254584 7.875 8.875 C7.88273437 9.8340625 7.89046875 10.793125 7.8984375 11.78125 C7.5 14.375 7.5 14.375 6.29296875 16.1953125 C3.90986269 17.76328206 2.27371199 17.77506226 -0.5625 17.75 C-1.44035156 17.75773437 -2.31820312 17.76546875 -3.22265625 17.7734375 C-3.97417969 17.64195313 -4.72570312 17.51046875 -5.5 17.375 C-7.72264871 14.04102694 -7.79675463 12.77985109 -7.8125 8.875 C-7.82925781 7.9159375 -7.84601563 6.956875 -7.86328125 5.96875 C-7.5 3.375 -7.5 3.375 -6.26171875 1.5546875 C-4.03814123 0.06572872 -2.66195981 -0.0266196 0 0 Z " fill="#533087" transform="translate(94.5,25.625)"/>
<path d="M0 0 C2 1 2 1 3 3 C3.23059307 5.71885319 3.13475823 8.25991592 3 11 C0.03 11 -2.94 11 -6 11 C-6 11.66 -6 12.32 -6 13 C-3.03 13 -0.06 13 3 13 C3 14.32 3 15.64 3 17 C1.06318839 17.08107583 -0.8745934 17.13922475 -2.8125 17.1875 C-3.89144531 17.22230469 -4.97039062 17.25710937 -6.08203125 17.29296875 C-9 17 -9 17 -10.859375 15.796875 C-13.1321854 12.21642026 -12.57845417 8.06247701 -12 4 C-9.11332238 -1.05168583 -5.2833015 -0.5870335 0 0 Z " fill="#5F3F90" transform="translate(146,26)"/>
<path d="M0 0 C1.65 0 3.3 0 5 0 C5.33 2.97 5.66 5.94 6 9 C6.37125 8.34 6.7425 7.68 7.125 7 C9 5 9 5 12.1875 4.75 C13.115625 4.8325 14.04375 4.915 15 5 C13.948125 6.5778125 13.948125 6.5778125 12.875 8.1875 C11.09533142 11.21811716 11.09533142 11.21811716 11.625 14.6875 C12.07875 15.450625 12.5325 16.21375 13 17 C13.37125 17.763125 13.7425 18.52625 14.125 19.3125 C14.41375 19.869375 14.7025 20.42625 15 21 C12.1875 21.3125 12.1875 21.3125 9 21 C7.125 18.5 7.125 18.5 6 16 C5.67 17.98 5.34 19.96 5 22 C3.35 22 1.7 22 0 22 C0 14.74 0 7.48 0 0 Z " fill="#522F87" transform="translate(119,22)"/>
<path d="M0 0 C0.90492188 0.02320312 1.80984375 0.04640625 2.7421875 0.0703125 C4.10730469 0.09738281 4.10730469 0.09738281 5.5 0.125 C6.19867188 0.14820312 6.89734375 0.17140625 7.6171875 0.1953125 C7.6171875 1.8453125 7.6171875 3.4953125 7.6171875 5.1953125 C5.3071875 4.8653125 2.9971875 4.5353125 0.6171875 4.1953125 C1.50310765 6.54532816 1.50310765 6.54532816 4.6171875 7.2578125 C5.6071875 7.5671875 6.5971875 7.8765625 7.6171875 8.1953125 C8.6171875 9.1953125 8.6171875 9.1953125 8.8046875 12.1328125 C8.6171875 15.1953125 8.6171875 15.1953125 6.6171875 17.1953125 C3.796875 17.390625 3.796875 17.390625 0.4921875 17.3203125 C-0.60351562 17.30226563 -1.69921875 17.28421875 -2.828125 17.265625 C-3.67117187 17.24242188 -4.51421875 17.21921875 -5.3828125 17.1953125 C-5.0528125 15.8753125 -4.7228125 14.5553125 -4.3828125 13.1953125 C-2.0728125 13.1953125 0.2371875 13.1953125 2.6171875 13.1953125 C2.6171875 12.5353125 2.6171875 11.8753125 2.6171875 11.1953125 C1.6478125 11.0509375 0.6784375 10.9065625 -0.3203125 10.7578125 C-3.3828125 10.1953125 -3.3828125 10.1953125 -4.3828125 9.1953125 C-4.5703125 5.7578125 -4.5703125 5.7578125 -4.3828125 2.1953125 C-2.3828125 0.1953125 -2.3828125 0.1953125 0 0 Z " fill="#553289" transform="translate(209.3828125,25.8046875)"/>
<path d="M0 0 C1.21236328 0.04060547 1.21236328 0.04060547 2.44921875 0.08203125 C3.06410156 0.11683594 3.67898437 0.15164062 4.3125 0.1875 C4.875 2.125 4.875 2.125 5.3125 4.1875 C4.3125 5.1875 4.3125 5.1875 0.75 5.25 C-0.384375 5.229375 -1.51875 5.20875 -2.6875 5.1875 C-2.3575 7.4975 -2.0275 9.8075 -1.6875 12.1875 C0.6225 12.5175 2.9325 12.8475 5.3125 13.1875 C5.3125 14.5075 5.3125 15.8275 5.3125 17.1875 C3.89946762 17.4381019 2.48170526 17.66211921 1.0625 17.875 C0.27359375 18.00261719 -0.5153125 18.13023438 -1.328125 18.26171875 C-3.6875 18.1875 -3.6875 18.1875 -5.95703125 17.08203125 C-8.36653408 14.44408797 -8.18980266 12.7127649 -8.125 9.1875 C-8.12371094 8.135625 -8.12242188 7.08375 -8.12109375 6 C-7.6875 3.1875 -7.6875 3.1875 -6.453125 1.32421875 C-4.16095111 -0.15149497 -2.70393594 -0.11756243 0 0 Z " fill="#58368B" transform="translate(111.6875,25.8125)"/>
<path d="M0 0 C1.65 0 3.3 0 5 0 C5.33 1.32 5.66 2.64 6 4 C6.99 4 7.98 4 9 4 C9 5.65 9 7.3 9 9 C8.01 9 7.02 9 6 9 C6 11.64 6 14.28 6 17 C6.99 17 7.98 17 9 17 C9 18.32 9 19.64 9 21 C5.625 21.125 5.625 21.125 2 21 C0 19 0 19 -0.22705078 17.02880859 C-0.21657715 16.24328613 -0.20610352 15.45776367 -0.1953125 14.6484375 C-0.18886719 13.79765625 -0.18242187 12.946875 -0.17578125 12.0703125 C-0.15902344 11.18085937 -0.14226562 10.29140625 -0.125 9.375 C-0.11597656 8.4778125 -0.10695312 7.580625 -0.09765625 6.65625 C-0.0740497 4.43723414 -0.0411231 2.21874923 0 0 Z " fill="#57368A" transform="translate(151,22)"/>
<path d="M0 0 C1.98 0 3.96 0 6 0 C6 7.26 6 14.52 6 22 C4.02 22 2.04 22 0 22 C0 14.74 0 7.48 0 0 Z " fill="#58378B" transform="translate(197,22)"/>
<path d="M0 0 C1.65 0 3.3 0 5 0 C5 7.26 5 14.52 5 22 C3.35 22 1.7 22 0 22 C0 14.74 0 7.48 0 0 Z " fill="#512E86" transform="translate(190,22)"/>
<path d="M0 0 C0.33 0 0.66 0 1 0 C1 6.93 1 13.86 1 21 C0.67 19.68 0.34 18.36 0 17 C-1.299375 17.020625 -2.59875 17.04125 -3.9375 17.0625 C-5.29165633 17.08399454 -6.64756083 17.07148199 -8 17 C-9 16 -9 16 -9.0625 12.4375 C-9.041875 11.303125 -9.02125 10.16875 -9 9 C-5.535 8.505 -5.535 8.505 -2 8 C-1.34 5.36 -0.68 2.72 0 0 Z " fill="#EFECF4" transform="translate(118,22)"/>
<path d="M0 0 C1.65 0 3.3 0 5 0 C5 5.94 5 11.88 5 18 C3.35 18 1.7 18 0 18 C0 12.06 0 6.12 0 0 Z " fill="#543188" transform="translate(181,26)"/>
<path d="M0 0 C3 0.125 3 0.125 4 1.125 C4.125 4.125 4.125 4.125 4 7.125 C3 8.125 3 8.125 0 8.25 C-3 8.125 -3 8.125 -4 7.125 C-4.125 4.125 -4.125 4.125 -4 1.125 C-3 0.125 -3 0.125 0 0 Z " fill="#5E3E8F" transform="translate(35,30.875)"/>
<path d="M0 0 C0.99 0.33 1.98 0.66 3 1 C2.67 1.33 2.34 1.66 2 2 C1.90145345 3.64340867 1.87027589 5.2911461 1.875 6.9375 C1.87242187 7.83339844 1.86984375 8.72929688 1.8671875 9.65234375 C1.84578587 12.02155555 1.84578587 12.02155555 3 14 C2.67 14.66 2.34 15.32 2 16 C-0.31 16 -2.62 16 -5 16 C-5 15.67 -5 15.34 -5 15 C-3.35 14.67 -1.7 14.34 0 14 C-0.70125 13.113125 -1.4025 12.22625 -2.125 11.3125 C-4 8 -4 8 -3.375 5.3125 C-2.30277945 3.50921999 -1.16374405 1.74561607 0 0 Z " fill="#E5DFED" transform="translate(133,28)"/>
<path d="M0 0 C1.65 0 3.3 0 5 0 C5 2.64 5 5.28 5 8 C3.35 8.33 1.7 8.66 0 9 C0 6.03 0 3.06 0 0 Z " fill="#E9E5F0" transform="translate(168,31)"/>
<path d="M0 0 C1.65 0 3.3 0 5 0 C5 2.64 5 5.28 5 8 C3.35 8.33 1.7 8.66 0 9 C0 6.03 0 3.06 0 0 Z " fill="#EBE8F1" transform="translate(74,31)"/>
<path d="M0 0 C2.0625 0.4375 2.0625 0.4375 4 1 C4 3.31 4 5.62 4 8 C2.0625 8.5625 2.0625 8.5625 0 9 C-1 8 -1 8 -1.125 4.5 C-1 1 -1 1 0 0 Z " fill="#DDD6E7" transform="translate(93,30)"/>
<path d="M0 0 C0.33 0 0.66 0 1 0 C1.33 1.98 1.66 3.96 2 6 C3.98 6.66 5.96 7.32 8 8 C8 8.66 8 9.32 8 10 C5.69 10 3.38 10 1 10 C0.67 10.66 0.34 11.32 0 12 C-0.92844389 7.66726186 -0.92844389 4.33273814 0 0 Z " fill="#DFD9E9" transform="translate(204,29)"/>
<path d="M0 0 C1.65 0 3.3 0 5 0 C5.33 1.65 5.66 3.3 6 5 C4.34385343 5.38218767 2.67542976 5.71395102 1 6 C0 5 0 5 -0.0625 2.4375 C-0.041875 1.633125 -0.02125 0.82875 0 0 Z " fill="#634392" transform="translate(181,19)"/>
</svg>
