<?xml version="1.0" encoding="UTF-8"?>
<svg version="1.1" xmlns="http://www.w3.org/2000/svg" width="208" height="95">
<path d="M0 0 C68.64 0 137.28 0 208 0 C208 31.35 208 62.7 208 95 C139.36 95 70.72 95 0 95 C0 63.65 0 32.3 0 0 Z " fill="#FDFBFC" transform="translate(0,0)"/>
<path d="M0 0 C1.3479743 0.63654342 2.68596724 1.29605388 4 2 C6.08652125 1.59306672 6.08652125 1.59306672 8 1 C7.49890245 8.77129084 6.25623818 16.12216052 4.4375 23.6875 C4.20353516 24.68716797 3.96957031 25.68683594 3.72851562 26.71679688 C3.15894867 29.14617428 2.58272348 31.57375133 2 34 C0.68 34 -0.64 34 -2 34 C-1.34 30.37 -0.68 26.74 0 23 C-0.66 23.33 -1.32 23.66 -2 24 C-3.83037287 24.12145993 -5.66564133 24.17543185 -7.5 24.1875 C-8.4796875 24.20167969 -9.459375 24.21585938 -10.46875 24.23046875 C-13 24 -13 24 -15 22 C-15.89053626 15.13014885 -15.08389069 9.16778138 -12 3 C-8.78216388 -0.8137317 -4.66528432 -0.59761907 0 0 Z " fill="#7E1056" transform="translate(101,22)"/>
<path d="M0 0 C6.27 0 12.54 0 19 0 C19 0.99 19 1.98 19 3 C13.72 3 8.44 3 3 3 C2.01 6.63 1.02 10.26 0 14 C4.95 14 9.9 14 15 14 C14.67 14.66 14.34 15.32 14 16 C9.05 16 4.1 16 -1 16 C-1.33 19.96 -1.66 23.92 -2 28 C3.28 28 8.56 28 14 28 C14 28.99 14 29.98 14 31 C10.85418577 31.02888514 7.70840531 31.04675923 4.5625 31.0625 C3.66466797 31.07087891 2.76683594 31.07925781 1.84179688 31.08789062 C0.56079102 31.09272461 0.56079102 31.09272461 -0.74609375 31.09765625 C-1.53685303 31.10289307 -2.3276123 31.10812988 -3.14233398 31.11352539 C-5 31 -5 31 -6 30 C-7.65321682 19.79729048 -3.16976022 9.50928065 0 0 Z " fill="#801358" transform="translate(41,15)"/>
<path d="M0 0 C3.875 0.4375 3.875 0.4375 5.875 1.4375 C5.81476506 3.52162907 5.72591679 5.60494435 5.625 7.6875 C5.55539063 9.42773438 5.55539063 9.42773438 5.484375 11.203125 C4.78021039 14.9406141 3.81650278 16.11526096 0.875 18.4375 C-1.88750036 19.81875018 -4.07231099 19.62829306 -7.125 19.4375 C-9.125 17.4375 -9.125 17.4375 -9.2421875 15.046875 C-7.98245011 0.17384646 -7.98245011 0.17384646 0 0 Z " fill="#F8F2F6" transform="translate(98.125,24.5625)"/>
<path d="M0 0 C1.32 0 2.64 0 4 0 C3.67515625 1.42892578 3.67515625 1.42892578 3.34375 2.88671875 C3.0653125 4.14097656 2.786875 5.39523438 2.5 6.6875 C2.2215625 7.92886719 1.943125 9.17023437 1.65625 10.44921875 C0.84854949 14.21763615 0.84854949 14.21763615 1 19 C4.3 19 7.6 19 11 19 C13.41862058 13.06338584 14.9007105 7.31121503 16 1 C17.32 0.67 18.64 0.34 20 0 C19.68266427 7.31458862 18.55471814 14.49994398 15 21 C11.81523297 23.35488342 8.74761605 23.26903005 4.875 23.25 C3.82054688 23.25515625 2.76609375 23.2603125 1.6796875 23.265625 C-1 23 -1 23 -3 21 C-4.09819183 13.71199966 -2.20211126 6.8947055 0 0 Z " fill="#7E0F55" transform="translate(115,23)"/>
<path d="M0 0 C2.26394578 1.67217099 2.92806498 2.57121089 3.3984375 5.375 C3.39070313 6.24125 3.38296875 7.1075 3.375 8 C3.38273437 8.86625 3.39046875 9.7325 3.3984375 10.625 C2.92576336 13.44250862 2.30541379 14.35020505 0 16 C-3.1875 16.1875 -3.1875 16.1875 -6 16 C-6.33 17.65 -6.66 19.3 -7 21 C-7.66 21 -8.32 21 -9 21 C-9 14.4 -9 7.8 -9 1 C-5.64123179 0.16030795 -3.38356374 -0.34703218 0 0 Z " fill="#7B0951" transform="translate(106,61)"/>
<path d="M0 0 C0.66 0 1.32 0 2 0 C2 1.98 2 3.96 2 6 C3.093125 5.773125 4.18625 5.54625 5.3125 5.3125 C9 5 9 5 10.70703125 6.16796875 C12.39557773 8.56050137 12.40097226 10.09110715 12.375 13 C12.38273438 13.86625 12.39046875 14.7325 12.3984375 15.625 C12 18 12 18 10.69921875 19.7890625 C7.87108114 21.80451689 5.33828496 21.36417654 2 21 C-0.06723714 17.89914429 -0.24497423 17.27068319 -0.1953125 13.76953125 C-0.18886719 12.96708984 -0.18242187 12.16464844 -0.17578125 11.33789062 C-0.15902344 10.50451172 -0.14226562 9.67113281 -0.125 8.8125 C-0.11597656 7.96751953 -0.10695312 7.12253906 -0.09765625 6.25195312 C-0.07410703 4.16784757 -0.03823647 2.08388783 0 0 Z " fill="#892564" transform="translate(139,56)"/>
<path d="M0 0 C0.66 0.33 1.32 0.66 2 1 C2 1.99 2 2.98 2 4 C-1.96 3.67 -5.92 3.34 -10 3 C-10 4.98 -10 6.96 -10 9 C-9.28972656 9.23074219 -8.57945312 9.46148437 -7.84765625 9.69921875 C-6.92855469 10.02535156 -6.00945312 10.35148437 -5.0625 10.6875 C-4.14597656 11.00074219 -3.22945312 11.31398438 -2.28515625 11.63671875 C0 13 0 13 0.859375 15.5078125 C1.0237364 18.42066176 0.70557426 19.64468317 -1 22 C-4.24185938 24.06366669 -6.82453868 24.24384107 -10.625 24.1875 C-11.58664063 24.18105469 -12.54828125 24.17460938 -13.5390625 24.16796875 C-16 24 -16 24 -18 23 C-18 22.34 -18 21.68 -18 21 C-17.24074219 21.02320312 -16.48148438 21.04640625 -15.69921875 21.0703125 C-14.20841797 21.09738281 -14.20841797 21.09738281 -12.6875 21.125 C-11.20830078 21.15980469 -11.20830078 21.15980469 -9.69921875 21.1953125 C-6.77593473 21.20682639 -6.77593473 21.20682639 -4 19 C-4 17.68 -4 16.36 -4 15 C-4.62648437 14.80664062 -5.25296875 14.61328125 -5.8984375 14.4140625 C-6.71570313 14.15367188 -7.53296875 13.89328125 -8.375 13.625 C-9.59316406 13.24214844 -9.59316406 13.24214844 -10.8359375 12.8515625 C-13 12 -13 12 -15 10 C-15.4375 7.125 -15.4375 7.125 -15 4 C-11.02956681 -1.02921538 -5.91051873 -0.6381268 0 0 Z " fill="#801358" transform="translate(166,22)"/>
<path d="M0 0 C1.65 0 3.3 0 5 0 C6.81883009 2.3832946 8 3.95818337 8 7 C8.66 7 9.32 7 10 7 C10.268125 6.030625 10.53625 5.06125 10.8125 4.0625 C11.4003125 2.5465625 11.4003125 2.5465625 12 1 C12.99 0.67 13.98 0.34 15 0 C14.649375 0.86625 14.29875 1.7325 13.9375 2.625 C12.91339102 6.31179234 13.12033608 8.32140541 14 12 C14.185625 12.78375 14.37125 13.5675 14.5625 14.375 C14.7790625 15.179375 14.7790625 15.179375 15 16 C14.01 15.67 13.02 15.34 12 15 C11.29788106 13.34795544 10.63028587 11.68076231 10 10 C9.34 9.67 8.68 9.34 8 9 C7.7525 9.969375 7.505 10.93875 7.25 11.9375 C6 15 6 15 4 15.875 C2.66861361 15.95821165 1.33398422 16 0 16 C0 10.72 0 5.44 0 0 Z " fill="#CDA2BD" transform="translate(111,61)"/>
<path d="M0 0 C1.37749817 0.96760847 2.74196037 1.95599691 4.0625 3 C3.4025 3.66 2.7425 4.32 2.0625 5 C-0.66796875 4.5390625 -0.66796875 4.5390625 -4.125 3.625 C-15.12882908 1.08565483 -25.9799496 1.11236319 -36.9375 4 C-27.10834111 -4.03366851 -11.06291696 -6.60332526 0 0 Z " fill="#F9C1AC" transform="translate(126.9375,9)"/>
<path d="M0 0 C6.42821782 -0.36386139 6.42821782 -0.36386139 8.71875 1.09375 C10.63271296 3.94135343 10.28800847 6.30371491 10.1875 9.6875 C10.16042969 10.86699219 10.13335937 12.04648438 10.10546875 13.26171875 C10.07066406 14.16535156 10.03585938 15.06898437 10 16 C8.37536158 16.05395478 6.75021459 16.09277195 5.125 16.125 C4.22007813 16.14820312 3.31515625 16.17140625 2.3828125 16.1953125 C0 16 0 16 -2 14 C-2.25 11.5 -2.25 11.5 -2 9 C0 7 0 7 3.625 6.875 C5.295625 6.936875 5.295625 6.936875 7 7 C6.67 5.68 6.34 4.36 6 3 C3.03 2.505 3.03 2.505 0 2 C0 1.34 0 0.68 0 0 Z " fill="#923771" transform="translate(86,61)"/>
<path d="M0 0 C1.32 0 2.64 0 4 0 C2.63053948 9.5141468 0.42755144 18.71402654 -2 28 C-0.35 28 1.3 28 3 28 C3 28.99 3 29.98 3 31 C0.66705225 31.04241723 -1.66702567 31.04092937 -4 31 C-5 30 -5 30 -5.21875 26.12890625 C-5.15648704 20.51745734 -3.89317261 15.34828118 -2.5 9.9375 C-2.26152344 8.97650391 -2.02304687 8.01550781 -1.77734375 7.02539062 C-1.19418428 4.68108957 -0.60162494 2.339617 0 0 Z " fill="#82165B" transform="translate(66,15)"/>
<path d="M0 0 C5.625 -0.25 5.625 -0.25 9 2 C9.29296875 5.2578125 9.29296875 5.2578125 9.1875 9.125 C9.16042969 10.40632813 9.13335937 11.68765625 9.10546875 13.0078125 C9.07066406 13.99523437 9.03585938 14.98265625 9 16 C7.35425434 16.02688151 5.70838587 16.04634123 4.0625 16.0625 C3.14597656 16.07410156 2.22945312 16.08570312 1.28515625 16.09765625 C-1 16 -1 16 -2 15 C-2.1875 12.0625 -2.1875 12.0625 -2 9 C0 7 0 7 3.625 6.875 C5.295625 6.936875 5.295625 6.936875 7 7 C6.67 5.68 6.34 4.36 6 3 C3.69 2.67 1.38 2.34 -1 2 C-0.67 1.34 -0.34 0.68 0 0 Z " fill="#7C0C53" transform="translate(154,61)"/>
<path d="M0 0 C3.375 -0.125 3.375 -0.125 7 0 C9 2 9 2 9.1953125 5.2578125 C9.16050781 7.17207031 9.16050781 7.17207031 9.125 9.125 C9.10695312 10.40632813 9.08890625 11.68765625 9.0703125 13.0078125 C9.04710937 13.99523437 9.02390625 14.98265625 9 16 C7.54207116 16.05399736 6.08357288 16.09279177 4.625 16.125 C3.40683594 16.15980469 3.40683594 16.15980469 2.1640625 16.1953125 C0 16 0 16 -2 14 C-2.25 11.5 -2.25 11.5 -2 9 C0 7 0 7 3.625 6.875 C5.295625 6.936875 5.295625 6.936875 7 7 C6.67 5.68 6.34 4.36 6 3 C3.03 2.505 3.03 2.505 0 2 C0 1.34 0 0.68 0 0 Z " fill="#7E1056" transform="translate(128,61)"/>
<path d="M0 0 C1.32 0 2.64 0 4 0 C3.67515625 1.42892578 3.67515625 1.42892578 3.34375 2.88671875 C3.0653125 4.14097656 2.786875 5.39523438 2.5 6.6875 C2.2215625 7.92886719 1.943125 9.17023437 1.65625 10.44921875 C1.10645874 13.42398218 0.86204295 15.99368602 1 19 C3.31 19.33 5.62 19.66 8 20 C8 20.33 8 20.66 8 21 C6.02 21 4.04 21 2 21 C2 21.66 2 22.32 2 23 C-1.875 22.125 -1.875 22.125 -3 21 C-3.79331839 13.58552429 -2.24417317 7.02639934 0 0 Z " fill="#83185C" transform="translate(115,23)"/>
<path d="M0 0 C2.5625 0.1875 2.5625 0.1875 4.5625 2.1875 C4.79296875 4.0625 4.79296875 4.0625 4.75 6.1875 C4.74033203 7.239375 4.74033203 7.239375 4.73046875 8.3125 C4.5625 10.1875 4.5625 10.1875 3.5625 12.1875 C1.56295254 12.23004356 -0.43791636 12.22830783 -2.4375 12.1875 C-3.4375 11.1875 -3.4375 11.1875 -3.5703125 8.9375 C-3.56773437 8.03 -3.56515625 7.1225 -3.5625 6.1875 C-3.56507813 5.28 -3.56765625 4.3725 -3.5703125 3.4375 C-3.38424141 0.28523683 -3.15680703 0.24283131 0 0 Z " fill="#F6EEF3" transform="translate(144.4375,62.8125)"/>
<path d="M0 0 C1.32 0 2.64 0 4 0 C3.25403037 7.4596963 1.63253871 14.68951218 0 22 C-1.32 22.33 -2.64 22.66 -4 23 C-4.23136637 17.4978184 -3.4350346 12.86146222 -2 7.5625 C-1.80921875 6.83095703 -1.6184375 6.09941406 -1.421875 5.34570312 C-0.95549597 3.56180334 -0.47881722 1.78060155 0 0 Z " fill="#82185B" transform="translate(142,23)"/>
<path d="M0 0 C4.55555556 0.55555556 4.55555556 0.55555556 6 2 C6.0979057 3.49738124 6.12974864 4.99942892 6.125 6.5 C6.12757812 7.3146875 6.13015625 8.129375 6.1328125 8.96875 C6 11 6 11 5 12 C2 12.125 2 12.125 -1 12 C-2.58894072 10.41105928 -2.16998411 8.75198576 -2.1875 6.5625 C-2.20167969 5.75941406 -2.21585937 4.95632812 -2.23046875 4.12890625 C-2 2 -2 2 0 0 Z " fill="#F6EFF4" transform="translate(101,63)"/>
<path d="M0 0 C0.99 0 1.98 0 3 0 C2.48400816 7.8822202 0.9078547 15.34458305 -1 23 C-2.32 23 -3.64 23 -5 23 C-3 3 -3 3 0 0 Z " fill="#81155A" transform="translate(79,23)"/>
<path d="M0 0 C0.66 0.33 1.32 0.66 2 1 C2 1.99 2 2.98 2 4 C-1.96 3.67 -5.92 3.34 -10 3 C-10 4.98 -10 6.96 -10 9 C-9.34 9.66 -8.68 10.32 -8 11 C-8.33 11.66 -8.66 12.32 -9 13 C-13.875 11.125 -13.875 11.125 -15 10 C-15.375 7.1875 -15.375 7.1875 -15 4 C-11.02956681 -1.02921538 -5.91051873 -0.6381268 0 0 Z " fill="#841B5E" transform="translate(166,22)"/>
<path d="M0 0 C2.64 0.33 5.28 0.66 8 1 C8.33 2.65 8.66 4.3 9 6 C6.69 6.33 4.38 6.66 2 7 C1.34 8.98 0.68 10.96 0 13 C-1.5625 11.375 -1.5625 11.375 -3 9 C-2.76261647 5.12273569 -2.17282078 3.25923117 0 0 Z " fill="#F6EFF4" transform="translate(126,62)"/>
<path d="M0 0 C1 1 1 1 1.09765625 4.16015625 C1.08605469 5.44792969 1.07445312 6.73570313 1.0625 8.0625 C1.05347656 9.35285156 1.04445312 10.64320312 1.03515625 11.97265625 C1.02355469 12.97167969 1.01195312 13.97070312 1 15 C0.34 15 -0.32 15 -1 15 C-1.33 10.71 -1.66 6.42 -2 2 C-3.65 2 -5.3 2 -7 2 C-7.33 6.29 -7.66 10.58 -8 15 C-8.66 15 -9.32 15 -10 15 C-10 10.05 -10 5.1 -10 0 C-6.28523623 -1.23825459 -3.81171187 -0.70587257 0 0 Z " fill="#892464" transform="translate(175,62)"/>
<path d="M0 0 C0.66 0 1.32 0 2 0 C1.649375 0.86625 1.29875 1.7325 0.9375 2.625 C-0.08660898 6.31179234 0.12033608 8.32140541 1 12 C1.185625 12.78375 1.37125 13.5675 1.5625 14.375 C1.7790625 15.179375 1.7790625 15.179375 2 16 C1.01 15.67 0.02 15.34 -1 15 C-1.70211894 13.34795544 -2.36971413 11.68076231 -3 10 C-3.66 9.67 -4.32 9.34 -5 9 C-5.66 10.98 -6.32 12.96 -7 15 C-7.99 15 -8.98 15 -10 15 C-9.46375 14.113125 -8.9275 13.22625 -8.375 12.3125 C-6.64761801 9.13999512 -6.64761801 9.13999512 -7.8125 6.3125 C-8.204375 5.549375 -8.59625 4.78625 -9 4 C-9 3.01 -9 2.02 -9 1 C-8.34 1 -7.68 1 -7 1 C-6.34 2.98 -5.68 4.96 -5 7 C-4.34 7 -3.68 7 -3 7 C-2.690625 6.030625 -2.38125 5.06125 -2.0625 4.0625 C-1 1 -1 1 0 0 Z " fill="#882263" transform="translate(124,61)"/>
<path d="M0 0 C3 1.5 3 1.5 5 3 C4.67 4.98 4.34 6.96 4 9 C3.67 9 3.34 9 3 9 C3 7.35 3 5.7 3 4 C1.39667209 3.91878076 -0.20784026 3.86070866 -1.8125 3.8125 C-2.70582031 3.77769531 -3.59914063 3.74289063 -4.51953125 3.70703125 C-7.48110221 4.0568231 -8.04749604 4.86846989 -10 7 C-10.99 7 -11.98 7 -13 7 C-10.67586687 0.20638008 -6.89701845 -0.92586434 0 0 Z " fill="#83195D" transform="translate(101,22)"/>
<path d="M0 0 C4.49968309 -0.36483917 4.49968309 -0.36483917 6.64453125 1.19921875 C8.42722679 3.56758371 8.40125032 5.05996414 8.375 8 C8.38273437 8.86625 8.39046875 9.7325 8.3984375 10.625 C7.92576336 13.44250862 7.30541379 14.35020505 5 16 C1.8125 16.1875 1.8125 16.1875 -1 16 C-0.67 15.34 -0.34 14.68 0 14 C2.5625 13.375 2.5625 13.375 5 13 C5.29359745 9.9465865 5.4451258 7.04256578 5 4 C2.6816144 1.39089037 2.6816144 1.39089037 0 0 Z " fill="#861F60" transform="translate(101,61)"/>
<path d="M0 0 C3.625 0.375 3.625 0.375 7 1 C7 1.33 7 1.66 7 2 C5.02 2.33 3.04 2.66 1 3 C1 3.99 1 4.98 1 6 C2.98 6.66 4.96 7.32 7 8 C7 8.33 7 8.66 7 9 C3.625 9.125 3.625 9.125 0 9 C-2 7 -2 7 -2.25 4.5 C-2 2 -2 2 0 0 Z " fill="#91336F" transform="translate(86,68)"/>
<path d="M0 0 C2.31 0 4.62 0 7 0 C6.67 1.65 6.34 3.3 6 5 C4.02 5 2.04 5 0 5 C0 3.35 0 1.7 0 0 Z " fill="#F8F3F6" transform="translate(154,70)"/>
<path d="M0 0 C-1.41152344 0.19916016 -1.41152344 0.19916016 -2.8515625 0.40234375 C-4.09679687 0.57894531 -5.34203125 0.75554688 -6.625 0.9375 C-7.85476562 1.11152344 -9.08453125 1.28554687 -10.3515625 1.46484375 C-13.57556184 1.93774301 -16.78812176 2.45151002 -20 3 C-13.74295705 -2.71295226 -7.30607651 -3.77900509 0 0 Z " fill="#F7A789" transform="translate(110,10)"/>
<path d="M0 0 C1.4540625 0.0309375 1.4540625 0.0309375 2.9375 0.0625 C2.9375 1.7125 2.9375 3.3625 2.9375 5.0625 C0.9575 5.0625 -1.0225 5.0625 -3.0625 5.0625 C-3.625 3.125 -3.625 3.125 -4.0625 1.0625 C-3.0625 0.0625 -3.0625 0.0625 0 0 Z " fill="#F7F1F5" transform="translate(132.0625,69.9375)"/>
<path d="M0 0 C1.4540625 0.0309375 1.4540625 0.0309375 2.9375 0.0625 C2.9375 1.7125 2.9375 3.3625 2.9375 5.0625 C0.9575 5.0625 -1.0225 5.0625 -3.0625 5.0625 C-3.625 3.125 -3.625 3.125 -4.0625 1.0625 C-3.0625 0.0625 -3.0625 0.0625 0 0 Z " fill="#F7F0F4" transform="translate(90.0625,69.9375)"/>
<path d="M0 0 C3.625 0.375 3.625 0.375 7 1 C7 1.33 7 1.66 7 2 C5.02 2.33 3.04 2.66 1 3 C1 3.99 1 4.98 1 6 C2.32 6.66 3.64 7.32 5 8 C2.625 8.625 2.625 8.625 0 9 C-2 7 -2 7 -2.25 4.5 C-2 2 -2 2 0 0 Z " fill="#923570" transform="translate(128,68)"/>
<path d="M0 0 C0.66 0 1.32 0 2 0 C3.20287276 6.49551291 2.58444052 11.60985973 1 18 C0.67 18 0.34 18 0 18 C0 12.06 0 6.12 0 0 Z " fill="#7E0F56" transform="translate(139,56)"/>
<path d="M0 0 C3.625 0.375 3.625 0.375 7 1 C7 1.33 7 1.66 7 2 C4.69 2 2.38 2 0 2 C0 3.65 0 5.3 0 7 C1.65 7 3.3 7 5 7 C3.1875 8.0625 3.1875 8.0625 1 9 C0.01 8.67 -0.98 8.34 -2 8 C-2.125 5.125 -2.125 5.125 -2 2 C-1.34 1.34 -0.68 0.68 0 0 Z " fill="#90316D" transform="translate(154,68)"/>
<path d="M0 0 C3.96 0.33 7.92 0.66 12 1 C12 1.66 12 2.32 12 3 C10.37509046 3.02698189 8.75005367 3.04638757 7.125 3.0625 C5.76761719 3.07990234 5.76761719 3.07990234 4.3828125 3.09765625 C2 3 2 3 0 2 C0 1.34 0 0.68 0 0 Z " fill="#79054F" transform="translate(148,43)"/>
<path d="M0 0 C1.67542976 0.28604898 3.34385343 0.61781233 5 1 C4.67 2.32 4.34 3.64 4 5 C2.68 5 1.36 5 0 5 C-0.5625 3.0625 -0.5625 3.0625 -1 1 C-0.67 0.67 -0.34 0.34 0 0 Z " fill="#BD85A9" transform="translate(169,42)"/>
<path d="M0 0 C3.375 -0.1875 3.375 -0.1875 7 0 C7.66 0.99 8.32 1.98 9 3 C8.34 4.32 7.68 5.64 7 7 C6.67 5.68 6.34 4.36 6 3 C3.03 2.505 3.03 2.505 0 2 C0 1.34 0 0.68 0 0 Z " fill="#953973" transform="translate(128,61)"/>
<path d="M0 0 C1.33332095 2.6666419 0.67102033 4.16680303 0 7 C-0.33 7 -0.66 7 -1 7 C-1 5.35 -1 3.7 -1 2 C-3.64 1.67 -6.28 1.34 -9 1 C-9 0.67 -9 0.34 -9 0 C-5.67032582 -0.83241855 -3.24733335 -1.2757381 0 0 Z " fill="#882263" transform="translate(105,24)"/>
<path d="M0 0 C5.625 -0.25 5.625 -0.25 9 2 C9 2.66 9 3.32 9 4 C5.7 3.34 2.4 2.68 -1 2 C-0.67 1.34 -0.34 0.68 0 0 Z " fill="#90316E" transform="translate(154,61)"/>
<path d="M0 0 C4.47400242 -0.36275695 4.47400242 -0.36275695 6.8125 1.25 C8 3 8 3 8 7 C7.34 7 6.68 7 6 7 C4.9935725 5.33720673 3.99414593 3.67016516 3 2 C2.01 1.34 1.02 0.68 0 0 Z " fill="#8F306D" transform="translate(101,61)"/>
<path d="M0 0 C0.66 0 1.32 0 2 0 C1.01 2.97 0.02 5.94 -1 9 C-1.66 7.68 -2.32 6.36 -3 5 C-1.75 2.25 -1.75 2.25 0 0 Z " fill="#9B457C" transform="translate(124,61)"/>
</svg>
