<svg width="32" height="32" viewBox="0 0 32 32" fill="none" xmlns="http://www.w3.org/2000/svg">
<path d="M20.9122 28.5263H11.0876V30H20.9122V28.5263Z" fill="currentcolor"/>
<path d="M15.9999 2C10.1764 2 5.43848 6.7379 5.43848 12.5614C5.43848 16.5964 7.73656 20.2635 11.3332 22.0361V26.0702H20.6665V22.0361C24.2632 20.2635 26.5613 16.5965 26.5613 12.5614C26.5613 6.7379 21.8234 2 15.9999 2ZM19.6346 20.8909L19.1929 21.084V24.5965H12.8069V21.084L12.3652 20.8909C9.05256 19.4431 6.91216 16.1736 6.91216 12.5614C6.91216 7.55039 10.9889 3.47368 15.9999 3.47368C21.0109 3.47368 25.0876 7.55039 25.0876 12.5614C25.0876 16.1736 22.9472 19.4433 19.6346 20.8909Z" fill="currentcolor"/>
</svg>
