<svg version="1.1" id="Layer_1" xmlns="http://www.w3.org/2000/svg" xmlns:xlink="http://www.w3.org/1999/xlink" x="0px" y="0px"
	 viewBox="0 0 32 32" fill="currentcolor">
<path d="M16,29.84l-0.5801-0.2415C8.5891,26.781,4.1407,20.1426,4.1539,12.7857v-7.5h1.0927c3.7075,0,7.3475-1.0029,10.5251-2.9
	L16,2.25l0.2269,0.1357c3.1795,1.8974,6.8174,2.8997,10.5251,2.9h1.0942v7.5c0,1.0929-0.1083,2.1653-0.2959,3.2143h2.189
	c0.1678-1.0536,0.2626-2.1262,0.2607-3.2143V3.1429h-3.2451h-0.0014C23.7503,3.1419,20.7936,2.406,18.1438,1h-4.2876
	c-2.6498,1.4059-5.6066,2.1418-8.6096,2.1429H2v9.6428C2,20.5657,6.4025,27.5714,13.3278,31H16V29.84z"/>
<g>
	<g>
		<rect x="15" y="6" width="2" height="4"/>
	</g>
	<g>
		<rect x="15" y="12" width="2" height="4"/>
	</g>
	<g>
		<rect x="17" y="10" width="4" height="2"/>
	</g>
	<g>
		<rect x="11" y="10" width="4" height="2"/>
	</g>
</g>
<path d="M21.0645,18.4067c-1.3533-0.4568-2.8409,0.1059-3.5533,1.344c-0.7116,1.2369-0.4553,2.8036,0.6133,3.7493
	c-1.0693,0.9459-1.3257,2.5135-0.6133,3.7507c0.7167,1.2329,2.2004,1.7936,3.5533,1.3427c0.2844,1.3991,1.5137,2.4049,2.9413,2.4067
	c1.4276-0.0017,2.6569-1.0076,2.9413-2.4067c1.3533,0.4568,2.8409-0.1059,3.5533-1.344c0.4-0.6933,0.5067-1.5013,0.3-2.276
	c-0.1515-0.5705-0.4688-1.0833-0.912-1.4733c0.44-0.3867,0.7573-0.8947,0.912-1.4733c0.2081-0.7687,0.1001-1.5888-0.3-2.2773
	c-0.7167-1.2329-2.2004-1.7936-3.5533-1.3427c-0.2844-1.3991-1.5137-2.4049-2.9413-2.4067
	C22.5782,16.0017,21.3489,17.0076,21.0645,18.4067z M23.0058,19c0-0.5523,0.4477-1,1-1s1,0.4477,1,1v2.768l2.3973-1.384
	c0.4753-0.2768,1.0851-0.1159,1.3619,0.3595c0.0012,0.002,0.0023,0.0039,0.0035,0.0059c0.2765,0.478,0.1132,1.0897-0.3648,1.3664
	c-0.0001,0.0001-0.0004,0.0003-0.0005,0.0003L26.0058,23.5l2.3973,1.384c0.4764,0.2793,0.6363,0.892,0.3569,1.3684
	c-0.2767,0.472-0.8813,0.634-1.3569,0.3636l-2.3973-1.384V28c0,0.5523-0.4477,1-1,1s-1-0.4477-1-1v-2.768l-2.3973,1.384
	c-0.4753,0.2768-1.0851,0.1159-1.3619-0.3595c-0.0012-0.002-0.0023-0.0039-0.0035-0.0059c-0.2765-0.478-0.1132-1.0897,0.3648-1.3664
	c0.0001-0.0001,0.0004-0.0003,0.0005-0.0003l2.3973-1.384l-2.3973-1.384c-0.4801-0.2729-0.648-0.8835-0.3751-1.3636
	s0.8835-0.648,1.3636-0.3751c0.0039,0.0021,0.0077,0.0044,0.0115,0.0067l2.3973,1.384L23.0058,19z"/>
</svg>
