<svg width="32" height="32" viewBox="0 0 32 32" fill="none" xmlns="http://www.w3.org/2000/svg">
<path d="M16 30C8.28034 30 2 23.7197 2 16C2 8.28034 8.28034 2 16 2C23.7197 2 30 8.28034 30 16C30 23.7197 23.7197 30 16 30ZM16 3.42062C9.06369 3.42062 3.42062 9.06369 3.42062 16C3.42062 22.9363 9.06369 28.5794 16 28.5794C22.9363 28.5794 28.5794 22.9363 28.5794 16C28.5794 9.06369 22.9363 3.42062 16 3.42062Z" fill="currentcolor"/>
<path d="M16.695 8.42796H15.2744V11.2692H16.695V8.42796Z" fill="currentcolor"/>
<path d="M16.695 13.1634H15.2744V23.5813H16.695V13.1634Z" fill="currentcolor"/>
</svg>
