<svg width="32" height="32" viewBox="0 0 32 32" fill="none" xmlns="http://www.w3.org/2000/svg">
<path d="M29.501 15.0002C22.6085 15.0002 17.001 9.39267 17.001 2.49805L17 1.99805L15 2.00217L15.001 2.50005C15.001 9.39255 9.3935 15 2.501 15H2V17H2.501C9.3935 17 15.001 22.6075 15.001 29.4979L15 29.9979L17 30.002L17.001 29.4999C17.001 22.6074 22.6085 16.9999 29.501 16.9999H30V14.9999H29.501V15.0002ZM16.001 24.208C14.5276 20.4625 11.5385 17.4735 7.79313 16.0002C11.5386 14.5268 14.5276 11.5377 16.001 7.7923C17.4744 11.5378 20.4635 14.5268 24.2089 16.0002C20.4634 17.4735 17.4744 20.4627 16.001 24.208Z" fill="currentcolor"/>
</svg>
