<svg width="16" height="16" viewBox="0 0 16 16" xmlns="http://www.w3.org/2000/svg">
  <rect width="16" height="16" fill="none"/>
  <path fill="currentcolor" d="M8 1.442c2.136 0 2.3893.008 3.2333.04667 2.168.09866 3.1807 1.12733 3.2794 3.27933.0386.84333.046 1.09667.046 3.2327 0 2.1366-.008 2.3893-.046 3.2326-.0994 2.15-1.1094 3.1807-3.2794 3.2794-.844.0386-1.096.0466-3.2333.0466-2.136 0-2.38933-.008-3.23267-.0466-2.17333-.0994-3.18066-1.1327-3.27933-3.28-.03867-.8434-.04667-1.096-.04667-3.2327 0-2.136.00867-2.38867.04667-3.23267C1.58733 2.616 2.59733 1.58667 4.76733 1.488 5.61133 1.45 5.864 1.442 8 1.442ZM8 0C5.82733 0 5.55533.00933 4.702.048 1.79667.18133.182 1.79333.04867 4.70133.00933 5.55533 0 5.82733 0 8c0 2.1727.00933 2.4453.048 3.2987.13333 2.9053 1.74533 4.52 4.65333 4.6533.854.0387 1.126.048 3.29867.048 2.1727 0 2.4453-.0093 3.2987-.048 2.9026-.1333 4.5213-1.7453 4.6526-4.6533C15.9907 10.4453 16 10.1727 16 8c0-2.17267-.0093-2.44467-.048-3.298-.1307-2.90267-1.7447-4.52-4.6527-4.65333C10.4453.00933 10.1727 0 8 0Zm0 3.892C5.73133 3.892 3.892 5.73133 3.892 8c0 2.2687 1.83933 4.1087 4.108 4.1087 2.2687 0 4.108-1.8394 4.108-4.1087 0-2.26867-1.8393-4.108-4.108-4.108Zm0 6.7747c-1.4727 0-2.66667-1.1934-2.66667-2.6667C5.33333 6.5273 6.5273 5.33333 8 5.33333S10.6667 6.5273 10.6667 8c0 1.4733-1.194 2.6667-2.6667 2.6667ZM12.2707 2.77c-.5307 0-.9607.43-.9607.96s.43.96.9607.96c.53 0 .9593-.43.9593-.96s-.4293-.96-.9593-.96Z"/>
</svg>
