<svg width="32" height="32" viewBox="0 0 32 32" fill="none" xmlns="http://www.w3.org/2000/svg">
<path d="M15.0667 27.2C15.0667 27.7146 14.648 28.1333 14.1333 28.1333C13.6187 28.1333 13.2 27.7146 13.2 27.2V26.2621H11.3333V27.2C11.3333 28.744 12.5895 30 14.1333 30C15.6772 30 16.9333 28.744 16.9333 27.2V18.8H15.0667V27.2Z" fill="currentcolor"/>
<path d="M16.9333 2.96705V2H15.0667V2.96705C8.2957 3.44737 2.93335 9.10978 2.93335 16.002V16.9353H28.1334L29.0667 16.9288V15.9955C29.0667 9.10675 23.7043 3.44713 16.9333 2.96705ZM4.83852 15.0687C5.24102 10.2122 8.75478 6.22497 13.3756 5.11092C11.4208 7.4131 10.4 10.1641 10.4 13.1954H12.2667C12.2667 10.0686 13.5548 7.28127 16 5.09015C18.4452 7.28127 19.7333 10.0686 19.7333 13.1954H21.6C21.6 10.164 20.5791 7.41298 18.6242 5.11068C23.2472 6.22427 26.7622 10.2118 27.162 15.0687H4.83852Z" fill="currentcolor"/>
</svg>
