<svg width="32" height="32" viewBox="0 0 32 32" fill="none" xmlns="http://www.w3.org/2000/svg">
<path d="M15.0667 27.2C15.0667 27.7146 14.648 28.1333 14.1333 28.1333C13.6187 28.1333 13.2 27.7146 13.2 27.2V26.2621H11.3333V27.2C11.3333 28.744 12.5895 30 14.1333 30C15.6772 30 16.9333 28.744 16.9333 27.2V18.8H15.0667V27.2Z" fill="currentcolor"/>
<path d="M16.9333 2.96705V2H15.0667V2.96705C8.2957 3.44737 2.93335 9.10978 2.93335 16.002V16.9353H28.1334L29.0667 16.9288V15.9955C29.0667 9.10675 23.7043 3.44713 16.9333 2.96705ZM4.83852 15.0687C5.24113 10.2122 8.75478 6.22497 13.3757 5.11092C11.4208 7.4131 10.4 10.1641 10.4 13.1954H12.2667C12.2667 10.0686 13.5548 7.28115 16 5.09003C18.4452 7.28115 19.7333 10.0684 19.7333 13.1954H21.6C21.6 10.164 20.5792 7.41298 18.6241 5.11068C23.2471 6.22427 26.7621 10.2118 27.162 15.0687H4.83852Z" fill="currentcolor"/>
<path d="M25.3338 22.5333H21.6005V24.4H25.3338V22.5333Z" fill="currentcolor"/>
<path d="M23.4527 17.8667C20.3647 17.8667 17.8527 20.3789 17.8527 23.4667C17.8527 26.5545 20.3647 29.0667 23.4527 29.0667C26.5406 29.0667 29.0527 26.5545 29.0527 23.4667C29.0527 20.3789 26.5405 17.8667 23.4527 17.8667ZM23.4527 27.2C21.3941 27.2 19.7194 25.5253 19.7194 23.4667C19.7194 21.4081 21.3941 19.7333 23.4527 19.7333C25.5113 19.7333 27.186 21.4081 27.186 23.4667C27.186 25.5253 25.5113 27.2 23.4527 27.2Z" fill="currentcolor"/>
</svg>
