<svg width="32" height="32" viewBox="0 0 32 32" fill="none" xmlns="http://www.w3.org/2000/svg">
<path d="M15.2941 27.4118C15.2941 28.0605 14.7664 28.5882 14.1177 28.5882C13.469 28.5882 12.9412 28.0605 12.9412 27.4118V26.466H11.5294V27.4118C11.5294 28.8389 12.6905 30 14.1177 30C15.5448 30 16.7059 28.8389 16.7059 27.4118V18.9412H15.2941V27.4118Z" fill="currentcolor"/>
<path d="M16.7059 3.19588V2H15.2941V3.196C8.48531 3.56388 3.05884 9.21965 3.05884 16.1196V16.8255H28.2353L28.9412 16.8189V16.1131C28.9412 9.21659 23.5147 3.56353 16.7059 3.19588ZM4.49201 15.4138C4.81743 10.0529 8.82154 5.66918 14.0058 4.76129C11.7632 7.14341 10.5882 10.0559 10.5882 13.2896H12C12 10.0099 13.3731 7.09423 15.9777 4.82165H16.0224C18.627 7.09423 20 10.0099 20 13.2896H21.4118C21.4118 10.0559 20.2368 7.14341 17.9941 4.76118C23.1807 5.66882 27.1861 10.0529 27.5085 15.4139L4.49201 15.4138Z" fill="currentcolor"/>
</svg>
