<svg width="32" height="32" viewBox="0 0 32 32" fill="none" xmlns="http://www.w3.org/2000/svg">
<path d="M24 17H22.0004V15H24C26.2056 15 28 13.2056 28 11C28 8.79437 26.2056 7 24 7H12.0004V5H24C27.3084 5 30 7.69163 30 11C30 14.3084 27.3084 17 24 17Z" fill="currentcolor"/>
<path d="M20.0004 27H8C4.69163 27 2 24.3084 2 21C2 17.6916 4.69163 15 8 15H10.0004V17H8C5.79437 17 4 18.7944 4 21C4 23.2056 5.79437 25 8 25H20.0004V27Z" fill="currentcolor"/>
<path d="M16 20C13.7944 20 12 18.2056 12 16C12 13.7944 13.7944 12 16 12C18.2056 12 20 13.7944 20 16C20 18.2056 18.2056 20 16 20ZM16 14C14.8973 14 14 14.8973 14 16C14 17.1027 14.8973 18 16 18C17.1027 18 18 17.1027 18 16C18 14.8973 17.1027 14 16 14Z" fill="currentcolor"/>
<path d="M30 30H22V22H30V30ZM24 28H28V24H24V28Z" fill="currentcolor"/>
<path d="M10 10H2V2H10V10ZM4 8H8V4H4V8Z" fill="currentcolor"/>
</svg>
