<svg width="32" height="32" viewBox="0 0 32 32" fill="none" xmlns="http://www.w3.org/2000/svg">
<path d="M24.1455 15.2364H22.1095V16.7636H24.1455C27.3736 16.7636 30 14.1372 30 10.9091C30 7.68095 27.3736 5.05455 24.1455 5.05455H11.9277V6.58182H24.1455C26.5316 6.58182 28.4727 8.52298 28.4727 10.9091C28.4727 13.2952 26.5316 15.2364 24.1455 15.2364Z" fill="currentcolor"/>
<path d="M3.52727 21.0909C3.52727 18.7048 5.46844 16.7636 7.85455 16.7636H9.89129V15.2364H7.85455C4.6264 15.2364 2 17.8628 2 21.0909C2 24.3191 4.6264 26.9455 7.85455 26.9455H20.0731V25.4182H7.85455C5.46844 25.4182 3.52727 23.477 3.52727 21.0909Z" fill="currentcolor"/>
<path d="M19.8182 16C19.8182 13.8947 18.1053 12.1818 16 12.1818C13.8947 12.1818 12.1818 13.8947 12.1818 16C12.1818 18.1053 13.8947 19.8182 16 19.8182C18.1053 19.8182 19.8182 18.1053 19.8182 16ZM13.7091 16C13.7091 14.7368 14.7368 13.7091 16 13.7091C17.2632 13.7091 18.2909 14.7368 18.2909 16C18.2909 17.2632 17.2632 18.2909 16 18.2909C14.7368 18.2909 13.7091 17.2632 13.7091 16Z" fill="currentcolor"/>
<path d="M22.3636 30H30V22.3636H22.3636V30ZM23.8909 23.8909H28.4727V28.4727H23.8909V23.8909Z" fill="currentcolor"/>
<path d="M9.63636 2H2V9.63636H9.63636V2ZM8.10909 8.10909H3.52727V3.52727H8.10909V8.10909Z" fill="currentcolor"/>
</svg>
