<svg version="1.1" id="Layer_1" xmlns="http://www.w3.org/2000/svg" xmlns:xlink="http://www.w3.org/1999/xlink" x="0px" y="0px"
	 viewBox="0 0 32 32" fill="currentcolor">
<linearGradient id="SVGID_1_" gradientUnits="userSpaceOnUse" x1="-52" y1="0" x2="-52" y2="-1">
	<stop  offset="0" style="stop-color:#656565"/>
	<stop  offset="0.618" style="stop-color:#1B1B1B"/>
	<stop  offset="0.6292" style="stop-color:#545454"/>
	<stop  offset="0.9831" style="stop-color:#3E3E3E"/>
</linearGradient>
<g>
	<path d="M24.502,20.5C21.4678,20.5,19,18.0322,19,15h2c0,1.9297,1.5703,3.5,3.5,3.5c1.9307,0,3.502-1.5703,3.502-3.5V6.251
		c0-1.7925-1.458-3.251-3.251-3.251S21.5,4.4585,21.5,6.251V7.5h-2V6.251C19.5,3.3555,21.8555,1,24.751,1s5.251,2.3555,5.251,5.251
		V15C30.002,18.0322,27.5342,20.5,24.502,20.5z"/>
</g>
<g>
	<path d="M7.502,20.5C4.4678,20.5,2,18.0322,2,15V6.251C2,3.3555,4.3555,1,7.251,1s5.251,2.3555,5.251,5.251V7.5h-2V6.251
		C10.502,4.4585,9.0439,3,7.251,3S4,4.4585,4,6.251V15c0,1.9297,1.5703,3.5,3.5,3.5c1.9307,0,3.502-1.5703,3.502-3.5h2
		C13.002,18.0322,10.5342,20.5,7.502,20.5z"/>
</g>
<g>
	<path d="M23.9417,11C24.5928,10.364,25,9.4797,25,8.5h-2c0,0.8271-0.6729,1.5-1.5,1.5h-1.498c-1.6543,0-3,1.3008-3,2.8999V30h2
		V12.8999c0-0.4961,0.4482-0.8999,1-0.8999H21.5c0.8271,0,1.5,0.6729,1.5,1.5h2C25,12.5203,24.5928,11.636,23.9417,11z"/>
	<path d="M12,10h-1.5C9.6729,10,9,9.3271,9,8.5H7c0,0.9797,0.4072,1.864,1.0583,2.5C7.4072,11.636,7,12.5203,7,13.5h2
		c0-0.8271,0.6729-1.5,1.5-1.5H12c0.5518,0,1,0.4038,1,0.8999V30h2V12.8999C15,11.3008,13.6543,10,12,10z"/>
</g>
<g>
</g>
<g>
</g>
<g>
</g>
<g>
</g>
<g>
</g>
<g>
</g>
<g>
</g>
<g>
</g>
<g>
</g>
<g>
</g>
<g>
</g>
<g>
</g>
<g>
</g>
<g>
</g>
<g>
</g>
</svg>
