<svg version="1.1" id="Layer_1" xmlns="http://www.w3.org/2000/svg" xmlns:xlink="http://www.w3.org/1999/xlink" x="0px" y="0px"
	 viewBox="0 0 32 32" fill="currentcolor">
<linearGradient id="SVGID_1_" gradientUnits="userSpaceOnUse" x1="-156" y1="0" x2="-156" y2="-1">
	<stop  offset="0" style="stop-color:#656565"/>
	<stop  offset="0.618" style="stop-color:#1B1B1B"/>
	<stop  offset="0.6292" style="stop-color:#545454"/>
	<stop  offset="0.9831" style="stop-color:#3E3E3E"/>
</linearGradient>
<g>
	<path d="M24.502,20.25c-2.8955,0-5.252-2.3555-5.252-5.25h1.5c0,2.0674,1.6826,3.75,3.75,3.75c2.0684,0,3.752-1.6826,3.752-3.75
		V6.251c0-1.9307-1.5703-3.501-3.501-3.501S21.25,4.3203,21.25,6.251V7.5h-1.5V6.251c0-2.7573,2.2432-5.001,5.001-5.001
		s5.001,2.2437,5.001,5.001V15C29.752,17.8945,27.3965,20.25,24.502,20.25z"/>
</g>
<g>
	<path d="M7.502,20.25c-2.8955,0-5.252-2.3555-5.252-5.25V6.251c0-2.7573,2.2432-5.001,5.001-5.001s5.001,2.2437,5.001,5.001V7.5
		h-1.5V6.251c0-1.9307-1.5703-3.501-3.501-3.501S3.75,4.3203,3.75,6.251V15c0,2.0674,1.6826,3.75,3.75,3.75
		c2.0684,0,3.752-1.6826,3.752-3.75h1.5C12.752,17.8945,10.3965,20.25,7.502,20.25z"/>
</g>
<g>
	<path d="M23.551,11c0.7256-0.5966,1.199-1.4895,1.199-2.5h-1.5c0,0.9648-0.7852,1.75-1.75,1.75h-1.498
		c-1.5166,0-2.75,1.189-2.75,2.6499V30h1.5V12.8999c0-0.6343,0.5605-1.1499,1.25-1.1499H21.5c0.9648,0,1.75,0.7852,1.75,1.75h1.5
		C24.75,12.4895,24.2767,11.5966,23.551,11z"/>
	<path d="M12,10.25h-1.5c-0.9648,0-1.75-0.7852-1.75-1.75h-1.5c0,1.0105,0.4733,1.9034,1.199,2.5
		c-0.7256,0.5966-1.199,1.4895-1.199,2.5h1.5c0-0.9648,0.7852-1.75,1.75-1.75H12c0.6895,0,1.25,0.5156,1.25,1.1499V30h1.5V12.8999
		C14.75,11.439,13.5166,10.25,12,10.25z"/>
</g>
<g>
</g>
<g>
</g>
<g>
</g>
<g>
</g>
<g>
</g>
<g>
</g>
<g>
</g>
<g>
</g>
<g>
</g>
<g>
</g>
<g>
</g>
<g>
</g>
<g>
</g>
<g>
</g>
<g>
</g>
</svg>
