<svg width="32" height="32" viewBox="0 0 32 32" fill="none" xmlns="http://www.w3.org/2000/svg">
<path d="M8.61818 8.87273H7.09091V18.0364H8.61818V8.87273Z" fill="currentcolor"/>
<path d="M24.9091 8.87273H23.3818V18.0364H24.9091V8.87273Z" fill="currentcolor"/>
<path d="M23.3818 28.4727H17.0192V30H24.9091V20.0727H23.3818V28.4727Z" fill="currentcolor"/>
<path d="M8.61818 20.0727H7.09091V30H14.9828V28.4727H8.61818V20.0727Z" fill="currentcolor"/>
<path d="M25.1636 2H19.6641L16 7.49615L12.3359 2H6.83636C4.16962 2 2 4.16962 2 6.83636V19.8182H6.83636V18.2909H3.52727V6.83636C3.52727 5.01178 5.01178 3.52727 6.83636 3.52727H11.5186L15.0822 8.87273H16.9179L20.4814 3.52727H25.1636C26.9882 3.52727 28.4727 5.01178 28.4727 6.83636V18.2903L25.1636 18.2875V19.8147L30 19.8188V6.83636C30 4.16962 27.8304 2 25.1636 2Z" fill="currentcolor"/>
<path d="M16.7636 10.9091H15.2364V28.2182H16.7636V10.9091Z" fill="currentcolor"/>
<path d="M12.9455 18.2909H8.87273V19.8182H12.9455V18.2909Z" fill="currentcolor"/>
<path d="M23.1273 18.2909H19.0545V19.8182H23.1273V18.2909Z" fill="currentcolor"/>
</svg>
