<svg width="32" height="32" viewBox="0 0 32 32" fill="none" xmlns="http://www.w3.org/2000/svg">
<path d="M16 2C8.28034 2 2 8.28034 2 16C2 23.7197 8.28034 30 16 30C23.7197 30 30 23.7197 30 16C30 8.28034 23.7197 2 16 2ZM16 28.5795C9.06369 28.5795 3.42062 22.9364 3.42062 16.0001C3.42062 9.06381 9.06369 3.42062 16 3.42062C22.9363 3.42062 28.5794 9.06369 28.5794 16C28.5794 22.9363 22.9363 28.5794 16 28.5794V28.5795Z" fill="currentcolor"/>
<path d="M12.4258 14.1234H13.8465C13.8465 12.6872 12.6781 11.5189 11.242 11.5189C9.80585 11.5189 8.6375 12.6872 8.6375 14.1234H10.0581C10.0581 13.4706 10.5892 12.9395 11.242 12.9395C11.8948 12.9395 12.4258 13.4706 12.4258 14.1234Z" fill="currentcolor"/>
<path d="M20.7039 11.5189C19.2678 11.5189 18.0994 12.6872 18.0994 14.1234H19.5201C19.5201 13.4706 20.0511 12.9395 20.7039 12.9395C21.3567 12.9395 21.8878 13.4706 21.8878 14.1234H23.3084C23.3084 12.6872 22.1401 11.5189 20.7039 11.5189Z" fill="currentcolor"/>
<path d="M10.5237 18.8655C10.5237 21.8646 12.9667 24.3045 15.9695 24.3045C18.9722 24.3045 21.4152 21.8646 21.4152 18.8655V18.1552H10.5237V18.8655ZM19.9316 19.5758C19.5946 21.4539 17.9461 22.8839 15.9695 22.8839C13.9928 22.8839 12.3443 21.4539 12.0073 19.5758H19.9316Z" fill="currentcolor"/>
</svg>
