<svg width="32" height="32" viewBox="0 0 32 32" fill="none" xmlns="http://www.w3.org/2000/svg">
<path d="M11 7H22V5H9V12H11V7Z" fill="currentcolor"/>
<path d="M25 10V21H20V23H27V10H25Z" fill="currentcolor"/>
<path d="M9 23H18V21H11V14H9V23Z" fill="currentcolor"/>
<path d="M15 12H11V14H15V12Z" fill="currentcolor"/>
<path d="M18 28H4V14H9V12H2V30H20V23H18V28Z" fill="currentcolor"/>
<path d="M20 17H18V21H20V17Z" fill="currentcolor"/>
<path d="M24.0004 2V4H26.5858L13.5857 17H16.4142L28 5.41425V7.97888H30V2H24.0004Z" fill="currentcolor"/>
</svg>
