<svg width="32" height="32" viewBox="0 0 32 32" fill="none" xmlns="http://www.w3.org/2000/svg">
<path d="M16.0001 10.6897C13.6043 10.6897 11.6553 8.74064 11.6553 6.34483C11.6553 3.94902 13.6043 2 16.0001 2C18.3959 2 20.3449 3.94902 20.3449 6.34483C20.3449 8.74064 18.3959 10.6897 16.0001 10.6897ZM16.0001 3.93103C14.6692 3.93103 13.5863 5.01386 13.5863 6.34483C13.5863 7.67579 14.6692 8.75862 16.0001 8.75862C17.3311 8.75862 18.4139 7.67579 18.4139 6.34483C18.4139 5.01386 17.3311 3.93103 16.0001 3.93103Z" fill="currentcolor"/>
<path d="M16.9656 12.6207H15.0346V30H16.9656V12.6207Z" fill="currentcolor"/>
<path d="M8.27598 18.4138C5.88017 18.4138 3.93115 16.4648 3.93115 14.069C3.93115 11.6732 5.88017 9.72414 8.27598 9.72414C10.6718 9.72414 12.6208 11.6732 12.6208 14.069C12.6208 16.4648 10.6718 18.4138 8.27598 18.4138ZM8.27598 11.6552C6.94501 11.6552 5.86219 12.738 5.86219 14.069C5.86219 15.3999 6.94501 16.4828 8.27598 16.4828C9.60695 16.4828 10.6898 15.3999 10.6898 14.069C10.6898 12.738 9.60695 11.6552 8.27598 11.6552Z" fill="currentcolor"/>
<path d="M9.2415 20.3448H7.31046V30H9.2415V20.3448Z" fill="currentcolor"/>
<path d="M23.7243 18.4138C21.3284 18.4138 19.3794 16.4648 19.3794 14.069C19.3794 11.6732 21.3284 9.72414 23.7243 9.72414C26.1201 9.72414 28.0691 11.6732 28.0691 14.069C28.0691 16.4648 26.1201 18.4138 23.7243 18.4138ZM23.7243 11.6552C22.3933 11.6552 21.3105 12.738 21.3105 14.069C21.3105 15.3999 22.3933 16.4828 23.7243 16.4828C25.0552 16.4828 26.1381 15.3999 26.1381 14.069C26.1381 12.738 25.0552 11.6552 23.7243 11.6552Z" fill="currentcolor"/>
<path d="M24.6898 20.3448H22.7587V30H24.6898V20.3448Z" fill="currentcolor"/>
</svg>
