<svg width="32" height="32" viewBox="0 0 32 32" fill="none" xmlns="http://www.w3.org/2000/svg">
<path d="M16 2C13.7177 2 11.8609 3.85677 11.8609 6.13913C11.8609 8.4215 13.7177 10.2783 16 10.2783C18.2824 10.2783 20.1391 8.4215 20.1391 6.13913C20.1391 3.85677 18.2824 2 16 2ZM16 8.81739C14.5232 8.81739 13.3218 7.61595 13.3218 6.13913C13.3218 4.66231 14.5232 3.46087 16 3.46087C17.4768 3.46087 18.6783 4.66231 18.6783 6.13913C18.6783 7.61595 17.4768 8.81739 16 8.81739Z" fill="currentcolor"/>
<path d="M16.7304 12.4696H15.2696V30H16.7304V12.4696Z" fill="currentcolor"/>
<path d="M8.20871 9.7913C5.92635 9.7913 4.06958 11.6481 4.06958 13.9304C4.06958 16.2128 5.92635 18.0696 8.20871 18.0696C10.4911 18.0696 12.3478 16.2128 12.3478 13.9304C12.3478 11.6481 10.4911 9.7913 8.20871 9.7913ZM8.20871 16.6087C6.73189 16.6087 5.53045 15.4073 5.53045 13.9304C5.53045 12.4536 6.73189 11.2522 8.20871 11.2522C9.68553 11.2522 10.887 12.4536 10.887 13.9304C10.887 15.4073 9.68553 16.6087 8.20871 16.6087Z" fill="currentcolor"/>
<path d="M8.93915 20.2609H7.47828V30H8.93915V20.2609Z" fill="currentcolor"/>
<path d="M23.7913 9.7913C21.509 9.7913 19.6522 11.6481 19.6522 13.9304C19.6522 16.2128 21.509 18.0696 23.7913 18.0696C26.0737 18.0696 27.9305 16.2128 27.9305 13.9304C27.9305 11.6481 26.0737 9.7913 23.7913 9.7913ZM23.7913 16.6087C22.3145 16.6087 21.1131 15.4073 21.1131 13.9304C21.1131 12.4536 22.3145 11.2522 23.7913 11.2522C25.2681 11.2522 26.4696 12.4536 26.4696 13.9304C26.4696 15.4073 25.2681 16.6087 23.7913 16.6087Z" fill="currentcolor"/>
<path d="M24.5218 20.2609H23.0609V30H24.5218V20.2609Z" fill="currentcolor"/>
</svg>
