<svg width="32" height="32" viewBox="0 0 32 32" fill="none" xmlns="http://www.w3.org/2000/svg">
<path d="M9.3109 4.00925C10.6691 4.00925 12.0274 4.52623 13.0612 5.5602L17.5207 10.02C19.0605 11.5601 19.4527 13.8189 18.6992 15.726C18.5077 16.2105 18.2424 16.6721 17.9029 17.0937C17.8957 17.1025 17.8892 17.1116 17.8819 17.1204C17.8407 17.1709 17.7971 17.2203 17.7537 17.2698C17.7374 17.2883 17.722 17.3074 17.7053 17.3258C17.6651 17.3704 17.6227 17.4136 17.5805 17.4571C17.5603 17.4781 17.541 17.4997 17.5205 17.5204C16.9926 18.0483 16.3798 18.4406 15.7258 18.6988L17.2337 20.2069C17.8467 19.8775 18.4226 19.456 18.9393 18.9394C19.4561 18.4228 19.8776 17.8468 20.2071 17.234C21.6948 14.4661 21.2732 10.9347 18.9398 8.60116L14.4804 4.14144C13.0997 2.76068 11.2638 2.00013 9.3114 2H9.3109C7.35859 2 5.52281 2.7603 4.14217 4.14081C2.76129 5.52145 2.00086 7.35724 2.00073 9.30992C2.00073 11.2625 2.76103 13.0983 4.14154 14.479L7.11453 17.4524L8.53354 16.0335L5.56056 13.0603C4.55895 12.0585 4.00734 10.7268 4.00734 9.31017C4.00734 7.89341 4.5592 6.56169 5.56093 5.56008C6.59491 4.52623 7.95271 4.0095 9.31077 4.0095L9.3109 4.00925Z" fill="currentcolor"/>
<path d="M27.8587 17.521L24.8857 14.5476L23.4667 15.9665L26.4397 18.9397C28.5073 21.0077 28.5071 24.3722 26.4393 26.44C24.3712 28.5079 21.0067 28.5074 18.939 26.4398L14.4795 21.9798C12.9397 20.4398 12.5475 18.1809 13.301 16.2739C13.4926 15.7894 13.7578 15.3277 14.0973 14.9062C14.1045 14.8974 14.111 14.8883 14.1183 14.8795C14.1596 14.8289 14.2031 14.7795 14.2465 14.7301C14.2628 14.7115 14.2782 14.6925 14.2949 14.674C14.3351 14.6295 14.3775 14.5863 14.4197 14.5427C14.4399 14.5218 14.4592 14.5002 14.4798 14.4795C15.0078 13.9516 15.6205 13.5593 16.2743 13.3011L14.7663 11.793C14.1534 12.1224 13.5775 12.544 13.0607 13.0605C12.544 13.5771 12.1225 14.153 11.793 14.7659C10.3052 17.5338 10.7269 21.0651 13.0602 23.3987L17.5197 27.8587C18.9003 29.2396 20.7361 30 22.6887 30H22.6891C24.6415 30 26.4773 29.2397 27.8579 27.8592C29.2388 26.4786 29.9992 24.6428 29.9994 22.6902C29.9994 20.7375 29.2391 18.9017 27.8585 17.521H27.8587Z" fill="currentcolor"/>
</svg>
