<svg width="32" height="32" viewBox="0 0 32 32" fill="none" xmlns="http://www.w3.org/2000/svg">
<path d="M27.931 17.9453L24.8476 14.8617L24.1117 15.5974L27.1952 18.6812C28.3322 19.8185 28.9584 21.3304 28.9584 22.9386C28.9584 24.5468 28.3319 26.0587 27.1946 27.196C26.0574 28.333 24.5454 28.9594 22.9373 28.9592C21.3291 28.9592 19.8172 28.3329 18.6799 27.1956L14.0547 22.57C12.251 20.766 11.8352 18.0935 12.8035 15.8871C13.0129 15.41 13.286 14.9544 13.6249 14.5345C13.6316 14.5263 13.6377 14.5179 13.6443 14.5098C13.6926 14.4506 13.7433 14.3929 13.7943 14.3351C13.8115 14.3156 13.8276 14.2956 13.845 14.2763C13.893 14.2232 13.9434 14.1716 13.9937 14.12C14.0145 14.0986 14.0342 14.0765 14.0553 14.0553C14.5914 13.5192 15.2114 13.0984 15.885 12.8016L15.106 12.0225C14.4619 12.3503 13.8574 12.7816 13.3194 13.3196C12.7814 13.8575 12.35 14.4619 12.0224 15.106C10.6727 17.758 11.1037 21.0906 13.319 23.3059L17.9441 27.9316C19.2777 29.2654 21.051 30 22.9373 30H22.9375C24.8235 30 26.5968 29.2656 27.9305 27.932C29.2643 26.5984 29.9989 24.8252 29.999 22.9389C29.999 21.0527 29.2646 19.2794 27.931 17.9456V17.9453Z" fill="currentcolor"/>
<path d="M16.4033 7.88821L17.945 9.43005C19.7487 11.234 20.1646 13.9065 19.1963 16.1129C18.9869 16.59 18.7138 17.0456 18.3748 17.4655C18.3682 17.4737 18.3621 17.4821 18.3554 17.4902C18.3072 17.5494 18.2565 17.6071 18.2055 17.6649C18.1883 17.6844 18.1722 17.7044 18.1547 17.7237C18.1067 17.7768 18.0564 17.8284 18.006 17.88C17.9852 17.9014 17.9656 17.9235 17.9445 17.9447C17.4083 18.4808 16.7882 18.9016 16.1148 19.1984L16.8937 19.9773C17.5379 19.6497 18.1425 19.2183 18.6804 18.6804C19.2183 18.1425 19.6497 17.5381 19.9774 16.894C21.327 14.242 20.896 10.9094 18.6808 8.69405L14.0556 4.06853C12.7221 2.73482 10.9487 2.00013 9.06252 2H9.06213C7.17623 2 5.40285 2.73443 4.06927 4.06801C2.73543 5.40159 2.00086 7.17498 2.00073 9.06114C2.0006 10.9473 2.73516 12.7207 4.06875 14.0544L7.15216 17.1381L7.88803 16.4023L4.80461 13.3185C3.66758 12.1814 3.04137 10.6694 3.04137 9.06114C3.04137 7.45296 3.66784 5.94104 4.80513 4.80375C5.94229 3.66672 7.45408 3.04051 9.06226 3.04051H9.06265C10.6708 3.04051 12.1828 3.66698 13.32 4.80427L16.4035 7.88795L16.4033 7.88821Z" fill="currentcolor"/>
</svg>
