<svg width="32" height="32" viewBox="0 0 32 32" fill="none" xmlns="http://www.w3.org/2000/svg">
<path d="M15.8792 15.5172C13.2172 15.5172 11.0516 13.3516 11.0516 10.6897C11.0516 8.02772 13.2172 5.86207 15.8792 5.86207C18.5411 5.86207 20.7068 8.02772 20.7068 10.6897C20.7068 13.3516 18.5411 15.5172 15.8792 15.5172ZM15.8792 7.7931C14.2821 7.7931 12.9826 9.09257 12.9826 10.6897C12.9826 12.2867 14.2821 13.5862 15.8792 13.5862C17.4763 13.5862 18.7757 12.2867 18.7757 10.6897C18.7757 9.09257 17.4763 7.7931 15.8792 7.7931Z" fill="currentcolor"/>
<path d="M18.1212 30H13.8785L7.87032 13.7034C6.87874 11.0445 7.25348 8.06152 8.8741 5.7275C10.4947 3.39348 13.1586 2 16.0001 2C18.8416 2 21.5055 3.39336 23.126 5.72726C24.7466 8.06128 25.1216 11.044 24.1289 13.7063L18.1212 30ZM15.2247 28.069H16.775L22.3183 13.035C23.1028 10.931 22.8186 8.67016 21.5399 6.82867C20.2612 4.98719 18.2419 3.93103 16.0001 3.93103C13.7583 3.93103 11.7389 4.98719 10.4602 6.82891C9.1815 8.6704 8.89751 10.9314 9.68079 13.032L15.2247 28.069Z" fill="currentcolor"/>
</svg>
