<svg width="32" height="32" viewBox="0 0 32 32" fill="none" xmlns="http://www.w3.org/2000/svg">
<path d="M22.5311 3.64795C20.5289 3.64795 18.6876 4.24027 17.3461 5.31595C16.8028 5.75154 16.3529 6.25075 15.9999 6.80508C15.6471 6.25075 15.1971 5.75154 14.6538 5.31595C13.3124 4.24038 11.4711 3.64795 9.46894 3.64795C7.49995 3.64795 5.6314 4.43207 4.20776 5.85571C2.78413 7.27947 2 9.1479 2 11.1169C2 15.6912 4.37347 20.1662 8.86381 24.0579C11.5509 26.3868 14.2094 27.8421 15.2105 28.3522H16.8214C17.8194 27.8426 20.4723 26.3869 23.1536 24.0572C27.6326 20.1655 30 15.6909 30 11.1169C30 9.1479 29.2159 7.27935 27.7922 5.85571C26.3685 4.43207 24.5001 3.64795 22.5311 3.64795ZM21.9648 22.6202C19.4824 24.7844 16.9649 26.1782 16.016 26.6685C15.065 26.1783 12.5404 24.7844 10.051 22.6195C5.94603 19.0499 3.86458 15.1798 3.86458 11.1169C3.86458 8.07897 6.43114 5.51242 9.46906 5.51242C13.2069 5.51242 14.9511 7.69513 15.0667 9.934C15.0641 10.0134 15.0628 10.0932 15.0628 10.1736L15.0728 11.1058H16.9373V10.1736C16.9373 10.0933 16.936 10.0134 16.9335 9.934C17.0491 7.69513 18.7933 5.51242 22.5311 5.51242C25.569 5.51242 28.1355 8.07897 28.1355 11.1169C28.1355 15.1803 26.0594 19.0506 21.9647 22.6202H21.9648Z" fill="currentcolor"/>
</svg>
