<svg width="32" height="32" viewBox="0 0 32 32" fill="none" xmlns="http://www.w3.org/2000/svg">
<path d="M16 14.3547L17.5832 15.9346H20.4015L17.4092 12.9486H14.5909L11.5986 15.9346H14.4169L16 14.3547Z" fill="currentcolor"/>
<path d="M12.0188 16.9299V21.4088C12.0188 22.5473 11.7397 22.887 11.4666 23.069L4.05625 28.0089V16.7553C4.05625 13.4193 6.18274 10.4689 9.3476 9.41399L12.0188 8.52355V6.42518L8.71806 7.52538C4.73904 8.85176 2.06549 12.5609 2.06549 16.7553V28.0089C2.06549 28.7444 2.46835 29.417 3.11692 29.764C3.41178 29.9219 3.73451 30 4.05637 30C4.44218 30 4.82662 29.8875 5.1603 29.6651L12.5707 24.7252C13.8601 23.8657 14.0092 22.4209 14.0092 21.4088V16.9299H12.0185H12.0188Z" fill="currentcolor"/>
<path d="M23.282 7.52538L19.9813 6.42518V8.52355L22.6526 9.41399C25.8175 10.4689 27.9439 13.4191 27.9439 16.7553V28.0089L20.5335 23.069C20.2605 22.887 19.9813 22.5474 19.9813 21.4088V16.9299H17.9907V21.4088C17.9907 22.4209 18.1397 23.8657 19.4292 24.7252L26.8395 29.6651C27.1734 29.8875 27.5577 30 27.9436 29.9999C28.2655 29.9999 28.5882 29.9217 28.8831 29.764C29.5316 29.417 29.9345 28.7444 29.9345 28.0089V16.7553C29.9345 12.5609 27.2611 8.85188 23.282 7.52538Z" fill="currentcolor"/>
<path d="M13.0151 9.51116L11.0235 11.2833V13.9478L15.006 10.4045L15.0047 2L13.0141 2.00025L13.0151 9.51116Z" fill="currentcolor"/>
<path d="M18.987 9.51116L18.986 2L16.9954 2.00025L16.9966 10.4045L20.9766 13.9474V11.2823L18.987 9.51116Z" fill="currentcolor"/>
</svg>
