<svg width="14" height="20" viewBox="0 0 14 20" xmlns="http://www.w3.org/2000/svg">
    <path d="M6.914 9.655a3.452 3.452 0 0 1-3.449-3.448 3.452 3.452 0 0 1 3.449-3.448 3.452 3.452 0 0 1 3.448 3.448 3.452 3.452 0 0 1-3.448 3.448Zm0-5.517c-1.141 0-2.07.928-2.07 2.069 0 1.14.929 2.069 2.07 2.069 1.14 0 2.069-.928 2.069-2.07 0-1.14-.929-2.068-2.07-2.068Z"/>
    <path d="M8.515 20h-3.03L1.192 8.36a6.198 6.198 0 1 1 11.613.002L8.515 20Zm-2.069-1.38h1.107l3.96-10.738a4.757 4.757 0 0 0-.556-4.433A4.756 4.756 0 0 0 7 1.379a4.756 4.756 0 0 0-3.957 2.07 4.756 4.756 0 0 0-.557 4.431l3.96 10.74Z"/>
</svg>