<svg width="32" height="32" viewBox="0 0 32 32" fill="none" xmlns="http://www.w3.org/2000/svg">
<path d="M8.75 11H19.75V13H21.75V11H23.75V6H21.75V9H6.75V6H8.73487V4H19.7349V6H21.7349V2H6.73488V6H4.75V11H6.75V30H16.75V28H8.75V11Z" fill="currentcolor"/>
<path d="M20.75 15C17.1659 15 14.25 17.9159 14.25 21.5C14.25 24.013 16.0146 28 20.75 28C24.3341 28 27.25 25.0841 27.25 21.5C27.25 17.9159 24.3341 15 20.75 15ZM20.75 26C17.0585 26 16.25 22.7516 16.25 21.5C16.25 19.0186 18.2686 17 20.75 17C23.2314 17 25.25 19.0186 25.25 21.5C25.25 23.9814 23.2314 26 20.75 26Z" fill="currentcolor"/>
<path d="M21.75 18H19.75V22H21.75V18Z" fill="currentcolor"/>
<path d="M21.75 23H19.75V25H21.75V23Z" fill="currentcolor"/>
</svg>
