<svg width="32" height="32" viewBox="0 0 32 32" fill="none" xmlns="http://www.w3.org/2000/svg">
<path d="M27 17H18V10H20V5.5H18L18.0007 2H4V5.5H6V4H16.0002L16 5.49988L18 5.50025V8H4V5.5H2V10H4.00112L3.99988 27H9C9 28.6542 10.3459 30 12 30H27C28.6541 30 30 28.6542 30 27V20C30 18.3458 28.6541 17 27 17ZM16 10V17H14V11.9996H6.001V9.99988L16 10ZM9 25H6.00012V22.9996H9V25ZM9 20V20.9996H6.00037L6.00087 13.9996H12V17C10.3459 17 9 18.3458 9 20ZM28 27C28 27.5514 27.5514 28 27 28H12C11.4486 28 11 27.5514 11 27V20C11 19.4486 11.4486 19 12 19H27C27.5514 19 28 19.4486 28 20V27Z" fill="currentcolor"/>
<path d="M13.5 23C14.3284 23 15 22.3284 15 21.5C15 20.6716 14.3284 20 13.5 20C12.6716 20 12 20.6716 12 21.5C12 22.3284 12.6716 23 13.5 23Z" fill="currentcolor"/>
<path d="M13.5 27C14.3284 27 15 26.3284 15 25.5C15 24.6716 14.3284 24 13.5 24C12.6716 24 12 24.6716 12 25.5C12 26.3284 12.6716 27 13.5 27Z" fill="currentcolor"/>
<path d="M17.5 23C18.3284 23 19 22.3284 19 21.5C19 20.6716 18.3284 20 17.5 20C16.6716 20 16 20.6716 16 21.5C16 22.3284 16.6716 23 17.5 23Z" fill="currentcolor"/>
<path d="M17.5 27C18.3284 27 19 26.3284 19 25.5C19 24.6716 18.3284 24 17.5 24C16.6716 24 16 24.6716 16 25.5C16 26.3284 16.6716 27 17.5 27Z" fill="currentcolor"/>
<path d="M21.5 23C22.3284 23 23 22.3284 23 21.5C23 20.6716 22.3284 20 21.5 20C20.6716 20 20 20.6716 20 21.5C20 22.3284 20.6716 23 21.5 23Z" fill="currentcolor"/>
<path d="M21.5 27C22.3284 27 23 26.3284 23 25.5C23 24.6716 22.3284 24 21.5 24C20.6716 24 20 24.6716 20 25.5C20 26.3284 20.6716 27 21.5 27Z" fill="currentcolor"/>
<path d="M25.4998 20C24.6726 20 23.9998 20.6729 23.9998 21.5C23.9998 22.3271 24.6726 23 25.4998 23C26.3269 23 26.9998 22.3271 26.9998 21.5C26.9998 20.6729 26.3269 20 25.4998 20ZM25.9932 21.564C25.996 21.5427 25.9998 21.5219 25.9998 21.5C25.9998 21.4781 25.996 21.4571 25.9932 21.436C25.996 21.4573 25.9998 21.4781 25.9998 21.5C25.9998 21.5219 25.996 21.5429 25.9932 21.564Z" fill="currentcolor"/>
<path d="M25.4998 24C24.6726 24 23.9998 24.6729 23.9998 25.5C23.9998 26.3271 24.6726 27 25.4998 27C26.3269 27 26.9998 26.3271 26.9998 25.5C26.9998 24.6729 26.3269 24 25.4998 24ZM25.9932 25.564C25.996 25.5427 25.9998 25.5219 25.9998 25.5C25.9998 25.4781 25.996 25.4571 25.9932 25.436C25.996 25.4573 25.9998 25.4781 25.9998 25.5C25.9998 25.5219 25.996 25.5429 25.9932 25.564Z" fill="currentcolor"/>
</svg>
