<svg width="32" height="32" viewBox="0 0 32 32" fill="none" xmlns="http://www.w3.org/2000/svg">
<path d="M7.9502 3.03704H20.3946V5.62963H21.4317V2H6.91316V5.62963H7.9502V3.03704Z" fill="currentcolor"/>
<path d="M7.96316 10.2963H20.4076V12.8889H21.4446V10.2963H23.5187V5.62963H22.4817V9.25926H5.88909V5.62963H4.85205V10.2963H6.92612V30H16.778V28.963H7.96316V10.2963Z" fill="currentcolor"/>
<path d="M20.9261 15.4815C17.4909 15.4815 14.7039 18.2685 14.7039 21.7037C14.7039 22.7019 15.028 24.2315 15.9483 25.5148C16.7261 26.6167 18.2298 27.9259 20.9261 27.9259C24.3613 27.9259 27.1483 25.1389 27.1483 21.7037C27.1483 18.2685 24.3613 15.4815 20.9261 15.4815ZM20.9261 26.8889C19.1243 26.8889 17.7243 26.2278 16.7909 24.9185C16.0132 23.8296 15.7409 22.5074 15.7409 21.7037C15.7409 18.8389 18.0613 16.5185 20.9261 16.5185C23.7909 16.5185 26.1113 18.8389 26.1113 21.7037C26.1113 24.5685 23.7909 26.8889 20.9261 26.8889Z" fill="currentcolor"/>
<path d="M21.4446 18.0741H20.4076V22.2222H21.4446V18.0741Z" fill="currentcolor"/>
<path d="M21.4446 23.2593H20.4076V25.3333H21.4446V23.2593Z" fill="currentcolor"/>
</svg>
