<svg width="32" height="32" viewBox="0 0 32 32" fill="none" xmlns="http://www.w3.org/2000/svg">
<path d="M5.56364 3.52727H16.2549L16.2545 5.30896L17.7818 5.30922L17.7825 2H4.03636V5.30909H5.56364V3.52727Z" fill="currentcolor"/>
<path d="M27.2 17.2727H17.7818V9.63636H19.8182V5.30909H18.2909V8.10909H3.52727V5.30909H2V9.63636H4.03751L4.03636 26.9455H9.12727V27.2C9.12727 28.7439 10.3833 30 11.9273 30H27.2C28.7439 30 30 28.7439 30 27.2V20.0727C30 18.5288 28.7439 17.2727 27.2 17.2727ZM16.2545 9.63636V17.2727H13.7091V12.1814H5.56465V9.63636H16.2545ZM9.12727 25.4182H5.56364V22.8723H9.12727V25.4182ZM9.12727 20.0727V21.3451H5.56389L5.5644 13.7087H12.1817V17.2727H11.9271C10.3832 17.2727 9.12727 18.5288 9.12727 20.0727ZM28.4727 27.2C28.4727 27.9018 27.9018 28.4727 27.2 28.4727H11.9273C11.2255 28.4727 10.6545 27.9018 10.6545 27.2V20.0727C10.6545 19.3709 11.2255 18.8 11.9273 18.8H27.2C27.9018 18.8 28.4727 19.3709 28.4727 20.0727V27.2Z" fill="currentcolor"/>
<path d="M13.4545 22.8727C14.1575 22.8727 14.7273 22.3029 14.7273 21.6C14.7273 20.8971 14.1575 20.3273 13.4545 20.3273C12.7516 20.3273 12.1818 20.8971 12.1818 21.6C12.1818 22.3029 12.7516 22.8727 13.4545 22.8727Z" fill="currentcolor"/>
<path d="M13.4545 26.9455C14.1575 26.9455 14.7273 26.3756 14.7273 25.6727C14.7273 24.9698 14.1575 24.4 13.4545 24.4C12.7516 24.4 12.1818 24.9698 12.1818 25.6727C12.1818 26.3756 12.7516 26.9455 13.4545 26.9455Z" fill="currentcolor"/>
<path d="M17.5273 22.8727C18.2302 22.8727 18.8 22.3029 18.8 21.6C18.8 20.8971 18.2302 20.3273 17.5273 20.3273C16.8244 20.3273 16.2545 20.8971 16.2545 21.6C16.2545 22.3029 16.8244 22.8727 17.5273 22.8727Z" fill="currentcolor"/>
<path d="M17.5273 26.9455C18.2302 26.9455 18.8 26.3756 18.8 25.6727C18.8 24.9698 18.2302 24.4 17.5273 24.4C16.8244 24.4 16.2545 24.9698 16.2545 25.6727C16.2545 26.3756 16.8244 26.9455 17.5273 26.9455Z" fill="currentcolor"/>
<path d="M21.6 22.8727C22.3029 22.8727 22.8727 22.3029 22.8727 21.6C22.8727 20.8971 22.3029 20.3273 21.6 20.3273C20.8971 20.3273 20.3273 20.8971 20.3273 21.6C20.3273 22.3029 20.8971 22.8727 21.6 22.8727Z" fill="currentcolor"/>
<path d="M21.6 26.9455C22.3029 26.9455 22.8727 26.3756 22.8727 25.6727C22.8727 24.9698 22.3029 24.4 21.6 24.4C20.8971 24.4 20.3273 24.9698 20.3273 25.6727C20.3273 26.3756 20.8971 26.9455 21.6 26.9455Z" fill="currentcolor"/>
<path d="M25.6725 22.8727C26.3754 22.8727 26.9452 22.3029 26.9452 21.6C26.9452 20.8971 26.3754 20.3273 25.6725 20.3273C24.9696 20.3273 24.3997 20.8971 24.3997 21.6C24.3997 22.3029 24.9696 22.8727 25.6725 22.8727Z" fill="currentcolor"/>
<path d="M25.6725 26.9455C26.3754 26.9455 26.9452 26.3756 26.9452 25.6727C26.9452 24.9698 26.3754 24.4 25.6725 24.4C24.9696 24.4 24.3997 24.9698 24.3997 25.6727C24.3997 26.3756 24.9696 26.9455 25.6725 26.9455Z" fill="currentcolor"/>
</svg>
