<svg width="16" height="16" viewBox="0 0 16 16" fill="none" xmlns="http://www.w3.org/2000/svg">
<path d="M7.99998 9.66667C9.10665 9.66667 9.99331 8.77334 9.99331 7.66667L9.99998 3.66667C9.99998 2.56001 9.10665 1.66667 7.99998 1.66667C6.89331 1.66667 5.99998 2.56001 5.99998 3.66667V7.66667C5.99998 8.77334 6.89331 9.66667 7.99998 9.66667ZM11.5333 7.66667C11.5333 9.66667 9.83998 11.0667 7.99998 11.0667C6.15998 11.0667 4.46665 9.66667 4.46665 7.66667H3.33331C3.33331 9.94 5.14665 11.82 7.33331 12.1467V14.3333H8.66665V12.1467C10.8533 11.8267 12.6666 9.94667 12.6666 7.66667H11.5333Z" fill="#5F5E62"/>
</svg>
