<svg width="32" height="32" viewBox="0 0 32 32" fill="none" xmlns="http://www.w3.org/2000/svg">
<path d="M23.1273 2H8.87275C7.32881 2 6.07275 3.25605 6.07275 4.8V27.2C6.07275 28.7439 7.32881 30 8.87275 30H23.1273C24.6712 30 25.9273 28.7439 25.9273 27.2V4.8C25.9273 3.25605 24.6712 2 23.1273 2ZM24.4 27.2C24.4 27.9018 23.8291 28.4727 23.1273 28.4727H8.87275C8.17097 28.4727 7.60003 27.9018 7.60003 27.2V4.8C7.60003 4.09822 8.17097 3.52727 8.87275 3.52727H23.1273C23.8291 3.52727 24.4 4.09822 24.4 4.8V27.2Z" fill="currentcolor"/>
<path d="M18.0364 24.4H13.9637V25.9273H18.0364V24.4Z" fill="currentcolor"/>
<path d="M10.1455 21.8545H21.8546V6.07273H10.1455V21.8545ZM11.6728 7.6H20.3273V20.3273H11.6728V7.6Z" fill="currentcolor"/>
</svg>
