<svg width="32" height="32" viewBox="0 0 32 32" fill="none" xmlns="http://www.w3.org/2000/svg">
<path d="M6.01751 17.3391C6.01751 15.5938 7.43735 14.1739 9.18273 14.1739H13.0784V12.7666C11.705 11.8079 10.8871 10.2506 10.8871 8.57391C10.8871 5.75456 13.1808 3.46087 16.0001 3.46087C18.8195 3.46087 21.1132 5.75456 21.1132 8.57391C21.1132 10.2506 20.2952 11.8079 18.9219 12.7666V14.1739H22.8175C24.5629 14.1739 25.9827 15.5938 25.9827 17.3391V30H27.4436V17.3391C27.4436 14.7883 25.3683 12.713 22.8175 12.713H21.1079C22.0456 11.5576 22.574 10.1039 22.574 8.57391C22.574 4.94913 19.6249 2 16.0001 2C12.3753 2 9.42621 4.94913 9.42621 8.57391C9.42621 10.1039 9.95468 11.5576 10.8923 12.713H9.18273C6.63193 12.713 4.55664 14.7883 4.55664 17.3391V30H6.01751V17.3391Z" fill="currentcolor"/>
<path d="M20.5222 19.287C20.0736 17.2023 18.2169 15.6348 16.0002 15.6348C13.7836 15.6348 11.9268 17.2023 11.4782 19.287C11.4107 19.6012 11.3742 19.9268 11.3742 20.2609C11.3742 22.8117 13.4494 24.887 16.0002 24.887C18.551 24.887 20.6263 22.8117 20.6263 20.2609C20.6263 19.9268 20.5899 19.6012 20.5222 19.287ZM16.0002 23.4261C14.2549 23.4261 12.835 22.0062 12.835 20.2609C12.835 19.9211 12.8894 19.594 12.989 19.287C13.1529 18.7815 13.4407 18.3318 13.8164 17.973C13.85 18.4765 14.0539 18.9331 14.3716 19.287C14.7731 19.7341 15.3534 20.0174 16.0002 20.0174V18.5565C15.5974 18.5565 15.2698 18.2289 15.2698 17.8261C15.2698 17.4233 15.5974 17.0957 16.0002 17.0957C17.4058 17.0957 18.5997 18.0167 19.0115 19.287C19.111 19.594 19.1655 19.9211 19.1655 20.2609C19.1655 22.0062 17.7456 23.4261 16.0002 23.4261Z" fill="currentcolor"/>
<path d="M7.96534 20.7478C7.96534 21.9561 8.94838 22.9391 10.1566 22.9391V21.4783C9.75381 21.4783 9.42621 21.1507 9.42621 20.7478C9.42621 20.345 9.75381 20.0174 10.1566 20.0174V18.5565C8.94838 18.5565 7.96534 19.5396 7.96534 20.7478Z" fill="currentcolor"/>
<path d="M21.8436 18.5565V20.0174C22.2464 20.0174 22.574 20.345 22.574 20.7478C22.574 21.1507 22.2464 21.4783 21.8436 21.4783V22.9391C23.0519 22.9391 24.0349 21.9561 24.0349 20.7478C24.0349 19.5396 23.0519 18.5565 21.8436 18.5565Z" fill="currentcolor"/>
<path d="M16.0001 26.3478C13.2627 26.3478 10.8613 27.813 9.53784 30H11.3274C12.4448 28.6618 14.1245 27.8087 16.0001 27.8087C17.8758 27.8087 19.5554 28.6618 20.6728 30H22.4624C21.139 27.813 18.7375 26.3478 16.0001 26.3478Z" fill="currentcolor"/>
</svg>
