<svg width="32" height="32" viewBox="0 0 32 32" fill="none" xmlns="http://www.w3.org/2000/svg">
<path d="M7.18517 30H15.4815V28.963H7.18517C6.49204 28.963 5.84065 28.6935 5.35104 28.204C4.86142 27.7146 4.59205 27.0635 4.59257 26.3704V16.6621C4.59257 16.2961 4.66815 15.9408 4.81761 15.6057L7.40722 9.77778H6.27244L3.87028 15.184C3.66157 15.6522 3.55567 16.1496 3.55567 16.6621V26.37C3.55489 27.3399 3.93211 28.2518 4.61798 28.9374C5.30346 29.6226 6.21502 30 7.18517 30Z" fill="currentcolor"/>
<path d="M14.2226 9.77778L16.8135 15.6074C16.9618 15.9409 17.037 16.2952 17.037 16.6602V18.0741H18.0741V16.6602C18.0741 16.1491 17.9688 15.6531 17.7613 15.1861L15.3575 9.77778H14.2226Z" fill="currentcolor"/>
<path d="M24.831 23.7778H20.6828V24.8148H24.831V23.7778Z" fill="currentcolor"/>
<path d="M17.037 24.2963C17.037 26.7097 18.5445 28.7763 20.6666 29.6079C21.31 29.86 22.0091 30 22.7407 30C25.8858 30 28.4444 27.4414 28.4444 24.2963C28.4444 21.1512 25.8858 18.5926 22.7407 18.5926C22.0091 18.5926 21.31 18.7326 20.6666 18.9847C18.5445 19.8163 17.037 21.883 17.037 24.2963ZM20.6666 20.1176C21.2918 19.8059 21.996 19.6296 22.7407 19.6296C25.314 19.6296 27.4074 21.723 27.4074 24.2963C27.4074 26.8696 25.314 28.963 22.7407 28.963C21.996 28.963 21.2918 28.7867 20.6666 28.475C19.1316 27.71 18.0741 26.1247 18.0741 24.2963C18.0741 22.4679 19.1316 20.8825 20.6666 20.1176Z" fill="currentcolor"/>
<path d="M16 7.18518V4.59259C16 3.16304 14.8369 2 13.4074 2H8.2222C6.79265 2 5.62961 3.16304 5.62961 4.59259V7.18518H16ZM6.66665 4.59259C6.66665 3.73483 7.36444 3.03704 8.2222 3.03704H13.4074C14.2651 3.03704 14.9629 3.73483 14.9629 4.59259V6.14815H6.66665V4.59259Z" fill="currentcolor"/>
</svg>
