<svg width="32" height="32" viewBox="0 0 32 32" fill="none" xmlns="http://www.w3.org/2000/svg">
<path d="M23.7239 7.86552V9.80862C25.667 11.7759 26.8619 14.4672 26.8619 17.4362C26.8619 20.8759 25.2567 23.9414 22.7584 25.9328V27.719C26.1015 25.5103 28.3101 21.7328 28.3101 17.4362C28.3101 13.5862 26.5239 10.1345 23.7239 7.86552Z" fill="currentcolor"/>
<path d="M15.9998 28.4914L13.6463 26.1379H11.5946L15.4567 30H16.5429L20.405 26.1379H18.3532L15.9998 28.4914Z" fill="currentcolor"/>
<path d="M20.8274 7.69655C21.5757 7.23793 22.2032 6.61034 22.6619 5.86207C23.1808 5.01724 23.4826 4.02759 23.4826 2.96552V2.24138H20.8274C19.1981 2.24138 17.7377 2.94138 16.7239 4.05172V2H15.2757V5.16207C8.81876 5.53621 3.68945 10.9069 3.68945 17.4483C3.68945 21.7448 5.89807 25.5224 9.24118 27.731V25.9448C6.7429 23.9534 5.13773 20.8879 5.13773 17.4483C5.13773 11.7034 9.62738 6.98448 15.2757 6.61034V8.51724H17.9308C18.9808 8.51724 19.9705 8.22759 20.8153 7.70862M17.9308 7.06897H16.7843C17.1222 5.15 18.8119 3.68966 20.8274 3.68966H21.9739C21.6239 5.60862 19.9463 7.06897 17.9308 7.06897Z" fill="currentcolor"/>
<path d="M16.7239 11.6552H15.2757V25.1724H16.7239V11.6552Z" fill="currentcolor"/>
</svg>
