<svg width="32" height="32" viewBox="0 0 32 32" fill="none" xmlns="http://www.w3.org/2000/svg">
<path d="M28.3198 14.7786C27.7871 14.4372 27.1106 14.3132 26.4638 14.4381C25.7985 14.5667 25.2194 14.9488 24.874 15.4884L21.68 20.5076H18.7902C18.8713 20.2791 18.9153 20.0331 18.9153 19.7771C18.9153 18.5686 17.9321 17.5854 16.7237 17.5854H7.65438L2.61279 22.627V24.6931L8.25952 19.0465H16.7237C17.1266 19.0465 17.4542 19.3741 17.4542 19.7771C17.4542 20.18 17.1266 20.5076 16.7237 20.5076H13.3144V21.9687H22.4822L26.1056 16.2746C26.2352 16.0723 26.4669 15.9258 26.7411 15.8727C27.0237 15.8185 27.3116 15.8678 27.5314 16.0087C27.9337 16.2665 28.0573 16.9862 27.7829 17.4584L23.1243 25.3779H7.65438L3.03238 30H5.09852L8.25952 26.839H23.96L29.0442 18.1959C29.7104 17.0498 29.3718 15.4529 28.3198 14.7786Z" fill="currentcolor"/>
<path d="M12.6063 9.06219C12.5925 9.22291 12.5838 9.38497 12.5838 9.54923C12.5838 9.89271 12.6154 10.2375 12.6777 10.5747C13.1681 13.2259 15.4843 15.1502 18.1848 15.1502C21.2731 15.1502 23.7857 12.6375 23.7857 9.54923C23.7857 6.84787 21.8607 4.53236 19.2122 4.04374C19.1142 4.02523 19.0151 4.01013 18.9153 3.99698V2.24364H17.4542V3.83248C16.5318 2.82017 15.2438 2.14757 13.8014 2.02253C13.6407 2.00864 13.4786 2 13.3144 2H12.5838V2.73056C12.5838 2.89481 12.5925 3.05687 12.6063 3.2176C12.701 4.3093 13.1095 5.31187 13.7416 6.13508C14.1567 6.67557 14.6675 7.13851 15.2493 7.49806C16.1034 8.02601 17.109 8.33151 18.1848 8.33151H18.9153V5.47527C18.9247 5.47697 18.9342 5.47819 18.9436 5.47989C20.9027 5.84128 22.3246 7.55249 22.3246 9.54911C22.3246 11.8319 20.4675 13.6889 18.1848 13.6889C16.1885 13.6889 14.4767 12.2673 14.1143 10.3089C14.0682 10.0594 14.0449 9.80383 14.0449 9.54911C14.0449 9.38424 14.0558 9.22194 14.0745 9.06207L12.6063 9.06219ZM14.1246 3.54075C15.7588 3.86621 17.0494 5.15662 17.3747 6.79088C15.7404 6.46542 14.4499 5.17501 14.1246 3.54075Z" fill="currentcolor"/>
</svg>
