<svg width="32" height="32" viewBox="0 0 32 32" fill="none" xmlns="http://www.w3.org/2000/svg">
<path d="M28.4168 14.852C27.9323 14.5415 27.3149 14.4292 26.7239 14.5428C26.1185 14.6597 25.5927 15.0058 25.2806 15.493L21.9864 20.6699H18.553C18.7207 20.3808 18.8168 20.0449 18.8168 19.6873C18.8168 18.6037 17.9351 17.722 16.8515 17.722H7.80426L2.6167 22.9096V24.2991L8.21132 18.7046H16.8515C17.3933 18.7046 17.8341 19.1455 17.8341 19.6873C17.8341 20.2291 17.3933 20.6699 16.8515 20.6699H13.4123V21.6525H22.5256L26.1089 16.0217C26.2758 15.761 26.5678 15.5737 26.9102 15.5075C27.2561 15.4408 27.6122 15.5031 27.8866 15.679C28.4017 16.0092 28.5629 16.882 28.2196 17.4728L23.4488 25.5829H7.80426L3.38733 30H4.77689L8.21144 26.5656H24.0111L29.0679 17.9688C29.6771 16.9209 29.3728 15.4642 28.417 14.8517L28.4168 14.852Z" fill="currentcolor"/>
<path d="M12.9443 8.87843C12.9297 9.04032 12.921 9.20405 12.921 9.36975C12.921 9.70126 12.9514 10.0343 13.0114 10.3595C13.4847 12.9175 15.7196 14.7742 18.3254 14.7742C21.3055 14.7742 23.7299 12.3498 23.7299 9.36975C23.7299 6.76319 21.8726 4.52893 19.3161 4.05739C19.1521 4.02631 18.9852 4.00322 18.8168 3.98774V2H17.8341V3.9886C17.761 3.99524 17.6884 4.00383 17.6161 4.01329C16.6245 2.78647 15.1088 2 13.4123 2H12.921V2.49132C12.921 3.79441 13.3846 4.99138 14.1555 5.92574C14.501 6.34459 14.9091 6.70964 15.3641 7.00897C16.2154 7.56883 17.2327 7.8958 18.3254 7.8958H18.8168V4.97639C18.9239 4.98843 19.0304 5.00329 19.1355 5.02319C21.2283 5.40924 22.7473 7.23719 22.7473 9.36975C22.7473 11.808 20.7637 13.7916 18.3254 13.7916C16.1934 13.7916 14.3648 12.2731 13.9778 10.1809C13.9286 9.91462 13.9036 9.64169 13.9036 9.36975C13.9036 9.20356 13.9137 9.03983 13.9316 8.87843H12.9443ZM13.9342 3.01322C15.9563 3.252 17.5648 4.86044 17.8035 6.88258C15.7814 6.6438 14.173 5.03535 13.9342 3.01322Z" fill="currentcolor"/>
</svg>
