<svg width="32" height="32" viewBox="0 0 32 32" fill="none" xmlns="http://www.w3.org/2000/svg">
<path d="M28.2193 14.7065C27.6398 14.3351 26.905 14.1993 26.2033 14.3354C25.4792 14.4751 24.8478 14.893 24.4693 15.484L21.374 20.348H18.9586C18.9904 20.1919 19.007 20.0305 19.007 19.8652C19.007 18.534 17.924 17.451 16.5928 17.451H7.50201L2.604 22.349V25.0804L8.30195 19.3823H16.5931C16.8594 19.3823 17.0759 19.5989 17.0759 19.8652C17.0759 20.1314 16.8594 20.348 16.5931 20.348H13.2132V22.2793H22.4344L26.0975 16.5232C26.1905 16.3779 26.3627 16.2717 26.5699 16.2316C26.7861 16.1901 27.0134 16.2276 27.1773 16.3326C27.4612 16.5146 27.5497 17.0986 27.3488 17.4442L22.8005 25.1764H7.50201L2.67824 30H5.40976L8.30195 27.1077H23.905L29.0161 18.4192C29.7511 17.1545 29.3862 15.4543 28.2194 14.7067L28.2193 14.7065Z" fill="currentcolor"/>
<path d="M12.2692 9.24265C12.2559 9.40199 12.2474 9.56277 12.2474 9.72549C12.2474 10.0806 12.2802 10.4373 12.3445 10.7859C12.8519 13.5288 15.2479 15.5195 18.0415 15.5195C21.2364 15.5195 23.8355 12.9204 23.8355 9.72549C23.8355 6.9312 21.844 4.53561 19.105 4.03032C19.0727 4.02417 19.0397 4.01982 19.0071 4.01415V2.48284H17.0758V3.48001C16.1625 2.66148 14.9889 2.12892 13.6959 2.02173C13.5366 2.00845 13.3758 2 13.2131 2H12.2474V2.96567C12.2474 3.12839 12.2559 3.28917 12.2692 3.44851C12.3582 4.52185 12.7407 5.51251 13.3365 6.34081C13.8127 7.00266 14.4244 7.56021 15.1313 7.97268C15.9872 8.47205 16.981 8.7597 18.0415 8.7597H19.0071V5.98617C20.7006 6.41927 21.9042 7.95119 21.9042 9.72537C21.9042 11.8553 20.1714 13.5881 18.0415 13.5881C16.1788 13.5881 14.5816 12.2618 14.2436 10.4348C14.2006 10.2019 14.1788 9.96329 14.1788 9.72537C14.1788 9.56181 14.1901 9.4009 14.21 9.24253L12.2692 9.24265ZM14.3492 4.1019C15.5672 4.47731 16.5298 5.44008 16.9054 6.65804C15.6874 6.28263 14.7247 5.31986 14.3492 4.1019Z" fill="currentcolor"/>
</svg>
