<svg version="1.1" id="Layer_1" xmlns="http://www.w3.org/2000/svg" xmlns:xlink="http://www.w3.org/1999/xlink" x="0px" y="0px"
	 viewBox="0 0 32 32" fill="currentcolor">
<linearGradient id="SVGID_1_" gradientUnits="userSpaceOnUse" x1="-312" y1="0" x2="-312" y2="-1">
	<stop  offset="0" style="stop-color:#656565"/>
	<stop  offset="0.618" style="stop-color:#1B1B1B"/>
	<stop  offset="0.6292" style="stop-color:#545454"/>
	<stop  offset="0.9831" style="stop-color:#3E3E3E"/>
</linearGradient>
<path d="M20.999,11h-2v-1h-0.0309c1.2252-0.9122,2.0309-2.3587,2.0309-4c0-2.7568-2.2432-5-5-5s-5,2.2432-5,5
	c0,1.6413,0.8057,3.0878,2.0309,4H12.999v1h-2c-2.7568,0-5,2.2432-5,5v5h2v-5c0-1.6543,1.3457-3,3-3h4l-0.0002-4.1843
	C13.8375,8.4016,12.999,7.3019,12.999,6c0-1.6543,1.3457-3,3-3s3,1.3457,3,3c0,1.3021-0.8386,2.4017-2.0002,2.8158L16.999,13h4
	c1.6543,0,3,1.3457,3,3v5h2v-5C25.999,13.2432,23.7559,11,20.999,11z"/>
<g>
	<path d="M9,30H7v-2.8447c0-0.8945,0.168-1.7695,0.5-2.5986l1.1416-2.8564c0.2373-0.5928,0.3574-1.2168,0.3574-1.8545L9,16.9995
		L11,17l-0.001,2.8457c0,0.8936-0.168,1.7676-0.5,2.5967l-1.1416,2.8564C9.1201,25.8916,9,26.5166,9,27.1553V30z"/>
</g>
<g>
	<path d="M25,30h-2v-2.8438c0-0.6396-0.1201-1.2646-0.3574-1.8574L21.5,22.4453c-0.332-0.8301-0.501-1.7061-0.501-2.6025L21,16.9995
		L23,17l-0.001,2.8428c0,0.6406,0.1201,1.2666,0.3584,1.8594l1.1416,2.8535C24.8311,25.3848,25,26.2598,25,27.1562V30z"/>
</g>
<g>
</g>
<g>
</g>
<g>
</g>
<g>
</g>
<g>
</g>
<g>
</g>
<g>
</g>
<g>
</g>
<g>
</g>
<g>
</g>
<g>
</g>
<g>
</g>
<g>
</g>
<g>
</g>
<g>
</g>
</svg>
