<svg version="1.1" id="Layer_1" xmlns="http://www.w3.org/2000/svg" xmlns:xlink="http://www.w3.org/1999/xlink" x="0px" y="0px"
	 viewBox="0 0 32 32" fill="currentcolor">
<linearGradient id="SVGID_1_" gradientUnits="userSpaceOnUse" x1="-416" y1="0" x2="-416" y2="-1">
	<stop  offset="0" style="stop-color:#656565"/>
	<stop  offset="0.618" style="stop-color:#1B1B1B"/>
	<stop  offset="0.6292" style="stop-color:#545454"/>
	<stop  offset="0.9831" style="stop-color:#3E3E3E"/>
</linearGradient>
<path d="M20.999,11.25h-2.25l0.0007-1.3922C19.9553,8.9954,20.749,7.5919,20.749,6c0-2.6191-2.1309-4.75-4.75-4.75
	s-4.75,2.1309-4.75,4.75c0,1.5926,0.7943,2.9968,2.0007,3.859L13.249,11.25h-2.25c-2.6191,0-4.75,2.1309-4.75,4.75v5h1.5v-5
	c0-1.792,1.458-3.25,3.25-3.25h3.75l0.001-3.7512C13.5764,8.5081,12.749,7.3494,12.749,6c0-1.792,1.458-3.25,3.25-3.25
	s3.25,1.458,3.25,3.25c0,1.3487-0.8265,2.5071-1.999,2.9982L17.249,12.75h3.75c1.792,0,3.25,1.458,3.25,3.25v5h1.5v-5
	C25.749,13.3809,23.6182,11.25,20.999,11.25z"/>
<g>
	<path d="M8.75,30h-1.5v-2.8447c0-0.8623,0.1621-1.7061,0.4824-2.5059L8.874,21.793c0.249-0.6221,0.375-1.2773,0.375-1.9473
		l0.001-2.8462L10.75,17l-0.001,2.8457c0,0.8613-0.1621,1.7041-0.4824,2.5039L9.125,25.2061
		c-0.249,0.6221-0.375,1.2783-0.375,1.9492V30z"/>
</g>
<g>
	<path d="M24.75,30h-1.5v-2.8438c0-0.6719-0.126-1.3281-0.376-1.9502l-1.1416-2.8535c-0.3203-0.8008-0.4834-1.6455-0.4834-2.5098
		l0.001-2.8433L22.75,17l-0.001,2.8428c0,0.6729,0.127,1.3291,0.376,1.9531l1.1416,2.8525
		c0.3203,0.7998,0.4834,1.6436,0.4834,2.5078V30z"/>
</g>
<g>
</g>
<g>
</g>
<g>
</g>
<g>
</g>
<g>
</g>
<g>
</g>
<g>
</g>
<g>
</g>
<g>
</g>
<g>
</g>
<g>
</g>
<g>
</g>
<g>
</g>
<g>
</g>
<g>
</g>
</svg>
