<svg width="32" height="32" viewBox="0 0 32 32" fill="none" xmlns="http://www.w3.org/2000/svg">
<path d="M25.8658 3.9744C26.1542 3.68587 26.5376 3.52703 26.9457 3.52703C27.3537 3.52703 27.7372 3.68587 28.0256 3.9744C28.6211 4.56991 28.6211 5.53885 28.0256 6.13437L25.2873 8.87266H27.4471L29.1055 7.21428C30.2964 6.02338 30.2964 4.08564 29.1055 2.89474C28.5286 2.3178 27.7614 2 26.9456 2C26.1297 2 25.3625 2.31768 24.7856 2.89474L18.8075 8.87279H20.9674L25.8656 3.97465L25.8658 3.9744Z" fill="currentcolor"/>
<path d="M2 10.1453V12.9453C2 18.5759 5.3417 23.4401 10.1455 25.6607V30H21.8547V25.6607C26.6586 23.4401 30.0003 18.5759 30.0003 12.9453V10.1453H2ZM20.3274 28.4727H11.6728V26.2601C13.0362 26.7042 14.4904 26.9454 16.0001 26.9454C17.5099 26.9454 18.9641 26.7042 20.3274 26.2601V28.4727ZM28.473 12.9453C28.473 19.8228 22.8778 25.4181 16.0001 25.4181C9.1225 25.4181 3.52729 19.8228 3.52729 12.9453V11.6726H28.473V12.9453Z" fill="currentcolor"/>
<path d="M16.7638 13.4544H15.2365V17.5228H16.7638V13.4544Z" fill="currentcolor"/>
<path d="M21.0911 17.7817H17.0183V19.309H21.0911V17.7817Z" fill="currentcolor"/>
<path d="M16.7638 19.5592H15.2365V23.6363H16.7638V19.5592Z" fill="currentcolor"/>
<path d="M14.9931 17.7817H10.9092V19.309H14.9931V17.7817Z" fill="currentcolor"/>
</svg>
