<svg width="32" height="32" viewBox="0 0 32 32" fill="none" xmlns="http://www.w3.org/2000/svg">
<path d="M16.2367 14.5154L16.2433 14.5088V12.448L16.2368 12.4544L10.7614 7.00678C10.3668 6.61414 10.1496 6.09245 10.1496 5.538C10.1496 4.98356 10.367 4.46162 10.7615 4.06923C11.17 3.66271 11.7067 3.45963 12.2432 3.45963C12.7798 3.45963 13.3164 3.66283 13.7249 4.06923L16.2369 6.56873L18.7492 4.06959C19.5663 3.2568 20.8958 3.2568 21.7127 4.06959C22.1073 4.46223 22.3245 4.98392 22.3245 5.53837C22.3245 5.94513 22.2065 6.33363 21.9886 6.6671H23.6008C23.7217 6.30806 23.7855 5.92833 23.7855 5.53849C23.7855 4.59226 23.4154 3.70276 22.7432 3.034C21.3579 1.65568 19.1041 1.65592 17.7189 3.03375L16.2371 4.50777L14.7554 3.03363C13.3704 1.65544 11.1164 1.65556 9.73118 3.03339C9.05889 3.70215 8.68865 4.59165 8.68865 5.53788C8.68865 6.48411 9.05877 7.37361 9.73094 8.04237L16.2367 14.5154Z" fill="currentcolor"/>
<path d="M20.8697 7.11136H19.4087V9.5422H20.8697V7.11136Z" fill="currentcolor"/>
<path d="M20.8697 11.4902H19.4087V13.9293H20.8697V11.4902Z" fill="currentcolor"/>
<path d="M23.5498 9.78983H21.1132V11.2508H23.5498V9.78983Z" fill="currentcolor"/>
<path d="M19.1652 9.78983H16.7319V11.2508H19.1652V9.78983Z" fill="currentcolor"/>
<path d="M28.3254 14.7752C27.793 14.4339 27.1167 14.31 26.4696 14.4348C25.8043 14.5634 25.2253 14.9455 24.8799 15.485L21.6863 20.5037H18.7966C18.8777 20.2752 18.9218 20.0293 18.9218 19.7732C18.9218 18.5649 17.9386 17.5818 16.7303 17.5818H7.66182L2.60742 22.6361V24.7022L8.26691 19.0427H16.7303C17.1331 19.0427 17.4608 19.3704 17.4608 19.7732C17.4608 20.1761 17.1331 20.5037 16.7303 20.5037H13.3213V21.9647H22.4881L26.1114 16.2711C26.2409 16.0688 26.4725 15.9223 26.7467 15.8692C27.0288 15.8149 27.3171 15.8642 27.5369 16.0052C27.9392 16.263 28.0629 16.9826 27.7885 17.4548L23.1304 25.3735H7.66182L3.03537 30H5.10144L8.26691 26.8345H23.9659L29.0497 18.1922C29.7157 17.0462 29.3773 15.4494 28.3253 14.7752H28.3254Z" fill="currentcolor"/>
</svg>
