<svg width="32" height="32" viewBox="0 0 32 32" fill="none" xmlns="http://www.w3.org/2000/svg">
<path d="M25.999 3.72175L27.5159 6.25H28.6821L26.2821 2.25H25.7159L23.3159 6.25H24.4821L25.999 3.72175Z" fill="currentcolor"/>
<path d="M21.499 28.75V24.7262C24.2981 24.4726 26.499 22.1141 26.499 19.25V8.24512H25.499V16.0935C24.5029 14.6778 22.8577 13.75 20.999 13.75C18.5051 13.75 16.395 15.419 15.7234 17.6982L13.1838 10.3881L13.175 10.3911C12.4652 8.42062 10.6608 6.9695 8.499 6.77362V3.74988H13.499V2.74988H2V3.74988H7.499V6.77362C4.69988 7.02725 2.499 9.38575 2.499 12.2499V26.245H3.499V15.4064C4.49513 16.8221 6.14025 17.7499 7.999 17.7499C10.5139 17.7499 12.6383 16.0526 13.291 13.744L15.6516 20.539L15.6529 20.5386C16.1966 22.7942 18.1335 24.512 20.4989 24.7262V28.75H2V29.75H30V28.75H21.499ZM7.999 16.75C5.51763 16.75 3.499 14.7314 3.499 12.25C3.499 9.76863 5.51763 7.75 7.999 7.75C10.4804 7.75 12.499 9.76863 12.499 12.25C12.499 14.7314 10.4804 16.75 7.999 16.75ZM16.499 19.25C16.499 16.7686 18.5176 14.75 20.999 14.75C23.4804 14.75 25.499 16.7686 25.499 19.25C25.499 21.7314 23.4804 23.75 20.999 23.75C18.5176 23.75 16.499 21.7314 16.499 19.25Z" fill="currentcolor"/>
</svg>
