<svg width="32" height="32" viewBox="0 0 32 32" fill="none" xmlns="http://www.w3.org/2000/svg">
<path d="M25.999 4.08275L27.2244 6.125H28.9736L26.5736 2.125H25.4244L23.0244 6.125H24.7736L25.999 4.08275Z" fill="currentcolor"/>
<path d="M21.749 28.375V24.8245C24.5662 24.4556 26.749 22.0413 26.749 19.125V8.12012H25.249V15.2561C24.1966 14.101 22.681 13.375 20.999 13.375C18.6448 13.375 16.6175 14.7978 15.7291 16.8281L13.4199 10.1811L13.4111 10.1841C12.6946 8.1925 10.9085 6.70825 8.749 6.4255V3.875H13.499V2.375H2V3.875H7.249V6.4255C4.43175 6.79437 2.249 9.20875 2.249 12.125V26.1201H3.749V15.9939C4.80137 17.149 6.317 17.875 7.999 17.875C10.3709 17.875 12.4117 16.4311 13.2895 14.3764L15.4154 20.4956C15.9738 22.7697 17.8881 24.5154 20.249 24.8245V28.375H2V29.875H30V28.375H21.749ZM7.999 16.375C5.6555 16.375 3.749 14.4685 3.749 12.125C3.749 9.7815 5.6555 7.875 7.999 7.875C10.3425 7.875 12.249 9.7815 12.249 12.125C12.249 14.4685 10.3425 16.375 7.999 16.375ZM16.749 19.125C16.749 16.7815 18.6555 14.875 20.999 14.875C23.3425 14.875 25.249 16.7815 25.249 19.125C25.249 21.4685 23.3425 23.375 20.999 23.375C18.6555 23.375 16.749 21.4685 16.749 19.125Z" fill="currentcolor"/>
</svg>
