<svg width="32" height="32" viewBox="0 0 32 32" fill="none" xmlns="http://www.w3.org/2000/svg">
<path d="M4.69048 12.7166C3.61852 11.6447 3.0283 10.2195 3.0283 8.70375C3.0283 7.18796 3.61865 5.76258 4.69061 4.69075C5.76258 3.61891 7.18769 3.02856 8.70348 3.02856C10.2193 3.02856 11.6446 3.61878 12.7165 4.69075L19.2832 11.2574L20.0127 10.5279L13.446 3.96123C10.8314 1.34639 6.57593 1.34613 3.96084 3.96123C1.34574 6.5762 1.34574 10.8313 3.96084 13.4463L10.5275 20.013L11.2571 19.2834L4.69036 12.7167L4.69048 12.7166Z" fill="currentcolor"/>
<path d="M28.0387 18.5538L21.472 11.9871L20.7425 12.7166L27.3092 19.2833C28.3811 20.3553 28.9714 21.7804 28.9714 23.2962C28.9714 24.812 28.3811 26.2374 27.3092 27.3092C26.2372 28.381 24.8121 28.9714 23.2962 28.9714C21.7803 28.9714 20.3552 28.3812 19.2833 27.3092L12.7166 20.7425L11.9871 21.472L18.5538 28.0387C19.8613 29.3463 21.5788 30 23.2963 30C25.0138 30 26.7315 29.3463 28.039 28.0387C30.6541 25.4237 30.6541 21.1686 28.039 18.5537L28.0387 18.5538Z" fill="currentcolor"/>
<path d="M19.2832 11.9869L11.9869 19.2832L12.7164 20.0127L20.0127 12.7164L19.2832 11.9869Z" fill="currentcolor"/>
</svg>
