<svg version="1.1" id="Layer_1" xmlns="http://www.w3.org/2000/svg" xmlns:xlink="http://www.w3.org/1999/xlink" x="0px" y="0px"
	 viewBox="0 0 32 32" fill="currentcolor">
<linearGradient id="SVGID_1_" gradientUnits="userSpaceOnUse" x1="0" y1="0" x2="6.123234e-17" y2="-1">
	<stop  offset="0" style="stop-color:#656565"/>
	<stop  offset="0.618" style="stop-color:#1B1B1B"/>
	<stop  offset="0.6292" style="stop-color:#545454"/>
	<stop  offset="0.9831" style="stop-color:#3E3E3E"/>
</linearGradient>
<g>
	<path d="M9,11c-2.7568,0-5-2.2432-5-5s2.2432-5,5-5s5,2.2432,5,5S11.7568,11,9,11z M9,3C7.3457,3,6,4.3457,6,6s1.3457,3,3,3
		s3-1.3457,3-3S10.6543,3,9,3z"/>
</g>
<g>
	<path d="M29,18h-2c0-2.7568-2.2432-5-5-5v-2C25.8594,11,29,14.1401,29,18z"/>
</g>
<path d="M18.9111,16.0591C18.4697,13.7505,16.4355,12,14,12H4v14h2V14h8c1.3019,0,2.4016,0.8385,2.8157,2H15v2h3
	c2.7568,0,5,2.2432,5,5v5h-5.3511C17.8674,27.5436,18,27.0388,18,26.5c0-1.9297-1.5703-3.5-3.5-3.5H11v-5H9v7h5.5
	c0.8271,0,1.5,0.6729,1.5,1.5S15.3271,28,14.5,28H4v2h21v-7C25,19.4492,22.3418,16.5073,18.9111,16.0591z"/>
<g>
</g>
<g>
</g>
<g>
</g>
<g>
</g>
<g>
</g>
<g>
</g>
<g>
</g>
<g>
</g>
<g>
</g>
<g>
</g>
<g>
</g>
<g>
</g>
<g>
</g>
<g>
</g>
<g>
</g>
</svg>
