<svg version="1.1" id="Layer_1" xmlns="http://www.w3.org/2000/svg" xmlns:xlink="http://www.w3.org/1999/xlink" x="0px" y="0px"
	 viewBox="0 0 32 32" fill="currentcolor">
<g>
	<path d="M9,10.75c-2.6191,0-4.75-2.1309-4.75-4.75S6.3809,1.25,9,1.25S13.75,3.3809,13.75,6S11.6191,10.75,9,10.75z M9,2.75
		C7.208,2.75,5.75,4.208,5.75,6S7.208,9.25,9,9.25S12.25,7.792,12.25,6S10.792,2.75,9,2.75z"/>
</g>
<path d="M18.6963,16.2856C18.3506,14.0039,16.377,12.25,14,12.25H4.25V26h1.5V13.75H14c1.5328,0,2.8134,1.0699,3.1541,2.5H15v1.5h3
	c2.8945,0,5.25,2.3555,5.25,5.25v5.25h-6.0201c0.3256-0.5062,0.5201-1.1047,0.5201-1.75c0-1.792-1.458-3.25-3.25-3.25h-3.75V18h-1.5
	v6.75h5.25c0.9648,0,1.75,0.7852,1.75,1.75s-0.7852,1.75-1.75,1.75H4.25v1.5h20.5V23C24.75,19.5127,22.0928,16.6353,18.6963,16.2856
	z"/>
<g>
	<path d="M28.75,18h-1.5c0-2.895-2.3555-5.25-5.25-5.25v-1.5C25.7217,11.25,28.75,14.2778,28.75,18z"/>
</g>
</svg>
