<svg version="1.1" id="Layer_1" xmlns="http://www.w3.org/2000/svg" xmlns:xlink="http://www.w3.org/1999/xlink" x="0px" y="0px"
	 viewBox="0 0 32 32" fill="currentcolor">
<g>
	<path d="M9,10.5c-2.4814,0-4.5-2.0186-4.5-4.5S6.5186,1.5,9,1.5s4.5,2.0186,4.5,4.5S11.4814,10.5,9,10.5z M9,2.5
		C7.0703,2.5,5.5,4.0703,5.5,6S7.0703,9.5,9,9.5s3.5-1.5703,3.5-3.5S10.9297,2.5,9,2.5z"/>
</g>
<g>
	<path d="M28.5,18h-1c0-3.0327-2.4678-5.5-5.5-5.5v-1C25.584,11.5,28.5,14.416,28.5,18z"/>
</g>
<path d="M18.4746,16.5171C18.2324,14.2622,16.3184,12.5,14,12.5H4.5V26h1V13.5H14c1.7585,0,3.2042,1.3083,3.4495,3H15v1h3
	c3.0322,0,5.5,2.4678,5.5,5.5v5.5h-6.7803c0.4797-0.532,0.7803-1.2289,0.7803-2c0-1.6543-1.3457-3-3-3h-4V18h-1v6.5h5
	c1.1025,0,2,0.8975,2,2s-0.8975,2-2,2h-10v1h20V23C24.5,19.5752,21.8379,16.7607,18.4746,16.5171z"/>
</svg>
