<svg width="32" height="32" viewBox="0 0 32 32" fill="none" xmlns="http://www.w3.org/2000/svg">
<path d="M17.9017 23.5297L19.3175 22.1203L17.9065 20.7029L16.4875 22.1154L15.363 20.9911C15.4162 20.9866 15.4691 20.9808 15.5216 20.9737C16.2505 20.8737 16.8964 20.5112 17.361 19.9847C17.8279 19.4557 18.112 18.7617 18.112 18.0024C18.112 16.3483 16.7662 15.0024 15.112 15.0024H11.9977V23.0067H13.9977V22.4544L15.0701 23.5267L13.6544 24.9361L15.0654 26.3534L16.4845 24.9408L17.9054 26.3616L19.3195 24.9473L17.9019 23.5299L17.9017 23.5297ZM13.9976 17.0024H15.1119C15.6632 17.0024 16.1119 17.4511 16.1119 18.0024C16.1119 18.5538 15.6632 19.0024 15.1119 19.0024H13.9976V17.0024Z" fill="currentcolor"/>
<path d="M27.9976 15.8886L26.4106 9.00243H24.3581L25.7409 15.0024H22.0015V17.0024H25.9979L26.0002 28.0024H6.00049V17.0024H10.0015V15.0024H6.25749L7.64149 9.00243H5.58899L4.00049 15.8886V30.0024H28.0007L27.9976 15.8886Z" fill="currentcolor"/>
<path d="M27.0005 2.00243H24.7974L24.7962 1.99756H7.20486L7.20374 2.00243H5.00049V8.00243H27.0005V2.00243ZM25.0005 6.00243H7.00049V4.00243H25.0005V6.00243Z" fill="currentcolor"/>
</svg>
