<svg width="32" height="32" viewBox="0 0 32 32" fill="none" xmlns="http://www.w3.org/2000/svg">
<path d="M9 24.75C10.5164 24.75 11.75 23.5164 11.75 22C11.75 20.4836 10.5164 19.25 9 19.25C7.48362 19.25 6.25 20.4836 6.25 22C6.25 23.5164 7.48362 24.75 9 24.75ZM9 20.75C9.68925 20.75 10.25 21.3107 10.25 22C10.25 22.6893 9.68925 23.25 9 23.25C8.31075 23.25 7.75 22.6893 7.75 22C7.75 21.3107 8.31075 20.75 9 20.75Z" fill="currentcolor"/>
<path d="M25.75 22C25.75 20.4836 24.5164 19.25 23 19.25C21.4836 19.25 20.25 20.4836 20.25 22C20.25 23.5164 21.4836 24.75 23 24.75C24.5164 24.75 25.75 23.5164 25.75 22ZM23 20.75C23.6893 20.75 24.25 21.3107 24.25 22C24.25 22.6893 23.6893 23.25 23 23.25C22.3107 23.25 21.75 22.6893 21.75 22C21.75 21.3107 22.3107 20.75 23 20.75Z" fill="currentcolor"/>
<path d="M29.75 2H28.25V12C28.25 13.2406 27.2406 14.25 26 14.25H21.375L17.25 19.75V30H18.75V20.25L22.125 15.75H26C28.0677 15.75 29.75 14.0677 29.75 12V2Z" fill="currentcolor"/>
<path d="M12.5 6.75H19.5C21.5677 6.75 23.25 8.43225 23.25 10.5C23.25 10.9269 23.1779 11.3475 23.0355 11.75L22.6821 12.75H25.75C26.3014 12.75 26.75 12.3014 26.75 11.75V2H25.25V11.25H24.6963C24.732 11.0025 24.75 10.752 24.75 10.5C24.75 7.60512 22.3949 5.25 19.5 5.25H12.5C9.60512 5.25 7.25 7.60512 7.25 10.5C7.25 10.752 7.268 11.0025 7.30375 11.25H6.75V2H5.25V11.75C5.25 12.3014 5.69863 12.75 6.25 12.75H9.31787L8.9645 11.75C8.82213 11.3475 8.75 10.9269 8.75 10.5C8.75 8.43225 10.4323 6.75 12.5 6.75Z" fill="currentcolor"/>
<path d="M6 15.75H9.875L13.25 20.25V30H14.75V19.75L10.625 14.25H6C4.75938 14.25 3.75 13.2406 3.75 12V2H2.25V12C2.25 14.0677 3.93225 15.75 6 15.75Z" fill="currentcolor"/>
</svg>
