<svg width="32" height="32" viewBox="0 0 32 32" fill="none" xmlns="http://www.w3.org/2000/svg">
<path d="M15.2977 21.5372C14.0947 22.7396 12.1376 22.7396 10.9352 21.5372C9.73234 20.3342 9.73234 18.3773 10.9352 17.1745L13.6198 14.4898L12.6132 13.4833L9.92858 16.1679C8.17075 17.9256 8.17075 20.7859 9.92858 22.5438C10.8075 23.4226 11.962 23.8621 13.1165 23.8621C14.2711 23.8621 15.4256 23.4226 16.3044 22.5437L18.989 19.8591L17.9825 18.8525L15.2977 21.5372Z" fill="currentcolor"/>
<path d="M23.0158 9.45627C21.2581 7.69881 18.3977 7.69845 16.64 9.45627L13.9553 12.1409L14.9619 13.1475L17.6466 10.4628C18.248 9.86156 19.0379 9.5608 19.8278 9.5608C20.6178 9.5608 21.4078 9.86156 22.0091 10.4628C23.2119 11.6658 23.2119 13.6227 22.0091 14.8255L19.3244 17.5102L20.331 18.5167L23.0157 15.8321C24.7735 14.0744 24.7735 11.2141 23.0157 9.45615L23.0158 9.45627Z" fill="currentcolor"/>
<path d="M14.9621 13.4831L13.9554 14.4898L17.9823 18.5167L18.989 17.51L14.9621 13.4831Z" fill="currentcolor"/>
<path d="M16.5311 28.5763C9.56671 28.5763 3.90077 22.9345 3.90077 16.0001C3.90077 9.06558 9.56671 3.42384 16.5311 3.42384C19.2479 3.42384 21.8364 4.26941 24.0164 5.8692L24.8588 4.72145C22.4328 2.94108 19.5531 2 16.5312 2C8.78165 2.00012 2.47705 8.28052 2.47705 16.0001C2.47705 23.7196 8.78165 30 16.5311 30C20.4856 30 24.2016 28.367 26.8613 25.4915H24.8187C22.5374 27.4715 19.615 28.5763 16.5311 28.5763Z" fill="currentcolor"/>
<path d="M24.0653 21.9322V23.356H28.0992V27.3898H29.5229V21.9322H24.0653Z" fill="currentcolor"/>
</svg>
