<svg width="32" height="32" viewBox="0 0 32 32" fill="none" xmlns="http://www.w3.org/2000/svg">
<path d="M29.5595 11.7801C29.5595 11.0909 29.4128 10.5431 29.0981 10.0562C28.9139 9.77092 28.6666 9.51102 28.3685 9.28763L27.5884 8.68655V2.9338H26.5849V9.18025L27.7613 10.0865C27.9695 10.2426 28.1357 10.4156 28.2553 10.6009C28.4661 10.9269 28.5559 11.2795 28.5559 11.7801C28.5559 13.2537 27.357 14.4525 25.8835 14.4525H10.6572C10.0333 14.4525 9.52575 13.945 9.52575 13.3211C9.52575 12.8654 9.87835 12.3989 10.3186 12.2622L20.5639 9.31096L20.5643 2.9126H19.5608L19.5604 8.55585L10.031 11.301C9.15673 11.5723 8.52229 12.422 8.52229 13.3212C8.52229 14.4984 9.47997 15.4561 10.6572 15.4561H25.8835C27.9103 15.4561 29.5594 13.8071 29.5594 11.7802L29.5595 11.7801Z" fill="currentcolor"/>
<path d="M22.0695 9.45633V10.4598C23.4528 10.4598 24.5781 9.33441 24.5781 7.95113H23.5747C23.5747 8.78113 22.8995 9.45633 22.0695 9.45633Z" fill="currentcolor"/>
<path d="M6.66274 11.7968L7.37231 11.0872L4.00706 7.72209V9.14112L6.66274 11.7968Z" fill="currentcolor"/>
<path d="M7.37219 16.8143L6.66261 16.1046L4.00706 18.7602V20.1794L7.37219 16.8143Z" fill="currentcolor"/>
<path d="M2 14.4525L6.01813 14.4535L6.01839 13.45L2.00025 13.449L2 14.4525Z" fill="currentcolor"/>
<path d="M8.8888 18.8034H9.43331C9.77135 18.8034 9.90306 18.9219 9.90306 19.2601V19.9976H10.5923V19.1986C10.5923 18.8079 10.4168 18.5619 10.0479 18.5006C10.3509 18.4128 10.6451 18.1712 10.6451 17.7453C10.6451 17.1922 10.2104 16.9244 9.62209 16.9244H8.21272V19.9978H8.88893V18.8035L8.8888 18.8034ZM8.8888 17.4949H9.48599C9.78452 17.4949 9.94696 17.6134 9.94696 17.8636C9.94696 18.1183 9.78452 18.2369 9.48599 18.2369H8.8888V17.4949Z" fill="currentcolor"/>
<path d="M13.5561 19.418H11.9755V18.7111H13.4198V18.1402H11.9755V17.5036H13.4858V16.9241H11.2905V19.9975H13.5561V19.418Z" fill="currentcolor"/>
<path d="M16.9762 18.4652C16.9762 17.451 16.3747 16.9241 15.321 16.9241H14.1882V19.9975H15.3254C16.4143 19.9975 16.9762 19.3829 16.9762 18.4652ZM15.277 19.418H14.8731V17.5036H15.2814C15.9444 17.5036 16.2693 17.855 16.2693 18.4652C16.2693 19.1369 15.8653 19.418 15.277 19.418Z" fill="currentcolor"/>
<path d="M20.1374 18.7945V16.9241H19.4524V18.6935C19.4524 19.2247 19.2505 19.4969 18.8466 19.4969C18.4382 19.4969 18.2406 19.2334 18.2406 18.6935V16.9241H17.5558V18.7945C17.5558 19.6112 18.0211 20.0765 18.8422 20.0765C19.6633 20.0765 20.1374 19.6112 20.1374 18.7945Z" fill="currentcolor"/>
<path d="M23.6893 18.8341H23.0001C22.9474 19.2336 22.6664 19.5058 22.2536 19.5058C21.7663 19.5058 21.4239 19.1107 21.4239 18.4433C21.4239 17.789 21.7795 17.4158 22.2669 17.4158C22.684 17.4158 22.9212 17.6705 22.9695 18.0438H23.6764C23.606 17.2797 23.0441 16.845 22.2714 16.845C21.3889 16.845 20.7127 17.4422 20.7127 18.4433C20.7127 19.4795 21.3055 20.0765 22.2274 20.0765C23.0968 20.0765 23.6236 19.5673 23.6893 18.8341Z" fill="currentcolor"/>
<path d="M26.5212 19.418H24.9405V18.7111H26.385V18.1402H24.9405V17.5036H26.4509V16.9241H24.2555V19.9975H26.5212V19.418Z" fill="currentcolor"/>
<path d="M28.2861 16.9241H27.1534V19.9975H28.2905C29.3794 19.9975 29.9413 19.3829 29.9413 18.4652C29.9413 17.451 29.3398 16.9241 28.2861 16.9241ZM28.2422 19.418H27.8382V17.5036H28.2466C28.9095 17.5036 29.2345 17.855 29.2345 18.4652C29.2345 19.1369 28.8305 19.418 28.2422 19.418Z" fill="currentcolor"/>
<path d="M8.49883 21.039H8.08804V22.8825H8.49883V21.039Z" fill="currentcolor"/>
<path d="M10.6503 21.039H10.2447V22.0583C10.2447 22.1556 10.2474 22.2479 10.2578 22.3322L9.56 21.039H8.96206V22.8825H9.36507V21.7026C9.36507 21.6106 9.36244 21.5421 9.3519 21.4445L10.1288 22.8825H10.6503V21.039Z" fill="currentcolor"/>
<path d="M12.4307 21.3866V21.039H11.1139V22.8825H11.5247V22.1556H12.378V21.808H11.5247V21.3866H12.4307Z" fill="currentcolor"/>
<path d="M14.0898 22.5349H13.1969V21.039H12.7861V22.8825H14.0898V22.5349Z" fill="currentcolor"/>
<path d="M14.2187 22.8825H14.6559L14.8192 22.4243H15.5592L15.7198 22.8825H16.1727L15.4433 21.039H14.9482L14.2187 22.8825ZM15.1906 21.363C15.2089 21.434 15.2327 21.4999 15.2616 21.5842L15.4381 22.0846H14.9402L15.1167 21.5842C15.1455 21.5026 15.172 21.4341 15.1906 21.363Z" fill="currentcolor"/>
<path d="M18.58 21.039H17.9505L17.566 22.282C17.545 22.3584 17.5319 22.419 17.5214 22.4796C17.5108 22.419 17.495 22.3584 17.474 22.282L17.071 21.039H16.4389V22.8825H16.8261V21.7C16.8261 21.6052 16.8208 21.5183 16.8156 21.434L17.2817 22.8825H17.761L18.1981 21.4315C18.1928 21.5158 18.1903 21.6053 18.1903 21.6974V22.8825H18.58V21.039Z" fill="currentcolor"/>
<path d="M20.7977 22.8825H21.1874V21.039H20.5579L20.1734 22.282C20.1523 22.3584 20.1393 22.419 20.1288 22.4796C20.1182 22.419 20.1024 22.3584 20.0814 22.282L19.6783 21.039H19.0463V22.8825H19.4335V21.7C19.4335 21.6052 19.4282 21.5183 19.423 21.434L19.8891 22.8825H20.3683L20.8055 21.4315C20.8002 21.5158 20.7977 21.6053 20.7977 21.6974V22.8825Z" fill="currentcolor"/>
<path d="M22.1831 21.039L21.4536 22.8825H21.8907L22.054 22.4243H22.7941L22.9547 22.8825H23.4076L22.6782 21.039H22.1831ZM22.1752 22.0846L22.3517 21.5842C22.3805 21.5026 22.4069 21.4341 22.4255 21.363C22.4438 21.434 22.4676 21.4999 22.4964 21.5842L22.6729 22.0846H22.1751H22.1752Z" fill="currentcolor"/>
<path d="M23.9054 22.8825H24.3164V21.3866H24.9142V21.039H23.3025V21.3866H23.9054V22.8825Z" fill="currentcolor"/>
<path d="M25.6278 21.039H25.217V22.8825H25.6278V21.039Z" fill="currentcolor"/>
<path d="M27.8478 21.9607C27.8478 21.3681 27.4449 20.9914 26.9182 20.9914C26.3888 20.9914 25.9964 21.3576 25.9964 21.9607C25.9964 22.5822 26.3888 22.9299 26.9182 22.9299C27.4449 22.9299 27.8478 22.5744 27.8478 21.9607ZM26.9182 22.5849C26.6206 22.5849 26.4231 22.361 26.4231 21.9607C26.4231 21.5657 26.6181 21.3365 26.9182 21.3365C27.2158 21.3365 27.4238 21.5708 27.4238 21.9607C27.4238 22.3662 27.2131 22.5849 26.9182 22.5849Z" fill="currentcolor"/>
<path d="M29.9099 22.8825V21.039H29.5044V22.0583C29.5044 22.1556 29.507 22.2479 29.5176 22.3322L28.8197 21.039H28.2219V22.8825H28.6247V21.7026C28.6247 21.6106 28.6221 21.5421 28.6117 21.4445L29.3885 22.8825H29.9099Z" fill="currentcolor"/>
<path d="M8.47048 24.011H8.07913V25.7674H8.47048V24.011Z" fill="currentcolor"/>
<path d="M10.3323 25.7674V24.011H9.94583V24.9821C9.94583 25.0749 9.94847 25.1627 9.95837 25.243L9.29345 24.011H8.72386V25.7674H9.10781V24.6433C9.10781 24.5555 9.1053 24.4903 9.09527 24.3975L9.83545 25.7674H10.3323Z" fill="currentcolor"/>
<path d="M11.338 25.7674H11.7294V25.0751H12.5423V24.7438H11.7294V24.3423H12.5926V24.011H11.338V25.7674Z" fill="currentcolor"/>
<path d="M13.1342 24.011H12.7427V25.7674H13.1342V24.011Z" fill="currentcolor"/>
<path d="M14.6096 24.9821C14.6096 25.0749 14.6121 25.1627 14.6221 25.243L13.9572 24.011H13.3876V25.7674H13.7716V24.6433C13.7716 24.5555 13.7689 24.4903 13.7589 24.3975L14.4991 25.7674H14.9959V24.011H14.6096V24.9821Z" fill="currentcolor"/>
<path d="M16.4985 25.5467C16.4884 25.6094 16.4834 25.6594 16.4834 25.7198V25.7674H16.8398V24.8165H16.0342V25.1226H16.4734C16.4684 25.3459 16.2903 25.4889 16.0569 25.4889C15.7583 25.4889 15.5651 25.2631 15.5651 24.8893C15.5651 24.5129 15.7708 24.292 16.0593 24.292C16.2675 24.292 16.4057 24.4125 16.4281 24.5706H16.8321C16.7995 24.2219 16.5085 23.9658 16.0568 23.9658C15.5222 23.9658 15.1585 24.3448 15.1585 24.8968C15.1585 25.4589 15.4872 25.8127 15.974 25.8127C16.2349 25.8127 16.4157 25.7022 16.4985 25.5467Z" fill="currentcolor"/>
<path d="M18.2972 24.3423V24.011H17.0426V25.7674H18.3375V25.4362H17.434V25.0323H18.2596V24.706H17.434V24.3423H18.2972Z" fill="currentcolor"/>
<path d="M18.9017 25.0851H19.2127C19.406 25.0851 19.4813 25.1528 19.4813 25.346V25.7674H19.8753V25.3107C19.8753 25.0875 19.7749 24.947 19.5642 24.9117C19.7374 24.8616 19.9055 24.7236 19.9055 24.4802C19.9055 24.164 19.6571 24.011 19.3208 24.011H18.5154V25.7674H18.9018V25.0851H18.9017ZM18.9017 24.3373H19.243C19.4135 24.3373 19.5065 24.405 19.5065 24.5481C19.5065 24.6936 19.4137 24.7613 19.243 24.7613H18.9017V24.3373Z" fill="currentcolor"/>
<path d="M20.9738 24.7211L20.6878 24.6684C20.5246 24.6383 20.4243 24.5956 20.4243 24.4802C20.4243 24.3548 20.5524 24.2844 20.7203 24.2844C20.9486 24.2844 21.0491 24.4049 21.0591 24.553H21.4655C21.4429 24.2042 21.1946 23.9657 20.7379 23.9657C20.3313 23.9657 20.0327 24.1841 20.0327 24.5103C20.0327 24.8039 20.2586 24.962 20.5422 25.0147L20.8407 25.0699C21.0063 25.1025 21.0891 25.1627 21.0891 25.2781C21.0891 25.4236 20.9511 25.4889 20.7805 25.4889C20.5673 25.4889 20.3966 25.3761 20.3815 25.1602H19.975C19.9977 25.5617 20.2912 25.8126 20.7655 25.8126C21.2372 25.8126 21.4831 25.5642 21.4831 25.233C21.4831 24.9219 21.2523 24.7713 20.9737 24.7211H20.9738Z" fill="currentcolor"/>
<path d="M22.5358 24.405V24.8592H22.1168V25.1778H22.5358V25.632H22.8796V25.1778H23.3036V24.8592H22.8796V24.405H22.5358Z" fill="currentcolor"/>
<path d="M24.689 25.7674V24.3423H25.2586V24.011H23.7231V24.3423H24.2977V25.7674H24.689Z" fill="currentcolor"/>
<path d="M26.0813 25.8126C26.5832 25.8126 26.9671 25.4739 26.9671 24.8893C26.9671 24.3247 26.5832 23.9658 26.0813 23.9658C25.5795 23.9658 25.2032 24.3147 25.2032 24.8893C25.2032 25.4815 25.577 25.8126 26.0813 25.8126ZM26.0813 24.2945C26.3649 24.2945 26.5631 24.5178 26.5631 24.8892C26.5631 25.2755 26.3623 25.4838 26.0813 25.4838C25.7977 25.4838 25.6096 25.2705 25.6096 24.8892C25.6096 24.5127 25.7952 24.2945 26.0813 24.2945Z" fill="currentcolor"/>
<path d="M28.4297 25.4362H27.5262V25.0323H28.3518V24.706H27.5262V24.3423H28.3894V24.011H27.1348V25.7674H28.4297V25.4362Z" fill="currentcolor"/>
<path d="M29.4907 24.7211L29.2048 24.6684C29.0416 24.6383 28.9412 24.5956 28.9412 24.4802C28.9412 24.3548 29.0693 24.2844 29.2372 24.2844C29.4655 24.2844 29.566 24.4049 29.576 24.553H29.9824C29.9599 24.2042 29.7115 23.9657 29.2548 23.9657C28.8483 23.9657 28.5496 24.1841 28.5496 24.5103C28.5496 24.8039 28.7755 24.962 29.0591 25.0147L29.3577 25.0699C29.5232 25.1025 29.606 25.1627 29.606 25.2781C29.606 25.4236 29.468 25.4889 29.2974 25.4889C29.0842 25.4889 28.9135 25.3761 28.8984 25.1602H28.4919C28.5146 25.5617 28.8081 25.8126 29.2824 25.8126C29.7542 25.8126 30 25.5642 30 25.233C30 24.9219 29.7693 24.7713 29.4907 24.7211Z" fill="currentcolor"/>
<path d="M8.78808 26.7458L7.88471 29.0287H8.42608L8.62828 28.4614H9.54469L9.74363 29.0287H10.3047L9.40132 26.7458H8.78808ZM8.7783 28.0405L8.9968 27.4209C9.03268 27.3198 9.06529 27.2351 9.08824 27.147C9.11107 27.235 9.14042 27.3165 9.1763 27.4209L9.39468 28.0405H8.7783Z" fill="currentcolor"/>
<path d="M10.0045 27.1762H10.7514V29.0287H11.2601V27.1762H12.0004V26.7458H10.0045V27.1762Z" fill="currentcolor"/>
<path d="M14.1778 27.8481C14.3996 27.7796 14.5757 27.6068 14.5757 27.3459C14.5757 26.9414 14.2365 26.6871 13.7604 26.6871C13.2319 26.6871 12.8862 26.9838 12.8635 27.4371H13.3723C13.3853 27.2316 13.5321 27.0948 13.7539 27.0948C13.9626 27.0948 14.0865 27.2089 14.0865 27.3785C14.0865 27.5743 13.9267 27.659 13.7343 27.659H13.5613V28.0601H13.7374C13.9722 28.0601 14.1288 28.1743 14.1288 28.3602C14.1288 28.5624 13.9722 28.6798 13.7374 28.6798C13.4995 28.6798 13.3428 28.5363 13.3428 28.2721H12.8405C12.8405 28.7841 13.1731 29.0875 13.7342 29.0875C14.2527 29.0875 14.6147 28.8071 14.6147 28.3994C14.6147 28.1026 14.4223 27.92 14.1778 27.8481Z" fill="currentcolor"/>
<path d="M17.1705 28.2851C17.1445 28.3797 17.128 28.4547 17.1151 28.5297C17.1021 28.4546 17.0825 28.3797 17.0564 28.2851L16.5573 26.7458H15.7746V29.0287H16.254V27.5644C16.254 27.4469 16.2475 27.3394 16.241 27.235L16.8183 29.0287H17.4119L17.9532 27.2318C17.9466 27.3361 17.9435 27.447 17.9435 27.5611V29.0287H18.4261V26.7458H17.6467L17.1705 28.2851Z" fill="currentcolor"/>
<path d="M19.8577 26.6871C19.2022 26.6871 18.7163 27.1403 18.7163 27.8873C18.7163 28.6569 19.2022 29.0874 19.8577 29.0874C20.5132 29.0874 21.0091 28.647 21.0091 27.8873C21.0091 27.1534 20.51 26.6871 19.8577 26.6871ZM19.8577 28.6602C19.4892 28.6602 19.2446 28.383 19.2446 27.8873C19.2446 27.3981 19.4859 27.1142 19.8577 27.1142C20.2262 27.1142 20.4839 27.4045 20.4839 27.8873C20.4839 28.3895 20.223 28.6602 19.8577 28.6602Z" fill="currentcolor"/>
<path d="M22.8906 28.0079C22.8906 28.1286 22.8938 28.2427 22.907 28.3471L22.0426 26.7457H21.3023V29.0286H21.8014V27.5675C21.8014 27.4534 21.7982 27.3686 21.7851 27.2479L22.7472 29.0286H23.3929V26.7457H22.8906V28.0079Z" fill="currentcolor"/>
<path d="M23.5917 27.1762H24.3386V29.0287H24.8473V27.1762H25.5876V26.7458H23.5917V27.1762Z" fill="currentcolor"/>
<path d="M27.2477 27.6525H26.302V26.7458H25.7931V29.0287H26.302V28.0797H27.2477V29.0287H27.7564V26.7458H27.2477V27.6525Z" fill="currentcolor"/>
<path d="M29.3087 27.6688L28.937 27.6003C28.725 27.5611 28.5945 27.5056 28.5945 27.3557C28.5945 27.1925 28.7608 27.1013 28.9793 27.1013C29.2761 27.1013 29.4066 27.2578 29.4196 27.4503H29.9481C29.9187 26.9969 29.5957 26.6871 29.0022 26.6871C28.4739 26.6871 28.0858 26.9709 28.0858 27.3948C28.0858 27.7764 28.3793 27.982 28.7478 28.0505L29.1359 28.1222C29.3511 28.1646 29.4588 28.2429 29.4588 28.3928C29.4588 28.582 29.2793 28.6668 29.0576 28.6668C28.7804 28.6668 28.5585 28.5201 28.5391 28.2396H28.0106C28.04 28.7614 28.4215 29.0877 29.0379 29.0877C29.6512 29.0877 29.9708 28.7648 29.9708 28.3342C29.9708 27.9298 29.6706 27.734 29.3087 27.6688Z" fill="currentcolor"/>
</svg>
