<svg width="32" height="32" viewBox="0 0 32 32" fill="none" xmlns="http://www.w3.org/2000/svg">
<path d="M16 28.5763C9.06549 28.5763 3.42373 22.9345 3.42373 16C3.42373 15.0209 3.53632 14.0678 3.74893 13.1525H2.29139C2.10061 14.0723 2 15.0245 2 16C2 23.7196 8.28042 30 16 30C20.2874 30 24.1302 28.0621 26.7003 25.0169H24.7571C22.491 27.2184 19.4013 28.5763 16 28.5763Z" fill="currentcolor"/>
<path d="M16 3.42373C22.9345 3.42373 28.5763 9.06549 28.5763 16C28.5763 16.9791 28.4637 17.9322 28.2511 18.8475H29.7086C29.8994 17.9277 30 16.9755 30 16C30 8.28042 23.7196 2 16 2C11.7126 2 7.8698 3.93793 5.29973 6.98305H7.24288C9.50898 4.78161 12.5987 3.42373 16 3.42373Z" fill="currentcolor"/>
<path d="M7.9322 11.0169V9.59322H3.89831V5.55932H2.47458V11.0169H7.9322Z" fill="currentcolor"/>
<path d="M24.0678 20.9831V22.4068H28.1017V26.4407H29.5254V20.9831H24.0678Z" fill="currentcolor"/>
</svg>
