<svg width="32" height="32" viewBox="0 0 32 32" fill="none" xmlns="http://www.w3.org/2000/svg">
<path d="M2.69681 18.9563H3.68223V11.0729C3.68223 9.17115 5.22947 7.62392 7.13121 7.62392H24.864V6.6385H7.13121C4.68601 6.6385 2.69681 8.6277 2.69681 11.0729V18.9563Z" fill="currentcolor"/>
<path d="M24.8688 2V3.39363L28.6064 7.13121L24.8688 10.8688V12.2624L29.7959 7.33532V6.92711L24.8688 2Z" fill="currentcolor"/>
<path d="M28.3178 20.9271C28.3178 22.8288 26.7705 24.3761 24.8688 24.3761H7.13601V25.3615H24.8688C27.314 25.3615 29.3032 23.3723 29.3032 20.9271V13.0437H28.3178V20.9271Z" fill="currentcolor"/>
<path d="M7.13121 30V28.6064L3.39363 24.8688L7.13121 21.1312V19.7376L2.2041 24.6647V25.0729L7.13121 30Z" fill="currentcolor"/>
</svg>
