<svg width="32" height="32" viewBox="0 0 32 32" fill="none" xmlns="http://www.w3.org/2000/svg">
<path d="M9.77778 8.22222V9.25926H15.4815V2H2V9.25926H7.7037V8.22222H3.03704V3.03704H14.4444V8.22222H9.77778Z" fill="currentcolor"/>
<path d="M16.5185 12.3704V15.4815H9.79191V16.5185H16.5185V19.6296H30V12.3704H16.5185ZM28.963 18.5926H17.5556V13.4074H28.963V18.5926Z" fill="currentcolor"/>
<path d="M16.5185 25.8519H9.79191V26.8889H16.5185V30H30V22.7407H16.5185V25.8519ZM17.5556 23.7778H28.963V28.963H17.5556V23.7778Z" fill="currentcolor"/>
<path d="M9.25926 9.77337H8.22222V14.9586H9.25926V9.77337Z" fill="currentcolor"/>
<path d="M9.25926 17.0326H8.22222V25.3289H9.25926V17.0326Z" fill="currentcolor"/>
</svg>
