<svg width="32" height="32" viewBox="0 0 32 32" fill="none" xmlns="http://www.w3.org/2000/svg">
<path d="M22.0587 22.2041H20.6551L28.5964 30.1453H30L22.0587 22.2041Z" fill="currentcolor"/>
<path d="M20.6063 18.7209C22.0068 16.946 22.8459 14.7086 22.8459 12.2774C22.8459 6.5303 18.1701 1.85449 12.4229 1.85449C6.67581 1.85449 2 6.5303 2 12.2774C2 18.0246 6.67581 22.7004 12.4229 22.7004C14.2282 22.7004 15.9274 22.2385 17.4096 21.4275C18.6499 20.7488 19.736 19.8239 20.6063 18.7209ZM12.4229 21.7077C7.22314 21.7077 2.99266 17.4772 2.99266 12.2774C2.99266 7.07763 7.22314 2.84715 12.4229 2.84715C17.6228 2.84715 21.8532 7.07763 21.8532 12.2774C21.8532 17.4772 17.6228 21.7077 12.4229 21.7077Z" fill="currentcolor"/>
</svg>
