<svg width="32" height="32" viewBox="0 0 32 32" fill="none" xmlns="http://www.w3.org/2000/svg">
<path d="M23.4446 24.9549H21.2986L26.3699 30H28.5159L23.4446 24.9549Z" fill="currentcolor"/>
<path d="M20.385 6.03602H8.2769V7.54952H20.385V6.03602Z" fill="currentcolor"/>
<path d="M20.385 10.072H8.2769V11.5855H20.385V10.072Z" fill="currentcolor"/>
<path d="M21.394 28.2341H5.24989V29.7476H21.394V28.2341Z" fill="currentcolor"/>
<path d="M23.663 21.9278H25.1765L25.1777 2H5.24989V3.51351H23.6642L23.663 21.9278Z" fill="currentcolor"/>
<path d="M4.99764 3.76576H3.48413V27.9819H4.99764V3.76576Z" fill="currentcolor"/>
<path d="M16.3489 24.7026C16.6931 24.7026 17.03 24.6707 17.3579 24.6129C19.4017 24.2528 21.0802 22.8207 21.7881 20.9188C22.0222 20.29 22.1507 19.6102 22.1507 18.9008C22.1507 15.7018 19.548 13.099 16.3489 13.099C15.1389 13.099 14.0146 13.4719 13.0838 14.1081H8.2769V15.6216H11.5663C10.9242 16.5551 10.5472 17.6846 10.5472 18.9008C10.5472 22.0999 13.1499 24.7026 16.3489 24.7026ZM16.3489 14.6126C18.7135 14.6126 20.6372 16.5362 20.6372 18.9008C20.6372 21.2654 18.7135 23.1891 16.3489 23.1891C13.9843 23.1891 12.0607 21.2654 12.0607 18.9008C12.0607 16.5362 13.9843 14.6126 16.3489 14.6126Z" fill="currentcolor"/>
</svg>
