<svg width="32" height="32" viewBox="0 0 32 32" fill="none" xmlns="http://www.w3.org/2000/svg">
<path d="M26.6909 23.3819C26.0547 23.3819 25.4601 23.5627 24.9551 23.8752L22.091 21.0111C23.2149 19.6473 23.8908 17.9012 23.8908 16C23.8908 14.0988 23.2149 12.3528 22.091 10.9889L24.9551 8.12482C25.4601 8.43727 26.0547 8.61812 26.6909 8.61812C28.5156 8.61812 30 7.13363 30 5.30906C30 3.4845 28.5156 2 26.6909 2C24.8662 2 23.3819 3.4845 23.3819 5.30906C23.3819 5.94529 23.5627 6.5399 23.8752 7.04492L21.0111 9.90904C19.6473 8.7851 17.9012 8.10916 16 8.10916C14.0988 8.10916 12.3528 8.7851 10.9889 9.90904L8.12482 7.04492C8.43727 6.5399 8.61812 5.94529 8.61812 5.30906C8.61812 3.4845 7.13375 2 5.30906 2C3.48437 2 2 3.4845 2 5.30906C2 7.13363 3.48437 8.61812 5.30906 8.61812C5.94529 8.61812 6.5399 8.43727 7.04492 8.12482L9.90904 10.9889C8.7851 12.3527 8.10916 14.0988 8.10916 16C8.10916 17.9012 8.7851 19.6472 9.90904 21.0111L7.04492 23.8752C6.5399 23.5627 5.94529 23.3819 5.30906 23.3819C3.48437 23.3819 2 24.8664 2 26.6909C2 28.5155 3.48437 30 5.30906 30C7.13375 30 8.61812 28.5155 8.61812 26.6909C8.61812 26.0547 8.43727 25.4601 8.12482 24.9551L10.9889 22.091C12.3527 23.2149 14.0988 23.8908 16 23.8908C17.9012 23.8908 19.6472 23.2149 21.0111 22.091L23.8752 24.9551C23.5627 25.4601 23.3819 26.0547 23.3819 26.6909C23.3819 28.5155 24.8662 30 26.6909 30C28.5156 30 30 28.5155 30 26.6909C30 24.8664 28.5156 23.3819 26.6909 23.3819ZM26.6909 3.52751C27.6735 3.52751 28.4727 4.32678 28.4727 5.30932C28.4727 6.29185 27.6735 7.09112 26.6909 7.09112C25.7084 7.09112 24.9091 6.29185 24.9091 5.30932C24.9091 4.32678 25.7084 3.52751 26.6909 3.52751ZM5.30932 7.09112C4.32678 7.09112 3.52751 6.29185 3.52751 5.30932C3.52751 4.32678 4.32678 3.52751 5.30932 3.52751C6.29185 3.52751 7.09112 4.32678 7.09112 5.30932C7.09112 6.29185 6.29185 7.09112 5.30932 7.09112ZM5.30932 28.4727C4.32678 28.4727 3.52751 27.6735 3.52751 26.6909C3.52751 25.7084 4.32678 24.9091 5.30932 24.9091C6.29185 24.9091 7.09112 25.7084 7.09112 26.6909C7.09112 27.6735 6.29185 28.4727 5.30932 28.4727ZM16.0001 22.3637C12.4913 22.3637 9.63655 19.509 9.63655 16.0001C9.63655 12.4913 12.4913 9.63655 16.0001 9.63655C19.509 9.63655 22.3637 12.4913 22.3637 16.0001C22.3637 19.509 19.509 22.3637 16.0001 22.3637ZM26.6909 28.4727C25.7084 28.4727 24.9091 27.6735 24.9091 26.6909C24.9091 25.7084 25.7084 24.9091 26.6909 24.9091C27.6735 24.9091 28.4727 25.7084 28.4727 26.6909C28.4727 27.6735 27.6735 28.4727 26.6909 28.4727Z" fill="currentcolor"/>
<path d="M13.7092 12.9406H12.182V19.0546H13.7092V12.9406Z" fill="currentcolor"/>
<path d="M16.7638 14.977H15.2365V19.0546H16.7638V14.977Z" fill="currentcolor"/>
<path d="M19.8183 17.0133H18.291V19.0546H19.8183V17.0133Z" fill="currentcolor"/>
</svg>
