<svg width="32" height="32" viewBox="0 0 32 32" fill="none" xmlns="http://www.w3.org/2000/svg">
<path d="M23.7778 21.7037C16.63 21.7037 10.8148 15.8886 10.8148 8.74074C10.8148 6.6642 11.3173 4.60037 12.2678 2.77181L12.3995 2.51852H10.6164C5.97833 4.9098 3.03704 9.68211 3.03704 14.963C3.03704 16.794 3.39093 18.5437 4.03298 20.1481H5.15765C4.46154 18.5594 4.0742 16.8056 4.0742 14.963C4.0742 10.2069 6.65046 5.89576 10.7431 3.62607C10.109 5.24657 9.77791 6.9897 9.77791 8.74074C9.77791 16.4604 16.0583 22.7407 23.7779 22.7407C25.1659 22.7407 26.524 22.541 27.8317 22.1454C25.4422 25.743 21.4223 27.9259 17.0372 27.9259C16.3313 27.9259 15.6387 27.8684 14.9631 27.7592V28.8091C15.64 28.9101 16.3325 28.963 17.0372 28.963C21.9414 28.963 26.4224 26.434 28.9631 22.2995V20.627L28.806 20.6931C27.2126 21.3637 25.5209 21.7037 23.7779 21.7037H23.7778Z" fill="currentcolor"/>
<path d="M24.2963 13.4074C27.4414 13.4074 30 10.8488 30 7.7037C30 4.55863 27.4414 2 24.2963 2C21.1512 2 18.5926 4.55863 18.5926 7.7037C18.5926 10.8488 21.1512 13.4074 24.2963 13.4074ZM24.2963 3.03704C26.8696 3.03704 28.963 5.13043 28.963 7.7037C28.963 10.277 26.8696 12.3704 24.2963 12.3704C21.723 12.3704 19.6296 10.277 19.6296 7.7037C19.6296 5.13043 21.723 3.03704 24.2963 3.03704Z" fill="currentcolor"/>
<path d="M26.2186 8.89267L24.8148 7.48891V5.11111H23.7778V7.9185L25.4851 9.62585L26.2186 8.89267Z" fill="currentcolor"/>
<path d="M11.3017 24.8623C11.0699 23.0827 9.54535 21.7037 7.7037 21.7037C5.86206 21.7037 4.33748 23.0827 4.1057 24.8623C2.90831 25.0909 2 26.1444 2 27.4074C2 28.837 3.16304 30 4.59259 30H10.8148C12.2444 30 13.4074 28.837 13.4074 27.4074C13.4074 26.1444 12.4991 25.0909 11.3017 24.8623ZM10.8148 28.963H4.59259C3.73483 28.963 3.03704 28.2652 3.03704 27.4074C3.03704 26.7316 3.47091 26.1569 4.07407 25.9426V26.366H5.11111V25.3333C5.11111 23.9038 6.27415 22.7407 7.7037 22.7407C8.97757 22.7407 10.0374 23.665 10.2536 24.8777C9.0932 25.135 8.22222 26.1706 8.22222 27.4074H9.25926C9.25926 26.5496 9.95706 25.8519 10.8148 25.8519C11.6726 25.8519 12.3704 26.5496 12.3704 27.4074C12.3704 28.2652 11.6726 28.963 10.8148 28.963Z" fill="currentcolor"/>
</svg>
