<svg width="32" height="32" viewBox="0 0 32 32" fill="none" xmlns="http://www.w3.org/2000/svg">
<path d="M2 30H30V24.8148H2V30ZM28.963 28.963H25.8519V25.8519H28.963V28.963ZM3.03704 25.8519H24.8148V28.963H3.03704V25.8519Z" fill="currentcolor"/>
<path d="M26.8448 15.5123C28.1288 14.5677 28.9635 13.0464 28.9635 11.3337C28.9635 8.47474 26.6375 6.14893 23.7786 6.14893H20.1487V7.18596H23.7786C26.0657 7.18596 27.9264 9.04667 27.9264 11.3337C27.9264 13.6208 26.0657 15.4815 23.7786 15.4815H22.7407V16.5185H26.3704C27.7999 16.5185 28.963 17.6816 28.963 19.1111V22.2222H30V19.1111C30 17.2705 28.6228 15.7454 26.8448 15.5123Z" fill="currentcolor"/>
<path d="M13.4082 12.3711H17.2179C16.1594 13.2272 15.4815 14.536 15.4815 16C15.4817 18.5733 17.5754 20.6667 20.1485 20.6667H24.8149L24.8152 22.2224L25.8522 22.2221L25.8517 19.6296H20.1485C18.1472 19.6296 16.5188 18.0014 16.5185 16C16.5185 13.999 18.1468 12.3711 20.1481 12.3711V11.3341H13.4082C11.1207 11.3341 9.25978 9.47315 9.25978 7.18557C9.25978 4.898 11.1207 3.03704 13.4082 3.03704H16.5185V2H13.4082C10.5488 2 8.22274 4.3262 8.22274 7.18557C8.22274 10.0449 10.5489 12.3711 13.4082 12.3711Z" fill="currentcolor"/>
</svg>
