<svg width="32" height="32" viewBox="0 0 32 32" fill="none" xmlns="http://www.w3.org/2000/svg">
<path d="M2 30H30V24.4H2V30ZM28.4727 28.4727H25.9273V25.9273H28.4727V28.4727ZM3.52727 25.9273H24.4V28.4727H3.52727V25.9273Z" fill="currentcolor"/>
<path d="M27.2216 15.3803C28.3023 14.4016 28.9822 12.9878 28.9822 11.4186C28.9822 8.47131 26.5844 6.07349 23.637 6.07349H20.0731V7.60076H23.637C25.7422 7.60076 27.4549 9.31347 27.4549 11.4186C27.4549 13.5237 25.7422 15.2364 23.637 15.2364H22.6181V16.7636H26.1817C27.4449 16.7636 28.4726 17.7914 28.4726 19.0545V22.1091H29.9999V19.0545C29.9999 17.3095 28.8232 15.8342 27.2216 15.3803Z" fill="currentcolor"/>
<path d="M13.4553 12.6917H16.5485C15.7353 13.5573 15.2364 14.7215 15.2364 16.0001C15.2366 18.6667 17.4065 20.8364 20.0731 20.8364H24.4001L24.4004 22.1092L25.9277 22.109L25.927 19.3091H20.0731C18.2484 19.3091 16.7638 17.8246 16.7636 16C16.7636 14.1758 18.2481 12.6917 20.0727 12.6917V11.1644H13.4553C11.3498 11.1644 9.63687 9.45144 9.63687 7.34584C9.63687 5.24024 11.3498 3.52727 13.4553 3.52727H16.5091V2H13.4553C10.5077 2 8.1096 4.3982 8.1096 7.34584C8.1096 10.2935 10.5077 12.6917 13.4553 12.6917Z" fill="currentcolor"/>
</svg>
