<svg width="32" height="32" viewBox="0 0 32 32" fill="none" xmlns="http://www.w3.org/2000/svg">
<path d="M2 30H30V24H2V30ZM28 28H26V26H28V28ZM4 26H24V28H4V26Z" fill="currentcolor"/>
<path d="M27.4864 15.2862C28.4241 14.2995 29.0005 12.966 29.0005 11.5004C29.0005 8.46787 26.5334 6.00075 23.5007 6.00075H20.0005V8.00075H23.5007C25.4305 8.00075 27.0005 9.57075 27.0005 11.5004C27.0005 13.43 25.4305 15 23.5007 15H22.5V17H26C27.1027 17 28 17.8973 28 19V22H30V19C30 17.3195 28.958 15.8775 27.4864 15.2862Z" fill="currentcolor"/>
<path d="M13.5007 13.0007H16.0021C15.3731 13.8368 15 14.8756 15 16.0001C15.0002 18.7571 17.2435 21 20.0004 21H24.0001L24.0004 22.0002L26.0004 21.9998L25.9998 19H20.0004C18.3461 19 17.0001 17.6541 17 16C17 14.3463 18.3457 13.0007 20 13.0007V11.0007H13.5007C11.5707 11.0007 10.0005 9.4305 10.0005 7.50037C10.0005 5.57025 11.5707 4 13.5007 4H16.5V2H13.5007C10.4679 2 8.0005 4.46737 8.0005 7.50037C8.0005 10.5334 10.4679 13.0007 13.5007 13.0007Z" fill="currentcolor"/>
</svg>
