<svg width="32" height="32" viewBox="0 0 32 32" fill="none" xmlns="http://www.w3.org/2000/svg">
<path d="M16 4.52362C19.738 4.52362 20.1813 4.53762 21.6583 4.60529C25.4523 4.77796 27.2245 6.57812 27.3972 10.3441C27.4648 11.82 27.4777 12.2633 27.4777 16.0013C27.4777 19.7405 27.4637 20.1826 27.3972 21.6585C27.2233 25.421 25.4558 27.2246 21.6583 27.3973C20.1813 27.465 19.7403 27.479 16 27.479C12.262 27.479 11.8187 27.465 10.3428 27.3973C6.5395 27.2235 4.77667 25.4151 4.604 21.6573C4.53633 20.1815 4.52233 19.7393 4.52233 16.0001C4.52233 12.2621 4.5375 11.82 4.604 10.343C4.77783 6.57812 6.54533 4.77679 10.3428 4.60412C11.8198 4.53762 12.262 4.52362 16 4.52362ZM16 2.00012C12.1978 2.00012 11.7218 2.01646 10.2285 2.08412C5.14417 2.31746 2.3185 5.13846 2.08517 10.2275C2.01633 11.722 2 12.198 2 16.0001C2 19.8023 2.01633 20.2795 2.084 21.7728C2.31733 26.8571 5.13833 29.6828 10.2273 29.9161C11.7218 29.9838 12.1978 30.0001 16 30.0001C19.8022 30.0001 20.2793 29.9838 21.7727 29.9161C26.8523 29.6828 29.685 26.8618 29.9148 21.7728C29.9837 20.2795 30 19.8023 30 16.0001C30 12.198 29.9837 11.722 29.916 10.2286C29.6873 5.14896 26.8628 2.31862 21.7738 2.08529C20.2793 2.01646 19.8022 2.00012 16 2.00012V2.00012ZM16 8.81112C12.0298 8.81112 8.811 12.03 8.811 16.0001C8.811 19.9703 12.0298 23.1903 16 23.1903C19.9702 23.1903 23.189 19.9715 23.189 16.0001C23.189 12.03 19.9702 8.81112 16 8.81112ZM16 20.6668C13.4228 20.6668 11.3333 18.5785 11.3333 16.0001C11.3333 13.423 13.4228 11.3335 16 11.3335C18.5772 11.3335 20.6667 13.423 20.6667 16.0001C20.6667 18.5785 18.5772 20.6668 16 20.6668ZM23.4737 6.84762C22.545 6.84762 21.7925 7.60012 21.7925 8.52762C21.7925 9.45512 22.545 10.2076 23.4737 10.2076C24.4012 10.2076 25.1525 9.45512 25.1525 8.52762C25.1525 7.60012 24.4012 6.84762 23.4737 6.84762Z" fill="currentcolor"/>
</svg>
