<svg width="32" height="32" viewBox="0 0 32 32" fill="none" xmlns="http://www.w3.org/2000/svg">
<path d="M11.9273 11.1636C10.3833 11.1636 9.12727 12.4197 9.12727 13.9636V16H10.6545V13.9636C10.6545 13.2619 11.2255 12.6909 11.9273 12.6909H19.0545C19.7563 12.6909 20.3273 13.2619 20.3273 13.9636V16H21.8545V13.9636C21.8545 12.4197 20.5985 11.1636 19.0545 11.1636H11.9273Z" fill="currentcolor"/>
<path d="M15.4914 9.63636C17.5968 9.63636 19.3096 7.92353 19.3096 5.81818C19.3096 3.71284 17.5968 2 15.4914 2C13.3861 2 11.6732 3.71284 11.6732 5.81818C11.6732 7.92353 13.3861 9.63636 15.4914 9.63636ZM15.4914 3.52727C16.7546 3.52727 17.7823 4.555 17.7823 5.81818C17.7823 7.08136 16.7546 8.10909 15.4914 8.10909C14.2282 8.10909 13.2005 7.08136 13.2005 5.81818C13.2005 4.555 14.2282 3.52727 15.4914 3.52727Z" fill="currentcolor"/>
<path d="M2 17.2564V24.9091H7.85455V23.3818H3.52727V18.7837H28.4727V23.3818H23.1273V24.9091H30V17.2564H2Z" fill="currentcolor"/>
<path d="M21.0909 23.3818H9.89091V24.9091H21.0909V23.3818Z" fill="currentcolor"/>
<path d="M21.3455 28.4727H9.63636V25.1636H8.10909V30H22.8727V25.1636H21.3455V28.4727Z" fill="currentcolor"/>
<path d="M5.56364 8.61818H7.26527C7.55202 9.21916 8.16369 9.63636 8.87273 9.63636C9.85527 9.63636 10.6545 8.83709 10.6545 7.85455C10.6545 6.872 9.85527 6.07273 8.87273 6.07273C8.16369 6.07273 7.55202 6.48993 7.26527 7.09091H4.03636V16H5.56364V8.61818ZM8.87273 7.6C9.01311 7.6 9.12727 7.71416 9.12727 7.85455C9.12727 7.99493 9.01311 8.10909 8.87273 8.10909C8.73235 8.10909 8.61818 7.99493 8.61818 7.85455C8.61818 7.71416 8.73235 7.6 8.87273 7.6Z" fill="currentcolor"/>
</svg>
