<svg width="32" height="32" viewBox="0 0 32 32" fill="none" xmlns="http://www.w3.org/2000/svg">
<path d="M9.25926 13.9259V16H10.2963V13.9259C10.2963 13.0682 10.9941 12.3704 11.8519 12.3704H19.1111C19.9689 12.3704 20.6667 13.0682 20.6667 13.9259V16H21.7037V13.9259C21.7037 12.4964 20.5407 11.3333 19.1111 11.3333H11.8519C10.4223 11.3333 9.25926 12.4964 9.25926 13.9259Z" fill="currentcolor"/>
<path d="M15.482 9.25926C17.4834 9.25926 19.1116 7.63098 19.1116 5.62963C19.1116 3.62828 17.4834 2 15.482 2C13.4806 2 11.8524 3.62828 11.8524 5.62963C11.8524 7.63098 13.4806 9.25926 15.482 9.25926ZM15.482 3.03704C16.9116 3.03704 18.0746 4.20007 18.0746 5.62963C18.0746 7.05919 16.9116 8.22222 15.482 8.22222C14.0524 8.22222 12.8894 7.05919 12.8894 5.62963C12.8894 4.20007 14.0524 3.03704 15.482 3.03704Z" fill="currentcolor"/>
<path d="M2 17.539V24.8148H7.7037V23.7778H3.03704V18.576H28.963V23.7778H23.2593V24.8148H30V17.539H2Z" fill="currentcolor"/>
<path d="M21.1852 23.7778H9.77778V24.8148H21.1852V23.7778Z" fill="currentcolor"/>
<path d="M21.7037 28.963H9.25926V25.3333H8.22222V30H22.7407V25.3333H21.7037V28.963Z" fill="currentcolor"/>
<path d="M5.11111 8.22222H7.27593C7.49007 8.82539 8.06498 9.25926 8.74074 9.25926C9.5985 9.25926 10.2963 8.56146 10.2963 7.7037C10.2963 6.84594 9.5985 6.14815 8.74074 6.14815C8.06498 6.14815 7.4902 6.58202 7.27593 7.18518H4.07407V16H5.11111V8.22222ZM8.74074 7.18518C9.0267 7.18518 9.25926 7.41774 9.25926 7.7037C9.25926 7.98967 9.0267 8.22222 8.74074 8.22222C8.45478 8.22222 8.22222 7.98967 8.22222 7.7037C8.22222 7.41774 8.45478 7.18518 8.74074 7.18518Z" fill="currentcolor"/>
</svg>
