<svg width="32" height="32" viewBox="0 0 32 32" fill="none" xmlns="http://www.w3.org/2000/svg">
<path d="M16.7694 26.8863H17.3042V29.9832H29.2062V28.9467H18.3406V25.8499H16.7694C14.7692 25.8499 13.1419 24.2226 13.1419 22.2225V16.5222H8.72848L13.1416 12.0593L13.1457 9.76122C13.1523 6.05317 16.1744 3.03642 19.8824 3.03642H29.2062V2H19.8824C15.604 2 12.1169 5.48081 12.1093 9.75927L12.1059 11.6325L8.49464 15.2843V17.5583H12.1055V22.2222C12.1055 24.7939 14.1977 26.8861 16.7694 26.8861V26.8863Z" fill="currentcolor"/>
<path d="M9.53054 25.8543H9.01233C7.86942 25.8543 6.9395 24.9244 6.9395 23.7815V23.2633H5.90308V23.7815C5.90308 25.4959 7.29797 26.8907 9.01233 26.8907H9.53054V25.8543Z" fill="currentcolor"/>
<path d="M9.01233 30H9.53054V28.9636H9.01233C6.15493 28.9636 3.83024 26.6389 3.83024 23.7815V23.2633H2.79382V23.7815C2.79382 27.2104 5.58347 30 9.01233 30Z" fill="currentcolor"/>
</svg>
