<svg width="32" height="32" viewBox="0 0 32 32" fill="none" xmlns="http://www.w3.org/2000/svg">
<path d="M15.9858 6.82763C17.3168 6.82763 18.3997 5.74479 18.3997 4.41381C18.3997 3.08284 17.3168 2 15.9858 2C14.6549 2 13.572 3.08284 13.572 4.41381C13.572 5.74479 14.6549 6.82763 15.9858 6.82763ZM15.9858 2.96553C16.7844 2.96553 17.4341 3.6152 17.4341 4.41381C17.4341 5.21242 16.7844 5.8621 15.9858 5.8621C15.1872 5.8621 14.5376 5.21242 14.5376 4.41381C14.5376 3.6152 15.1872 2.96553 15.9858 2.96553Z" fill="currentcolor"/>
<path d="M23.5838 9.31494C22.9935 8.95106 22.315 8.75868 21.6215 8.75868H10.3785C9.68518 8.75868 9.00666 8.95106 8.41636 9.31494C6.86005 10.2743 6.22679 12.2011 6.9105 13.8966L8.48527 17.8018L8.50109 17.8368C8.99459 18.826 10.1214 19.3146 11.1813 18.9989C11.8081 18.8121 12.3199 18.3682 12.5933 17.7764V18.3124L8.95862 26.5795C8.63783 27.34 8.7176 28.2052 9.17237 28.894C9.62701 29.5828 10.3912 29.9963 11.2169 30H11.24C11.2439 30 11.2476 30 11.2516 30C12.2677 30 13.1652 29.3909 13.5403 28.4457L16.0344 22.1615L18.4129 28.4129C18.7745 29.3634 19.6986 29.9999 20.7147 29.9999H20.7257C21.5535 29.9961 22.3191 29.5807 22.7735 28.8887C23.2279 28.1966 23.3045 27.3292 22.9771 26.5639L19.352 18.3124V17.648C19.3618 17.673 19.3719 17.6979 19.3827 17.7226C19.6496 18.3412 20.1731 18.8063 20.8187 18.9988C21.0349 19.0632 21.2539 19.0943 21.4699 19.0943C22.3118 19.0943 23.106 18.6239 23.4988 17.8367L25.0895 13.8966C25.7733 12.2011 25.14 10.2742 23.5838 9.31494ZM12.5773 15.8356L11.8258 13.5802L12.5932 13.573V15.8695C12.5879 15.8582 12.5827 15.8468 12.5773 15.8356ZM19.4227 15.8356C19.397 15.889 19.3734 15.9432 19.352 15.9978V13.5725L20.1742 13.5802L19.4227 15.8356ZM24.194 13.5355L22.627 17.4215C22.3392 17.9793 21.698 18.2533 21.0946 18.0736C20.7236 17.9629 20.4227 17.6956 20.2692 17.34C20.1158 16.9845 20.1276 16.5822 20.3017 16.2363L21.5094 12.6268L18.9239 12.6028H18.3866V18.5152L22.0913 26.9481C22.2923 27.4177 22.2468 27.9318 21.9665 28.3588C21.6862 28.7859 21.2324 29.0321 20.7217 29.0344C20.101 29.0371 19.5362 28.6495 19.3156 28.0696L16.5601 20.8276H15.5252L12.6432 28.0895C12.4151 28.6642 11.8696 29.0345 11.2515 29.0345C11.2491 29.0345 11.2468 29.0345 11.2444 29.0345H11.2211C10.7119 29.0321 10.2589 28.7871 9.97834 28.3621C9.69785 27.9372 9.65042 27.4242 9.84558 26.9616L13.5591 18.5156V12.5986L10.4909 12.6272L11.6719 16.1722L11.6987 16.2367C11.8727 16.5826 11.8845 16.985 11.7311 17.3405C11.5777 17.6959 11.2767 17.9633 10.9057 18.0739C10.3023 18.2537 9.66104 17.9797 9.37332 17.4219L7.80627 13.5359C7.62185 13.0783 7.56803 12.5985 7.62801 12.1384C7.73289 11.3336 8.18862 10.5899 8.92314 10.1372C9.36113 9.86722 9.86441 9.72457 10.3788 9.72457H21.6217C22.1361 9.72457 22.6394 9.86722 23.0774 10.1371C23.8119 10.5899 24.2678 11.3335 24.3726 12.1384C24.4326 12.5985 24.3789 13.0784 24.1944 13.5359L24.194 13.5355Z" fill="currentcolor"/>
</svg>
