<svg width="32" height="32" viewBox="0 0 32 32" fill="none" xmlns="http://www.w3.org/2000/svg">
<path d="M18.4733 30H18.5732C24.8109 30 29.8879 24.9244 29.8905 18.6853V18.4765C29.8879 12.2327 24.8066 7.1529 18.5638 7.1529H15.5635C15.4103 7.1529 15.2855 7.02815 15.2855 6.86846L15.2432 2L13.7826 2.01266L13.825 6.87492C13.825 7.83352 14.605 8.61344 15.5635 8.61344H18.5638C24.0016 8.61344 28.4276 13.0383 28.43 18.4768V18.685C28.4276 24.1188 24.0058 28.5395 18.5732 28.5395H18.4733C15.8275 28.5395 13.1893 27.2971 11.3037 25.375H9.34781C11.498 28.1617 14.9328 30 18.4733 30Z" fill="currentcolor"/>
<path d="M13.0612 17.8288H7.43547C6.64508 17.8288 6.00196 18.4718 6.00196 19.2622V29.2697H7.46249V19.2894H13.0612V17.8288Z" fill="currentcolor"/>
<path d="M2.1095 17.5854V29.2697H3.57004V17.5854C3.57004 16.3774 4.55261 15.3946 5.76036 15.3946H17.4426C18.3821 15.3946 19.1464 14.6303 19.1464 13.6906V13.39C19.1464 12.6854 18.7037 12.0449 18.0447 11.7958L12.1451 9.56754C11.6746 9.38984 11.3584 8.93233 11.3584 8.42905V2.00633H9.89782V8.42917C9.89782 9.53651 10.5936 10.5431 11.6292 10.9341L17.5287 13.1624C17.6227 13.198 17.6859 13.2895 17.6859 13.3901V13.6908C17.6859 13.825 17.5769 13.9342 17.4426 13.9342H5.76036C3.74725 13.9342 2.1095 15.5722 2.1095 17.5855V17.5854Z" fill="currentcolor"/>
</svg>
