<svg width="32" height="32" viewBox="0 0 32 32" fill="none" xmlns="http://www.w3.org/2000/svg">
<path d="M16.0056 3.58036L17.345 6.03604H19.069L16.8676 2H15.1435L12.9421 6.03604H14.6661L16.0056 3.58036Z" fill="currentcolor"/>
<path d="M16.0058 22.4324C13.9194 22.4324 12.222 24.1298 12.222 26.2162C12.222 28.3026 13.9194 30 16.0058 30C18.0922 30 19.7896 28.3026 19.7896 26.2162C19.7896 24.1298 18.0922 22.4324 16.0058 22.4324ZM16.0058 28.4865C14.754 28.4865 13.7355 27.468 13.7355 26.2162C13.7355 24.9644 14.754 23.9459 16.0058 23.9459C17.2576 23.9459 18.2761 24.9644 18.2761 26.2162C18.2761 27.468 17.2576 28.4865 16.0058 28.4865Z" fill="currentcolor"/>
<path d="M15.2488 20.1622H16.7623V8.05405H15.2488V20.1622Z" fill="currentcolor"/>
<path d="M12.9785 18.3964H7.93349C7.23803 18.3964 6.67223 17.8306 6.67223 17.1351V10.0721H5.15871V17.1351C5.15871 18.6652 6.40345 19.9099 7.93349 19.9099H12.9785V18.3964Z" fill="currentcolor"/>
<path d="M25.3389 17.1351C25.3389 17.8306 24.7731 18.3964 24.0776 18.3964H19.0326V19.9099H24.0776C25.6077 19.9099 26.8524 18.6652 26.8524 17.1351V10.0721H25.3389V17.1351Z" fill="currentcolor"/>
<path d="M4.6669 6.20346L2.3561 8.51385L3.42622 9.58416L5.73702 7.27377L4.6669 6.20346Z" fill="currentcolor"/>
<path d="M3.42187 2.46088L2.35156 3.531L4.66686 5.84671L5.73717 4.77658L3.42187 2.46088Z" fill="currentcolor"/>
<path d="M8.4107 2.4604L6.09394 4.7766L7.16402 5.84695L9.48079 3.53075L8.4107 2.4604Z" fill="currentcolor"/>
<path d="M7.16393 6.20364L6.09362 7.27377L8.405 9.58554L9.47531 8.51542L7.16393 6.20364Z" fill="currentcolor"/>
<path d="M23.5894 2.47337L22.5191 3.54351L24.8219 5.8466L25.8921 4.77645L23.5894 2.47337Z" fill="currentcolor"/>
<path d="M24.8221 6.20364L22.5238 8.50138L23.5938 9.57173L25.8922 7.27399L24.8221 6.20364Z" fill="currentcolor"/>
<path d="M28.5784 2.44794L26.249 4.77671L27.3191 5.84706L29.6484 3.51829L28.5784 2.44794Z" fill="currentcolor"/>
<path d="M27.3192 6.20389L26.2489 7.27402L28.5728 9.59837L29.6431 8.52825L27.3192 6.20389Z" fill="currentcolor"/>
</svg>
