<svg width="32" height="32" viewBox="0 0 32 32" fill="none" xmlns="http://www.w3.org/2000/svg">
<path d="M24.5294 15.2928H7.44469V16.7165H24.5294V15.2928Z" fill="currentcolor"/>
<path d="M16 2C8.28042 2 2 8.28042 2 16C2 23.7196 8.28042 30 16 30C23.7196 30 30 23.7196 30 16C30 8.28042 23.7197 2 16 2ZM16 28.5763C9.06549 28.5763 3.42373 22.9345 3.42373 16C3.42373 9.06549 9.06549 3.42373 16 3.42373C22.9345 3.42373 28.5763 9.06549 28.5763 16C28.5763 22.9345 22.9345 28.5763 16 28.5763Z" fill="currentcolor"/>
</svg>
