<svg width="32" height="32" viewBox="0 0 32 32" fill="none" xmlns="http://www.w3.org/2000/svg">
<path d="M16.9691 29.0301V29.9999C23.9391 29.5222 29.5261 23.9331 30.0005 16.9623H29.0307C28.5598 23.3992 23.4052 28.5561 16.9691 29.0301Z" fill="currentcolor"/>
<path d="M15.0334 2.96979V2C8.06614 2.47655 2.4803 8.06034 2.00073 15.0266H2.97052C3.44658 8.59411 8.60003 3.44259 15.0334 2.96979Z" fill="currentcolor"/>
<path d="M29.0301 15.0266H29.9999C29.5203 8.06094 23.9354 2.47751 16.9692 2.00012V2.96991C23.4017 3.44367 28.5542 8.59471 29.0301 15.0266Z" fill="currentcolor"/>
<path d="M2.96979 16.9623H2C2.47449 23.9337 8.06251 29.5232 15.0334 30V29.0302C8.59629 28.5571 3.44065 23.4 2.96979 16.9623Z" fill="currentcolor"/>
<path d="M15.4073 18.5941L13.7811 16.9679H12.4123L15.3159 19.8714H15.7994L19.6102 13.0964H18.4998L15.4073 18.5941Z" fill="currentcolor"/>
<path d="M16.9691 7.83083C16.6546 7.79418 16.3355 7.77325 16.0114 7.77325H15.989C15.6656 7.77325 15.3471 7.79405 15.0332 7.83059C11.268 8.26903 8.27302 11.2622 7.83168 15.0266C7.79466 15.3425 7.77349 15.6632 7.77349 15.9889V16.0113C7.77349 16.3331 7.79406 16.65 7.83035 16.9624C8.26709 20.732 11.2644 23.7306 15.0334 24.1695C15.3472 24.2061 15.6656 24.2269 15.9891 24.2269H16.0115C16.3356 24.2269 16.6548 24.2059 16.9692 24.1693C20.7373 23.7296 23.7336 20.7313 24.1704 16.9625C24.2066 16.6503 24.2272 16.3333 24.2272 16.0114V15.989C24.2272 15.6633 24.2061 15.3426 24.169 15.0267C23.7277 11.263 20.7337 8.27024 16.9693 7.83095L16.9691 7.83083ZM23.2591 15.9887V16.0111C23.2591 16.3337 23.2358 16.6508 23.1948 16.9623C22.7687 20.1969 20.2028 22.7647 16.9691 23.1937C16.6555 23.2353 16.3362 23.2589 16.0114 23.2589H15.989C15.6649 23.2589 15.3462 23.2353 15.0332 23.1939C11.7987 22.7657 9.23192 20.1975 8.80558 16.9623C8.76457 16.6508 8.74122 16.3337 8.74122 16.0111V15.9887C8.74122 15.6623 8.76505 15.3416 8.80703 15.0265C9.23773 11.7965 11.8023 9.23374 15.0332 8.80595C15.3462 8.76445 15.6649 8.74098 15.989 8.74098H16.0114C16.3362 8.74098 16.6554 8.76457 16.9691 8.80619C20.199 9.2347 22.7628 11.7971 23.1933 15.0265C23.2353 15.3415 23.2591 15.6623 23.2591 15.9887Z" fill="currentcolor"/>
</svg>
