<svg width="32" height="32" viewBox="0 0 32 32" fill="none" xmlns="http://www.w3.org/2000/svg">
<path d="M5 22C4.44863 22 4 21.5514 4 21V15H2V21C2 22.6541 3.34588 24 5 24C6.65413 24 8 22.6541 8 21V15H6V21C6 21.5514 5.55137 22 5 22Z" fill="currentcolor"/>
<path d="M28 14C28 7.38312 22.6169 2 16 2C9.38312 2 4 7.38312 4 14V15H6V14C6 8.486 10.486 4 16 4C21.514 4 26 8.486 26 14V15H28V14Z" fill="currentcolor"/>
<path d="M28 15V21C28 21.5514 27.5514 22 27 22C26.4486 22 26 21.5514 26 21V15H24V21C24 22.3036 24.8361 23.4151 26 23.828V24.9951C26 25.5465 25.5514 25.9951 25 25.9951H14.8264C14.4123 24.8337 13.3019 24 12 24C10.3457 24 9 25.3459 9 27C9 28.6541 10.3457 30 12 30C13.3055 30 14.4183 29.1615 14.8296 27.9951H25C26.6541 27.9951 28 26.6493 28 24.9951V23.828C29.1639 23.4151 30 22.3036 30 21V15H28ZM12 28C11.4486 28 11 27.5514 11 27C11 26.4486 11.4486 26 12 26C12.5514 26 13 26.4486 13 27C13 27.5514 12.5514 28 12 28Z" fill="currentcolor"/>
</svg>
