<svg width="32" height="32" viewBox="0 0 32 32" fill="none" xmlns="http://www.w3.org/2000/svg">
<path d="M14.9668 16.9546L13.8959 18.0179L25.7401 29.9455L27.8819 29.9604L14.9668 16.9546Z" fill="currentcolor"/>
<path d="M17.8226 14.1188L16.7515 15.1821L29.9852 28.5087L30 26.3819L17.8226 14.1188Z" fill="currentcolor"/>
<path d="M12.4351 16.2783L4.75784 12.0429C3.27139 11.2227 2.28512 9.78784 2.05195 8.1062C1.81878 6.42457 2.37769 4.7755 3.58505 3.58197C4.80248 2.3785 6.47054 1.83997 8.16186 2.10672C9.85305 2.37259 11.2756 3.39646 12.0649 4.91548L16.0856 12.653L12.4351 16.2783ZM7.31972 3.5499C6.32238 3.5499 5.37246 3.93726 4.64603 4.65527C3.78037 5.51112 3.3798 6.69333 3.54695 7.89907C3.71409 9.10467 4.42116 10.1335 5.48691 10.7213L12.174 14.4107L14.2348 12.3642L10.7259 5.61148C10.1601 4.52233 9.14008 3.78836 7.92755 3.59769C7.72406 3.56562 7.52082 3.5499 7.31972 3.5499Z" fill="currentcolor"/>
</svg>
