<svg width="32" height="32" viewBox="0 0 32 32" fill="none" xmlns="http://www.w3.org/2000/svg">
<path d="M27.5775 30L14.6871 17.019L13.9647 17.7366L26.1325 29.9899L27.5775 30Z" fill="currentcolor"/>
<path d="M30.0006 26.6596L17.5773 14.149L16.8548 14.8665L30.0006 28.1047V26.6596Z" fill="currentcolor"/>
<path d="M12.2615 15.8403L4.65857 11.6457C3.22508 10.8549 2.27413 9.47127 2.04934 7.84965C1.82455 6.2279 2.36348 4.63773 3.52763 3.48681C4.70184 2.32622 6.31035 1.80804 7.94126 2.06414C9.57204 2.32062 10.9439 3.30785 11.7051 4.77265L15.6879 12.4375L12.2615 15.8403ZM7.1274 3.01853C6.05183 3.01853 5.02706 3.4364 4.24361 4.21094C3.30985 5.13401 2.87771 6.40929 3.05795 7.70976C3.23831 9.01024 4.00088 10.1199 5.15052 10.7542L12.0852 14.5801L14.4391 12.2427L10.8014 5.24233C10.191 4.06761 9.0909 3.27577 7.78304 3.0702C7.56348 3.03571 7.34429 3.01853 7.1274 3.01853Z" fill="currentcolor"/>
</svg>
