<svg width="32" height="32" viewBox="0 0 32 32" fill="none" xmlns="http://www.w3.org/2000/svg">
<path d="M15.9998 29.0345C9.13724 29.0345 3.49681 23.7036 3.00114 16.9655H2.03369C2.53142 24.2365 8.60476 30 15.9998 30C23.3948 30 29.4681 24.2365 29.9659 16.9655H28.9984C28.5027 23.7036 22.8622 29.0345 15.9998 29.0345Z" fill="currentcolor"/>
<path d="M15.9998 2.96552C22.8623 2.96552 28.5027 8.29638 28.9984 15.0345H29.9659C29.4681 7.76353 23.3948 2 15.9998 2C8.60476 2 2.53142 7.76353 2.03369 15.0345H3.00114C3.49681 8.29638 9.13736 2.96552 15.9998 2.96552Z" fill="currentcolor"/>
<path d="M28.5147 15.5172H3.48486V16.4828H28.5147V15.5172Z" fill="currentcolor"/>
</svg>
