<svg width="32" height="32" viewBox="0 0 32 32" fill="none" xmlns="http://www.w3.org/2000/svg">
<path d="M28.5763 16C28.5763 22.9345 22.9345 28.5763 16 28.5763C9.06549 28.5763 3.42373 22.9345 3.42373 16C3.42373 9.06549 9.06549 3.42373 16 3.42373V2C8.28042 2 2 8.28042 2 16C2 23.7196 8.28042 30 16 30C23.7196 30 30 23.7196 30 16H28.5763Z" fill="currentcolor"/>
<path d="M16.7119 24.7467V16.9492H15.2881V26.199H16C21.6262 26.199 26.2034 21.6218 26.2034 15.9956V15.2837H16.9492V16.7075H24.7511C24.4064 20.9821 20.9865 24.402 16.7119 24.7467Z" fill="currentcolor"/>
<path d="M5.79661 15.9956V16.7075H15.0508V15.2837H7.24893C7.59359 11.0091 11.0135 7.5892 15.2881 7.24454V15.0508H16.7119V5.79222H16C10.3738 5.79222 5.79661 10.3694 5.79661 15.9956Z" fill="currentcolor"/>
<path d="M19.322 10.0678C19.9773 10.0678 20.5085 9.53661 20.5085 8.88136C20.5085 8.2261 19.9773 7.69492 19.322 7.69492C18.6668 7.69492 18.1356 8.2261 18.1356 8.88136C18.1356 9.53661 18.6668 10.0678 19.322 10.0678Z" fill="currentcolor"/>
<path d="M23.1186 10.0678C23.7739 10.0678 24.3051 9.53661 24.3051 8.88136C24.3051 8.2261 23.7739 7.69492 23.1186 7.69492C22.4634 7.69492 21.9322 8.2261 21.9322 8.88136C21.9322 9.53661 22.4634 10.0678 23.1186 10.0678Z" fill="currentcolor"/>
<path d="M19.322 6.27154C19.9773 6.27154 20.5085 5.74035 20.5085 5.0851C20.5085 4.42985 19.9773 3.89866 19.322 3.89866C18.6668 3.89866 18.1356 4.42985 18.1356 5.0851C18.1356 5.74035 18.6668 6.27154 19.322 6.27154Z" fill="currentcolor"/>
<path d="M23.1186 13.8644C23.7739 13.8644 24.3051 13.3332 24.3051 12.678C24.3051 12.0227 23.7739 11.4915 23.1186 11.4915C22.4634 11.4915 21.9322 12.0227 21.9322 12.678C21.9322 13.3332 22.4634 13.8644 23.1186 13.8644Z" fill="currentcolor"/>
<path d="M26.915 13.8644C27.5703 13.8644 28.1015 13.3332 28.1015 12.678C28.1015 12.0227 27.5703 11.4915 26.915 11.4915C26.2598 11.4915 25.7286 12.0227 25.7286 12.678C25.7286 13.3332 26.2598 13.8644 26.915 13.8644Z" fill="currentcolor"/>
<path d="M19.322 13.8644C19.9773 13.8644 20.5085 13.3332 20.5085 12.678C20.5085 12.0227 19.9773 11.4915 19.322 11.4915C18.6668 11.4915 18.1356 12.0227 18.1356 12.678C18.1356 13.3332 18.6668 13.8644 19.322 13.8644Z" fill="currentcolor"/>
</svg>
