<svg width="32" height="32" viewBox="0 0 32 32" fill="none" xmlns="http://www.w3.org/2000/svg">
<path d="M8.8074 16.9679H7.83192C8.27532 20.7316 11.2682 23.7246 15.0319 24.168V23.1925C11.8024 22.7601 9.23979 20.1973 8.80728 16.9679H8.8074Z" fill="currentcolor"/>
<path d="M8.8074 15.0321C9.23979 11.8027 11.8025 9.24003 15.032 8.80752V7.83204C11.2683 8.27544 8.27532 11.2683 7.83204 15.0321H8.8074Z" fill="currentcolor"/>
<path d="M23.1924 15.0321H24.1678C23.7244 11.2684 20.7316 8.27544 16.9679 7.83204V8.80752C20.1973 9.23991 22.7599 11.8027 23.1924 15.0321Z" fill="currentcolor"/>
<path d="M16.9677 23.1925V24.168C20.7315 23.7246 23.7244 20.7317 24.1677 16.9679H23.1922C22.7598 20.1973 20.1971 22.76 16.9676 23.1925H16.9677Z" fill="currentcolor"/>
<path d="M15.032 2.96979V2C8.06336 2.47715 2.47703 8.06348 2 15.0321H2.96979C3.44319 8.59737 8.59725 3.44319 15.032 2.96979Z" fill="currentcolor"/>
<path d="M29.03 15.0321H29.9998C29.5227 8.06348 23.9363 2.47715 16.9677 2.00012V2.96991C23.4025 3.44331 28.5566 8.59737 29.03 15.0321Z" fill="currentcolor"/>
<path d="M16.9677 29.0302V30C23.9364 29.523 29.5227 23.9365 29.9998 16.968H29.03C28.5566 23.4027 23.4025 28.5569 16.9677 29.0303V29.0302Z" fill="currentcolor"/>
<path d="M2.96979 16.9679H2C2.47703 23.9365 8.06348 29.5228 15.032 29.9999V29.0301C8.59725 28.5567 3.44319 23.4025 2.96979 16.9677V16.9679Z" fill="currentcolor"/>
<path d="M19.2457 16.9679C19.2925 16.8109 19.3284 16.6494 19.3522 16.4839H22.7082V15.5161H19.3522C19.3283 15.3506 19.2925 15.1891 19.2457 15.0321C18.9199 13.9414 18.0585 13.08 16.9677 12.7542C16.8108 12.7072 16.6493 12.6714 16.4838 12.6476V9.29338H15.516V12.6476C15.3504 12.6714 15.1889 12.7072 15.032 12.7542C13.9413 13.08 13.0799 13.9414 12.7541 15.0321C12.7072 15.1891 12.6713 15.3506 12.6476 15.5161H9.29338V16.4839H12.6476C12.6714 16.6494 12.7072 16.8109 12.7541 16.9679C13.0799 18.0586 13.9413 18.92 15.032 19.2458C15.1889 19.2928 15.3504 19.3286 15.516 19.3524V22.707H16.4838V19.3524C16.6493 19.3286 16.8108 19.2928 16.9677 19.2458C18.0585 18.92 18.9199 18.0586 19.2457 16.9679ZM15.9999 18.4196C15.6557 18.4196 15.3287 18.3463 15.032 18.2161C14.4753 17.972 14.0278 17.5246 13.7836 16.9679C13.6536 16.6712 13.5802 16.3442 13.5802 16C13.5802 15.6558 13.6536 15.3288 13.7836 15.0321C14.0278 14.4753 14.4751 14.0279 15.032 13.7839C15.3287 13.6538 15.6557 13.5804 15.9999 13.5804C16.3441 13.5804 16.6711 13.6537 16.9677 13.7839C17.5245 14.028 17.972 14.4754 18.2161 15.0321C18.3462 15.3288 18.4195 15.6558 18.4195 16C18.4195 16.3442 18.3462 16.6712 18.2161 16.9679C17.972 17.5247 17.5246 17.9721 16.9677 18.2161C16.6711 18.3462 16.3441 18.4196 15.9999 18.4196Z" fill="currentcolor"/>
</svg>
