<svg width="32" height="32" viewBox="0 0 32 32" fill="none" xmlns="http://www.w3.org/2000/svg">
<path d="M22.2755 20.3448C22.2755 22.2082 23.7915 23.7241 25.6548 23.7241C27.5182 23.7241 29.0341 22.2082 29.0341 20.3448C29.0341 18.4815 27.5182 16.9655 25.6548 16.9655C23.7915 16.9655 22.2755 18.4815 22.2755 20.3448ZM25.6548 18.8966C26.4534 18.8966 27.1031 19.5462 27.1031 20.3448C27.1031 21.1434 26.4534 21.7931 25.6548 21.7931C24.8562 21.7931 24.2066 21.1434 24.2066 20.3448C24.2066 19.5462 24.8562 18.8966 25.6548 18.8966Z" fill="currentcolor"/>
<path d="M12.6204 20.3448C12.6204 22.2082 14.1363 23.7241 15.9997 23.7241C17.863 23.7241 19.379 22.2082 19.379 20.3448C19.379 18.4815 17.863 16.9655 15.9997 16.9655C14.1363 16.9655 12.6204 18.4815 12.6204 20.3448ZM15.9997 18.8966C16.7983 18.8966 17.4479 19.5462 17.4479 20.3448C17.4479 21.1434 16.7983 21.7931 15.9997 21.7931C15.2011 21.7931 14.5514 21.1434 14.5514 20.3448C14.5514 19.5462 15.2011 18.8966 15.9997 18.8966Z" fill="currentcolor"/>
<path d="M6.34449 23.7241C8.20782 23.7241 9.7238 22.2082 9.7238 20.3448C9.7238 18.4815 8.20782 16.9655 6.34449 16.9655C4.48116 16.9655 2.96518 18.4815 2.96518 20.3448C2.96518 22.2082 4.48116 23.7241 6.34449 23.7241ZM6.34449 18.8966C7.14309 18.8966 7.79277 19.5462 7.79277 20.3448C7.79277 21.1434 7.14309 21.7931 6.34449 21.7931C5.54589 21.7931 4.89621 21.1434 4.89621 20.3448C4.89621 19.5462 5.54589 18.8966 6.34449 18.8966Z" fill="currentcolor"/>
<path d="M20.8272 8.75862C22.6906 8.75862 24.2066 7.24264 24.2066 5.37931C24.2066 3.51598 22.6906 2 20.8272 2C18.9639 2 17.4479 3.51598 17.4479 5.37931C17.4479 7.24264 18.9639 8.75862 20.8272 8.75862ZM20.8272 3.93103C21.6259 3.93103 22.2755 4.58071 22.2755 5.37931C22.2755 6.17791 21.6259 6.82759 20.8272 6.82759C20.0286 6.82759 19.379 6.17791 19.379 5.37931C19.379 4.58071 20.0286 3.93103 20.8272 3.93103Z" fill="currentcolor"/>
<path d="M11.1721 8.75862C13.0354 8.75862 14.5514 7.24264 14.5514 5.37931C14.5514 3.51598 13.0354 2 11.1721 2C9.30875 2 7.79277 3.51598 7.79277 5.37931C7.79277 7.24264 9.30875 8.75862 11.1721 8.75862ZM11.1721 3.93103C11.9707 3.93103 12.6204 4.58071 12.6204 5.37931C12.6204 6.17791 11.9707 6.82759 11.1721 6.82759C10.3735 6.82759 9.7238 6.17791 9.7238 5.37931C9.7238 4.58071 10.3735 3.93103 11.1721 3.93103Z" fill="currentcolor"/>
<path d="M7.31001 24.6897H5.37897C3.78177 24.6897 2.48242 25.989 2.48242 27.5862V30H4.41346V27.5862C4.41346 27.0538 4.84661 26.6207 5.37897 26.6207H7.31001C7.84237 26.6207 8.27553 27.0538 8.27553 27.5862V30H10.2066V27.5862C10.2066 25.989 8.90721 24.6897 7.31001 24.6897Z" fill="currentcolor"/>
<path d="M26.6204 24.6897H24.6893C23.0921 24.6897 21.7928 25.989 21.7928 27.5862V30H23.7238V27.5862C23.7238 27.0538 24.157 26.6207 24.6893 26.6207H26.6204C27.1527 26.6207 27.5859 27.0538 27.5859 27.5862V30H29.5169V27.5862C29.5169 25.989 28.2176 24.6897 26.6204 24.6897Z" fill="currentcolor"/>
<path d="M22.7583 12.6207V15.0345H24.6893V12.6207C24.6893 11.0235 23.39 9.72414 21.7928 9.72414H19.8617C18.2645 9.72414 16.9652 11.0235 16.9652 12.6207V15.0345H18.8962V12.6207C18.8962 12.0883 19.3294 11.6552 19.8617 11.6552H21.7928C22.3251 11.6552 22.7583 12.0883 22.7583 12.6207Z" fill="currentcolor"/>
<path d="M13.1031 12.6207V15.0345H15.0341V12.6207C15.0341 11.0235 13.7347 9.72414 12.1376 9.72414H10.2197C8.62263 9.72414 7.32316 11.0235 7.32316 12.6207V15.0345H9.2542V12.6207C9.2542 12.0883 9.68735 11.6552 10.2197 11.6552H12.1376C12.67 11.6552 13.1031 12.0883 13.1031 12.6207Z" fill="currentcolor"/>
<path d="M16.9652 24.6897H15.0341C13.4369 24.6897 12.1376 25.989 12.1376 27.5862V30H14.0686V27.5862C14.0686 27.0538 14.5018 26.6207 15.0341 26.6207H16.9652C17.4975 26.6207 17.9307 27.0538 17.9307 27.5862V30H19.8617V27.5862C19.8617 25.989 18.5624 24.6897 16.9652 24.6897Z" fill="currentcolor"/>
</svg>
