<svg width="32" height="32" viewBox="0 0 32 32" fill="none" xmlns="http://www.w3.org/2000/svg">
<path d="M16 2C14.3459 2 13 3.34575 13 5C13 6.65425 14.3459 8 16 8C17.6541 8 19 6.65425 19 5C19 3.34575 17.6541 2 16 2ZM16 6C15.4486 6 15 5.55138 15 5C15 4.44863 15.4486 4 16 4C16.5514 4 17 4.44863 17 5C17 5.55138 16.5514 6 16 6Z" fill="currentcolor"/>
<path d="M17 10H15V30H17V10Z" fill="currentcolor"/>
<path d="M8 17C8 15.3458 6.65413 14 5 14C3.34588 14 2 15.3458 2 17C2 18.6543 3.34588 20 5 20C5.4625 20 5.901 19.8946 6.29262 19.7069L7 20.4143V30H9V19.5859L7.70687 18.2926C7.89462 17.901 8 17.4626 8 17ZM5 18C4.44863 18 4 17.5514 4 17C4 16.4486 4.44863 16 5 16C5.55137 16 6 16.4486 6 17C6 17.5514 5.55137 18 5 18Z" fill="currentcolor"/>
<path d="M12 11C12 9.34575 10.6541 8 9 8C7.34587 8 6 9.34575 6 11C6 12.6543 7.34587 14 9 14C9.32662 14 9.641 13.9468 9.93563 13.8499L11 14.9143V30.0001H13V14.086L11.5274 12.6134C11.826 12.1471 12 11.5938 12 11.0003V11ZM9 12C8.44863 12 8 11.5514 8 11C8 10.4486 8.44863 10 9 10C9.55137 10 10 10.4486 10 11C10 11.5514 9.55137 12 9 12Z" fill="currentcolor"/>
<path d="M26 11C26 9.34575 24.6541 8 23 8C21.3459 8 20 9.34575 20 11C20 11.5936 20.174 12.147 20.4726 12.6131L19 14.0858V29.9999H21V14.914L22.0644 13.8496C22.359 13.9466 22.6734 13.9998 23 13.9998C24.6541 13.9998 26 12.654 26 10.9998V11ZM22 11C22 10.4486 22.4486 10 23 10C23.5514 10 24 10.4486 24 11C24 11.5514 23.5514 12 23 12C22.4486 12 22 11.5514 22 11Z" fill="currentcolor"/>
<path d="M27 14C25.3459 14 24 15.3458 24 17C24 17.4626 24.1054 17.901 24.2931 18.2926L23 19.5859V30H25V20.4143L25.7074 19.7069C26.099 19.8946 26.5374 20 27 20C28.6541 20 30 18.6543 30 17C30 15.3458 28.6541 14 27 14ZM27 18C26.4486 18 26 17.5514 26 17C26 16.4486 26.4486 16 27 16C27.5514 16 28 16.4486 28 17C28 17.5514 27.5514 18 27 18Z" fill="currentcolor"/>
</svg>
