<svg width="32" height="32" viewBox="0 0 32 32" fill="none" xmlns="http://www.w3.org/2000/svg">
<path d="M23.1273 30H8.87275C7.32881 30 6.07275 28.7439 6.07275 27.2V4.8C6.07275 3.25605 7.32881 2 8.87275 2H23.1273C24.6712 2 25.9273 3.25605 25.9273 4.8V27.2C25.9273 28.7439 24.6712 30 23.1273 30ZM8.87275 3.52727C8.17097 3.52727 7.60003 4.09822 7.60003 4.8V27.2C7.60003 27.9018 8.17097 28.4727 8.87275 28.4727H23.1273C23.8291 28.4727 24.4 27.9018 24.4 27.2V4.8C24.4 4.09822 23.8291 3.52727 23.1273 3.52727H8.87275Z" fill="currentcolor"/>
<path d="M16.7639 13.9587H15.2366V18.0364H16.7639V13.9587Z" fill="currentcolor"/>
<path d="M16.7639 7.85455H15.2366V11.9223H16.7639V7.85455Z" fill="currentcolor"/>
<path d="M18.0364 24.4H13.9637V25.9273H18.0364V24.4Z" fill="currentcolor"/>
<path d="M14.9821 12.1769H10.9091V13.7041H14.9821V12.1769Z" fill="currentcolor"/>
<path d="M21.0909 12.1769H17.0185V13.7041H21.0909V12.1769Z" fill="currentcolor"/>
</svg>
