<svg width="32" height="32" viewBox="0 0 32 32" fill="none" xmlns="http://www.w3.org/2000/svg">
<path d="M12.2082 5.79187V11.3586L2.00024 14.4131V20.0731H3.52753V15.5505L13.7355 12.4959V5.79187C13.7355 4.54306 14.7513 3.52729 16.0001 3.52729C17.2489 3.52729 18.2647 4.54306 18.2647 5.79187V12.4959L28.4727 15.5505V20.0731H30V14.4131L19.792 11.3586V5.79187C19.792 3.70102 18.091 2 16.0001 2C13.9093 2 12.2082 3.70102 12.2082 5.79187Z" fill="currentcolor"/>
<path d="M26.1819 19.8182V18.2909H18.291V26.5905L21.1145 28.4727H10.8859L13.7093 26.5905V18.2908L5.81846 18.2911V19.8183L12.182 19.8181V25.7731L9.12746 27.8095V30H22.8727L22.8729 27.8095L19.8183 25.7731V19.8182H26.1819Z" fill="currentcolor"/>
</svg>
