<svg width="32" height="32" viewBox="0 0 32 32" fill="none" xmlns="http://www.w3.org/2000/svg">
<path d="M4.00024 15.7444L14.0259 12.7444V5.974C14.0259 4.8855 14.9115 4 16 4C17.0885 4 17.9741 4.8855 17.9741 5.974V12.7444L27.9997 15.7444V20.0001H29.9997V14.2552L19.9741 11.2552V5.974C19.9741 3.78275 18.1912 2 16 2C13.8087 2 12.0259 3.78275 12.0259 5.974V11.2552L2.00024 14.2552V20.0001H4.00024V15.7444Z" fill="currentcolor"/>
<path d="M25.9999 19.9997V17.9997H18V26.5349L20.1971 27.9996H11.803L14.0001 26.5349V17.9996L6.00024 17.9999V19.9999L12.0001 19.9997V25.4645L9.00012 27.4644V29.9996H22.9997L23.0001 27.4645L20 25.4645V19.9997H25.9999Z" fill="currentcolor"/>
</svg>
