<svg width="9" height="5" viewBox="0 0 9 5" fill="none" xmlns="http://www.w3.org/2000/svg">
<path d="M0.252542 4.76724C0.412504 4.91632 0.628892 5 0.854443 5C1.07999 5 1.29638 4.91632 1.45634 4.76724L4.52134 1.93369L7.54366 4.76724C7.70362 4.91632 7.92001 5 8.14556 5C8.37111 5 8.5875 4.91632 8.74746 4.76724C8.82748 4.69283 8.891 4.6043 8.93434 4.50676C8.97768 4.40922 9 4.3046 9 4.19893C9 4.09326 8.97768 3.98864 8.93434 3.8911C8.891 3.79356 8.82748 3.70503 8.74746 3.63062L5.12751 0.236767C5.04815 0.161744 4.95372 0.102196 4.84968 0.0615586C4.74564 0.0209216 4.63405 -5.71991e-07 4.52134 -5.62138e-07C4.40864 -5.52285e-07 4.29705 0.0209216 4.19301 0.0615587C4.08897 0.102196 3.99454 0.161744 3.91517 0.236767L0.252541 3.63062C0.172521 3.70503 0.109006 3.79356 0.0656613 3.8911C0.0223168 3.98864 -7.92696e-08 4.09326 -7.00319e-08 4.19893C-6.07941e-08 4.3046 0.0223169 4.40922 0.0656614 4.50676C0.109006 4.6043 0.172521 4.69283 0.252542 4.76724Z" fill="#0080BB"/>
</svg>
