<svg width="32" height="32" viewBox="0 0 32 32" fill="none" xmlns="http://www.w3.org/2000/svg">
<path d="M15.9995 15.2632C12.3428 15.2632 9.36792 12.2882 9.36792 8.63158C9.36792 4.975 12.3428 2 15.9995 2C19.6562 2 22.6311 4.975 22.6311 8.63158C22.6311 12.2882 19.6562 15.2632 15.9995 15.2632ZM15.9995 3.47368C13.1554 3.47368 10.8416 5.78749 10.8416 8.63158C10.8416 11.4757 13.1554 13.7895 15.9995 13.7895C18.8436 13.7895 21.1574 11.4757 21.1574 8.63158C21.1574 5.78749 18.8436 3.47368 15.9995 3.47368Z" fill="currentcolor"/>
<path d="M29.5083 26.3158H28.0346V22.386C28.0346 20.6253 26.6022 19.193 24.8416 19.193H7.15739C5.39683 19.193 3.96441 20.6253 3.96441 22.386V26.3158H2.49073V22.386C2.49073 19.8128 4.58422 17.7193 7.15739 17.7193H24.8416C27.4148 17.7193 29.5083 19.8128 29.5083 22.386V26.3158Z" fill="currentcolor"/>
<path d="M29.7549 28.5263H2.24609V30H29.7549V28.5263Z" fill="currentcolor"/>
</svg>
