<svg width="32" height="32" viewBox="0 0 32 32" fill="none" xmlns="http://www.w3.org/2000/svg">
<path d="M10.2094 5.78378L13.2252 16.9781V30H14.7387V16.7778L11.7768 5.78378H10.2094Z" fill="currentcolor"/>
<path d="M17.2612 16.7778V30H18.7747V16.9781L21.7905 5.78378H20.2232L17.2612 16.7778Z" fill="currentcolor"/>
<path d="M25.5856 2H6.41439C4.04977 2 2.1261 3.92368 2.1261 6.28829C2.1261 7.77014 2.88172 9.0787 4.02783 9.84933C4.04372 11.3657 5.28177 12.5946 6.80185 12.5946C8.33188 12.5946 9.57662 11.3499 9.57662 9.81982C9.57662 8.28978 8.33188 7.04504 6.80185 7.04504C5.83875 7.04504 4.98891 7.53858 4.49122 8.28562C3.96678 7.78049 3.63961 7.07204 3.63961 6.28829C3.63961 4.75825 4.88435 3.51351 6.41439 3.51351H25.5856C27.1156 3.51351 28.3603 4.75825 28.3603 6.28829C28.3603 7.10811 28.0028 7.84569 27.4356 8.35411C26.9449 7.56885 26.0733 7.04504 25.0811 7.04504C23.551 7.04504 22.3063 8.28978 22.3063 9.81982C22.3063 11.3499 23.551 12.5946 25.0811 12.5946C26.5756 12.5946 27.7973 11.4067 27.8532 9.92564C29.0654 9.16712 29.8738 7.82072 29.8738 6.28829C29.8738 3.92368 27.9502 2 25.5856 2ZM6.80185 8.55856C7.49731 8.55856 8.06311 9.12436 8.06311 9.81982C8.06311 10.5153 7.49731 11.0811 6.80185 11.0811C6.10639 11.0811 5.54059 10.5153 5.54059 9.81982C5.54059 9.12436 6.10639 8.55856 6.80185 8.55856ZM25.0811 11.0811C24.3856 11.0811 23.8198 10.5153 23.8198 9.81982C23.8198 9.12436 24.3856 8.55856 25.0811 8.55856C25.7765 8.55856 26.3423 9.12436 26.3423 9.81982C26.3423 10.5153 25.7765 11.0811 25.0811 11.0811Z" fill="currentcolor"/>
</svg>
