<svg width="32" height="32" viewBox="0 0 32 32" fill="none" xmlns="http://www.w3.org/2000/svg">
<path d="M7.71154 23.2127L1.96973 28.9367L3.02972 30L8.77153 24.276L7.71154 23.2127Z" fill="currentcolor"/>
<path d="M22.9608 2L21.8974 3.0635L24.9002 6.07883L22.4228 8.55616L18.0062 4.127L16.9427 5.1905L19.2449 7.49266L7.18353 19.5164L12.4885 24.8339L24.5373 12.8227L26.8395 15.1248L27.903 14.0613L23.4863 9.63217L25.9637 7.15484L28.9665 10.1702L30.03 9.10667L22.9608 2ZM9.3856 19.5915L9.29802 19.5039L13.0891 15.7254H19.4701L12.476 22.6944L9.3856 19.5915ZM20.984 14.224H14.603L20.2958 8.55616L23.4738 11.7467L20.984 14.224Z" fill="currentcolor"/>
</svg>
