<svg width="32" height="32" viewBox="0 0 32 32" fill="none" xmlns="http://www.w3.org/2000/svg">
<path d="M13.4074 14.2851C13.4074 14.4509 13.3272 14.608 13.1927 14.7051L10.3274 16.7782V11.9448C10.3274 10.7904 10.9164 9.74407 11.8519 9.13676V7.95817C10.3033 8.6662 9.29037 10.2124 9.29037 11.9448V16.9304C9.29037 17.2849 9.48456 17.609 9.79722 17.7763C9.93943 17.8524 10.0949 17.8901 10.25 17.8901C10.4359 17.8901 10.6213 17.8359 10.782 17.7287L13.8007 15.5454C14.2039 15.2539 14.4446 14.7826 14.4446 14.285V11.8517H13.4075V14.285L13.4074 14.2851Z" fill="currentcolor"/>
<path d="M20.1481 7.95065V9.12574C21.0931 9.7315 21.6887 10.7837 21.6887 11.9448V16.7787L18.808 14.7044C18.6731 14.6073 18.5926 14.4499 18.5926 14.2837V11.8519H17.5556V14.2837C17.5556 14.7826 17.7973 15.2545 18.2021 15.5459L21.2188 17.7181L21.2342 17.7287C21.3949 17.8359 21.5802 17.8901 21.7662 17.8901C21.9214 17.8901 22.0769 17.8524 22.2191 17.7763C22.5316 17.609 22.7258 17.2848 22.7258 16.9304V11.9448C22.7258 10.2063 21.706 8.65518 20.1483 7.95065H20.1481Z" fill="currentcolor"/>
<path d="M14.4447 5.62963H13.4077V9.77337H14.4447V5.62963Z" fill="currentcolor"/>
<path d="M18.5923 5.62963H17.5553V9.77337H18.5923V5.62963Z" fill="currentcolor"/>
<path d="M2 21.7037H30V2H2V21.7037ZM3.03704 3.03704H28.963V20.6667H3.03704V3.03704Z" fill="currentcolor"/>
<path d="M23.7778 28.963H8.22222V24.2963H7.18518V30H24.8148V24.2963H23.7778V28.963Z" fill="currentcolor"/>
<path d="M14.963 24.8148H10.8148V25.8519H14.963V24.8148Z" fill="currentcolor"/>
</svg>
