<svg width="32" height="32" viewBox="0 0 32 32" fill="none" xmlns="http://www.w3.org/2000/svg">
<path d="M16 24.909C19.2281 24.909 21.8545 22.2826 21.8545 19.0544V15.2362H10.1455V19.0544C10.1455 22.2826 12.7719 24.909 16 24.909ZM11.6727 16.7635H20.3273V19.0544C20.3273 21.4405 18.3861 23.3817 16 23.3817C13.6139 23.3817 11.6727 21.4405 11.6727 19.0544V16.7635Z" fill="currentcolor"/>
<path d="M7.6 14.9817H6.07273V18.0362H7.6V14.9817Z" fill="currentcolor"/>
<path d="M26.1818 11.1635H5.81818V12.6908H26.1818V11.1635Z" fill="currentcolor"/>
<path d="M28.4727 27.4544H3.52727V8.87261H2V28.9817H30V8.87261H28.4727V27.4544Z" fill="currentcolor"/>
<path d="M2 3.01807V6.83625H3.52727V4.54534H28.4727V6.83625H30V3.01807H2Z" fill="currentcolor"/>
<path d="M28.2182 7.09079H3.78182V8.61807H28.2182V7.09079Z" fill="currentcolor"/>
</svg>
