<svg width="32" height="32" viewBox="0 0 32 32" fill="none" xmlns="http://www.w3.org/2000/svg">
<path d="M15.0642 7.3448L13.0644 9.34487L14.125 10.4054L16.1248 8.40532L15.0642 7.3448Z" fill="currentcolor"/>
<path d="M3.34473 25.875V9.875C3.34473 8.63438 4.3541 7.625 5.59473 7.625H8.59473V6.125H5.59473C3.52698 6.125 1.84473 7.80725 1.84473 9.875V25.875C1.84473 27.9427 3.52698 29.625 5.59473 29.625H19.5947V28.125H5.59473C4.3541 28.125 3.34473 27.1156 3.34473 25.875Z" fill="currentcolor"/>
<path d="M29.3447 9.875C29.3447 7.80725 27.6625 6.125 25.5947 6.125H22.5947V7.625H25.5947C26.8354 7.625 27.8447 8.63438 27.8447 9.875V23.375H29.3447V9.875Z" fill="currentcolor"/>
<path d="M21.3447 7.875C21.3447 4.7045 18.7652 2.125 15.5947 2.125C12.4242 2.125 9.84473 4.7045 9.84473 7.875C9.84473 11.0455 12.4242 13.625 15.5947 13.625C18.7652 13.625 21.3447 11.0455 21.3447 7.875ZM15.5947 12.125C13.2512 12.125 11.3447 10.2185 11.3447 7.875C11.3447 5.5315 13.2512 3.625 15.5947 3.625C17.9382 3.625 19.8447 5.5315 19.8447 7.875C19.8447 10.2185 17.9382 12.125 15.5947 12.125Z" fill="currentcolor"/>
<path d="M25.3447 11.875H23.8447V24.8701H25.3447V11.875Z" fill="currentcolor"/>
<path d="M24.5947 28.3144L21.1554 24.875H19.0341L24.0341 29.875H25.1554L30.1554 24.875H28.0341L24.5947 28.3144Z" fill="currentcolor"/>
</svg>
