<svg width="32" height="32" viewBox="0 0 32 32" fill="none" xmlns="http://www.w3.org/2000/svg">
<path d="M16.0009 3.57468L24.5155 12.0901H26.6557L16.5667 2H15.4353L5.34428 12.0901H7.48464L16.0009 3.57468Z" fill="currentcolor"/>
<path d="M25.3333 28.4865H6.66659V23.1892H5.15308V30H26.8468V23.1892H25.3333V28.4865Z" fill="currentcolor"/>
<path d="M20.037 14.3604V15.8739H25.3333V21.1712H26.8468V14.3604H20.037Z" fill="currentcolor"/>
<path d="M6.66659 15.8739H11.9639V14.3604H5.15308V21.1712H6.66659V15.8739Z" fill="currentcolor"/>
<path d="M13.2251 23.1892V25.964H18.7747V23.1892H17.2612V24.4505H14.7387V23.1892H13.2251Z" fill="currentcolor"/>
<path d="M18.7747 18.3964H13.2251V21.1712H14.7387V19.9099H17.2612V21.1712H18.7747V18.3964Z" fill="currentcolor"/>
<path d="M12.2161 14.1081H13.7297V11.8378H18.2702V14.1081H19.7837V10.3243H12.2161V14.1081Z" fill="currentcolor"/>
<path d="M18.0189 14.3604H13.9829V15.8739H18.0189V14.3604Z" fill="currentcolor"/>
<path d="M12.9729 21.4234H6.91884V22.9369H12.9729V21.4234Z" fill="currentcolor"/>
<path d="M25.081 21.4234H19.0269V22.9369H25.081V21.4234Z" fill="currentcolor"/>
</svg>
