<svg width="32" height="32" viewBox="0 0 32 32" fill="none" xmlns="http://www.w3.org/2000/svg">
<path d="M14.4108 4.13391C12.5827 2.30578 9.97662 1.60565 7.52615 2.21502L6.33333 3.40784L10.9231 7.99762L10.6249 10.6426L7.97994 10.9408L3.40313 6.32507L2.6641 7.05114L2.21031 7.49196C1.60093 9.94244 2.30107 12.5485 4.11623 14.3766C5.50354 15.7639 7.3187 16.5159 9.26352 16.5159H9.27649C11.2083 16.5159 13.0365 15.7639 14.4108 14.3896C17.2373 11.5631 17.2373 6.96038 14.4108 4.13391ZM9.26352 15.4787C7.59098 15.4787 6.03512 14.8304 4.85526 13.6506C3.27348 12.0558 2.69003 9.77388 3.26051 7.64755L7.61691 12.0039L10.5212 11.6798L11.701 10.4999L12.0252 7.59569L7.6558 3.23929C9.7951 2.66881 12.077 3.26522 13.6718 4.85998C14.8516 6.03983 15.4869 7.59569 15.4869 9.26823C15.4869 10.9278 14.8387 12.4966 13.6588 13.6635C12.4919 14.8304 10.9361 15.4787 9.26352 15.4787Z" fill="currentcolor"/>
<path d="M29.1007 24.6971L18.7153 14.3377L17.9893 15.0768L28.3746 25.4362C29.1785 26.24 29.1785 27.5625 28.3746 28.3664C27.9856 28.7553 27.467 28.9757 26.9095 28.9757C26.352 28.9757 25.8334 28.7553 25.4444 28.3664L15.098 17.9681L14.3589 18.6941L24.6924 29.0924C25.2759 29.6759 26.0668 30 26.8965 30C27.7263 30 28.5043 29.6759 29.1007 29.0924C30.3065 27.8866 30.3065 25.9029 29.1007 24.6971Z" fill="currentcolor"/>
</svg>
