<svg width="32" height="32" viewBox="0 0 32 32" fill="none" xmlns="http://www.w3.org/2000/svg">
<path d="M14.6133 4.17113C12.8563 2.41042 10.3859 1.67756 8.01319 2.13122L6.3338 3.80692L10.7492 8.22586L10.4964 10.4933L8.22876 10.7445L3.81148 6.32378L2.1382 7.99336C1.6797 10.3651 2.40772 12.8382 4.16385 14.5982C5.5564 15.9938 7.40898 16.7634 9.38055 16.7655H9.38857C11.3569 16.7655 13.2083 15.9998 14.6017 14.6092C17.4826 11.7345 17.4876 7.05206 14.6129 4.17125L14.6133 4.17113ZM13.5235 13.5282C12.4181 14.6313 10.9501 15.2383 9.38882 15.2383H9.38246C7.81887 15.2366 6.34958 14.6262 5.24501 13.5193C3.85843 12.1295 3.27993 10.1792 3.63345 8.30565L7.66744 12.343L10.3182 12.0494L12.0524 10.3188L12.3481 7.66543L8.31428 3.62838C10.1909 3.27538 12.1428 3.85744 13.5323 5.24974C15.8122 7.53461 15.8083 11.2483 13.5235 13.5282Z" fill="currentcolor"/>
<path d="M29.0294 24.3527L18.8389 14.1857L17.7603 15.2666L27.9496 25.4326C28.6438 26.1278 28.6428 27.258 27.9476 27.9521C27.6111 28.288 27.1642 28.4729 26.6889 28.4729H26.6875C26.2116 28.4726 25.7644 28.2869 25.429 27.9509L15.2776 17.7508L14.1951 18.828L24.3474 29.029C24.9719 29.6545 25.8025 29.9992 26.6862 30H26.6889C27.5717 30 28.4018 29.6565 29.0265 29.0327C30.3176 27.7436 30.3193 25.6447 29.0291 24.3527H29.0294Z" fill="currentcolor"/>
</svg>
