<svg width="32" height="32" viewBox="0 0 32 32" fill="none" xmlns="http://www.w3.org/2000/svg">
<path d="M29.3119 14.6045C27.9697 13.2624 26.3026 12.4401 24.5616 12.1331C25.1599 10.999 25.5002 9.70862 25.5002 8.33975V6.5H23.6606C22.2916 6.5 21.0014 6.84037 19.8671 7.43862C19.5601 5.69762 18.7379 4.03062 17.3958 2.6885L16.7073 2H15.293L14.6045 2.6885C13.2624 4.03062 12.4401 5.69762 12.1331 7.43862C10.999 6.84037 9.70862 6.5 8.33962 6.5H6.5V8.33975C6.5 9.70862 6.84037 10.999 7.43862 12.1331C5.69762 12.4401 4.03062 13.2624 2.68837 14.6045L2 15.2929V16.707L2.68837 17.3954C4.03237 18.7394 5.70225 19.562 7.44587 19.868C6.843 21.0056 6.5 22.301 6.5 23.6756V25.5152H8.33962C9.7095 25.5152 11.0007 25.1744 12.1355 24.5754C12.4444 26.3112 13.2659 27.9729 14.6044 29.3114L15.2929 29.9999H16.7071L17.3956 29.3114C18.7377 27.9692 19.56 26.3022 19.867 24.5612C21.0011 25.1594 22.2915 25.4999 23.6604 25.4999H25.5V23.6602C25.5 22.2912 25.1595 21.001 24.5614 19.8667C26.3024 19.5597 27.9695 18.7375 29.3116 17.3954L30 16.707V15.2929L29.3116 14.6045H29.3119ZM19.9918 8.51437C21.0655 7.871 22.3204 7.5 23.6606 7.5H24.5002V8.33975C24.5002 9.68 24.1292 10.9349 23.4859 12.0086C21.9967 11.9282 20.492 12.2189 19.1215 12.8789C19.7814 11.5082 20.0721 10.0035 19.9918 8.51437ZM7.50037 8.33975V7.5H8.34C9.68025 7.5 10.9351 7.871 12.0089 8.51437C11.9285 10.0035 12.2191 11.5082 12.8791 12.8787C11.5085 12.2189 10.0039 11.9281 8.51475 12.0085C7.87137 10.9347 7.50037 9.68 7.50037 8.33975ZM12.01 23.5004C10.936 24.1441 9.68075 24.5154 8.34 24.5154H7.50037V23.6757C7.50037 22.3294 7.87437 21.069 8.52325 19.992C8.68212 20.0004 8.84125 20.0056 9.00037 20.0056C10.3292 20.0056 11.6575 19.7094 12.8791 19.1211C12.217 20.4962 11.9269 22.0064 12.01 23.5002V23.5004ZM24.5002 23.6604V24.5H23.6606C22.3204 24.5 21.0655 24.129 19.9918 23.4856C20.0721 21.9965 19.7815 20.4919 19.1215 19.1212C20.3433 19.7095 21.6714 20.0057 23.0002 20.0057C23.1621 20.0057 23.324 20.0002 23.4858 19.9915C24.1291 21.0653 24.5001 22.3201 24.5001 23.6605L24.5002 23.6604ZM28.6047 16.6885C25.6225 19.6709 20.8355 19.7741 17.7271 17H17.0004V17.7267C19.7744 20.8352 19.6711 25.622 16.6887 28.6044L16.0004 29.2927L15.312 28.6044C12.3296 25.622 12.2264 20.8351 15.0004 17.7267V17H14.2736C11.1652 19.7741 6.37825 19.6709 3.396 16.6885L2.7075 16L3.396 15.3115C6.37825 12.3291 11.1652 12.2259 14.2736 15H15.0004V14.2732C12.2264 11.1647 12.3296 6.378 15.312 3.39562L16.0004 2.70725L16.6887 3.39562C19.6711 6.378 19.7744 11.1649 17.0004 14.2732V15H17.7271C20.8355 12.2259 25.6225 12.3291 28.6047 15.3115L29.2932 16L28.6047 16.6885Z" fill="currentcolor"/>
</svg>
