<svg width="32" height="32" viewBox="0 0 32 32" fill="none" xmlns="http://www.w3.org/2000/svg">
<path d="M22.4756 22.2759H19.7447L27.4688 30H30.1998L22.4756 22.2759Z" fill="currentcolor"/>
<path d="M20.9892 18.888C22.2785 17.13 23.0412 14.9629 23.0412 12.6207C23.0412 6.76447 18.2767 2 12.4205 2C6.56427 2 1.7998 6.76447 1.7998 12.6207C1.7998 18.4769 6.56427 23.2414 12.4205 23.2414C14.1668 23.2414 15.816 22.8175 17.2708 22.0676C18.7433 21.3084 20.0162 20.2147 20.9892 18.888ZM12.4205 3.93103C17.212 3.93103 21.1102 7.82919 21.1102 12.6207C21.1102 17.4122 17.212 21.3103 12.4205 21.3103C7.62899 21.3103 3.73084 17.4122 3.73084 12.6207C3.73084 7.82919 7.62899 3.93103 12.4205 3.93103Z" fill="currentcolor"/>
<path d="M11.455 13.5863V18.4155H13.386V13.5821H11.4555V13.5863H11.455Z" fill="currentcolor"/>
<path d="M11.455 13.5863H11.4555V13.5821V11.6553H6.62739V13.5863H11.455Z" fill="currentcolor"/>
<path d="M18.2136 13.5863V11.6553H13.3865V13.5863H18.2136Z" fill="currentcolor"/>
<path d="M13.386 11.6511V6.82759H11.455V11.6511H13.386Z" fill="currentcolor"/>
</svg>
