<svg width="32" height="32" viewBox="0 0 32 32" fill="none" xmlns="http://www.w3.org/2000/svg">
<path d="M4.03625 4.54545H6.5817V3.52727H3.01807V7.09091H4.03625V4.54545Z" fill="black"/>
<path d="M26.4359 17.2678H25.4177V28.9818H4.03625V9.12727H3.01807V30H26.4359V17.2678Z" fill="black"/>
<path d="M26.4359 3.52727H22.8726V4.54545H25.4177L25.4181 7.08938H26.4362L26.4359 3.52727Z" fill="black"/>
<path d="M10.1453 2H9.12716V5.05455H10.1453V2Z" fill="black"/>
<path d="M20.3272 2H19.309V5.05455H20.3272V2Z" fill="black"/>
<path d="M16.7635 3.52727H12.6908V4.54545H16.7635V3.52727Z" fill="black"/>
<path d="M22.8736 7.6H4.54534V8.61818H22.8736V7.6Z" fill="black"/>
<path d="M26.6471 8.10756H26.2254L11.1635 23.1709V25.9273H13.9199L28.9817 10.8639V10.4423L26.6471 8.10756ZM13.4981 24.9091H12.1817V23.5927L26.4362 9.33676L27.7528 10.6531L13.4981 24.9092V24.9091Z" fill="black"/>
</svg>
