<svg width="32" height="32" viewBox="0 0 32 32" fill="none" xmlns="http://www.w3.org/2000/svg">
<path d="M4.5223 4.77477H6.79257V3.26126H3.00879V7.04504H4.5223V4.77477Z" fill="black"/>
<path d="M26.7201 17.1302H25.2066V28.4865H4.5223V9.06306H3.00879V30H26.7201V17.1302Z" fill="black"/>
<path d="M26.72 3.26126H22.9367V4.77477H25.2067L25.207 7.04353H26.7205L26.72 3.26126Z" fill="black"/>
<path d="M10.5764 2H9.06284V5.02703H10.5764V2Z" fill="black"/>
<path d="M20.6664 2H19.1529V5.02703H20.6664V2Z" fill="black"/>
<path d="M16.8827 3.26126H12.8466V4.77477H16.8827V3.26126Z" fill="black"/>
<path d="M22.9377 7.2973H4.77455V8.81081H22.9377V7.2973Z" fill="black"/>
<path d="M27.034 8.05254H25.9026L11.0809 22.8756V25.9638H14.1691L28.9908 11.1407V10.0093L27.034 8.05254ZM13.5422 24.4505H12.5944V23.5026L26.4682 9.62722L27.4161 10.5751L13.5422 24.4505Z" fill="black"/>
</svg>
