<svg width="32" height="32" viewBox="0 0 32 32" fill="none" xmlns="http://www.w3.org/2000/svg">
<path d="M18.5805 7.1508H15.5814C15.4283 7.1508 15.3036 7.0261 15.3036 6.86648L15.2612 2L13.8013 2.01265L13.8436 6.8728C13.8436 7.83113 14.6232 8.61074 15.5814 8.61074H18.5805C23.7156 8.61074 27.9458 12.5589 28.4001 17.5791H29.8672C29.409 11.7525 24.521 7.1508 18.5804 7.1508H18.5805Z" fill="currentcolor"/>
<path d="M10.4802 24.3921H8.69672C10.5685 27.421 13.8952 29.5769 17.4511 29.9343V28.4637C14.7454 28.1383 12.1518 26.578 10.4802 24.3921Z" fill="currentcolor"/>
<path d="M13.0802 17.8224H7.45674C6.66667 17.8224 6.0238 18.4651 6.0238 19.2552V29.2586H7.48375V19.2823H13.0802V17.8224Z" fill="currentcolor"/>
<path d="M19.1628 13.6859V13.3854C19.1628 12.6811 18.7202 12.0408 18.0614 11.7918L12.1643 9.56445C11.6939 9.38682 11.3778 8.92938 11.3778 8.42642V2.00633H9.91784V8.42655C9.91784 9.53343 10.6134 10.5396 11.6486 10.9305L17.5456 13.1579C17.6396 13.1934 17.7029 13.2849 17.7029 13.3855V13.686C17.7029 13.8202 17.5939 13.9293 17.4597 13.9293H5.78218C3.7699 13.9293 2.13281 15.5666 2.13281 17.5792V29.2587H3.59276V17.5792C3.59276 16.3717 4.57493 15.3893 5.78218 15.3893H17.4597C18.3988 15.3893 19.1628 14.6251 19.1628 13.6859Z" fill="currentcolor"/>
<path d="M24.7509 27.0687C25.9584 27.0687 26.9408 26.0863 26.9408 24.8788C26.9408 23.6713 25.9584 22.6889 24.7509 22.6889C23.5434 22.6889 22.5609 23.6713 22.5609 24.8788C22.5609 26.0863 23.5434 27.0687 24.7509 27.0687ZM24.7509 24.1488C25.1534 24.1488 25.4808 24.4762 25.4808 24.8788C25.4808 25.2813 25.1534 25.6087 24.7509 25.6087C24.3483 25.6087 24.0209 25.2813 24.0209 24.8788C24.0209 24.4762 24.3483 24.1488 24.7509 24.1488Z" fill="currentcolor"/>
<path d="M21.101 24.8902V24.4036H19.6411V24.8902C19.6411 27.7078 21.9333 30 24.7509 30H25.2375V28.5401H24.7509C22.7383 28.5401 21.101 26.9027 21.101 24.8902Z" fill="currentcolor"/>
<path d="M24.7509 19.7804H24.2642V21.2403H24.7509C26.7634 21.2403 28.4007 22.8777 28.4007 24.8902V25.3768H29.8607V24.8902C29.8607 22.0726 27.5684 19.7804 24.7509 19.7804Z" fill="currentcolor"/>
</svg>
