<svg width="32" height="32" viewBox="0 0 32 32" fill="none" xmlns="http://www.w3.org/2000/svg">
<path d="M21 14.4964V16.4961C22.9058 16.5405 23.8959 16.9636 24.9394 17.4109C26.1215 17.9175 27.4615 18.4917 30 18.4917V16.4917C27.8719 16.4917 26.8301 16.0452 25.7271 15.5726C24.5983 15.0889 23.3229 14.5446 21 14.4964Z" fill="currentcolor"/>
<path d="M9 18.5L11 18.5002L11.0013 9.50012H6.00113C5.44975 9.50012 5.00113 9.0515 5.00113 8.50012C5.00113 7.94875 5.44975 7.50012 6.00113 7.50012H13V14.0352L14.7813 15.2227C16.0346 16.0584 17.4935 16.5001 19 16.5001V14.5001C17.8896 14.5001 16.8145 14.1746 15.8906 13.5587L15 12.965V5.50012H6.00113C4.347 5.50012 3.00113 6.84587 3.00113 8.50012C3.00113 10.1544 4.347 11.5001 6.00113 11.5001H9.001L9 18.5Z" fill="currentcolor"/>
<path d="M5 18.5001C6.65413 18.5001 8 17.1544 8 15.5001C8 13.8459 6.65413 12.5001 5 12.5001C3.34588 12.5001 2 13.8459 2 15.5001C2 17.1544 3.34588 18.5001 5 18.5001ZM5 14.5001C5.55138 14.5001 6 14.9487 6 15.5001C6 16.0515 5.55138 16.5001 5 16.5001C4.44863 16.5001 4 16.0515 4 15.5001C4 14.9487 4.44863 14.5001 5 14.5001Z" fill="currentcolor"/>
<path d="M6.27263 25.4192C7.45475 25.9259 8.7945 26.5001 11.333 26.5001C13.8715 26.5001 15.2115 25.9259 16.3936 25.4192C17.4965 24.9466 18.5383 24.5001 20.6665 24.5001C22.7948 24.5001 23.8364 24.9466 24.9394 25.4192C26.1215 25.9259 27.4615 26.5001 30 26.5001V24.5001C27.8719 24.5001 26.8301 24.0536 25.7271 23.581C24.545 23.0744 23.205 22.5001 20.6665 22.5001C18.128 22.5001 16.788 23.0744 15.6059 23.581C14.503 24.0536 13.4613 24.5001 11.333 24.5001C9.20475 24.5001 8.16338 24.0536 7.06038 23.581C5.87825 23.0744 4.5385 22.5001 2 22.5001V24.5001C4.12788 24.5001 5.16963 24.9466 6.27263 25.4192Z" fill="currentcolor"/>
<path d="M15.6059 19.581C14.503 20.0536 13.4613 20.5001 11.333 20.5001C9.20475 20.5001 8.16338 20.0536 7.06038 19.581C7.04038 19.5725 7.02 19.5637 7 19.5551V21.7222C8.03125 22.1301 9.29575 22.5001 11.333 22.5001C13.7374 22.5001 15.0663 21.985 16.2045 21.5001C16.268 21.473 16.3313 21.446 16.3938 21.4192C16.5955 21.3327 16.7954 21.2472 17.0001 21.1651C17.9144 20.7982 18.9278 20.5001 20.6666 20.5001C22.7948 20.5001 23.8365 20.9466 24.9395 21.4192C26.1216 21.9259 27.4616 22.5001 30.0001 22.5001V20.5001C27.872 20.5001 26.8303 20.0536 25.7273 19.581C24.5984 19.0972 23.323 18.5531 21.0001 18.5049C20.8904 18.5026 20.7811 18.5001 20.6666 18.5001C18.128 18.5001 16.788 19.0744 15.6059 19.581Z" fill="currentcolor"/>
</svg>
