<svg width="32" height="32" viewBox="0 0 32 32" fill="none" xmlns="http://www.w3.org/2000/svg">
<path d="M11 10.4861V7.48611H9V10.4861H6.001V12.4861H9V15.4861H11V12.4861H14.001V10.4861H11Z" fill="currentcolor"/>
<path d="M24.5884 3.49036H2V25.4904H5.12875C5.5765 27.2141 7.14237 28.4904 9 28.4904C11.2056 28.4904 13 26.6915 13 24.4804C13 22.2692 11.2056 20.4702 9 20.4702C7.13513 20.4702 5.56437 21.7565 5.12362 23.4904H4V5.49036H23.4116L24.5204 7.48611H18.0011V15.4861H28V23.4904H26.8715C26.424 21.7661 24.858 20.4895 23 20.4895C21.142 20.4895 19.576 21.7661 19.1285 23.4904H15.001V25.4904H19.1238C19.5649 27.2239 21.1354 28.5096 23 28.5096C24.8646 28.5096 26.4351 27.2239 26.8762 25.4904H30V13.2312L24.5884 3.49036ZM9 22.4702C10.1027 22.4702 11 23.372 11 24.4804C11 25.5887 10.1027 26.4904 9 26.4904C7.89725 26.4904 7 25.5886 7 24.4804C7 23.3721 7.89725 22.4702 9 22.4702ZM23 26.5096C21.8972 26.5096 21 25.6079 21 24.4996C21 23.3914 21.8972 22.4895 23 22.4895C24.1028 22.4895 25 23.3912 25 24.4996C25 25.608 24.1028 26.5096 23 26.5096ZM20.0011 13.4861V9.48611H25.6315L27.8538 13.4861H20.0011Z" fill="currentcolor"/>
</svg>
