<svg width="32" height="32" viewBox="0 0 32 32" fill="none" xmlns="http://www.w3.org/2000/svg">
<path d="M14 13H12V19H14V13Z" fill="currentcolor"/>
<path d="M17 15H15V19H17V15Z" fill="currentcolor"/>
<path d="M20 17H18V19H20V17Z" fill="currentcolor"/>
<path d="M4 22.477V24.8291C7.54125 26.8837 11.7172 28 15.967 28C20.2465 28 24.451 26.8681 28.0081 24.786V22.4276C24.5594 24.7346 20.3086 26 15.967 26C11.6564 26 7.4355 24.7526 4 22.477Z" fill="currentcolor"/>
<path d="M27.9823 9.55513V7.19887C24.4307 5.12637 20.2361 4 15.967 4C11.6979 4 7.53475 5.11787 3.99187 7.17562V9.5285C7.42887 7.24937 11.653 6 15.967 6C20.281 6 24.5381 7.25913 27.9823 9.55513Z" fill="currentcolor"/>
<path d="M27.7874 11.8964C24.8235 8.9325 20.9388 7.2245 16.7784 7.03825C16.5253 7.02688 16.2711 7.0205 16.0161 7.0205C15.6782 7.0205 15.3422 7.03175 15.0077 7.05162C10.9404 7.293 7.15013 8.991 4.24487 11.8964L2 14.1412V17.9053L4.24487 20.1501C7.389 23.294 11.5699 25.0259 16.0161 25.0259C20.4624 25.0259 24.6431 23.2943 27.7874 20.1501L30 17.9375V14.1091L27.7874 11.8964ZM16.0161 9.02063C16.2374 9.02063 16.4578 9.02613 16.6774 9.03588C20.2049 9.393 22.967 12.38 22.967 16C22.967 19.8597 19.8269 23 15.967 23C12.1071 23 8.967 19.8597 8.967 16C8.967 12.4034 11.6939 9.43288 15.1886 9.04438C15.4631 9.02913 15.739 9.02063 16.0161 9.02063ZM5.65925 18.736L2.9465 16.0233L5.65925 13.3105C6.49137 12.4784 7.4065 11.7595 8.38525 11.16C7.48925 12.5588 6.96712 14.219 6.96712 16C6.96712 17.8138 7.50825 19.5025 8.43475 20.9171C7.43725 20.3115 6.50537 19.5822 5.65925 18.736ZM26.3731 18.736C25.4821 19.627 24.496 20.3882 23.4385 21.012C24.4032 19.5785 24.9671 17.854 24.9671 16C24.9671 14.1776 24.4211 12.4811 23.4864 11.0625C24.5259 11.681 25.4955 12.433 26.3731 13.3106L29.0859 16.0234L26.3731 18.7361V18.736Z" fill="currentcolor"/>
</svg>
