<svg width="32" height="32" viewBox="0 0 32 32" fill="none" xmlns="http://www.w3.org/2000/svg">
<path d="M9.91995 6.30514L8.24183 4.62595C8.10572 4.48972 8.03167 4.30851 8.03345 4.11578C8.03535 3.92318 8.11284 3.74328 8.2518 3.60942C8.38281 3.48339 8.55488 3.42109 8.73075 3.42109C8.92739 3.42109 9.1289 3.49893 9.28246 3.65261L10.9269 5.29822L11.9339 4.29142L10.2896 2.64593C9.45358 1.80966 8.09634 1.78165 7.26375 2.58386C6.84721 2.98509 6.61486 3.52433 6.6094 4.10226C6.60382 4.6803 6.82585 5.22381 7.23444 5.63263L8.9128 7.31206L9.91995 6.30514Z" fill="currentcolor"/>
<path d="M4.1045 8.37749C4.24334 8.23876 4.4255 8.16946 4.60778 8.16946C4.79006 8.16946 4.97257 8.23888 5.11142 8.37784L6.4537 9.72096L7.46074 8.71416L6.11869 7.37128C5.28586 6.53809 3.93076 6.53773 3.09781 7.37021C2.26463 8.20292 2.26427 9.55802 3.09675 10.3911L4.4395 11.7347L5.44654 10.7279L4.10402 9.38453C3.82645 9.10684 3.82669 8.65518 4.10438 8.3776L4.1045 8.37749Z" fill="currentcolor"/>
<path d="M8.80291 10.0572L7.79587 11.064L8.80243 12.0712C8.93689 12.2058 9.01094 12.3846 9.01082 12.5748C9.01082 12.7649 8.93665 12.9436 8.80208 13.078C8.52451 13.3556 8.07273 13.3552 7.79527 13.0778L6.78895 12.0709L5.78191 13.0777L6.78812 14.0845C7.20465 14.5011 7.75172 14.7095 8.29891 14.7095C8.8461 14.7095 9.39246 14.5014 9.80888 14.0853C10.2125 13.6821 10.4349 13.1457 10.435 12.5751C10.4352 12.0044 10.2132 11.468 9.80983 11.0645L8.80303 10.057L8.80291 10.0572Z" fill="currentcolor"/>
<path d="M22.7176 3.65261C23.0085 3.36139 23.4712 3.34229 23.7483 3.60942C23.8874 3.74328 23.9649 3.92318 23.9668 4.11578C23.9687 4.30851 23.8946 4.4896 23.7584 4.62595L22.0803 6.30514L23.0873 7.31194L24.7657 5.63251C25.1741 5.22381 25.3962 4.6803 25.3907 4.10214C25.3852 3.52421 25.1529 2.98497 24.7362 2.58375C23.9036 1.78177 22.5463 1.80966 21.7105 2.64581L20.0662 4.2913L21.0732 5.2981L22.7176 3.65261Z" fill="currentcolor"/>
<path d="M21.7453 8.65494L20.7382 7.64814L19.1782 9.20925C18.506 9.88187 18.136 10.7759 18.1364 11.7267L18.1402 27.8167C18.1402 28.2282 17.8271 28.5688 17.442 28.576C17.2461 28.5784 17.0669 28.5071 16.9295 28.3723C16.7919 28.2373 16.7162 28.0569 16.7161 27.8644L16.7123 11.7272C16.7118 10.3961 17.23 9.14434 18.171 8.20268L19.7312 6.64133L18.7241 5.63453L17.1637 7.19612C16.6894 7.6708 16.3 8.20731 16.0003 8.78654C15.7005 8.20731 15.3112 7.6708 14.8368 7.19612L13.2764 5.63453L12.2694 6.64133L13.8296 8.20268C14.7706 9.14446 15.2887 10.3961 15.2883 11.7273L15.2845 27.8643C15.2845 28.0569 15.2086 28.2374 15.0711 28.3723C14.9337 28.5071 14.7533 28.5781 14.5586 28.576C14.1735 28.5687 13.8603 28.2281 13.8604 27.8166L13.8642 11.7268C13.8646 10.7759 13.4946 9.88187 12.8224 9.20925L11.2624 7.64814L10.2553 8.65494L11.8151 10.2158C12.2184 10.6193 12.4405 11.1558 12.4403 11.7264L12.4365 27.8161C12.4361 28.9987 13.3762 29.9782 14.5322 29.9996C14.5459 29.9999 14.5594 30 14.5732 30C15.1055 30 15.6068 29.8046 16.0004 29.4494C16.3942 29.8047 16.8953 30 17.4277 30C17.4413 30 17.4549 30 17.4686 29.9996C18.6246 29.978 19.5647 28.9985 19.5643 27.8162L19.5605 11.7263C19.5603 11.1557 19.7823 10.6193 20.1857 10.2157L21.7455 8.65482L21.7453 8.65494Z" fill="currentcolor"/>
<path d="M28.9025 7.37021C28.0696 6.53762 26.7145 6.53797 25.8816 7.37128L24.5396 8.71416L25.5466 9.72096L26.8889 8.37784C27.0278 8.23888 27.2102 8.16946 27.3926 8.16946C27.5749 8.16946 27.7571 8.23876 27.8958 8.37749C28.1735 8.65506 28.1738 9.10684 27.8962 9.38441L26.5537 10.7278L27.5607 11.7346L28.9035 10.391C29.7361 9.55779 29.7356 8.2028 28.9024 7.37009L28.9025 7.37021Z" fill="currentcolor"/>
<path d="M24.2054 13.0777C23.9275 13.3554 23.4759 13.3554 23.1985 13.0782C23.0639 12.9436 22.9898 12.7647 22.9898 12.5748C22.9898 12.3845 23.0637 12.2058 23.1981 12.0712L24.2047 11.064L23.1977 10.0572L22.1909 11.0647C21.7876 11.4681 21.5655 12.0047 21.5657 12.5752C21.5657 13.1458 21.7882 13.6821 22.1918 14.0854C22.6082 14.5016 23.1548 14.7096 23.7018 14.7096C24.2488 14.7096 24.7963 14.5011 25.2127 14.0845L26.2188 13.0778L25.2117 12.071L24.2055 13.0778L24.2054 13.0777Z" fill="currentcolor"/>
</svg>
