<svg width="32" height="32" viewBox="0 0 32 32" fill="none" xmlns="http://www.w3.org/2000/svg">
<path d="M15.999 13.5621C14.6633 13.5621 13.5764 14.6489 13.5764 15.9847C13.5764 17.3206 14.6632 18.4074 15.999 18.4074C17.3349 18.4074 18.4217 17.3206 18.4217 15.9847C18.4217 14.6489 17.3349 13.5621 15.999 13.5621ZM15.999 17.438C15.1977 17.438 14.5457 16.7861 14.5457 15.9846C14.5457 15.1832 15.1976 14.5312 15.999 14.5312C16.8005 14.5312 17.4524 15.1832 17.4524 15.9846C17.4524 16.7861 16.8005 17.438 15.999 17.438Z" fill="currentcolor"/>
<path d="M26.4756 17.3275C26.2871 17.0922 26.0857 16.8568 25.8765 16.6217C25.6917 16.414 25.4996 16.2068 25.2994 16.0001C24.7629 15.4461 24.1729 14.8969 23.5373 14.3586C23.2842 14.1443 23.0246 13.9316 22.7576 13.7212C22.3636 13.4107 21.9547 13.1052 21.5331 12.8055C21.4026 11.4257 21.1881 10.1051 20.8954 8.88333C21.457 8.74291 22.0048 8.63035 22.5337 8.54954C24.9566 8.17905 26.7331 8.52871 27.2849 9.48474C27.7443 10.2806 27.4362 11.5691 26.4517 13.0771H27.5798C28.5216 11.4448 28.7195 10.0312 28.1243 9.00012C27.3422 7.64572 25.305 7.14547 22.3871 7.59145C22.3378 7.59896 22.2873 7.60865 22.2376 7.61677C21.4 7.75258 20.5219 7.95818 19.6171 8.23091C18.443 8.5848 17.2256 9.0498 15.9997 9.61099C15.9791 9.60154 15.9587 9.59306 15.9381 9.58361C15.7644 9.50461 15.5907 9.42732 15.4173 9.3522C15.3835 9.33754 15.3495 9.3224 15.3157 9.30786C15.1302 9.22826 14.9451 9.1512 14.7602 9.07621C14.696 9.05016 14.6322 9.02496 14.5681 8.99952C14.4409 8.94887 14.3139 8.89944 14.1872 8.8511C14.1163 8.82408 14.0454 8.79658 13.9748 8.77029C13.8071 8.70777 13.6398 8.64732 13.4731 8.5888C13.449 8.58032 13.4246 8.57087 13.4005 8.56251C13.3347 8.53961 13.2697 8.51889 13.204 8.4966C13.1291 8.47128 13.0544 8.44596 12.9797 8.42148C12.8861 8.39071 12.7927 8.36042 12.6995 8.33098C12.6252 8.30748 12.5512 8.28482 12.4772 8.26216C12.4094 8.24145 12.3411 8.21915 12.2736 8.19916C12.4323 7.6416 12.6062 7.12185 12.7921 6.64328C13.6936 4.32231 14.8787 2.96924 15.9997 2.96924C16.8871 2.96924 17.8148 3.81794 18.6102 5.32317H19.6834C18.6631 3.17121 17.3748 2 15.9997 2C14.4358 2 12.9837 3.51444 11.9111 6.26419C11.8628 6.38813 11.8165 6.51571 11.7701 6.64328C11.3716 7.74083 11.0497 8.96741 10.8112 10.2821C10.7955 10.3682 10.7805 10.4551 10.7656 10.5419C10.6401 11.2732 10.5398 12.0297 10.4664 12.8055C10.0447 13.1052 9.63584 13.4107 9.24184 13.7212C8.57754 14.2447 7.95505 14.7814 7.38174 15.3254C6.65541 14.5761 6.06005 13.8461 5.60306 13.1596C4.57554 11.6162 4.24672 10.2949 4.7145 9.48462C5.16883 8.69747 6.45369 8.32201 8.24546 8.42039V7.44824C6.05848 7.33387 4.52841 7.86853 3.87501 9C3.09308 10.3544 3.67862 12.3691 5.5237 14.6729C5.54926 14.7048 5.57701 14.7367 5.60293 14.7687C5.93732 15.1799 6.30382 15.5912 6.69988 16.0001C7.08721 16.4002 7.50193 16.7978 7.9422 17.1906C8.35438 17.5583 8.78835 17.9218 9.24184 18.2791C9.63584 18.5896 10.0447 18.895 10.4664 19.1947C10.5485 20.0627 10.664 20.907 10.8112 21.7183C10.898 22.1967 10.9954 22.6638 11.104 23.117C10.6462 23.2315 10.1984 23.3257 9.7616 23.4008C9.66273 23.4177 9.56326 23.4359 9.46561 23.4508C7.04238 23.8212 5.26624 23.4715 4.71438 22.5156C4.25678 21.7229 4.58329 20.4088 5.58125 18.8925H4.43742C3.48029 20.5378 3.27602 21.9628 3.87501 23.0002C4.47062 24.0318 5.79412 24.5679 7.68039 24.5679C8.27078 24.5679 8.91666 24.5153 9.61221 24.4089C9.66152 24.4014 9.71204 24.3917 9.76172 24.3836C10.5696 24.2526 11.4155 24.0561 12.2865 23.7976C12.6538 23.6885 13.0255 23.5682 13.4005 23.4379C14.2542 23.141 15.1247 22.7899 15.9997 22.3893C16.0302 22.4032 16.0606 22.4164 16.091 22.4302C16.1917 22.4759 16.2922 22.5211 16.3928 22.5654C16.4571 22.5939 16.5215 22.6218 16.5858 22.6496C16.6678 22.6851 16.7498 22.7204 16.8319 22.755C16.9121 22.7889 16.9922 22.8224 17.0722 22.8555C17.1371 22.8822 17.2019 22.9086 17.2666 22.9349C17.3607 22.9731 17.4546 23.0107 17.5485 23.0476C17.5983 23.0671 17.648 23.0864 17.6976 23.1056C17.8038 23.1467 17.9098 23.1872 18.0156 23.2267C18.052 23.2403 18.0885 23.2536 18.125 23.267C18.2415 23.31 18.3579 23.3522 18.474 23.3933C18.4993 23.4022 18.5245 23.4108 18.5497 23.4197C18.6746 23.4634 18.7994 23.5063 18.9236 23.5477C18.9405 23.5533 18.9573 23.5588 18.9743 23.5643C19.1049 23.6076 19.2352 23.6499 19.3649 23.6905C19.3777 23.6945 19.3903 23.6982 19.4031 23.7022C19.5109 23.7358 19.6187 23.7696 19.7257 23.8012C19.698 23.8981 19.6699 23.9937 19.6415 24.0882C19.6379 24.1 19.6344 24.1116 19.6308 24.1232C19.6048 24.2093 19.5783 24.2942 19.5516 24.3783C19.5482 24.3888 19.5448 24.3995 19.5415 24.4101C19.4504 24.6942 19.3553 24.9672 19.2566 25.2282C19.2546 25.2333 19.2527 25.2382 19.2507 25.2432C19.2206 25.3228 19.19 25.4012 19.1591 25.4786C19.1547 25.49 19.1501 25.5014 19.1455 25.5126C19.1158 25.5865 19.0858 25.6594 19.0556 25.7312C19.0518 25.7402 19.048 25.7493 19.0443 25.7581C18.9415 26.0007 18.8357 26.2312 18.7271 26.4492C18.7224 26.4586 18.7177 26.468 18.7129 26.4774C18.682 26.5391 18.6509 26.5997 18.6195 26.6593C18.6131 26.6715 18.6067 26.6836 18.6003 26.6957C18.5685 26.7553 18.5366 26.814 18.5045 26.8715C18.4999 26.8798 18.4955 26.8881 18.4908 26.8962C18.416 27.0295 18.3401 27.1572 18.2633 27.279C18.26 27.2842 18.2567 27.2893 18.2533 27.2945C18.2196 27.3477 18.1857 27.3995 18.1516 27.4504C18.1434 27.4626 18.1353 27.4746 18.127 27.4868C18.097 27.5311 18.0668 27.5745 18.0365 27.617C18.0277 27.6295 18.0188 27.642 18.01 27.6542C17.9779 27.6985 17.9457 27.7419 17.9133 27.7843C17.9071 27.7923 17.9011 27.8007 17.895 27.8085C17.8172 27.9093 17.7388 28.0042 17.6598 28.0931C17.6512 28.1028 17.6426 28.112 17.634 28.1215C17.6039 28.1549 17.5736 28.1876 17.5433 28.2193C17.5319 28.2311 17.5205 28.2428 17.5091 28.2544C17.4805 28.2836 17.4519 28.3119 17.4232 28.3394C17.4121 28.3502 17.4009 28.361 17.3898 28.3715C17.3576 28.4018 17.3253 28.4309 17.293 28.4591C17.2858 28.4653 17.2788 28.4719 17.2718 28.478C17.2318 28.5123 17.1918 28.5453 17.1517 28.5764C17.1461 28.5808 17.1406 28.5847 17.1351 28.5889C17.1014 28.6148 17.0676 28.6397 17.0338 28.6633C17.0217 28.6718 17.0096 28.6798 16.9975 28.688C16.9699 28.7067 16.9422 28.7247 16.9146 28.7419C16.9012 28.7503 16.8877 28.7585 16.8741 28.7665C16.8468 28.7828 16.8195 28.7981 16.7921 28.8129C16.7795 28.8197 16.7668 28.8269 16.7542 28.8334C16.7208 28.8506 16.6873 28.8666 16.6539 28.8816C16.6478 28.8844 16.6417 28.8876 16.6356 28.8902C16.596 28.9075 16.5564 28.923 16.5167 28.9372C16.5062 28.941 16.4958 28.944 16.4852 28.9475C16.4563 28.9572 16.4273 28.9664 16.3984 28.9744C16.3844 28.9783 16.3705 28.9817 16.3566 28.9851C16.3305 28.9916 16.3045 28.9974 16.2784 29.0025C16.2641 29.0053 16.2498 29.008 16.2357 29.0104C16.2085 29.0149 16.1815 29.0184 16.1545 29.0213C16.1421 29.0226 16.1296 29.0245 16.1173 29.0254C16.0782 29.0287 16.039 29.0308 16 29.0308C15.1065 29.0308 14.1723 28.1706 13.3732 26.6461H12.302C13.3244 28.8174 14.6185 30 16 30C17.564 30 19.0159 28.4856 20.0885 25.7358C20.2566 25.3051 20.4108 24.8505 20.5538 24.3787C20.5599 24.3583 20.5664 24.3382 20.5725 24.3176C20.6101 24.1923 20.6463 24.0654 20.6821 23.9376C20.692 23.9022 20.7018 23.8669 20.7115 23.8312C20.746 23.7051 20.78 23.578 20.8127 23.4495C20.8207 23.4182 20.8283 23.3866 20.8362 23.3551C21.1589 22.0671 21.3942 20.6647 21.5333 19.1943C21.9549 18.8945 22.3638 18.5891 22.7578 18.2786C23.4195 17.7572 24.0398 17.2227 24.6111 16.681C25.0135 17.0971 25.385 17.5153 25.7193 17.9329C25.774 18.001 25.8246 18.0684 25.8767 18.136C27.2892 19.9666 27.8174 21.5933 27.2852 22.5151C26.8308 23.3023 25.5456 23.6777 23.7538 23.5794V24.5504C23.9468 24.5605 24.1367 24.5674 24.3193 24.5674C26.2053 24.5674 27.5292 24.0313 28.1246 22.9999C28.9066 21.6455 28.321 19.6309 26.476 17.3271L26.4756 17.3275ZM9.24196 17.0413C8.82579 16.6954 8.43603 16.3497 8.07172 16.0061C8.44076 15.6568 8.83221 15.3107 9.24196 14.969C9.60422 14.6668 9.98016 14.368 10.371 14.0744C10.3356 14.7082 10.3169 15.3511 10.3169 16.0002C10.3169 16.6494 10.3358 17.2955 10.3713 17.9309C9.97653 17.6354 9.59937 17.3384 9.24196 17.0413ZM17.1463 10.1626C18.1051 9.75407 19.052 9.41011 19.9696 9.13703C20.1841 10.0431 20.36 11.0319 20.4869 12.0916C19.9542 11.743 19.4051 11.4042 18.8412 11.0787C18.6995 10.9969 18.5575 10.9162 18.4152 10.8368C18.2783 10.7604 18.1412 10.6852 18.0038 10.6109C18.0009 10.6093 17.998 10.6076 17.995 10.606C17.7265 10.4609 17.4571 10.3204 17.1875 10.1838C17.1738 10.1769 17.16 10.1696 17.1463 10.1626ZM11.741 10.5419C11.7564 10.4547 11.7722 10.3681 11.7883 10.2821C11.8619 9.88783 11.9429 9.50692 12.0299 9.13909C12.127 9.16804 12.2242 9.19712 12.3219 9.22765C12.3484 9.23589 12.375 9.24461 12.4016 9.25297C12.5991 9.31537 12.7976 9.3814 12.9971 9.44997C13.0873 9.48111 13.1775 9.512 13.2681 9.54435C13.35 9.57355 13.4321 9.60336 13.5143 9.63352C13.6919 9.6987 13.87 9.7657 14.0489 9.83549C14.1293 9.86687 14.2097 9.8997 14.2903 9.93193C14.4191 9.98354 14.5482 10.0365 14.6775 10.0905C14.7355 10.1148 14.7935 10.1387 14.8517 10.1635C14.2857 10.4495 13.72 10.7543 13.1584 11.0787C12.5946 11.4042 12.0455 11.743 11.5128 12.0916C11.5769 11.5565 11.6532 11.0394 11.741 10.5419ZM14.8533 21.8378C14.3651 22.0458 13.8804 22.236 13.4006 22.4097C12.9381 22.5773 12.4804 22.7293 12.03 22.8633C11.9428 22.495 11.8619 22.1131 11.7882 21.7183C11.6805 21.1417 11.5879 20.5378 11.5127 19.9087C12.0454 20.2574 12.5945 20.5962 13.1583 20.9217C13.2999 21.0035 13.4419 21.084 13.5841 21.1634C13.9926 21.3917 14.4035 21.6097 14.8155 21.8184C14.8281 21.8248 14.8407 21.8315 14.8533 21.8378ZM20.4869 19.9087C20.4003 20.633 20.2906 21.3239 20.1615 21.9782V21.9784C20.1215 22.181 20.0796 22.38 20.0359 22.5753L20.035 22.5797C20.0137 22.6752 19.9905 22.767 19.9683 22.8608C19.8703 22.8316 19.7723 22.8023 19.6738 22.7715C19.6536 22.7652 19.6333 22.7585 19.6131 22.7522C19.3686 22.6752 19.1224 22.5932 18.8749 22.5067C18.8423 22.4953 18.8099 22.484 18.7771 22.4725C18.4 22.339 18.0199 22.1943 17.6383 22.04C17.5441 22.0018 17.4498 21.963 17.3554 21.9237C17.2863 21.8948 17.2173 21.8663 17.148 21.8369C17.714 21.5509 18.2797 21.246 18.8414 20.9217C19.4052 20.5962 19.9543 20.2574 20.487 19.9087H20.4869ZM20.7069 16.6714C20.7069 16.678 20.7068 16.6847 20.7065 16.6911C20.7022 16.9127 20.6956 17.1322 20.6872 17.3494C20.687 17.3536 20.6869 17.3577 20.6867 17.3618C20.6779 17.5822 20.6673 17.8003 20.6546 18.016C20.6546 18.0164 20.6546 18.0166 20.6546 18.017C20.6417 18.2341 20.6269 18.4489 20.6102 18.6614C19.907 19.1448 19.156 19.6209 18.3565 20.0825C17.5749 20.5336 16.7866 20.9471 16.0011 21.3204C15.9674 21.3044 15.9339 21.2887 15.9002 21.2726C15.7695 21.2099 15.6387 21.1462 15.5079 21.0813C15.4674 21.0613 15.4269 21.0418 15.3866 21.0215C15.2129 20.9345 15.0391 20.8452 14.8655 20.7544C14.8194 20.7303 14.7733 20.7056 14.7272 20.6811C14.5916 20.6094 14.4562 20.5365 14.3209 20.4625C14.2705 20.4349 14.22 20.4074 14.1697 20.3795C13.9939 20.2821 13.8182 20.1836 13.6429 20.0823C12.8434 19.6207 12.0924 19.1447 11.3892 18.6613C11.3222 17.8112 11.2861 16.9226 11.2861 16.0001C11.2861 15.0776 11.3222 14.1909 11.3891 13.3416C12.1063 12.8469 12.8599 12.3699 13.6429 11.9179C14.4245 11.4667 15.2129 11.0532 15.9983 10.6799C16.0324 10.6961 16.0663 10.712 16.1003 10.7283C16.2302 10.7906 16.3601 10.8538 16.49 10.9183C16.5309 10.9386 16.572 10.9584 16.6129 10.9788C16.7863 11.0657 16.9596 11.1548 17.1328 11.2454C17.1798 11.27 17.2268 11.2952 17.2738 11.3201C17.4087 11.3915 17.5434 11.4639 17.678 11.5376C17.7285 11.5652 17.7792 11.5928 17.8297 11.6208C18.0055 11.7182 18.1812 11.8167 18.3565 11.918C19.1395 12.3702 19.8931 12.8471 20.6103 13.3417C20.6772 14.191 20.7133 15.0786 20.7133 16.0002C20.7133 16.2261 20.711 16.4497 20.7068 16.6714H20.7069ZM22.7576 17.0413C22.4002 17.3384 22.023 17.6354 21.6283 17.9309C21.6284 17.9283 21.6285 17.9256 21.6287 17.9231C21.6376 17.7633 21.6454 17.6029 21.6522 17.442C21.6559 17.3514 21.6587 17.2604 21.6618 17.1694C21.6658 17.0513 21.6694 16.933 21.6723 16.8144C21.674 16.7403 21.6758 16.6661 21.677 16.5917C21.6804 16.3951 21.6827 16.1981 21.6827 16.0002C21.6827 15.3511 21.6639 14.7082 21.6285 14.0744C22.0194 14.368 22.3953 14.6668 22.7576 14.969C23.0258 15.1926 23.2863 15.4181 23.5373 15.6453C23.6677 15.7633 23.7962 15.8815 23.9218 16.0002C23.9238 16.0022 23.9258 16.0041 23.9278 16.0061C23.5635 16.3497 23.1737 16.6954 22.7576 17.0413Z" fill="currentcolor"/>
</svg>
