<svg width="32" height="32" viewBox="0 0 32 32" fill="none" xmlns="http://www.w3.org/2000/svg">
<path d="M24.4968 23.4995L24.4958 24.504C24.4935 26.983 22.4748 28.9999 19.9958 28.9999H11.9911C9.50984 28.9999 7.49121 26.9813 7.49109 24.5V23.4999C7.49109 20.9733 8.60009 18.7018 10.3555 17.143V15.8564C8.01321 17.5888 6.49109 20.3695 6.49109 23.4999V24.5C6.49109 27.5326 8.95846 29.9999 11.9911 29.9999H19.9958C23.0257 29.9999 25.4931 27.5349 25.4958 24.505L25.4968 23.4999C25.4968 20.3576 23.9628 17.5681 21.6055 15.8371V17.1195C23.3763 18.6789 24.4968 20.9601 24.4968 23.4995Z" fill="currentcolor"/>
<path d="M25.0088 8.98888C25.0088 9.55025 24.5523 10.007 23.9912 10.007V11.007C25.1037 11.007 26.0088 10.1018 26.0088 8.98888C26.0088 7.876 25.1038 6.97075 23.9912 6.97075V7.97075C24.5522 7.97075 25.0088 8.42738 25.0088 8.98888Z" fill="currentcolor"/>
<path d="M8.00884 7.97088V6.97088C6.89634 6.97088 5.99121 7.87613 5.99121 8.989C5.99121 10.1019 6.89621 11.0071 8.00884 11.0071V10.0071C7.44784 10.0071 6.99121 9.5505 6.99121 8.989C6.99121 8.4275 7.44771 7.97088 8.00884 7.97088Z" fill="currentcolor"/>
<path d="M22.1378 6.42175C21.6626 5.0175 20.7203 3.82763 19.4961 3.037C18.4817 2.38188 17.2752 1.99988 15.9805 1.99988C13.1231 1.99988 10.6922 3.854 9.82321 6.42175C9.60221 7.07475 9.48059 7.77325 9.48059 8.49988C9.48059 9.43975 9.68271 10.3326 10.0431 11.1401C10.2426 11.5871 10.4898 12.0083 10.7805 12.3954C11.9673 13.9758 13.8565 14.9999 15.9805 14.9999C18.1045 14.9999 19.9936 13.9756 21.1805 12.3954C21.49 11.9834 21.7513 11.5333 21.957 11.0539C22.2935 10.2694 22.4805 9.40625 22.4805 8.5C22.4805 7.77338 22.3588 7.07475 22.1378 6.42175ZM19.8592 12.3954C18.864 13.3864 17.4926 13.9999 15.9806 13.9999C14.4686 13.9999 13.0972 13.3864 12.102 12.3954C11.1011 11.3989 10.4806 10.0205 10.4806 8.49988C10.4806 6.28438 11.7981 4.37213 13.69 3.5015C13.556 3.80763 13.4806 4.14488 13.4806 4.49988C13.4806 5.87838 14.6021 6.99988 15.9806 6.99988C17.0036 6.99988 17.8837 6.38175 18.2705 5.49988H17.0955C16.8207 5.80588 16.4233 5.99988 15.9806 5.99988C15.1535 5.99988 14.4806 5.327 14.4806 4.49988C14.4806 3.67275 15.1535 2.99988 15.9806 2.99988C17.3165 2.99988 18.5422 3.479 19.4962 4.27388C20.7078 5.2835 21.4806 6.803 21.4806 8.49988C21.4806 10.0205 20.8601 11.3988 19.8592 12.3954Z" fill="currentcolor"/>
</svg>
