<svg width="32" height="32" viewBox="0 0 32 32" fill="none" xmlns="http://www.w3.org/2000/svg">
<path d="M27.8091 30H29.2795C28.872 26.1255 26.7988 22.7405 23.791 20.5754V22.4348C25.9686 24.3242 27.453 26.9916 27.8091 29.9999V30Z" fill="currentcolor"/>
<path d="M8.2084 22.4681V20.6028C5.22092 22.7688 3.16304 26.1417 2.75729 29.9999H4.22765C4.58179 27.0091 6.05142 24.3554 8.20828 22.468L8.2084 22.4681Z" fill="currentcolor"/>
<path d="M27.9307 11.4977C27.9307 12.2687 27.4162 12.9209 26.7127 13.1306V14.6256C28.2279 14.3912 29.3916 13.0779 29.3916 11.4977C29.3916 9.91755 28.2279 8.6041 26.7127 8.36988V9.86483C27.4162 10.0746 27.9307 10.7267 27.9307 11.4977Z" fill="currentcolor"/>
<path d="M4.06927 11.4977C4.06927 10.7267 4.58398 10.0746 5.28727 9.86483V8.36976C3.77198 8.6041 2.6084 9.91743 2.6084 11.4977C2.6084 13.078 3.7721 14.3913 5.28727 14.6257V13.1306C4.58386 12.9209 4.06927 12.2687 4.06927 11.4977Z" fill="currentcolor"/>
<path d="M24.656 7.6C23.8548 5.82675 22.5263 4.34153 20.8693 3.34753C19.4444 2.4928 17.7788 2 15.9997 2C12.1518 2 8.83353 4.30197 7.34344 7.6C6.80596 8.78963 6.50405 10.1077 6.50405 11.4957C6.50405 12.8836 6.80584 14.2017 7.34344 15.3913C7.58558 15.9271 7.87532 16.4366 8.2084 16.9141C9.92577 19.3762 12.7769 20.9913 15.9997 20.9913C19.2225 20.9913 22.0736 19.3761 23.791 16.9141C24.1242 16.4366 24.4139 15.9272 24.656 15.3913C25.1934 14.2017 25.4954 12.8836 25.4954 11.4957C25.4954 10.1077 25.1936 8.78963 24.656 7.6ZM22.7314 15.8741C21.2962 18.073 18.8157 19.5304 15.9997 19.5304C13.1838 19.5304 10.7031 18.0731 9.26802 15.8741C8.4453 14.6135 7.96492 13.11 7.96492 11.4957C7.96492 8.2597 9.88889 5.4664 12.652 4.19435C12.4566 4.64125 12.3475 5.13405 12.3475 5.65217C12.3475 7.66598 13.9859 9.30435 15.9997 9.30435C17.6762 9.30435 19.0915 8.1684 19.5189 6.62609H17.9597C17.6002 7.34642 16.8577 7.84348 15.9996 7.84348C14.7913 7.84348 13.8083 6.86043 13.8083 5.65217C13.8083 4.44391 14.7913 3.46087 15.9996 3.46087C17.8292 3.46087 19.517 4.07675 20.8691 5.11056C22.7913 6.57995 24.0344 8.89482 24.0344 11.4957C24.0344 13.11 23.5541 14.6135 22.7313 15.8741H22.7314Z" fill="currentcolor"/>
</svg>
