<svg width="32" height="32" viewBox="0 0 32 32" fill="none" xmlns="http://www.w3.org/2000/svg">
<path d="M24.1024 23.3678L24.1014 24.3547C24.0992 26.6549 22.2261 28.5263 19.9259 28.5263H12.0616C9.75935 28.5263 7.8863 26.6533 7.88618 24.351V23.3684C7.88618 21.0383 8.87551 18.9361 10.4547 17.4558V15.5578C8.01119 17.2959 6.41249 20.1481 6.41249 23.3684V24.351C6.41249 27.4659 8.94686 30 12.0616 30H19.9259C23.038 30 25.5722 27.4682 25.5751 24.3562L25.576 23.3684C25.576 20.1364 23.9659 17.2751 21.5073 15.5389V17.4306C23.1018 18.912 24.1021 21.0249 24.1024 23.3678Z" fill="currentcolor"/>
<path d="M24.6054 9.112C24.6054 9.52807 24.267 9.86665 23.8512 9.86665V11.3403C25.0797 11.3403 26.0791 10.3407 26.0791 9.112C26.0791 7.88332 25.0797 6.88367 23.8512 6.88367V8.35735C24.267 8.35735 24.6054 8.69593 24.6054 9.112Z" fill="currentcolor"/>
<path d="M5.92139 9.112C5.92139 10.3407 6.92079 11.3403 8.14923 11.3403V9.86665C7.7334 9.86665 7.39507 9.52807 7.39507 9.112C7.39507 8.69593 7.7334 8.35735 8.14923 8.35735V6.88367C6.92079 6.88367 5.92139 7.88332 5.92139 9.112Z" fill="currentcolor"/>
<path d="M22.2896 6.58991C21.7971 5.07202 20.7722 3.79212 19.4349 2.97288C18.4283 2.35626 17.2455 2 15.981 2C13.0367 2 10.5356 3.92942 9.67253 6.58991C9.46375 7.23354 9.34954 7.9193 9.34954 8.63158C9.34954 9.77172 9.63888 10.8455 10.1478 11.7837C10.2749 12.0179 10.417 12.2426 10.5704 12.4587C11.7729 14.1538 13.7492 15.2632 15.981 15.2632C18.2128 15.2632 20.1892 14.1537 21.3916 12.4587C21.5611 12.2199 21.7154 11.9696 21.8526 11.7088C22.337 10.7884 22.6126 9.74188 22.6126 8.63158C22.6126 7.9193 22.4984 7.23354 22.2896 6.58991ZM19.4348 12.4587C18.5198 13.2854 17.3083 13.7895 15.981 13.7895C14.6537 13.7895 13.4422 13.2854 12.5272 12.4587C11.4815 11.5142 10.8231 10.1485 10.8231 8.63158C10.8231 6.75853 11.8268 5.11586 13.3246 4.21225C13.2953 4.37116 13.2792 4.53461 13.2792 4.70175C13.2792 6.19153 14.4912 7.40351 15.981 7.40351C17.1242 7.40351 18.1031 6.68951 18.4971 5.68421H16.7147C16.5097 5.83772 16.2562 5.92982 15.981 5.92982C15.3038 5.92982 14.7529 5.37891 14.7529 4.70175C14.7529 4.0246 15.3038 3.47368 15.981 3.47368C17.3083 3.47368 18.5199 3.97781 19.4349 4.80442C20.4806 5.74905 21.1389 7.11467 21.1389 8.63158C21.1389 10.1485 20.4805 11.5141 19.4348 12.4587Z" fill="currentcolor"/>
</svg>
