<svg width="32" height="32" viewBox="0 0 32 32" fill="none" xmlns="http://www.w3.org/2000/svg">
<path d="M5.24234 17.9001C4.37877 18.3986 3.76101 19.2039 3.50283 20.1671C3.24476 21.1304 3.37718 22.1364 3.87581 23C4.90505 24.7828 7.19301 25.3958 8.97568 24.3665C9.76564 23.9104 10.3582 23.1805 10.6468 22.324L11.4075 21.8848C11.9543 22.3113 12.5596 22.6614 13.2002 22.9215V23.7981C12.6026 24.4763 12.2669 25.3544 12.2669 26.2667C12.2669 28.3252 13.9416 30 16.0002 30C18.0588 30 19.7336 28.3252 19.7336 26.2667C19.7336 25.355 19.3981 24.4772 18.8012 23.7991V22.9213C19.4413 22.6613 20.0463 22.3113 20.5928 21.8849L21.3535 22.3241C21.6421 23.1807 22.2347 23.9106 23.0247 24.3667C24.8077 25.396 27.0953 24.7828 28.1246 23.0001C28.6233 22.1365 28.7557 21.1305 28.4976 20.1672C28.2395 19.204 27.6218 18.3989 26.7581 17.9003C25.9686 17.4444 25.0408 17.296 24.155 17.474L23.3943 17.0348C23.4426 16.6911 23.4669 16.345 23.4669 16.0001C23.4669 15.6551 23.4425 15.3083 23.3942 14.9643L24.1536 14.5259C25.0397 14.7044 25.9683 14.5561 26.7582 14.0999C28.541 13.0707 29.154 10.7828 28.1247 9.00003C27.6261 8.13646 26.8211 7.51871 25.8578 7.26064C24.8948 7.00234 23.8885 7.13499 23.0249 7.63362C22.2353 8.08944 21.6429 8.81885 21.3542 9.67472L20.5922 10.1147C20.0459 9.68848 19.4411 9.33871 18.8013 9.07878V8.20086C19.3981 7.52279 19.7337 6.6451 19.7337 5.73335C19.7337 3.67476 18.0589 2 16.0003 2C13.9417 2 12.267 3.67476 12.267 5.73335C12.267 6.64557 12.6028 7.52384 13.2003 8.20203V9.07855C12.5602 9.33848 11.9551 9.68837 11.4084 10.1148L10.6465 9.67483C10.3577 8.81896 9.76529 8.08956 8.9758 7.63374C8.11212 7.13499 7.10586 7.00234 6.14277 7.26076C5.17957 7.51882 4.37445 8.13658 3.87581 9.00015C2.84658 10.7829 3.45955 13.0708 5.24222 14.1C6.03217 14.5563 6.96061 14.7046 7.84681 14.526L8.6062 14.9644C8.5579 15.3085 8.53352 15.6548 8.53352 16.0002C8.53352 16.3455 8.55778 16.6912 8.60608 17.0349L7.84541 17.4741C6.95944 17.2963 6.03171 17.4445 5.24234 17.9003V17.9001ZM10.7133 17.9736L10.5529 17.2974C10.4515 16.8699 10.4001 16.4335 10.4001 15.9999C10.4001 15.5664 10.4515 15.1294 10.553 14.7018L10.7136 14.0255L8.08785 12.5096L7.69153 12.6396C7.18683 12.8051 6.63441 12.7482 6.17556 12.4832C5.2841 11.9685 4.97762 10.8246 5.49224 9.93325C5.74155 9.50146 6.14406 9.19253 6.62566 9.0635C7.10738 8.93458 7.61033 9.00085 8.04211 9.25005C8.50073 9.515 8.82635 9.96463 8.93544 10.4839L9.02107 10.8919L11.6492 12.4093L12.1547 11.9313C12.7907 11.33 13.5669 10.8812 14.3995 10.6334L15.0666 10.4348V7.40274L14.7558 7.12449C14.3602 6.77029 14.1333 6.26313 14.1333 5.73323C14.1333 4.70399 14.9707 3.86656 16 3.86656C17.0292 3.86656 17.8667 4.70399 17.8667 5.73323C17.8667 6.26278 17.64 6.7697 17.2448 7.12379L16.9343 7.40204V10.4349L17.6011 10.6335C18.4334 10.8814 19.2094 11.3302 19.8452 11.9314L20.3507 12.4093L22.9789 10.8919L23.0645 10.4839C23.1736 9.96463 23.4992 9.51488 23.9578 9.25005C24.3896 9.00073 24.8925 8.93446 25.3743 9.0635C25.8559 9.19253 26.2585 9.50146 26.5077 9.93325C27.0223 10.8247 26.7159 11.9685 25.8245 12.4832C25.3657 12.7481 24.8131 12.8051 24.3084 12.6396L23.9121 12.5096L21.2864 14.0255L21.4469 14.7018C21.5484 15.1294 21.5999 15.5662 21.5999 15.9999C21.5999 16.4337 21.5486 16.8699 21.4471 17.2974L21.2866 17.9736L23.9129 19.4898L24.3091 19.3601C24.8135 19.1946 25.3657 19.252 25.8244 19.5168C26.2562 19.7662 26.5651 20.1687 26.6942 20.6503C26.8232 21.1319 26.7569 21.6348 26.5076 22.0668C25.993 22.9581 24.849 23.2645 23.9577 22.7501C23.4989 22.4851 23.1731 22.035 23.0643 21.5153L22.9787 21.107L20.3512 19.59L19.8457 20.0682C19.2098 20.6695 18.4337 21.1186 17.601 21.3666L16.9341 21.5652V24.598L17.2446 24.8762C17.6399 25.2304 17.8665 25.7372 17.8665 26.2668C17.8665 27.296 17.0291 28.1334 15.9999 28.1334C14.9706 28.1334 14.1332 27.296 14.1332 26.2668C14.1332 25.7369 14.3601 25.2298 14.7557 24.8756L15.0665 24.5974V21.5654L14.3995 21.3669C13.5664 21.1187 12.79 20.6697 12.1539 20.0681L11.6484 19.59L9.02095 21.107L8.93532 21.5153C8.82635 22.035 8.50073 22.485 8.04188 22.75C7.15031 23.2646 6.00662 22.9581 5.492 22.0668C5.24269 21.635 5.17642 21.1319 5.30545 20.6503C5.43449 20.1687 5.74342 19.7662 6.17521 19.5168C6.63383 19.2522 7.18601 19.1948 7.69036 19.3601L8.08657 19.4898L10.7129 17.9736H10.7133Z" fill="currentcolor"/>
<path d="M16.0252 19.7744C18.0838 19.7744 19.7585 18.0996 19.7585 16.041C19.7585 13.9824 18.0838 12.3077 16.0252 12.3077C13.9666 12.3077 12.2918 13.9824 12.2918 16.041C12.2918 18.0996 13.9666 19.7744 16.0252 19.7744ZM16.0252 14.1743C17.0544 14.1743 17.8919 15.0118 17.8919 16.041C17.8919 17.0702 17.0544 17.9077 16.0252 17.9077C14.9959 17.9077 14.1585 17.0702 14.1585 16.041C14.1585 15.0118 14.9959 14.1743 16.0252 14.1743Z" fill="currentcolor"/>
</svg>
