<svg width="32" height="32" viewBox="0 0 32 32" fill="none" xmlns="http://www.w3.org/2000/svg">
<path d="M5.11997 12.5554C4.12263 11.5486 3.57716 10.2135 3.58385 8.79643C3.59068 7.37918 4.14891 6.04948 5.15572 5.05215C6.15647 4.06074 7.48112 3.5159 8.88876 3.5159C8.89735 3.5159 8.90607 3.5159 8.91466 3.5159C10.3318 3.5226 11.6616 4.08083 12.6589 5.08764L15.4997 7.95561L16.5767 6.88866L13.736 4.02083C12.4538 2.72637 10.7441 2.00859 8.92198 2C8.91087 2 8.89975 2 8.88863 2C7.07902 2 5.37553 2.70073 4.0889 3.97522C2.79432 5.25742 2.07667 6.96711 2.06795 8.7891C2.05923 10.6112 2.76059 12.3276 4.04292 13.6222L6.88486 16.4913L7.96178 15.4243L5.11997 12.5554Z" fill="currentcolor"/>
<path d="M17.9986 8.32534L16.9217 9.39227L22.6155 15.139L23.6924 14.072L17.9986 8.32534Z" fill="currentcolor"/>
<path d="M9.3837 16.8608L8.30685 17.9278L14.0006 23.6745L15.0775 22.6075L9.3837 16.8608Z" fill="currentcolor"/>
<path d="M23.1136 30C24.8493 30 26.5862 29.3432 27.914 28.0282C30.5863 25.381 30.6069 21.0534 27.9598 18.3811L25.1144 15.5085L24.0374 16.5754L26.8828 19.4479C28.9416 21.5264 28.9256 24.8924 26.847 26.9511C24.7685 29.0099 21.4025 28.9939 19.3438 26.9154L16.4996 24.0439L15.4227 25.1108L18.2668 27.9822C19.5986 29.3268 21.3555 30 23.1136 30Z" fill="currentcolor"/>
<path d="M22.6142 15.4965L15.4345 22.608L16.5013 23.685L23.681 16.5735L22.6142 15.4965Z" fill="currentcolor"/>
<path d="M15.5017 8.31791L8.3221 15.4295L9.38889 16.5065L16.5685 9.39492L15.5017 8.31791Z" fill="currentcolor"/>
<path d="M8.42186 10.1907C7.7253 10.1907 7.15861 10.7574 7.15861 11.4539C7.15861 12.1505 7.7253 12.7172 8.42186 12.7172C9.11842 12.7172 9.68511 12.1505 9.68511 11.4539C9.68511 10.7574 9.11842 10.1907 8.42186 10.1907Z" fill="currentcolor"/>
<path d="M11.4537 7.15887C10.7571 7.15887 10.1904 7.72557 10.1904 8.42213C10.1904 9.11868 10.7571 9.68538 11.4537 9.68538C12.1502 9.68538 12.7169 9.11868 12.7169 8.42213C12.7169 7.72557 12.1502 7.15887 11.4537 7.15887Z" fill="currentcolor"/>
<path d="M8.67451 7.41152C8.67451 6.71497 8.10782 6.14827 7.41126 6.14827C6.7147 6.14827 6.14801 6.71497 6.14801 7.41152C6.14801 8.10808 6.7147 8.67478 7.41126 8.67478C8.10782 8.67478 8.67451 8.10808 8.67451 7.41152Z" fill="currentcolor"/>
<path d="M22.3176 20.5494C22.3176 21.2459 22.8843 21.8126 23.5809 21.8126C24.2775 21.8126 24.8441 21.2459 24.8441 20.5494C24.8441 19.8528 24.2775 19.2861 23.5809 19.2861C22.8843 19.2861 22.3176 19.8528 22.3176 20.5494Z" fill="currentcolor"/>
<path d="M20.5491 22.3179C19.8525 22.3179 19.2858 22.8846 19.2858 23.5812C19.2858 24.2777 19.8525 24.8444 20.5491 24.8444C21.2456 24.8444 21.8123 24.2777 21.8123 23.5812C21.8123 22.8846 21.2456 22.3179 20.5491 22.3179Z" fill="currentcolor"/>
<path d="M23.3282 24.5918C23.3282 25.2883 23.8949 25.855 24.5915 25.855C25.2881 25.855 25.8547 25.2883 25.8547 24.5918C25.8547 23.8952 25.2881 23.3285 24.5915 23.3285C23.8949 23.3285 23.3282 23.8952 23.3282 24.5918Z" fill="currentcolor"/>
</svg>
