<svg width="32" height="32" viewBox="0 0 32 32" fill="none" xmlns="http://www.w3.org/2000/svg">
<path d="M9.07977 17.0577L8.34868 17.782L14.1471 23.6343L14.8782 22.91L9.07977 17.0577Z" fill="currentcolor"/>
<path d="M17.8528 8.3651L17.1217 9.08946L22.9201 14.9418L23.6512 14.2174L17.8528 8.3651Z" fill="currentcolor"/>
<path d="M6.9006 16.3192L7.63169 15.5948L4.73754 12.673C3.6735 11.5988 3.09151 10.1747 3.09871 8.66272C3.10592 7.15074 3.70155 5.73216 4.77575 4.66812C5.84338 3.61052 7.25669 3.02917 8.75838 3.02917C8.76751 3.02917 8.7769 3.02917 8.78604 3.02917C10.298 3.03637 11.7166 3.63188 12.7806 4.70595L15.6736 7.6266L16.4046 6.90233L13.5117 3.9818C12.2542 2.71231 10.5777 2.00836 8.7908 2C8.77999 2 8.76906 2 8.75812 2C6.98345 2 5.31297 2.68723 4.05121 3.93703C2.78173 5.19442 2.0779 6.87106 2.06941 8.65783C2.06092 10.4447 2.74879 12.1279 4.00631 13.3973L6.9006 16.3192Z" fill="currentcolor"/>
<path d="M27.266 19.3301C29.4625 21.5474 29.4453 25.1385 27.2279 27.3351C25.0104 29.5315 21.4194 29.5145 19.2229 27.2969L16.3264 24.3728L15.5953 25.0972L18.4918 28.0213C19.7979 29.3399 21.5209 30 23.2447 30C24.947 30 26.6501 29.3559 27.9522 28.0663C30.5728 25.4704 30.593 21.2264 27.9972 18.6059L25.0994 15.6805L24.3683 16.4048L27.266 19.3301Z" fill="currentcolor"/>
<path d="M22.9172 15.67L15.6056 22.9122L16.3299 23.6434L23.6414 16.4011L22.9172 15.67Z" fill="currentcolor"/>
<path d="M15.6741 8.3595L8.3625 15.6017L9.08676 16.3329L16.3983 9.0907L15.6741 8.3595Z" fill="currentcolor"/>
<path d="M8.28303 12.3995C8.85143 12.3995 9.3122 11.9387 9.3122 11.3703C9.3122 10.8019 8.85143 10.3412 8.28303 10.3412C7.71464 10.3412 7.25386 10.8019 7.25386 11.3703C7.25386 11.9387 7.71464 12.3995 8.28303 12.3995Z" fill="currentcolor"/>
<path d="M11.3705 9.312C11.9389 9.312 12.3997 8.85122 12.3997 8.28283C12.3997 7.71443 11.9389 7.25366 11.3705 7.25366C10.8021 7.25366 10.3414 7.71443 10.3414 8.28283C10.3414 8.85122 10.8021 9.312 11.3705 9.312Z" fill="currentcolor"/>
<path d="M7.25386 8.28283C7.82226 8.28283 8.28303 7.82205 8.28303 7.25366C8.28303 6.68526 7.82226 6.22449 7.25386 6.22449C6.68546 6.22449 6.22469 6.68526 6.22469 7.25366C6.22469 7.82205 6.68546 8.28283 7.25386 8.28283Z" fill="currentcolor"/>
<path d="M23.7206 21.662C24.289 21.662 24.7498 21.2013 24.7498 20.6329C24.7498 20.0645 24.289 19.6037 23.7206 19.6037C23.1522 19.6037 22.6914 20.0645 22.6914 20.6329C22.6914 21.2013 23.1522 21.662 23.7206 21.662Z" fill="currentcolor"/>
<path d="M20.6331 24.7496C21.2015 24.7496 21.6622 24.2888 21.6622 23.7204C21.6622 23.152 21.2015 22.6912 20.6331 22.6912C20.0647 22.6912 19.6039 23.152 19.6039 23.7204C19.6039 24.2888 20.0647 24.7496 20.6331 24.7496Z" fill="currentcolor"/>
<path d="M24.7498 25.7787C25.3182 25.7787 25.7789 25.318 25.7789 24.7496C25.7789 24.1812 25.3182 23.7204 24.7498 23.7204C24.1814 23.7204 23.7206 24.1812 23.7206 24.7496C23.7206 25.318 24.1814 25.7787 24.7498 25.7787Z" fill="currentcolor"/>
</svg>
