<svg width="32" height="32" viewBox="0 0 32 32" fill="none" xmlns="http://www.w3.org/2000/svg">
<path d="M21.7808 4.99988H20V3.99988H27V16.9999H29V1.99988H18V4.99988H16.2192L14.7192 10.9999H23.2808L21.7808 4.99988ZM17.2808 8.99988L17.7808 6.99988H20.2192L20.7192 8.99988H17.2808Z" fill="currentcolor"/>
<path d="M27 23.9999C27 25.1026 26.1028 25.9999 25 25.9999H7C5.89725 25.9999 5 25.1026 5 23.9999V21.9999H3V23.9999C3 26.2055 4.79437 27.9999 7 27.9999H8V29.9999H10V27.9999H22V29.9999H24V27.9999H25C27.2056 27.9999 29 26.2055 29 23.9999V21.9999H27V23.9999Z" fill="currentcolor"/>
<path d="M2.5 17.9999V19.9999H29.5V17.9999H2.5Z" fill="currentcolor"/>
<path d="M20 11.9999H18V13.9999H20V11.9999Z" fill="currentcolor"/>
<path d="M20 14.9999H18V16.9999H20V14.9999Z" fill="currentcolor"/>
<path d="M16 14.9999H14V16.9999H16V14.9999Z" fill="currentcolor"/>
<path d="M24 14.9999H22V16.9999H24V14.9999Z" fill="currentcolor"/>
</svg>
