<svg width="32" height="32" viewBox="0 0 32 32" fill="none" xmlns="http://www.w3.org/2000/svg">
<path d="M25.3444 12.357H18.0852V13.394H25.3444C27.3458 13.394 28.974 15.0223 28.974 17.0236V28.9628H3.0258V17.0236C3.0258 15.3743 4.1318 13.9795 5.64081 13.5394V12.4695C3.55404 12.9341 1.98877 14.7991 1.98877 17.0237V30H30.0111V17.0237C30.0111 14.4505 27.9177 12.357 25.3444 12.357Z" fill="currentcolor"/>
<path d="M26.9 5.62961C26.9 3.62827 25.2717 2 23.2704 2C21.269 2 19.6407 3.62827 19.6407 5.62961C19.6407 7.63096 21.269 9.25923 23.2704 9.25923C25.2717 9.25923 26.9 7.63096 26.9 5.62961ZM20.6778 5.62961C20.6778 4.20006 21.8408 3.03703 23.2704 3.03703C24.6999 3.03703 25.8629 4.20006 25.8629 5.62961C25.8629 7.05916 24.6999 8.22219 23.2704 8.22219C21.8408 8.22219 20.6778 7.05916 20.6778 5.62961Z" fill="currentcolor"/>
<path d="M20.6744 21.7036H20.6767C22.3916 21.7036 23.7867 20.3085 23.7867 18.5913C23.7867 16.8742 22.3916 15.4814 20.6744 15.4814C18.9572 15.4814 17.5645 16.8765 17.5645 18.5937C17.5645 20.3109 18.9595 21.7036 20.6744 21.7036ZM20.6767 16.5185C21.8197 16.5185 22.7496 17.4484 22.7496 18.5937C22.7496 19.739 21.8197 20.6666 20.6767 20.6666H20.6744C19.5315 20.6666 18.6015 19.7366 18.6015 18.5913C18.6015 17.4461 19.5315 16.5185 20.6767 16.5185Z" fill="currentcolor"/>
<path d="M7.19636 12.8905C7.19636 13.6346 7.37239 14.3381 7.68363 14.9629C8.44818 16.4978 10.0332 17.5555 11.8613 17.5555H11.8646C13.6922 17.5555 15.2769 16.4985 16.0417 14.9629C16.3533 14.3373 16.5296 13.6328 16.5296 12.8872C16.5296 12.1415 16.3536 11.4396 16.0422 10.8148C15.2774 9.27984 13.6918 8.22219 11.8613 8.22219C10.0308 8.22219 8.44896 9.27919 7.68415 10.8148C7.37252 11.4404 7.19636 12.1449 7.19636 12.8905ZM11.8647 9.25923C13.0947 9.25923 14.183 9.87509 14.8394 10.8148C15.2506 11.4034 15.4927 12.1187 15.4927 12.8905C15.4927 13.6623 15.2509 14.3749 14.8399 14.9629C14.1836 15.9023 13.0951 16.5185 11.8647 16.5185H11.8614C10.6314 16.5185 9.54316 15.9026 8.88672 14.9629C8.47554 14.3743 8.23339 13.659 8.23339 12.8872C8.23339 12.1153 8.47528 11.4028 8.88633 10.8148C9.5429 9.87535 10.6323 9.25923 11.8647 9.25923Z" fill="currentcolor"/>
</svg>
