<svg width="32" height="32" viewBox="0 0 32 32" fill="none" xmlns="http://www.w3.org/2000/svg">
<path d="M2.5 2.00024V12.0002C2.5 13.9301 4.07012 15.5002 6 15.5002H7.5145C7.50488 15.6667 7.5 15.8337 7.5 16.0002C7.5 19.5264 9.71525 22.6507 13.0451 23.8719L13.8623 30.0002H14.871L13.9539 23.1224L13.6547 23.025C10.5232 22.0044 8.49988 19.247 8.49988 16.0004C8.49988 15.6865 8.51937 15.3709 8.55787 15.0622L8.62813 14.5004H6C4.6215 14.5004 3.5 13.3789 3.5 12.0004V2.00024H2.5Z" fill="currentcolor"/>
<path d="M18.9549 23.8721C22.27 22.6619 24.4348 19.6671 24.4987 16.1587C24.5027 15.9394 24.4984 15.7192 24.4858 15.5002H26C27.9299 15.5002 29.5 13.9301 29.5 12.0002V2.00024H28.5V12.0002C28.5 13.3787 27.3785 14.5002 26 14.5002H23.374L23.443 15.0611C23.4867 15.4162 23.5053 15.7794 23.4988 16.1405C23.4408 19.3211 21.4179 22.0234 18.3452 23.0249L18.046 23.1222L17.1289 30.0001H18.1377L18.9548 23.872L18.9549 23.8721Z" fill="currentcolor"/>
<path d="M5.5 2.00024V11.7502C5.5 12.1639 5.83638 12.5002 6.25 12.5002H9.3585L9.50288 12.2506C10.9465 9.75462 13.6329 8.32337 16.5184 8.51774C19.0268 8.68599 21.2661 10.0809 22.5085 12.2489L22.6525 12.5004H25.7499C26.1635 12.5004 26.4999 12.164 26.4999 11.7504V2.00024H25.4999V11.5002H23.2263C21.7914 9.18499 19.3304 7.70412 16.5853 7.51987C13.4158 7.30687 10.4548 8.82662 8.78713 11.5002H6.49988V2.00024H5.5Z" fill="currentcolor"/>
</svg>
