<svg width="32" height="32" viewBox="0 0 32 32" fill="none" xmlns="http://www.w3.org/2000/svg">
<path d="M22.9561 14.674H21.4938V19.5486H22.9561V14.674Z" fill="currentcolor"/>
<path d="M28.0745 19.7923H23.1999V21.2547H28.0745V19.7923Z" fill="currentcolor"/>
<path d="M22.9561 21.4984H21.4938V26.373H22.9561V21.4984Z" fill="currentcolor"/>
<path d="M21.25 19.7923H16.3754V21.2547H21.25V19.7923Z" fill="currentcolor"/>
<path d="M14.4467 30V28.5376C11.0459 28.5376 8.05836 26.7043 6.45522 23.6335C4.83027 20.521 5.03829 16.9699 7.01166 14.1329L14.4514 3.90317L20.9712 12.7241H22.7897L14.8632 2H14.0273L5.82445 13.2789L5.81592 13.2911C3.5558 16.5352 3.30403 20.7576 5.15882 24.3104C7.01885 27.8731 10.4909 30 14.4467 30Z" fill="currentcolor"/>
</svg>
