<svg width="157" height="57" viewBox="0 0 157 57" fill="none" xmlns="http://www.w3.org/2000/svg">
<g id="Brandex [REPLACE WITH SVG]">
<path id="Vector" d="M5.6924 0.577148H16.8462C18.7832 0.577148 20.4832 0.849626 21.9581 1.38273C23.4686 1.88622 24.5881 2.68589 25.4411 3.72841C26.2941 4.72354 26.6791 5.99115 26.6791 7.48978C26.6791 8.52638 26.4481 9.48597 25.9801 10.3271C25.5181 11.2097 24.8191 11.9383 23.8891 12.5898C23.0006 13.2059 21.8752 13.662 20.5957 13.97C21.5612 14.201 22.3787 14.5446 23.0717 15.0066C23.7707 15.4686 24.3512 16.0432 24.7777 16.7718C25.1627 17.5004 25.3582 18.3474 25.3582 19.307C25.3582 21.1077 24.8547 22.6063 23.8121 23.7969C22.7282 24.9876 21.2591 25.8701 19.3577 26.4447C17.4622 27.0608 15.2173 27.3273 12.6228 27.3273H0L5.6924 0.577148ZM15.6793 20.6516C16.1828 20.4621 16.5678 20.2311 16.8047 19.8816C17.0772 19.5736 17.1898 19.153 17.1898 18.6554C17.1898 18.2349 17.1128 17.8854 16.8817 17.5833C16.6507 17.3167 16.3368 17.1213 15.9162 17.0087C15.4897 16.8547 14.9862 16.8192 14.3702 16.8192H10.1113L9.2583 20.8885H13.7483C14.5242 20.8885 15.1403 20.8115 15.6852 20.6575L15.6793 20.6516ZM17.2668 10.6351C17.7288 10.4811 18.0427 10.2501 18.2737 9.94207C18.4692 9.63406 18.5818 9.21349 18.5818 8.75147C18.5818 8.21243 18.3863 7.79187 17.9598 7.48385C17.5333 7.2173 16.9173 7.06329 16.1413 7.06329H12.2319L11.3789 10.8602H15.5964C16.2539 10.8602 16.7988 10.7832 17.2608 10.6292L17.2668 10.6351Z" fill="#5A21B0"/>
<path id="Vector_2" d="M29.854 8.40792H37.2879L37.0569 9.40306C36.9029 10.1316 36.6719 10.8602 36.3994 11.5533C37.1339 10.3271 38.0283 9.36752 38.9938 8.71594C39.9594 8.06437 41.1263 7.75635 42.3998 7.75635C42.9803 7.75635 43.4838 7.79189 43.9103 7.91036L42.3228 15.2021C41.7423 15.0481 41.1618 15.0125 40.6169 15.0125C39.6869 15.0125 38.8754 15.1665 38.1409 15.5516C37.4064 15.8951 36.7489 16.4697 36.2039 17.2397C35.6234 18.0453 35.2384 19.0819 34.9245 20.3495L33.414 27.3332H25.7491L29.854 8.41385V8.40792Z" fill="#5A21B0"/>
<path id="Vector_3" d="M44.4908 27.3273C43.6378 26.8653 42.9448 26.1782 42.3998 25.2956C41.8608 24.3775 41.6238 23.3764 41.6238 22.2273C41.6238 20.2725 42.2458 18.7739 43.4838 17.6958C44.7218 16.6237 46.5403 15.9662 48.9807 15.7767L52.8132 15.4331C53.5892 15.3561 54.1282 15.2021 54.4362 15.0125C54.7442 14.7815 54.8982 14.515 54.8982 14.1299C54.8982 13.7449 54.7442 13.4369 54.4777 13.2118C54.1696 13.0223 53.7787 12.9038 53.2752 12.9038C52.7362 12.9038 52.3097 13.0163 51.9602 13.2474C51.6107 13.4784 51.3797 13.7864 51.2257 14.207H43.5193C43.7504 13.0163 44.2538 11.9027 45.0298 10.9431C45.8413 9.94209 46.9253 9.17797 48.3588 8.6034C49.7922 8.02883 51.4982 7.75635 53.4292 7.75635C55.5616 7.75635 57.2972 8.09991 58.6596 8.86995C60.0101 9.63999 60.9401 10.6766 61.4495 12.0153C61.953 13.3184 61.9886 14.8526 61.6035 16.6178L59.2816 27.3273H52.1557L52.2327 26.9423C52.2741 26.7528 52.3156 26.5573 52.3512 26.4033C52.3926 26.2493 52.4282 26.1367 52.4696 25.9827C52.5466 25.8287 52.5822 25.7162 52.6236 25.6391C52.6592 25.5621 52.7006 25.4496 52.7362 25.2956C52.1142 26.2196 51.3027 26.9068 50.4142 27.3688C49.4842 27.8308 48.4417 28.0618 47.3162 28.0618C46.3093 28.0618 45.3793 27.8308 44.4908 27.3332V27.3273ZM52.1201 22.5708C52.4696 22.3813 52.7836 22.0733 53.0146 21.6882C53.2456 21.3447 53.4351 20.8826 53.5536 20.3081L53.8202 19.0405C53.7076 19.1945 53.5536 19.2715 53.3581 19.3485C53.1271 19.384 52.8191 19.461 52.4282 19.538L50.9177 19.8046C50.3787 19.9171 49.9522 20.0711 49.6382 20.3436C49.3302 20.5746 49.1762 20.9182 49.1762 21.3387C49.1762 21.8008 49.3302 22.1858 49.6382 22.4524C49.9462 22.7189 50.3372 22.8729 50.8407 22.8729C51.3027 22.8729 51.7292 22.7604 52.1201 22.5649V22.5708Z" fill="#5A21B0"/>
<path id="Vector_4" d="M65.75 8.4081H73.1839L73.0713 8.87013C72.9943 9.05968 72.9529 9.21369 72.9173 9.3677C72.8759 9.52171 72.7989 9.67572 72.7633 9.82972C72.7218 9.98373 72.6448 10.1377 72.5678 10.2918C72.9529 9.82972 73.4208 9.40916 73.9598 9.02414C74.4989 8.68058 75.1978 8.3311 75.9383 8.10601C76.7142 7.875 77.5613 7.76245 78.4913 7.76245C79.8063 7.76245 80.9317 8.10601 81.8617 8.83459C82.7917 9.60463 83.4077 10.6353 83.7572 11.9444C84.1067 13.289 84.1067 14.7817 83.7572 16.4758L81.3997 27.3394H73.7703L76.0923 16.4403C76.3233 15.4807 76.2818 14.7876 75.9738 14.2901C75.6658 13.828 75.1978 13.597 74.5463 13.597C74.0428 13.597 73.6163 13.7096 73.2313 13.905C72.8462 14.136 72.4908 14.4441 72.2243 14.9061C71.9518 15.3267 71.7623 15.8657 71.6438 16.5173L69.3218 27.3394H61.6924L65.7618 8.41995L65.75 8.4081Z" fill="#5A21B0"/>
<path id="Vector_5" d="M88.4367 27.0609C87.3942 26.4094 86.5353 25.4498 85.9607 24.1466C85.3388 22.879 85.0308 21.3448 85.0308 19.5797C85.0308 17.4709 85.4158 15.5103 86.1503 13.7095C86.9263 11.9088 88.0162 10.4457 89.4082 9.37361C90.8357 8.30147 92.5417 7.76244 94.4431 7.76244C95.296 7.76244 96.0661 7.87498 96.8065 8.14746C97.541 8.37847 98.1985 8.72203 98.779 9.18406C99.3595 9.64608 99.8275 10.1437 100.135 10.7182C100.135 10.1022 100.248 9.18406 100.52 8.07045L102.067 0.583252H109.696L103.962 27.3334H96.4511L96.5281 26.9899C96.6466 26.5278 96.8361 25.9533 97.1086 25.3017C96.5696 26.1073 95.8292 26.8003 94.8992 27.2979C93.9277 27.8369 92.9622 28.0679 91.9908 28.0679C90.6758 28.0679 89.4792 27.7599 88.4308 27.0728L88.4367 27.0609ZM97.1145 21.4574C97.695 20.9184 98.1215 20.2312 98.3881 19.3842C98.6961 18.5016 98.8501 17.6545 98.8501 16.772C98.8501 16.0789 98.7375 15.4688 98.5421 15.0068C98.3525 14.5092 98.08 14.1597 97.6891 13.8932C97.3455 13.6266 96.8776 13.5082 96.3741 13.5082C95.5981 13.5082 94.9406 13.7747 94.3957 14.3137C93.8567 14.8883 93.4657 15.5813 93.1577 16.3869C92.8911 17.234 92.7371 18.0751 92.7371 18.9222C92.7371 19.6152 92.8497 20.2253 93.0451 20.7229C93.2347 21.2204 93.5072 21.5699 93.8981 21.8365C94.2417 22.103 94.7096 22.257 95.2131 22.257C95.9535 22.257 96.5696 21.9905 97.1145 21.4515V21.4574Z" fill="#5A21B0"/>
<path id="Vector_6" d="M112.29 26.9424C110.898 26.2138 109.779 25.1357 109.038 23.7556C108.262 22.3754 107.877 20.7228 107.877 18.8036C107.877 16.6949 108.339 14.8112 109.311 13.123C110.241 11.4349 111.591 10.1317 113.297 9.17211C115.045 8.21252 117.017 7.75049 119.262 7.75049C121.389 7.75049 123.172 8.21252 124.682 9.17211C126.151 10.1317 127.2 11.4349 127.78 13.123C128.402 14.8112 128.444 16.6534 127.976 18.691L127.78 19.5381H115.122C115.045 20.0771 115.086 20.5747 115.24 21.0367C115.43 21.4987 115.661 21.8423 116.052 22.1089C116.401 22.3754 116.828 22.5294 117.367 22.5294C117.906 22.5294 118.374 22.4169 118.759 22.1859C119.144 21.9548 119.422 21.6113 119.576 21.1848H127.318C127.01 22.5294 126.388 23.72 125.535 24.7566C124.647 25.7932 123.521 26.5988 122.129 27.1734C120.737 27.7894 119.144 28.056 117.331 28.056C115.394 28.056 113.73 27.7124 112.296 26.9424H112.29ZM120.844 13.976C120.654 13.6324 120.423 13.36 120.068 13.1704C119.76 12.9809 119.333 12.9039 118.871 12.9039C118.172 12.9039 117.556 13.0934 117.088 13.5199C116.585 13.9405 116.235 14.521 116.004 15.2851H120.998C121.039 14.746 120.998 14.3255 120.844 13.9819V13.976Z" fill="#5A21B0"/>
<path id="Vector_7" d="M133.466 17.3881L129.829 8.4082H137.69L138.347 11.3225C138.543 12.2821 138.697 13.1647 138.774 13.9348C139.04 13.4372 139.55 12.5546 140.284 11.364L142.18 8.4082H150.858L143.341 17.9627L146.978 27.3276H139.194L138.46 24.2593C138.418 23.9927 138.341 23.7617 138.264 23.5307C138.187 23.1871 138.11 22.8791 138.075 22.5711C137.998 22.2631 137.956 21.9551 137.921 21.6885C137.802 21.8781 137.725 22.1091 137.613 22.3045C137.494 22.4941 137.382 22.7251 137.228 22.9206C137.032 23.2286 136.878 23.4596 136.801 23.5722C136.689 23.7262 136.57 23.9572 136.339 24.2652L134.213 27.3335H125.345L133.472 17.394L133.466 17.3881Z" fill="#5A21B0"/>
<path id="Vector_8" d="M151.865 2.99993C151.865 1.58423 152.984 0.500244 154.376 0.500244C155.768 0.500244 156.935 1.57831 156.935 2.99993C156.935 4.42155 155.768 5.53515 154.376 5.53515C152.984 5.53515 151.865 4.38601 151.865 2.99993ZM156.467 2.99993C156.467 1.85078 155.537 0.92673 154.376 0.92673C153.215 0.92673 152.327 1.84486 152.327 2.99993C152.327 4.15499 153.256 5.03758 154.376 5.03758C155.496 5.03758 156.467 4.15499 156.467 2.99993ZM153.411 1.57831H154.572C155.111 1.57831 155.46 1.88632 155.46 2.38389C155.46 2.84592 155.152 3.1184 154.684 3.15394L155.537 4.30308H154.957L154.139 3.15394H153.873V4.30308H153.411V1.57831ZM155.039 2.38389C155.039 2.15288 154.844 2.04033 154.536 2.04033H153.878V2.76891H154.536C154.844 2.76891 155.039 2.65637 155.039 2.38389Z" fill="#5A21B0"/>
<path id="Vector_9" d="M1.35647 52.0042C0.929988 50.2391 0.698975 48.3199 0.698975 46.2467C0.698975 44.1735 0.929988 42.2958 1.35647 40.4891C1.8185 38.7239 2.36346 37.2668 2.98541 36.0762H5.3844C4.92237 36.9232 4.57289 37.8414 4.22341 38.8779C3.87393 39.9145 3.60145 41.0281 3.4119 42.2958C3.21643 43.5219 3.10388 44.831 3.10388 46.2111C3.10388 48.2843 3.3349 50.1621 3.72584 51.8917C4.15233 53.6213 4.69136 55.114 5.39032 56.4942H2.99134C2.33384 55.2266 1.78888 53.7339 1.3624 52.0042H1.35647Z" fill="#5A21B0"/>
<path id="Vector_10" d="M10.6858 53.5388C10.3778 53.3848 10.1053 53.2308 9.83281 52.9998C9.6018 52.7688 9.36486 52.5022 9.17531 52.1172C9.21678 52.3068 9.25232 52.5022 9.25232 52.6918V53.3848H6.73486V36.8052H9.25232V42.0652C9.25232 42.4087 9.25232 42.7582 9.17531 43.1373C9.44779 42.5983 9.83281 42.1777 10.3008 41.8697C10.7687 41.5617 11.3077 41.4077 11.8882 41.4077C12.6642 41.4077 13.2802 41.6387 13.8607 42.1007C14.3998 42.5983 14.8263 43.2913 15.1402 44.1739C15.4127 45.098 15.5667 46.2471 15.5667 47.5917C15.5667 48.9363 15.4127 50.0085 15.0632 50.9325C14.7552 51.8566 14.2872 52.5437 13.7067 53.0057C13.1262 53.4678 12.4687 53.6988 11.6928 53.6988C11.3433 53.6988 10.9938 53.6632 10.6858 53.5448V53.5388ZM12.1193 51.1635C12.3917 50.8555 12.6227 50.3935 12.7768 49.8189C12.9308 49.2029 13.0078 48.4388 13.0078 47.5917C13.0078 46.7447 12.9308 45.9805 12.7768 45.3645C12.6227 44.7485 12.4273 44.2924 12.1548 43.9429C11.8468 43.6349 11.5328 43.4809 11.1063 43.4809C10.7213 43.4809 10.3718 43.6349 10.0994 43.9784C9.79135 44.322 9.55441 44.784 9.4004 45.4001C9.24639 46.0161 9.16939 46.7447 9.16939 47.5858C9.16939 48.4269 9.24639 49.1614 9.4004 49.7715C9.55441 50.3876 9.78542 50.8437 10.0579 51.1517C10.3304 51.4597 10.6799 51.6137 11.0649 51.6137C11.4499 51.6137 11.7994 51.4597 12.1133 51.1517L12.1193 51.1635Z" fill="#5A21B0"/>
<path id="Vector_11" d="M17.3852 41.7213H19.9026V42.835C19.9026 43.143 19.9026 43.451 19.8256 43.7945C20.0981 43.066 20.4476 42.4499 20.8741 42.0649C21.2591 41.6443 21.7626 41.4133 22.3431 41.4133C22.5741 41.4133 22.7281 41.4489 22.8466 41.4903V44.1736C22.6511 44.1381 22.4201 44.1381 22.1476 44.1381C21.6797 44.1381 21.2591 44.2151 20.9452 44.4461C20.5957 44.6357 20.3232 44.9437 20.1692 45.4057C19.9737 45.8263 19.8967 46.4009 19.8967 47.0939V53.3905H17.3793V41.7213H17.3852Z" fill="#5A21B0"/>
<path id="Vector_12" d="M25.0917 53.2365C24.6296 52.9699 24.2387 52.5434 23.9662 52.0103C23.6937 51.4713 23.5397 50.8612 23.5397 50.2037C23.5397 49.1671 23.8478 48.3615 24.4697 47.7455C25.0917 47.1294 25.9387 46.7089 27.0227 46.4779L28.2607 46.2113C28.6102 46.1343 28.8827 45.9803 29.0367 45.7907C29.1907 45.6367 29.2677 45.3287 29.2677 44.9437C29.2677 44.4461 29.1492 44.0611 28.9182 43.7945C28.7227 43.528 28.3732 43.4095 27.9527 43.4095C27.4492 43.4095 27.0227 43.5991 26.7502 43.9486C26.4777 44.2921 26.3237 44.8311 26.3237 45.5597H23.7293C23.7707 44.6771 23.9603 43.9486 24.2683 43.3325C24.6178 42.7165 25.0798 42.2189 25.7018 41.9109C26.3237 41.5673 27.0938 41.4133 27.9882 41.4133C28.8827 41.4133 29.6172 41.5673 30.1977 41.9109C30.7426 42.2545 31.1632 42.7579 31.4357 43.3681C31.7081 44.0196 31.8207 44.8252 31.8207 45.7848V53.3846H29.3447V52.6915C29.3447 52.579 29.3447 52.502 29.3861 52.3835V52.194C29.3861 52.1584 29.4276 52.0814 29.4276 52.0044C29.1551 52.5434 28.8057 52.964 28.3436 53.2305C27.8816 53.5386 27.3366 53.6926 26.7147 53.6926C26.1342 53.6926 25.5892 53.5386 25.0857 53.2305L25.0917 53.2365ZM28.4206 51.4298C28.7286 51.1988 28.9241 50.9323 29.0781 50.5828C29.2321 50.1978 29.3091 49.7772 29.3091 49.2796V47.473C29.2321 47.55 29.1137 47.627 28.9597 47.7395C28.8057 47.8165 28.6102 47.8936 28.3792 47.9706L27.6802 48.1601C27.1767 48.3141 26.7917 48.5451 26.4777 48.8531C26.2053 49.1967 26.0927 49.6232 26.0927 50.1208C26.0927 50.6183 26.2112 51.0033 26.4422 51.2699C26.7147 51.5779 27.0642 51.6905 27.4907 51.6905C27.8401 51.6905 28.1482 51.6135 28.4206 51.4239V51.4298Z" fill="#5A21B0"/>
<path id="Vector_13" d="M34.0361 41.7213H36.5536V42.7165C36.5121 42.7935 36.5121 42.906 36.4766 43.0245C36.6306 42.6809 36.8616 42.4085 37.0985 42.1775C37.371 41.9464 37.679 41.7569 38.0285 41.6029C38.378 41.4903 38.763 41.4133 39.231 41.4133C39.8885 41.4133 40.4334 41.5673 40.8955 41.8754C41.3219 42.1834 41.6714 42.6454 41.9024 43.22C42.1334 43.7945 42.2519 44.5231 42.2519 45.3287V53.3905H39.7345V45.6367C39.7345 44.9081 39.5805 44.4106 39.3494 44.0256C39.077 43.682 38.7275 43.4865 38.224 43.4865C37.916 43.4865 37.602 43.5635 37.371 43.7531C37.0985 43.9071 36.909 44.1736 36.7491 44.4817C36.6306 44.7897 36.5536 45.1747 36.5536 45.5538V53.3846H34.0361V41.7154V41.7213Z" fill="#5A21B0"/>
<path id="Vector_14" d="M45.7288 53.0057C45.1484 52.5437 44.7219 51.8566 44.4139 50.9325C44.1414 50.0144 43.9874 48.9008 43.9874 47.5562C43.9874 46.2116 44.1414 45.098 44.4909 44.1798C44.7989 43.2972 45.2668 42.6042 45.8473 42.1066C46.4278 41.6446 47.0853 41.4136 47.8613 41.4136C48.2108 41.4136 48.5602 41.4906 48.8683 41.6031C49.1763 41.7157 49.4488 41.8697 49.7212 42.1007C49.9522 42.3317 50.1833 42.6397 50.3787 42.9833C50.3017 42.6397 50.3017 42.3317 50.3017 42.0652V36.8052H52.8192V53.3848H50.3017V53.0413C50.3017 52.6977 50.3017 52.3482 50.3787 52.0047C50.1063 52.5022 49.7212 52.9228 49.2533 53.2308C48.7913 53.5388 48.2878 53.6928 47.6658 53.6928C46.8898 53.6928 46.2738 53.4618 45.7288 52.9998V53.0057ZM49.4843 51.1221C49.7568 50.8141 49.9878 50.3165 50.1418 49.7005C50.2958 49.0844 50.3728 48.3558 50.3728 47.5503C50.3728 46.6677 50.2958 45.9391 50.1418 45.3231C49.9878 44.7485 49.7568 44.2865 49.4843 43.9429C49.2118 43.6349 48.8623 43.4809 48.4773 43.4809C48.0923 43.4809 47.7428 43.6349 47.4289 43.9429C47.1564 44.2509 46.9254 44.7129 46.7714 45.3231C46.6174 45.9391 46.5404 46.6677 46.5404 47.5503C46.5404 48.4328 46.6174 49.1614 46.7714 49.7775C46.9254 50.3935 47.1209 50.8496 47.3933 51.1576C47.7013 51.4656 48.0153 51.6196 48.4418 51.6196C48.8268 51.6196 49.1763 51.4656 49.4843 51.1221Z" fill="#5A21B0"/>
<path id="Vector_15" d="M56.6515 53.041C55.9881 52.579 55.4905 51.8919 55.141 51.0093C54.7974 50.0911 54.6375 48.9775 54.6375 47.6685C54.6375 46.3594 54.7915 45.2517 55.1765 44.2921C55.5201 43.374 56.0651 42.6395 56.7226 42.1419C57.3801 41.6799 58.1916 41.4133 59.0801 41.4133C59.9686 41.4133 60.6676 41.6443 61.2895 42.0649C61.9115 42.4855 62.3735 43.137 62.723 43.9841C63.031 44.8311 63.185 45.8677 63.185 47.0524V48.166H57.1846C57.2201 48.8176 57.2971 49.4336 57.4511 49.9667C57.6051 50.4643 57.8006 50.8849 58.1146 51.1929C58.3811 51.5009 58.6951 51.6135 59.0801 51.6135C59.5421 51.6135 59.8975 51.4239 60.1641 51.0389C60.4721 50.6539 60.6261 50.1563 60.6676 49.5403H63.185C63.1435 50.4229 62.9125 51.1929 62.563 51.803C62.2136 52.419 61.7456 52.9166 61.171 53.2246C60.5491 53.5326 59.8501 53.6867 59.0742 53.6867C58.1086 53.6867 57.3327 53.4556 56.6396 53.0351L56.6515 53.041ZM60.4425 44.6771C60.324 44.2566 60.1344 43.9486 59.9034 43.7175C59.6724 43.528 59.3644 43.4095 59.009 43.4095C58.47 43.4095 58.0435 43.6761 57.7355 44.1796C57.4274 44.6771 57.232 45.4057 57.1964 46.2883H60.6379C60.6379 45.6723 60.6024 45.1392 60.4484 44.6771H60.4425Z" fill="#5A21B0"/>
<path id="Vector_16" d="M66.6385 47.3605L63.8485 41.7214H66.597L67.604 44.0612C67.7935 44.5232 67.989 44.9852 68.1845 45.4413C68.38 44.9793 68.5695 44.5232 68.765 44.0612L69.8904 41.7214H72.556L69.6476 47.248L72.6744 53.3906H69.8845L68.7176 50.6243C68.6406 50.5118 68.6051 50.3578 68.528 50.2393C68.451 50.0083 68.374 49.8188 68.3326 49.7003C68.2556 49.6233 68.22 49.4337 68.1016 49.2027C68.0246 49.3567 67.989 49.5107 67.9476 49.5877C67.9476 49.6647 67.8705 49.7773 67.835 49.9313C67.758 50.0853 67.7165 50.1978 67.681 50.2749C67.6395 50.3519 67.5625 50.4644 67.527 50.6184L66.2475 53.3846H63.5405L66.6385 47.3605Z" fill="#5A21B0"/>
<path id="Vector_17" d="M73.7999 37.2312H76.4299V40.11H73.7999V37.2312ZM73.8413 41.7212H76.3943V53.3903H73.8413V41.7212ZM73.8413 41.7212H75.1563V43.7173H73.8413V41.7212ZM73.8413 51.3171H76.3943V53.3903H73.8413V51.3171Z" fill="#5A21B0"/>
<path id="Vector_18" d="M80.1913 53.0055C79.5338 52.5434 79.0303 51.8563 78.6868 50.9323C78.3728 50.0497 78.1833 48.9005 78.1833 47.5915C78.1833 46.2824 78.3728 45.1332 78.7223 44.2151C79.1073 43.297 79.6168 42.6039 80.3098 42.1064C81.0088 41.6443 81.8143 41.4133 82.7443 41.4133C83.5973 41.4133 84.2903 41.6029 84.9123 41.9879C85.4928 42.3315 85.9193 42.8705 86.2273 43.5991C86.5768 44.3277 86.7663 45.1747 86.8078 46.1698H84.2903C84.2548 45.2872 84.1008 44.5942 83.8698 44.1736C83.5973 43.7116 83.2063 43.4806 82.7088 43.4806C82.3238 43.4806 81.9683 43.6346 81.6603 43.9012C81.3938 44.1677 81.1568 44.6297 81.0028 45.2458C80.8488 45.8204 80.7718 46.5904 80.7718 47.55C80.7718 48.4326 80.8488 49.2026 81.0028 49.8127C81.1568 50.4288 81.3464 50.8849 81.6603 51.1929C81.9328 51.5009 82.2823 51.6135 82.7088 51.6135C83.2123 51.6135 83.5973 51.4239 83.8698 50.9619C84.1363 50.5413 84.2903 49.8483 84.3318 48.9657H86.8848C86.7663 50.0023 86.5768 50.8434 86.2214 51.5365C85.9133 52.265 85.4454 52.8041 84.8294 53.1476C84.2489 53.4912 83.5144 53.6867 82.6259 53.6867C81.6544 53.6867 80.8429 53.4556 80.1854 52.9936L80.1913 53.0055Z" fill="#5A21B0"/>
<path id="Vector_19" d="M88.5136 37.2312H91.1081V40.11H88.5136V37.2312ZM88.5551 41.7212H91.0666V53.3903H88.5551V41.7212ZM88.5551 41.7212H89.8286V43.7173H88.5551V41.7212ZM88.5551 51.3171H91.0666V53.3903H88.5551V51.3171Z" fill="#5A21B0"/>
<path id="Vector_20" d="M93.3177 36.8108H95.8707V53.3904H93.3177V36.8108ZM93.3177 36.8108H94.6327V38.8425H93.3177V36.8108ZM93.3177 51.3172H95.8707V53.3904H93.3177V51.3172Z" fill="#5A21B0"/>
<path id="Vector_21" d="M98.1215 36.8108H100.633V53.3904H98.1215V36.8108ZM98.1215 36.8108H99.395V38.8425H98.1215V36.8108ZM98.1215 51.3172H100.633V53.3904H98.1215V51.3172Z" fill="#5A21B0"/>
<path id="Vector_22" d="M102.842 37.2312H105.472V40.11H102.842V37.2312ZM102.878 41.7212H105.437V53.3903H102.878V41.7212ZM102.878 41.7212H104.193V43.7173H102.878V41.7212ZM102.878 51.3171H105.437V53.3903H102.878V51.3171Z" fill="#5A21B0"/>
<path id="Vector_23" d="M107.682 41.7213H110.235V42.3729C110.235 42.4855 110.193 42.6039 110.193 42.7165C110.158 42.7935 110.158 42.906 110.158 43.0245C110.312 42.6809 110.501 42.4085 110.78 42.1775C111.011 41.9464 111.319 41.7569 111.668 41.6029C112.018 41.4903 112.444 41.4133 112.871 41.4133C113.534 41.4133 114.073 41.5673 114.535 41.8754C114.997 42.1834 115.347 42.6454 115.578 43.22C115.809 43.7945 115.927 44.5231 115.927 45.3287V53.3905H113.374V45.6367C113.374 44.9081 113.256 44.4106 112.983 44.0256C112.752 43.682 112.361 43.4865 111.864 43.4865C111.556 43.4865 111.283 43.5635 111.011 43.7531C110.738 43.9071 110.549 44.1736 110.43 44.4817C110.276 44.7897 110.241 45.1747 110.241 45.5538V53.3846H107.688V41.7154L107.682 41.7213Z" fill="#5A21B0"/>
<path id="Vector_24" d="M120.731 40.572C121.152 42.3372 121.389 44.2564 121.389 46.3296C121.389 48.4028 121.158 50.2805 120.731 52.0457C120.269 53.8524 119.724 55.3095 119.108 56.5001H116.745C117.171 55.6531 117.562 54.7349 117.87 53.6983C118.214 52.6617 118.492 51.5126 118.682 50.2805C118.877 49.0544 118.99 47.7453 118.99 46.3652C118.99 44.292 118.759 42.4142 118.368 40.6846C117.947 38.955 117.402 37.4208 116.745 36.0762H119.108C119.766 37.3023 120.305 38.8009 120.731 40.5661V40.572Z" fill="#5A21B0"/>
<path id="Vector_25" d="M130.297 40.4182C130.066 40.8033 129.675 41.0698 129.172 41.0698V40.1872C129.835 40.0747 130.22 39.7252 130.333 39.1506H131.192V45.0207H130.256V40.7973C130.256 40.6848 130.256 40.5663 130.297 40.4123V40.4182Z" fill="#5A21B0"/>
<path id="Vector_26" d="M131.998 42.1062C131.998 39.956 132.578 39.0378 133.745 39.0378C134.912 39.0378 135.486 39.956 135.486 42.1062C135.486 44.2564 134.906 45.139 133.745 45.139C132.584 45.139 131.998 44.2149 131.998 42.1062ZM134.515 42.1062C134.515 40.418 134.243 39.8434 133.739 39.8434C133.2 39.8434 132.922 40.418 132.922 42.1062C132.922 43.7943 133.194 44.3334 133.739 44.3334C134.243 44.3334 134.515 43.7588 134.515 42.1062Z" fill="#5A21B0"/>
<path id="Vector_27" d="M136.102 42.1062C136.102 39.956 136.683 39.0378 137.85 39.0378C139.017 39.0378 139.556 39.956 139.556 42.1062C139.556 44.2564 139.017 45.139 137.85 45.139C136.683 45.139 136.102 44.2149 136.102 42.1062ZM138.62 42.1062C138.62 40.418 138.347 39.8434 137.844 39.8434C137.305 39.8434 137.026 40.418 137.026 42.1062C137.026 43.7943 137.299 44.3334 137.844 44.3334C138.347 44.3334 138.62 43.7588 138.62 42.1062Z" fill="#5A21B0"/>
<path id="Vector_28" d="M140.284 40.8744H141.173V41.3364C141.327 41.0284 141.635 40.7974 142.067 40.7974C142.5 40.7974 142.802 41.0639 142.92 41.3719C143.074 41.0639 143.459 40.7974 143.927 40.7974C144.549 40.7974 144.97 41.2949 144.97 42.1775V45.0148H144.04V42.2486C144.04 41.7866 143.886 41.52 143.578 41.52C143.27 41.52 143.074 41.7866 143.074 42.2486V45.0148H142.18V42.2486C142.18 41.7866 142.026 41.52 141.718 41.52C141.41 41.52 141.179 41.7866 141.179 42.2486V45.0148H140.29V40.8684L140.284 40.8744Z" fill="#5A21B0"/>
<path id="Vector_29" d="M145.704 45.3288H146.593C146.634 45.9033 146.865 46.0988 147.173 46.0988C147.558 46.0988 147.831 45.8323 147.831 45.2518V44.4047C147.677 44.7127 147.369 44.9793 146.901 44.9793C146.089 44.9793 145.586 44.2507 145.586 42.8706C145.586 41.4904 146.166 40.7974 146.942 40.7974C147.363 40.7974 147.641 40.9514 147.831 41.3364V40.8744H148.725V45.1333C148.725 46.2469 148.103 46.8215 147.179 46.8215C146.255 46.8215 145.71 46.3595 145.71 45.3229L145.704 45.3288ZM147.831 42.8706C147.831 42.0235 147.6 41.5259 147.173 41.5259C146.747 41.5259 146.51 41.988 146.51 42.8706C146.51 43.7531 146.741 44.2507 147.173 44.2507C147.606 44.2507 147.831 43.7117 147.831 42.8706Z" fill="#5A21B0"/>
<path id="Vector_30" d="M130.564 48.3973H129.172V47.5562H132.927V48.3973H131.535V53.4677H130.564V48.3973Z" fill="#5A21B0"/>
<path id="Vector_31" d="M132.465 52.3541C132.465 51.5841 132.969 51.1635 133.703 51.0095L134.165 50.9325C134.396 50.8555 134.515 50.743 134.515 50.4705C134.515 50.1269 134.361 49.9315 134.053 49.9315C133.668 49.9315 133.472 50.1625 133.472 50.66H132.542C132.584 49.7419 133.081 49.2029 134.053 49.2029C135.024 49.2029 135.445 49.7419 135.445 50.7785V53.4677H134.55V52.9702C134.396 53.3552 134.047 53.5862 133.585 53.5862C132.963 53.5862 132.459 53.0886 132.459 52.3601L132.465 52.3541ZM134.515 52.0047V51.3531C134.473 51.4301 134.361 51.5071 134.207 51.5426L133.934 51.6196C133.591 51.6966 133.395 51.9277 133.395 52.3127C133.395 52.6562 133.591 52.8872 133.899 52.8872C134.242 52.8872 134.521 52.5437 134.521 52.0047H134.515Z" fill="#5A21B0"/>
<path id="Vector_32" d="M137.074 53.0408C137.109 53.1534 137.109 53.2304 137.109 53.3488V53.4614H136.18V47.5498H137.109V49.4335C137.109 49.5875 137.109 49.7 137.074 49.8185C137.263 49.4749 137.613 49.2024 138.039 49.2024C138.815 49.2024 139.354 49.931 139.354 51.3882C139.354 52.8453 138.733 53.5739 137.962 53.5739C137.577 53.5739 137.263 53.3844 137.074 53.0349V53.0408ZM138.424 51.3941C138.424 50.47 138.193 49.9369 137.767 49.9369C137.341 49.9369 137.068 50.5115 137.068 51.3941C137.068 52.2767 137.299 52.8513 137.726 52.8513C138.188 52.8513 138.424 52.3537 138.424 51.3941Z" fill="#5A21B0"/>
<path id="Vector_33" d="M139.976 47.5562H140.906V53.4677H139.976V47.5562Z" fill="#5A21B0"/>
<path id="Vector_34" d="M141.528 51.4301C141.528 50.0085 142.15 49.2029 143.11 49.2029C144.069 49.2029 144.579 49.9315 144.579 51.1991V51.6196H142.452C142.452 52.3127 142.683 52.8458 143.11 52.8458C143.459 52.8458 143.649 52.5022 143.69 52.1172H144.579C144.502 53.0768 143.957 53.5744 143.11 53.5744C142.103 53.5744 141.528 52.8813 141.528 51.4242V51.4301ZM143.074 49.9315C142.689 49.9315 142.452 50.3165 142.452 50.9266H143.649C143.649 50.2336 143.459 49.9315 143.068 49.9315H143.074Z" fill="#5A21B0"/>
<path id="Vector_35" d="M145.509 52.354V50.0498H144.81V49.3212H145.509V47.864H146.403V49.3212H147.179V50.0498H146.439V52.2355C146.439 52.5791 146.557 52.7745 146.865 52.7745H147.096V53.4676C146.978 53.5031 146.788 53.5446 146.593 53.5446C145.894 53.5446 145.509 53.124 145.509 52.354Z" fill="#5A21B0"/>
<path id="Vector_36" d="M147.523 52.0043H148.417C148.417 52.5434 148.648 52.8869 149.039 52.8869C149.347 52.8869 149.543 52.6559 149.543 52.3479C149.543 52.0399 149.389 51.8859 149.039 51.7733L148.654 51.6608C147.991 51.4298 147.647 51.0092 147.647 50.4346C147.647 49.6646 148.228 49.2085 149.004 49.2085C149.78 49.2085 150.396 49.6705 150.396 50.6301H149.501C149.501 50.1681 149.312 49.9371 148.962 49.9371C148.696 49.9371 148.5 50.0911 148.5 50.3991C148.5 50.6301 148.654 50.7841 149.039 50.9381L149.424 51.0151C150.046 51.2461 150.431 51.6312 150.431 52.2827C150.431 53.0883 149.851 53.5859 149.004 53.5859C148.157 53.5859 147.529 53.0113 147.529 52.0103L147.523 52.0043Z" fill="#5A21B0"/>
</g>
</svg>
