<svg width="32" height="32" viewBox="0 0 32 32" fill="none" xmlns="http://www.w3.org/2000/svg">
<path d="M5.81803 3.52727H2.25439V7.09091H3.27258V4.54545H5.81803V3.52727Z" fill="currentcolor"/>
<path d="M28.7271 28.9818H3.27258V9.12727H2.25439V30H29.7453V9.12727H28.7271V28.9818Z" fill="currentcolor"/>
<path d="M26.182 4.54545H28.7271V7.09091H29.7453V3.52727H26.182V4.54545Z" fill="currentcolor"/>
<path d="M9.38167 2H8.36349V5.05455H9.38167V2Z" fill="currentcolor"/>
<path d="M23.6362 2H22.618V5.05455H23.6362V2Z" fill="currentcolor"/>
<path d="M20.073 3.52727H11.9275V4.54545H20.073V3.52727Z" fill="currentcolor"/>
<path d="M28.2184 7.6H3.78167V8.61818H28.2184V7.6Z" fill="currentcolor"/>
<path d="M15.9998 12.6909C14.877 12.6909 13.9635 13.6045 13.9635 14.7273C13.9635 15.8501 14.877 16.7636 15.9998 16.7636C17.1226 16.7636 18.0362 15.8501 18.0362 14.7273C18.0362 13.6045 17.1226 12.6909 15.9998 12.6909ZM15.9998 15.7455C15.4384 15.7455 14.9817 15.2887 14.9817 14.7273C14.9817 14.1659 15.4384 13.7091 15.9998 13.7091C16.5612 13.7091 17.018 14.1659 17.018 14.7273C17.018 15.2887 16.5612 15.7455 15.9998 15.7455Z" fill="currentcolor"/>
<path d="M23.6362 12.6909C22.5134 12.6909 21.5998 13.6045 21.5998 14.7273C21.5998 15.8501 22.5134 16.7636 23.6362 16.7636C24.759 16.7636 25.6726 15.8501 25.6726 14.7273C25.6726 13.6045 24.759 12.6909 23.6362 12.6909ZM23.6362 15.7455C23.0748 15.7455 22.618 15.2887 22.618 14.7273C22.618 14.1659 23.0748 13.7091 23.6362 13.7091C24.1976 13.7091 24.6544 14.1659 24.6544 14.7273C24.6544 15.2887 24.1976 15.7455 23.6362 15.7455Z" fill="currentcolor"/>
<path d="M8.36349 12.6909C7.24069 12.6909 6.32712 13.6045 6.32712 14.7273C6.32712 15.8501 7.24069 16.7636 8.36349 16.7636C9.48629 16.7636 10.3998 15.8501 10.3998 14.7273C10.3998 13.6045 9.48629 12.6909 8.36349 12.6909ZM8.36349 15.7455C7.80209 15.7455 7.3453 15.2887 7.3453 14.7273C7.3453 14.1659 7.80209 13.7091 8.36349 13.7091C8.92489 13.7091 9.38167 14.1659 9.38167 14.7273C9.38167 15.2887 8.92489 15.7455 8.36349 15.7455Z" fill="currentcolor"/>
<path d="M8.36349 20.8364C7.24069 20.8364 6.32712 21.7499 6.32712 22.8727C6.32712 23.9955 7.24069 24.9091 8.36349 24.9091C9.48629 24.9091 10.3998 23.9955 10.3998 22.8727C10.3998 21.7499 9.48629 20.8364 8.36349 20.8364ZM8.36349 23.8909C7.80209 23.8909 7.3453 23.4341 7.3453 22.8727C7.3453 22.3113 7.80209 21.8545 8.36349 21.8545C8.92489 21.8545 9.38167 22.3113 9.38167 22.8727C9.38167 23.4341 8.92489 23.8909 8.36349 23.8909Z" fill="currentcolor"/>
<path d="M15.9998 20.8364C14.877 20.8364 13.9635 21.7499 13.9635 22.8727C13.9635 23.9955 14.877 24.9091 15.9998 24.9091C17.1226 24.9091 18.0362 23.9955 18.0362 22.8727C18.0362 21.7499 17.1226 20.8364 15.9998 20.8364ZM15.9998 23.8909C15.4384 23.8909 14.9817 23.4341 14.9817 22.8727C14.9817 22.3113 15.4384 21.8545 15.9998 21.8545C16.5612 21.8545 17.018 22.3113 17.018 22.8727C17.018 23.4341 16.5612 23.8909 15.9998 23.8909Z" fill="currentcolor"/>
<path d="M23.6362 20.8364C22.5134 20.8364 21.5998 21.7499 21.5998 22.8727C21.5998 23.9955 22.5134 24.9091 23.6362 24.9091C24.759 24.9091 25.6726 23.9955 25.6726 22.8727C25.6726 21.7499 24.759 20.8364 23.6362 20.8364ZM23.6362 23.8909C23.0748 23.8909 22.618 23.4341 22.618 22.8727C22.618 22.3113 23.0748 21.8545 23.6362 21.8545C24.1976 21.8545 24.6544 22.3113 24.6544 22.8727C24.6544 23.4341 24.1976 23.8909 23.6362 23.8909Z" fill="currentcolor"/>
</svg>
