<svg width="32" height="32" viewBox="0 0 32 32" fill="none" xmlns="http://www.w3.org/2000/svg">
<path d="M29.7097 21.7045L28.2956 20.2901L25.0031 23.5826L21.7259 20.2761L20.3053 21.6841L23.5889 24.997L20.2956 28.2901L21.7097 29.7045L24.9967 26.4174L28.2698 29.7196L29.6903 28.3116L26.4111 25.0031L29.7097 21.7045Z" fill="currentcolor"/>
<path d="M4 6.99512H2V3H6.0005V5H4V6.99512Z" fill="currentcolor"/>
<path d="M30 8.99512H28V19H30V8.99512Z" fill="currentcolor"/>
<path d="M19 30H2V8.99512H4V28H19V30Z" fill="currentcolor"/>
<path d="M30 6.99512H28V5H26.0005V3H30V6.99512Z" fill="currentcolor"/>
<path d="M10 2H8V4.99512H10V2Z" fill="currentcolor"/>
<path d="M24 2H22V4.99512H24V2Z" fill="currentcolor"/>
<path d="M20.0005 3H12.0005V5H20.0005V3Z" fill="currentcolor"/>
<path d="M28.0005 7H4.0005V9H28.0005V7Z" fill="currentcolor"/>
</svg>
