<svg width="32" height="32" viewBox="0 0 32 32" fill="none" xmlns="http://www.w3.org/2000/svg">
<path d="M29.8755 24.2522H25.625V19.9973H24.125V24.2522H19.8755V25.7522H24.125V29.9973H25.625V25.7522H29.8755V24.2522Z" fill="currentcolor"/>
<path d="M3.625 4.7522H5.8755V3.2522H2.125V6.99732H3.625V4.7522Z" fill="currentcolor"/>
<path d="M29.625 8.99732H28.125V19.0022H29.625V8.99732Z" fill="currentcolor"/>
<path d="M3.625 8.99732H2.125V29.7522H18.875V28.2522H3.625V8.99732Z" fill="currentcolor"/>
<path d="M28.125 6.99732H29.625V3.2522H25.8755V4.7522H28.125V6.99732Z" fill="currentcolor"/>
<path d="M9.625 2.0022H8.125V5.0022H9.625V2.0022Z" fill="currentcolor"/>
<path d="M23.625 2.0022H22.125V5.0022H23.625V2.0022Z" fill="currentcolor"/>
<path d="M19.8755 3.2522H11.8755V4.7522H19.8755V3.2522Z" fill="currentcolor"/>
<path d="M27.8755 7.2522H3.8755V8.7522H27.8755V7.2522Z" fill="currentcolor"/>
</svg>
