<svg width="32" height="32" viewBox="0 0 32 32" fill="none" xmlns="http://www.w3.org/2000/svg">
<path d="M2 6.96371H3.52727V4.6728H5.81818V3.14553H2V6.96371Z" fill="currentcolor"/>
<path d="M30 9.00008H28.4727V17.1499H30V9.00008Z" fill="currentcolor"/>
<path d="M3.52727 28.6001V9.00008H2V30.1273H17.008V28.6001H3.52727Z" fill="currentcolor"/>
<path d="M30 6.96371V3.14553H26.1822V4.6728H28.4727V6.96371H30Z" fill="currentcolor"/>
<path d="M9.63636 1.8728H8.10909V4.92735H9.63636V1.8728Z" fill="currentcolor"/>
<path d="M23.8909 1.8728H22.3636V4.92735H23.8909V1.8728Z" fill="currentcolor"/>
<path d="M20.0731 3.14553H11.9277V4.6728H20.0731V3.14553Z" fill="currentcolor"/>
<path d="M28.2186 7.21826H3.78182V8.74553H28.2186V7.21826Z" fill="currentcolor"/>
<path d="M27.199 23.5092L24.8989 23.5125V21.2183H23.3716V25.0418L27.201 25.0364L27.199 23.5092Z" fill="currentcolor"/>
<path d="M29.9898 24.2728C29.9898 21.0445 27.3634 18.4183 24.1353 18.4183C20.9071 18.4183 18.2807 21.0445 18.2807 24.2728C18.2807 27.5011 20.9071 30.1273 24.1353 30.1273C27.3634 30.1273 29.9898 27.5011 29.9898 24.2728ZM19.808 24.2728C19.808 21.8867 21.7492 19.9455 24.1353 19.9455C26.5214 19.9455 28.4625 21.8867 28.4625 24.2728C28.4625 26.6589 26.5214 28.6001 24.1353 28.6001C21.7492 28.6001 19.808 26.6589 19.808 24.2728Z" fill="currentcolor"/>
</svg>
