<svg width="32" height="32" viewBox="0 0 32 32" fill="none" xmlns="http://www.w3.org/2000/svg">
<path d="M30.0005 24H26V19.9951H24V24H20.0005V26H24V29.9951H26V26H30.0005V24Z" fill="currentcolor"/>
<path d="M4 6.99512H2V3H6.0005V5H4V6.99512Z" fill="currentcolor"/>
<path d="M30 8.99512H28V19H30V8.99512Z" fill="currentcolor"/>
<path d="M19 30H2V8.99512H4V28H19V30Z" fill="currentcolor"/>
<path d="M30 6.99512H28V5H26.0005V3H30V6.99512Z" fill="currentcolor"/>
<path d="M10 2H8V5H10V2Z" fill="currentcolor"/>
<path d="M24 2H22V5H24V2Z" fill="currentcolor"/>
<path d="M20.0005 3H12.0005V5H20.0005V3Z" fill="currentcolor"/>
<path d="M28.0005 7H4.0005V9H28.0005V7Z" fill="currentcolor"/>
</svg>
