<svg width="32" height="32" viewBox="0 0 32 32" fill="none" xmlns="http://www.w3.org/2000/svg">
<path d="M2.12598 7.04504H3.63949V4.77477H5.90976V3.26126H2.12598V7.04504Z" fill="currentcolor"/>
<path d="M28.3602 28.4865H3.63949V9.06306H2.12598V30H29.8737V9.06306H28.3602V28.4865Z" fill="currentcolor"/>
<path d="M26.0903 4.77477H28.3602V7.04504H29.8737V3.26126H26.0903V4.77477Z" fill="currentcolor"/>
<path d="M9.69354 2H8.18003V5.02703H9.69354V2Z" fill="currentcolor"/>
<path d="M23.8197 2H22.3062V5.02703H23.8197V2Z" fill="currentcolor"/>
<path d="M20.0363 3.26126H11.9642V4.77477H20.0363V3.26126Z" fill="currentcolor"/>
<path d="M28.1083 7.2973H3.89174V8.81081H28.1083V7.2973Z" fill="currentcolor"/>
<path d="M8.43228 10.3243C7.18048 10.3243 6.16201 11.3428 6.16201 12.5946C6.16201 13.8464 7.18048 14.8649 8.43228 14.8649C9.68408 14.8649 10.7026 13.8464 10.7026 12.5946C10.7026 11.3428 9.68408 10.3243 8.43228 10.3243ZM8.43228 13.3514C8.01493 13.3514 7.67553 13.0119 7.67553 12.5946C7.67553 12.1772 8.01493 11.8378 8.43228 11.8378C8.84963 11.8378 9.18904 12.1772 9.18904 12.5946C9.18904 13.0119 8.84963 13.3514 8.43228 13.3514Z" fill="currentcolor"/>
<path d="M15.9999 10.3243C14.748 10.3243 13.7296 11.3428 13.7296 12.5946C13.7296 13.8464 14.748 14.8649 15.9999 14.8649C17.2517 14.8649 18.2701 13.8464 18.2701 12.5946C18.2701 11.3428 17.2517 10.3243 15.9999 10.3243ZM15.9999 13.3514C15.5825 13.3514 15.2431 13.0119 15.2431 12.5946C15.2431 12.1772 15.5825 11.8378 15.9999 11.8378C16.4172 11.8378 16.7566 12.1772 16.7566 12.5946C16.7566 13.0119 16.4172 13.3514 15.9999 13.3514Z" fill="currentcolor"/>
<path d="M23.5674 10.3243C22.3156 10.3243 21.2971 11.3428 21.2971 12.5946C21.2971 13.8464 22.3156 14.8649 23.5674 14.8649C24.8192 14.8649 25.8377 13.8464 25.8377 12.5946C25.8377 11.3428 24.8192 10.3243 23.5674 10.3243ZM23.5674 13.3514C23.1501 13.3514 22.8107 13.0119 22.8107 12.5946C22.8107 12.1772 23.1501 11.8378 23.5674 11.8378C23.9848 11.8378 24.3242 12.1772 24.3242 12.5946C24.3242 13.0119 23.9848 13.3514 23.5674 13.3514Z" fill="currentcolor"/>
<path d="M8.43228 16.3784C7.18048 16.3784 6.16201 17.3968 6.16201 18.6486C6.16201 19.9004 7.18048 20.9189 8.43228 20.9189C9.68408 20.9189 10.7026 19.9004 10.7026 18.6486C10.7026 17.3968 9.68408 16.3784 8.43228 16.3784ZM8.43228 19.4054C8.01493 19.4054 7.67553 19.066 7.67553 18.6486C7.67553 18.2313 8.01493 17.8919 8.43228 17.8919C8.84963 17.8919 9.18904 18.2313 9.18904 18.6486C9.18904 19.066 8.84963 19.4054 8.43228 19.4054Z" fill="currentcolor"/>
<path d="M15.9999 20.9189C17.2537 20.9189 18.2701 19.9025 18.2701 18.6486C18.2701 17.3948 17.2537 16.3784 15.9999 16.3784C14.746 16.3784 13.7296 17.3948 13.7296 18.6486C13.7296 19.9025 14.746 20.9189 15.9999 20.9189Z" fill="currentcolor"/>
<path d="M23.5674 20.9189C24.8213 20.9189 25.8377 19.9025 25.8377 18.6486C25.8377 17.3948 24.8213 16.3784 23.5674 16.3784C22.3136 16.3784 21.2971 17.3948 21.2971 18.6486C21.2971 19.9025 22.3136 20.9189 23.5674 20.9189Z" fill="currentcolor"/>
<path d="M8.43228 22.4324C7.18048 22.4324 6.16201 23.4509 6.16201 24.7027C6.16201 25.9545 7.18048 26.973 8.43228 26.973C9.68408 26.973 10.7026 25.9545 10.7026 24.7027C10.7026 23.4509 9.68408 22.4324 8.43228 22.4324ZM8.43228 25.4595C8.01493 25.4595 7.67553 25.1201 7.67553 24.7027C7.67553 24.2854 8.01493 23.9459 8.43228 23.9459C8.84963 23.9459 9.18904 24.2854 9.18904 24.7027C9.18904 25.1201 8.84963 25.4595 8.43228 25.4595Z" fill="currentcolor"/>
<path d="M15.9999 22.4324C14.748 22.4324 13.7296 23.4509 13.7296 24.7027C13.7296 25.9545 14.748 26.973 15.9999 26.973C17.2517 26.973 18.2701 25.9545 18.2701 24.7027C18.2701 23.4509 17.2517 22.4324 15.9999 22.4324ZM15.9999 25.4595C15.5825 25.4595 15.2431 25.1201 15.2431 24.7027C15.2431 24.2854 15.5825 23.9459 15.9999 23.9459C16.4172 23.9459 16.7566 24.2854 16.7566 24.7027C16.7566 25.1201 16.4172 25.4595 15.9999 25.4595Z" fill="currentcolor"/>
<path d="M23.5674 22.4324C22.3156 22.4324 21.2971 23.4509 21.2971 24.7027C21.2971 25.9545 22.3156 26.973 23.5674 26.973C24.8192 26.973 25.8377 25.9545 25.8377 24.7027C25.8377 23.4509 24.8192 22.4324 23.5674 22.4324ZM23.5674 25.4595C23.1501 25.4595 22.8107 25.1201 22.8107 24.7027C22.8107 24.2854 23.1501 23.9459 23.5674 23.9459C23.9848 23.9459 24.3242 24.2854 24.3242 24.7027C24.3242 25.1201 23.9848 25.4595 23.5674 25.4595Z" fill="currentcolor"/>
</svg>
