<svg width="32" height="32" viewBox="0 0 32 32" fill="none" xmlns="http://www.w3.org/2000/svg">
<path d="M28.879 20.9827L25.165 24.6967L21.4681 20.9668L20.7451 21.6835L24.4452 25.4165L20.7335 29.1282L21.4535 29.8482L25.1618 26.1397L28.8544 29.8651L29.5774 29.1485L25.8818 25.4198L29.5989 21.7027L28.879 20.9827Z" fill="currentcolor"/>
<path d="M3.27258 4.54545H5.81854V3.52727H2.25439V7.08595H3.27258V4.54545Z" fill="currentcolor"/>
<path d="M29.7453 9.12231H28.7271V19.3091H29.7453V9.12231Z" fill="currentcolor"/>
<path d="M3.27258 9.12231H2.25439V30H19.0544V28.9818H3.27258V9.12231Z" fill="currentcolor"/>
<path d="M26.1822 3.52727V4.54545H28.7271V7.08595H29.7453V3.52727H26.1822Z" fill="currentcolor"/>
<path d="M9.38167 2H8.36349V5.04958H9.38167V2Z" fill="currentcolor"/>
<path d="M23.6362 2H22.618V5.04958H23.6362V2Z" fill="currentcolor"/>
<path d="M20.0731 3.52727H11.9276V4.54545H20.0731V3.52727Z" fill="currentcolor"/>
<path d="M28.2185 7.6H3.78218V8.61818H28.2185V7.6Z" fill="currentcolor"/>
</svg>
