<svg width="32" height="32" viewBox="0 0 32 32" fill="none" xmlns="http://www.w3.org/2000/svg">
<path d="M2.25439 7.09091H3.27258V4.54545H5.81803V3.52727H2.25439V7.09091Z" fill="currentcolor"/>
<path d="M3.27258 28.9818V9.12727H2.25439V30H17.0078V28.9818H3.27258Z" fill="currentcolor"/>
<path d="M29.7453 9.12727H28.7271V17.2771H29.7453V9.12727Z" fill="currentcolor"/>
<path d="M29.7453 7.09091V3.52727H26.182V4.54545H28.7271V7.09091H29.7453Z" fill="currentcolor"/>
<path d="M9.38167 2H8.36349V5.05455H9.38167V2Z" fill="currentcolor"/>
<path d="M23.6362 2H22.618V5.05455H23.6362V2Z" fill="currentcolor"/>
<path d="M20.073 3.52727H11.9275V4.54545H20.073V3.52727Z" fill="currentcolor"/>
<path d="M28.2184 7.6H3.78167V8.61818H28.2184V7.6Z" fill="currentcolor"/>
<path d="M24.6442 23.8945V21.3455H23.626V24.9142L27.2005 24.9091L27.1992 23.8909L24.6442 23.8945Z" fill="currentcolor"/>
<path d="M29.7351 24.4C29.7351 21.3121 27.223 18.8 24.1351 18.8C21.0472 18.8 18.5351 21.3121 18.5351 24.4C18.5351 27.4879 21.0472 30 24.1351 30C27.223 30 29.7351 27.4879 29.7351 24.4ZM19.5533 24.4C19.5533 21.8736 21.6086 19.8182 24.1351 19.8182C26.6616 19.8182 28.7169 21.8736 28.7169 24.4C28.7169 26.9264 26.6616 28.9818 24.1351 28.9818C21.6086 28.9818 19.5533 26.9264 19.5533 24.4Z" fill="currentcolor"/>
</svg>
