<svg width="32" height="32" viewBox="0 0 32 32" fill="none" xmlns="http://www.w3.org/2000/svg">
<path d="M6 4.99988V2.99988H2V6.99988H4V4.99988H6Z" fill="currentcolor"/>
<path d="M28 27.9999H4V8.99988H2V29.9999H30V8.99988H28.0004H28V27.9999Z" fill="currentcolor"/>
<path d="M26.0004 4.99988H28V6.99988H28.0004H30V2.99988H26.0004V4.99988Z" fill="currentcolor"/>
<path d="M10 1.99988H8V4.99988H10V1.99988Z" fill="currentcolor"/>
<path d="M24 1.99988H22V4.99988H24V1.99988Z" fill="currentcolor"/>
<path d="M20.0004 2.99988H12.0004V4.99988H20.0004V2.99988Z" fill="currentcolor"/>
<path d="M4 6.99988V8.99988H28H28.0004V6.99988H28H4Z" fill="currentcolor"/>
<path d="M7.999 16.0041C8.82743 16.0041 9.499 15.3326 9.499 14.5041C9.499 13.6757 8.82743 13.0041 7.999 13.0041C7.17057 13.0041 6.499 13.6757 6.499 14.5041C6.499 15.3326 7.17057 16.0041 7.999 16.0041Z" fill="currentcolor"/>
<path d="M11.999 16.0041C12.8274 16.0041 13.499 15.3326 13.499 14.5041C13.499 13.6757 12.8274 13.0041 11.999 13.0041C11.1706 13.0041 10.499 13.6757 10.499 14.5041C10.499 15.3326 11.1706 16.0041 11.999 16.0041Z" fill="currentcolor"/>
<path d="M15.999 16.0041C16.8274 16.0041 17.499 15.3326 17.499 14.5041C17.499 13.6757 16.8274 13.0041 15.999 13.0041C15.1706 13.0041 14.499 13.6757 14.499 14.5041C14.499 15.3326 15.1706 16.0041 15.999 16.0041Z" fill="currentcolor"/>
<path d="M19.999 16.0041C20.8274 16.0041 21.499 15.3326 21.499 14.5041C21.499 13.6757 20.8274 13.0041 19.999 13.0041C19.1706 13.0041 18.499 13.6757 18.499 14.5041C18.499 15.3326 19.1706 16.0041 19.999 16.0041Z" fill="currentcolor"/>
<path d="M24 16.0041C24.8284 16.0041 25.5 15.3326 25.5 14.5041C25.5 13.6757 24.8284 13.0041 24 13.0041C23.1716 13.0041 22.5 13.6757 22.5 14.5041C22.5 15.3326 23.1716 16.0041 24 16.0041Z" fill="currentcolor"/>
<path d="M7.999 19.9999C8.82743 19.9999 9.499 19.3283 9.499 18.4999C9.499 17.6715 8.82743 16.9999 7.999 16.9999C7.17057 16.9999 6.499 17.6715 6.499 18.4999C6.499 19.3283 7.17057 19.9999 7.999 19.9999Z" fill="currentcolor"/>
<path d="M11.999 19.9999C12.8274 19.9999 13.499 19.3283 13.499 18.4999C13.499 17.6715 12.8274 16.9999 11.999 16.9999C11.1706 16.9999 10.499 17.6715 10.499 18.4999C10.499 19.3283 11.1706 19.9999 11.999 19.9999Z" fill="currentcolor"/>
<path d="M15.999 19.9999C16.8274 19.9999 17.499 19.3283 17.499 18.4999C17.499 17.6715 16.8274 16.9999 15.999 16.9999C15.1706 16.9999 14.499 17.6715 14.499 18.4999C14.499 19.3283 15.1706 19.9999 15.999 19.9999Z" fill="currentcolor"/>
<path d="M19.999 19.9999C20.8274 19.9999 21.499 19.3283 21.499 18.4999C21.499 17.6715 20.8274 16.9999 19.999 16.9999C19.1706 16.9999 18.499 17.6715 18.499 18.4999C18.499 19.3283 19.1706 19.9999 19.999 19.9999Z" fill="currentcolor"/>
<path d="M24 19.9999C24.8284 19.9999 25.5 19.3283 25.5 18.4999C25.5 17.6715 24.8284 16.9999 24 16.9999C23.1716 16.9999 22.5 17.6715 22.5 18.4999C22.5 19.3283 23.1716 19.9999 24 19.9999Z" fill="currentcolor"/>
<path d="M7.999 24.0041C8.82743 24.0041 9.499 23.3326 9.499 22.5041C9.499 21.6757 8.82743 21.0041 7.999 21.0041C7.17057 21.0041 6.499 21.6757 6.499 22.5041C6.499 23.3326 7.17057 24.0041 7.999 24.0041Z" fill="currentcolor"/>
<path d="M11.999 24.0041C12.8274 24.0041 13.499 23.3326 13.499 22.5041C13.499 21.6757 12.8274 21.0041 11.999 21.0041C11.1706 21.0041 10.499 21.6757 10.499 22.5041C10.499 23.3326 11.1706 24.0041 11.999 24.0041Z" fill="currentcolor"/>
<path d="M15.999 24.0041C16.8274 24.0041 17.499 23.3326 17.499 22.5041C17.499 21.6757 16.8274 21.0041 15.999 21.0041C15.1706 21.0041 14.499 21.6757 14.499 22.5041C14.499 23.3326 15.1706 24.0041 15.999 24.0041Z" fill="currentcolor"/>
<path d="M19.999 24.0041C20.8274 24.0041 21.499 23.3326 21.499 22.5041C21.499 21.6757 20.8274 21.0041 19.999 21.0041C19.1706 21.0041 18.499 21.6757 18.499 22.5041C18.499 23.3326 19.1706 24.0041 19.999 24.0041Z" fill="currentcolor"/>
<path d="M24 24.0041C24.8284 24.0041 25.5 23.3326 25.5 22.5041C25.5 21.6757 24.8284 21.0041 24 21.0041C23.1716 21.0041 22.5 21.6757 22.5 22.5041C22.5 23.3326 23.1716 24.0041 24 24.0041Z" fill="currentcolor"/>
</svg>
