<svg width="32" height="32" viewBox="0 0 32 32" fill="none" xmlns="http://www.w3.org/2000/svg">
<path d="M2.25439 7.09091H3.27258V4.54545H5.81803V3.52727H2.25439V7.09091Z" fill="currentcolor"/>
<path d="M28.7271 28.9818H3.27258V9.12727H2.25439V30H29.7453V9.12727H28.7271V28.9818Z" fill="currentcolor"/>
<path d="M26.1817 4.54545H28.7271V7.09091H29.7453V3.52727H26.1817V4.54545Z" fill="currentcolor"/>
<path d="M9.38167 2H8.36349V5.05455H9.38167V2Z" fill="currentcolor"/>
<path d="M23.6362 2H22.618V5.05455H23.6362V2Z" fill="currentcolor"/>
<path d="M20.0726 3.52727H11.9271V4.54545H20.0726V3.52727Z" fill="currentcolor"/>
<path d="M28.218 7.6H3.78167V8.61818H28.218V7.6Z" fill="currentcolor"/>
<path d="M7.8529 15.7493C8.41523 15.7493 8.87108 15.2935 8.87108 14.7311C8.87108 14.1688 8.41523 13.7129 7.8529 13.7129C7.29058 13.7129 6.83472 14.1688 6.83472 14.7311C6.83472 15.2935 7.29058 15.7493 7.8529 15.7493Z" fill="currentcolor"/>
<path d="M11.9256 15.7493C12.488 15.7493 12.9438 15.2935 12.9438 14.7311C12.9438 14.1688 12.488 13.7129 11.9256 13.7129C11.3633 13.7129 10.9074 14.1688 10.9074 14.7311C10.9074 15.2935 11.3633 15.7493 11.9256 15.7493Z" fill="currentcolor"/>
<path d="M15.9984 15.7493C16.5607 15.7493 17.0165 15.2935 17.0165 14.7311C17.0165 14.1688 16.5607 13.7129 15.9984 13.7129C15.436 13.7129 14.9802 14.1688 14.9802 14.7311C14.9802 15.2935 15.436 15.7493 15.9984 15.7493Z" fill="currentcolor"/>
<path d="M20.0711 15.7493C20.6334 15.7493 21.0893 15.2935 21.0893 14.7311C21.0893 14.1688 20.6334 13.7129 20.0711 13.7129C19.5088 13.7129 19.0529 14.1688 19.0529 14.7311C19.0529 15.2935 19.5088 15.7493 20.0711 15.7493Z" fill="currentcolor"/>
<path d="M24.1453 15.7493C24.7076 15.7493 25.1635 15.2935 25.1635 14.7311C25.1635 14.1688 24.7076 13.7129 24.1453 13.7129C23.583 13.7129 23.1271 14.1688 23.1271 14.7311C23.1271 15.2935 23.583 15.7493 24.1453 15.7493Z" fill="currentcolor"/>
<path d="M7.8529 19.8182C8.41523 19.8182 8.87108 19.3623 8.87108 18.8C8.87108 18.2377 8.41523 17.7818 7.8529 17.7818C7.29058 17.7818 6.83472 18.2377 6.83472 18.8C6.83472 19.3623 7.29058 19.8182 7.8529 19.8182Z" fill="currentcolor"/>
<path d="M11.9256 19.8182C12.488 19.8182 12.9438 19.3623 12.9438 18.8C12.9438 18.2377 12.488 17.7818 11.9256 17.7818C11.3633 17.7818 10.9074 18.2377 10.9074 18.8C10.9074 19.3623 11.3633 19.8182 11.9256 19.8182Z" fill="currentcolor"/>
<path d="M15.9984 19.8182C16.5607 19.8182 17.0165 19.3623 17.0165 18.8C17.0165 18.2377 16.5607 17.7818 15.9984 17.7818C15.436 17.7818 14.9802 18.2377 14.9802 18.8C14.9802 19.3623 15.436 19.8182 15.9984 19.8182Z" fill="currentcolor"/>
<path d="M20.0711 19.8182C20.6334 19.8182 21.0893 19.3623 21.0893 18.8C21.0893 18.2377 20.6334 17.7818 20.0711 17.7818C19.5088 17.7818 19.0529 18.2377 19.0529 18.8C19.0529 19.3623 19.5088 19.8182 20.0711 19.8182Z" fill="currentcolor"/>
<path d="M24.1453 19.8182C24.7076 19.8182 25.1635 19.3623 25.1635 18.8C25.1635 18.2377 24.7076 17.7818 24.1453 17.7818C23.583 17.7818 23.1271 18.2377 23.1271 18.8C23.1271 19.3623 23.583 19.8182 24.1453 19.8182Z" fill="currentcolor"/>
<path d="M7.8529 23.8948C8.41523 23.8948 8.87108 23.4389 8.87108 22.8766C8.87108 22.3143 8.41523 21.8584 7.8529 21.8584C7.29058 21.8584 6.83472 22.3143 6.83472 22.8766C6.83472 23.4389 7.29058 23.8948 7.8529 23.8948Z" fill="currentcolor"/>
<path d="M11.9256 23.8948C12.488 23.8948 12.9438 23.4389 12.9438 22.8766C12.9438 22.3143 12.488 21.8584 11.9256 21.8584C11.3633 21.8584 10.9074 22.3143 10.9074 22.8766C10.9074 23.4389 11.3633 23.8948 11.9256 23.8948Z" fill="currentcolor"/>
<path d="M15.9984 23.8948C16.5607 23.8948 17.0165 23.4389 17.0165 22.8766C17.0165 22.3143 16.5607 21.8584 15.9984 21.8584C15.436 21.8584 14.9802 22.3143 14.9802 22.8766C14.9802 23.4389 15.436 23.8948 15.9984 23.8948Z" fill="currentcolor"/>
<path d="M20.0711 23.8948C20.6334 23.8948 21.0893 23.4389 21.0893 22.8766C21.0893 22.3143 20.6334 21.8584 20.0711 21.8584C19.5088 21.8584 19.0529 22.3143 19.0529 22.8766C19.0529 23.4389 19.5088 23.8948 20.0711 23.8948Z" fill="currentcolor"/>
<path d="M24.1453 23.8948C24.7076 23.8948 25.1635 23.4389 25.1635 22.8766C25.1635 22.3143 24.7076 21.8584 24.1453 21.8584C23.583 21.8584 23.1271 22.3143 23.1271 22.8766C23.1271 23.4389 23.583 23.8948 24.1453 23.8948Z" fill="currentcolor"/>
</svg>
