<svg width="32" height="32" viewBox="0 0 32 32" fill="none" xmlns="http://www.w3.org/2000/svg">
<path d="M10.7852 28.5047L6.39221 28.5189L10.2422 24.3482H8.23626L4.20312 28.7174V30L11.3977 29.9767L14.0782 27.2961H11.9938L10.7852 28.5047Z" fill="currentcolor"/>
<path d="M13.5775 14.6834C12.918 14.0238 12.5398 13.0496 12.5399 12.0106C12.5399 10.9717 12.9182 9.99779 13.5775 9.33843C14.9611 7.95499 17.0476 7.95487 18.4312 9.33843C19.8009 10.7084 19.8049 13.2948 18.4431 14.6715L17.528 15.5022L19.6796 15.5038C21.4141 13.5223 21.346 10.1689 19.4735 8.29622C17.5285 6.35095 14.481 6.35107 12.5355 8.29622C11.6017 9.22985 11.066 10.5837 11.066 12.0106C11.066 13.4377 11.6015 14.7917 12.5388 15.7291L25.494 28.5185L21.2102 28.5047L10.1381 17.631C8.56963 16.0622 7.70601 13.9788 7.70613 11.7646C7.70625 9.55044 8.57012 7.46735 10.1384 5.8993C13.3732 2.66468 18.6362 2.66468 21.8706 5.8993C23.4386 7.46748 24.3021 9.55081 24.3021 11.7654C24.3021 13.9802 23.4386 16.0634 21.8706 17.6313L21.0986 18.4523H23.1232C26.718 14.6284 26.6498 8.59408 22.9129 4.85696C19.1038 1.04774 12.9058 1.04762 9.09632 4.85696C7.24957 6.70347 6.23253 9.15652 6.23229 11.7645C6.23204 14.3726 7.2492 16.8263 9.0962 18.6737L20.6055 29.9767L27.7963 30V28.7201L13.5778 14.6834H13.5775Z" fill="currentcolor"/>
</svg>
