<svg width="32" height="32" viewBox="0 0 32 32" fill="none" xmlns="http://www.w3.org/2000/svg">
<path d="M16.6926 20.7416H15.2719V23.5831H16.6926V20.7416Z" fill="currentcolor"/>
<path d="M16.6926 8.42875H15.2719V18.8474H16.6926V8.42875Z" fill="currentcolor"/>
<path d="M15.9941 30C8.27484 30 2 23.7252 2 16.0059C2 8.28668 8.27484 2 15.9941 2C23.7133 2 30 8.27484 30 16.0059C30 23.737 23.7133 30 15.9941 30ZM15.9941 3.42072C9.05624 3.42072 3.42072 9.06808 3.42072 16.0059C3.42072 22.9438 9.06808 28.5911 16.0059 28.5911C22.9438 28.5911 28.5793 22.9438 28.5793 16.0059C28.5793 9.06808 22.9319 3.42072 15.9941 3.42072Z" fill="currentcolor"/>
</svg>
