<svg width="32" height="32" viewBox="0 0 32 32" fill="none" xmlns="http://www.w3.org/2000/svg">
<path d="M8.13916 8.59901L2.62354 29.1838L3.43976 30L24.0245 24.4844V23.2717L9.352 8.59901H8.13916ZM3.73841 28.885L8.9129 9.5738L23.0497 23.7106L3.73841 28.885Z" fill="currentcolor"/>
<path d="M27.4998 14.1089C27.4998 15.2049 26.6082 16.0965 25.5121 16.0965C24.4161 16.0965 23.5246 15.2048 23.5246 14.1089V13.6091H22.5249V14.1089C22.5249 15.7561 23.865 17.0961 25.5121 17.0961C27.1593 17.0961 28.4995 15.7561 28.4995 14.1089V13.6091H27.4998V14.1089Z" fill="currentcolor"/>
<path d="M29.0227 2.87495C28.4585 2.31064 27.7083 2 26.9104 2C26.1126 2 25.3623 2.31077 24.7981 2.87483C23.6334 4.03956 23.6334 5.93479 24.7981 7.09952L25.1516 7.45302L25.8585 6.74614L25.505 6.39276C24.73 5.61777 24.73 4.35683 25.505 3.58184C25.8805 3.20647 26.3797 2.99966 26.9105 2.99966C27.4414 2.99966 27.9406 3.20647 28.3159 3.58184L28.6695 3.93534L29.3763 3.22846L29.0228 2.87508L29.0227 2.87495Z" fill="currentcolor"/>
<path d="M16.6533 10.0983C17.9721 10.0983 19.1823 9.2168 19.5395 7.88375C19.9659 6.29279 19.0182 4.65148 17.4271 4.22512L16.9443 4.09579L16.6856 5.06146L17.1685 5.19079C18.2271 5.47445 18.8577 6.56645 18.574 7.62509C18.2903 8.68373 17.198 9.31452 16.1397 9.03061L15.6569 8.90116L15.3981 9.86683L15.8809 9.99629C16.139 10.0654 16.3981 10.0984 16.6534 10.0984L16.6533 10.0983Z" fill="currentcolor"/>
</svg>
