<svg width="32" height="32" viewBox="0 0 32 32" fill="none" xmlns="http://www.w3.org/2000/svg">
<path d="M24 14.1719V4.99988C24 3.34575 22.6541 1.99988 21 1.99988H11C9.34588 1.99988 8 3.34575 8 4.99988V14.1719C6.83613 14.5848 6 15.6963 6 16.9999V20.9999H8V16.9999C8 16.4485 8.44863 15.9999 9 15.9999H23C23.5514 15.9999 24 16.4485 24 16.9999V20.9999H26V16.9999C26 15.6963 25.1639 14.5848 24 14.1719ZM10 13.9999V4.99988C10 4.4485 10.4486 3.99988 11 3.99988H21C21.5514 3.99988 22 4.4485 22 4.99988V13.9999H10Z" fill="currentcolor"/>
<path d="M20 9.99988H12V11.9999H20V9.99988Z" fill="currentcolor"/>
<path d="M24 29.9999V20.9999H22V27.9999H20V18.995L12 18.9999V27.9999H10V20.9999H8V29.9999H14V20.9991L18 20.9964V29.9999H24Z" fill="currentcolor"/>
</svg>
