<svg width="32" height="32" viewBox="0 0 32 32" fill="none" xmlns="http://www.w3.org/2000/svg">
<path d="M24 2H4V4H24V2Z" fill="currentcolor"/>
<path d="M8.58587 18L4 22.5858V4H2V25H4.41412L9.41413 20H24V18H8.58587Z" fill="currentcolor"/>
<path d="M26 14V4H24V18H26V16H28V14H26Z" fill="currentcolor"/>
<path d="M28 16V27.3385L25.9538 25H16V27H25.0462L27.6712 30H30V16H28Z" fill="currentcolor"/>
<path d="M16 21H14V25H16V21Z" fill="currentcolor"/>
<path d="M16 6H14V10H16V6Z" fill="currentcolor"/>
<path d="M16 12H14V16H16V12Z" fill="currentcolor"/>
<path d="M20 10H16V12H20V10Z" fill="currentcolor"/>
<path d="M14 10H10V12H14V10Z" fill="currentcolor"/>
</svg>
