<svg width="32" height="32" viewBox="0 0 32 32" fill="none" xmlns="http://www.w3.org/2000/svg">
<path d="M9.55911 20.7091L3.52727 27.1718V4.16365H2V29.6182H3.33305L10.2227 22.2364H28.2182V20.7091H9.55911Z" fill="currentcolor"/>
<path d="M30 4.16365H28.4727V20.4546H30V4.16365Z" fill="currentcolor"/>
<path d="M28.2182 2.38184H3.78182V3.90911H28.2182V2.38184Z" fill="currentcolor"/>
<path d="M7.85455 9.50911C6.3106 9.50911 5.05455 10.7652 5.05455 12.3091C5.05455 13.8531 6.3106 15.1091 7.85455 15.1091C9.39849 15.1091 10.6545 13.8531 10.6545 12.3091C10.6545 10.7652 9.39849 9.50911 7.85455 9.50911ZM7.85455 13.5818C7.15276 13.5818 6.58182 13.0109 6.58182 12.3091C6.58182 11.6073 7.15276 11.0364 7.85455 11.0364C8.55633 11.0364 9.12727 11.6073 9.12727 12.3091C9.12727 13.0109 8.55633 13.5818 7.85455 13.5818Z" fill="currentcolor"/>
<path d="M16 9.50911C14.4561 9.50911 13.2 10.7652 13.2 12.3091C13.2 13.8531 14.4561 15.1091 16 15.1091C17.5439 15.1091 18.8 13.8531 18.8 12.3091C18.8 10.7652 17.5439 9.50911 16 9.50911ZM16 13.5818C15.2982 13.5818 14.7273 13.0109 14.7273 12.3091C14.7273 11.6073 15.2982 11.0364 16 11.0364C16.7018 11.0364 17.2727 11.6073 17.2727 12.3091C17.2727 13.0109 16.7018 13.5818 16 13.5818Z" fill="currentcolor"/>
<path d="M24.1455 9.50911C22.6015 9.50911 21.3455 10.7652 21.3455 12.3091C21.3455 13.8531 22.6015 15.1091 24.1455 15.1091C25.6894 15.1091 26.9455 13.8531 26.9455 12.3091C26.9455 10.7652 25.6894 9.50911 24.1455 9.50911ZM24.1455 13.5818C23.4437 13.5818 22.8727 13.0109 22.8727 12.3091C22.8727 11.6073 23.4437 11.0364 24.1455 11.0364C24.8472 11.0364 25.4182 11.6073 25.4182 12.3091C25.4182 13.0109 24.8472 13.5818 24.1455 13.5818Z" fill="currentcolor"/>
</svg>
