<svg width="32" height="32" viewBox="0 0 32 32" fill="none" xmlns="http://www.w3.org/2000/svg">
<path d="M20.3171 11.2542L14.9012 20.5386L12.2609 17.8983H10.2475L14.0442 21.6949H15.8749L21.9654 11.2542H20.3171Z" fill="currentcolor"/>
<path d="M16 30C8.28042 30 2 23.7196 2 16C2 8.28042 8.28042 2 16 2C23.7196 2 30 8.28042 30 16C30 23.7196 23.7196 30 16 30ZM16 3.42373C9.06537 3.42373 3.42373 9.06549 3.42373 16C3.42373 22.9345 9.06537 28.5763 16 28.5763C22.9346 28.5763 28.5763 22.9345 28.5763 16C28.5763 9.06549 22.9346 3.42373 16 3.42373Z" fill="currentcolor"/>
</svg>
