<svg width="32" height="32" viewBox="0 0 32 32" fill="none" xmlns="http://www.w3.org/2000/svg">
<path d="M11.3336 9.09727V7.0086L9.47367 7.94239C8.78884 7.16131 7.78492 6.66676 6.66691 6.66676C4.60834 6.66676 2.93359 8.34151 2.93359 10.4001C2.93359 11.7788 3.68551 12.9846 4.80025 13.6312C5.34987 13.9499 5.9871 14.1334 6.66691 14.1334C7.34672 14.1334 7.98396 13.9499 8.53357 13.6312C9.64832 12.9846 10.4002 11.7788 10.4002 10.4001C10.4002 10.1285 10.3704 9.864 10.3151 9.60874L11.3336 9.09727ZM6.66691 12.2666C5.63768 12.2666 4.80025 11.4292 4.80025 10.4C4.80025 9.37074 5.63768 8.53331 6.66691 8.53331C7.69614 8.53331 8.53357 9.37074 8.53357 10.4C8.53357 11.4292 7.69614 12.2666 6.66691 12.2666Z" fill="currentcolor"/>
<path d="M7.60117 17.985V15.9999H5.73452V17.9844C4.12569 18.3996 2.93359 19.8631 2.93359 21.5999C2.93359 23.6585 4.60834 25.3332 6.66691 25.3332C7.78119 25.3332 8.7823 24.842 9.4669 24.0653C10.0471 23.4072 10.4002 22.5442 10.4002 21.5999C10.4002 19.8638 9.20907 18.4008 7.60117 17.985ZM6.66691 23.4666C5.63768 23.4666 4.80025 22.6291 4.80025 21.5999C4.80025 20.5707 5.63768 19.7333 6.66691 19.7333C7.69614 19.7333 8.53357 20.5707 8.53357 21.5999C8.53357 22.6291 7.69614 23.4666 6.66691 23.4666Z" fill="currentcolor"/>
<path d="M24.4011 14.0154V15.9999H26.2678V14.0149C27.8757 13.5991 29.0668 12.1361 29.0668 10.4C29.0668 8.34139 27.3921 6.66665 25.3335 6.66665C24.2192 6.66665 23.2181 7.15793 22.5335 7.93458C21.9533 8.59269 21.6002 9.45567 21.6002 10.4C21.6002 12.1367 22.7922 13.6002 24.4011 14.0154ZM25.3335 8.53331C26.3627 8.53331 27.2002 9.37074 27.2002 10.4C27.2002 11.4292 26.3627 12.2666 25.3335 12.2666C24.3043 12.2666 23.4668 11.4292 23.4668 10.4C23.4668 9.37074 24.3043 8.53331 25.3335 8.53331Z" fill="currentcolor"/>
<path d="M27.2002 18.3688C26.6505 18.0501 26.0133 17.8666 25.3335 17.8666C24.6537 17.8666 24.0165 18.0501 23.4668 18.3688C22.3521 19.0154 21.6002 20.2212 21.6002 21.5999C21.6002 21.8656 21.6285 22.1247 21.6816 22.3748L20.6669 22.881V24.9671L22.5157 24.0448C23.2007 24.8332 24.2094 25.3332 25.3335 25.3332C27.3921 25.3332 29.0668 23.6585 29.0668 21.5999C29.0668 20.2212 28.3149 19.0154 27.2002 18.3688ZM25.3335 23.4666C24.3043 23.4666 23.4668 22.6291 23.4668 21.5999C23.4668 20.5707 24.3043 19.7333 25.3335 19.7333C26.3627 19.7333 27.2002 20.5707 27.2002 21.5999C27.2002 22.6291 26.3627 23.4666 25.3335 23.4666Z" fill="currentcolor"/>
<path d="M16.0002 9.46664C17.1193 9.46664 18.124 8.97115 18.8088 8.18867L20.6669 9.11384V7.02855L19.6489 6.52175C19.7039 6.26742 19.7335 6.00387 19.7335 5.73332C19.7335 3.67474 18.0588 2 16.0002 2C13.9416 2 12.2669 3.67474 12.2669 5.73332C12.2669 6.67761 12.62 7.54059 13.2002 8.19871C13.8848 8.97535 14.8859 9.46664 16.0002 9.46664ZM16.0002 3.86666C17.0294 3.86666 17.8669 4.70409 17.8669 5.73332C17.8669 6.76255 17.0294 7.59998 16.0002 7.59998C14.971 7.59998 14.1335 6.76255 14.1335 5.73332C14.1335 4.70409 14.971 3.86666 16.0002 3.86666Z" fill="currentcolor"/>
<path d="M16.0002 22.5332C14.8781 22.5332 13.8709 23.0315 13.186 23.8176L11.3336 22.8894V24.9773L12.3495 25.4864C12.2957 25.7382 12.2669 25.9991 12.2669 26.2667C12.2669 28.3253 13.9416 30 16.0002 30C17.7367 30 19.1999 28.8084 19.6153 27.2C19.6925 26.9016 19.7335 26.5888 19.7335 26.2667C19.7335 25.3224 19.3804 24.4594 18.8002 23.8013C18.1156 23.0246 17.1145 22.5334 16.0002 22.5334V22.5332ZM16.0002 28.1332C14.971 28.1332 14.1335 27.2958 14.1335 26.2666C14.1335 25.2373 14.971 24.3999 16.0002 24.3999C17.0294 24.3999 17.8669 25.2373 17.8669 26.2666C17.8669 27.2958 17.0294 28.1332 16.0002 28.1332Z" fill="currentcolor"/>
</svg>
