<svg width="32" height="32" viewBox="0 0 32 32" fill="none" xmlns="http://www.w3.org/2000/svg">
<path d="M28.2808 24.0308V18.4237L22.8773 15.1816L17.4737 18.4237V24.8746L22.386 27.822V30H23.3685V27.822L28.0352 25.022L29.7545 26.0045V24.8729L28.2808 24.0308ZM27.2983 24.3184L22.8773 26.9711L18.4562 24.3184V18.9799L22.8773 16.3272L27.2983 18.9799V24.3184Z" fill="currentcolor"/>
<path d="M3.7193 18.4237V24.0308L2.24561 24.8729V26.0045L3.96491 25.022L8.6316 27.822V30H9.61406V27.822L14.5264 24.8746V18.4237L9.12283 15.1816L3.7193 18.4237ZM13.5439 24.3184L9.12283 26.9711L4.70176 24.3184V18.9799L9.12283 16.3272L13.5439 18.9799V24.3184Z" fill="currentcolor"/>
<path d="M21.4036 7.14674L23.1122 6.19756C23.5565 6.63893 24.1679 6.9123 24.8422 6.9123C26.1965 6.9123 27.2983 5.81047 27.2983 4.45615C27.2983 3.10183 26.1965 2 24.8422 2C23.4879 2 22.386 3.10183 22.386 4.45615C22.386 4.78171 22.4511 5.09205 22.5667 5.37672L21.2438 6.11172L16.0028 2.8992L10.7026 6.0793L9.43378 5.37561C9.54909 5.09131 9.61394 4.78135 9.61394 4.45627C9.61394 3.10195 8.51211 2.00012 7.15779 2.00012C5.80346 2.00012 4.70163 3.10195 4.70163 4.45627C4.70163 5.8106 5.80346 6.91243 7.15779 6.91243C7.83249 6.91243 8.44432 6.63869 8.88864 6.19683L10.598 7.1449L10.6104 12.5896L16.0125 15.8361L21.4033 12.6161V7.14699L21.4036 7.14674ZM24.8422 2.98246C25.6548 2.98246 26.3159 3.64353 26.3159 4.45615C26.3159 5.26877 25.6548 5.92984 24.8422 5.92984C24.0296 5.92984 23.3685 5.26877 23.3685 4.45615C23.3685 3.64353 24.0296 2.98246 24.8422 2.98246ZM7.15791 5.92984C6.34529 5.92984 5.68422 5.26877 5.68422 4.45615C5.68422 3.64353 6.34529 2.98246 7.15791 2.98246C7.97053 2.98246 8.6316 3.64353 8.6316 4.45615C8.6316 5.26877 7.97053 5.92984 7.15791 5.92984ZM20.4211 12.0583L16.0143 14.6906L11.5918 12.0328L11.5796 6.69886L15.9974 4.04831L20.4211 6.7599V12.0583Z" fill="currentcolor"/>
</svg>
