<svg width="32" height="32" viewBox="0 0 32 32" fill="none" xmlns="http://www.w3.org/2000/svg">
<path d="M6.5 6.7645H12.75V2.0145H11.25V5.2645H6.49688C5.24788 5.26975 3.875 5.65925 2.63125 6.36138C2.41262 6.48475 2.20238 6.61763 2 6.75875V8.70513C2.39613 8.30813 2.853 7.95863 3.36875 7.6675C4.37813 7.09763 5.52063 6.76875 6.5 6.7645Z" fill="currentcolor"/>
<path d="M5.75 13.9999H4.25V17.4999C4.25 19.0028 3.31088 20.3323 2 20.9238V22.5213C3.08513 22.1851 4.03313 21.4985 4.70438 20.5996C4.85387 20.9319 5.03725 21.2469 5.25 21.5404V30H6.75V22.9484C7.55563 23.4568 8.50025 23.7544 9.5 23.7544H15V22.2544H9.5C7.46725 22.2544 5.75 20.5371 5.75 18.5044V13.9999Z" fill="currentcolor"/>
<path d="M27.75 17.722V13.9955H26.25V18.504C26.25 20.5368 24.5328 22.254 22.5 22.254H17V23.754H22.5C23.5041 23.754 24.4528 23.4536 25.2608 22.9411L25.2638 30.0001L26.7638 29.9994L26.7601 21.5261C26.9461 21.2676 27.1098 20.9929 27.2474 20.7041C27.9138 21.5826 28.8731 22.2371 30.0001 22.5479V20.9653C28.6645 20.4308 27.7501 19.1955 27.7501 17.7219L27.75 17.722Z" fill="currentcolor"/>
<path d="M29.3688 6.34688C28.1253 5.64475 26.7525 5.25525 25.5 5.25H20.75V2H19.25V6.75H25.4969C26.4796 6.75413 27.6221 7.08325 28.6314 7.65313C29.1449 7.943 29.6023 8.29788 30 8.703V6.7445C29.7976 6.60325 29.5873 6.47025 29.3688 6.34688Z" fill="currentcolor"/>
</svg>
