<svg width="32" height="32" viewBox="0 0 32 32" fill="none" xmlns="http://www.w3.org/2000/svg">
<path d="M16 30C8.2804 30 2 23.7196 2 16C2 8.2804 8.2804 2 16 2C23.7196 2 30 8.2804 30 16C30 23.7196 23.7196 30 16 30ZM16 3.86667C9.30963 3.86667 3.86667 9.30963 3.86667 16C3.86667 22.6904 9.30963 28.1333 16 28.1333C22.6904 28.1333 28.1333 22.6904 28.1333 16C28.1333 9.30963 22.6903 3.86667 16 3.86667Z" fill="currentcolor"/>
<path d="M16.9513 6.66667H15.0846V15.0621H16.9513V6.66667Z" fill="currentcolor"/>
<path d="M21.618 15.0667H16.9517V16.9333H21.618V15.0667Z" fill="currentcolor"/>
</svg>
