<svg width="32" height="32" viewBox="0 0 32 32" fill="none" xmlns="http://www.w3.org/2000/svg">
<path d="M16 1.5C8.00462 1.5 1.5 8.00462 1.5 16C1.5 23.9954 8.00462 30.5 16 30.5C23.9954 30.5 30.5 23.9954 30.5 16C30.5 8.00462 23.9954 1.5 16 1.5ZM16 29.5C8.556 29.5 2.5 23.444 2.5 16C2.5 8.556 8.55612 2.5 16 2.5C23.4439 2.5 29.5 8.556 29.5 16C29.5 23.444 23.444 29.5 16 29.5Z" fill="currentcolor"/>
<path d="M22.7041 8.5805L16.3401 14.9445L17.0472 15.6515L23.4111 9.28752L22.7041 8.5805Z" fill="currentcolor"/>
<path d="M17.047 16.3585L16.3399 17.0655L22.7037 23.4298L23.4108 22.7228L17.047 16.3585Z" fill="currentcolor"/>
<path d="M14.9255 16.3583L8.56158 22.7222L9.2686 23.4292L15.6326 17.0653L14.9255 16.3583Z" fill="currentcolor"/>
<path d="M9.2691 8.57995L8.56205 9.28694L14.9259 15.6512L15.6329 14.9442L9.2691 8.57995Z" fill="currentcolor"/>
</svg>
