<svg width="32" height="32" viewBox="0 0 32 32" fill="none" xmlns="http://www.w3.org/2000/svg">
<path d="M23.7253 15.5148H21.795V28.0686H10.2069V15.5148H8.27551V30H23.7264V19.3822H23.7253V15.5148Z" fill="currentcolor"/>
<path d="M25.092 6.82369H18.898V7.78937C18.898 9.38672 17.5983 10.6864 16.0009 10.6864C14.4036 10.6864 13.1039 9.38672 13.1039 7.78937V6.82369H6.90992L2.48047 11.2531V13.9824L6.34319 17.8452V15.1138L3.84715 12.6179L7.70986 8.75517H11.2696C11.7183 10.9563 13.6693 12.6179 16.0009 12.6179C18.3326 12.6179 20.2836 10.9563 20.7323 8.75517H24.292L28.1547 12.6179L25.6567 15.116V17.8474L29.5194 13.9846V11.2511L25.092 6.82369Z" fill="currentcolor"/>
<path d="M15.9999 3.93136C16.5323 3.93136 16.9655 4.36459 16.9655 4.89704C16.9655 5.42949 16.5323 5.86272 15.9999 5.86272H15.0342V8.75976H16.9655V7.62858C18.0896 7.23 18.8969 6.15604 18.8969 4.89704C18.8969 3.29968 17.5972 2 15.9999 2C14.4025 2 13.1028 3.29968 13.1028 4.89704H15.0342C15.0342 4.36459 15.4674 3.93136 15.9999 3.93136Z" fill="currentcolor"/>
</svg>
