<svg width="32" height="32" viewBox="0 0 32 32" fill="none" xmlns="http://www.w3.org/2000/svg">
<path d="M19.2667 5.26647C18.4655 5.26647 17.6849 5.35537 16.9333 5.52267V8.19317C19.7094 9.69268 21.6 12.6294 21.6 15.9999C21.6 19.3704 19.7094 22.307 16.9333 23.8067V26.4772C17.6849 26.6445 18.4655 26.7334 19.2667 26.7334C25.1851 26.7334 30 21.9184 30 16C30 10.0817 25.1851 5.2667 19.2667 5.2667V5.26647ZM19.2667 24.8665C19.108 24.8665 18.9504 24.8618 18.7937 24.8536C21.6134 22.9174 23.4667 19.6712 23.4667 15.9998C23.4667 12.3284 21.6134 9.08217 18.7937 7.14597C18.9504 7.13769 19.108 7.13313 19.2667 7.13313C24.1558 7.13313 28.1333 11.1107 28.1333 15.9998C28.1333 20.8889 24.1558 24.8665 19.2667 24.8665Z" fill="currentcolor"/>
<path d="M2 15.9998C2 21.9182 6.81495 26.7331 12.7333 26.7331C13.5345 26.7331 14.3151 26.6442 15.0667 26.4769V23.8064C12.2906 22.3069 10.4 19.3702 10.4 15.9997C10.4 12.6292 12.2906 9.69257 15.0667 8.19293V5.52244C14.3151 5.35514 13.5345 5.26624 12.7333 5.26624C6.81495 5.26624 2 10.0812 2 15.9996V15.9998ZM8.53333 15.9998C8.53333 19.6712 10.3866 22.9174 13.2063 24.8536C13.0496 24.8619 12.892 24.8665 12.7333 24.8665C7.84418 24.8665 3.86667 20.8889 3.86667 15.9998C3.86667 11.1107 7.84418 7.13313 12.7333 7.13313C12.892 7.13313 13.0496 7.1378 13.2063 7.14597C10.3866 9.08217 8.53333 12.3284 8.53333 15.9998Z" fill="currentcolor"/>
</svg>
