<svg width="32" height="32" viewBox="0 0 32 32" fill="none" xmlns="http://www.w3.org/2000/svg">
<path d="M19.3793 5.37927C18.5492 5.37927 17.7412 5.47522 16.9655 5.65613V7.38176C20.1123 8.97474 22.2759 12.2384 22.2759 16C22.2759 19.7615 20.1123 23.0252 16.9655 24.6182V26.3438C17.7412 26.5248 18.5492 26.6207 19.3793 26.6207C25.2355 26.6207 30 21.8562 30 16C30 10.1437 25.2355 5.37927 19.3793 5.37927ZM19.3793 25.6551C18.7171 25.6551 18.0702 25.5879 17.4451 25.4602C20.883 23.7 23.2414 20.1202 23.2414 16C23.2414 11.8797 20.8829 8.29996 17.4451 6.5397C18.0703 6.41213 18.7171 6.34479 19.3793 6.34479C24.7032 6.34479 29.0345 10.6761 29.0345 16C29.0345 21.3238 24.7032 25.6551 19.3793 25.6551Z" fill="currentcolor"/>
<path d="M2 16C2 21.8562 6.76447 26.6207 12.6207 26.6207C13.4508 26.6207 14.2588 26.5247 15.0345 26.3438V24.6182C11.8877 23.0252 9.72414 19.7615 9.72414 16C9.72414 12.2384 11.8877 8.97474 15.0345 7.38176V5.65613C14.2588 5.4751 13.4508 5.37927 12.6207 5.37927C6.76447 5.37927 2 10.1437 2 16ZM8.75862 16C8.75862 20.1203 11.1171 23.7 14.5549 25.4602C13.9297 25.5878 13.2829 25.6551 12.6207 25.6551C7.29683 25.6551 2.96552 21.3238 2.96552 16C2.96552 10.6761 7.29683 6.34479 12.6207 6.34479C13.2829 6.34479 13.9298 6.41201 14.5549 6.5397C11.117 8.29996 8.75862 11.8797 8.75862 16Z" fill="currentcolor"/>
</svg>
