<svg width="32" height="32" viewBox="0 0 32 32" fill="none" xmlns="http://www.w3.org/2000/svg">
<path d="M19.322 5.32202C18.5067 5.32202 17.7126 5.41421 16.9492 5.58814V7.79445C19.9073 9.3405 21.9322 12.4373 21.9322 16C21.9322 19.5626 19.9073 22.6595 16.9492 24.2055V26.4118C17.7126 26.5858 18.5067 26.678 19.322 26.678C25.2099 26.678 30 21.8878 30 16C30 10.1122 25.2099 5.32202 19.322 5.32202ZM19.322 25.2542C18.9192 25.2542 18.5232 25.2255 18.1338 25.1753C21.2584 23.3104 23.3559 19.8957 23.3559 16C23.3559 12.1043 21.2584 8.68961 18.1338 6.82465C18.5232 6.77446 18.9192 6.74575 19.322 6.74575C24.4248 6.74575 28.5763 10.8972 28.5763 16C28.5763 21.1028 24.4248 25.2542 19.322 25.2542Z" fill="currentcolor"/>
<path d="M2 16C2 21.8878 6.79014 26.678 12.678 26.678C13.4933 26.678 14.2874 26.5858 15.0508 26.4118V24.2055C12.0927 22.6595 10.0678 19.5626 10.0678 16C10.0678 12.4373 12.0927 9.3405 15.0508 7.79445V5.58814C14.2874 5.41421 13.4933 5.32202 12.678 5.32202C6.79014 5.32202 2 10.1122 2 16ZM8.64407 16C8.64407 19.8958 10.7416 23.3104 13.8662 25.1753C13.4768 25.2255 13.0808 25.2542 12.678 25.2542C7.5752 25.2542 3.42373 21.1028 3.42373 16C3.42373 10.8972 7.5752 6.74575 12.678 6.74575C13.0808 6.74575 13.4768 6.77446 13.8662 6.82465C10.7416 8.68961 8.64407 12.1043 8.64407 16Z" fill="currentcolor"/>
</svg>
