<svg width="32" height="32" viewBox="0 0 32 32" fill="none" xmlns="http://www.w3.org/2000/svg">
<path d="M19.8179 9.89075C19.8179 8.13808 18.6303 6.65829 17.0179 6.21156V7.84166C17.771 8.21737 18.2906 8.9936 18.2906 9.89087C18.2906 10.7881 17.771 11.5642 17.0179 11.9401V13.5702C18.6303 13.1233 19.8179 11.6437 19.8179 9.891V9.89075Z" fill="currentcolor"/>
<path d="M14.9815 7.84154V6.21144C13.3691 6.65829 12.1816 8.13795 12.1816 9.89062C12.1816 11.6433 13.3691 13.1231 14.9815 13.5698V11.9397C14.2285 11.564 13.7088 10.7878 13.7088 9.89049C13.7088 8.99322 14.2285 8.21712 14.9815 7.84128V7.84154Z" fill="currentcolor"/>
<path d="M16.7634 3.77672H15.2361V5.81307H16.7634V3.77672Z" fill="currentcolor"/>
<path d="M26.9451 11.6108V9.88947C26.9374 5.53918 23.3975 2 19.0543 2H17.0189V3.52739H19.0541C22.5568 3.52739 25.4115 6.38262 25.4177 9.89087V12.2435L29.4287 16.2545H25.4177V22.109C25.4177 23.9336 23.9332 25.4181 22.1087 25.4181H20.3269V28.4726H16.7632V13.9586H15.236V28.4726H11.6723V25.4181H9.89053C8.06596 25.4181 6.58146 23.9336 6.58146 22.109V16.2545H2.57073L6.58197 12.2443L6.58617 9.87967C6.5924 6.37702 9.44712 3.52739 12.9498 3.52739H14.9824V2.00013H12.9498C8.60649 2.00013 5.06667 5.53371 5.0589 9.877L5.05585 11.6104L1.74512 14.9204V17.7819H5.05419V22.1091C5.05419 24.7759 7.2238 26.9455 9.89053 26.9455H10.1451V30H21.8541V26.9455H22.1087C24.7754 26.9455 26.945 24.7759 26.945 22.1091V17.7819H30.2541V14.9202L26.945 11.6111L26.9451 11.6108Z" fill="currentcolor"/>
</svg>
