<svg width="32" height="32" viewBox="0 0 32 32" fill="none" xmlns="http://www.w3.org/2000/svg">
<path d="M7 5V3H3V7H5V5H7Z" fill="currentcolor"/>
<path d="M26.9996 16.9951H24.9996V28H5V9H3V30H26.9996V16.9951Z" fill="currentcolor"/>
<path d="M26.9995 3H23V5H24.9998L25 6.9985H27L26.9995 3Z" fill="currentcolor"/>
<path d="M11 2H9V5H11V2Z" fill="currentcolor"/>
<path d="M21 2H19V5H21V2Z" fill="currentcolor"/>
<path d="M17 3H13V5H17V3Z" fill="currentcolor"/>
<path d="M23.001 7H5V9H23.001V7Z" fill="currentcolor"/>
<path d="M27.4142 7.9985H25.5859L11 22.5858V25.9999H14.4141L29 11.4126V9.58412L27.4142 7.9985ZM13.5859 24H13V23.4141L26.5 9.91275L27.0859 10.4985L13.5859 24Z" fill="currentcolor"/>
</svg>
