<svg width="32" height="32" viewBox="0 0 32 32" fill="none" xmlns="http://www.w3.org/2000/svg">
<path d="M26.691 15.7455V12.6909H5.30918V15.7455H2.25464V21.8545H5.30918V27.4545C5.30918 28.8581 6.45108 30 7.85464 30H24.1455C25.5491 30 26.691 28.8581 26.691 27.4545V21.8545H29.7455V15.7455H26.691ZM5.30918 20.8364H3.27282V16.7636H5.30918V20.8364ZM25.6728 27.4545C25.6728 28.2967 24.9877 28.9818 24.1455 28.9818H7.85464C7.01248 28.9818 6.32737 28.2967 6.32737 27.4545V13.7091H25.6728V27.4545ZM28.7274 20.8364H26.691V16.7636H28.7274V20.8364Z" fill="currentcolor"/>
<path d="M13.9485 7.08658C14.7878 7.08658 15.4706 7.7694 15.4706 8.60876V11.1636H16.4888V8.60876C16.4888 7.208 15.3492 6.0684 13.9485 6.0684C13.1091 6.0684 12.4263 5.38558 12.4263 4.54635V2H11.4081V4.54635C11.4081 5.94711 12.5477 7.08658 13.9485 7.08658Z" fill="currentcolor"/>
<path d="M20.0728 7.08658C20.9122 7.08658 21.595 7.7694 21.595 8.60876V11.1636H22.6132V8.60876C22.6132 7.208 21.4736 6.0684 20.0728 6.0684C19.2336 6.0684 18.5508 5.38558 18.5508 4.54635V2H17.5326V4.54635C17.5326 5.94711 18.6722 7.08658 20.0728 7.08658Z" fill="currentcolor"/>
<path d="M7.83937 7.08658C8.67873 7.08658 9.36155 7.7694 9.36155 8.60876V11.1636H10.3797V8.60876C10.3797 7.208 9.24013 6.0684 7.83937 6.0684C7 6.0684 6.31718 5.38558 6.31718 4.54635V2H5.299V4.54635C5.299 5.94711 6.4386 7.08658 7.83937 7.08658Z" fill="currentcolor"/>
</svg>
