<svg width="32" height="32" viewBox="0 0 32 32" fill="none" xmlns="http://www.w3.org/2000/svg">
<path d="M25.999 9.10069V11.4331L27.5554 12.3669L25.999 13.3008V15.6332L29.999 13.2331V11.5008L25.999 9.10069Z" fill="currentcolor"/>
<path d="M13 11.3669H2V13.3669H13V11.3669Z" fill="currentcolor"/>
<path d="M15.999 4.81057L16.9327 6.36694H19.2652L16.8652 2.36694H15.1327L12.7327 6.36694H15.0652L15.999 4.81057Z" fill="currentcolor"/>
<path d="M25.999 23.1007V25.4331L27.5554 26.3669L25.999 27.3008V29.6332L29.999 27.2331V25.5008L25.999 23.1007Z" fill="currentcolor"/>
<path d="M16.999 8.36207H14.999V18.3669H2V20.3669H16.999V8.36207Z" fill="currentcolor"/>
<path d="M24 25.3669H2V27.3669H24V25.3669Z" fill="currentcolor"/>
<path d="M24 11.3669H19V13.3669H24V11.3669Z" fill="currentcolor"/>
</svg>
