<svg width="32" height="32" viewBox="0 0 32 32" fill="none" xmlns="http://www.w3.org/2000/svg">
<path d="M12.4994 22.0001C13.3278 22.0001 13.9994 21.3286 13.9994 20.5001C13.9994 19.6717 13.3278 19.0001 12.4994 19.0001C11.6709 19.0001 10.9994 19.6717 10.9994 20.5001C10.9994 21.3286 11.6709 22.0001 12.4994 22.0001Z" fill="currentcolor"/>
<path d="M21.9994 28.0001V24.9918L19.9994 25.0001C18.3375 25.0001 16.9856 23.6525 16.9856 21.9959V15.9959H13.4349L17.0015 12.4106L16.9891 10.0017C16.995 6.69238 19.6911 4 22.9994 4H29.9994V2H22.9994C18.5904 2 14.9969 5.588 14.9891 10.0051L14.9972 11.5894L11.9994 14.6029V17.9957H14.9856V21.9958C14.9856 24.7537 17.2325 26.9977 19.9994 27V30H30.0007V28H21.9994V28.0001Z" fill="currentcolor"/>
<path d="M12.346 23.4416L12.3084 23.419C11.7326 23.0731 11.0576 22.9761 10.4076 23.1455C9.75761 23.3151 9.21624 23.7298 8.88299 24.3129L7.99936 25.8594V23.2536L9.61361 21.1473C10.0802 20.5384 10.2782 19.7572 10.16 19C10.1586 18.9914 10.1579 18.9828 10.1564 18.9741C10.0294 18.2086 9.58624 17.5229 8.94061 17.0924C8.34111 16.6926 7.64799 16.5504 6.98849 16.6425C6.29974 16.7388 5.64786 17.0906 5.17836 17.679L1.99924 21.6632V30H3.99924V22.3633L6.74161 18.9263C6.81161 18.8384 6.89599 18.7693 6.98836 18.7184C7.24674 18.5763 7.56961 18.5819 7.83099 18.7564C7.92861 18.8214 8.00861 18.9044 8.06886 19C8.12574 19.0904 8.16499 19.1921 8.18311 19.3014C8.22049 19.5263 8.16474 19.7498 8.02599 19.9308L5.99911 22.5755V28H9.07949L10.6194 25.3051C10.7057 25.1539 10.8402 25.0995 10.9126 25.0806C10.9847 25.0618 11.1287 25.0434 11.2781 25.1331L11.3157 25.1558C11.5271 25.2829 11.6067 25.5553 11.4967 25.776C10.9547 26.8639 10.1694 28.4411 9.64799 29.4883C9.55324 29.6786 9.46749 29.8509 9.39324 30H11.6275C12.1367 28.9772 12.807 27.6309 13.2867 26.668C13.859 25.5196 13.4456 24.1024 12.3459 23.4415L12.346 23.4416Z" fill="currentcolor"/>
</svg>
