<svg width="32" height="32" viewBox="0 0 32 32" fill="none" xmlns="http://www.w3.org/2000/svg">
<path d="M22.0016 22.9928H19.9942C18.3438 22.9927 16.9983 21.6498 16.9951 19.9993L16.9872 15.99H13.4393L17.0028 12.4078L17.0041 8.99653L15.0045 8.99578L15.0035 11.5824L12.0051 14.5965V17.9895H14.9916L14.9956 20.0033C15.001 22.7541 17.2434 24.9921 19.9941 24.9921H20.0021V29.9908H29.9911V27.9913H22.0016V22.9928Z" fill="currentcolor"/>
<path d="M30 1.99793L15.0033 1.99756V2.99732C15.0033 6.85616 18.1427 9.99567 22.0016 9.99567H24.0012V24.9921H29.9911V22.9926H26.0007V7.99614H22.0016C19.5877 7.99614 17.5678 6.27592 17.1033 3.99709L30 3.99746V1.99793Z" fill="currentcolor"/>
<path d="M12.4978 22.0046C13.326 22.0046 13.9974 21.3332 13.9974 20.5049C13.9974 19.6767 13.326 19.0053 12.4978 19.0053C11.6695 19.0053 10.9981 19.6767 10.9981 20.5049C10.9981 21.3332 11.6695 22.0046 12.4978 22.0046Z" fill="currentcolor"/>
<path d="M12.3444 23.4457L12.3068 23.4231C11.7312 23.0773 11.0562 22.9801 10.4065 23.1497C9.75666 23.3193 9.21542 23.7338 8.88225 24.3168L7.99883 25.8629V23.2578L9.6127 21.1519C10.0816 20.54 10.2795 19.7541 10.1572 18.9934C10.1564 18.9887 10.1561 18.9839 10.1552 18.9792C10.0282 18.2138 9.58521 17.5283 8.93973 17.098C8.3425 16.6997 7.65241 16.5574 6.99519 16.6473C6.30398 16.7421 5.64926 17.0941 5.17837 17.6843L2 21.6677V30.0024H3.99953V22.3675L6.74125 18.9313C6.81311 18.8413 6.90009 18.771 6.99507 18.7199C7.25226 18.5818 7.57143 18.5888 7.8305 18.7615C7.92397 18.8238 8.00158 18.9026 8.06094 18.9932C8.12193 19.0864 8.16354 19.1922 8.18254 19.3062C8.2199 19.531 8.16417 19.7545 8.02545 19.9354L5.99905 22.5796V28.0028H9.0787L10.6182 25.3085C10.7046 25.1573 10.839 25.103 10.9114 25.0841C10.9835 25.0652 11.1275 25.0469 11.2768 25.1366L11.3144 25.1592C11.5257 25.2863 11.6054 25.5586 11.4954 25.7793C10.8549 27.0646 9.87501 29.0329 9.39238 30.0023H11.6261C12.1352 28.9798 12.8054 27.6339 13.285 26.6711C13.8571 25.523 13.4438 24.1061 12.3443 23.4454L12.3444 23.4457Z" fill="currentcolor"/>
</svg>
