<svg width="32" height="32" viewBox="0 0 32 32" fill="none" xmlns="http://www.w3.org/2000/svg">
<path d="M21.3472 23.3743H19.8123C17.8517 23.3743 16.2534 21.7791 16.2496 19.8185L16.2425 16.2441H11.9136L16.2574 11.8779L16.2586 8.61448L15.2407 8.6141L15.2397 11.4577L11.6777 15.0381V17.2622H15.2264L15.2315 19.8205C15.2365 22.3415 17.2913 24.3923 19.812 24.3923H20.3291V29.4819H29.9908V28.4639H21.3471V23.3744L21.3472 23.3743Z" fill="currentcolor"/>
<path d="M15.2395 2.50617C15.2395 6.15461 18.2077 9.12281 21.8562 9.12281H24.401V24.392H29.991V23.3741H25.419V8.10487H21.8562C18.9405 8.10487 16.5383 5.86488 16.2805 3.01514L30 3.01552V1.99757L15.2395 1.99719V2.50617Z" fill="currentcolor"/>
<path d="M12.1795 21.3501C12.7417 21.3501 13.1974 20.8944 13.1974 20.3322C13.1974 19.77 12.7417 19.3142 12.1795 19.3142C11.6173 19.3142 11.1615 19.77 11.1615 20.3322C11.1615 20.8944 11.6173 21.3501 12.1795 21.3501Z" fill="currentcolor"/>
<path d="M8.27462 17.2869C7.75343 16.9392 7.14788 16.8237 6.57707 16.9195C6.02407 17.0123 5.50352 17.3034 5.12497 17.7779L2 21.6943V30.0027H3.01795V22.0507L5.92062 18.4128C6.0966 18.1921 6.32691 18.0422 6.57694 17.9657C6.94747 17.8523 7.36165 17.9018 7.70979 18.1339C7.95269 18.2958 8.12982 18.5253 8.22576 18.7934C8.25286 18.8691 8.27449 18.9474 8.28798 19.0288C8.34918 19.3982 8.2577 19.7653 8.02993 20.0624L6.07166 22.6176V27.4579H8.40288L9.8238 24.9712C9.95766 24.7371 10.175 24.5708 10.4358 24.5027C10.6968 24.4342 10.9675 24.4736 11.198 24.612L11.2368 24.6354C11.6782 24.9006 11.844 25.4692 11.6145 25.93C11.0092 27.1449 10.1059 28.9593 9.58637 30.0028H10.7235C11.2521 28.9412 12.0009 27.4373 12.5257 26.3841C12.9905 25.4511 12.6547 24.2996 11.7617 23.7633L11.723 23.7399C11.2553 23.4588 10.7071 23.3799 10.1788 23.5177C9.65088 23.6555 9.21087 23.9923 8.94023 24.4662L7.81234 26.44H7.08973V22.9628L8.83792 20.6816C9.23301 20.166 9.39856 19.5028 9.29218 18.8621C9.28836 18.8389 9.28162 18.8165 9.27704 18.7934C9.15616 18.1808 8.7953 17.6342 8.27449 17.287L8.27462 17.2869Z" fill="currentcolor"/>
</svg>
