<svg width="32" height="32" viewBox="0 0 32 32" fill="none" xmlns="http://www.w3.org/2000/svg">
<path d="M12.1813 21.3452C12.7436 21.3452 13.1994 20.8894 13.1994 20.3271C13.1994 19.7648 12.7436 19.309 12.1813 19.309C11.619 19.309 11.1632 19.7648 11.1632 20.3271C11.1632 20.8894 11.619 21.3452 12.1813 21.3452Z" fill="currentcolor"/>
<path d="M21.3445 25.4114L19.8173 25.4177C17.8447 25.4177 16.2398 23.8174 16.2398 21.8501V16.2504H11.9092L16.255 11.8821L16.2434 9.63761C16.2499 5.98799 19.2233 3.01886 22.8717 3.01886H29.9986V2.00073H22.8717C18.663 2.00073 15.2328 5.42585 15.2253 9.63939L15.2346 11.464L11.6722 15.045V17.2686H15.2217V21.8502C15.2217 24.3789 17.2833 26.436 19.8195 26.436L20.3264 26.4338V29.4904H30V28.4723H21.3445V25.4114Z" fill="currentcolor"/>
<path d="M8.27576 17.2812C7.75231 16.932 7.14372 16.8172 6.57064 16.9152C6.02022 17.0094 5.50262 17.2997 5.12553 17.7722L2 21.6894V29.9992H3.01813V22.0458L5.92133 18.4073C6.09569 18.1887 6.32324 18.0394 6.57052 17.9622C6.9429 17.8459 7.36033 17.8947 7.71082 18.1283C7.95734 18.2926 8.13589 18.5267 8.23083 18.7999C8.25591 18.8719 8.2764 18.9461 8.28912 19.0233C8.35034 19.3927 8.25883 19.7599 8.03103 20.0571L6.0724 22.6127V27.4539H8.40404L9.82523 24.9667C9.95911 24.7326 10.1765 24.5662 10.4374 24.4981C10.6983 24.4298 10.9692 24.469 11.1997 24.6075L11.2385 24.6309C11.68 24.8961 11.8458 25.4649 11.6162 25.9257C11.0108 27.1408 10.1074 28.9555 9.58775 29.9992H10.7251C11.2538 28.9374 12.0028 27.4333 12.5276 26.3799C12.9925 25.4467 12.6566 24.295 11.7635 23.7586L11.7248 23.7352C11.2568 23.454 10.7087 23.3753 10.1803 23.513C9.65227 23.6508 9.21218 23.9877 8.94149 24.4616L7.8134 26.4358H7.09065V22.958L8.83917 20.6763C9.23433 20.1606 9.3999 19.4973 9.29351 18.8565C9.29033 18.8373 9.28473 18.8189 9.28104 18.7998C9.16255 18.182 8.79997 17.6306 8.27563 17.2811L8.27576 17.2812Z" fill="currentcolor"/>
</svg>
