<svg width="32" height="32" viewBox="0 0 32 32" fill="none" xmlns="http://www.w3.org/2000/svg">
<path d="M26.9456 30H5.05469V4.03636H10.9092V5.56364H6.58196V28.4727H25.4183V5.56364H21.0911V4.03636H26.9456V30Z" fill="currentcolor"/>
<path d="M21.0911 2H10.9092V3.52727H21.0911V2Z" fill="currentcolor"/>
<path d="M21.0911 6.07273H10.9092V7.6H21.0911V6.07273Z" fill="currentcolor"/>
<path d="M22.1231 24.4H9.90492V25.9273H22.1231V24.4Z" fill="currentcolor"/>
<path d="M21.8547 23.1223H20.3274V22.1091C20.3274 21.4073 19.7565 20.8364 19.0547 20.8364H12.9456C12.2438 20.8364 11.6729 21.4073 11.6729 22.1091V23.1223H10.1456V22.1091C10.1456 20.5651 11.4017 19.3091 12.9456 19.3091H19.0547C20.5986 19.3091 21.8547 20.5651 21.8547 22.1091V23.1223Z" fill="currentcolor"/>
<path d="M16.0116 17.7818C13.9063 17.7818 12.1934 16.069 12.1934 13.9636C12.1934 11.8583 13.9063 10.1455 16.0116 10.1455C18.1169 10.1455 19.8298 11.8583 19.8298 13.9636C19.8298 16.069 18.1169 17.7818 16.0116 17.7818ZM16.0116 11.6727C14.7484 11.6727 13.7207 12.7005 13.7207 13.9636C13.7207 15.2268 14.7484 16.2545 16.0116 16.2545C17.2748 16.2545 18.3025 15.2268 18.3025 13.9636C18.3025 12.7005 17.2748 11.6727 16.0116 11.6727Z" fill="currentcolor"/>
</svg>
