<svg width="32" height="32" viewBox="0 0 32 32" fill="none" xmlns="http://www.w3.org/2000/svg">
<path d="M21.9964 22.1404H20.607L28.4666 30H29.8561L21.9964 22.1404Z" fill="currentcolor"/>
<path d="M19.3978 10.7111C18.6255 11.2121 17.7831 11.5936 16.9024 11.8459L12.8146 7.78691C13.0653 6.9264 13.4445 6.10556 13.9422 5.34919C13.5943 5.27526 13.2372 5.22675 12.8727 5.20575C11.762 7.07635 11.284 9.2644 11.5395 11.4818L11.5996 11.8894C9.44762 11.5543 7.26141 11.9232 5.36208 12.8906C5.3902 13.2409 5.44375 13.5839 5.52087 13.9182C6.13822 13.5758 6.79254 13.305 7.46969 13.1111L11.555 17.1676C11.3472 17.8809 11.0517 18.567 10.6739 19.2116C11.0062 19.2977 11.3478 19.3598 11.697 19.3971C12.6358 17.6569 13.0482 15.6655 12.851 13.6479L12.7655 13.0665C13.2899 13.1485 13.8162 13.1889 14.3403 13.1889C16.1788 13.1889 17.9855 12.6927 19.5593 11.766C19.5317 11.4063 19.4774 11.0541 19.3981 10.7111H19.3978ZM11.8079 16.0345L8.61155 12.8607C9.5455 12.7161 10.5057 12.7122 11.4585 12.8617L11.749 12.9072L11.8738 13.7553C11.948 14.5244 11.924 15.2892 11.8076 16.0345H11.8079ZM12.9131 12.0954L12.6154 12.0487L12.5144 11.3617C12.42 10.5377 12.439 9.71842 12.5629 8.92165L15.7601 12.0963C14.8262 12.2409 13.8659 12.2448 12.9131 12.0954Z" fill="currentcolor"/>
<path d="M12.4596 2C6.77154 2 2.1438 6.62761 2.1438 12.3158C2.1438 18.004 6.77154 22.6316 12.4596 22.6316C14.2463 22.6316 15.928 22.1745 17.3948 21.3719C18.6192 20.702 19.6918 19.7896 20.5521 18.7018C21.9424 16.9438 22.7754 14.7259 22.7754 12.3158C22.7754 6.62761 18.1476 2 12.4596 2ZM12.4596 21.6491C7.31324 21.6491 3.12625 17.4623 3.12625 12.3158C3.12625 7.16932 7.31324 2.98246 12.4596 2.98246C17.6059 2.98246 21.7929 7.16932 21.7929 12.3158C21.7929 17.4623 17.6059 21.6491 12.4596 21.6491Z" fill="currentcolor"/>
</svg>
