<svg width="32" height="32" viewBox="0 0 32 32" fill="none" xmlns="http://www.w3.org/2000/svg">
<path d="M5.62968 30C7.63077 30 9.25905 28.3719 9.25931 26.3708C9.25944 24.3694 7.63142 22.741 5.63007 22.7407H5.62968C3.62859 22.7407 2.00031 24.3689 2.00005 26.37C1.99992 28.3713 3.62794 29.9997 5.62929 30H5.62968ZM3.03709 26.3701C3.03709 24.9407 4.20026 23.7778 5.62968 23.7778H5.62994C7.0595 23.7778 8.2224 24.9411 8.22227 26.3706C8.22227 27.8001 7.05911 28.963 5.62968 28.963H5.62942C4.19987 28.963 3.03696 27.7997 3.03709 26.3701Z" fill="currentcolor"/>
<path d="M26.3734 9.25926C28.3745 9.25926 30.0028 7.63111 30.003 5.63002C30.003 3.62867 28.375 2.00026 26.3737 2H26.3733C25.4039 2 24.4926 2.37748 23.8071 3.06283C23.1215 3.74831 22.7439 4.65974 22.7438 5.62924C22.7438 6.59874 23.1211 7.5103 23.8066 8.19591C24.4921 8.88152 25.4035 9.25913 26.373 9.25926H26.3734ZM23.7808 5.62937C23.7808 4.93689 24.0506 4.28589 24.5403 3.79615C25.0299 3.30654 25.6809 3.03704 26.3733 3.03704H26.3735C27.8031 3.03704 28.9661 4.20033 28.966 5.62989C28.9659 7.05931 27.8028 8.22222 26.3734 8.22222H26.3731C25.6807 8.22222 25.0295 7.95233 24.5399 7.46272C24.0503 6.97298 23.7807 6.32198 23.7808 5.62937Z" fill="currentcolor"/>
<path d="M2.00005 19.6296H9.25931V12.3704H2.00005V19.6296ZM3.03709 13.4074H8.22227V18.5926H3.03709V13.4074Z" fill="currentcolor"/>
<path d="M22.7408 19.6296H30.0001V12.3704H22.7408V19.6296ZM23.7778 13.4074H28.963V18.5926H23.7778V13.4074Z" fill="currentcolor"/>
<path d="M20.1512 15.4815H17.0401V16.5185H20.1512V15.4815Z" fill="currentcolor"/>
<path d="M14.966 15.4815H11.8549V16.5185H14.966V15.4815Z" fill="currentcolor"/>
<path d="M16.52 11.8474H15.483V14.9586H16.52V11.8474Z" fill="currentcolor"/>
<path d="M16.5186 17.0326H15.4815V20.1437H16.5186V17.0326Z" fill="currentcolor"/>
<path d="M12.3704 9.25926H19.6297V2H12.3704V9.25926ZM13.4075 3.03704H18.5926V8.22222H13.4075V3.03704Z" fill="currentcolor"/>
<path d="M12.3704 22.7407V30H19.6297V22.7407H12.3704ZM18.5926 28.963H13.4075V23.7778H18.5926V28.963Z" fill="currentcolor"/>
<path d="M5.6267 2C3.62535 2 1.99707 3.62828 1.99707 5.62963C1.99707 7.63098 3.62535 9.25926 5.6267 9.25926C7.62805 9.25926 9.25633 7.63098 9.25633 5.62963C9.25633 3.62828 7.62805 2 5.6267 2ZM5.6267 8.22222C4.19714 8.22222 3.03411 7.05919 3.03411 5.62963C3.03411 4.20007 4.19714 3.03704 5.6267 3.03704C7.05626 3.03704 8.21929 4.20007 8.21929 5.62963C8.21929 7.05919 7.05626 8.22222 5.6267 8.22222Z" fill="currentcolor"/>
<path d="M26.3734 22.7407C24.372 22.7407 22.7438 24.369 22.7438 26.3704C22.7438 28.3717 24.372 30 26.3734 30C28.3748 30 30.003 28.3717 30.003 26.3704C30.003 24.369 28.3748 22.7407 26.3734 22.7407ZM26.3734 28.963C24.9438 28.963 23.7808 27.7999 23.7808 26.3704C23.7808 24.9408 24.9438 23.7778 26.3734 23.7778C27.803 23.7778 28.966 24.9408 28.966 26.3704C28.966 27.7999 27.803 28.963 26.3734 28.963Z" fill="currentcolor"/>
</svg>
