<svg width="32" height="32" viewBox="0 0 32 32" fill="none" xmlns="http://www.w3.org/2000/svg">
<path d="M5.30886 19.8182H9.89068V18.8H5.30886C3.62466 18.8 2.25431 20.1702 2.25431 21.8545C2.25431 23.5389 3.62466 24.9091 5.30886 24.9091H14.4725C15.5953 24.9091 16.5089 25.8227 16.5089 26.9455C16.5089 28.0683 15.5953 28.9818 14.4725 28.9818H1.74561V30H14.4725C16.1567 30 17.527 28.6298 17.527 26.9455C17.527 25.2611 16.1567 23.8909 14.4725 23.8909H5.30886C4.18606 23.8909 3.2725 22.9773 3.2725 21.8545C3.2725 20.7317 4.18606 19.8182 5.30886 19.8182Z" fill="currentcolor"/>
<path d="M27.9198 2H27.498L12.4361 17.0634V19.8197H15.1925L30.2543 4.75635V4.33469L27.9198 2ZM14.7707 18.8015H13.4543V17.4851L27.7089 3.22907L29.0254 4.54545L14.7707 18.8015Z" fill="currentcolor"/>
</svg>
