<svg width="32" height="32" viewBox="0 0 32 32" fill="none" xmlns="http://www.w3.org/2000/svg">
<path d="M24.1453 2H3.78167V3.01818H24.1453V2Z" fill="currentcolor"/>
<path d="M25.6726 15.2364H28.218V14.2182H25.6726V3.52727H24.6544V17.7818H25.6726V15.2364Z" fill="currentcolor"/>
<path d="M24.1453 19.3091V18.2909H8.66169L3.27258 23.68V3.52727H2.25439V24.9091H3.48359L9.08347 19.3091H24.1453Z" fill="currentcolor"/>
<path d="M28.7271 15.7455V28.6452L25.9036 25.4182H15.9998V26.4364H25.4416L28.5598 30H29.7453V15.7455H28.7271Z" fill="currentcolor"/>
<path d="M15.4908 20.8364H14.4726V24.9091H15.4908V20.8364Z" fill="currentcolor"/>
<path d="M16.2361 10.9767L16.6209 10.6631C17.519 9.9504 18.1461 9.19491 18.1461 8.02603C18.1461 6.67173 16.8917 5.51723 15.0956 5.51723C13.1855 5.51723 11.8028 6.74313 11.8028 8.79578H13.0715C13.0715 7.41309 13.8271 6.54356 15.0956 6.54356C16.2074 6.54356 16.8488 7.22778 16.8488 8.11156C16.8488 8.83854 16.3927 9.38022 15.908 9.76509L15.5517 10.0644C14.3826 11.0195 14.1546 11.775 14.1546 13.0436H15.3947C15.3947 12.0316 15.6232 11.4756 16.2361 10.9767Z" fill="currentcolor"/>
<path d="M15.5234 14.1705H14.0553V15.7242H15.5234V14.1705Z" fill="currentcolor"/>
<path d="M26.1827 21.2991H18.0362V22.3172H26.1827V21.2991Z" fill="currentcolor"/>
</svg>
