<svg width="32" height="32" viewBox="0 0 32 32" fill="none" xmlns="http://www.w3.org/2000/svg">
<path d="M22.7583 8.75862C22.7583 5.03197 19.7264 2 15.9997 2C12.2729 2 9.24104 5.03197 9.24104 8.75862C9.24104 12.4853 12.2729 15.5172 15.9997 15.5172C19.7264 15.5172 22.7583 12.4853 22.7583 8.75862ZM11.1721 8.75862C11.1721 6.09669 13.3377 3.93103 15.9997 3.93103C18.6616 3.93103 20.8272 6.09669 20.8272 8.75862C20.8272 11.4206 18.6616 13.5862 15.9997 13.5862C13.3377 13.5862 11.1721 11.4206 11.1721 8.75862Z" fill="currentcolor"/>
<path d="M20.2616 19.3793H21.7928V21.4762C20.669 21.8744 19.8617 22.9474 19.8617 24.2059V26.1382H21.7928V24.2059C21.7928 23.6742 22.2254 23.2415 22.7572 23.2415C23.289 23.2415 23.7216 23.6742 23.7216 24.2059V26.1382H25.6527V24.2059C25.6527 22.9482 24.8463 21.8758 23.7238 21.4769V19.3793H24.6893C26.2864 19.3793 27.5859 20.6788 27.5859 22.2759V26.1379H29.5169V22.2759C29.5169 19.6139 27.3512 17.4483 24.6893 17.4483H19.4619L16.5653 20.3448H19.2962L20.2616 19.3793Z" fill="currentcolor"/>
<path d="M29.5177 28.069H2.48327V30H29.5177V28.069Z" fill="currentcolor"/>
<path d="M4.41346 22.2759C4.41346 20.6788 5.71292 19.3793 7.31001 19.3793H8.2754V21.5133C7.42394 21.8866 6.82713 22.7365 6.82713 23.7241C6.82713 25.0551 7.90996 26.1379 9.24092 26.1379C10.5719 26.1379 11.6546 25.0551 11.6546 23.7241C11.6546 22.7365 11.0578 21.8866 10.2064 21.5133V19.3792H11.7377L15.0341 22.6757V26.1378H16.9652V21.8759L12.5374 17.4482H7.31001C4.64808 17.4482 2.48242 19.6138 2.48242 22.2757V26.1378H4.41346V22.2757V22.2759ZM9.24092 24.2069C8.97468 24.2069 8.75816 23.9904 8.75816 23.7241C8.75816 23.4579 8.97468 23.2414 9.24092 23.2414C9.50716 23.2414 9.72356 23.4579 9.72356 23.7241C9.72356 23.9904 9.50704 24.2069 9.24092 24.2069Z" fill="currentcolor"/>
</svg>
