<svg width="32" height="32" viewBox="0 0 32 32" fill="none" xmlns="http://www.w3.org/2000/svg">
<path d="M16 2C8.2804 2 2 8.2804 2 16C2 23.7196 8.2804 30 16 30C23.7196 30 30 23.7196 30 16C30 8.2804 23.7196 2 16 2ZM16 28.1333C9.30963 28.1333 3.86667 22.6904 3.86667 16C3.86667 9.30963 9.30963 3.86667 16 3.86667C22.6904 3.86667 28.1333 9.30963 28.1333 16C28.1333 22.6904 22.6904 28.1333 16 28.1333Z" fill="currentcolor"/>
<path d="M24.4 21.5914H7.6V23.458H24.4V21.5914Z" fill="currentcolor"/>
<path d="M21.6 14.1333H16.9333V16H18.8V20.6667H20.6667V16H21.6C22.1146 16 22.5333 16.4187 22.5333 16.9333V20.6667H24.4V16.9333C24.4 15.3894 23.144 14.1333 21.6 14.1333Z" fill="currentcolor"/>
<path d="M16.004 13.1982C18.0625 13.1982 19.7373 11.5235 19.7373 9.46492C19.7373 7.40633 18.0625 5.73158 16.004 5.73158C13.9454 5.73158 12.2706 7.40633 12.2706 9.46492C12.2706 11.5235 13.9454 13.1982 16.004 13.1982ZM16.004 7.59825C17.0332 7.59825 17.8706 8.43568 17.8706 9.46492C17.8706 10.4942 17.0332 11.3316 16.004 11.3316C14.9747 11.3316 14.1373 10.4942 14.1373 9.46492C14.1373 8.43568 14.9747 7.59825 16.004 7.59825Z" fill="currentcolor"/>
<path d="M9.46667 16.9333C9.46667 16.4187 9.88538 16 10.4 16H11.3451V17.1739C10.789 17.4971 10.4132 18.098 10.4132 18.7862C10.4132 19.8146 11.2499 20.6514 12.2785 20.6514C13.307 20.6514 14.1436 19.8146 14.1436 18.7862C14.1436 18.098 13.7679 17.4971 13.2118 17.1739V16H13.28L15.0667 17.7866V20.6667H16.9333V17.0134L14.0533 14.1333H10.4C8.85615 14.1333 7.6 15.3895 7.6 16.9333V20.6667H9.46667V16.9333Z" fill="currentcolor"/>
</svg>
