<svg width="32" height="32" viewBox="0 0 32 32" fill="none" xmlns="http://www.w3.org/2000/svg">
<path d="M15.386 9.79235H14.3308C13.8407 12.4488 11.5088 14.4678 8.71279 14.4678C5.91677 14.4678 3.58503 12.4488 3.09477 9.79235H2.03955C2.54086 13.0246 5.34234 15.5067 8.71279 15.5067C12.0832 15.5067 14.8849 13.0246 15.386 9.79235Z" fill="currentcolor"/>
<path d="M8.71279 3.03898C11.5088 3.03898 13.8406 5.05798 14.3308 7.71439H15.386C14.8847 4.48212 12.0832 2 8.71279 2C5.34234 2 2.54073 4.48212 2.03955 7.71439H3.09477C3.5849 5.05798 5.91677 3.03898 8.71279 3.03898Z" fill="currentcolor"/>
<path d="M13.8038 8.23388H3.62179V9.27286H13.8038V8.23388Z" fill="currentcolor"/>
<path d="M29.9599 14.5205C29.9599 13.1328 29.4198 11.8282 28.4386 10.847C27.4574 9.86573 26.1529 9.32533 24.7653 9.32533C23.3777 9.32533 22.0732 9.8656 21.0921 10.8468L16.6838 15.2545L17.4184 15.9892L21.8267 11.5815C22.6118 10.7965 23.6553 10.3643 24.7654 10.3644C25.8756 10.3644 26.9191 10.7968 27.7041 11.5817C29.3243 13.2023 29.3243 15.8388 27.7038 17.4592L23.2955 21.867L24.0301 22.6017L28.4384 18.1939C29.4197 17.2127 29.9601 15.9082 29.9601 14.5208L29.9599 14.5205Z" fill="currentcolor"/>
<path d="M17.4176 27.744C15.7969 29.3644 13.1607 29.3641 11.5402 27.7437C10.7553 26.9586 10.3231 25.9151 10.3232 24.805C10.3232 23.6948 10.7556 22.6513 11.5405 21.8663L15.9488 17.4585L15.2142 16.7238L10.8059 21.1315C9.82463 22.1127 9.28423 23.4173 9.28423 24.8048C9.28423 26.1924 9.82437 27.497 10.8056 28.4782C11.7867 29.4595 13.0913 29.9999 14.4789 30H14.4791C15.8666 30 17.1711 29.4596 18.1522 28.4785L22.5605 24.0707L21.8259 23.336L17.4176 27.7437V27.744Z" fill="currentcolor"/>
<path d="M17.4182 16.724L16.6836 17.4586L21.826 22.6015L22.5606 21.867L17.4182 16.724Z" fill="currentcolor"/>
</svg>
