<svg width="32" height="32" viewBox="0 0 32 32" fill="none" xmlns="http://www.w3.org/2000/svg">
<path d="M16 7.31034C14.6596 7.31034 13.3894 7.61581 12.2545 8.16012C11.73 7.63536 11.0056 7.31034 10.2069 7.31034C8.60969 7.31034 7.31034 8.60981 7.31034 10.2069C7.31034 11.0057 7.63536 11.73 8.16012 12.2545C7.61581 13.3894 7.31034 14.6595 7.31034 16C7.31034 20.7915 11.2085 24.6897 16 24.6897C17.3404 24.6897 18.6106 24.3842 19.7455 23.8399C20.27 24.3646 20.9944 24.6897 21.7931 24.6897C23.3903 24.6897 24.6897 23.3902 24.6897 21.7931C24.6897 20.9943 24.3646 20.27 23.8399 19.7455C24.3842 18.6106 24.6897 17.3405 24.6897 16C24.6897 11.2085 20.7915 7.31034 16 7.31034ZM10.2069 8.27586C11.2716 8.27586 12.1379 9.14217 12.1379 10.2069C12.1379 11.2716 11.2716 12.1379 10.2069 12.1379C9.14217 12.1379 8.27586 11.2716 8.27586 10.2069C8.27586 9.14217 9.14217 8.27586 10.2069 8.27586ZM21.7931 23.7241C20.7284 23.7241 19.8621 22.8578 19.8621 21.7931C19.8621 20.7284 20.7284 19.8621 21.7931 19.8621C22.8578 19.8621 23.7241 20.7284 23.7241 21.7931C23.7241 22.8578 22.8578 23.7241 21.7931 23.7241ZM21.7931 18.8966C20.1959 18.8966 18.8966 20.196 18.8966 21.7931C18.8966 22.2382 18.9977 22.6601 19.1779 23.0373C18.2079 23.4771 17.1326 23.7241 16 23.7241C11.7409 23.7241 8.27586 20.2591 8.27586 16C8.27586 14.8674 8.52291 13.7921 8.96271 12.8221C9.33986 13.0023 9.76179 13.1034 10.2069 13.1034C11.8041 13.1034 13.1034 11.804 13.1034 10.2069C13.1034 9.76179 13.0023 9.33986 12.8221 8.96271C13.7921 8.52291 14.8674 8.27586 16 8.27586C20.2591 8.27586 23.7241 11.7409 23.7241 16C23.7241 17.1326 23.4771 18.2079 23.0373 19.1779C22.6601 18.9977 22.2382 18.8966 21.7931 18.8966Z" fill="currentcolor"/>
<path d="M27.7286 8.36445C28.2374 7.84222 28.5517 7.12967 28.5517 6.34483C28.5517 4.74774 27.2524 3.44828 25.6552 3.44828C24.8702 3.44828 24.1578 3.76255 23.6356 4.27138C21.438 2.8359 18.815 2 16 2C8.28045 2 2 8.28033 2 16C2 18.815 2.8359 21.438 4.27138 23.6356C3.76255 24.1578 3.44828 24.8703 3.44828 25.6552C3.44828 27.2523 4.74762 28.5517 6.34483 28.5517C7.12979 28.5517 7.84222 28.2374 8.36445 27.7286C10.562 29.1641 13.185 30 16 30C23.7196 30 30 23.7197 30 16C30 13.185 29.1641 10.562 27.7286 8.36445ZM25.6552 4.41379C26.7199 4.41379 27.5862 5.2801 27.5862 6.34483C27.5862 7.40955 26.7199 8.27586 25.6552 8.27586C24.5904 8.27586 23.7241 7.40955 23.7241 6.34483C23.7241 5.2801 24.5904 4.41379 25.6552 4.41379ZM6.34483 27.5862C5.2801 27.5862 4.41379 26.7199 4.41379 25.6552C4.41379 24.5904 5.2801 23.7241 6.34483 23.7241C7.40955 23.7241 8.27586 24.5904 8.27586 25.6552C8.27586 26.7199 7.40955 27.5862 6.34483 27.5862ZM16 29.0345C13.3981 29.0345 10.9721 28.2677 8.93531 26.949C9.13071 26.5593 9.24138 26.1201 9.24138 25.6552C9.24138 24.0581 7.94203 22.7586 6.34483 22.7586C5.87993 22.7586 5.44074 22.8693 5.05103 23.0647C3.73226 21.0278 2.96552 18.6018 2.96552 16C2.96552 8.81269 8.81281 2.96552 16 2.96552C18.6019 2.96552 21.0279 3.73226 23.0647 5.05103C22.8693 5.44074 22.7586 5.87993 22.7586 6.34483C22.7586 7.94191 24.058 9.24138 25.6552 9.24138C26.1201 9.24138 26.5593 9.13071 26.949 8.93531C28.2677 10.9722 29.0345 13.3982 29.0345 16C29.0345 23.1873 23.1872 29.0345 16 29.0345Z" fill="currentcolor"/>
</svg>
