<svg width="32" height="32" viewBox="0 0 32 32" fill="none" xmlns="http://www.w3.org/2000/svg">
<path d="M21.9795 2.73936V5.07173L23.5359 6.00561L21.9795 6.93948V9.27186L25.9795 6.87173V5.13948L21.9795 2.73936Z" fill="currentcolor"/>
<path d="M21.9795 12.7394V15.0717L23.5359 16.0056L21.9795 16.9395V19.2719L25.9795 16.8717V15.1395L21.9795 12.7394Z" fill="currentcolor"/>
<path d="M21.9795 22.7394V25.0717L23.5359 26.0056L21.9795 26.9395V29.2719L25.9795 26.8717V25.1395L21.9795 22.7394Z" fill="currentcolor"/>
<path d="M30.0069 2.00073H28.0069V29.9992H30.0069V2.00073Z" fill="currentcolor"/>
<path d="M19.9795 5.00561H1.99316V7.00561H19.9795V5.00561Z" fill="currentcolor"/>
<path d="M19.9795 15.0056H1.99316V17.0056H19.9795V15.0056Z" fill="currentcolor"/>
<path d="M19.9795 25.0056H1.99316V27.0056H19.9795V25.0056Z" fill="currentcolor"/>
</svg>
