<svg width="32" height="32" viewBox="0 0 32 32" fill="none" xmlns="http://www.w3.org/2000/svg">
<path d="M15.9932 3.48312L17.4452 6H18.5998L16.2922 2H15.7215L13.3029 6H14.4715L15.9932 3.48312Z" fill="currentcolor"/>
<path d="M15.5 8V30H16.5V8H15.5Z" fill="currentcolor"/>
<path d="M10 12.9718L11.5168 15.4998H12.6829L10.2834 11.5005H9.71663L7.31712 15.4998H8.48325L10 12.9718Z" fill="currentcolor"/>
<path d="M10.5 17.5H9.5V28.5H2V29.5H10.5V17.5Z" fill="currentcolor"/>
<path d="M19.3169 15.5H20.4831L22 12.9718L23.5169 15.5H24.6831L22.2831 11.5H21.7169L19.3169 15.5Z" fill="currentcolor"/>
<path d="M21.5 17.5V29.5H30V28.5H22.5V17.5H21.5Z" fill="currentcolor"/>
</svg>
