<svg width="32" height="32" viewBox="0 0 32 32" fill="none" xmlns="http://www.w3.org/2000/svg">
<path d="M8.98676 26.5796C8.66597 27.34 8.74574 28.2052 9.20051 28.894C9.65527 29.5828 10.4195 29.9963 11.2446 30H11.2685C11.2723 30 11.276 30 11.2799 30C12.296 30 13.1936 29.3909 13.5687 28.4457L16.0627 22.1615L18.4413 28.413C18.8029 29.3635 19.727 29.9999 20.7432 29.9999H20.7541C21.5819 29.9961 22.3475 29.5808 22.8019 28.8888C23.2563 28.1968 23.3329 27.3292 23.0073 26.5682L19.3803 18.0923V13.37L26.8672 9.22551C27.6086 8.81516 28.069 8.03381 28.069 7.18644C28.069 6.40521 27.6809 5.68022 27.0309 5.24706C26.3805 4.81378 25.5619 4.73473 24.8411 5.03549L24.8211 5.04382L16.0543 9.66157L7.19728 5.03996L7.15842 5.02185C6.43669 4.72339 5.61768 4.80425 4.96812 5.23849C4.31869 5.67274 3.93091 6.39845 3.93091 7.1798C3.93091 8.02862 4.39207 8.8113 5.13444 9.22249L12.6187 13.3686L12.5696 18.0914L8.98688 26.5797L8.98676 26.5796ZM5.60223 8.3779C5.1669 8.13676 4.89631 7.67765 4.89631 7.1798C4.89631 6.71466 5.11802 6.29973 5.50471 6.04121C5.73632 5.88636 5.99725 5.80755 6.26157 5.80755C6.43222 5.80755 6.60433 5.84026 6.77088 5.90652L15.0118 10.207H17.0913L25.2314 5.91931C25.6547 5.7495 26.1141 5.79693 26.4954 6.05086C26.8818 6.30842 27.1034 6.72239 27.1034 7.1868C27.1034 7.68308 26.8337 8.14074 26.3994 8.38116L18.4146 12.8012V18.2905L22.1194 26.9482C22.3203 27.4178 22.2748 27.932 21.9946 28.359C21.7142 28.786 21.2604 29.0322 20.7498 29.0344H20.743C20.1253 29.0344 19.5635 28.6473 19.3435 28.0696L16.2206 19.8621H15.9361L12.671 28.0895C12.4429 28.6642 11.8973 29.0345 11.2798 29.0345H11.2489C10.7397 29.0321 10.2867 28.7871 10.0061 28.362C9.72563 27.9369 9.6782 27.4241 9.87625 26.9549L13.5327 18.2914L13.5899 12.8027L5.60211 8.37754L5.60223 8.3779Z" fill="currentcolor"/>
<path d="M18.4269 4.41381C18.4269 3.08284 17.3441 2 16.0131 2C14.6822 2 13.5993 3.08284 13.5993 4.41381C13.5993 5.74479 14.6822 6.82763 16.0131 6.82763C17.3441 6.82763 18.4269 5.74479 18.4269 4.41381ZM14.5648 4.41381C14.5648 3.6152 15.2145 2.96553 16.0131 2.96553C16.8117 2.96553 17.4614 3.6152 17.4614 4.41381C17.4614 5.21242 16.8117 5.8621 16.0131 5.8621C15.2145 5.8621 14.5648 5.21242 14.5648 4.41381Z" fill="currentcolor"/>
</svg>
