<svg width="32" height="32" viewBox="0 0 32 32" fill="none" xmlns="http://www.w3.org/2000/svg">
<path d="M3.99988 23.0732V24.2499C7.51787 26.3547 11.704 27.5 15.967 27.5C20.26 27.5 24.4747 26.3381 28.008 24.2046V23.0259C24.5286 25.2714 20.291 26.4999 15.967 26.4999C11.6735 26.4999 7.46537 25.2886 3.99988 23.0732Z" fill="currentcolor"/>
<path d="M27.9823 8.9575V7.7795C24.4543 5.656 20.2495 4.5 15.967 4.5C11.6845 4.5 7.5115 5.647 3.99175 7.755V8.93188C7.45875 6.71325 11.6701 5.5 15.967 5.5C20.2639 5.5 24.5076 6.72263 27.9823 8.9575Z" fill="currentcolor"/>
<path d="M27.4336 12.25C24.5582 9.37463 20.7894 7.718 16.7531 7.53775C16.494 7.51387 16.2321 7.5 15.967 7.5C15.6581 7.5 15.3534 7.51762 15.053 7.54987C11.1021 7.78075 7.42 9.42838 4.5985 12.25L2 14.8485V17.1982L4.5985 19.7967C7.64812 22.8465 11.703 24.526 16.0161 24.526C20.3293 24.526 24.3839 22.8464 27.4338 19.7967L30 17.2305V14.8162L27.4338 12.25H27.4336ZM23.467 16C23.467 20.1355 20.1025 23.5 15.967 23.5C11.8315 23.5 8.467 20.1355 8.467 16C8.467 12.1429 11.3941 8.95775 15.1434 8.54613C15.4329 8.52975 15.7238 8.52063 16.016 8.52063C16.2458 8.52063 16.4745 8.52637 16.7026 8.5365C20.4941 8.90737 23.467 12.1128 23.467 16ZM5.3055 19.0895L2.23937 16.0233L5.3055 12.957C6.77962 11.4829 8.50463 10.351 10.3836 9.59912C8.59825 11.1585 7.467 13.4489 7.467 15.9999C7.467 18.5984 8.64025 20.9269 10.4835 22.4872C8.56575 21.7358 6.80587 20.5898 5.3055 19.0894V19.0895ZM26.7266 19.0895C25.1805 20.6356 23.3587 21.8054 21.3725 22.5549C23.2612 20.9946 24.4669 18.6354 24.4669 16C24.4669 13.4093 23.3004 11.087 21.4666 9.52675C23.4164 10.2775 25.2048 11.4355 26.7265 12.9571L29.7926 16.0234L26.7265 19.0896L26.7266 19.0895Z" fill="currentcolor"/>
<path d="M15.967 20.5042C18.4484 20.5042 20.467 18.4856 20.467 16.0042C20.467 13.5229 18.4484 11.5042 15.967 11.5042V12.5042C17.8969 12.5042 19.467 14.0744 19.467 16.0042C19.467 17.9341 17.8969 19.5042 15.967 19.5042C14.0371 19.5042 12.467 17.9341 12.467 16.0042H11.467C11.467 18.4856 13.4856 20.5042 15.967 20.5042Z" fill="currentcolor"/>
</svg>
