<svg width="32" height="32" viewBox="0 0 32 32" fill="none" xmlns="http://www.w3.org/2000/svg">
<path d="M14.1151 14.1546C14.1151 12.6139 12.8616 11.3606 11.3211 11.3606C9.78057 11.3606 8.52712 12.6139 8.52712 14.1546C8.52712 15.6952 9.78057 16.9486 11.3211 16.9486C12.8616 16.9486 14.1151 15.6952 14.1151 14.1546ZM10.3898 14.1546C10.3898 13.6411 10.8076 13.2232 11.3211 13.2232C11.8346 13.2232 12.2524 13.6411 12.2524 14.1546C12.2524 14.6681 11.8346 15.0859 11.3211 15.0859C10.8076 15.0859 10.3898 14.6681 10.3898 14.1546Z" fill="currentcolor"/>
<path d="M20.6257 11.3606C19.0852 11.3606 17.8317 12.6139 17.8317 14.1546C17.8317 15.6952 19.0852 16.9486 20.6257 16.9486C22.1662 16.9486 23.4197 15.6952 23.4197 14.1546C23.4197 12.6139 22.1662 11.3606 20.6257 11.3606ZM20.6257 15.0859C20.1122 15.0859 19.6944 14.6681 19.6944 14.1546C19.6944 13.6411 20.1122 13.2232 20.6257 13.2232C21.1392 13.2232 21.557 13.6411 21.557 14.1546C21.557 14.6681 21.1392 15.0859 20.6257 15.0859Z" fill="currentcolor"/>
<path d="M15.97 17.8865C12.8887 17.8865 10.382 20.3903 10.382 23.4679H12.2446C12.2446 21.4174 13.9158 19.7492 15.97 19.7492C18.0241 19.7492 19.6953 21.4174 19.6953 23.4679H21.558C21.558 20.3903 19.0513 17.8865 15.97 17.8865Z" fill="currentcolor"/>
<path d="M16 2C8.28031 2 2 8.28031 2 16C2 23.7197 8.28031 30 16 30C23.7197 30 30.0001 23.7196 30.0001 16C30.0001 8.28043 23.7196 2 16 2ZM16 28.1375C9.30746 28.1375 3.86266 22.6927 3.86266 16.0001C3.86266 9.30757 9.30746 3.86266 16 3.86266C22.6925 3.86266 28.1375 9.30746 28.1375 16C28.1375 22.6925 22.6925 28.1373 16 28.1373V28.1375Z" fill="currentcolor"/>
</svg>
