<svg width="32" height="32" viewBox="0 0 32 32" fill="none" xmlns="http://www.w3.org/2000/svg">
<path d="M16.0002 1.26038V2.76138C23.1757 3.03838 28.9617 8.82425 29.2387 15.9999H30.7397C30.4612 7.99713 24.003 1.53888 16.0002 1.26038Z" fill="currentcolor"/>
<path d="M2.76174 15.9999H1.26074C1.53924 24.0026 7.99749 30.4609 16.0002 30.7394V29.2384C8.82474 28.9614 3.03874 23.1755 2.76174 15.9999Z" fill="currentcolor"/>
<path d="M7.00024 9.74988H8.00024V8.24988H7.00024C6.31099 8.24988 5.75024 7.68913 5.75024 6.99988C5.75024 6.31063 6.31099 5.74988 7.00024 5.74988H8.25024V7.99988H9.75024V5.74988H13.0002V4.24988H9.75024V1.99988H8.25024V4.24988H7.00024C5.48387 4.24988 4.25024 5.4835 4.25024 6.99988C4.25024 8.51625 5.48387 9.74988 7.00024 9.74988Z" fill="currentcolor"/>
<path d="M9.75024 15.9999V13.7499H11.0002C12.5166 13.7499 13.7502 12.5163 13.7502 10.9999C13.7502 9.4835 12.5166 8.24988 11.0002 8.24988H10.0002V9.74988H11.0002C11.6895 9.74988 12.2502 10.3106 12.2502 10.9999C12.2502 11.6891 11.6895 12.2499 11.0002 12.2499H9.75024V9.99988H8.25024V12.2499H5.00024V13.7499H8.25024V15.9999H9.75024Z" fill="currentcolor"/>
<path d="M22.7502 24.995H21.2502V29.9999H22.7502V24.995Z" fill="currentcolor"/>
<path d="M28.0002 23.2499H23.0007V24.7499H28.0002V23.2499Z" fill="currentcolor"/>
<path d="M22.7502 17.9999H21.2502V22.9999H22.7502V17.9999Z" fill="currentcolor"/>
<path d="M21.0002 23.2499H16.0002V24.7499H21.0002V23.2499Z" fill="currentcolor"/>
</svg>
