<svg width="32" height="32" viewBox="0 0 32 32" fill="none" xmlns="http://www.w3.org/2000/svg">
<path d="M22.7407 2V4.59259H23.7778V3.03704H28.963V8.22222H23.7778V6.66667H22.7407V9.25926H30V2H22.7407Z" fill="currentcolor"/>
<path d="M22.7407 25.3333H23.7778V23.7778H28.963V28.963H23.7778V27.4074H22.7407V30H30V22.7407H22.7407V25.3333Z" fill="currentcolor"/>
<path d="M2 30H9.25926V17.037H8.22222V28.963H3.03704V3.03704H8.22222V14.963H9.25926V2H2V30Z" fill="currentcolor"/>
<path d="M14.963 15.4815H9.77778V16.5185H14.963V15.4815Z" fill="currentcolor"/>
<path d="M15.4815 14.963H16.5185V6.14815H22.2222V5.11111H15.4815V14.963Z" fill="currentcolor"/>
<path d="M16.5185 17.037H15.4815V26.8889H22.2222V25.8519H16.5185V17.037Z" fill="currentcolor"/>
</svg>
