<svg width="32" height="32" viewBox="0 0 32 32" fill="none" xmlns="http://www.w3.org/2000/svg">
<path d="M22.3636 2V4.8H23.8909V3.52727H28.4727V8.10909H23.8909V6.83636H22.3636V9.63636H30V2H22.3636Z" fill="currentcolor"/>
<path d="M22.3636 25.1636H23.8909V23.8909H28.4727V28.4727H23.8909V27.2H22.3636V30H30V22.3636H22.3636V25.1636Z" fill="currentcolor"/>
<path d="M2 30H9.63636V17.0182H8.10909V28.4727H3.52727V3.52727H8.10909V14.9818H9.63636V2H2V30Z" fill="currentcolor"/>
<path d="M14.9818 15.2364H9.89091V16.7636H14.9818V15.2364Z" fill="currentcolor"/>
<path d="M15.2364 14.9818H16.7636V6.58182H22.1091V5.05455H15.2364V14.9818Z" fill="currentcolor"/>
<path d="M16.7636 17.0182H15.2364V26.9455H22.1091V25.4182H16.7636V17.0182Z" fill="currentcolor"/>
</svg>
