<svg width="45" height="46" viewBox="0 0 45 46" fill="none" xmlns="http://www.w3.org/2000/svg">
<path d="M12.1918 44.9209L0.312382 33.0415L8.54311 24.8108L10.4268 26.6945L4.41926 32.7021L7.54184 35.8247L13.227 30.1396L15.1107 32.0233L9.42557 37.7084L14.4149 42.6978L12.1918 44.9209ZM22.2349 34.8778L10.3555 22.9984L15.3449 18.0091C17.8226 15.5314 20.7415 14.7168 23.2531 17.2284C25.8327 19.8079 24.8653 22.7438 22.4725 25.1367L19.7063 27.9029L24.458 32.6547L22.2349 34.8778ZM20.5888 23.253C22.0143 21.8274 21.9973 20.5546 20.9621 19.5194C19.9269 18.4842 18.6881 18.4333 17.2286 19.8928L14.4624 22.659L17.8226 26.0192L20.5888 23.253ZM38.6706 19.053C35.3444 22.3792 30.5926 22.6168 26.6046 18.6287C22.7862 14.8104 22.8541 9.88891 26.1803 6.56268C29.5065 3.23645 34.5298 3.16856 38.2973 6.93603C42.2684 10.9071 41.9969 15.7268 38.6706 19.053ZM36.7869 17.1693C38.8912 15.0649 38.8064 12.0272 36.0062 9.22706C33.3419 6.56268 30.1853 6.32509 28.064 8.44641C25.9427 10.5677 26.1973 13.6394 28.8956 16.3377C31.6618 19.1039 34.6825 19.2736 36.7869 17.1693Z" fill="#5A21B0"/>
</svg>
