<svg xmlns="http://www.w3.org/2000/svg" width="48" height="48" viewBox="0 0 48 48" fill="none"> <path d="M13.1919 44.9208L1.3125 33.0414L9.54322 24.8107L11.427 26.6944L5.41938 32.702L8.54196 35.8246L14.2271 30.1395L16.1108 32.0232L10.4257 37.7083L15.415 42.6977L13.1919 44.9208Z" fill="#5A21B0"/> <path d="M23.235 34.8777L11.3556 22.9983L16.345 18.009C18.8227 15.5313 21.7416 14.7167 24.2533 17.2283C26.8328 19.8078 25.8655 22.7438 23.4726 25.1366L20.7064 27.9028L25.4582 32.6546L23.235 34.8777ZM21.5889 23.2529C23.0144 21.8273 22.9974 20.5545 21.9622 19.5193C20.927 18.4841 19.6882 18.4332 18.2287 19.8927L15.4625 22.6589L18.8227 26.0191L21.5889 23.2529Z" fill="#5A21B0"/> <path d="M39.6707 19.0529C36.3445 22.3792 31.5928 22.6167 27.6047 18.6287C23.7863 14.8103 23.8542 9.88881 27.1804 6.56258C30.5066 3.23635 35.5299 3.16847 39.2974 6.93594C43.2685 10.907 42.997 15.7267 39.6707 19.0529ZM37.787 17.1692C39.8914 15.0648 39.8065 12.0271 37.0064 9.22696C34.342 6.56258 31.1855 6.325 29.0641 8.44632C26.9428 10.5676 27.1974 13.6393 29.8957 16.3376C32.6619 19.1038 35.6827 19.2735 37.787 17.1692Z" fill="#5A21B0"/> </svg>
