<svg width="32" height="32" viewBox="0 0 32 32" fill="none" xmlns="http://www.w3.org/2000/svg">
<path d="M12.3704 2V9.25926H19.6296V2H12.3704ZM18.5926 8.22222H13.4074V3.03704H18.5926V8.22222Z" fill="currentcolor"/>
<path d="M9.25926 22.7407H2V30H9.25926V22.7407ZM8.22222 28.963H3.03704V23.7778H8.22222V28.963Z" fill="currentcolor"/>
<path d="M22.7407 30H30V22.7407H22.7407V30ZM23.7778 23.7778H28.963V28.963H23.7778V23.7778Z" fill="currentcolor"/>
<path d="M5.11111 5.11111V20.1431H6.14815V6.14815H9.77882V5.11111H5.11111Z" fill="currentcolor"/>
<path d="M26.8889 20.1431V5.11111H22.2233V6.14815H25.8519V20.1431H26.8889Z" fill="currentcolor"/>
<path d="M20.1492 25.8519H11.8529V26.8889H20.1492V25.8519Z" fill="currentcolor"/>
</svg>
