<svg width="32" height="32" viewBox="0 0 32 32" fill="none" xmlns="http://www.w3.org/2000/svg">
<path d="M27.5712 26.1893L29.9966 23.764L28.6107 22.3781L26.1853 24.8032L27.5686 26.1866L26.1878 27.5778L28.6222 29.9939L30.003 28.6028L27.5712 26.1893Z" fill="currentcolor"/>
<path d="M24.7993 26.1888L22.3739 28.614L23.7597 30L26.1852 27.5747L24.7993 26.1888Z" fill="currentcolor"/>
<path d="M26.4967 18.1701C26.4967 15.9452 25.6304 13.8533 24.0572 12.2799C23.6005 11.8233 23.1025 11.4331 22.5768 11.1049V13.576C22.6081 13.6061 22.6404 13.6348 22.6712 13.6658C23.8743 14.8689 24.5368 16.4685 24.5368 18.1701C24.5368 19.8716 23.874 21.4712 22.6709 22.6743C20.1872 25.1577 16.146 25.1576 13.6625 22.6739C13.4771 22.4886 13.3064 22.2928 13.1471 22.0898C12.2726 20.9746 11.7968 19.609 11.7969 18.1697C11.7969 18.0053 11.805 17.8422 11.8173 17.6799C11.9319 16.1631 12.5759 14.7523 13.6628 13.6655C14.7801 12.5483 16.2128 11.9355 17.6769 11.8235V9.85998C15.7101 9.97488 13.7765 10.7803 12.277 12.2794C10.8196 13.7367 9.97024 15.6391 9.85252 17.6799C9.84321 17.8423 9.83696 18.0054 9.83696 18.1695C9.83696 19.5596 10.1751 20.8977 10.8125 22.0898C11.1953 22.806 11.6862 23.4693 12.2765 24.0597C13.9006 25.6839 16.0335 26.496 18.1668 26.4959C19.9918 26.4959 21.8159 25.8994 23.3221 24.7107L24.7989 26.189L26.1855 24.8038L24.7083 23.3252C25.8662 21.8618 26.4965 20.0649 26.4966 18.1704L26.4967 18.1701Z" fill="currentcolor"/>
<path d="M8.50185 2H3.29959L1.99707 3.3024V8.50417L3.95704 6.54444V3.95997H6.54176L8.50185 2Z" fill="currentcolor"/>
<path d="M20.8602 9.83989C20.4513 8.93573 19.8799 8.10274 19.1572 7.38C16.144 4.36716 11.3784 4.15107 8.11182 6.72892L6.11987 4.73698L4.73405 6.1228L6.7255 8.11426C5.56741 9.57787 4.93703 11.3747 4.93691 13.2694C4.93691 15.4943 5.80322 17.5862 7.37646 19.1596C7.83313 19.6162 8.33109 20.0064 8.85685 20.3347V17.8635C8.82549 17.8334 8.79328 17.8046 8.76241 17.7737C7.55935 16.5707 6.89688 14.971 6.89688 13.2695C6.89688 11.568 7.5596 9.96839 8.76277 8.76534C10.0047 7.52357 11.6356 6.90287 13.2668 6.90287C14.898 6.90287 16.5294 7.52394 17.7712 8.76583C18.1011 9.09571 18.3888 9.45635 18.6349 9.83989C18.8375 10.1557 19.0125 10.4866 19.1552 10.8311C19.2736 11.1173 19.371 11.4122 19.4465 11.7139C19.4967 11.915 19.5372 12.1192 19.5677 12.3257C19.6136 12.6357 19.6368 12.9511 19.6368 13.2701C19.6368 13.6013 19.611 13.9285 19.5616 14.2498C19.3575 15.5792 18.7399 16.8054 17.7709 17.7742C16.6536 18.8914 15.221 19.5043 13.7569 19.6162V21.5798C15.7236 21.4649 17.6574 20.6594 19.1568 19.1603C20.4968 17.8204 21.3217 16.1038 21.5378 14.2498C21.5754 13.9269 21.5968 13.6003 21.5968 13.2702C21.5968 12.0673 21.3415 10.9042 20.8602 9.83989Z" fill="currentcolor"/>
</svg>
