<svg width="32" height="32" viewBox="0 0 32 32" fill="none" xmlns="http://www.w3.org/2000/svg">
<path d="M16.4912 10.3634V6.91228H15.5087V10.3634C10.3189 10.6204 6.17578 14.923 6.17578 20.1754C6.17578 25.5927 10.5831 30 16.0003 30C21.4176 30 25.8249 25.5927 25.8249 20.1754C25.8249 14.9227 21.6814 10.6199 16.4912 10.3634ZM16.0003 29.0175C11.1248 29.0175 7.15824 25.051 7.15824 20.1754C7.15824 15.2999 11.1248 11.3333 16.0003 11.3333C20.8759 11.3333 24.8424 15.2999 24.8424 20.1754C24.8424 25.051 20.8759 29.0175 16.0003 29.0175Z" fill="currentcolor"/>
<path d="M16.2035 2H15.7965L11.3756 6.42105H12.7649L16 3.18595L19.2351 6.42105H20.6244L16.2035 2Z" fill="currentcolor"/>
</svg>
