<svg width="32" height="32" viewBox="0 0 32 32" fill="none" xmlns="http://www.w3.org/2000/svg">
<path d="M22.1151 18.0002L19.1383 17.9998C20.2081 18.8974 21.2414 19.872 22.1353 21H13.5V23H23.4576C23.7914 23.6205 24.0815 24.2845 24.3172 25H11V27H24.8043C24.931 27.7775 25 28.6079 25 29.5V30H27V29.5C27 24.1021 24.7576 20.6131 22.1151 18.0004V18.0002Z" fill="currentcolor"/>
<path d="M19.4785 11.788C21.1753 9.33712 22 6.299 22 2.5V2H20V2.5C20 3.40263 19.9495 4.23263 19.8553 5H7.2195C7.0745 4.17688 6.99975 3.3405 7 2.5V2H5V2.49975C4.99888 6.73362 6.67075 10.8756 9.5615 13.9995L12.4635 14C11.4063 13.1235 10.4815 12.1109 9.708 11.0004L17.5705 11.0025C16.5605 12.3495 15.317 13.3915 14.002 14.384C13.6418 14.6559 13.2762 14.924 12.9086 15.1936C12.5465 15.4591 12.1821 15.7265 11.819 16.0001C11.8141 16.0038 11.8094 16.0075 11.8045 16.0111C10.2571 17.1778 8.73488 18.4596 7.5215 20.2121C5.82475 22.663 5 25.7011 5 29.5001H7C7 22.0069 10.4446 19.4809 14.0914 16.8065C16.0015 15.4057 17.9768 13.9571 19.4785 11.788ZM8.529 9.00012C8.21138 8.35287 7.93988 7.68437 7.71813 7H19.4783C19.2863 7.7315 19.0456 8.39475 18.7646 9.00275L8.529 9.00012Z" fill="currentcolor"/>
<path d="M6.99976 29.5H5.00024V30H6.99976V29.5Z" fill="currentcolor"/>
</svg>
