<svg width="32" height="32" viewBox="0 0 32 32" fill="none" xmlns="http://www.w3.org/2000/svg">
<path d="M28.0976 16.9333C27.6792 22.4091 23.6096 26.8788 18.3253 27.9088C20.8622 24.7866 22.3298 20.9579 22.5267 16.9333H20.6583V15.0667H22.5268C22.3299 11.042 20.8626 7.21337 18.326 4.09137C23.6099 5.12165 27.679 9.59127 28.0975 15.0667H29.9679C29.4859 7.7806 23.4057 2 15.9998 2C8.59389 2 2.51369 7.7806 2.03174 15.0667H3.90214C4.32179 9.57645 8.41177 5.0975 13.7165 4.08308C11.1758 7.2066 9.70607 11.0385 9.50902 15.0667H11.3781V16.9333H9.50902C9.70607 20.9615 11.1762 24.7934 13.7172 27.917C8.41212 26.903 4.32167 22.4238 3.90214 16.9333H2.03174C2.5138 24.2194 8.594 30 15.9999 30C23.4058 30 29.486 24.2194 29.968 16.9333H28.0976ZM15.8972 4.4164L16.0179 4.28632L16.1385 4.4164C18.8568 7.3473 20.4415 11.0991 20.657 15.0667H11.3786C11.5941 11.0991 13.1788 7.34718 15.8971 4.4164H15.8972ZM11.3788 16.9333H20.6571C20.4416 20.8985 18.8585 24.6484 16.1426 27.5786L16.018 27.7131L15.8934 27.5786C13.1775 24.6484 11.5942 20.8985 11.3788 16.9333Z" fill="currentcolor"/>
<path d="M9.50785 15.0667H3.90202V16.9333H9.50785V15.0667Z" fill="currentcolor"/>
<path d="M22.5273 15.0736C22.5421 15.3801 22.55 15.6878 22.55 15.9964C22.55 16.307 22.5422 16.6165 22.5273 16.9249V16.9333H28.0976V15.0667H22.5273V15.0736Z" fill="currentcolor"/>
</svg>
