<svg width="32" height="32" viewBox="0 0 32 32" fill="none" xmlns="http://www.w3.org/2000/svg">
<path d="M3.49887 23.5C3.49887 22.6729 4.17175 22 4.99887 22H17.9989C18.826 22 19.4989 22.6729 19.4989 23.5V26.5H20.4989V23.5C20.4989 22.1215 19.3774 21 17.9989 21H4.99887C3.62037 21 2.49887 22.1215 2.49887 23.5V26.5H3.49887V23.5Z" fill="currentcolor"/>
<path d="M21.9989 14V15H24.9989C26.9287 15 28.4989 16.5701 28.4989 18.5H29.4989C29.4989 16.0186 27.4802 14 24.9989 14H21.9989Z" fill="currentcolor"/>
<path d="M30 21H21.9989V22H30V21Z" fill="currentcolor"/>
<path d="M10.999 18C13.4804 18 15.499 15.9814 15.499 13.5C15.499 11.0186 13.4804 9 10.999 9C8.51763 9 6.499 11.0186 6.499 13.5C6.499 15.9814 8.51763 18 10.999 18ZM10.999 10C12.9289 10 14.499 11.5701 14.499 13.5C14.499 15.4299 12.9289 17 10.999 17C9.06913 17 7.499 15.4299 7.499 13.5C7.499 11.5701 9.06913 10 10.999 10Z" fill="currentcolor"/>
<path d="M20.999 11C23.4804 11 25.499 8.98137 25.499 6.5C25.499 4.01863 23.4804 2 20.999 2C18.5176 2 16.499 4.01863 16.499 6.5C16.499 8.98137 18.5176 11 20.999 11ZM20.999 3C22.9289 3 24.499 4.57013 24.499 6.5C24.499 8.42987 22.9289 10 20.999 10C19.0691 10 17.499 8.42987 17.499 6.5C17.499 4.57013 19.0691 3 20.999 3Z" fill="currentcolor"/>
<path d="M21 29H2V30H21V29Z" fill="currentcolor"/>
</svg>
