<svg width="32" height="32" viewBox="0 0 32 32" fill="none" xmlns="http://www.w3.org/2000/svg">
<path d="M4.41346 23.2414C4.41346 22.709 4.84661 22.2759 5.37897 22.2759H17.9307C18.4631 22.2759 18.8962 22.709 18.8962 23.2414V26.1379H20.8272V23.2414C20.8272 21.6443 19.5278 20.3448 17.9307 20.3448H5.37897C3.78189 20.3448 2.48242 21.6443 2.48242 23.2414V26.1379H4.41346V23.2414Z" fill="currentcolor"/>
<path d="M21.7928 13.5862V15.5172H24.6893C26.2864 15.5172 27.5859 16.8167 27.5859 18.4138H29.5169C29.5169 15.7519 27.3512 13.5862 24.6893 13.5862H21.7928Z" fill="currentcolor"/>
<path d="M29.518 20.3448H21.7928V22.2759H29.518V20.3448Z" fill="currentcolor"/>
<path d="M11.1722 18.4138C13.8341 18.4138 15.9998 16.2481 15.9998 13.5862C15.9998 10.9243 13.8341 8.75862 11.1722 8.75862C8.51027 8.75862 6.34461 10.9243 6.34461 13.5862C6.34461 16.2481 8.51027 18.4138 11.1722 18.4138ZM11.1722 10.6897C12.7693 10.6897 14.0687 11.9891 14.0687 13.5862C14.0687 15.1833 12.7693 16.4828 11.1722 16.4828C9.57511 16.4828 8.27565 15.1833 8.27565 13.5862C8.27565 11.9891 9.57511 10.6897 11.1722 10.6897Z" fill="currentcolor"/>
<path d="M20.8274 11.6552C23.4893 11.6552 25.655 9.48952 25.655 6.82759C25.655 4.16566 23.4893 2 20.8274 2C18.1654 2 15.9998 4.16566 15.9998 6.82759C15.9998 9.48952 18.1654 11.6552 20.8274 11.6552ZM20.8274 3.93103C22.4245 3.93103 23.7239 5.2305 23.7239 6.82759C23.7239 8.42467 22.4245 9.72414 20.8274 9.72414C19.2303 9.72414 17.9308 8.42467 17.9308 6.82759C17.9308 5.2305 19.2303 3.93103 20.8274 3.93103Z" fill="currentcolor"/>
<path d="M20.8283 28.069H2.48351V30H20.8283V28.069Z" fill="currentcolor"/>
</svg>
