<svg width="32" height="32" viewBox="0 0 32 32" fill="none" xmlns="http://www.w3.org/2000/svg">
<path d="M18.799 24.5689L18.545 24.716V30H19.563V25.2878C19.8507 25.0865 20.1083 24.8427 20.3254 24.5677C20.991 25.4139 22.0173 25.928 23.126 25.928C25.0906 25.928 26.689 24.3296 26.689 22.365C26.689 21.2608 26.1781 20.2373 25.337 19.5713C26.1866 18.9059 26.7028 17.8779 26.7028 16.766C26.7028 15.6541 26.1866 14.6262 25.337 13.9608C26.1781 13.2948 26.689 12.2713 26.689 11.1671C26.689 10.0571 26.1744 9.03054 25.3272 8.36502C26.1743 7.69951 26.689 6.67299 26.689 5.56299C26.689 3.59838 25.0906 2 23.126 2C22.0179 2 20.9923 2.51358 20.3265 3.3589C19.6607 2.51358 18.6351 2 17.527 2C16.4189 2 15.3933 2.51358 14.7275 3.3589C14.0617 2.51358 13.0361 2 11.928 2C10.8199 2 9.7943 2.51358 9.12853 3.3589C8.46276 2.51358 7.43713 2 6.32904 2C4.36443 2 2.76605 3.59838 2.76605 5.56299C2.76605 6.67299 3.28065 7.69938 4.12788 8.36502C3.28065 9.03054 2.76605 10.0569 2.76605 11.1671C2.76605 12.2772 3.27963 13.3008 4.12495 13.9666C3.2795 14.6323 2.76605 15.658 2.76605 16.766C2.76605 18.7306 4.36443 20.329 6.32904 20.329C8.29365 20.329 9.89203 18.7306 9.89203 16.766C9.89203 15.658 9.37845 14.6323 8.53313 13.9666C9.37858 13.3008 9.89203 12.2751 9.89203 11.1671C9.89203 10.059 9.37769 9.03079 8.53059 8.36528C8.75327 8.19057 8.95395 7.99002 9.12891 7.76759C9.79468 8.61278 10.8202 9.1261 11.9282 9.1261C13.0361 9.1261 14.0619 8.61252 14.7276 7.76721C15.3934 8.61265 16.419 9.1261 17.5271 9.1261C18.6352 9.1261 19.6609 8.61252 20.3266 7.76721C20.5016 7.98938 20.7026 8.1898 20.9256 8.36451C20.078 9.0299 19.5631 10.0566 19.5631 11.1671C19.5631 12.2776 20.0794 13.3069 20.929 13.9723C20.0879 14.6383 19.577 15.6618 19.577 16.766C19.577 17.8703 20.0879 18.8938 20.929 19.5598C20.7049 19.7354 20.503 19.9372 20.327 20.1614C19.6614 19.3157 18.6356 18.802 17.5271 18.802C15.5625 18.802 13.9641 20.4004 13.9641 22.365C13.9641 23.5314 14.5424 24.6256 15.4911 25.2882V30H16.5091V24.716L16.255 24.569C15.4699 24.1146 14.9821 23.27 14.9821 22.3652C14.9821 20.9618 16.1238 19.8202 17.5271 19.8202C18.5389 19.8202 19.4541 20.4195 19.8597 21.3472H20.7953C21.054 20.7561 21.52 20.2898 22.1081 20.0328V19.0923C21.1887 18.6837 20.595 17.772 20.595 16.7662C20.595 15.7604 21.1887 14.8486 22.1081 14.4402V13.4998C21.1803 13.0941 20.5811 12.1796 20.5811 11.1673C20.5811 10.155 21.1803 9.24037 22.1081 8.83483V7.89395C21.5192 7.63614 21.0536 7.17231 20.7959 6.58633H19.8573C19.4506 7.51105 18.5369 8.10836 17.5271 8.10836C16.5174 8.10836 15.6036 7.51105 15.1969 6.58633H14.2585C13.8518 7.51105 12.938 8.10836 11.9283 8.10836C10.9186 8.10836 10.0048 7.51105 9.59808 6.58633H8.65949C8.40105 7.1741 7.93557 7.63868 7.34729 7.89585V8.83483C8.27507 9.24037 8.87429 10.1552 8.87429 11.1673C8.87429 12.1795 8.27494 13.0944 7.34729 13.4999V14.4337C8.27494 14.8392 8.87429 15.7548 8.87429 16.7663C8.87429 18.1696 7.7326 19.3113 6.3293 19.3113C4.92599 19.3113 3.7843 18.1696 3.7843 16.7663C3.7843 15.7548 4.38365 14.8392 5.3113 14.4337V13.4999C4.38365 13.0944 3.7843 12.1788 3.7843 11.1673C3.7843 10.1558 4.38352 9.24037 5.3113 8.83483V7.89585C4.38352 7.49018 3.7843 6.57551 3.7843 5.56337C3.7843 4.16006 4.92599 3.01838 6.3293 3.01838C7.34118 3.01838 8.257 3.61811 8.66229 4.54626L8.66407 4.55034H9.59337L9.59516 4.54626C10.0006 3.61811 10.9163 3.01838 11.9282 3.01838C12.94 3.01838 13.8559 3.61811 14.2611 4.54626L14.2629 4.55034H15.1922L15.194 4.54626C15.5994 3.61811 16.5151 3.01838 17.527 3.01838C18.5389 3.01838 19.4547 3.61811 19.86 4.54626L19.8618 4.55034H20.7911L20.7929 4.54626C21.1983 3.61811 22.114 3.01838 23.1259 3.01838C24.5292 3.01838 25.6709 4.16006 25.6709 5.56337C25.6709 6.57551 25.0716 7.49031 24.1439 7.89585V8.83483C25.0716 9.2405 25.6709 10.1552 25.6709 11.1673C25.6709 12.1795 25.0734 13.0912 24.1488 13.4978L24.1439 13.4999V14.4276L24.1511 14.4308C25.0828 14.8348 25.6848 15.7516 25.6848 16.7663C25.6848 17.781 25.0828 18.6978 24.1511 19.1018L24.1439 19.1049V20.0325L24.1488 20.0347C25.0734 20.4413 25.6709 21.3561 25.6709 22.3652C25.6709 23.7685 24.5292 24.9101 23.1259 24.9101C22.1144 24.9101 21.1988 24.3108 20.7932 23.3832H19.8595C19.6437 23.8768 19.2671 24.2977 18.799 24.5689Z" fill="currentcolor"/>
<path d="M17.018 17.275V16.257C13.9307 16.257 11.419 18.7687 11.419 21.856H12.437C12.437 19.33 14.492 17.275 17.018 17.275Z" fill="currentcolor"/>
<path d="M29.234 22.874H28.216C28.216 25.4001 26.161 27.455 23.635 27.455V28.473C26.7223 28.473 29.234 25.9614 29.234 22.874Z" fill="currentcolor"/>
</svg>
