<svg width="32" height="32" viewBox="0 0 32 32" fill="none" xmlns="http://www.w3.org/2000/svg">
<path d="M14.0689 14.7269L14.0685 7.15704V7.7715H13.0577L13.0581 14.7269H14.0689Z" fill="currentcolor"/>
<path d="M12.0469 5.13566C10.9322 5.13566 10.0253 6.04237 10.0253 7.15704V17.1317L5.3194 12.8544C4.52692 12.0708 3.38179 12.0739 2.59221 12.8635C2.21038 13.2452 2 13.7311 2 14.2315C2 14.7319 2.21025 15.2178 2.59221 15.5995L10.0253 23.0313V29.8989H11.0361V22.6126L3.30686 14.8847C3.11316 14.691 3.01082 14.4653 3.01082 14.2315C3.01082 13.9977 3.11316 13.772 3.30686 13.5784C3.70373 13.1814 4.21672 13.1814 4.61385 13.5784L9.7795 18.2741H11.0362V7.15704C11.0362 6.59983 11.4897 6.14648 12.047 6.14648C12.6044 6.14648 13.0578 6.59983 13.0578 7.15704V5.40922C12.76 5.23637 12.4153 5.13566 12.0469 5.13566Z" fill="currentcolor"/>
<path d="M21.1446 8.16774C21.702 8.16774 22.1554 8.62109 22.1554 9.1783V14.7324H23.1663V9.1783C23.1663 8.06375 22.2593 7.15692 21.1442 7.15692C20.7759 7.15692 20.4315 7.25749 20.1338 7.43022V9.17097C20.1377 8.61717 20.5893 8.16774 21.1446 8.16774Z" fill="currentcolor"/>
<path d="M17.1013 5.12353C17.1053 4.56973 17.5568 4.1203 18.1122 4.1203C18.6675 4.1203 19.123 4.57365 19.123 5.13086V14.7319H20.1338V5.13086C20.1338 4.01631 19.2268 3.10948 18.1118 3.10948C17.695 3.10948 17.3072 3.23634 16.9851 3.45341C17.059 3.66328 17.1013 3.88781 17.1013 4.1227V5.12353Z" fill="currentcolor"/>
<path d="M14.0685 7.15704V4.1227C14.0685 3.56549 14.522 3.11214 15.0797 3.11214C15.6374 3.11214 16.0905 3.56549 16.0905 4.1227V14.7343H17.1013V4.1227C17.1013 3.88781 17.059 3.66328 16.9851 3.45341C16.708 2.66725 15.9596 2.10132 15.0793 2.10132C13.9647 2.10132 13.0577 3.00815 13.0577 4.1227V7.7715H14.0685V7.15704Z" fill="currentcolor"/>
<path d="M26.7255 25.6793L24.8798 23.8339H23.4503L26.4873 26.8706H26.9635L30 23.8339H28.5707L26.7255 25.6793Z" fill="currentcolor"/>
<path d="M20.6388 16.2528C17.0159 16.2528 14.0685 19.2002 14.0685 22.8231C14.0685 26.446 17.0159 29.3934 20.6388 29.3934V28.3826C17.5733 28.3826 15.0793 25.8886 15.0793 22.8231C15.0793 19.7575 17.5733 17.2636 20.6388 17.2636C23.3591 17.2636 25.6276 19.2278 26.1046 21.8122H27.1312C26.6435 18.6676 23.9179 16.2528 20.6388 16.2528Z" fill="currentcolor"/>
</svg>
