<svg width="32" height="32" viewBox="0 0 32 32" fill="none" xmlns="http://www.w3.org/2000/svg">
<path d="M30 15.478C30 14.5606 29.4717 13.7662 28.7045 13.3775C28.8599 13.0635 28.9497 12.7112 28.9497 12.3376C28.9497 11.7084 28.7047 11.1169 28.2599 10.672C27.8151 10.2271 27.2235 9.98209 26.5944 9.98209H23.7187V9.94663L21.6027 6.99585C21.0633 6.24366 20.1886 5.79468 19.263 5.79468L16.4712 5.7952C15.7024 5.79533 14.9798 6.09487 14.4361 6.63834L11.0923 9.98196H8.27686V11.5523H11.7427L15.5462 7.74882C15.7934 7.50176 16.1218 7.36566 16.4712 7.36553L19.2628 7.36501C19.6835 7.36501 20.0812 7.56915 20.3263 7.91096L22.1481 10.4514V15.4781C22.1481 16.3574 21.2898 16.2609 21.2385 16.2527C20.8645 16.1927 20.5774 15.8687 20.5774 15.4781V10.745H19.007V13.5815L17.9353 14.6534C16.897 15.6915 15.517 16.2633 14.0489 16.2633H10.3693V17.8336H14.0489C15.9284 17.8336 17.6957 17.1043 19.0286 15.7803C19.0884 16.2498 19.2872 16.6861 19.6049 17.0423C19.2193 17.4753 19.0063 18.026 19.0063 18.6108C19.0063 19.8672 19.9924 20.8947 21.2309 20.9676C21.1464 21.2124 21.0999 21.4713 21.1 21.738C21.1003 23.0368 22.157 24.0932 23.4558 24.0932L25.5473 24.0929C26.846 24.0929 27.9026 23.0362 27.9026 21.7374C27.9026 21.3765 27.8195 21.029 27.6666 20.7134C28.4271 20.3223 28.9494 19.5313 28.9494 18.6189C28.9494 18.2517 28.8637 17.8985 28.7059 17.5786C29.4722 17.1895 29.9999 16.3953 29.9999 15.478H30ZM23.7188 11.5524H26.5945C26.8043 11.5524 27.0012 11.6341 27.1495 11.7823C27.2977 11.9306 27.3794 12.1278 27.3794 12.3376C27.3794 12.7706 27.0274 13.1227 26.5944 13.1227H23.7188V11.5524ZM23.7188 15.4782V14.6933L27.6448 14.6931C28.0777 14.6931 28.4297 15.0451 28.4297 15.4789C28.4297 15.9127 28.0777 16.2638 27.6448 16.2638H26.6047C26.6018 16.2638 26.5991 16.2634 26.5963 16.2634L23.5851 16.2536C23.6703 16.0103 23.7188 15.7502 23.7188 15.4782ZM20.5769 18.6108C20.5769 18.3981 20.6598 18.1986 20.8103 18.0485C20.8114 18.0474 20.8125 18.0462 20.8136 18.0452C20.9578 17.9031 21.1591 17.8343 21.3615 17.8343H26.6029C26.8094 17.8365 27.0032 17.9175 27.1493 18.0638C27.2998 18.2143 27.3817 18.4153 27.3791 18.6286C27.374 19.0643 26.9945 19.4042 26.5586 19.4042L21.3707 19.4045C20.9328 19.4045 20.5769 19.0484 20.5769 18.6108ZM25.512 22.5227L23.4911 22.523C23.0552 22.523 22.6756 22.1833 22.6705 21.7473C22.668 21.5339 22.7499 21.3329 22.9004 21.1823C22.9178 21.1649 22.936 21.1483 22.9549 21.1327C23.0861 21.024 23.2567 20.9745 23.4273 20.9745H25.5756C25.7461 20.9745 25.9168 21.0237 26.048 21.1325C26.0669 21.148 26.0849 21.1645 26.1024 21.1821C26.2528 21.3326 26.3347 21.5333 26.3322 21.7465C26.3273 22.1824 25.9478 22.5223 25.5119 22.5225L25.512 22.5227Z" fill="currentcolor"/>
<path d="M10.1083 20.7127V20.1892H8.53793V20.7127C8.53793 22.7478 9.90516 24.115 11.9403 24.115H18.746V22.5447H11.9403C10.776 22.5447 10.1083 21.8769 10.1083 20.7127Z" fill="currentcolor"/>
<path d="M2 24.6351V26.2054H5.92203V7.95336H2V9.52368H4.3517V24.6351H2Z" fill="currentcolor"/>
</svg>
