<svg width="32" height="32" viewBox="0 0 32 32" fill="none" xmlns="http://www.w3.org/2000/svg">
<path d="M16.2634 23.6668L12.4037 27.5273C12.1232 27.8074 11.6677 27.8076 11.3875 27.5273C11.2519 27.3916 11.1771 27.2113 11.1771 27.0194C11.1771 26.8274 11.2517 26.6472 11.3874 26.5115L14.4327 23.466L13.4166 22.4501L10.3715 25.4955C10.3715 25.4955 10.3712 25.4959 10.371 25.4961L9.01712 26.8503C8.73705 27.1305 8.28119 27.1305 8.00099 26.8503C7.86532 26.7146 7.79049 26.5342 7.79049 26.3422C7.79049 26.1503 7.8652 25.9699 8.00099 25.8343L12.4008 21.434L11.3847 20.418L6.30736 25.4958C6.17169 25.6314 5.99136 25.7061 5.79953 25.7061C5.60771 25.7061 5.42726 25.6314 5.29147 25.4958C5.1558 25.3601 5.08096 25.1796 5.08096 24.9877C5.08096 24.7957 5.15568 24.6154 5.29147 24.4796L6.64012 23.1309L6.63988 23.1306C6.64192 23.1286 6.6442 23.1269 6.64623 23.1249L10.3687 19.4021L9.35252 18.3862L5.63022 22.109C5.35014 22.3892 4.89428 22.3892 4.61409 22.109C4.47842 21.9733 4.40358 21.7929 4.40358 21.6009C4.40358 21.409 4.4783 21.2286 4.61409 21.0928L9.2596 16.4467L8.24347 15.4308L6.88751 16.787C6.75196 16.9226 6.57175 16.9973 6.37992 16.9973C6.1881 16.9973 6.00801 16.9226 5.87234 16.787C5.73667 16.6515 5.66195 16.471 5.66207 16.2792C5.66207 16.0873 5.73691 15.9071 5.8727 15.7715L7.55962 14.0872H5.52592L4.8574 14.7547C4.44992 15.1615 4.22541 15.7028 4.22517 16.2787C4.22493 16.8547 4.44908 17.3961 4.85633 17.8032C5.03223 17.9791 5.23411 18.1185 5.45204 18.2226L3.59808 20.0768C3.19095 20.484 2.9668 21.0252 2.9668 21.601C2.9668 22.1768 3.19107 22.718 3.5982 23.125C3.77793 23.3047 3.98269 23.4436 4.20038 23.5465C3.84223 23.9431 3.64418 24.4496 3.64418 24.9877C3.64418 25.5634 3.86846 26.1047 4.27558 26.5118C4.68258 26.9189 5.22393 27.1431 5.79965 27.1429C6.03088 27.1429 6.25587 27.1052 6.46949 27.0355C6.57427 27.3447 6.74741 27.6287 6.9851 27.8663C7.40528 28.2865 7.95717 28.4965 8.50918 28.4965C9.02575 28.4965 9.54087 28.3099 9.94955 27.9419C10.0541 28.1621 10.1944 28.366 10.372 28.5434C10.7922 28.9636 11.344 29.1736 11.896 29.1736C12.4479 29.1736 13 28.9635 13.4202 28.5432L18.2957 23.6667H16.2638L16.2634 23.6668Z" fill="currentcolor"/>
<path d="M28.5984 10.2266C28.4187 10.0469 28.2139 9.90798 27.9962 9.805C28.3544 9.40854 28.5524 8.90191 28.5524 8.36379C28.5524 7.78807 28.3283 7.24684 27.9213 6.83971C27.6837 6.60214 27.3997 6.42888 27.0905 6.3241C27.1602 6.11048 27.1979 5.88537 27.1979 5.65427C27.1979 5.07855 26.9738 4.53731 26.5668 4.13019C26.1598 3.72307 25.6185 3.49879 25.0427 3.49879C24.5049 3.49879 23.9986 3.6966 23.6023 4.05427C23.4978 3.83407 23.3574 3.63015 23.1801 3.45269C22.7731 3.04557 22.2319 2.82129 21.656 2.82129C21.0804 2.82129 20.5392 3.04545 20.1321 3.45245L18.2779 5.30654C18.1736 5.0886 18.0342 4.8866 17.8584 4.71082C17.4514 4.3037 16.9103 4.07966 16.3346 4.07966H16.3338C15.7579 4.07978 15.2166 4.30441 14.8098 4.7119L12.5489 6.97562C11.4244 8.10143 10.6848 9.52481 10.4096 11.0919L10.3836 11.2398C9.9656 13.6205 10.736 16.0624 12.4446 17.7719L13.0214 18.3491C13.9908 19.3189 15.1813 19.987 16.4791 20.3076C17.0585 20.4507 17.6591 20.5248 18.2713 20.5249H18.2727C19.1444 20.5249 19.9932 20.3754 20.7898 20.0889C21.8052 19.7238 22.7361 19.1364 23.5217 18.3508L28.5983 13.2746C29.4388 12.4344 29.4389 11.067 28.5983 10.2265L28.5984 10.2266ZM27.5824 12.2586L22.5058 17.3347C21.375 18.4655 19.8717 19.0881 18.2725 19.0881H18.2714C16.672 19.0879 15.1684 18.4646 14.0378 17.3333L13.461 16.7561C12.083 15.3776 11.4618 13.4083 11.7987 11.4882L11.8247 11.3403C12.0486 10.0653 12.6506 8.90706 13.5655 7.99091L15.8265 5.72719C15.962 5.5914 16.1424 5.51656 16.3342 5.51656H16.3344C16.5263 5.51656 16.7065 5.59128 16.8421 5.72683C16.9777 5.86238 17.0523 6.04271 17.0523 6.23442C17.0523 6.42612 16.9776 6.60646 16.842 6.74212L14.3769 9.20713L15.3928 10.2231L21.1477 4.4687C21.4279 4.1885 21.8836 4.18874 22.1637 4.4687C22.4439 4.7489 22.4438 5.20463 22.1637 5.48483L18.4408 9.20725L19.4567 10.2234L23.1796 6.50096C23.1816 6.49893 23.1833 6.49665 23.1854 6.49474L23.1856 6.49498L24.5345 5.14632C24.6703 5.01065 24.8506 4.93593 25.0424 4.93593C25.2343 4.93593 25.4146 5.01065 25.5504 5.14644C25.6861 5.28211 25.7608 5.46256 25.7608 5.65451C25.7608 5.84645 25.6861 6.02678 25.5504 6.16257L20.4727 11.2396L21.4886 12.2556L25.8891 7.8556C26.1695 7.57565 26.625 7.57589 26.905 7.85584C27.1852 8.13604 27.1851 8.59178 26.905 8.87197L22.5047 13.2717L23.5206 14.2877L26.566 11.2425C26.8462 10.9624 27.3019 10.9627 27.5821 11.2425C27.8621 11.5227 27.8621 11.9784 27.5821 12.2585L27.5824 12.2586Z" fill="currentcolor"/>
<path d="M23.1194 21.7509H24.1425V21.7549H25.1476L26.5579 20.3447L27.9679 21.7549H30L27.1222 18.877H25.9934L23.1194 21.7509Z" fill="currentcolor"/>
<path d="M20.7897 27.742V29.1789C24.0295 29.1789 26.72 26.7835 27.1844 23.6708H25.7263C25.2776 25.9871 23.2353 27.742 20.7897 27.742Z" fill="currentcolor"/>
<path d="M11.2103 4.26442V2.82752C7.97046 2.82752 5.27997 5.22296 4.81561 8.33565H6.27371C6.72239 6.01936 8.76471 4.26442 11.2103 4.26442Z" fill="currentcolor"/>
<path d="M6.00657 13.1294L8.88457 10.2515H6.85243L5.4421 11.6617L4.03214 10.2515H2L4.87776 13.1294H6.00657Z" fill="currentcolor"/>
</svg>
