<svg width="32" height="32" viewBox="0 0 32 32" fill="none" xmlns="http://www.w3.org/2000/svg">
<path d="M29.9567 19.4736V18.9863C29.9567 17.3409 28.6182 16.0023 26.9727 16.0023C26.6161 16.0023 26.2739 16.0654 25.9567 16.1807V15.9863C25.9567 14.3409 24.6181 13.0023 22.9727 13.0023C22.4354 13.0023 21.9312 13.1458 21.4953 13.3954C20.9661 12.5592 20.0334 12.0023 18.9727 12.0023C18.6219 12.0023 18.2853 12.0637 17.9724 12.1753V8.99144C17.9722 7.34044 16.6289 5.99732 14.9781 5.99732C14.1752 5.99732 13.4211 6.31082 12.8549 6.88019C12.2888 7.44957 11.9794 8.20532 11.9839 9.00194L11.9744 21.8127L6.43431 16.9041C5.89356 16.4249 5.17044 16.1861 4.45094 16.2473C3.73119 16.3091 3.05956 16.6679 2.60819 17.2321C1.77119 18.2784 1.84769 19.7856 2.78494 20.7418L11.6138 29.9973H14.3778L4.22681 19.3559L4.21494 19.3437C3.98356 19.1093 3.96431 18.7387 4.16994 18.4816C4.28219 18.3412 4.44269 18.2554 4.62169 18.2402C4.80019 18.2249 4.97344 18.2819 5.10794 18.4012L11.4647 24.0334H13.9726L13.9837 8.99719C13.9822 8.73057 14.0849 8.47957 14.2728 8.29057C14.4607 8.10157 14.7112 7.99744 14.9778 7.99744C15.5261 7.99744 15.9721 8.44344 15.9721 8.99169L15.9724 20.7737H15.9884V22.0184C15.9884 23.6638 17.3269 25.0024 18.9724 25.0024C19.7414 25.0024 20.4434 24.7099 20.9731 24.2304C21.5224 24.7274 22.2264 24.9992 22.9723 24.9992H22.9773C23.7429 24.9979 24.4419 24.7062 24.9702 24.2291C25.5001 24.7094 26.2026 25.0024 26.9724 25.0024C27.3199 25.0024 27.6534 24.9422 27.9638 24.8324L27.9554 29.9976H29.9554L29.9724 19.4737H29.9564L29.9567 19.4736ZM19.9567 22.0184C19.9567 22.5609 19.5153 23.0024 18.9727 23.0024C18.4301 23.0024 17.9887 22.5611 17.9887 22.0184V14.9863C17.9887 14.4438 18.4301 14.0023 18.9727 14.0023C19.5153 14.0023 19.9567 14.4437 19.9567 14.9863V22.0184ZM23.9567 22.0152C23.9567 22.5568 23.5161 22.9983 22.9744 22.9992H22.9728C22.7103 22.9992 22.4634 22.8971 22.2776 22.7116C22.0913 22.5257 21.9888 22.2784 21.9888 22.0153V15.9864C21.9888 15.4439 22.4302 15.0024 22.9728 15.0024C23.5154 15.0024 23.9568 15.4438 23.9568 15.9864V22.0153L23.9567 22.0152ZM27.9567 22.0184C27.9567 22.5609 27.5153 23.0024 26.9727 23.0024C26.4301 23.0024 25.9887 22.5611 25.9887 22.0184V18.9863C25.9887 18.4438 26.4301 18.0023 26.9727 18.0023C27.5153 18.0023 27.9567 18.4437 27.9567 18.9863V22.0184Z" fill="currentcolor"/>
<path d="M21.9728 8.98682C21.9728 5.13557 18.8397 2.00244 14.9884 2.00244V4.00244C17.7368 4.00244 19.9728 6.23844 19.9728 8.98682V8.99257L21.9728 8.98682Z" fill="currentcolor"/>
</svg>
