<svg width="32" height="32" viewBox="0 0 32 32" fill="none" xmlns="http://www.w3.org/2000/svg">
<path d="M26.1646 25.0818H30V23.5462H27.7002V8.76841H30V7.23275H26.1646V25.0818Z" fill="currentcolor"/>
<path d="M13.8168 12.8H11.2568L6.18347 17.8732C5.87045 18.1862 5.45492 18.3461 5.0124 18.3253C4.57026 18.3038 4.17188 18.1037 3.8906 17.7619C3.38562 17.1479 3.42517 16.2576 3.98248 15.6908L9.84998 9.72371H14.647V8.18805H9.20628L2.88756 14.614C1.77804 15.7423 1.69934 17.515 2.70456 18.7373C3.25637 19.4081 4.07027 19.817 4.93792 19.8592C4.9877 19.8616 5.03722 19.8628 5.08675 19.8628C5.90206 19.8628 6.69036 19.538 7.2693 18.959L11.8928 14.3357H12.2812L13.8166 12.8H13.8168Z" fill="currentcolor"/>
<path d="M20.8508 6.91333H19.7029L13.8166 12.8L12.2812 14.3357L4.66432 21.9533V25.0867H7.7977L8.93422 23.9501C8.59547 23.4982 8.39008 22.9413 8.3746 22.3379L7.16168 23.5509H6.19998V22.5892L20.2768 8.51093L21.2386 9.47263L11.2628 19.4494H13.4343L22.8363 10.0467V8.89868L20.8508 6.91333Z" fill="currentcolor"/>
<path d="M22.5839 20.4783L19.1032 23.0572C18.6771 23.3729 18.1608 23.5439 17.6304 23.5446H11.1882C10.6888 23.5446 10.2565 23.2566 10.0458 22.8385C10.0302 22.8074 10.0153 22.7759 10.0021 22.7435C9.94225 22.5956 9.90846 22.4342 9.90846 22.2649C9.90846 22.0181 9.98141 21.7886 10.1002 21.5917C10.2014 21.4239 10.3433 21.2815 10.5106 21.1796C10.7085 21.0591 10.9395 20.9852 11.1881 20.9852H16.3069V19.4496H11.1881C9.63563 19.4496 8.37268 20.7125 8.37268 22.2649C8.37268 22.2895 8.37396 22.3137 8.3746 22.338C8.39008 22.9413 8.59547 23.4981 8.93422 23.9501C9.44815 24.6357 10.2672 25.0803 11.1881 25.0803H17.6205C17.7166 25.0803 17.8305 25.0708 17.9537 25.055C18.7879 24.9477 19.5776 24.6168 20.2536 24.116L23.0907 22.014H23.862V20.4783H22.5838H22.5839Z" fill="currentcolor"/>
</svg>
