<svg width="32" height="32" viewBox="0 0 32 32" fill="none" xmlns="http://www.w3.org/2000/svg">
<path d="M26.3875 25.0363H30V24.0031H27.4207V8.57238H30V7.53916H26.3875V25.0363Z" fill="currentcolor"/>
<path d="M22.6007 20.9069L19.156 23.4592C18.6819 23.8105 18.1077 24.0006 17.5176 24.0015H11.0146C10.3424 24.0015 9.77038 23.5706 9.55611 22.9709C9.51272 22.8496 9.4834 22.7219 9.47165 22.5889C9.46765 22.5435 9.46467 22.4981 9.46467 22.4517C9.46467 22.409 9.46764 22.367 9.47113 22.3253C9.53248 21.5717 10.1343 20.9697 10.8879 20.9084C10.9298 20.9049 10.9719 20.9019 11.0145 20.9019H16.1806V19.8687H11.0145C9.59021 19.8687 8.43146 21.0274 8.43146 22.4517C8.43146 22.5104 8.43637 22.5678 8.44024 22.6256C8.46749 23.0316 8.58799 23.4116 8.78198 23.7451C9.22975 24.5148 10.0616 25.0348 11.0145 25.0348H17.5052C17.7967 25.0348 18.0856 24.998 18.3396 24.9495C18.827 24.8567 19.285 24.6494 19.6837 24.354L22.9417 21.9402H23.8055V20.9069H22.6007Z" fill="currentcolor"/>
<path d="M13.7745 13.1578H11.1908L6.14637 18.2022C5.77828 18.5703 5.28957 18.7582 4.76935 18.7338C4.24938 18.7085 3.78095 18.4732 3.45019 18.0711C2.85647 17.3493 2.90297 16.3023 3.55829 15.6358L9.55586 9.5365H14.5054V8.50329H9.12268L2.82147 14.9113C1.79458 15.9556 1.72174 17.5962 2.65203 18.7275C3.16269 19.3483 3.91604 19.7267 4.71898 19.7657C4.76496 19.7681 4.8108 19.7691 4.85665 19.7691C5.61116 19.7691 6.34087 19.4686 6.87672 18.9327L11.6184 14.191H12.741L13.7741 13.1578H13.7745Z" fill="currentcolor"/>
<path d="M20.4011 6.9585H19.9731L13.7745 13.1578L4.68889 22.2443V25.0413H7.48593L8.78198 23.7451C8.58799 23.4116 8.46749 23.0316 8.44024 22.6256L7.05792 24.0081H5.7221V22.6723L20.1871 8.20585L21.523 9.54167L11.1969 19.8688H12.658L22.7701 9.75567V9.32766L20.401 6.95863L20.4011 6.9585Z" fill="currentcolor"/>
</svg>
