<svg width="32" height="32" viewBox="0 0 32 32" fill="none" xmlns="http://www.w3.org/2000/svg">
<path d="M24.4695 7.0015C24.2985 7.0015 24.1314 7.01888 23.9699 7.05188V5.49713C23.9699 4.11875 22.8484 2.99738 21.4695 2.99738C21.1557 2.99738 20.8564 3.058 20.5794 3.164C20.1355 2.46563 19.3568 2 18.4695 2C17.091 2 15.9695 3.12138 15.9695 4.49975V5.05225C15.8079 5.01937 15.6408 5.00187 15.4695 5.00187C14.8018 5.00187 14.174 5.26188 13.7018 5.734C13.2295 6.20613 12.9694 6.83388 12.9695 7.50163V16.2394L9.15777 12.7746C8.18477 11.8204 6.72965 11.8266 5.76252 12.7933C5.29027 13.2654 5.03027 13.8716 5.03027 14.5002C5.03027 15.1289 5.2904 15.735 5.76252 16.2071L12.9695 23.4129V29.9998H14.9695V22.5842L7.17652 14.7928C7.10977 14.726 7.03015 14.621 7.03015 14.5001C7.03015 14.3792 7.10977 14.2741 7.1764 14.2075C7.37077 14.0129 7.56802 14.0129 7.7624 14.2075L12.4833 18.4995H14.9695V7.5015C14.9695 7.32163 15.0611 7.203 15.1159 7.14838C15.1706 7.09375 15.2893 7.00187 15.4695 7.00187C15.7453 7.00187 15.9695 7.22613 15.9695 7.50163V8.1095L15.9699 14.9905H17.9699L17.9695 7.5015V4.49975C17.9695 4.22425 18.1938 4 18.4699 4C18.746 4 18.9699 4.22425 18.9699 4.49975V14.9978H20.9699V5.49288C20.9723 5.21938 21.1953 4.99738 21.4699 4.99738C21.7445 4.99738 21.9699 5.22163 21.9699 5.49713V14.9954H23.9699V9.497C23.9723 9.2235 24.1953 9.0015 24.4699 9.0015C24.7445 9.0015 24.9699 9.22575 24.9699 9.50125V18.5H24.9695V23.5C24.9695 24.4673 24.4368 25 23.4695 25H22.9695V27H23.4695C23.6408 27 23.8073 26.9891 23.9695 26.9697V30H25.9695V26.0444C26.6005 25.4259 26.9695 24.5427 26.9695 23.5V20.3818H26.9699V9.50125C26.9699 8.12288 25.8484 7.0015 24.4695 7.0015Z" fill="currentcolor"/>
</svg>
