<svg width="32" height="32" viewBox="0 0 32 32" fill="none" xmlns="http://www.w3.org/2000/svg">
<path d="M24.0718 12.5951C25.8801 12.5951 27.351 11.1242 27.351 9.31596C27.351 7.50775 25.8801 6.03678 24.0718 6.03678C22.2636 6.03678 20.7927 7.50775 20.7927 9.31596C20.7927 11.1242 22.2636 12.5951 24.0718 12.5951ZM24.0718 7.55025C25.0455 7.55025 25.8375 8.3423 25.8375 9.31596C25.8375 10.2896 25.0455 11.0817 24.0718 11.0817C23.0982 11.0817 22.3061 10.2896 22.3061 9.31596C22.3061 8.3423 23.0982 7.55025 24.0718 7.55025Z" fill="currentcolor"/>
<path d="M19.9189 6.65642C20.8278 5.74456 20.9731 4.3026 20.2643 3.22767C19.8568 2.60954 19.2319 2.19145 18.5049 2.05082C17.7778 1.90981 17.042 2.06457 16.4331 2.48607L4.64902 10.644V30H6.16248V11.437L17.2947 3.73051C17.5659 3.54284 17.8937 3.47398 18.2174 3.53666C18.5411 3.59935 18.8194 3.7855 19.001 4.0607C19.3167 4.53946 19.2518 5.18168 18.8471 5.58766L11.7117 12.7455V22.8952H17.3934L22.2052 16.3077C22.5513 15.834 23.1697 15.6644 23.7089 15.8958C24.0399 16.0379 24.2857 16.304 24.401 16.6454C24.5162 16.9867 24.4821 17.3474 24.3048 17.6611L17.3326 29.9999H19.0711L25.6225 18.4057C26.0086 17.7226 26.0859 16.9047 25.835 16.1614C25.5842 15.4179 25.0267 14.8141 24.3057 14.5049C23.1147 13.9938 21.748 14.3678 20.9832 15.4149L16.6246 21.3817H13.2251V13.3709L19.9188 6.6563L19.9189 6.65642Z" fill="currentcolor"/>
</svg>
