<svg width="32" height="32" viewBox="0 0 32 32" fill="none" xmlns="http://www.w3.org/2000/svg">
<path d="M30 15.4827C30 14.5606 29.5147 13.7515 28.7875 13.2917C28.8968 13.0052 28.9593 12.6957 28.9593 12.3714C28.9593 11.6788 28.6896 11.0277 28.2001 10.5379C27.7104 10.0481 27.0592 9.77839 26.3666 9.77839H23.676L21.6319 6.92819C21.0489 6.11516 20.1038 5.62988 19.1033 5.62988L16.3372 5.6304C15.5064 5.63053 14.7252 5.95426 14.1376 6.5417L10.9009 9.77839H8.21887V11.8528H11.76L15.6042 8.00855C15.8001 7.81278 16.0605 7.70478 16.3375 7.70478L19.1029 7.70426C19.4363 7.70426 19.7515 7.86607 19.9459 8.13703L21.7022 10.5862V15.4831C21.7022 16.031 21.132 16.0022 21.076 15.9904C20.8413 15.9409 20.6646 15.7322 20.6646 15.4831V10.7938H18.5903V13.4966L17.6043 14.4827C16.6248 15.4622 15.3225 16.0017 13.9373 16.0017H10.2918V18.076H13.9373C15.7141 18.076 17.3924 17.4404 18.7161 16.2795C18.803 16.5498 18.9354 16.8033 19.1077 17.0329C18.7731 17.4797 18.5895 18.0183 18.5895 18.5867C18.5897 19.8605 19.5108 20.9213 20.7213 21.1433C20.6841 21.3195 20.6637 21.5005 20.6637 21.6848C20.664 23.1145 21.8272 24.2775 23.257 24.2775L25.3291 24.2773C26.7588 24.2773 27.9219 23.1139 27.9219 21.6843C27.9219 21.37 27.8636 21.0654 27.7572 20.7794C28.4784 20.3183 28.959 19.5124 28.959 18.5946C28.959 18.2745 28.899 17.9643 28.7887 17.6736C29.515 17.2136 29.9996 16.4047 29.9996 15.4828L30 15.4827ZM26.3694 16.0015L23.726 15.993C23.7591 15.8281 23.777 15.6576 23.777 15.4829V14.9646L27.4073 14.9643C27.693 14.9643 27.9256 15.1968 27.9256 15.4836C27.9256 15.7704 27.693 16.0019 27.4073 16.0019H26.3777C26.375 16.0019 26.3723 16.0015 26.3694 16.0015ZM26.7332 12.0046C26.79 12.0614 26.8851 12.1844 26.8851 12.3714C26.8851 12.6574 26.6525 12.89 26.3666 12.89H23.777V11.8528H26.3667C26.5535 11.8528 26.6766 11.9478 26.7332 12.0046ZM20.6641 18.5865C20.6641 18.3959 20.7612 18.2706 20.8192 18.213C20.8263 18.2058 20.8345 18.1982 20.8436 18.1901C20.9315 18.1132 21.0476 18.0763 21.1644 18.0763H26.3732C26.5563 18.0786 26.6771 18.1717 26.7331 18.2277C26.7877 18.2823 26.8778 18.3983 26.8845 18.5735C26.8959 18.87 26.6413 19.1131 26.3447 19.1131L21.1913 19.1134C20.9006 19.1134 20.6641 18.8769 20.6641 18.5863V18.5865ZM25.3075 22.2029L23.2789 22.2032C22.9821 22.2032 22.7273 21.9602 22.7388 21.6637C22.7455 21.4884 22.8357 21.3724 22.8903 21.3177C22.8989 21.3091 22.909 21.2996 22.9207 21.2898C23.0027 21.2205 23.1098 21.1877 23.2172 21.1877H25.3687C25.4797 21.1877 25.5897 21.2229 25.6731 21.2961C25.6817 21.3036 25.6892 21.3108 25.6959 21.3175C25.7504 21.3721 25.8406 21.488 25.8473 21.6633C25.8588 21.9598 25.6041 22.2029 25.3075 22.2029Z" fill="currentcolor"/>
<path d="M10.2925 20.6689V20.1503H8.21809V20.6689C8.21809 22.8063 9.71086 24.2991 11.8483 24.2991H18.5909V22.2247H11.8483C10.845 22.2247 10.2925 21.6721 10.2925 20.6689Z" fill="currentcolor"/>
<path d="M2 24.2957V26.3701H6.145V7.76844H2V9.84282H4.07062V24.2957H2Z" fill="currentcolor"/>
</svg>
