<svg width="32" height="32" viewBox="0 0 32 32" fill="none" xmlns="http://www.w3.org/2000/svg">
<path d="M10.4002 12.1857V11.1675H8.87261C8.32879 11.1675 7.81731 11.3793 7.43271 11.7639C7.04811 12.1485 6.83621 12.6599 6.83633 13.2036V17.7769H7.85447V13.2036C7.85447 12.9317 7.96023 12.6762 8.15266 12.4839C8.34496 12.2916 8.60064 12.1857 8.87261 12.1857H10.4002Z" fill="currentcolor"/>
<path d="M23.1269 7.09221C22.7559 7.09221 22.409 7.19351 22.1091 7.36748V5.05148C22.1091 3.92886 21.1956 3.01546 20.0725 3.01546C19.6526 3.01546 19.262 3.14324 18.9376 3.36188C18.6585 2.57003 17.9047 2 17.0181 2C15.8953 2 14.9818 2.91339 14.9818 4.03602V5.33185C14.6818 5.15775 14.3348 5.05632 13.9637 5.05632C12.8409 5.05632 11.9274 5.96958 11.9274 7.09233V10.6542H12.9455V7.09233C12.9455 6.53109 13.4023 6.07445 13.9637 6.07445C14.525 6.07445 14.9818 6.53109 14.9818 7.09233V9.63602H16.0001V4.03602C16.0001 3.47477 16.4568 3.01814 17.0186 3.01814C17.5803 3.01814 18.0367 3.47477 18.0367 4.03602V9.63602H19.0548V5.0441C19.0588 4.48629 19.5136 4.0336 20.073 4.0336C20.6323 4.0336 21.0911 4.49023 21.0911 5.05148V10.6542H22.1093V9.12084C22.1132 8.56303 22.5681 8.11034 23.1274 8.11034C23.6867 8.11034 24.1455 8.56697 24.1455 9.12822V11.6723H25.1637V9.12822C25.1637 8.0056 24.2501 7.09221 23.127 7.09221H23.1269Z" fill="currentcolor"/>
<path d="M25.1632 15.2388C25.1632 14.2922 24.5127 13.4968 23.636 13.2699C23.4729 13.2276 23.3029 13.2029 23.1269 13.2029C22.9509 13.2029 22.7808 13.2277 22.6178 13.2699C22.3974 13.3269 22.191 13.4184 22.006 13.5408C21.7793 12.9038 21.2449 12.4132 20.5815 12.2475C20.4235 12.2081 20.259 12.1848 20.089 12.1848C19.9089 12.1848 19.7331 12.2101 19.5634 12.2552C19.3421 12.314 19.1325 12.4087 18.9425 12.5386C18.7215 11.8975 18.1898 11.4017 17.5271 11.2303C17.364 11.188 17.194 11.1633 17.0178 11.1633C16.8417 11.1633 16.6719 11.1882 16.509 11.2303C15.8494 11.401 15.3196 11.8934 15.097 12.5306C14.909 12.4041 14.698 12.3103 14.4727 12.252C14.3096 12.2097 14.1394 12.1849 13.9633 12.1849C13.7871 12.1849 13.6175 12.2097 13.4546 12.2519C12.5776 12.4787 11.927 13.2742 11.927 14.2209V17.4022C11.7492 17.4609 11.5792 17.5399 11.4183 17.6368C11.2422 17.7429 11.0765 17.8685 10.9275 18.0177L9.59612 19.3489C9.1153 19.8297 8.85059 20.469 8.85059 21.1492L8.85122 24.2267C8.85122 24.7768 9.03411 25.3215 9.36564 25.7604L11.9273 29.1513V29.9989H12.9454V28.8101L10.178 25.1467C9.97919 24.8834 9.86949 24.5565 9.86936 24.2264L9.86872 21.1491C9.86872 20.7409 10.0276 20.3572 10.3161 20.0689L11.6475 18.7375C11.9359 18.449 12.3192 18.2902 12.7273 18.2902H17.0179C17.2035 18.2902 17.3772 18.3409 17.5273 18.4281C17.8309 18.6045 18.0362 18.9327 18.0363 19.3086C18.0363 19.6845 17.8311 20.0126 17.5273 20.189C17.3772 20.2762 17.2036 20.3268 17.0179 20.3268H12.4148V21.345H15.2792L16.3962 22.462C16.4349 22.5007 16.4717 22.5409 16.5091 22.5805C17.4943 23.6235 18.0363 24.9805 18.0363 26.4215V30H19.0545V26.4215C19.0545 25.3456 18.798 24.3094 18.3166 23.3808C18.0987 22.9607 17.8351 22.5628 17.5273 22.1934C17.3976 22.0379 17.261 21.8869 17.1162 21.7419L16.7191 21.3448H17.0179C17.1923 21.3448 17.3627 21.3208 17.5273 21.2785C17.8761 21.1889 18.1967 21.0096 18.458 20.7483C18.4895 20.7168 18.5182 20.683 18.5473 20.6498C18.5754 20.6816 18.6027 20.7142 18.633 20.7445C18.8942 21.0067 19.2146 21.1869 19.5635 21.2775C19.7306 21.321 19.9037 21.3456 20.081 21.3456C20.2523 21.3456 20.4197 21.3223 20.5817 21.2817C20.9361 21.1927 21.2618 21.0118 21.5269 20.7467C21.9131 20.3604 22.1258 19.847 22.1257 19.3009V19.0451C22.2803 19.1328 22.4455 19.199 22.6179 19.2433C22.7826 19.2855 22.9529 19.3096 23.1274 19.3096C23.3033 19.3096 23.473 19.2848 23.636 19.2426C23.8165 19.1959 23.9873 19.1257 24.145 19.0342V26.4358C24.145 27.6918 23.3647 28.472 22.1087 28.472H21.5997V29.4902H22.1087C23.9357 29.4902 25.1632 28.2627 25.1632 26.4358V17.2779C25.1632 17.2762 25.1634 17.2747 25.1634 17.2729L25.1632 15.2388ZM14.4727 17.2719H12.9451V14.2207C12.9451 13.8447 13.1506 13.5166 13.4546 13.3404C13.6045 13.2535 13.778 13.2029 13.9633 13.2029C14.1486 13.2029 14.3227 13.2537 14.4727 13.3409C14.7763 13.5173 14.9814 13.8452 14.9814 14.2208L14.9817 17.272H14.4726L14.4727 17.2719ZM17.5271 17.339C17.364 17.2967 17.194 17.2719 17.0178 17.2719H15.9999V13.1992C15.9999 12.8235 16.2051 12.4956 16.509 12.3192C16.659 12.232 16.8329 12.1814 17.0188 12.1814C17.2048 12.1814 17.3773 12.2319 17.5271 12.3188C17.8312 12.4951 18.0366 12.8233 18.0366 13.1992V17.5478C17.8789 17.4562 17.7079 17.3858 17.5271 17.339ZM20.8068 20.0269C20.739 20.0947 20.663 20.1512 20.5815 20.1968C20.4302 20.2816 20.2592 20.3276 20.0809 20.3276C19.8958 20.3276 19.7188 20.278 19.5634 20.1868C19.4879 20.1427 19.4172 20.0893 19.3539 20.0258C19.1619 19.8332 19.056 19.5777 19.0547 19.306V19.1833L19.0709 14.2225V14.2207C19.0709 13.9488 19.1766 13.6933 19.3689 13.5011C19.4281 13.4421 19.4937 13.3922 19.5634 13.3499C19.7206 13.2547 19.9005 13.2029 20.089 13.2029C20.2677 13.2029 20.4354 13.2495 20.5815 13.3307C20.8945 13.5045 21.107 13.8382 21.1072 14.2208C21.1072 14.2249 21.1074 19.301 21.1074 19.301C21.1074 19.5752 21.0006 19.833 20.8068 20.027V20.0269ZM24.145 17.2779C24.1434 17.6518 23.9386 17.9781 23.636 18.1537C23.486 18.2407 23.3127 18.2913 23.1273 18.2913C22.9453 18.2913 22.7712 18.243 22.6178 18.154C22.542 18.11 22.4707 18.0568 22.4071 17.993C22.258 17.8441 22.1617 17.6569 22.1254 17.4538C22.1149 17.3946 22.1087 17.3343 22.1087 17.2729V15.2386C22.1087 15.1779 22.1151 15.1187 22.1253 15.0609C22.1785 14.7609 22.3632 14.5064 22.6178 14.3585C22.7677 14.2715 22.9413 14.2208 23.1269 14.2208C23.3124 14.2208 23.486 14.2715 23.636 14.3585C23.9397 14.5348 24.145 14.8629 24.145 15.2387V17.2779Z" fill="currentcolor"/>
</svg>
