<svg width="32" height="32" viewBox="0 0 32 32" fill="none" xmlns="http://www.w3.org/2000/svg">
<path d="M12.488 27.9867C12.1051 28.3696 11.4825 28.3697 11.0996 27.9867C10.9142 27.8013 10.8121 27.5547 10.8121 27.2926C10.8121 27.0305 10.9141 26.784 11.0994 26.5986L14.2201 23.4774L13.526 22.7833L9.01718 27.2926C8.63419 27.6755 8.01155 27.6755 7.62881 27.2926C7.44339 27.1072 7.34118 26.8607 7.34118 26.5985C7.34118 26.3362 7.44327 26.0897 7.62881 25.9043L12.1378 21.3948L11.4437 20.7008L6.24057 25.9044C6.05515 26.0898 5.80862 26.1919 5.54651 26.1919C5.28439 26.1919 5.03774 26.0898 4.85232 25.9044C4.66691 25.719 4.56469 25.4724 4.56469 25.2102C4.56469 24.948 4.66678 24.7014 4.8522 24.516L6.23431 23.1338L6.23407 23.1335C6.23615 23.1315 6.23848 23.1297 6.24057 23.1277L10.0553 19.3125L9.36127 18.6185L5.54651 22.4336C5.16352 22.8165 4.54088 22.8165 4.15814 22.4336C3.97272 22.2482 3.8705 22.0016 3.8705 21.7394C3.8705 21.4772 3.9726 21.2306 4.15802 21.0452L7.52843 17.6744C7.52843 17.6744 7.52905 17.674 7.52929 17.6737L8.91889 16.2839L8.22458 15.5898L6.83511 16.9796C6.64969 17.1649 6.40329 17.267 6.14129 17.267C5.8793 17.267 5.6329 17.1649 5.4476 16.9796C5.26218 16.7942 5.16009 16.5477 5.16021 16.2856C5.16033 16.0235 5.26255 15.7769 5.44809 15.5917L7.00286 14.0393H5.61351L4.75452 14.897C4.38332 15.2677 4.17876 15.7607 4.17863 16.2852C4.17839 16.8098 4.38258 17.303 4.75366 17.6738C5.00142 17.9216 5.30452 18.093 5.63437 18.1806L3.4642 20.3509C3.09337 20.7218 2.88905 21.2149 2.88905 21.7393C2.88905 22.2636 3.09337 22.7567 3.46433 23.1275C3.71736 23.3806 4.02316 23.5481 4.34638 23.6338L4.15863 23.8217C3.7878 24.1926 3.58348 24.6857 3.58348 25.2101C3.58348 25.7346 3.7878 26.2276 4.15875 26.5983C4.52947 26.9692 5.02265 27.1734 5.547 27.1734C5.84654 27.1734 6.13491 27.1046 6.39703 26.9784C6.47115 27.3579 6.6557 27.707 6.93537 27.9866C7.31811 28.3693 7.82086 28.5606 8.32361 28.5606C8.82636 28.5606 9.32911 28.3692 9.71185 27.9865L9.89887 27.7993C9.98661 28.1294 10.158 28.4326 10.406 28.6805C10.7768 29.0513 11.2699 29.2555 11.7943 29.2555C12.3186 29.2555 12.8118 29.0512 13.1826 28.6803L18.0056 23.8563H16.6174L12.488 27.9867Z" fill="currentcolor"/>
<path d="M28.7374 10.2567C28.4845 10.0037 28.1787 9.8362 27.8555 9.75042L28.0434 9.56255C28.4142 9.19171 28.6185 8.69865 28.6185 8.17418C28.6185 7.64971 28.4143 7.15665 28.0435 6.78594C27.7638 6.50628 27.4148 6.32172 27.0353 6.2476C27.1615 5.98549 27.2303 5.69711 27.2303 5.39745C27.2303 4.8731 27.0261 4.37992 26.6552 4.0092C26.2844 3.63837 25.7913 3.43405 25.267 3.43405C24.7428 3.43405 24.2496 3.63825 23.8789 4.00908L23.6917 4.19622C23.604 3.86612 23.4326 3.5629 23.1847 3.3149C22.8138 2.94406 22.3208 2.73975 21.7964 2.73975C21.2722 2.73975 20.779 2.94394 20.4083 3.31478L18.2379 5.48494C18.1502 5.15509 17.9789 4.85212 17.731 4.60424C17.3603 4.23352 16.8675 4.02921 16.343 4.02921H16.3422C15.8178 4.02933 15.3247 4.23389 14.9541 4.6051L12.6372 6.92497C11.5206 8.04288 10.7861 9.45628 10.5128 11.0124L10.4862 11.1639C10.0715 13.5251 10.8358 15.9469 12.5302 17.6422L13.1213 18.2336C14.0678 19.1806 15.227 19.8374 16.4911 20.1607C17.084 20.3124 17.6998 20.3914 18.3279 20.3915H18.3292C19.2217 20.3915 20.0894 20.2321 20.9017 19.9299C21.879 19.5662 22.7757 18.9947 23.535 18.2354L28.7375 13.0333C29.503 12.2679 29.5031 11.0223 28.7375 10.2567H28.7374ZM28.0432 12.3392L22.8407 17.5412C21.6354 18.7463 20.0333 19.4098 18.3288 19.4098H18.3277C16.623 19.4096 15.0205 18.7454 13.8155 17.5397L13.2244 16.9482C11.7557 15.4789 11.0936 13.38 11.4528 11.3338L11.4794 11.1822C11.7176 9.82564 12.358 8.59349 13.3315 7.61879L15.6484 5.29879C15.8337 5.11325 16.0803 5.01103 16.3424 5.01091H16.3427C16.6048 5.01091 16.8513 5.113 17.0366 5.2983C17.2218 5.48359 17.3238 5.73 17.3238 5.99199C17.3238 6.25398 17.2217 6.50039 17.0364 6.68568L14.5102 9.21184L15.2042 9.90602L21.102 4.00884C21.4849 3.62597 22.1076 3.62622 22.4903 4.00884C22.873 4.3917 22.873 5.01446 22.4903 5.3972L18.675 9.21196L19.3692 9.90614L23.1844 6.09126C23.1865 6.08918 23.1882 6.08685 23.1903 6.08488L23.1906 6.08513L24.5729 4.70302C24.7583 4.5176 25.0049 4.4155 25.267 4.4155C25.5292 4.4155 25.7756 4.51772 25.961 4.70314C26.1465 4.88856 26.2486 5.13509 26.2486 5.39733C26.2486 5.65956 26.1465 5.90609 25.961 6.09151L20.7574 11.2945L21.4515 11.9887L25.9614 7.47951C26.3442 7.09714 26.9667 7.09738 27.3493 7.47988C27.732 7.86274 27.732 8.4855 27.3493 8.86824L22.8399 13.3771L23.5339 14.0712L26.655 10.9504C27.0378 10.5677 27.6606 10.5679 28.0431 10.9505C28.4258 11.3334 28.4258 11.9562 28.0431 12.3388L28.0432 12.3392Z" fill="currentcolor"/>
<path d="M23.643 21.8934H24.3444V21.8975H25.0273L26.8198 20.1053L28.6119 21.8975H30L27.0511 18.9482H26.5885L23.643 21.8934Z" fill="currentcolor"/>
<path d="M20.9085 28.2785V29.2602C24.0932 29.2602 26.7403 26.9149 27.2138 23.8609H26.2168C25.7537 26.3707 23.5504 28.2785 20.9085 28.2785Z" fill="currentcolor"/>
<path d="M11.0915 3.7277V2.746C7.90676 2.746 5.25973 5.09128 4.78618 8.14535H5.78322C6.24634 5.63551 8.44964 3.7277 11.0915 3.7277Z" fill="currentcolor"/>
<path d="M5.41152 13.058L8.36104 10.1087H6.97267L5.18021 11.901L3.38812 10.1087H2L4.9489 13.058H5.41152Z" fill="currentcolor"/>
</svg>
