<svg width="32" height="32" viewBox="0 0 32 32" fill="none" xmlns="http://www.w3.org/2000/svg">
<path d="M8.08552 21.957V22.9719H24.6568L29.8269 10.0465C30.125 9.30136 30.0343 8.45978 29.5844 7.79529C29.1345 7.13068 28.3868 6.734 27.5841 6.734C26.6297 6.734 25.7628 7.29788 25.3759 8.17054L21.9636 15.8678H18.7639V13.5843L23.6935 9.88706C24.4408 9.32673 24.7443 8.35487 24.449 7.46902C24.2436 6.85286 23.778 6.3656 23.1719 6.13231C22.5654 5.89902 21.8935 5.94849 21.3281 6.26818L11.5264 11.8082H8.08552V12.8231H11.7933L21.8274 7.15162C22.1281 6.98175 22.4852 6.95537 22.8075 7.07943C23.1298 7.2035 23.3771 7.46242 23.4864 7.78997C23.6434 8.26086 23.482 8.7773 23.0849 9.07517L17.7492 13.0769V16.8827H22.624L26.3039 8.58182C26.5283 8.07578 27.0308 7.74886 27.5844 7.74886C28.0567 7.74886 28.4795 7.97315 28.7443 8.36425C29.009 8.75536 29.0603 9.23108 28.8848 9.66963L23.9699 21.957H8.08552Z" fill="currentcolor"/>
<path d="M5.54835 8.82678H2V9.84164H4.53349V24.9983H2V26.0132H5.54835V8.82678Z" fill="currentcolor"/>
</svg>
