<svg width="32" height="32" viewBox="0 0 32 32" fill="none" xmlns="http://www.w3.org/2000/svg">
<path d="M13.2 7.09091H14.2182C14.2182 6.81015 14.4465 6.58182 14.7273 6.58182H19.8182V5.56364H14.7273C13.8851 5.56364 13.2 6.24875 13.2 7.09091Z" fill="currentcolor"/>
<path d="M8.10909 7.6H10.1455V6.07273C10.1455 4.66916 11.2873 3.52727 12.6909 3.52727H19.8182V2.50909H12.6909C10.7259 2.50909 9.12727 4.10776 9.12727 6.07273V6.58182H8.10909C7.54769 6.58182 7.09091 6.12504 7.09091 5.56364V2H6.07273V5.56364C6.07273 6.68644 6.98629 7.6 8.10909 7.6Z" fill="currentcolor"/>
<path d="M16.7636 13.7091C19.8515 13.7091 22.3636 16.2212 22.3636 19.3091V28.3455C22.3636 28.6963 22.0782 28.9818 21.7273 28.9818H12.6909C7.35742 28.9818 3.01818 24.6426 3.01818 19.3091V2H2V19.3091C2 25.204 6.79602 30 12.6909 30H21.7273C22.6396 30 23.3818 29.2577 23.3818 28.3455V19.3091C23.3818 16.9531 22.1433 14.882 20.2843 13.7091H30V12.6909H16.7636V13.7091Z" fill="currentcolor"/>
<path d="M13.4982 8.61818L5.56364 16.5529V17.9926L13.92 9.63636H30V8.61818H13.4982Z" fill="currentcolor"/>
<path d="M12.1818 24.9091C9.13682 24.9091 7.09091 23.0677 7.09091 20.3273H6.07273C6.07273 23.6244 8.58484 25.9273 12.1818 25.9273V24.9091Z" fill="currentcolor"/>
</svg>
