<svg width="32" height="32" viewBox="0 0 32 32" fill="none" xmlns="http://www.w3.org/2000/svg">
<path d="M16 30C8.28042 30 2 23.7196 2 16C2 8.28042 8.28042 2 16 2C23.7196 2 30 8.28042 30 16C30 23.7196 23.7196 30 16 30ZM16 3.42373C9.06537 3.42373 3.42373 9.06549 3.42373 16C3.42373 22.9345 9.06537 28.5763 16 28.5763C22.9346 28.5763 28.5763 22.9345 28.5763 16C28.5763 9.06549 22.9346 3.42373 16 3.42373Z" fill="currentcolor"/>
<path d="M16.7406 15.7646L17.2033 15.376C17.8326 14.8762 18.4248 14.1729 18.4248 13.2288C18.4248 12.0813 17.5918 11.1929 16.1483 11.1929C14.5009 11.1929 13.52 12.322 13.52 14.1172H11.8727C11.8727 11.4519 13.6681 9.86017 16.1484 9.86017C18.4805 9.86017 20.1094 11.3595 20.1094 13.1178C20.1094 14.6356 19.295 15.6165 18.1289 16.542L17.6292 16.9492C16.8334 17.5971 16.5371 18.3189 16.5371 19.633H14.9267C14.9267 17.9856 15.2228 17.0048 16.7406 15.7646ZM14.7971 21.0953H16.7034V23.1128H14.7971V21.0953Z" fill="currentcolor"/>
</svg>
