<svg version="1.1" id="Layer_1" xmlns="http://www.w3.org/2000/svg" xmlns:xlink="http://www.w3.org/1999/xlink" x="0px" y="0px"
	 viewBox="0 0 32 32" fill="currentcolor">
<linearGradient id="SVGID_1_" gradientUnits="userSpaceOnUse" x1="-520" y1="0" x2="-520" y2="-1">
	<stop  offset="0" style="stop-color:#656565"/>
	<stop  offset="0.618" style="stop-color:#1B1B1B"/>
	<stop  offset="0.6292" style="stop-color:#545454"/>
	<stop  offset="0.9831" style="stop-color:#3E3E3E"/>
</linearGradient>
<g>
	<path d="M28.8971,22.9813c0.4627-0.2667,0.7933-0.6973,0.932-1.2133c0.139-0.5126,0.067-1.0595-0.2-1.5187
		c-0.5547-0.9543-1.7764-1.2809-2.7333-0.7307l-0.896,0.5173V19c0-1.1027-0.8973-2-2-2c-1.1027,0-2,0.8973-2,2v1.036l-0.8973-0.5173
		c-0.9568-0.5507-2.1787-0.2233-2.732,0.732c-0.5505,0.9571-0.2224,2.1792,0.7333,2.732l0.896,0.5173l-0.8973,0.5187
		c-0.9551,0.5578-1.2772,1.7842-0.7194,2.7393c0.3575,0.6121,1.0119,0.9896,1.7207,0.9927c0.3493,0,0.6947-0.0933,1-0.268
		l0.896-0.5187V28c0,1.1027,0.8973,2,2,2c1.1027,0,2-0.8973,2-2v-1.036l0.8973,0.5187c0.9581,0.5511,2.1816,0.2213,2.7327-0.7368
		c0.2635-0.4581,0.3352-1.0018,0.1993-1.5125c-0.1359-0.5131-0.4715-0.9506-0.932-1.2147L27.9997,23.5l0.8973-0.5173V22.9813z
		 M25.9997,23.5l2.3973,1.384c0.4764,0.2793,0.6362,0.892,0.3569,1.3684c-0.2767,0.472-0.8813,0.634-1.3569,0.3636l-2.3973-1.384V28
		c0,0.5523-0.4477,1-1,1s-1-0.4477-1-1v-2.768l-2.3973,1.384c-0.4753,0.2768-1.0851,0.1159-1.3619-0.3594
		c-0.0011-0.002-0.0023-0.0039-0.0034-0.0059c-0.2766-0.478-0.1132-1.0898,0.3648-1.3664c0.0002-0.0001,0.0004-0.0002,0.0005-0.0003
		l2.3973-1.384l-2.3973-1.384c-0.4801-0.273-0.648-0.8834-0.3751-1.3636c0.273-0.4801,0.8834-0.648,1.3636-0.3751
		c0.0039,0.0022,0.0077,0.0044,0.0115,0.0067l2.3973,1.384V19c0-0.5523,0.4477-1,1-1s1,0.4477,1,1v2.768l2.3973-1.384
		c0.4753-0.2768,1.0851-0.1159,1.3619,0.3594c0.0011,0.002,0.0023,0.0039,0.0034,0.0059c0.2766,0.478,0.1132,1.0898-0.3648,1.3664
		c-0.0002,0.0001-0.0004,0.0002-0.0005,0.0003L25.9997,23.5z"/>
	<g>
		<g>
			<rect x="15.5" y="6" width="1" height="4"/>
		</g>
		<g>
			<rect x="15.5" y="12" width="1" height="4"/>
		</g>
		<g>
			<rect x="17" y="10.5" width="4" height="1"/>
		</g>
		<g>
			<rect x="11" y="10.5" width="4" height="1"/>
		</g>
	</g>
</g>
<path d="M16,30.42l-0.7828-0.3271C8.2212,27.1926,3.6653,20.359,3.6786,12.7857V4.75H5.3c3.5914,0,7.1171-0.9772,10.1971-2.8243
	l0.5-0.3l0.5029,0.3c3.0804,1.8478,6.605,2.824,10.1971,2.8243H28.32v8.0357h0.0014c0.0019,1.091-0.1016,2.1636-0.2829,3.2143h1.089
	c0.1714-1.0522,0.2672-2.1249,0.2654-3.2143V3.6785h-2.6943c-3.3978-0.0004-6.7318-0.9237-9.6457-2.6714L17.0414,1h-2.0843
	l-0.0114,0.0071C12.0319,2.7549,8.6979,3.6783,5.3,3.6785H2.6071v9.1072C2.5936,20.7168,7.3221,27.8879,14.6171,31H16V30.42z"/>
<g>
</g>
<g>
</g>
<g>
</g>
<g>
</g>
<g>
</g>
<g>
</g>
<g>
</g>
<g>
</g>
<g>
</g>
<g>
</g>
<g>
</g>
<g>
</g>
<g>
</g>
<g>
</g>
<g>
</g>
</svg>
