<svg version="1.1" id="Layer_1" xmlns="http://www.w3.org/2000/svg" xmlns:xlink="http://www.w3.org/1999/xlink" x="0px" y="0px"
	 viewBox="0 0 32 32" fill="currentcolor">
<linearGradient id="SVGID_1_" gradientUnits="userSpaceOnUse" x1="-520" y1="0" x2="-520" y2="-1">
	<stop  offset="0" style="stop-color:#656565"/>
	<stop  offset="0.618" style="stop-color:#1B1B1B"/>
	<stop  offset="0.6292" style="stop-color:#545454"/>
	<stop  offset="0.9831" style="stop-color:#3E3E3E"/>
</linearGradient>
<path d="M29.1453,23.5853L28.9987,23.5l0.1467-0.0853c0.5757-0.3296,0.9955-0.876,1.1653-1.5173
	c0.1733-0.6453,0.084-1.32-0.2493-1.8973c-0.6915-1.1941-2.2189-1.6032-3.4147-0.9147l-0.148,0.084V19
	c-0.0015-1.3801-1.1199-2.4985-2.5-2.5c-1.3801,0.0015-2.4985,1.1199-2.5,2.5v0.1693l-0.1467-0.084
	c-1.196-0.6903-2.7249-0.2808-3.416,0.9147c-0.6884,1.1961-0.2785,2.7237,0.916,3.4147L18.9987,23.5l-0.1467,0.0853
	c-1.1945,0.6909-1.6044,2.2185-0.916,3.4147c0.6909,1.1947,2.2191,1.604,3.4147,0.9147l0.1467-0.084V28
	c0,1.3787,1.1227,2.5,2.5013,2.5c1.3801-0.0015,2.4985-1.1199,2.5-2.5v-0.1693l0.1467,0.0853
	c1.1753,0.7259,2.7167,0.3613,3.4425-0.814c0.7259-1.1753,0.3613-2.7167-0.814-3.4425
	C29.2317,23.6335,29.1889,23.6088,29.1453,23.5853z M28.7613,26.2493c-0.2759,0.4781-0.8871,0.6423-1.3653,0.3667l-2.3973-1.384V28
	c0,0.5523-0.4477,1-1,1s-1-0.4477-1-1v-2.768l-2.3973,1.384c-0.4753,0.2768-1.0851,0.1159-1.3619-0.3595
	c-0.0012-0.002-0.0023-0.0039-0.0035-0.0059c-0.2765-0.478-0.1132-1.0897,0.3648-1.3664c0.0001-0.0001,0.0004-0.0003,0.0005-0.0003
	l2.3973-1.384l-2.3973-1.384c-0.4801-0.2729-0.648-0.8835-0.3751-1.3636s0.8835-0.648,1.3636-0.3751
	c0.0039,0.0021,0.0077,0.0044,0.0115,0.0067l2.3973,1.384V19c0-0.5523,0.4477-1,1-1c0.5523,0,1,0.4477,1,1v2.768l2.3973-1.384
	c0.4753-0.2768,1.0851-0.1159,1.3619,0.3595c0.0012,0.002,0.0023,0.0039,0.0035,0.0059c0.2765,0.478,0.1132,1.0897-0.3648,1.3664
	c-0.0001,0.0001-0.0004,0.0003-0.0005,0.0003L25.9987,23.5l2.3973,1.384C28.8736,25.1604,29.0371,25.7713,28.7613,26.2493z"/>
<g>
	<g>
		<rect x="15.249" y="6" width="1.5" height="4"/>
	</g>
	<g>
		<rect x="15.249" y="12" width="1.5" height="4"/>
	</g>
	<g>
		<rect x="16.999" y="10.25" width="4" height="1.5"/>
	</g>
	<g>
		<rect x="10.999" y="10.25" width="4" height="1.5"/>
	</g>
</g>
<path d="M16,30.1297L15.9993,30.13l-0.68-0.2843c-6.8957-2.8591-11.3861-9.5951-11.3729-17.06V5.0172h1.3543
	c3.64,0,7.2143-0.9901,10.3357-2.8615l0.3629-0.2186l0.3629,0.2186c3.1224,1.8726,6.6949,2.8616,10.3358,2.8615h1.3542v7.7686
	c0,1.0925-0.106,2.1649-0.2899,3.2143h1.6376c0.1691-1.0529,0.2642-2.1255,0.2623-3.2143V3.41h-2.9629h-0.0014
	c-3.2,0-6.3429-0.8328-9.1229-2.41h-3.1514C11.6419,2.5792,8.498,3.4096,5.2993,3.41H2.3378v9.3757
	C2.3242,20.6043,6.8608,27.7163,13.9564,31H16V30.1297z"/>
<g>
</g>
<g>
</g>
<g>
</g>
<g>
</g>
<g>
</g>
<g>
</g>
<g>
</g>
<g>
</g>
<g>
</g>
<g>
</g>
<g>
</g>
<g>
</g>
<g>
</g>
<g>
</g>
<g>
</g>
</svg>
