<svg width="32" height="32" viewBox="0 0 32 32" fill="none" xmlns="http://www.w3.org/2000/svg">
<path d="M16 30C8.28048 30 2 23.7196 2 16C2 8.28036 8.28036 2 16 2C23.7196 2 30 8.28036 30 16C30 23.7196 23.7196 30 16 30ZM16 2.96337C8.81166 2.96337 2.96337 8.81154 2.96337 16C2.96337 23.1885 8.81154 29.0366 16 29.0366C23.1885 29.0366 29.0366 23.1885 29.0366 16C29.0366 8.81154 23.1883 2.96337 16 2.96337Z" fill="currentcolor"/>
<path d="M16.4662 8.2977H15.5028V11.1878H16.4662V8.2977Z" fill="currentcolor"/>
<path d="M16.4662 13.1146H15.5028V23.7117H16.4662V13.1146Z" fill="currentcolor"/>
</svg>
