<svg width="32" height="32" viewBox="0 0 32 32" fill="none" xmlns="http://www.w3.org/2000/svg">
<path d="M16.9163 8.55389H15.0537V11.3479H16.9163V8.55389Z" fill="currentcolor"/>
<path d="M16.9163 13.2105H15.0537V23.4552H16.9163V13.2105Z" fill="currentcolor"/>
<path d="M16 30C8.28031 30 2 23.7197 2 16C2 8.28031 8.28031 2 16 2C23.7197 2 30 8.28031 30 16C30 23.7197 23.7197 30 16 30ZM16 3.86266C9.30746 3.86266 3.86266 9.30746 3.86266 16C3.86266 22.6925 9.30746 28.1373 16 28.1373C22.6925 28.1373 28.1373 22.6925 28.1373 16C28.1373 9.30746 22.6925 3.86266 16 3.86266Z" fill="currentcolor"/>
</svg>
