<svg width="32" height="32" viewBox="0 0 32 32" fill="none" xmlns="http://www.w3.org/2000/svg">
<path d="M29.501 15.4998C22.3327 15.4998 16.501 9.66803 16.501 2.49878L16.5 1.99878L15.5 2.0009L15.501 2.4999C15.501 9.66815 9.66925 15.4999 2.501 15.4999H2V16.4999H2.501C9.66925 16.4999 15.501 22.3317 15.501 29.4989L15.5 29.9989L16.5 30.001L16.501 29.5C16.501 22.3318 22.3327 16.5 29.501 16.5H30V15.5H29.501V15.4998ZM16.001 25.7895C14.6961 21.0472 10.9537 17.3048 6.21125 15.9998C10.9536 14.6949 14.696 10.9525 16.001 6.21003C17.3059 10.9524 21.0483 14.6948 25.7908 15.9998C21.0484 17.3047 17.306 21.047 16.001 25.7895Z" fill="currentcolor"/>
</svg>
