<svg width="32" height="32" viewBox="0 0 32 32" fill="none" xmlns="http://www.w3.org/2000/svg">
<path d="M16.6395 2.125H15.3594L2 9.63275V11.875H30V9.696L16.6395 2.125ZM15.999 3.48625L28.1558 10.375H3.741L15.999 3.48625Z" fill="currentcolor"/>
<path d="M2.25 29.875H29.75V24.375H2.25V29.875ZM3.75 25.875H28.25V28.375H3.75V25.875Z" fill="currentcolor"/>
<path d="M13.25 14.375V22.0938H18.75V14.375H13.25ZM17.25 20.5938H14.75V15.875H17.25V20.5938Z" fill="currentcolor"/>
<path d="M5.25 14.375V22.0938H10.75V14.375H5.25ZM9.25 20.5938H6.75V15.875H9.25V20.5938Z" fill="currentcolor"/>
<path d="M21.25 14.375V22.0938H26.75V14.375H21.25ZM25.25 20.5938H22.75V15.875H25.25V20.5938Z" fill="currentcolor"/>
</svg>
