<svg width="32" height="32" viewBox="0 0 32 32" fill="none" xmlns="http://www.w3.org/2000/svg">
<path d="M2.00488 30H7.86073V28.4734H3.53143V11.6618H7.86073V10.1352H2.00488V30Z" fill="currentcolor"/>
<path d="M9.14024 29.9808H22.8709V2H9.14024V29.9808ZM10.6668 3.52655H21.3444V28.4542H10.6668V3.52655Z" fill="currentcolor"/>
<path d="M19.0554 6.06928H12.9492V7.59583H19.0554V6.06928Z" fill="currentcolor"/>
<path d="M19.0554 10.1401H12.9492V11.6666H19.0554V10.1401Z" fill="currentcolor"/>
<path d="M19.0554 14.2109H12.9492V15.7374H19.0554V14.2109Z" fill="currentcolor"/>
<path d="M19.0554 18.2817H12.9492V19.8082H19.0554V18.2817Z" fill="currentcolor"/>
<path d="M19.0554 22.3525H12.9492V23.879H19.0554V22.3525Z" fill="currentcolor"/>
<path d="M7.86073 14.2109H4.80763V15.7374H7.86073V14.2109Z" fill="currentcolor"/>
<path d="M24.1439 11.6618H28.4685V28.4734H24.1439V30H29.9951V10.1352H24.1439V11.6618Z" fill="currentcolor"/>
<path d="M27.197 14.2109H24.1439V15.7374H27.197V14.2109Z" fill="currentcolor"/>
<path d="M7.86073 18.2817H4.80763V19.8082H7.86073V18.2817Z" fill="currentcolor"/>
<path d="M27.197 18.2817H24.1439V19.8082H27.197V18.2817Z" fill="currentcolor"/>
<path d="M7.86073 22.3525H4.80763V23.879H7.86073V22.3525Z" fill="currentcolor"/>
<path d="M27.197 22.3525H24.1439V23.879H27.197V22.3525Z" fill="currentcolor"/>
</svg>
