<svg width="32" height="32" viewBox="0 0 32 32" fill="none" xmlns="http://www.w3.org/2000/svg">
<path d="M5.97211 8.49775C5.97211 7.28913 6.83338 6.278 7.97437 6.04562V4.02362C5.72651 4.27325 3.97235 6.18412 3.97235 8.49775C3.97235 10.8114 5.72651 12.7223 7.97437 12.9718V10.9499C6.83338 10.7175 5.97211 9.70638 5.97211 8.49775Z" fill="currentcolor"/>
<path d="M18.8677 15.1199C18.1651 14.5249 17.2412 14.2704 16.3331 14.4218L13.1601 14.9507C13.0371 14.9714 12.9124 14.9714 12.7895 14.9507L9.61529 14.4216C8.70728 14.2703 7.78339 14.5247 7.08085 15.1198C6.37831 15.7148 5.97523 16.5842 5.97498 17.505C5.97473 18.4385 6.38643 19.3158 7.1046 19.9119L8.56829 21.127C8.82701 21.3418 8.97537 21.6577 8.97537 21.994V29.9954H10.9751V21.994C10.9751 21.061 10.5634 20.184 9.84551 19.588L8.38182 18.3729C8.1231 18.1581 7.97474 17.8419 7.97487 17.5055C7.97487 17.1688 8.11647 16.8635 8.37332 16.6459C8.63029 16.4284 8.95475 16.339 9.28671 16.3942L12.4609 16.9234C12.802 16.9802 13.1479 16.9802 13.4889 16.9234L16.6621 16.3944C16.9944 16.3391 17.3185 16.4283 17.5755 16.646C17.8324 16.8636 17.9739 17.1689 17.974 17.5055C17.974 17.8419 17.8257 18.158 17.567 18.3727L16.1034 19.5879C15.3855 20.1838 14.9738 21.0608 14.9738 21.9939V29.9953H16.9735V21.9939C16.9735 21.6576 17.1219 21.3416 17.3806 21.1269L18.8442 19.9118C19.5623 19.3155 19.974 18.4382 19.9738 17.5049C19.9735 16.5841 19.5705 15.7148 18.8678 15.1196L18.8677 15.1199Z" fill="currentcolor"/>
<path d="M17.9732 23.5002V30.0002H19.9729V23.5002C19.9729 23.1871 20.1224 22.8881 20.3729 22.7003L21.5728 21.8002L20.3729 20.2003L19.173 21.1003C18.4217 21.6637 17.9732 22.561 17.9732 23.5002Z" fill="currentcolor"/>
<path d="M17.9615 5.55762C17.0435 6.09312 16.4733 7.08613 16.4733 8.14888C16.4733 9.72113 15.1945 11.0001 13.6224 11.0001H13.325C11.7529 11.0001 10.4741 9.72113 10.4741 8.14888C10.4741 6.57663 11.3316 5.11212 12.7119 4.34512L16.9324 2.00012H12.8147L11.7408 2.59675C11.0577 2.97625 10.4627 3.47187 9.97412 4.05075C9.02149 5.17937 8.47431 6.62513 8.47431 8.14875C8.47431 9.52463 9.05099 10.7676 9.97412 11.6514C10.8458 12.4858 12.026 13 13.325 13H13.6224C16.2971 13 18.4731 10.8238 18.4731 8.14875C18.4731 7.7945 18.6632 7.4635 18.9692 7.285L28.0279 2H24.0593L17.9615 5.55737V5.55762Z" fill="currentcolor"/>
</svg>
