<svg version="1.1" id="Layer_1" xmlns="http://www.w3.org/2000/svg" xmlns:xlink="http://www.w3.org/1999/xlink" x="0px" y="0px"
	 viewBox="0 0 32 32" fill="currentcolor" xml:space="preserve">
<style type="text/css">
	.Drop_x0020_Shadow{fill:none;}
	.Outer_x0020_Glow_x0020_5_x0020_pt{fill:none;}
	.Blue_x0020_Neon{fill:none;stroke:#8AACDA;stroke-width:7;stroke-linecap:round;stroke-linejoin:round;}
	.Chrome_x0020_Highlight{fill:url(#SVGID_1_);stroke:#FFFFFF;stroke-width:0.3629;stroke-miterlimit:1;}
	.Jive_GS{fill:#FFDD00;}
	.Alyssa_GS{fill:#A6D0E4;}
</style>
<linearGradient id="SVGID_1_" gradientUnits="userSpaceOnUse" x1="-260" y1="0" x2="-260" y2="-1">
	<stop  offset="0" style="stop-color:#656565"/>
	<stop  offset="0.618" style="stop-color:#1B1B1B"/>
	<stop  offset="0.6292" style="stop-color:#545454"/>
	<stop  offset="0.9831" style="stop-color:#3E3E3E"/>
</linearGradient>
<g>
	<path d="M24.502,20c-2.7578,0-5.002-2.2432-5.002-5h1c0,2.2061,1.7939,4,4,4c2.207,0,4.002-1.7939,4.002-4V6.251
		c0-2.0684-1.6826-3.751-3.751-3.751S21,4.1826,21,6.251V7.5h-1V6.251C20,3.6313,22.1309,1.5,24.751,1.5s4.751,2.1313,4.751,4.751
		V15C29.502,17.7568,27.2588,20,24.502,20z"/>
</g>
<g>
	<path d="M23.5,9"/>
</g>
<g>
	<path d="M7.502,20C4.7441,20,2.5,17.7568,2.5,15V6.251C2.5,3.6313,4.6309,1.5,7.251,1.5s4.751,2.1313,4.751,4.751V7.5h-1V6.251
		c0-2.0684-1.6826-3.751-3.751-3.751S3.5,4.1826,3.5,6.251V15c0,2.2061,1.7939,4,4,4c2.207,0,4.002-1.7939,4.002-4h1
		C12.502,17.7568,10.2588,20,7.502,20z"/>
</g>
<g>
	<path d="M23.1523,11C23.9631,10.4624,24.5,9.5436,24.5,8.5h-1c0,1.103-0.8975,2-2,2h-1.498c-1.3789,0-2.5,1.0767-2.5,2.3999V30h1
		V12.8999c0-0.772,0.6729-1.3999,1.5-1.3999H21.5c1.1025,0,2,0.897,2,2h1C24.5,12.4564,23.9631,11.5376,23.1523,11z"/>
	<path d="M12,10.5h-1.5c-1.1025,0-2-0.897-2-2h-1c0,1.0436,0.5369,1.9624,1.3477,2.5C8.0369,11.5376,7.5,12.4564,7.5,13.5h1
		c0-1.103,0.8975-2,2-2H12c0.8271,0,1.5,0.6279,1.5,1.3999V30h1V12.8999C14.5,11.5767,13.3789,10.5,12,10.5z"/>
</g>
<g>
</g>
<g>
</g>
<g>
</g>
<g>
</g>
<g>
</g>
<g>
</g>
<g>
</g>
<g>
</g>
<g>
</g>
<g>
</g>
<g>
</g>
<g>
</g>
<g>
</g>
<g>
</g>
<g>
</g>
</svg>
