<svg xmlns="http://www.w3.org/2000/svg" width="16" height="16" viewBox="0 0 16 16" fill="none">
<g clip-path="url(#clip0_7761_548)">
<path d="M9.07951 14.4716C10.4961 12.7868 11.3161 10.6982 11.4243 8.5H10.5479C10.4324 10.64 9.57832 12.664 8.11263 14.2453L8.00001 14.3668L7.88738 14.2453C6.42169 12.664 5.56763 10.6401 5.45219 8.5H4.57576C4.68401 10.6999 5.50513 12.7899 6.92357 14.4753C3.97144 13.9906 1.67613 11.5294 1.44682 8.5H0.570068C0.828193 12.3687 4.05738 15.4375 7.99038 15.4375C11.9234 15.4375 15.1526 12.3687 15.4107 8.5H14.5339C14.3052 11.5218 12.0209 13.9782 9.07951 14.4716Z" fill="currentColor"/>
<path d="M6.92332 1.52475C5.50501 3.21012 4.68394 5.30013 4.57569 7.5H5.45213C5.56757 5.35869 6.42244 3.33369 7.88951 1.752L8.00001 1.63287L8.11044 1.75194C9.57751 3.33369 10.4324 5.35869 10.5479 7.5H11.4243C11.3161 5.30169 10.4961 3.21319 9.07976 1.52844C12.0209 2.02194 14.3052 4.47825 14.5339 7.5H15.4106C15.1525 3.63125 11.9233 0.5625 7.99032 0.5625C4.05732 0.5625 0.828131 3.63125 0.570068 7.5H1.44682C1.67607 4.47062 3.97132 2.0095 6.92332 1.52475Z" fill="currentColor"/>
<path d="M4.50951 7.5625H1.50938V8.4375H4.50951V7.5625Z" fill="currentColor"/>
<path d="M14.5 7.5625H11.4906V8.4375H14.5V7.5625Z" fill="currentColor"/>
<path d="M10.4875 7.5625H5.51126V8.4375H10.4875V7.5625Z" fill="currentColor"/>
</g>
<defs>
<clipPath id="clip0_7761_548">
<rect width="16" height="16" fill="white"/>
</clipPath>
</defs>
</svg>