<svg width="32" height="32" viewBox="0 0 32 32" fill="none" xmlns="http://www.w3.org/2000/svg">
<path d="M16 2C8.28036 2 2 8.28036 2 16C2 23.7196 8.28036 30 16 30C23.7196 30 30 23.7196 30 16C30 8.28036 23.7196 2 16 2ZM16 29.0367C8.81154 29.0367 2.96337 23.1886 2.96337 16.0001C2.96337 8.81166 8.81154 2.96337 16 2.96337C23.1885 2.96337 29.0366 8.81154 29.0366 16C29.0366 23.1885 23.1885 29.0366 16 29.0366V29.0367Z" fill="currentcolor"/>
<path d="M12.6052 14.0911H13.5686C13.5686 12.7631 12.4881 11.6826 11.1601 11.6826C9.83211 11.6826 8.75169 12.7631 8.75169 14.0911H9.71507C9.71507 13.2942 10.3633 12.646 11.1601 12.646C11.957 12.646 12.6052 13.2942 12.6052 14.0911Z" fill="currentcolor"/>
<path d="M20.7848 11.6826C19.4568 11.6826 18.3764 12.7631 18.3764 14.0911H19.3398C19.3398 13.2942 19.988 12.646 20.7848 12.646C21.5817 12.646 22.2299 13.2942 22.2299 14.0911H23.1933C23.1933 12.7631 22.1129 11.6826 20.7848 11.6826Z" fill="currentcolor"/>
<path d="M10.6704 18.9148C10.6704 21.8326 13.0473 24.2065 15.9689 24.2065C18.8906 24.2065 21.2675 21.8326 21.2675 18.9148V18.4331H10.6704V18.9148ZM20.2774 19.3965C20.0365 21.5572 18.1963 23.2431 15.9689 23.2431C13.7416 23.2431 11.9012 21.5572 11.6605 19.3965H20.2775H20.2774Z" fill="currentcolor"/>
</svg>
