<svg width="32" height="32" viewBox="0 0 32 32" fill="none" xmlns="http://www.w3.org/2000/svg">
<path d="M25.4182 21.3455H20.0727V22.8727H26.9455V9.89091H25.4182V21.3455Z" fill="currentcolor"/>
<path d="M9.12727 22.8727H18.0364V21.3455H10.6545V13.9636H9.12727V22.8727Z" fill="currentcolor"/>
<path d="M10.6545 6.58182H22.1091V5.05455H9.12727V11.9273H10.6545V6.58182Z" fill="currentcolor"/>
<path d="M14.9818 12.1818H10.9091V13.7091H14.9818V12.1818Z" fill="currentcolor"/>
<path d="M19.8182 17.0182H18.2909V21.0909H19.8182V17.0182Z" fill="currentcolor"/>
<path d="M18.2909 28.4727H3.52727V13.7091H8.87273V12.1818H2V30H19.8182V23.1273H18.2909V28.4727Z" fill="currentcolor"/>
<path d="M24.1458 2V3.52727H27.3928L13.9019 17.0182H16.0617L28.4727 4.60718V7.83304H30V2H24.1458Z" fill="currentcolor"/>
</svg>
