<svg width="32" height="32" viewBox="0 0 32 32" fill="none" xmlns="http://www.w3.org/2000/svg">
<path d="M10.2963 6.14815H22.2222V5.11111H9.25926V11.8519H10.2963V6.14815Z" fill="currentcolor"/>
<path d="M25.8519 21.7037H20.1481V22.7407H26.8889V9.77778H25.8519V21.7037Z" fill="currentcolor"/>
<path d="M18.0741 21.7037H10.2963V13.9259H9.25926V22.7407H18.0741V21.7037Z" fill="currentcolor"/>
<path d="M19.6296 17.037H18.5926V21.1852H19.6296V17.037Z" fill="currentcolor"/>
<path d="M14.963 12.3704H10.8148V13.4074H14.963V12.3704Z" fill="currentcolor"/>
<path d="M18.5926 28.963H3.03704V13.4074H8.74074V12.3704H2V30H19.6296V23.2593H18.5926V28.963Z" fill="currentcolor"/>
<path d="M24.2967 2V3.03704H28.2296L14.2296 17.037H15.6963L28.963 3.77035V7.6818H30V2H24.2967Z" fill="currentcolor"/>
</svg>
