<svg width="32" height="32" viewBox="0 0 32 32" fill="none" xmlns="http://www.w3.org/2000/svg">
<path d="M27.1209 10.5504H21.6258V5.054C21.6258 3.46658 20.3343 2.17505 18.7468 2.17505C17.1594 2.17505 15.8679 3.46658 15.8679 5.054V7.14788H15.8676C15.8676 10.1786 13.402 12.6443 10.3712 12.6443H8.27732V14.2147H10.3712C14.1923 14.2147 17.3148 11.1666 17.4345 7.37415L17.4383 5.054C17.4383 4.3324 18.0252 3.74546 18.7468 3.74546C19.4684 3.74546 20.0554 4.3324 20.0554 5.054V12.1208H27.1209C27.8425 12.1208 28.4296 12.7079 28.4296 13.4295V15.5225H28.4292V19.1107C28.4292 19.3561 28.3605 19.596 28.2303 19.8042L23.9305 26.6861C23.6898 27.0714 23.275 27.3013 22.8207 27.3013H8.27836V28.8717H22.8207C23.8202 28.8717 24.733 28.3657 25.2625 27.5182L29.5621 20.6364C29.8483 20.1783 29.9996 19.6508 29.9996 19.1107V15.5233H30V13.4294C30 11.8418 28.7085 10.5504 27.1209 10.5504Z" fill="currentcolor"/>
<path d="M2 13.1423H4.35169V28.2543H2V29.8247H5.9221V11.5719H2V13.1423Z" fill="currentcolor"/>
</svg>
