<svg width="32" height="32" viewBox="0 0 32 32" fill="none" xmlns="http://www.w3.org/2000/svg">
<path d="M15.8747 15C13.3933 15 11.3747 12.9814 11.3747 10.5C11.3747 8.01863 13.3933 6 15.8747 6C18.3561 6 20.3747 8.01863 20.3747 10.5C20.3747 12.9814 18.3561 15 15.8747 15ZM15.8747 7C13.9448 7 12.3747 8.57013 12.3747 10.5C12.3747 12.4299 13.9448 14 15.8747 14C17.8046 14 19.3747 12.4299 19.3747 10.5C19.3747 8.57013 17.8046 7 15.8747 7Z" fill="currentcolor"/>
<path d="M17.8483 30H14.1512L8.04909 13.4484C7.06409 10.8073 7.42147 7.96263 9.03034 5.64575C10.6391 3.32888 13.1795 2 16.0002 2C18.821 2 21.3612 3.32875 22.97 5.64563C24.5787 7.96238 24.9362 10.8069 23.9508 13.4498L17.8483 30ZM14.8483 29H17.1512L23.0131 13.102C23.883 10.769 23.5676 8.25975 22.1485 6.21588C20.7292 4.172 18.4883 2.99988 16.0001 2.99988C13.5118 2.99988 11.2708 4.17213 9.85159 6.216C8.43247 8.26 8.11722 10.7693 8.98672 13.1006L14.8485 28.9999L14.8483 29Z" fill="currentcolor"/>
</svg>
