<svg xmlns="http://www.w3.org/2000/svg" width="24" height="24" viewBox="0 0 24 24" fill="none">
  <g clip-path="url(#clip0_6386_3412)">
    <path d="M12.7507 15.75H11.2508V18H12.7507V15.75Z" fill="currentcolor"/>
    <path d="M12.7507 6.00001H11.2508V14.25H12.7507V6.00001Z" fill="currentcolor"/>
    <path d="M12.0242 23.2705C5.80753 23.2705 0.75 18.213 0.75 11.9964C0.75 5.7797 5.80753 0.722168 12.0242 0.722168C18.2408 0.722168 23.2984 5.7797 23.2984 11.9964C23.2984 18.213 18.2408 23.2705 12.0242 23.2705ZM12.0242 2.22217C6.63469 2.22217 2.25 6.60686 2.25 11.9964C2.25 17.3859 6.63469 21.7705 12.0242 21.7705C17.4137 21.7705 21.7984 17.3859 21.7984 11.9964C21.7984 6.60686 17.4137 2.22217 12.0242 2.22217Z" fill="currentcolor"/>
  </g>
  <defs>
    <clipPath id="clip0_6386_3412">
      <rect width="24" height="24" fill="white"/>
    </clipPath>
  </defs>
</svg>
