<svg width="32" height="32" viewBox="0 0 32 32" fill="none" xmlns="http://www.w3.org/2000/svg">
<path d="M5.11111 3.03704H16.5189L16.5185 5.11098L17.5556 5.11124L17.5562 2H4.07407V5.11111H5.11111V3.03704Z" fill="currentcolor"/>
<path d="M27.4074 17.5556H17.5556V9.25926H19.6296V5.11111H18.5926V8.22222H3.03704V5.11111H2V9.25926H4.07537L4.07511 12.37H4.07407V13.407H4.07498L4.07446 21.7033H4.07407V22.7404H4.07433L4.07407 26.8889H9.25926V27.4074C9.25926 28.837 10.4223 30 11.8519 30H27.4074C28.837 30 30 28.837 30 27.4074V20.1481C30 18.7186 28.837 17.5556 27.4074 17.5556ZM5.11241 9.25926H16.5185V17.5556H13.4074V12.37H5.11215L5.11241 9.25926ZM9.25926 25.8519H5.11111L5.11137 22.7404H9.25926V25.8519ZM9.25926 20.1481V21.7033H5.11137L5.11202 13.407H12.3704V17.5556H11.8519C10.4223 17.5556 9.25926 18.7186 9.25926 20.1481ZM28.963 27.4074C28.963 28.2652 28.2652 28.963 27.4074 28.963H11.8519C10.9941 28.963 10.2963 28.2652 10.2963 27.4074V20.1481C10.2963 19.2904 10.9941 18.5926 11.8519 18.5926H27.4074C28.2652 18.5926 28.963 19.2904 28.963 20.1481V27.4074Z" fill="currentcolor"/>
<path d="M13.4074 22.7407C13.9801 22.7407 14.4444 22.2764 14.4444 21.7037C14.4444 21.131 13.9801 20.6667 13.4074 20.6667C12.8347 20.6667 12.3704 21.131 12.3704 21.7037C12.3704 22.2764 12.8347 22.7407 13.4074 22.7407Z" fill="currentcolor"/>
<path d="M13.4074 26.8889C13.9801 26.8889 14.4444 26.4246 14.4444 25.8519C14.4444 25.2791 13.9801 24.8148 13.4074 24.8148C12.8347 24.8148 12.3704 25.2791 12.3704 25.8519C12.3704 26.4246 12.8347 26.8889 13.4074 26.8889Z" fill="currentcolor"/>
<path d="M17.5556 22.7407C18.1283 22.7407 18.5926 22.2764 18.5926 21.7037C18.5926 21.131 18.1283 20.6667 17.5556 20.6667C16.9828 20.6667 16.5185 21.131 16.5185 21.7037C16.5185 22.2764 16.9828 22.7407 17.5556 22.7407Z" fill="currentcolor"/>
<path d="M17.5556 26.8889C18.1283 26.8889 18.5926 26.4246 18.5926 25.8519C18.5926 25.2791 18.1283 24.8148 17.5556 24.8148C16.9828 24.8148 16.5185 25.2791 16.5185 25.8519C16.5185 26.4246 16.9828 26.8889 17.5556 26.8889Z" fill="currentcolor"/>
<path d="M21.7037 22.7407C22.2764 22.7407 22.7407 22.2764 22.7407 21.7037C22.7407 21.131 22.2764 20.6667 21.7037 20.6667C21.131 20.6667 20.6667 21.131 20.6667 21.7037C20.6667 22.2764 21.131 22.7407 21.7037 22.7407Z" fill="currentcolor"/>
<path d="M21.7037 26.8889C22.2764 26.8889 22.7407 26.4246 22.7407 25.8519C22.7407 25.2791 22.2764 24.8148 21.7037 24.8148C21.131 24.8148 20.6667 25.2791 20.6667 25.8519C20.6667 26.4246 21.131 26.8889 21.7037 26.8889Z" fill="currentcolor"/>
<path d="M25.8516 22.7407C26.4243 22.7407 26.8886 22.2764 26.8886 21.7037C26.8886 21.131 26.4243 20.6667 25.8516 20.6667C25.2789 20.6667 24.8146 21.131 24.8146 21.7037C24.8146 22.2764 25.2789 22.7407 25.8516 22.7407Z" fill="currentcolor"/>
<path d="M25.8516 26.8889C26.4243 26.8889 26.8886 26.4246 26.8886 25.8519C26.8886 25.2791 26.4243 24.8148 25.8516 24.8148C25.2789 24.8148 24.8146 25.2791 24.8146 25.8519C24.8146 26.4246 25.2789 26.8889 25.8516 26.8889Z" fill="currentcolor"/>
</svg>
