<svg width="32" height="32" viewBox="0 0 32 32" fill="none" xmlns="http://www.w3.org/2000/svg">
<path d="M8.34804 3.52727H20.0571V5.81818H21.5844V2H6.82077V5.81818H8.34804V3.52727Z" fill="currentcolor"/>
<path d="M8.36344 10.6545H20.0725V12.9455H21.5998V10.6545H23.6362V5.81818H22.1089V9.12727H6.32708V5.81818H4.7998V10.6545H6.83617V30H16.7634V28.4727H8.36344V10.6545Z" fill="currentcolor"/>
<path d="M20.8362 15.2364C17.3273 15.2364 14.4725 18.0911 14.4725 21.6C14.4725 24.0603 16.2001 27.9636 20.8362 27.9636C24.3451 27.9636 27.1998 25.1089 27.1998 21.6C27.1998 18.0911 24.3451 15.2364 20.8362 15.2364ZM20.8362 26.4364C16.8687 26.4364 15.9998 22.9451 15.9998 21.6C15.9998 18.9333 18.1694 16.7636 20.8362 16.7636C23.5029 16.7636 25.6725 18.9333 25.6725 21.6C25.6725 24.2667 23.5029 26.4364 20.8362 26.4364Z" fill="currentcolor"/>
<path d="M21.5998 18.0364H20.0725V22.1091H21.5998V18.0364Z" fill="currentcolor"/>
<path d="M21.5998 23.1273H20.0725V25.1636H21.5998V23.1273Z" fill="currentcolor"/>
</svg>
