<svg width="32" height="32" viewBox="0 0 32 32" fill="none" xmlns="http://www.w3.org/2000/svg">
<path d="M15.25 21H10.25V19H8.75V5H16.75V19H15.25V21ZM12.25 19H13.25V17H14.75V7H10.75V17H12.25V19Z" fill="currentcolor"/>
<path d="M14.76 2H10.76V4H14.76V2Z" fill="currentcolor"/>
<path d="M17.7495 26.9967L17.7507 24.9967L19.2516 24.9977C20.8534 24.9977 22.3594 24.3741 23.4925 23.2414C24.6259 22.1082 25.2502 20.6016 25.2502 18.9989C25.2502 15.6911 22.5592 13 19.2514 13H17.7502V11H19.2514C23.662 11 27.2502 14.5882 27.2502 18.9989C27.2502 21.136 26.4179 23.145 24.9065 24.6559C23.3958 26.1661 21.3875 26.9977 19.2515 26.9977L17.7495 26.9967Z" fill="currentcolor"/>
<path d="M20.75 28H4.75V30H20.75V28Z" fill="currentcolor"/>
<path d="M15.76 25H9.76V27H15.76V25Z" fill="currentcolor"/>
<path d="M17.75 22H7.75V24H17.75V22Z" fill="currentcolor"/>
</svg>
