<svg width="32" height="32" viewBox="0 0 32 32" fill="none" xmlns="http://www.w3.org/2000/svg">
<path d="M8.99988 18.8H10.5272V20.8364H15.109V18.8H16.6362V5.05455H8.99988V18.8ZM10.5272 6.58182H15.109V17.2727H13.5817V19.3091H12.0544V17.2727H10.5272V6.58182Z" fill="currentcolor"/>
<path d="M14.8646 2H10.7919V3.52727H14.8646V2Z" fill="currentcolor"/>
<path d="M19.4378 25.4159L17.9095 25.4149L17.9085 26.9421L19.4375 26.9432C21.5444 26.9432 23.5253 26.1229 25.0154 24.6332C26.5061 23.1429 27.3272 21.1613 27.3272 19.0534C27.3272 14.703 23.7877 11.1636 19.4374 11.1636H17.909V12.6909H19.4374C22.9457 12.6909 25.7999 15.5451 25.7999 19.0534C25.7999 20.7533 25.1378 22.3513 23.9357 23.553C22.734 24.7543 21.1366 25.416 19.4378 25.4159Z" fill="currentcolor"/>
<path d="M20.9635 28.4727H4.67261V30H20.9635V28.4727Z" fill="currentcolor"/>
<path d="M15.8828 25.4182H9.7737V26.9455H15.8828V25.4182Z" fill="currentcolor"/>
<path d="M17.909 22.3636H7.72715V23.8909H17.909V22.3636Z" fill="currentcolor"/>
</svg>
