<svg xmlns="http://www.w3.org/2000/svg" width="40" height="40" viewBox="0 0 40 40" fill="none">
<path d="M31.25 18.9065H8.75V21.094H31.25V18.9065Z" fill="currentcolor"/>
<path d="M20.017 1.40039C9.76437 1.40039 1.42328 9.74148 1.42328 19.9941C1.42328 30.2468 9.76437 38.5879 20.017 38.5879C30.2697 38.5879 38.6108 30.2468 38.6108 19.9941C38.6108 9.74148 30.2698 1.40039 20.017 1.40039ZM20.017 36.4004C10.9706 36.4004 3.61078 29.0405 3.61078 19.9941C3.61078 10.9477 10.9706 3.58789 20.017 3.58789C29.0634 3.58789 36.4233 10.9477 36.4233 19.9941C36.4233 29.0405 29.0634 36.4004 20.017 36.4004Z" fill="currentcolor"/>
</svg>