<svg width="32" height="32" viewBox="0 0 32 32" fill="none" xmlns="http://www.w3.org/2000/svg">
<path d="M15.9994 15.6961C15.0299 15.6961 14.1185 16.0738 13.433 16.7591L14.1662 17.4924C14.6559 17.0028 15.3071 16.7332 15.9995 16.7332C16.6922 16.7332 17.3432 17.0029 17.8329 17.4927L18.5661 16.7594C17.8806 16.0738 16.9692 15.6961 15.9997 15.6961H15.9994Z" fill="currentcolor"/>
<path d="M11.2332 14.5592L11.9664 15.2925C14.1903 13.0687 17.8088 13.0689 20.0328 15.2929L20.766 14.5596C18.1382 11.9313 13.8616 11.9312 11.2332 14.5592Z" fill="currentcolor"/>
<path d="M15.9994 10.511H15.9998C18.3544 10.511 20.5679 11.4281 22.2328 13.0931L22.966 12.3597C21.1053 10.4989 18.6314 9.47393 15.9999 9.4738H15.9994C13.3681 9.4738 10.8942 10.4985 9.0335 12.3591L9.76669 13.0924C11.4317 11.4276 13.6451 10.511 15.9994 10.511Z" fill="currentcolor"/>
<path d="M23.2591 30C24.6886 30 25.8517 28.837 25.8517 27.4074V4.59259C25.8517 3.16304 24.6886 2 23.2591 2H8.74054C7.31099 2 6.14795 3.16304 6.14795 4.59259V27.4074C6.14795 28.837 7.31099 30 8.74054 30H23.2591ZM7.18499 27.4074V4.59259C7.18499 3.73483 7.88278 3.03704 8.74054 3.03704H23.2591C24.1168 3.03704 24.8146 3.73483 24.8146 4.59259V27.4074C24.8146 28.2652 24.1168 28.963 23.2591 28.963H8.74054C7.88278 28.963 7.18499 28.2652 7.18499 27.4074Z" fill="currentcolor"/>
<path d="M18.0739 24.8148H13.9257V25.8519H18.0739V24.8148Z" fill="currentcolor"/>
</svg>
