<svg width="32" height="32" viewBox="0 0 32 32" fill="none" xmlns="http://www.w3.org/2000/svg">
<path d="M18.0739 24.8148H13.9257V25.8519H18.0739V24.8148Z" fill="currentcolor"/>
<path d="M23.2591 2H8.74054C7.31099 2 6.14795 3.16304 6.14795 4.59259V27.4074C6.14795 28.837 7.31099 30 8.74054 30H23.2591C24.6886 30 25.8517 28.837 25.8517 27.4074V4.59259C25.8517 3.16304 24.6886 2 23.2591 2ZM24.8146 27.4074C24.8146 28.2652 24.1168 28.963 23.2591 28.963H8.74054C7.88278 28.963 7.18499 28.2652 7.18499 27.4074V4.59259C7.18499 3.73483 7.88278 3.03704 8.74054 3.03704H23.2591C24.1168 3.03704 24.8146 3.73483 24.8146 4.59259V27.4074Z" fill="currentcolor"/>
<path d="M10.2961 21.7037H21.7035V6.14815H10.2961V21.7037ZM11.3331 7.18518H20.6665V20.6667H11.3331V7.18518Z" fill="currentcolor"/>
</svg>
