<svg width="32" height="32" viewBox="0 0 32 32" fill="none" xmlns="http://www.w3.org/2000/svg">
<path d="M28.9687 18.3753C29.6009 17.7794 29.9966 16.9353 29.9966 16C29.9966 15.0647 29.6017 14.2225 28.9707 13.6267C29.1223 13.2317 29.2592 12.8379 29.3791 12.4467C30.5078 8.76531 30.0881 5.69603 28.1969 3.8043C26.3058 1.91246 23.2368 1.49187 19.5554 2.62045C18.3832 2.97969 17.1891 3.48437 15.9991 4.11701C14.8101 3.48495 13.6171 2.98062 12.446 2.6215C8.76472 1.49269 5.6959 1.91246 3.80453 3.80384C1.91292 5.69486 1.49256 8.7638 2.62067 12.4451C2.97979 13.6169 3.48424 14.8107 4.11653 16.0004C3.48471 17.1894 2.98038 18.3822 2.62137 19.5534C1.49256 23.2347 1.91245 26.304 3.80359 28.1958C4.99958 29.3921 6.66632 30 8.66138 30C9.82109 30 11.0917 29.7945 12.4451 29.3797C13.6167 29.0207 14.8101 28.5163 15.9996 27.8841C17.1882 28.5159 18.3809 29.0201 19.5517 29.3791C20.9057 29.7944 22.1767 29.9999 23.337 29.9999C25.3309 29.9999 26.9975 29.3923 28.1933 28.1968C30.0848 26.3057 30.5053 23.2368 29.3771 19.5556C29.2572 19.1644 29.1203 18.7705 28.9688 18.3753H28.9687ZM28.1304 16C28.1304 16.7718 27.5026 17.3997 26.7308 17.3997C25.959 17.3997 25.3312 16.7718 25.3312 16C25.3312 15.2282 25.959 14.6004 26.7308 14.6004C27.5026 14.6004 28.1304 15.2282 28.1304 16ZM20.1024 4.40463C21.2806 4.04353 22.368 3.86449 23.3378 3.86449C24.8286 3.86449 26.0415 4.28776 26.8772 5.12381C28.4543 6.70143 28.4878 9.56194 27.2836 12.7819C27.1038 12.7511 26.9193 12.7342 26.7308 12.7342C26.4414 12.7342 26.161 12.7725 25.8937 12.8435C24.981 11.5932 23.9375 10.374 22.7822 9.21844C21.2464 7.68246 19.5982 6.34336 17.9134 5.24791C18.6487 4.90885 19.3808 4.62589 20.1025 4.40475L20.1024 4.40463ZM5.12392 5.12346C5.97548 4.27213 7.20016 3.87067 8.65403 3.87067C10.2483 3.87067 12.1177 4.35459 14.0703 5.25736C12.3913 6.35047 10.7489 7.68549 9.2182 9.21611C7.6821 10.7522 6.34288 12.4007 5.24732 14.0858C4.90861 13.351 4.62588 12.6193 4.40485 11.8983C3.48879 8.90889 3.74411 6.50292 5.12392 5.12346ZM11.8982 27.5954C8.90888 28.5115 6.50279 28.2563 5.12333 26.8762C3.33845 25.0908 3.53125 21.6624 5.25677 17.9293C6.34988 19.6085 7.68502 21.2511 9.21575 22.7821C10.7517 24.3183 12.4002 25.6575 14.0852 26.7531C13.3506 27.0918 12.6191 27.3744 11.8982 27.5954ZM10.5353 21.4627C8.81954 19.7467 7.36998 17.8906 6.26182 16.0145C7.35482 14.1546 8.79726 12.2761 10.5377 10.5359C12.2532 8.82048 14.1086 7.37104 15.9842 6.26311C17.8438 7.35611 19.7222 8.79762 21.4623 10.538C22.5137 11.5895 23.4649 12.6937 24.2992 13.8229C23.7808 14.4012 23.4649 15.1643 23.4649 16.0001C23.4649 16.836 23.779 17.5944 24.2945 18.1721C23.4681 19.2971 22.5207 20.4064 21.4626 21.4644C19.7466 23.1802 17.8905 24.6299 16.0142 25.7382C14.1542 24.6452 12.2756 23.2035 10.5351 21.4629L10.5353 21.4627ZM26.8738 26.8771C26.0222 27.7284 24.7974 28.13 23.3436 28.1299C21.7496 28.1299 19.8807 27.646 17.9287 26.7436C19.6082 25.6503 21.2511 24.3149 22.7823 22.7839C23.9383 21.628 24.9825 20.4082 25.8958 19.1573C26.1624 19.2278 26.4422 19.2658 26.7308 19.2658C26.9224 19.2658 27.1099 19.2483 27.2925 19.2165C27.4025 19.5131 27.5028 19.8086 27.5927 20.1022C28.5088 23.0916 28.2536 25.4976 26.8738 26.8771Z" fill="currentcolor"/>
<path d="M16.0007 11.3328C13.4282 11.3328 11.3353 13.4257 11.3353 15.9983C11.3353 18.5708 13.4282 20.6637 16.0007 20.6637C18.5732 20.6637 20.6662 18.5708 20.6662 15.9983C20.6662 13.4257 18.5732 11.3328 16.0007 11.3328ZM16.0007 18.7976C14.4573 18.7976 13.2014 17.5417 13.2014 15.9983C13.2014 14.4548 14.4573 13.199 16.0007 13.199C17.5442 13.199 18.8 14.4548 18.8 15.9983C18.8 17.5417 17.5442 18.7976 16.0007 18.7976Z" fill="currentcolor"/>
</svg>
