<svg width="32" height="32" viewBox="0 0 32 32" fill="none" xmlns="http://www.w3.org/2000/svg">
<path d="M18.3651 23.002H7.36508C6.94233 23.002 6.50296 22.7302 6.27171 22.3258C6.17671 22.1597 6.04533 21.8375 6.21696 21.5265L19.0747 2.00195H16.68L4.52996 20.452L4.50346 20.4946C4.00083 21.3482 4.01271 22.4038 4.53546 23.3185C5.12008 24.3412 6.23071 25.0021 7.36508 25.0021H18.3651C18.6408 25.0021 18.8651 25.2263 18.8651 25.5021V29.9978H20.8651V25.5021C20.8651 24.1236 19.7436 23.0021 18.3651 23.0021V23.002Z" fill="currentcolor"/>
<path d="M19.3651 20.002C20.0167 20.002 20.571 20.4203 20.7776 21.002H22.8288C22.5855 19.3081 21.1252 18.002 19.3651 18.002C17.605 18.002 16.1447 19.3081 15.9013 21.002H17.9526C18.1592 20.4203 18.7135 20.002 19.3651 20.002Z" fill="currentcolor"/>
<path d="M27.8651 21.502C27.8651 19.7418 26.559 18.2817 24.8651 18.0382V20.0895C25.4467 20.2961 25.8651 20.8503 25.8651 21.502C25.8651 22.1536 25.4467 22.7078 24.8651 22.9145V24.9657C26.559 24.7223 27.8651 23.2621 27.8651 21.502Z" fill="currentcolor"/>
</svg>
