<svg width="32" height="32" viewBox="0 0 32 32" fill="none" xmlns="http://www.w3.org/2000/svg">
<path d="M27.6869 23.9015L24.5217 18.3623V11.7397C24.5241 9.46358 23.6403 7.32414 22.0335 5.7156C20.5972 4.27786 18.7357 3.41863 16.7304 3.25002V2H15.2695V3.25014C13.2681 3.41887 11.4092 4.27701 9.97337 5.71268C8.36422 7.32183 7.47808 9.46212 7.47821 11.7393V18.3626L4.31299 23.9017V26.1043H12.3478V30H19.6521V26.1043H27.6869V23.9017V23.9015ZM18.1912 28.5389H13.8086V26.1041H18.1912V28.5389ZM19.6521 24.6432H5.57165L8.93907 18.7503V11.7389C8.93907 9.85193 9.67316 8.07856 11.0063 6.74527C12.3395 5.41223 14.113 4.67802 15.9999 4.67802C17.8869 4.67802 19.6665 5.41308 20.9999 6.74795C22.3309 8.08014 23.0626 9.85242 23.0608 11.7389V18.7503L26.4282 24.6432H19.6521Z" fill="currentcolor"/>
</svg>
