<svg width="32" height="32" viewBox="0 0 32 32" fill="none" xmlns="http://www.w3.org/2000/svg">
<path d="M24.6894 18.1573V11.656C24.6918 9.33503 23.7907 7.15321 22.1521 5.51303C20.7403 4.09976 18.9258 3.23466 16.9653 3.01995V2H15.0343V3.02007C13.0776 3.2349 11.2655 4.09879 9.85451 5.5099C8.21361 7.15079 7.31001 9.33322 7.31013 11.6552V18.1574L4.41357 23.2264V26.1379H12.1377V30H19.8618V26.1379H27.586V23.2264L24.6894 18.1573ZM17.9308 28.0688H14.0687V26.1378H17.9308V28.0688ZM19.8618 24.2068H6.07728L9.24116 18.67V11.6551C9.24116 9.84881 9.94382 8.15131 11.22 6.87526C12.496 5.59921 14.1937 4.89643 15.9998 4.89643C17.8059 4.89643 19.5096 5.60005 20.7859 6.87767C22.0597 8.15276 22.7602 9.84917 22.7584 11.6551V18.67L25.9223 24.2068H19.8618Z" fill="currentcolor"/>
</svg>
