<svg width="32" height="32" viewBox="0 0 32 32" fill="none" xmlns="http://www.w3.org/2000/svg">
<path d="M27.1146 26.139L25.4726 27.9362L23.7996 26.139H21.1615L24.7555 30H26.2028L29.7299 26.139H27.1146Z" fill="currentcolor"/>
<path d="M23.5119 20.3448C26.7062 20.3448 29.305 17.746 29.305 14.5517C29.305 11.6156 27.1094 9.1826 24.2737 8.80847C23.406 4.87519 19.8906 2 15.7877 2C11.6849 2 8.16946 4.87519 7.30182 8.80847C4.46609 9.1826 2.27051 11.6156 2.27051 14.5517C2.27051 17.746 4.86932 20.3448 8.06361 20.3448C8.24428 20.3448 8.42399 20.3352 8.60273 20.3184L11.9257 23.6413V29.9953H13.8567V20.9766C14.4681 21.1933 15.1195 21.3103 15.7877 21.3103C16.456 21.3103 17.1074 21.1933 17.7188 20.9766V29.9953H19.6498V23.6413L22.9728 20.3184C23.1514 20.3353 23.3312 20.3448 23.5119 20.3448ZM10.7146 19.6993C10.9492 19.5786 11.1762 19.4427 11.3928 19.2907C11.5587 19.4837 11.7375 19.6631 11.9257 19.8313V20.9103L10.7146 19.6991V19.6993ZM15.7877 19.3793C14.4087 19.3793 13.1344 18.6403 12.4451 17.4483H10.6161C9.9127 18.0728 9.01899 18.4138 8.06361 18.4138C5.93404 18.4138 4.20154 16.6813 4.20154 14.5517C4.20154 12.4222 5.93404 10.6897 8.06361 10.6897C9.85996 10.6897 11.3736 11.9224 11.8034 13.5862H13.7746C13.3802 11.2458 11.5785 9.37788 9.27208 8.88631C10.0674 6.00315 12.7155 3.93103 15.7876 3.93103C18.8598 3.93103 21.5078 6.00315 22.3032 8.88631C19.9968 9.37788 18.1951 11.2458 17.8006 13.5862H19.7718C20.2016 11.9224 21.7154 10.6897 23.5116 10.6897C25.6412 10.6897 27.3737 12.4222 27.3737 14.5517C27.3737 16.6813 25.6412 18.4138 23.5116 18.4138C22.5561 18.4138 21.6626 18.0728 20.9592 17.4483H19.1301C18.4409 18.6403 17.1665 19.3793 15.7875 19.3793H15.7877ZM19.6498 20.9104V19.8314C19.838 19.6632 20.017 19.4837 20.1827 19.2908C20.3993 19.4428 20.6263 19.5786 20.8609 19.6994L19.6498 20.9104Z" fill="currentcolor"/>
<path d="M26.4084 21.3103H24.4774V25.1724H26.4084V21.3103Z" fill="currentcolor"/>
</svg>
