<svg width="32" height="32" viewBox="0 0 32 32" fill="none" xmlns="http://www.w3.org/2000/svg">
<path d="M27.5838 26.1054L25.5996 28.2775L23.5776 26.1054H21.582L25.2072 30H26.0046L29.5626 26.1054H27.5838Z" fill="currentcolor"/>
<path d="M23.6201 20.0174C26.7079 20.0174 29.2201 17.5052 29.2201 14.4174C29.2201 11.5206 27.0092 9.1305 24.1863 8.84576C23.4002 4.9019 19.911 2 15.8288 2C11.7466 2 8.25736 4.90202 7.47129 8.84576C4.6484 9.1305 2.4375 11.5206 2.4375 14.4174C2.4375 17.5052 4.94971 20.0174 8.0375 20.0174C8.2503 20.0174 8.46188 20.0042 8.67164 19.9801L12.1766 23.4851V29.9953H13.6375V20.5432C14.3198 20.8338 15.0632 20.9913 15.8288 20.9913C16.5944 20.9913 17.3378 20.8338 18.0201 20.5432V29.9953H19.481V23.4851L22.986 19.9801C23.1957 20.0042 23.4073 20.0174 23.6201 20.0174ZM10.2961 19.5387C10.7005 19.3602 11.0843 19.1349 11.4372 18.8655C11.6595 19.1463 11.9082 19.4019 12.1765 19.6327V21.4192L10.2961 19.5387ZM15.8288 19.5304C14.3293 19.5304 12.944 18.7162 12.2133 17.4058L12.1761 17.3391H10.9658C10.186 18.1243 9.15093 18.5565 8.0375 18.5565C5.75513 18.5565 3.89837 16.6998 3.89837 14.4174C3.89837 12.135 5.75513 10.2783 8.0375 10.2783C9.98435 10.2783 11.6205 11.6297 12.0599 13.4435H13.5511C13.1412 11.117 11.2913 9.2817 8.95736 8.89421C9.69863 5.74944 12.5292 3.46087 15.8289 3.46087C19.1287 3.46087 21.9593 5.74944 22.7005 8.89421C20.3664 9.2817 18.5167 11.117 18.1068 13.4435H19.598C20.0372 11.6297 21.6735 10.2783 23.6204 10.2783C25.9027 10.2783 27.7595 12.135 27.7595 14.4174C27.7595 16.6998 25.9027 18.5565 23.6204 18.5565C22.5069 18.5565 21.472 18.1243 20.692 17.3391H19.4817L19.4446 17.4058C18.7139 18.7164 17.3285 19.5304 15.829 19.5304H15.8288ZM19.481 21.4192V19.6327C19.7493 19.4019 19.998 19.1463 20.2203 18.8655C20.5732 19.1349 20.9569 19.3604 21.3614 19.5387L19.4809 21.4192H19.481Z" fill="currentcolor"/>
<path d="M26.2984 21.2348H24.8375V25.1304H26.2984V21.2348Z" fill="currentcolor"/>
</svg>
