<svg width="32" height="32" viewBox="0 0 32 32" fill="none" xmlns="http://www.w3.org/2000/svg">
<path d="M24.5158 23H20.5158V25H24.5158V23Z" fill="currentcolor"/>
<path d="M22.5001 30C19.1918 30 16.5001 27.3085 16.5001 24C16.5001 20.6915 19.1918 18 22.5001 18C25.8085 18 28.5001 20.6915 28.5001 24C28.5001 27.3085 25.8085 30 22.5001 30ZM22.5001 20C20.2945 20 18.5001 21.7944 18.5001 24C18.5001 26.2056 20.2945 28 22.5001 28C24.7058 28 26.5001 26.2056 26.5001 24C26.5001 21.7944 24.7058 20 22.5001 20Z" fill="currentcolor"/>
<path d="M15.5001 28H7.50013C6.96525 28 6.46263 27.792 6.085 27.4144C5.70738 27.0369 5.49975 26.535 5.50013 26V16.6385C5.50013 16.356 5.5585 16.082 5.674 15.8228L8.26125 10H6.07275L3.84675 15.0095C3.61663 15.5255 3.5 16.0736 3.5 16.6385V25.9991C3.49913 27.0684 3.915 28.0732 4.67088 28.8289C5.42625 29.5841 6.43113 30 7.5 30H15.5V28H15.5001Z" fill="currentcolor"/>
<path d="M13.7391 10L16.3278 15.8244C16.4421 16.0817 16.5001 16.355 16.5001 16.6366V18H18.5001V16.6366C18.5001 16.0734 18.3841 15.5268 18.1554 15.0121L15.9278 10H13.7391Z" fill="currentcolor"/>
<path d="M16.5001 8V5C16.5001 3.34588 15.1544 2 13.5001 2H8.50013C6.84588 2 5.50013 3.34588 5.50013 5V8H16.5001ZM7.50013 6V5C7.50013 4.44863 7.94875 4 8.50013 4H13.5001C14.0515 4 14.5001 4.44863 14.5001 5V6H7.50013Z" fill="currentcolor"/>
</svg>
