<svg width="32" height="32" viewBox="0 0 32 32" fill="none" xmlns="http://www.w3.org/2000/svg">
<path d="M23.7226 7.56515V10.17C25.517 12.0724 26.6187 14.635 26.6187 17.4504C26.6187 20.7408 25.1143 23.6865 22.7573 25.6357V28.0213C26.2382 25.7883 28.5494 21.8841 28.5494 17.4504C28.5494 13.4407 26.6589 9.86426 23.7226 7.56515Z" fill="currentcolor"/>
<path d="M15.9998 28.1522L13.9863 26.1386H11.2558L15.1174 30H16.8823L20.7438 26.1386H18.0133L15.9998 28.1522Z" fill="currentcolor"/>
<path d="M23.7226 2.97006V2.00471H20.8266C19.3443 2.00471 17.9907 2.56509 16.9652 3.48423V2H15.0345V4.93758C8.56392 5.43208 3.4502 10.8553 3.4502 17.4504C3.4502 21.8841 5.76138 25.7883 9.24232 28.0213V25.6357C6.88529 23.6865 5.38091 20.7408 5.38091 17.4504C5.38091 11.9206 9.62992 7.3652 15.0345 6.87577V8.76219H17.9305C18.9812 8.76219 19.9666 8.47958 20.8171 7.98846C20.8202 7.98665 20.8234 7.98484 20.8266 7.98291C21.7035 7.47441 22.4349 6.74291 22.9434 5.86613C23.4379 5.01348 23.7226 4.02471 23.7226 2.97006ZM17.9305 6.83148H17.0873C17.5171 5.16793 19.0305 3.93542 20.8266 3.93542H21.6698C21.24 5.59896 19.7266 6.83148 17.9305 6.83148Z" fill="currentcolor"/>
<path d="M16.9652 11.6583H15.0345V25.1732H16.9652V11.6583Z" fill="currentcolor"/>
</svg>
