<svg version="1.1" xmlns="http://www.w3.org/2000/svg" xmlns:xlink="http://www.w3.org/1999/xlink" x="0px" y="0px"
	 viewBox="0 0 32 32" fill="currentcolor">
<linearGradient id="SVGID_1_" gradientUnits="userSpaceOnUse" x1="-520" y1="0" x2="-520" y2="-1">
	<stop  offset="0" style="stop-color:#656565"/>
	<stop  offset="0.618" style="stop-color:#1B1B1B"/>
	<stop  offset="0.6292" style="stop-color:#545454"/>
	<stop  offset="0.9831" style="stop-color:#3E3E3E"/>
</linearGradient>
<path d="M20.999,11.5h-2.5l0.0009-1.7622C19.7042,8.9294,20.499,7.5563,20.499,6c0-2.4814-2.0186-4.5-4.5-4.5s-4.5,2.0186-4.5,4.5
	c0,1.5571,0.7957,2.9305,2.0009,3.7387L13.499,11.5h-2.5c-2.4814,0-4.5,2.0186-4.5,4.5v5h1v-5c0-1.9297,1.5703-3.5,3.5-3.5h3.5
	L14.5,9.1495C13.3213,8.5856,12.499,7.3912,12.499,6c0-1.9297,1.5703-3.5,3.5-3.5s3.5,1.5703,3.5,3.5
	c0,1.3904-0.8214,2.5842-1.999,3.1484L17.499,12.5h3.5c1.9297,0,3.5,1.5703,3.5,3.5v5h1v-5C25.499,13.5186,23.4805,11.5,20.999,11.5
	z"/>
<g>
	<path d="M8.5,30h-1v-2.8447c0-0.8311,0.1562-1.6426,0.4648-2.4131l1.1416-2.8564c0.2607-0.6523,0.3926-1.3379,0.3926-2.04L9.5,17h1
		l-0.001,2.8457c0,0.8291-0.1562,1.6406-0.4648,2.4111l-1.1416,2.8564C8.6318,25.7656,8.5,26.4521,8.5,27.1553V30z"/>
</g>
<g>
	<path d="M24.5,30h-1v-2.8438c0-0.7041-0.1328-1.3916-0.3936-2.0439l-1.1416-2.8525c-0.3096-0.7715-0.4658-1.585-0.4658-2.417
		L21.5,17h1l-0.001,2.8428c0,0.7041,0.1328,1.3926,0.3936,2.0459l1.1416,2.8525c0.3096,0.7705,0.4658,1.583,0.4658,2.415V30z"/>
</g>
<g>
</g>
<g>
</g>
<g>
</g>
<g>
</g>
<g>
</g>
<g>
</g>
<g>
</g>
<g>
</g>
<g>
</g>
<g>
</g>
<g>
</g>
<g>
</g>
<g>
</g>
<g>
</g>
<g>
</g>
</svg>
