<svg width="32" height="32" viewBox="0 0 32 32" fill="none" xmlns="http://www.w3.org/2000/svg">
<path d="M14 9.46187C14.5889 9.80337 15.2716 10 16 10C17.9075 10 19.5065 8.6575 19.9041 6.86788C21.4709 7.55538 22.824 8.64188 23.8324 10H26.2162C24.803 7.52038 22.5136 5.60213 19.772 4.67063C19.2226 3.11675 17.7396 2 16 2C14.5227 2 13.2309 2.80562 12.5381 4C12.1966 4.58888 12 5.27163 12 6C12 7.47725 12.8056 8.76912 14 9.46187ZM16 4C17.1027 4 18 4.89725 18 6C18 7.10275 17.1027 8 16 8C14.8973 8 14 7.10275 14 6C14 4.89725 14.8973 4 16 4Z" fill="currentcolor"/>
<path d="M18.6415 23C17.9364 22.3784 17.0118 22 16 22C14.2216 22 12.7113 23.1669 12.1926 24.7749C10.7426 24.1574 9.47162 23.1987 8.48125 22H6.02388C7.42537 24.247 9.56413 25.9883 12.0994 26.8831C12.5028 28.665 14.0977 30 15.9999 30C17.4792 30 18.7725 29.1921 19.4646 27.9951C19.8044 27.4074 19.9999 26.7262 19.9999 26C19.9999 24.8061 19.4735 23.7335 18.6414 23H18.6415ZM16 28C14.8973 28 14 27.1027 14 26C14 24.8973 14.8973 24 16 24C17.1027 24 18 24.8973 18 26C18 27.1027 17.1027 28 16 28Z" fill="currentcolor"/>
<path d="M28 14V18H24V14H28V12H22V20H24.7979C24.1437 21.3646 23.18 22.5525 22 23.4767V25.8986C24.2537 24.5546 26.0218 22.4783 26.9736 20H30V14H28Z" fill="currentcolor"/>
<path d="M10 20V12H7.0215C7.6725 10.4676 8.70625 9.13675 10 8.12325V5.70113C7.62613 7.117 5.79075 9.34525 4.88112 12H2V18H4V14H8V18H4V20H10Z" fill="currentcolor"/>
</svg>
