<svg width="32" height="32" viewBox="0 0 32 32" fill="none" xmlns="http://www.w3.org/2000/svg">
<path d="M13.9636 9.04556C14.5535 9.41911 15.2516 9.63636 16 9.63636C17.9265 9.63636 19.5234 8.20187 19.781 6.34496C21.601 7.07564 23.1619 8.31655 24.287 9.89091H26.1077C24.6736 7.44562 22.378 5.56453 19.6405 4.667C19.151 3.12255 17.7043 2 16 2C14.643 2 13.45 2.71222 12.7726 3.78182C12.3991 4.37173 12.1818 5.06982 12.1818 5.81818C12.1818 7.17516 12.894 8.36822 13.9636 9.04556ZM16 3.52727C17.2632 3.52727 18.2909 4.555 18.2909 5.81818C18.2909 7.08136 17.2632 8.10909 16 8.10909C14.7368 8.10909 13.7091 7.08136 13.7091 5.81818C13.7091 4.555 14.7368 3.52727 16 3.52727Z" fill="currentcolor"/>
<path d="M18.2882 23.1273C17.6501 22.648 16.8577 22.3636 16 22.3636C14.207 22.3636 12.6994 23.6063 12.2914 25.2754C10.6015 24.6118 9.13147 23.5099 8.02076 22.1091H6.14273C7.56564 24.3231 9.71349 26.0291 12.2484 26.8887C12.5809 28.6573 14.1361 30 15.9999 30C17.359 30 18.5537 29.2856 19.2304 28.2132C19.6021 27.6245 19.8181 26.928 19.8181 26.1818C19.8181 24.9342 19.2164 23.8245 18.2881 23.1273H18.2882ZM16 28.4727C14.7368 28.4727 13.7091 27.445 13.7091 26.1818C13.7091 24.9186 14.7368 23.8909 16 23.8909C17.2632 23.8909 18.2909 24.9186 18.2909 26.1818C18.2909 27.445 17.2632 28.4727 16 28.4727Z" fill="currentcolor"/>
<path d="M28.4727 13.9636V18.2909H23.8909V13.7091H28.2182V12.1818H22.3636V19.8182H25.3524C24.6446 21.4576 23.5189 22.8755 22.1091 23.9362V25.7814C24.3421 24.4103 26.0828 22.3118 26.9976 19.8181H30V13.9635L28.4727 13.9636Z" fill="currentcolor"/>
<path d="M3.78182 18.2909V19.8182H9.63636V12.1818H6.48356C7.17402 10.3701 8.3658 8.804 9.89091 7.65638V5.81105C7.53764 7.25624 5.73215 9.50973 4.86287 12.1818H2V18.0364H3.52727V13.7091H8.10909V18.2909H3.78182Z" fill="currentcolor"/>
</svg>
