<svg width="32" height="32" viewBox="0 0 32 32" fill="none" xmlns="http://www.w3.org/2000/svg">
<path d="M12.5749 23.8971L12.2507 22.5998C12.1772 22.306 12.14 22.0035 12.14 21.7003V17.4483H10.2089V21.7003C10.2089 22.1612 10.2657 22.6215 10.3774 23.0682L10.7017 24.3654C10.9546 25.3766 10.7681 26.4543 10.19 27.3218C9.65426 28.1258 9.33757 29.0439 9.26177 30H11.2039C11.2734 29.4268 11.4735 28.8779 11.797 28.3925C12.676 27.0734 12.9596 25.4349 12.5751 23.8971H12.5749Z" fill="currentcolor"/>
<path d="M21.3023 24.3654L21.6265 23.0683C21.7383 22.6214 21.7949 22.1611 21.7949 21.7003V17.4483H19.8639V21.7003C19.8639 22.0033 19.8266 22.3062 19.7532 22.5999L19.4289 23.897C19.0444 25.4348 19.3281 27.0733 20.207 28.3924C20.5304 28.8778 20.7305 29.4268 20.8001 30H22.7422C22.6664 29.0439 22.3497 28.1258 21.8139 27.3218C21.2359 26.4543 21.0494 25.3766 21.3023 24.3654Z" fill="currentcolor"/>
<path d="M23.3218 12.3239C22.5829 11.9068 21.7606 11.6753 21.0026 11.6722H18.8986V11.0889L19.4193 10.5672C20.3288 9.65571 20.8296 8.44471 20.8296 7.15719V6.82759C20.8296 4.16566 18.664 2 16.002 2C13.3401 2 11.1745 4.16566 11.1745 6.82759V7.15719C11.1745 8.44471 11.6753 9.65583 12.5848 10.5672L13.1055 11.0889V11.6722H10.9934C10.2395 11.6753 9.41722 11.9068 8.67824 12.3239C7.21584 13.1494 6.34277 14.6553 6.34277 16.3521V30H8.27381V16.3521C8.27381 15.3463 8.76719 14.4911 9.62734 14.0055C10.0773 13.7516 10.578 13.6049 10.9974 13.6032H15.0364V10.2903L13.9517 9.20312C13.406 8.65628 13.1054 7.9296 13.1054 7.15707V6.82747C13.1054 5.23026 14.4047 3.93091 16.0019 3.93091C17.5991 3.93091 18.8985 5.23026 18.8985 6.82747V7.15707C18.8985 7.9296 18.598 8.65628 18.0522 9.20312L16.9674 10.2903V13.6032H20.9984C21.4217 13.605 21.9226 13.7516 22.3723 14.0055C23.2326 14.4911 23.7259 15.3463 23.7259 16.3521V30H25.657V16.3521C25.657 14.6553 24.7839 13.1494 23.3215 12.3239H23.3218Z" fill="currentcolor"/>
</svg>
