<svg width="32" height="32" viewBox="0 0 32 32" fill="none" xmlns="http://www.w3.org/2000/svg">
<path d="M12.0386 23.9092L11.7086 22.5892C11.6241 22.2514 11.5812 21.9034 11.5812 21.5547V17.2281H10.5988V21.5547C10.5988 21.9836 10.6515 22.4119 10.7555 22.8276L11.0855 24.1474C11.3761 25.3104 11.1617 26.5496 10.497 27.5472C10.0059 28.2844 9.71285 29.1245 9.63683 30H10.6259C10.6989 29.3194 10.9313 28.6669 11.3145 28.0918C12.1323 26.8645 12.3962 25.34 12.0384 23.909L12.0386 23.9092Z" fill="currentcolor"/>
<path d="M20.9188 24.1474L21.2488 22.8276C21.3528 22.4118 21.4055 21.9836 21.4055 21.5547V17.2281H20.423V21.5547C20.423 21.9032 20.3802 22.2513 20.2957 22.5892L19.9657 23.909C19.608 25.3399 19.8719 26.8645 20.6897 28.0918C21.0728 28.6669 21.3053 29.3194 21.3782 30H22.3673C22.2913 29.1245 21.9984 28.2844 21.5072 27.5472C20.8424 26.5496 20.628 25.3105 20.9187 24.1474H20.9188Z" fill="currentcolor"/>
<path d="M7.64737 16.1127C7.64737 14.9072 8.2404 13.8809 9.27455 13.2972C9.80311 12.9989 10.4 12.8265 10.91 12.8244H14.5286V10.1477L13.5682 9.18541C12.9204 8.53613 12.5637 7.67354 12.5637 6.75654V6.42116C12.5637 4.52515 14.1063 2.98257 16.0023 2.98257C17.8983 2.98257 19.4408 4.52515 19.4408 6.42116V6.75654C19.4408 7.67366 19.0841 8.53625 18.4363 9.18541L17.4759 10.1477V12.8244H21.0885C21.6006 12.8265 22.1975 12.9988 22.7259 13.2972C23.7599 13.8809 24.3531 14.9072 24.3531 16.1127V30H25.3356V16.1127C25.3356 14.5657 24.5405 13.1934 23.2089 12.4416C22.5288 12.0579 21.7772 11.8448 21.0905 11.842H18.4584V10.5541L19.1317 9.87926C19.9646 9.04467 20.4233 7.93561 20.4233 6.75642V6.42103C20.4233 3.9832 18.4401 2 16.0023 2C13.5644 2 11.5812 3.9832 11.5812 6.42103V6.75642C11.5812 7.93561 12.0399 9.04455 12.8728 9.87926L13.5461 10.5541V11.842H10.908C10.2234 11.8448 9.47178 12.0577 8.79168 12.4416C7.46009 13.1933 6.66504 14.5657 6.66504 16.1127V30H7.64749L7.64737 16.1127Z" fill="currentcolor"/>
</svg>
