<svg width="32" height="32" viewBox="0 0 32 32" fill="none" xmlns="http://www.w3.org/2000/svg">
<path d="M12.3094 23.903L11.9823 22.5946C11.9033 22.2789 11.8633 21.9539 11.8633 21.6282V17.3393H10.4024V21.6282C10.4024 22.0733 10.4572 22.5178 10.5651 22.9491L10.8922 24.2574C11.1638 25.3439 10.9634 26.5015 10.3424 27.4335C9.8288 28.2045 9.52385 29.0839 9.448 30H10.9177C10.9891 29.3737 11.2052 28.7734 11.5582 28.2436C12.4068 26.97 12.6806 25.388 12.3094 23.9031V23.903Z" fill="currentcolor"/>
<path d="M21.1124 24.2574L21.4395 22.949C21.5474 22.5175 21.602 22.0731 21.602 21.6281V17.3392H20.1412V21.6281C20.1412 21.9538 20.1011 22.2789 20.0223 22.5946L19.6951 23.903C19.324 25.3878 19.5977 26.9698 20.4464 28.2433C20.7994 28.7733 21.0155 29.3734 21.0868 29.9999H22.5566C22.4807 29.0838 22.1758 28.2043 21.6622 27.4333C21.0412 26.5014 20.8408 25.3438 21.1124 24.2574Z" fill="currentcolor"/>
<path d="M7.96378 16.2334C7.96378 15.1287 8.50649 14.1887 9.45287 13.6544C9.94177 13.3784 10.4902 13.2191 10.9544 13.2171H14.785V10.2196L13.7619 9.19432C13.1656 8.59684 12.8372 7.80274 12.8372 6.95861V6.62615C12.8372 4.88092 14.2571 3.46097 16.0024 3.46097C17.7476 3.46097 19.1675 4.88092 19.1675 6.62615V6.95861C19.1675 7.80286 18.8391 8.59684 18.2428 9.19432L17.2197 10.2196V13.2171H21.0433C21.5106 13.2191 22.059 13.3784 22.5478 13.6544C23.4942 14.1887 24.037 15.1287 24.037 16.2334V29.9999H25.4979V16.2334C25.4979 14.6109 24.6635 13.1712 23.2659 12.3823C22.5562 11.9816 21.7691 11.7593 21.0463 11.7563H18.6806V10.8238L19.2769 10.2262C20.1484 9.35283 20.6284 8.1923 20.6284 6.95849V6.62603C20.6284 4.07526 18.5531 2 16.0024 2C13.4516 2 11.3763 4.07526 11.3763 6.62603V6.95849C11.3763 8.1923 11.8562 9.3527 12.7279 10.2262L13.3241 10.8238V11.7563H10.9513C10.2318 11.7593 9.4446 11.9816 8.73474 12.3823C7.3372 13.1712 6.50293 14.6109 6.50293 16.2334V29.9999H7.96378V16.2334Z" fill="currentcolor"/>
</svg>
