<svg xmlns="http://www.w3.org/2000/svg" viewbox="0 0 75 32" fill="none"><path fill-rule="evenodd" clip-rule="evenodd" d="M.211 17.38c.904-2.593 6.05-3.686 13.557-2.782l1.454-5.345C7.794 8.309 2.37 9.37 1.466 12.75L.211 17.38Z" fill="#0095FF"/><path fill-rule="evenodd" clip-rule="evenodd" d="M27.322 11.82c-.904 2.594-6.048 3.681-13.554 2.778l-1.454 5.345c7.428.943 12.851-.118 13.755-3.498l1.253-4.625Z" fill="#0000C9"/><path fill-rule="evenodd" clip-rule="evenodd" d="M4.964 6.187c10.965.786 22.166 6.21 21.105 10.258l.983-3.616c.314-1.14.471-1.73.471-2.2 0-4.127-10.808-9.158-21.104-9.787L4.964 6.187Z" fill="#0095FF"/><path fill-rule="evenodd" clip-rule="evenodd" d="M22.571 23.008C11.606 22.222.405 16.798 1.466 12.751l-.982 3.615c-.314 1.14-.472 1.73-.472 2.201 0 4.127 10.808 9.157 21.105 9.786l1.454-5.345ZM62.548 15.732c.811 0 1.226.523 1.226 1.676 0 .11-.007.223-.02.343h-3.11c.337-1.213 1.06-2.019 1.904-2.019Zm.018 6.019c-1.387.018-2.126-.865-2.126-2.433 0-.103.003-.205.008-.306H65.9c.108-.415.18-.865.18-1.28 0-1.91-1.17-3.37-3.568-3.37-2.45 0-4.63 2.415-4.63 4.956 0 2.433 1.585 3.91 4.234 3.91 1.171 0 2.324-.396 3.135-1.009l-.504-1.261a3.755 3.755 0 0 1-2.18.793ZM34.636 16.886h-.985l1.36-5.01h1.031c1.304 0 2.036.883 2.036 2.055 0 1.874-1.47 2.955-3.442 2.955Zm6.343-3.064c0-1.982-1.55-3.423-3.892-3.423h-4.54l-3.424 12.613h2.865l1.261-4.649h2.487c2.847 0 5.243-1.838 5.243-4.54ZM44.712 14.597l.321-1.171c.163-.613.433-1.658.811-2.865.397-1.243 1.118-2.018 2.09-2.018.47 0 .757.216.757.576-.018.397-.342.631-.342 1.262 0 .738.63 1.315 1.442 1.315 1.009 0 1.82-.81 1.82-1.802 0-1.532-1.316-2.54-3.316-2.54-2.937 0-4.865 1.873-6.073 6.252l-4.9 17.821h2.774l4.236-15.442h2.886l-1.896 7.027h2.775l2.27-8.415h-5.655Z" fill="#0000C9"/><path fill-rule="evenodd" clip-rule="evenodd" d="M58.764 14.597h-7.351l-.36 1.388h3.558l-5.523 7.027h7.784l.36-1.387h-4.005l5.538-7.028ZM73.324 14.453c-.995 0-2.054.643-2.883 1.978l.486-1.834h-2.775l-2.27 8.415h2.775l1.027-3.784c.414-1.55 1.423-3.063 2.09-3.063.72 0 .45 1.351 1.694 1.351.9 0 1.442-.829 1.442-1.585 0-.883-.703-1.478-1.586-1.478Z" fill="#0000C9"/></svg>