<svg xmlns="http://www.w3.org/2000/svg" viewBox="0 0 181 64" fill="none">
  <path d="M0.399689 33.2516C0.467509 33.0567 0.547225 32.8659 0.638655 32.6795C2.99302 27.8778 13.1069 25.9067 27.6116 27.6562L30.5305 16.9099C15.6203 15.0135 4.7335 17.147 2.919 23.9424L0.399689 33.2516Z" fill="#0095FF"></path>
  <path d="M54.8195 22.0715C54.747 22.28 54.6609 22.4834 54.5615 22.6821C52.1724 27.4551 42.0774 29.4009 27.6115 27.6562L24.6925 38.4024C39.6027 40.2987 50.4896 38.1654 52.304 31.3699L54.8195 22.0715Z" fill="#0000C9"></path>
  <path d="M9.94003 10.7466C31.9504 12.3269 54.4341 23.2312 52.304 31.37L54.2763 24.1004C54.9074 21.809 55.2229 20.6237 55.2229 19.6755C55.2229 11.3788 33.5282 1.26459 12.859 0.000334806L9.94003 10.7466Z" fill="#0095FF"></path>
  <path d="M45.2828 44.5657C23.2724 42.9854 0.788781 32.0811 2.91879 23.9424L0.946561 31.2119C0.315439 33.5033 -0.00012207 34.6886 -0.00012207 35.6368C-0.00012207 43.9335 21.6946 54.0477 42.3638 55.312L45.2828 44.5657Z" fill="#0000C9"></path>
  <path d="M125.53 29.9377C127.157 29.9377 127.989 30.9884 127.989 33.3069C127.989 33.5265 127.975 33.7553 127.949 33.9954H121.707C122.384 31.5574 123.835 29.9377 125.53 29.9377ZM125.565 42.0381C122.78 42.0744 121.298 40.2991 121.298 37.1473C121.298 36.9391 121.303 36.7341 121.313 36.5313H132.257C132.474 35.6981 132.619 34.7923 132.619 33.9591C132.619 30.1189 130.268 27.1843 125.457 27.1843C120.538 27.1843 116.162 32.039 116.162 37.1473C116.162 42.0381 119.344 45.0089 124.661 45.0089C127.013 45.0089 129.327 44.2118 130.955 42.98L129.942 40.444C128.677 41.4222 127.121 42.0019 125.565 42.0381Z" fill="#0000C9"></path>
  <path d="M69.501 32.2563H67.522L70.2513 22.1848H72.3224C74.9397 22.1848 76.4097 23.96 76.4097 26.3149C76.4097 30.0827 73.4591 32.2563 69.501 32.2563ZM82.2331 26.0976C82.2331 22.1123 79.1224 19.2141 74.4202 19.2141H65.3053L58.4328 44.5741H64.184L66.7169 35.2272H71.7075C77.4224 35.2272 82.2331 31.5318 82.2331 26.0976Z" fill="#0000C9"></path>
  <path d="M89.7265 27.6553L90.3714 25.3004C90.6969 24.0686 91.2395 21.9674 91.9991 19.5401C92.7948 17.0403 94.2414 15.4824 96.1948 15.4824C97.1357 15.4824 97.7138 15.9172 97.7138 16.6417C97.6781 17.4388 97.0267 17.9097 97.0267 19.1778C97.0267 20.6631 98.2928 21.8225 99.92 21.8225C101.946 21.8225 103.574 20.1922 103.574 18.1995C103.574 15.1202 100.933 13.0914 96.9186 13.0914C91.0224 13.0914 87.1521 16.8591 84.7287 25.6627L74.8903 61.4929H80.4607L88.9627 30.4449H94.7566L90.9501 44.574H96.52L101.078 27.6553H89.7265Z" fill="#0000C9"></path>
  <path d="M117.933 27.6553H103.176L102.452 30.4449H109.595L98.51 44.574H114.136L114.858 41.7844H106.818L117.933 27.6553Z" fill="#0000C9"></path>
  <path d="M147.16 27.3654C145.163 27.3654 143.037 28.6574 141.373 31.3418L142.349 27.6553H136.778L132.221 44.574H137.791L139.853 36.9661C140.685 33.8503 142.711 30.8072 144.048 30.8072C145.495 30.8072 144.953 33.5243 147.448 33.5243C149.257 33.5243 150.343 31.8578 150.343 30.3362C150.343 28.5609 148.932 27.3654 147.16 27.3654Z" fill="#0000C9"></path>
  <path d="M95.7558 54.0555C94.264 54.0555 93.0362 55.767 93.0362 58.009C93.0362 59.5882 93.8185 60.4923 94.9859 60.4923C96.4542 60.4923 97.6819 58.7804 97.6819 56.5384C97.6819 54.9595 96.8988 54.0555 95.7558 54.0555ZM95.7079 52.8981C98.1387 52.8981 99.6671 54.5376 99.6671 56.7434C99.6671 59.335 97.6819 61.6493 95.0217 61.6493C92.5791 61.6493 91.0506 60.0101 91.0506 57.8041C91.0506 55.2125 93.0362 52.8981 95.7079 52.8981Z" fill="#0000C9"></path>
  <path d="M104.949 61.4927H103.132L103.36 60.6249C102.915 61.2275 102.265 61.6493 101.568 61.6493C100.569 61.6493 99.6662 60.9022 100.1 59.287L101.014 55.8636H102.867L101.892 59.4917C101.724 60.1427 101.977 60.5163 102.434 60.5163C103.024 60.5163 103.53 59.8895 103.757 59.0097L104.6 55.8636H106.453L104.949 61.4927Z" fill="#0000C9"></path>
  <path d="M108.559 61.6253C107.403 61.6253 106.73 61.0469 107.078 59.7329L107.86 56.7917H106.91L107.151 55.8637H108.113L108.451 54.5737L110.352 54.3687L109.955 55.8637H111.255L111.014 56.7917H109.702L108.847 59.9619C108.739 60.3597 108.884 60.625 109.305 60.625C109.498 60.625 109.714 60.5767 109.895 60.4923L110.075 61.2518C109.666 61.4807 109.112 61.6253 108.559 61.6253Z" fill="#0000C9"></path>
  <path d="M115.189 57.8764C115.189 57.0449 114.768 56.659 114.31 56.659C113.348 56.659 112.698 58.1899 112.698 59.4436C112.698 60.263 113.095 60.6849 113.589 60.6849C114.551 60.6849 115.189 59.142 115.189 57.8764ZM110.868 59.299C110.868 57.6595 112.024 55.6947 113.962 55.6947C114.756 55.6947 115.358 56.0563 115.635 56.7194L116.597 53.055H118.45L116.224 61.4927H114.395L114.588 60.7333C114.118 61.3841 113.504 61.6493 112.867 61.6493C111.662 61.6493 110.868 60.6849 110.868 59.299Z" fill="#0000C9"></path>
  <path d="M121.097 56.6711C120.17 56.6711 119.581 58.1176 119.581 59.4073C119.581 60.1427 119.857 60.673 120.496 60.673C121.423 60.673 122.012 59.2267 122.012 57.9367C122.012 57.1772 121.699 56.6711 121.097 56.6711ZM121.085 55.6947C122.818 55.6947 123.817 56.7917 123.817 58.3106C123.817 60.0342 122.481 61.6253 120.508 61.6493C118.775 61.6493 117.775 60.5527 117.775 59.0337C117.775 57.3099 119.112 55.7189 121.085 55.6947Z" fill="#0000C9"></path>
  <path d="M128.377 58.5396L126.704 53.0551H128.858L130.025 57.2136L133.372 53.0551H134.839L130.23 58.6842L129.484 61.4928H127.582L128.377 58.5396Z" fill="#0000C9"></path>
  <path d="M134.285 57.9851H136.427V57.8524C136.427 57.0569 136.15 56.659 135.584 56.659C134.958 56.659 134.477 57.2136 134.285 57.9851ZM132.384 59.0458C132.384 57.3099 133.683 55.707 135.572 55.707C137.161 55.707 138.04 56.683 138.04 58.0693C138.04 58.2983 137.992 58.6602 137.944 58.8891H134.201C134.189 60.1184 134.742 60.6489 135.62 60.6489C136.15 60.6489 136.656 60.444 137.053 60.1427L137.498 60.9622C136.957 61.3721 136.15 61.6493 135.272 61.6493C133.527 61.6493 132.384 60.6973 132.384 59.0458Z" fill="#0000C9"></path>
  <path d="M141.276 55.7189C142.311 55.7189 143.202 56.1288 143.707 56.659L142.949 57.4908C142.564 57.0449 141.926 56.671 141.301 56.671C140.783 56.671 140.445 56.9123 140.445 57.2739C140.445 58.1297 143.141 57.9007 143.141 59.6242C143.141 60.7452 142.155 61.6373 140.567 61.6373C139.507 61.6373 138.557 61.2637 138.063 60.6973L138.785 59.8412C139.17 60.3234 139.797 60.7212 140.506 60.7212C141.18 60.7212 141.481 60.4199 141.481 60.0824C141.481 59.2386 138.821 59.4676 138.821 57.7078C138.821 56.647 139.712 55.7189 141.276 55.7189Z" fill="#0000C9"></path>
  <path d="M145.776 61.6253C144.622 61.6253 143.947 61.0469 144.297 59.7329L145.079 56.7917H144.128L144.369 55.8637H145.332L145.668 54.5737L147.57 54.3687L147.173 55.8637H148.472L148.232 56.7917H146.92L146.066 59.9619C145.957 60.3597 146.102 60.625 146.523 60.625C146.715 60.625 146.932 60.5767 147.113 60.4923L147.293 61.2518C146.884 61.4807 146.33 61.6253 145.776 61.6253Z" fill="#0000C9"></path>
  <path d="M150.024 57.9851H152.166V57.8524C152.166 57.0569 151.89 56.659 151.324 56.659C150.698 56.659 150.217 57.2136 150.024 57.9851ZM148.122 59.0458C148.122 57.3099 149.423 55.707 151.312 55.707C152.901 55.707 153.779 56.683 153.779 58.0693C153.779 58.2983 153.731 58.6602 153.683 58.8891H149.94C149.928 60.1184 150.482 60.6489 151.36 60.6489C151.89 60.6489 152.395 60.444 152.792 60.1427L153.237 60.9622C152.696 61.3721 151.89 61.6493 151.011 61.6493C149.266 61.6493 148.122 60.6973 148.122 59.0458Z" fill="#0000C9"></path>
  <path d="M159.867 56.6711C159.867 57.1772 159.458 57.7078 158.893 57.7078C158.182 57.7078 158.171 57.0086 157.737 57.0086C157.329 57.0086 156.726 57.7318 156.45 58.7804L155.739 61.4927H153.886L155.402 55.8637H157.255L156.954 56.9726C157.52 56.0442 158.171 55.743 158.808 55.743C159.542 55.743 159.867 56.1769 159.867 56.6711Z" fill="#0000C9"></path>
  <path d="M164.127 57.8764C164.127 57.0449 163.706 56.659 163.248 56.659C162.285 56.659 161.636 58.1899 161.636 59.4436C161.636 60.263 162.032 60.6849 162.526 60.6849C163.488 60.6849 164.127 59.142 164.127 57.8764ZM159.806 59.299C159.806 57.6595 160.962 55.6947 162.899 55.6947C163.693 55.6947 164.295 56.0563 164.572 56.7194L165.535 53.055H167.388L165.162 61.4927H163.332L163.525 60.7333C163.055 61.3841 162.442 61.6493 161.804 61.6493C160.601 61.6493 159.806 60.6849 159.806 59.299Z" fill="#0000C9"></path>
  <path d="M171.01 57.8764C171.01 57.0449 170.588 56.659 170.131 56.659C169.169 56.659 168.519 58.1899 168.519 59.4436C168.519 60.263 168.916 60.6849 169.409 60.6849C170.372 60.6849 171.01 59.142 171.01 57.8764ZM166.689 59.299C166.689 57.6595 167.845 55.6947 169.783 55.6947C170.493 55.6947 171.167 55.9719 171.467 56.7074L171.696 55.8636H173.549L172.045 61.4927H170.24L170.456 60.6849C169.975 61.3721 169.35 61.6493 168.687 61.6493C167.484 61.6493 166.689 60.6849 166.689 59.299Z" fill="#0000C9"></path>
  <path d="M172.043 63.6384L172.597 62.6741C172.802 62.867 173.091 62.9994 173.439 62.9994C173.873 62.9994 174.414 62.8427 175.028 61.9026L174.126 55.8637H176.087L176.532 59.7329L179.072 55.8637H180.48L176.063 62.3606C175.245 63.5661 174.391 64 173.368 64C172.753 64 172.309 63.8311 172.043 63.6384Z" fill="#0000C9"></path>
</svg>