<svg width="32" height="32" viewBox="0 0 32 32" fill="none" xmlns="http://www.w3.org/2000/svg">
<path d="M28.4176 14.8512C27.9331 14.5407 27.3158 14.4284 26.7246 14.542C26.1191 14.659 25.5934 15.005 25.2813 15.4923L21.9868 20.6694H18.5534C18.721 20.3803 18.8171 20.0444 18.8171 19.6867C18.8171 18.6031 17.9354 17.7214 16.8517 17.7214H7.80404L2.61621 22.9092V24.2988L8.21111 18.7041H16.8517C17.3935 18.7041 17.8344 19.1449 17.8344 19.6867C17.8344 20.2286 17.3935 20.6694 16.8517 20.6694H13.4123V21.6521H22.5261L26.1096 16.021C26.2765 15.7603 26.5685 15.573 26.9109 15.5068C27.2568 15.4401 27.6128 15.5024 27.8874 15.6783C28.4025 16.0084 28.5637 16.8813 28.2204 17.4722L23.4493 25.5827H7.80404L3.38688 30H4.77652L8.21124 26.5654H24.0117L29.0688 17.9682C29.6779 16.9203 29.3737 15.4634 28.4178 14.851L28.4176 14.8512Z" fill="currentcolor"/>
<path d="M15.4958 6.47767L14.801 7.17245L17.5806 9.95198L18.2754 9.2572L15.4958 6.47767Z" fill="currentcolor"/>
<path d="M17.5763 3.70072C18.5342 2.74285 20.0926 2.74285 21.0507 3.70072C22.0085 4.65859 22.0085 6.21724 21.0507 7.17511L18.9661 9.25975L19.6608 9.95451L21.7455 7.86987C23.0865 6.52888 23.0863 4.34683 21.7455 3.00584C20.4046 1.66472 18.2224 1.66472 16.8816 3.00584L14.7969 5.09047L15.4917 5.78523L17.5763 3.70072Z" fill="currentcolor"/>
<path d="M13.4072 14.7838C14.3259 14.7838 15.1896 14.426 15.8392 13.7763L18.2712 11.3443L17.5764 10.6495L15.1444 13.0815C14.6805 13.5455 14.0635 13.8011 13.4072 13.8011C12.7509 13.8011 12.1341 13.5455 11.6699 13.0815C11.206 12.6176 10.9505 12.0006 10.9505 11.3443C10.9505 10.688 11.2061 10.0712 11.67 9.60701L14.102 7.17499L13.4073 6.48023L10.9753 8.91225C10.3256 9.5618 9.96778 10.4256 9.96778 11.3443C9.96778 12.263 10.3256 13.1267 10.9753 13.7763C11.6248 14.426 12.4885 14.7838 13.4072 14.7838Z" fill="currentcolor"/>
</svg>
