<svg width="32" height="32" viewBox="0 0 32 32" fill="none" xmlns="http://www.w3.org/2000/svg">
<path d="M26.3965 15.6598L25.6788 14.9422C28.0532 12.5676 28.0532 8.70414 25.6788 6.32955C24.5285 5.17942 22.9991 4.54581 21.3725 4.54581C19.7458 4.54581 18.2165 5.17929 17.0662 6.32955L16.3485 5.61194C17.6904 4.26998 19.4747 3.53093 21.3725 3.53093C23.2703 3.53093 25.0545 4.26998 26.3965 5.61194C29.1666 8.38213 29.1666 12.8896 26.3965 15.6598Z" fill="currentcolor"/>
<path d="M23.5002 13.5321L22.7824 12.8145C23.7718 11.825 23.7718 10.2152 22.7824 9.22586C21.7931 8.23648 20.1834 8.23686 19.1939 9.22586L18.4763 8.50825C19.8614 7.12328 22.1151 7.12302 23.5002 8.50825C24.8853 9.89335 24.8853 12.147 23.5002 13.5321Z" fill="currentcolor"/>
<path d="M23.3682 17.2333H21.9357L18.704 20.4648C18.4164 20.7523 18.0341 20.9107 17.6275 20.9107C17.2209 20.9107 16.8385 20.7523 16.551 20.4647L11.5282 15.4415C11.2406 15.1539 11.0823 14.7716 11.0824 14.3649C11.0824 13.9583 11.2409 13.5759 11.5284 13.2884L14.775 10.042V8.64007L8.14383 2.0083H7.01756L6.04417 2.9756C3.44208 5.56132 2.00585 9.00535 2.00002 12.6737C1.99418 16.342 3.4195 19.7908 6.01334 22.3846L9.60695 25.9782C12.196 28.5671 15.6353 29.9915 19.2951 29.9915H19.3302C23.0031 29.9824 26.4489 28.5401 29.0331 25.9301L30 24.9538V23.8657L23.3682 17.2333ZM28.3118 25.216C25.9191 27.6325 22.7284 28.968 19.3276 28.9765H19.2951C15.9066 28.9765 12.7216 27.6575 10.3247 25.2606L6.73107 21.667C4.32932 19.2651 3.00956 16.0718 3.01489 12.6753C3.02022 9.27889 4.35013 6.08988 6.75949 3.69574L7.58012 2.88031L14.0404 9.34119L10.8105 12.5708C10.3312 13.05 10.0673 13.6872 10.0673 14.3651C10.0673 15.0428 10.3312 15.68 10.8104 16.1593L15.8331 21.1826C16.3123 21.6619 16.9496 21.9258 17.6274 21.9258C18.305 21.9258 18.9423 21.6619 19.4215 21.1827L22.6518 17.9528L29.1092 24.4108L28.3117 25.2162L28.3118 25.216Z" fill="currentcolor"/>
</svg>
