<svg width="32" height="32" viewBox="0 0 32 32" fill="none" xmlns="http://www.w3.org/2000/svg">
<g clip-path="url(#clip0_297_2265)">
<rect width="32" height="32" fill="#CACACA"/>
<path d="M9.10763 29.6914L1.18803 21.7718L6.67518 16.2846L7.93101 17.5404L3.92595 21.5455L6.00767 23.6272L9.79777 19.8371L11.0536 21.0929L7.2635 24.883L10.5897 28.2093L9.10763 29.6914ZM15.803 22.9959L7.88345 15.0763L11.2097 11.7501C12.8615 10.0983 14.8074 9.55526 16.4819 11.2297C18.2016 12.9494 17.5567 14.9066 15.9614 16.5019L14.1173 18.346L17.2851 21.5138L15.803 22.9959ZM14.7056 15.2461C15.656 14.2957 15.6447 13.4472 14.9545 12.757C14.2644 12.0669 13.4385 12.033 12.4655 13.0059L10.6214 14.8501L12.8615 17.0902L14.7056 15.2461ZM26.7602 12.4461C24.5427 14.6636 21.3749 14.822 18.7162 12.1632C16.1706 9.61766 16.2158 6.33668 18.4333 4.1192C20.6508 1.90171 23.9997 1.85645 26.5113 4.3681C29.1587 7.0155 28.9777 10.2286 26.7602 12.4461ZM25.5044 11.1903C26.9073 9.78736 26.8507 7.76221 24.9839 5.89545C23.2077 4.1192 21.1033 3.9608 19.6891 5.37502C18.2749 6.78923 18.4446 8.83701 20.2435 10.6359C22.0876 12.48 24.1015 12.5932 25.5044 11.1903Z" fill="white"/>
</g>
<defs>
<clipPath id="clip0_297_2265">
<rect width="32" height="32" fill="white"/>
</clipPath>
</defs>
</svg>
