<svg xmlns="http://www.w3.org/2000/svg" width="40" height="40" viewBox="0 0 40 40" fill="none">
<path d="M20.017 38.5879C9.76437 38.5879 1.42328 30.2468 1.42328 19.9941C1.42328 9.74148 9.76437 1.40039 20.017 1.40039C30.2697 1.40039 38.6108 9.74148 38.6108 19.9941C38.6108 30.2468 30.2697 38.5879 20.017 38.5879ZM20.017 3.58789C10.9706 3.58789 3.61078 10.9477 3.61078 19.9941C3.61078 29.0405 10.9706 36.4004 20.017 36.4004C29.0634 36.4004 36.4233 29.0405 36.4233 19.9941C36.4233 10.9477 29.0636 3.58789 20.017 3.58789Z" fill="currentcolor"/>
<path d="M21.0937 7.50023H18.9062V18.7502H21.0937V7.50023Z" fill="currentcolor"/>
<path d="M32.5 18.9065H21.25V21.094H32.5V18.9065Z" fill="currentcolor"/>
<path d="M21.0937 21.2502H18.9062V32.5002H21.0937V21.2502Z" fill="currentcolor"/>
<path d="M18.75 18.9065H7.5V21.094H18.75V18.9065Z" fill="currentcolor"/>
</svg>