<svg width="32" height="32" viewBox="0 0 32 32" fill="none" xmlns="http://www.w3.org/2000/svg">
<path d="M17.2376 23.8053L19.0741 21.9771L18.3424 21.2421L16.5041 23.0719L14.0986 20.6667H15.0785C15.3884 20.6667 15.6845 20.6092 15.9604 20.5089C16.3829 20.3553 16.7546 20.0962 17.0426 19.7615C17.4333 19.3075 17.6712 18.7185 17.6712 18.0739C17.6712 16.6444 16.5082 15.4814 15.0786 15.4814H12.3675V23.2635H13.4046V21.439L15.7694 23.8036L13.9328 25.6319L14.6644 26.3669L16.5027 24.5369L18.342 26.3761L19.0752 25.6428L17.2376 23.8053ZM13.4046 16.5185H15.0786C15.9364 16.5185 16.6342 17.2163 16.6342 18.0741C16.6342 18.9318 15.9364 19.6296 15.0786 19.6296H13.4046V16.5185Z" fill="currentcolor"/>
<path d="M27.9231 15.941L26.2637 8.74074H25.1994L26.7529 15.4815H22.2234V16.5185H26.8862L26.8889 28.963H5.11126V16.5185H9.77896V15.4815H5.24452L6.79942 8.74074H5.73516L4.07422 15.941V30H27.9262L27.9231 15.941Z" fill="currentcolor"/>
<path d="M26.889 7.18518V2H5.11126V7.18518H26.889ZM6.14829 3.03704H25.852V6.14815H6.14829V3.03704Z" fill="currentcolor"/>
</svg>
