<svg width="32" height="32" viewBox="0 0 32 32" fill="none" xmlns="http://www.w3.org/2000/svg">
<path d="M27 9H25V28H7V4H20V2H5V30H27V9Z" fill="currentcolor"/>
<path d="M20 9H25V6.0875L22.9125 4H20V9ZM22 5.9125L23.0875 7H22V5.9125Z" fill="currentcolor"/>
<path d="M15.0625 23.35L16.4875 21.9375L17.9125 23.3625L19.325 21.95L17.9125 20.5375L19.325 19.125L17.9125 17.7125L16.4875 19.125L15.3625 18C16.9 17.875 18.1125 16.575 18.1125 15.0125C18.1125 13.3625 16.7625 12.0125 15.1125 12.0125H12V20.0125H14V19.4625L15.075 20.5375L13.6625 21.95L15.0625 23.35ZM14 14H15.1125C15.6625 14 16.1125 14.45 16.1125 15C16.1125 15.55 15.6625 16 15.1125 16H14V14Z" fill="currentcolor"/>
</svg>
