<svg width="32" height="32" viewBox="0 0 32 32" fill="none" xmlns="http://www.w3.org/2000/svg">
<path d="M25.5374 21.7254H6.46245V8.36829L15.0462 8.37342V10.2803H25.5374V21.7254ZM8.36995 19.8179H23.6299V12.1879H13.1387V10.2798L8.36995 10.277V19.8179Z" fill="currentcolor"/>
<path d="M16.5735 5.51098L17.9074 4.44314V2L14.5693 4.67169V6.35147L17.9074 9.01755V6.57644L16.5735 5.51098Z" fill="currentcolor"/>
<path d="M15.0462 22.9824V25.4257L16.3801 26.4934L15.0462 27.5589V30L18.3843 27.3338V25.6542L15.0462 22.9824Z" fill="currentcolor"/>
<path d="M2.64746 27.4482V4.55795H12.6618V6.46545H4.55496V25.54L13.1411 25.5363L13.1417 27.4438L2.64746 27.4482Z" fill="currentcolor"/>
<path d="M29.3524 27.4479H20.2918V25.5404H27.4449V6.46545H19.8149V4.55795H29.3524V27.4479Z" fill="currentcolor"/>
</svg>
