<svg width="32" height="32" viewBox="0 0 32 32" fill="none" xmlns="http://www.w3.org/2000/svg">
<path d="M9 24.5C10.3785 24.5 11.5 23.3785 11.5 22C11.5 20.6215 10.3785 19.5 9 19.5C7.6215 19.5 6.5 20.6215 6.5 22C6.5 23.3785 7.6215 24.5 9 24.5ZM9 20.5C9.82713 20.5 10.5 21.1729 10.5 22C10.5 22.8271 9.82713 23.5 9 23.5C8.17287 23.5 7.5 22.8271 7.5 22C7.5 21.1729 8.17287 20.5 9 20.5Z" fill="currentcolor"/>
<path d="M25.5 22C25.5 20.6215 24.3785 19.5 23 19.5C21.6215 19.5 20.5 20.6215 20.5 22C20.5 23.3785 21.6215 24.5 23 24.5C24.3785 24.5 25.5 23.3785 25.5 22ZM23 20.5C23.8271 20.5 24.5 21.1729 24.5 22C24.5 22.8271 23.8271 23.5 23 23.5C22.1729 23.5 21.5 22.8271 21.5 22C21.5 21.1729 22.1729 20.5 23 20.5Z" fill="currentcolor"/>
<path d="M29.5 2H28.5V12C28.5 13.3785 27.3785 14.5 26 14.5H21.5L17.5 19.8334V30H18.5V20.1666L22 15.5H26C27.9299 15.5 29.5 13.9299 29.5 12V2Z" fill="currentcolor"/>
<path d="M12.5 6.5H19.5C21.7056 6.5 23.5 8.29437 23.5 10.5C23.5 10.9554 23.4231 11.4039 23.2712 11.8334L23.0356 12.5H25.75C26.1636 12.5 26.5 12.1636 26.5 11.75V2H25.5V11.5H24.3991C24.4661 11.1718 24.5 10.8374 24.5 10.5C24.5 7.743 22.257 5.5 19.5 5.5H12.5C9.743 5.5 7.5 7.743 7.5 10.5C7.5 10.8374 7.53387 11.1718 7.60087 11.5H6.5V2H5.5V11.75C5.5 12.1636 5.83637 12.5 6.25 12.5H8.96437L8.72875 11.8334C8.57688 11.4039 8.5 10.9554 8.5 10.5C8.5 8.29437 10.2944 6.5 12.5 6.5Z" fill="currentcolor"/>
<path d="M6 15.5H10L13.5 20.1666V30H14.5V19.8334L10.5 14.5H6C4.6215 14.5 3.5 13.3785 3.5 12V2H2.5V12C2.5 13.9299 4.07012 15.5 6 15.5Z" fill="currentcolor"/>
</svg>
