<svg width="32" height="32" viewBox="0 0 32 32" fill="none" xmlns="http://www.w3.org/2000/svg">
<path d="M19.654 14.9186V9.66344C19.6552 9.26969 19.9757 8.94977 20.3701 8.94977C20.7644 8.94977 21.0857 9.27076 21.0857 9.66547V12.0558H22.5171V9.66547C22.5171 8.48158 21.5539 7.51837 20.3697 7.51837C20.1185 7.51837 19.8784 7.56394 19.6541 7.64362V5.84376C19.6541 4.65988 18.6911 3.69667 17.5069 3.69667C17.1644 3.69667 16.8417 3.77933 16.5542 3.92247C16.198 3.22848 15.4765 2.75171 14.6441 2.75171C13.4603 2.75171 12.4971 3.71492 12.4971 4.8988V5.73044C12.2729 5.65076 12.0326 5.60508 11.7813 5.60508C11.2078 5.60508 10.6686 5.82837 10.2631 6.23394C9.85753 6.63938 9.63423 7.17866 9.63423 7.75217L9.63458 16.6107L5.65531 12.9085C5.25094 12.5093 4.71595 12.2897 4.14721 12.2897C3.5737 12.2897 3.03454 12.513 2.62898 12.9184C2.22342 13.3239 2 13.8632 2 14.4367C2 15.0102 2.2233 15.5495 2.63315 15.9593L9.63447 22.8434L9.63411 29.2325H11.0655L11.0659 22.2434L3.64098 14.9429C3.50583 14.8076 3.4314 14.6279 3.4314 14.4368C3.4314 14.2457 3.50583 14.0659 3.64109 13.9307C3.77624 13.7955 3.956 13.7211 4.14721 13.7211C4.33842 13.7211 4.51806 13.7955 4.65321 13.9307L9.81721 18.7356H11.0655L11.0656 7.75229C11.0656 7.56108 11.1401 7.38144 11.2752 7.24629C11.4104 7.11102 11.5901 7.03659 11.7813 7.03659C12.176 7.03659 12.497 7.35758 12.497 7.75217L12.4974 14.9186H13.9288L13.9284 4.8988C13.9284 4.50409 14.2494 4.1831 14.6443 4.1831C15.0393 4.1831 15.3598 4.50409 15.3598 4.8988V14.9186H16.7912V5.84376C16.7912 5.44905 17.1122 5.12806 17.5071 5.12806C17.9021 5.12806 18.2226 5.44905 18.2226 5.84376V9.66344C18.2226 9.66415 18.2225 9.66475 18.2225 9.66547V14.9186H19.654Z" fill="currentcolor"/>
<path d="M21.0854 23.0298C21.0854 24.0911 20.4767 24.6998 19.4154 24.6998H18.9383V26.1312H19.4154C19.6658 26.1312 19.9045 26.1078 20.1311 26.0639V29.2325H21.5625V25.3701C22.167 24.8239 22.5168 24.0122 22.5168 23.0298V21.5984H21.0854V23.0298Z" fill="currentcolor"/>
<path d="M25.4094 16.8477H23.978V29.2485H25.4094V16.8477Z" fill="currentcolor"/>
<path d="M24.6937 13.561L21.4116 16.8431H19.3874L24.1587 12.0718H25.2287L30 16.8431H27.9758L24.6937 13.561Z" fill="currentcolor"/>
</svg>
