<svg width="32" height="32" viewBox="0 0 32 32" fill="none" xmlns="http://www.w3.org/2000/svg">
<path d="M16 29.0345C8.81269 29.0345 2.96552 23.1873 2.96552 16C2.96552 15.0047 3.07812 14.0354 3.29041 13.1034H2.30209C2.10464 14.0384 2 15.0071 2 16C2 23.7197 8.28033 30 16 30C20.2142 30 23.9994 28.1282 26.5682 25.1724H25.2516C22.8882 27.5559 19.6137 29.0345 16 29.0345Z" fill="currentcolor"/>
<path d="M16 2.96552C23.1873 2.96552 29.0345 8.81269 29.0345 16C29.0345 16.9953 28.9219 17.9646 28.7096 18.8966H29.6979C29.8954 17.9616 30 16.9929 30 16C30 8.28033 23.7197 2 16 2C11.7858 2 8.00057 3.87178 5.43181 6.82759H6.74841C9.11176 4.44409 12.3863 2.96552 16 2.96552Z" fill="currentcolor"/>
<path d="M7.7931 10.6897V9.72414H3.44828V5.37931H2.48276V10.6897H7.7931Z" fill="currentcolor"/>
<path d="M24.2069 21.3103V22.2759H28.5517V26.6207H29.5172V21.3103H24.2069Z" fill="currentcolor"/>
</svg>
