<svg width="32" height="32" viewBox="0 0 32 32" fill="none" xmlns="http://www.w3.org/2000/svg">
<path d="M15.0345 9.60188V11.6505H16.9655V9.60188C18.6294 9.1721 19.8621 7.65829 19.8621 5.86207C19.8621 3.7325 18.1296 2 16 2C13.8705 2 12.138 3.7325 12.138 5.86207C12.138 7.65841 13.3707 9.1721 15.0345 9.60188ZM16 3.93103C17.0647 3.93103 17.9311 4.79734 17.9311 5.86207C17.9311 6.92679 17.0647 7.7931 16 7.7931C14.9353 7.7931 14.069 6.92679 14.069 5.86207C14.069 4.79734 14.9353 3.93103 16 3.93103Z" fill="currentcolor"/>
<path d="M27.5862 28.069H4.41382V30H27.5862V28.069Z" fill="currentcolor"/>
<path d="M9.2414 17.4483H12.138V26.1379H14.069V17.4483H12.1389V15.5172H14.069V13.5862H15.0345V11.6552H12.138V15.5172H7.31037V26.1379H9.2414V17.4483Z" fill="currentcolor"/>
<path d="M22.7586 26.1379H24.6897V15.5172H19.8631V17.4483H22.7586V26.1379Z" fill="currentcolor"/>
<path d="M19.8621 11.6552H16.9655V13.5862H17.9311V15.5172H19.8621V11.6552Z" fill="currentcolor"/>
<path d="M17.9311 17.4483V26.1379H19.8621V17.4483H17.9311Z" fill="currentcolor"/>
</svg>
