<svg width="32" height="32" viewBox="0 0 32 32" fill="none" xmlns="http://www.w3.org/2000/svg">
<path d="M15.5 8.96375V11.4951H16.5V8.96375C18.1939 8.72038 19.5 7.26013 19.5 5.5C19.5 3.57012 17.9299 2 16 2C14.0701 2 12.5 3.57012 12.5 5.5C12.5 7.26013 13.8061 8.72038 15.5 8.96375ZM16 3C17.3785 3 18.5 4.1215 18.5 5.5C18.5 6.8785 17.3785 8 16 8C14.6215 8 13.5 6.8785 13.5 5.5C13.5 4.1215 14.6215 3 16 3Z" fill="currentcolor"/>
<path d="M8.5 17H12.001V16H7.5V26.5H8.5V17Z" fill="currentcolor"/>
<path d="M23.5 26.5H24.5V16H20.001V17H23.5V26.5Z" fill="currentcolor"/>
<path d="M28 29H4V30H28V29Z" fill="currentcolor"/>
<path d="M13.5 17.5H12.5V26.5H13.5V17.5Z" fill="currentcolor"/>
<path d="M19.5 12H17V13H18.5V15.5H19.5V12Z" fill="currentcolor"/>
<path d="M19.5 17.5H18.5V26.5H19.5V17.5Z" fill="currentcolor"/>
<path d="M13.5 13H15V12H12.5V15.5H13.5V13Z" fill="currentcolor"/>
</svg>
