<svg width="32" height="32" viewBox="0 0 32 32" fill="none" xmlns="http://www.w3.org/2000/svg">
<path d="M15.2631 9.29425V11.5742H16.7368V9.29425C18.4164 8.95198 19.6841 7.46332 19.6841 5.68421C19.6841 3.65274 18.0314 2 15.9999 2C13.9684 2 12.3157 3.65274 12.3157 5.68421C12.3157 7.46344 13.5834 8.95198 15.2631 9.29425ZM15.9999 3.47368C17.2188 3.47368 18.2104 4.46535 18.2104 5.68421C18.2104 6.90307 17.2188 7.89474 15.9999 7.89474C14.7811 7.89474 13.7894 6.90307 13.7894 5.68421C13.7894 4.46535 14.7811 3.47368 15.9999 3.47368Z" fill="currentcolor"/>
<path d="M8.87712 17.2281H12.0711V15.7544H7.40343V26.3158H8.87712V17.2281Z" fill="currentcolor"/>
<path d="M23.1227 26.3158H24.5964V15.7544H19.9307V17.2281H23.1227V26.3158Z" fill="currentcolor"/>
<path d="M27.7894 28.5263H4.21045V30H27.7894V28.5263Z" fill="currentcolor"/>
<path d="M19.6841 17.4737H18.2104V26.3158H19.6841V17.4737Z" fill="currentcolor"/>
<path d="M13.7894 17.4737H12.3157V26.3158H13.7894V17.4737Z" fill="currentcolor"/>
<path d="M13.7894 13.2982H15.0175V11.8246H12.3157V15.5088H13.7894V13.2982Z" fill="currentcolor"/>
<path d="M19.6841 11.8246H16.9824V13.2982H18.2104V15.5088H19.6841V11.8246Z" fill="currentcolor"/>
</svg>
