<svg width="32" height="32" viewBox="0 0 32 32" fill="none" xmlns="http://www.w3.org/2000/svg">
<path d="M16.4999 9H15.4999V15H16.4999V9Z" fill="currentcolor"/>
<path d="M16.4999 17H15.4999V23H16.4999V17Z" fill="currentcolor"/>
<path d="M22.9999 15.5H16.9999V16.5H22.9999V15.5Z" fill="currentcolor"/>
<path d="M14.9999 15.5H8.99988V16.5H14.9999V15.5Z" fill="currentcolor"/>
<path d="M25.9851 4.49988C22.8143 4.49988 19.7011 3.63762 16.9822 2.0065L16.9715 2H15.0284L15.0176 2.0065C12.2987 3.63762 9.18563 4.49988 6.01475 4.49988H3.5V13C3.5 20.4281 7.89413 27.0785 14.7093 30H17.2907C24.1059 27.0785 28.5 20.4281 28.5 13V4.49988H25.9851ZM27.4999 13C27.4999 20.0872 23.2728 26.428 16.7308 29.1539L15.9999 29.4584L15.269 29.1539C8.727 26.428 4.49988 20.0872 4.49988 13V5.49988H6.01463C9.36662 5.49988 12.6578 4.58838 15.532 2.864L15.9999 2.58325L16.4677 2.864C19.342 4.58838 22.633 5.49988 25.9851 5.49988H27.4999V13Z" fill="currentcolor"/>
</svg>
