<svg width="32" height="32" viewBox="0 0 32 32" fill="none" xmlns="http://www.w3.org/2000/svg">
<path d="M16 30C8.28036 30 2 23.7196 2 16C2 8.28036 8.28036 2 16 2C23.7196 2 30 8.28036 30 16C30 23.7196 23.7196 30 16 30ZM16 2.96337C8.81154 2.96337 2.96337 8.81154 2.96337 16C2.96337 23.1885 8.81154 29.0366 16 29.0366C23.1885 29.0366 29.0366 23.1885 29.0366 16C29.0366 8.81154 23.1885 2.96337 16 2.96337Z" fill="currentcolor"/>
<path d="M13.5916 16.4817H15.0365V15.5183H13.5916C11.9979 15.5183 10.7014 14.2217 10.7014 12.6282C10.7014 11.0346 11.9979 9.73807 13.5916 9.73807H15.5183V15.0319H16.4817V9.73807H21.2986V8.77469H16.4817V6.36625H15.5183V8.77469H13.5916C11.4667 8.77469 9.73807 10.5033 9.73807 12.6282C9.73807 14.753 11.4667 16.4817 13.5916 16.4817Z" fill="currentcolor"/>
<path d="M18.4084 15.5183H16.9633V16.4817H18.4084C20.0021 16.4817 21.2986 17.7783 21.2986 19.3718C21.2986 20.9654 20.0021 22.2619 18.4084 22.2619H16.4817V16.9587H15.5183V22.2619H10.7014V23.2253H15.5183V25.6337H16.4817V23.2253H18.4084C20.5333 23.2253 22.2619 21.4967 22.2619 19.3718C22.2619 17.247 20.5333 15.5183 18.4084 15.5183Z" fill="currentcolor"/>
</svg>
