<svg width="32" height="32" viewBox="0 0 32 32" fill="none" xmlns="http://www.w3.org/2000/svg">
<path d="M16 2C8.28034 2 2 8.28034 2 16C2 23.7197 8.28034 30 16 30C23.7197 30 30 23.7197 30 16C30 8.28034 23.7197 2 16 2ZM16 28.5794C9.06369 28.5794 3.42062 22.9363 3.42062 16C3.42062 9.06369 9.06369 3.42062 16 3.42062C22.9363 3.42062 28.5794 9.06369 28.5794 16C28.5794 22.9363 22.9363 28.5794 16 28.5794Z" fill="currentcolor"/>
<path d="M15.0528 16.7103V15.2897H13.6323C12.1962 15.2897 11.0278 14.1213 11.0278 12.6852C11.0278 11.2491 12.1962 10.0807 13.6323 10.0807H15.2897V15.0483H16.7103V10.0807H21.209V8.66012H16.7103V6.52918H15.2897V8.66012H13.6323C11.4128 8.66012 9.6072 10.4657 9.6072 12.6852C9.6072 14.9047 11.4128 16.7103 13.6323 16.7103H15.0528Z" fill="currentcolor"/>
<path d="M18.3677 15.2897H16.947V16.7103H18.3677C19.8038 16.7103 20.9722 17.8787 20.9722 19.3148C20.9722 20.7509 19.8038 21.9193 18.3677 21.9193H16.7103V16.9425H15.2897V21.9193H10.7911V23.3399H15.2897V25.4708H16.7103V23.3399H18.3677C20.5872 23.3399 22.3928 21.5343 22.3928 19.3148C22.3928 17.0953 20.5872 15.2897 18.3677 15.2897Z" fill="currentcolor"/>
</svg>
