<svg width="32" height="32" viewBox="0 0 32 32" fill="none" xmlns="http://www.w3.org/2000/svg">
<path d="M16 30C8.2804 30 2 23.7196 2 16C2 8.2804 8.2804 2 16 2C23.7196 2 30 8.2804 30 16C30 23.7196 23.7196 30 16 30ZM16 3.80647C9.2765 3.80647 3.80635 9.2765 3.80635 16C3.80635 22.7235 9.27638 28.1935 16 28.1935C22.7236 28.1935 28.1936 22.7235 28.1936 16C28.1936 9.2765 22.7235 3.80647 16 3.80647Z" fill="currentcolor"/>
<path d="M18.3333 15.0667H16.9333V10.4H21.1333V8.53333H16.9333V6.66667H15.0667V8.53333H13.6667C11.3507 8.53333 9.46667 10.4174 9.46667 12.7333C9.46667 15.0493 11.3507 16.9333 13.6667 16.9333H15.0667V21.6H10.8667V23.4667H15.0667V25.3333H16.9333V23.4667H18.3333C20.6493 23.4667 22.5333 21.5826 22.5333 19.2667C22.5333 16.9507 20.6493 15.0667 18.3333 15.0667ZM16.9332 16.9288H15.0666V15.0667H13.6667C12.3801 15.0667 11.3333 14.0199 11.3333 12.7333C11.3333 11.4467 12.3801 10.4 13.6667 10.4H15.0667V15.0621H16.9332V16.9288ZM18.3333 21.6H16.9333V16.9333H18.3333C19.6199 16.9333 20.6667 17.9801 20.6667 19.2667C20.6667 20.5533 19.6199 21.6 18.3333 21.6Z" fill="currentcolor"/>
</svg>
