<svg width="32" height="32" viewBox="0 0 32 32" fill="none" xmlns="http://www.w3.org/2000/svg">
<path d="M22.2251 22.1956H20.1637L27.9387 29.9705H30L22.2251 22.1956Z" fill="currentcolor"/>
<path d="M20.7685 18.7854C22.1018 17.0312 22.8952 14.8453 22.8952 12.4769C22.8952 6.71601 18.2084 2.0293 12.4476 2.0293C6.68671 2.0293 2 6.71601 2 12.4769C2 18.2377 6.68671 22.9245 12.4476 22.9245C14.2103 22.9245 15.8716 22.484 17.3298 21.7097C18.6777 20.9941 19.851 19.9926 20.7685 18.7854ZM12.4476 3.4871C17.4046 3.4871 21.4374 7.51986 21.4374 12.4769C21.4374 17.4339 17.4046 21.4667 12.4476 21.4667C7.49057 21.4667 3.4578 17.4339 3.4578 12.4769C3.4578 7.51986 7.49057 3.4871 12.4476 3.4871Z" fill="currentcolor"/>
</svg>
