<svg width="32" height="32" viewBox="0 0 32 32" fill="none" xmlns="http://www.w3.org/2000/svg">
<path d="M23.2045 24.909H21.7607L26.878 30H28.3218L23.2045 24.909Z" fill="currentcolor"/>
<path d="M20.4779 6.07271H8.25978V7.09089H20.4779V6.07271Z" fill="currentcolor"/>
<path d="M20.4779 10.1454H8.25978V11.1636H20.4779V10.1454Z" fill="currentcolor"/>
<path d="M21.4961 28.4726H5.20524V29.4908H21.4961V28.4726Z" fill="currentcolor"/>
<path d="M24.0402 21.8545H25.0584L25.0597 2H5.20524V3.01818H24.0415L24.0402 21.8545Z" fill="currentcolor"/>
<path d="M4.69616 3.52727H3.67798V27.9635H4.69616V3.52727Z" fill="currentcolor"/>
<path d="M16.4052 13.1999C15.2099 13.1999 14.1018 13.5776 13.1914 14.2181H8.25978V15.2363H12.0886C11.2873 16.2052 10.8052 17.4473 10.8052 18.7999C10.8052 21.8878 13.3173 24.3999 16.4052 24.3999C16.753 24.3999 17.093 24.3664 17.4234 24.3055C19.3442 23.951 20.9236 22.614 21.6202 20.8363C21.8677 20.2046 22.0052 19.5182 22.0052 18.7999C22.0052 15.712 19.4931 13.1999 16.4052 13.1999ZM16.4052 23.3817C13.8787 23.3817 11.8234 21.3264 11.8234 18.7999C11.8234 16.2734 13.8787 14.2181 16.4052 14.2181C18.9317 14.2181 20.987 16.2734 20.987 18.7999C20.987 21.3264 18.9317 23.3817 16.4052 23.3817Z" fill="currentcolor"/>
</svg>
