<svg width="32" height="32" viewBox="0 0 32 32" fill="none" xmlns="http://www.w3.org/2000/svg">
<path d="M24.9611 20.7856C25.4316 21.1157 26.0037 21.3103 26.6207 21.3103C28.2178 21.3103 29.5173 20.0109 29.5173 18.4137C29.5173 16.8165 28.2178 15.5172 26.6207 15.5172C25.0237 15.5172 23.7242 16.8165 23.7242 18.4137C23.7242 18.6917 23.7644 18.9603 23.8378 19.2151L21.5217 20.8695C21.0513 20.5394 20.4792 20.3449 19.8621 20.3449C18.2651 20.3449 16.9656 21.6442 16.9656 23.2414C16.9656 24.8386 18.2651 26.1379 19.8621 26.1379C20.584 26.1379 21.2445 25.8718 21.7523 25.4335L23.7711 26.5872C23.7409 26.7548 23.7242 26.9271 23.7242 27.1035C23.7242 28.7007 25.0237 30 26.6207 30C28.2178 30 29.5173 28.7007 29.5173 27.1035C29.5173 25.5063 28.2178 24.2069 26.6207 24.2069C25.8989 24.2069 25.2384 24.473 24.7306 24.9114L22.7117 23.7577C22.742 23.5901 22.7587 23.4177 22.7587 23.2414C22.7587 22.9635 22.7185 22.6948 22.6451 22.44L24.9611 20.7857V20.7856ZM26.6207 17.4482C27.1531 17.4482 27.5862 17.8814 27.5862 18.4137C27.5862 18.9461 27.1531 19.3792 26.6207 19.3792C26.0884 19.3792 25.6552 18.9461 25.6552 18.4137C25.6552 17.8814 26.0884 17.4482 26.6207 17.4482ZM19.8621 24.2068C19.3298 24.2068 18.8966 23.7736 18.8966 23.2413C18.8966 22.7089 19.3298 22.2758 19.8621 22.2758C20.3945 22.2758 20.8277 22.7089 20.8277 23.2413C20.8277 23.7736 20.3945 24.2068 19.8621 24.2068ZM26.6207 26.1378C27.1531 26.1378 27.5862 26.571 27.5862 27.1033C27.5862 27.6357 27.1531 28.0689 26.6207 28.0689C26.0884 28.0689 25.6552 27.6357 25.6552 27.1033C25.6552 26.571 26.0884 26.1378 26.6207 26.1378Z" fill="currentcolor"/>
<path d="M29.4943 12.6206C29.3953 11.5262 28.9637 10.5263 28.3002 9.7241C27.4897 8.74411 26.3347 8.05896 25.0226 7.85584C23.6918 4.43333 20.3643 2 16.4771 2C14.0932 2 11.8226 2.88381 10.0832 4.48873C8.538 5.91455 7.59277 7.75253 7.36454 9.74124C4.63612 9.96005 2.48291 12.2506 2.48291 15.0344C2.48291 17.9626 4.86507 20.3447 7.79323 20.3447H16.0012V18.4137H7.79323C5.92991 18.4137 4.41394 16.8977 4.41394 15.0344C4.41394 13.1711 5.92991 11.6551 7.79323 11.6551H9.2415V10.6896C9.2415 8.88616 10.0056 7.18794 11.3928 5.90779C12.7543 4.65154 14.6075 3.93103 16.4772 3.93103C19.3094 3.93103 21.7653 5.56769 22.9527 7.94406C20.6282 8.50925 18.8966 10.6074 18.8966 13.1034V13.5862H20.8277V13.1034C20.8277 11.2401 22.3436 9.7241 24.207 9.7241C26.0703 9.7241 27.5862 11.2401 27.5862 13.1034V13.5862H29.5173V13.1034C29.5173 12.9406 29.5087 12.7797 29.4943 12.6206Z" fill="currentcolor"/>
</svg>
