<svg width="32" height="32" viewBox="0 0 32 32" fill="none" xmlns="http://www.w3.org/2000/svg">
<path d="M6.50847 11.4915C4.02253 11.4915 2 13.5141 2 16C2 18.4859 4.02253 20.5085 6.50847 20.5085C8.01502 20.5085 9.35036 19.7649 10.1695 18.6263L18.8475 22.9654V21.3736L10.8087 17.3543C10.9437 16.9266 11.0169 16.4717 11.0169 16C11.0169 15.5283 10.9437 15.0734 10.8087 14.6457L18.8475 10.6264V9.03464L10.1695 13.3737C9.35036 12.2351 8.01502 11.4915 6.50847 11.4915ZM6.50847 19.0847C4.80759 19.0847 3.42373 17.701 3.42373 16C3.42373 14.299 4.80759 12.9153 6.50847 12.9153C8.20936 12.9153 9.59322 14.299 9.59322 16C9.59322 17.701 8.20936 19.0847 6.50847 19.0847Z" fill="currentcolor"/>
<path d="M25.4915 11.0169C27.9775 11.0169 30 8.99442 30 6.50847C30 4.02253 27.9775 2 25.4915 2C23.0056 2 20.9831 4.02253 20.9831 6.50847C20.9831 8.99442 23.0056 11.0169 25.4915 11.0169ZM25.4915 3.42373C27.1924 3.42373 28.5763 4.80747 28.5763 6.50847C28.5763 8.20947 27.1924 9.59322 25.4915 9.59322C23.7906 9.59322 22.4068 8.20947 22.4068 6.50847C22.4068 4.80747 23.7906 3.42373 25.4915 3.42373Z" fill="currentcolor"/>
<path d="M25.4915 20.9831C23.0056 20.9831 20.9831 23.0056 20.9831 25.4915C20.9831 27.9775 23.0056 30 25.4915 30C27.9775 30 30 27.9775 30 25.4915C30 23.0056 27.9775 20.9831 25.4915 20.9831ZM25.4915 28.5763C23.7906 28.5763 22.4068 27.1925 22.4068 25.4915C22.4068 23.7905 23.7906 22.4068 25.4915 22.4068C27.1924 22.4068 28.5763 23.7905 28.5763 25.4915C28.5763 27.1925 27.1924 28.5763 25.4915 28.5763Z" fill="currentcolor"/>
</svg>
