<svg width="32" height="32" viewBox="0 0 32 32" fill="none" xmlns="http://www.w3.org/2000/svg">
<path d="M25.1215 20.5655C25.584 20.9357 26.1698 21.1579 26.8069 21.1579C28.2966 21.1579 29.5086 19.9459 29.5086 18.4561C29.5086 16.9664 28.2966 15.7544 26.8069 15.7544C25.3171 15.7544 24.1051 16.9664 24.1051 18.4561C24.1051 18.7758 24.1612 19.0825 24.2637 19.3672L21.6151 21.2591C21.1526 20.8888 20.5668 20.6667 19.9297 20.6667C18.4399 20.6667 17.2279 21.8786 17.2279 23.3684C17.2279 24.8582 18.4399 26.0702 19.9297 26.0702C20.6647 26.0702 21.3318 25.7747 21.8193 25.2969L24.1846 26.6485C24.133 26.8568 24.1051 27.0742 24.1051 27.2982C24.1051 28.788 25.3171 30 26.8069 30C28.2966 30 29.5086 28.788 29.5086 27.2982C29.5086 25.8085 28.2966 24.5965 26.8069 24.5965C26.0719 24.5965 25.4048 24.892 24.9172 25.3698L22.552 24.0182C22.6036 23.8099 22.6314 23.5924 22.6314 23.3684C22.6314 23.0488 22.5753 22.7421 22.4729 22.4573L25.1215 20.5655ZM26.8069 17.2281C27.484 17.2281 28.0349 17.779 28.0349 18.4561C28.0349 19.1333 27.484 19.6842 26.8069 19.6842C26.1297 19.6842 25.5788 19.1333 25.5788 18.4561C25.5788 17.779 26.1297 17.2281 26.8069 17.2281ZM19.9297 24.5965C19.2525 24.5965 18.7016 24.0456 18.7016 23.3684C18.7016 22.6913 19.2525 22.1404 19.9297 22.1404C20.6068 22.1404 21.1578 22.6913 21.1578 23.3684C21.1578 24.0456 20.6068 24.5965 19.9297 24.5965ZM26.8069 26.0702C27.484 26.0702 28.0349 26.6211 28.0349 27.2982C28.0349 27.9754 27.484 28.5263 26.8069 28.5263C26.1297 28.5263 25.5788 27.9754 25.5788 27.2982C25.5788 26.6211 26.1297 26.0702 26.8069 26.0702Z" fill="currentcolor"/>
<path d="M29.4847 12.5614C29.3777 11.4346 28.9069 10.4126 28.1912 9.61404C27.3837 8.71312 26.2648 8.0981 25.0055 7.93772C23.7236 4.47493 20.3884 2 16.4853 2C14.1215 2 11.8701 2.87623 10.1459 4.46719C8.56488 5.92614 7.61877 7.82056 7.43616 9.86395C4.69044 9.97607 2.49121 12.2448 2.49121 15.0175C2.49121 17.8616 4.80502 20.1754 7.64911 20.1754H16.0011V18.7018H7.64898C5.61751 18.7018 3.96477 17.049 3.96477 15.0175C3.96477 12.9861 5.61751 11.3333 7.64898 11.3333H8.87705V10.5965C8.87705 8.692 9.68267 6.89988 11.1453 5.55035C12.5755 4.23054 14.5219 3.47368 16.4853 3.47368C19.5754 3.47368 22.2393 5.3266 23.4292 7.97886C21.0235 8.4147 19.1928 10.5233 19.1928 13.0526V13.5439H20.6665V13.0526C20.6665 11.0212 22.3193 9.36842 24.3507 9.36842C26.3822 9.36842 28.0349 11.0212 28.0349 13.0526V13.5439H29.5086V13.0526C29.5086 12.8868 29.5 12.7231 29.4847 12.5614Z" fill="currentcolor"/>
</svg>
