<svg width="32" height="32" viewBox="0 0 32 32" fill="none" xmlns="http://www.w3.org/2000/svg">
<path d="M25.7636 11.1902H25.7638C26.428 11.1902 27.0525 10.9316 27.5221 10.4621C27.9919 9.99238 28.2506 9.36777 28.2507 8.70336C28.2507 7.33215 27.1352 6.21635 25.7638 6.21623C24.3925 6.21623 23.2768 7.3319 23.2767 8.70311C23.2767 9.36739 23.5353 9.992 24.005 10.4618C24.4747 10.9316 25.0993 11.1902 25.7636 11.1902ZM25.7638 7.21103C26.5866 7.21103 27.256 7.88053 27.256 8.70336C27.256 9.1019 27.1007 9.4767 26.8189 9.75847C26.537 10.0403 26.1625 10.1954 25.7639 10.1954H25.7638C25.3653 10.1954 24.9906 10.0403 24.7087 9.75835C24.4269 9.47645 24.2717 9.10178 24.2717 8.70311C24.2717 7.88041 24.9412 7.21103 25.7639 7.21103H25.7638Z" fill="currentcolor"/>
<path d="M16.3131 10.6927C16.3131 11.357 16.5717 11.9816 17.0414 12.4514C17.5111 12.9212 18.1357 13.1799 18.7999 13.1799H18.8002C19.4643 13.1799 20.0888 12.9212 20.5585 12.4517C21.0283 11.982 21.287 11.3574 21.2871 10.693C21.2871 9.32176 20.1715 8.20596 18.8002 8.20583C17.4289 8.20583 16.3132 9.32151 16.3131 10.6927ZM18.8001 9.20064C19.6229 9.20064 20.2923 9.87014 20.2923 10.693C20.2923 11.0915 20.137 11.4663 19.8552 11.7481C19.5733 12.0299 19.1987 12.1851 18.8002 12.1851H18.8001C18.4015 12.1851 18.0269 12.0299 17.745 11.748C17.4632 11.4661 17.308 11.0914 17.308 10.6927C17.308 9.87002 17.9775 9.20064 18.8002 9.20064H18.8001Z" fill="currentcolor"/>
<path d="M11.3569 8.00066L11.8543 8.86216C13.042 8.17661 13.4504 6.65257 12.7648 5.4649C12.0793 4.27735 10.5551 3.86874 9.36758 4.55453L9.86499 5.41603C10.5775 5.00456 11.4919 5.24965 11.9033 5.96243C12.1027 6.30762 12.1555 6.70977 12.0524 7.09476C11.9492 7.47975 11.7023 7.80157 11.3571 8.00078L11.3569 8.00066Z" fill="currentcolor"/>
<path d="M28.0019 19.7258C27.4266 19.3935 26.7565 19.3051 26.1147 19.4772C25.473 19.6491 24.9366 20.0604 24.6045 20.6358L25.466 21.1332C25.8775 20.4208 26.7921 20.1756 27.5045 20.5872C28.217 20.9986 28.462 21.913 28.0506 22.6256L28.9121 23.123C29.5978 21.9355 29.1896 20.4115 28.0021 19.7258H28.0019Z" fill="currentcolor"/>
<path d="M19.3154 5.69458C18.9703 5.89391 18.5682 5.94688 18.1832 5.84355L17.9256 6.8044C18.14 6.86186 18.3575 6.89033 18.5735 6.89033C19.0044 6.89033 19.4297 6.7773 19.8128 6.55608C20.388 6.22394 20.7996 5.68774 20.9716 5.04596C21.3265 3.72151 20.5377 2.35502 19.2132 2L18.9556 2.96086C19.7504 3.17399 20.2236 3.99384 20.0107 4.78856C19.9075 5.17355 19.6607 5.49537 19.3154 5.69458Z" fill="currentcolor"/>
<path d="M21.1627 15.6667C21.1627 16.331 21.4214 16.9556 21.891 17.4254C22.3607 17.8952 22.9853 18.1539 23.6496 18.1539H23.6499C24.314 18.1539 24.9385 17.8952 25.4082 17.4257C25.878 16.956 26.1366 16.3314 26.1367 15.667C26.1367 14.2958 25.0212 13.18 23.6499 13.1799C22.2785 13.1799 21.1629 14.2955 21.1627 15.6667ZM23.6497 14.1747C24.4726 14.1747 25.1419 14.8442 25.1419 15.667C25.1419 16.0655 24.9866 16.4403 24.7048 16.7221C24.4229 17.0039 24.0484 17.1591 23.6499 17.1591H23.6497C23.2512 17.1591 22.8765 17.0039 22.5946 16.722C22.3128 16.4401 22.1577 16.0654 22.1577 15.6667C22.1577 14.844 22.8272 14.1747 23.6499 14.1747H23.6497Z" fill="currentcolor"/>
<path d="M13.6067 26.2802V27.31L16.5911 26.5103V25.4805L13.6067 26.2802Z" fill="currentcolor"/>
<path d="M9.62773 27.3462V28.3762L12.6119 27.5767V26.5467L9.62773 27.3462Z" fill="currentcolor"/>
<path d="M9.45115 8.70299H8.24433L2.75537 29.1877L3.56763 30L8.63292 28.6427V27.6127L3.86495 28.8903L8.63292 11.0961V27.6128L9.62773 27.3462V10.2865L12.6119 13.2706V26.5467L13.6067 26.2801V14.2654L16.5911 17.2498V25.4804L17.5859 25.2137V18.2445L23.0823 23.7409L17.5859 25.2137V26.2436L24.0524 24.5109V23.3041L9.45115 8.70299Z" fill="currentcolor"/>
</svg>
