<svg width="32" height="32" viewBox="0 0 32 32" fill="none" xmlns="http://www.w3.org/2000/svg">
<path d="M25.5891 6.14209C24.1041 6.14209 22.896 7.35006 22.8959 8.83505C22.8959 9.55435 23.176 10.2307 23.6846 10.7394C24.1932 11.2481 24.8696 11.5283 25.5889 11.5283H25.5891C26.3083 11.5283 26.9845 11.2482 27.4931 10.7397C28.0019 10.231 28.2819 9.55471 28.2821 8.83529C28.2821 7.35042 27.0741 6.14221 25.5891 6.14209ZM26.4546 9.70087C26.2233 9.93199 25.9161 10.0593 25.589 10.0593C25.262 10.0593 24.9546 9.93199 24.7235 9.70075C24.4923 9.46939 24.365 9.16214 24.365 8.83505C24.365 8.16006 24.9142 7.61104 25.5891 7.61104C26.2641 7.61104 26.8132 8.16031 26.8132 8.83529C26.8132 9.16226 26.6858 9.46976 26.4547 9.70087H26.4546Z" fill="currentcolor"/>
<path d="M16.0408 10.7937C16.0408 11.513 16.3209 12.1893 16.8295 12.698C17.3381 13.2067 18.0144 13.4869 18.7337 13.4869H18.734C19.4532 13.4869 20.1294 13.2068 20.638 12.6983C21.1467 12.1897 21.4268 11.5133 21.4269 10.7939C21.4269 9.30903 20.219 8.10082 18.734 8.10069C17.249 8.10069 16.0409 9.30866 16.0408 10.7937ZM18.7339 9.56965C19.4088 9.56965 19.958 10.1189 19.958 10.7939C19.958 11.1209 19.8306 11.4284 19.5994 11.6595C19.3682 11.8906 19.0609 12.0179 18.7339 12.0179C18.4069 12.0179 18.0995 11.8906 17.8684 11.6594C17.6372 11.428 17.5098 11.1207 17.5098 10.7937C17.5098 10.1187 18.0591 9.56965 18.734 9.56965H18.7339Z" fill="currentcolor"/>
<path d="M11.2843 7.9314L12.0186 9.20363C13.3047 8.46132 13.7471 6.81095 13.0047 5.52476C12.2622 4.23869 10.612 3.79665 9.32593 4.53884L10.0603 5.81108C10.6448 5.47371 11.395 5.67459 11.7324 6.25924C11.8959 6.54238 11.9393 6.87228 11.8547 7.1881C11.7702 7.50393 11.5676 7.76785 11.2843 7.9314Z" fill="currentcolor"/>
<path d="M28.9002 23.1527C29.6427 21.8668 29.2007 20.2165 27.9147 19.4738C26.6288 18.7312 24.9784 19.1733 24.2358 20.4594L25.5079 21.1939C25.6715 20.9108 25.9354 20.7082 26.2514 20.6237C26.5669 20.5393 26.897 20.5824 27.1802 20.7461C27.7647 21.0836 27.9657 21.8337 27.6283 22.4182L28.9004 23.1527H28.9002Z" fill="currentcolor"/>
<path d="M19.1187 5.66125C18.8356 5.82479 18.5057 5.868 18.1899 5.78354L17.8095 7.2023C18.0416 7.26461 18.2771 7.29534 18.5112 7.29534C18.9777 7.29534 19.4382 7.17305 19.8532 6.93349C20.4762 6.57384 20.9217 5.99311 21.1081 5.29829C21.4924 3.86398 20.6382 2.38438 19.2039 2L18.8236 3.41877C19.4756 3.59369 19.864 4.26623 19.6892 4.91808C19.6046 5.2339 19.402 5.49783 19.1187 5.66125Z" fill="currentcolor"/>
<path d="M20.8149 15.6902C20.8149 16.4095 21.095 17.0858 21.6036 17.5946C22.1122 18.1032 22.7885 18.3834 23.5078 18.3834H23.5081C24.2273 18.3834 24.9035 18.1033 25.4121 17.5948C25.9208 17.0862 26.2009 16.4098 26.201 15.6904C26.201 14.2055 24.9931 12.9973 23.5081 12.9972C22.0231 12.9972 20.815 14.2052 20.8149 15.6902ZM23.508 14.4662C24.1829 14.4662 24.7321 15.0154 24.7321 15.6904C24.7321 16.0174 24.6047 16.3249 24.3735 16.556C24.1423 16.7871 23.835 16.9144 23.508 16.9144C23.181 16.9144 22.8736 16.7871 22.6425 16.5559C22.4113 16.3245 22.284 16.0173 22.284 15.6902C22.284 15.0152 22.8332 14.4662 23.5081 14.4662H23.508Z" fill="currentcolor"/>
<path d="M13.8662 25.8191V27.3398L16.3145 26.6838V25.1631L13.8662 25.8191Z" fill="currentcolor"/>
<path d="M9.94926 26.8687V28.3894L12.3973 27.7335V26.2128L9.94926 26.8687Z" fill="currentcolor"/>
<path d="M9.87679 8.83493H8.08907L2.73926 28.8006L3.93866 30L8.4803 28.7831V27.2622L4.37763 28.3616L8.4803 13.0505V27.2622L9.94926 26.8687V10.9847L12.3973 13.4328V26.2128L13.8662 25.8191V14.9017L16.3145 17.3501V25.1631L17.7834 24.7695V18.819L22.4764 23.512L17.7834 24.7695V26.2903L23.9043 24.6502V22.8623L9.87679 8.83493Z" fill="currentcolor"/>
</svg>
