<svg width="32" height="32" viewBox="0 0 32 32" fill="none" xmlns="http://www.w3.org/2000/svg">
<path d="M28.944 2.00518L22.2371 2.00376L22.2369 3.04061L27.9078 3.04177L27.9232 28.9632H4.07604L4.07889 3.03763L9.79466 3.03879L9.79492 2.00194L3.04217 2.00065L3.03906 30H28.9607L28.944 2.00518Z" fill="currentcolor"/>
<path d="M17.2433 20.6957L17.239 20.6914L19.0752 18.8636L18.3437 18.1287L16.5058 19.9582L14.1007 17.5534H15.0804C16.5097 17.5534 17.6725 16.3906 17.6725 14.9613C17.6725 14.2689 17.4028 13.618 16.9133 13.1284C16.4238 12.6387 15.7727 12.3691 15.0804 12.3691H12.3698V20.1499H13.4067V18.3257L15.7709 20.6899L13.9347 22.5177L14.6662 23.2526L16.5041 21.423L18.3431 23.2619L19.0761 22.5287L17.2431 20.6958L17.2433 20.6957ZM13.4067 13.406H15.0804C15.4958 13.406 15.8864 13.5677 16.1801 13.8616C16.4739 14.1553 16.6357 14.5459 16.6357 14.9613C16.6357 15.8189 15.938 16.5165 15.0804 16.5165H13.4067V13.406Z" fill="currentcolor"/>
<path d="M19.6288 2H12.3708V8.22615H19.6288V2ZM18.5919 7.1893H13.4077V3.03685H18.5919V7.1893Z" fill="currentcolor"/>
</svg>
