<svg width="32" height="32" viewBox="0 0 32 32" fill="none" xmlns="http://www.w3.org/2000/svg">
<path d="M28.9631 2.00509L22.1239 2.00369L22.1236 3.53069L27.437 3.53184L27.4519 28.473H4.54739L4.55019 3.52789L9.90755 3.52891L9.90793 2.00191L3.02332 2.00051L3.02026 30H28.9798L28.9631 2.00509Z" fill="currentcolor"/>
<path d="M17.5807 20.6102L17.577 20.6065L19.1991 18.9918L18.1218 17.9097L16.4972 19.5268L14.7499 17.7797H15.0972C16.6409 17.7797 17.8967 16.5237 17.8967 14.9802C17.8967 14.2324 17.6054 13.5294 17.0767 13.0007C16.548 12.4719 15.8449 12.1806 15.0972 12.1808H12.1814V20.0746H13.7084V18.8979L15.4149 20.6042L13.7929 22.2189L14.8702 23.301L16.4947 21.6838L18.1207 23.3096L19.2004 22.2299L17.5806 20.6102H17.5807ZM13.7085 13.7077H15.0973C15.4372 13.7077 15.7567 13.84 15.9971 14.0804C16.2375 14.3207 16.3698 14.6403 16.3698 14.9802C16.3698 15.6818 15.799 16.2527 15.0973 16.2527H13.7085V13.7077Z" fill="currentcolor"/>
<path d="M19.8174 2H12.1824V8.62197H19.8174V2ZM18.2904 7.09497H13.7094V3.527H18.2904V7.09497Z" fill="currentcolor"/>
</svg>
