<svg width="32" height="32" viewBox="0 0 32 32" fill="none" xmlns="http://www.w3.org/2000/svg">
<path d="M15.9861 7.60005C17.53 7.60005 18.7861 6.34389 18.7861 4.80002C18.7861 3.25616 17.53 2 15.9861 2C14.4422 2 13.1861 3.25616 13.1861 4.80002C13.1861 6.34389 14.4422 7.60005 15.9861 7.60005ZM15.9861 3.86668C16.5007 3.86668 16.9194 4.2854 16.9194 4.80002C16.9194 5.31464 16.5007 5.73336 15.9861 5.73336C15.4715 5.73336 15.0528 5.31464 15.0528 4.80002C15.0528 4.2854 15.4715 3.86668 15.9861 3.86668Z" fill="currentcolor"/>
<path d="M23.5757 9.14053C22.9314 8.74339 22.1907 8.53339 21.4339 8.53339H10.5657C9.80889 8.53339 9.06828 8.74339 8.42404 9.14053C6.72548 10.1876 6.03446 12.2907 6.78055 14.1413L8.30283 17.9163L8.33339 17.9839C8.91195 19.1435 10.2336 19.7162 11.4751 19.3463C11.5699 19.318 11.6624 19.2848 11.7525 19.2466L8.76891 26.0327L8.76343 26.0455C8.39231 26.9246 8.48471 27.9249 9.01042 28.7214C9.53612 29.5177 10.4196 29.9958 11.3746 30H11.3967C11.4012 30 11.4056 30 11.41 30C12.5846 30 13.6224 29.2958 14.0561 28.203L16.024 23.2442L17.8964 28.1652C18.3145 29.2639 19.3829 30 20.5578 30H20.5704C21.5275 29.9957 22.4125 29.5155 22.9378 28.7154C23.4631 27.9153 23.5519 26.9123 23.1718 26.0242L20.1816 19.2178C20.2919 19.268 20.4067 19.311 20.5247 19.3463C20.7782 19.4217 21.035 19.458 21.2882 19.458C22.2751 19.458 23.206 18.9067 23.6664 17.9839L25.2194 14.1413C25.9656 12.2908 25.2745 10.1876 23.5759 9.14053H23.5757ZM23.4879 13.4431L21.9819 17.1772C21.8027 17.5054 21.4192 17.6651 21.0576 17.5573C20.7482 17.4651 20.6099 17.2378 20.5549 17.1106C20.5 16.9833 20.4296 16.7267 20.5747 16.4383L20.6051 16.3779L21.9706 12.2787L18.826 12.2495H17.8399V18.5295L21.459 26.7668C21.5906 27.0744 21.5607 27.4111 21.3772 27.6908C21.1936 27.9704 20.8964 28.1318 20.5618 28.1332H20.5575C20.1529 28.1332 19.7848 27.8797 19.6409 27.5012L17.0404 20.6667H15.0385L12.321 27.5144C12.1716 27.8908 11.8142 28.1333 11.409 28.1333C11.4075 28.1333 11.406 28.1333 11.4044 28.1333H11.3823C11.0487 28.1318 10.752 27.9713 10.5682 27.6929C10.3856 27.4162 10.3537 27.0826 10.4809 26.7767L14.1068 18.5296V12.2409L10.0288 12.2788L11.3944 16.378L11.4249 16.4383C11.57 16.7268 11.4995 16.9834 11.4446 17.1107C11.3896 17.2378 11.2514 17.4651 10.9418 17.5573C10.5797 17.6651 10.1969 17.5055 10.0176 17.1772L8.5119 13.4431C8.35649 13.0578 8.31683 12.6523 8.37808 12.2668C8.47631 11.6476 8.83577 11.0797 9.4037 10.7295C9.75336 10.5141 10.1552 10.4001 10.5658 10.4001H21.434C21.8448 10.4001 22.2466 10.5141 22.5962 10.7295C23.1642 11.0797 23.5236 11.6476 23.6219 12.2668C23.683 12.6523 23.6436 13.0578 23.4882 13.4431H23.4879Z" fill="currentcolor"/>
</svg>
