<svg width="32" height="32" viewBox="0 0 32 32" fill="none" xmlns="http://www.w3.org/2000/svg">
<path d="M15.9862 7.22038C17.4255 7.22038 18.5964 6.04947 18.5964 4.61019C18.5964 3.17091 17.4255 2 15.9862 2C14.5469 2 13.376 3.17091 13.376 4.61019C13.376 6.04947 14.5469 7.22038 15.9862 7.22038ZM15.9862 3.42374C16.6404 3.42374 17.1726 3.95598 17.1726 4.61019C17.1726 5.2644 16.6404 5.79664 15.9862 5.79664C15.332 5.79664 14.7997 5.2644 14.7997 4.61019C14.7997 3.95598 15.332 3.42374 15.9862 3.42374Z" fill="currentcolor"/>
<path d="M23.5798 9.2262C22.9622 8.84535 22.2521 8.64412 21.5262 8.64412H10.4738C9.74819 8.64412 9.03798 8.84535 8.42031 9.2262C6.79167 10.2302 6.12904 12.2467 6.84459 14.021L8.39267 17.86L8.41581 17.9116C8.95267 18.9874 10.1783 19.5191 11.3307 19.1755C11.6526 19.0796 11.9464 18.9213 12.1983 18.7133L8.85918 26.308C8.51286 27.1288 8.59911 28.0628 9.08983 28.8062C9.58066 29.5496 10.4056 29.996 11.297 30H11.3196C11.3238 30 11.3278 30 11.332 30C12.4287 30 13.3975 29.3425 13.8024 28.3222L16.0289 22.712L18.1502 28.2869C18.5405 29.3127 19.538 29.9999 20.6348 29.9999H20.6467C21.5402 29.9958 22.3664 29.5475 22.8569 28.8005C23.3473 28.0536 23.4302 27.1172 23.0759 26.2894L19.7144 18.6377C19.9846 18.8831 20.3095 19.068 20.6691 19.1753C20.9043 19.2454 21.1425 19.2791 21.3774 19.2791C22.2931 19.2791 23.1569 18.7676 23.5841 17.9114L25.1554 14.0208C25.8709 12.2464 25.2082 10.2301 23.5797 9.22596L23.5798 9.2262ZM19.5326 14.584V13.8531L19.7754 13.8554L19.5326 14.584ZM23.8353 13.4885L22.2991 17.2979C22.0662 17.7386 21.5556 17.954 21.0761 17.811C20.7787 17.7224 20.5378 17.5082 20.4149 17.2233C20.2919 16.9385 20.3013 16.6161 20.4408 16.3391L20.464 16.2929L21.7442 12.4498L18.8744 12.4231H18.1089V18.5224L21.77 26.8559C21.9356 27.2432 21.8982 27.6671 21.667 28.0192C21.4359 28.3714 21.0617 28.5744 20.6405 28.5763H20.6351C20.1257 28.5763 19.6624 28.2571 19.481 27.7806L16.8044 20.7459H15.2778L12.4793 27.7972C12.2912 28.2711 11.8414 28.5764 11.3315 28.5764C11.3295 28.5764 11.3276 28.5764 11.3257 28.5764H11.303C10.8831 28.5744 10.5095 28.3723 10.2782 28.0219C10.0468 27.6715 10.0078 27.2485 10.1669 26.8713L13.8375 18.5226V12.4166L10.2559 12.4499L11.5363 16.2931L11.5594 16.3391C11.6988 16.6162 11.7083 16.9387 11.5854 17.2236C11.4624 17.5085 11.2214 17.7226 10.9241 17.8112C10.4442 17.9542 9.93387 17.7389 9.70109 17.2981L8.16499 13.4888C7.99533 13.068 7.94775 12.626 8.00814 12.2037C8.1097 11.4931 8.51748 10.8391 9.16742 10.4384C9.56037 10.1961 10.0122 10.0681 10.4738 10.0681H21.5262C21.988 10.0681 22.4397 10.1961 22.8327 10.4384C23.4827 10.8391 23.8903 11.4933 23.992 12.2037C24.0524 12.626 24.0048 13.068 23.8352 13.4888L23.8353 13.4885ZM12.225 13.8554L12.414 13.8536V14.4227L12.225 13.8554Z" fill="currentcolor"/>
</svg>
