<svg width="32" height="32" viewBox="0 0 32 32" fill="none" xmlns="http://www.w3.org/2000/svg">
<path d="M25.8519 19.6296C25.8519 24.7761 21.6649 28.963 16.5185 28.963C11.3721 28.963 7.18518 24.7761 7.18518 19.6296V15.8963H6.14815V19.6296C6.14815 25.3479 10.8003 30 16.5185 30C22.2367 30 26.8889 25.3479 26.8889 19.6296V13.7963H25.8519V19.6296Z" fill="currentcolor"/>
<path d="M30 9.77778C30 7.77643 28.3717 6.14815 26.3704 6.14815C24.369 6.14815 22.7407 7.77643 22.7407 9.77778C22.7407 11.4189 23.8359 12.8083 25.3333 13.2556V12.1523C24.4188 11.7514 23.7778 10.8385 23.7778 9.77765C23.7778 8.34809 24.9408 7.18506 26.3704 7.18506C27.7999 7.18506 28.963 8.34809 28.963 9.77765C28.963 10.8385 28.3219 11.7513 27.4074 12.1523V13.2556C28.9049 12.8083 30 11.4189 30 9.77778Z" fill="currentcolor"/>
<path d="M3.03704 10.8148V3.03704H5.62963V2H2V10.8148C2 13.0316 3.55413 14.8909 5.62963 15.3639V14.2928C4.13215 13.8454 3.03704 12.4559 3.03704 10.8148Z" fill="currentcolor"/>
<path d="M11.3333 10.8148V2H7.7037V3.03704H10.2963V10.8148C10.2963 12.4559 9.20119 13.8453 7.7037 14.2926V15.3638C9.7792 14.8908 11.3333 13.0316 11.3333 10.8148Z" fill="currentcolor"/>
</svg>
