<svg width="32" height="32" viewBox="0 0 32 32" fill="none" xmlns="http://www.w3.org/2000/svg">
<path d="M7.7845 29.0246H5.85557V19.1119C5.85557 18.196 6.60074 17.451 7.51662 17.451H13.0891V19.3799H7.7845V29.0246Z" fill="currentcolor"/>
<path d="M18.5395 6.87624H15.5676C15.5487 6.87624 15.5334 6.8608 15.5333 6.83356L15.4913 2.01123L13.5625 2.02799L13.6044 6.84212C13.6044 7.92461 14.4852 8.80529 15.5676 8.80529H18.5395C23.7929 8.80529 28.0688 13.08 28.0711 18.3341V18.5401C28.0688 23.7896 23.797 28.0602 18.5488 28.0602H18.4498C15.9446 28.0602 13.4474 26.9066 11.6337 25.1128V25.1668H9.11197C11.279 28.0655 14.8085 29.9892 18.4498 29.9892H18.5488C24.8602 29.9892 29.9972 24.8535 30 18.5406V18.3336C29.9972 12.0161 24.8561 6.87624 18.5395 6.87624Z" fill="currentcolor"/>
<path d="M3.92893 29.0246H2V17.451C2 15.3237 3.73037 13.5931 5.85738 13.5931H17.4289V13.2954L11.5853 11.0882C10.4663 10.6656 9.7144 9.57794 9.7144 8.3814V2.01955H11.6433V8.38153C11.6433 8.78045 11.8938 9.14285 12.2667 9.28366L18.1104 11.4908C18.8564 11.7727 19.3577 12.498 19.3577 13.2955V13.5933C19.3577 14.6568 18.4925 15.5222 17.4289 15.5222H5.85738C4.79406 15.5222 3.92893 16.3876 3.92893 17.4511V29.0247V29.0246Z" fill="currentcolor"/>
</svg>
