<svg width="32" height="32" viewBox="0 0 32 32" fill="none" xmlns="http://www.w3.org/2000/svg">
<path d="M16.0058 30C13.8001 30 12.0058 28.2056 12.0058 26C12.0058 23.7944 13.8001 22 16.0058 22C18.2114 22 20.0058 23.7944 20.0058 26C20.0058 28.2056 18.2114 30 16.0058 30ZM16.0058 24C14.903 24 14.0058 24.8973 14.0058 26C14.0058 27.1027 14.903 28 16.0058 28C17.1085 28 18.0058 27.1027 18.0058 26C18.0058 24.8973 17.1085 24 16.0058 24Z" fill="currentcolor"/>
<path d="M17.0055 8H15.0055V20H17.0055V8Z" fill="currentcolor"/>
<path d="M17.1446 2H14.8664L12.6845 6H14.9629L16.0055 4.08838L17.0481 6H19.3265L17.1446 2Z" fill="currentcolor"/>
<path d="M13.0055 20H8.00551C6.35138 20 5.00551 18.6543 5.00551 17V10H7.00551V17C7.00551 17.5514 7.45413 18 8.00551 18H13.0055V20Z" fill="currentcolor"/>
<path d="M24.0055 20H19.0055V18H24.0055C24.5569 18 25.0055 17.5514 25.0055 17V10H27.0055V17C27.0055 18.6543 25.6596 20 24.0055 20Z" fill="currentcolor"/>
<path d="M6.00551 4.575L6.00563 4.57513L3.71101 2.28L2.29663 3.69412L4.59138 5.98912L6.00551 4.575Z" fill="currentcolor"/>
<path d="M4.59126 5.98925L4.59138 5.98912L2.30113 8.27888L3.71526 9.69325L6.00538 7.4035L4.59126 5.98925Z" fill="currentcolor"/>
<path d="M8.30163 2.27938L6.00563 4.57513L7.41976 5.98938L6.00538 7.4035L8.29613 9.69462L9.71051 8.2805L7.41976 5.98938L9.71576 3.69375L8.30163 2.27938Z" fill="currentcolor"/>
<path d="M24.5664 5.98925L24.5665 5.98912H24.5664L22.2888 8.2665L23.7028 9.68075L25.9805 7.4035L24.5664 5.98925Z" fill="currentcolor"/>
<path d="M25.9806 4.575L25.9808 4.57513L23.6985 2.2925L22.2841 3.7065L24.5664 5.98912L25.9806 4.575Z" fill="currentcolor"/>
<path d="M28.2893 2.267L25.9808 4.57513L27.3949 5.98938L25.9805 7.4035L28.2838 9.707L29.698 8.293L27.3948 5.98938L29.7033 3.68125L28.2893 2.267Z" fill="currentcolor"/>
</svg>
