<svg width="32" height="32" viewBox="0 0 32 32" fill="none" xmlns="http://www.w3.org/2000/svg">
<path d="M3.86658 11.3161C3.86658 12.8601 5.12274 14.1162 6.6666 14.1162H12.2578L12.2181 17.9249L8.79088 26.0454C8.41976 26.9246 8.51205 27.9248 9.03775 28.7213C9.56346 29.5178 10.447 29.9957 11.4007 30H11.4241C11.4285 30 11.4328 30 11.4373 30C12.612 30 13.6497 29.2958 14.0834 28.203L16.0513 23.2442L17.9237 28.1651C18.3418 29.2639 19.4101 29.9999 20.5852 29.9999H20.5978C21.5548 29.9956 22.4398 29.5154 22.9651 28.7154C23.4904 27.9154 23.5793 26.9123 23.2027 26.0324L19.7343 17.927V14.1161H25.3334C26.8773 14.1161 28.1334 12.86 28.1334 11.316C28.1334 9.77205 26.8773 8.516 25.3334 8.516H6.6666C5.12274 8.516 3.86658 9.77216 3.86658 11.3161ZM26.2668 11.3161C26.2668 11.8308 25.848 12.2495 25.3334 12.2495H17.8676V18.3097L21.4867 26.7668C21.6184 27.0744 21.5885 27.4111 21.4049 27.6908C21.2212 27.9704 20.9241 28.1317 20.5896 28.1332H20.5852C20.1806 28.1332 19.8126 27.8798 19.6686 27.5012L16.713 19.7334H15.4366L12.3485 27.5144C12.1992 27.8908 11.8417 28.1333 11.4376 28.1333H11.4097C11.0762 28.1317 10.7795 27.9711 10.5957 27.6928C10.412 27.4144 10.3809 27.0785 10.5107 26.7712L14.0811 18.3119L14.1442 12.2494H6.6666C6.15198 12.2494 5.73326 11.8306 5.73326 11.316C5.73326 10.8014 6.15198 10.3827 6.6666 10.3827H25.3334C25.848 10.3827 26.2668 10.8015 26.2668 11.3161Z" fill="currentcolor"/>
<path d="M18.8128 4.80002C18.8128 3.25604 17.5566 2 16.0127 2C14.4689 2 13.2127 3.25604 13.2127 4.80002C13.2127 6.344 14.4689 7.60005 16.0127 7.60005C17.5566 7.60005 18.8128 6.344 18.8128 4.80002ZM15.0794 4.80002C15.0794 4.2854 15.4981 3.86668 16.0127 3.86668C16.5273 3.86668 16.9461 4.2854 16.9461 4.80002C16.9461 5.31464 16.5273 5.73336 16.0127 5.73336C15.4981 5.73336 15.0794 5.31464 15.0794 4.80002Z" fill="currentcolor"/>
</svg>
