<svg width="32" height="32" viewBox="0 0 32 32" fill="none" xmlns="http://www.w3.org/2000/svg">
<path d="M24.6765 15.5219H7.29719V16.4875H24.6765V15.5219Z" fill="currentcolor"/>
<path d="M16 2C8.28033 2 2 8.28033 2 16C2 23.7197 8.28033 30 16 30C23.7197 30 30 23.7197 30 16C30 8.28033 23.7197 2 16 2ZM16 29.0345C8.81269 29.0345 2.96552 23.1873 2.96552 16C2.96552 8.81269 8.81281 2.96552 16 2.96552C23.1872 2.96552 29.0345 8.81269 29.0345 16C29.0345 23.1873 23.1873 29.0345 16 29.0345Z" fill="currentcolor"/>
</svg>
