<svg width="32" height="32" viewBox="0 0 32 32" fill="none" xmlns="http://www.w3.org/2000/svg">
<path d="M24.8166 19.628H17.0365V20.6652H24.8166C27.1043 20.6652 28.9654 22.5263 28.9654 24.814C28.9654 27.1017 27.1043 28.9628 24.8166 28.9628H17.0365V30H24.8166C27.6762 30 30.0026 27.6736 30.0026 24.814C30.0026 21.9544 27.6762 19.628 24.8166 19.628Z" fill="currentcolor"/>
<path d="M1.99707 24.814C1.99707 27.6736 4.32351 30 7.18307 30H14.9621V28.9628H7.18307C4.8954 28.9628 3.03427 27.1017 3.03427 24.814C3.03427 22.5263 4.8954 20.6652 7.18307 20.6652H14.9621V19.628H7.18307C4.32351 19.628 1.99707 21.9544 1.99707 24.814Z" fill="currentcolor"/>
<path d="M16.5179 21.1838H15.4807V28.4442H16.5179V21.1838Z" fill="currentcolor"/>
<path d="M28.4457 3.2965C28.4457 3.0162 28.4367 2.75793 28.4183 2.50667L28.3856 2.06003L27.939 2.02736C27.6877 2.00895 27.4295 2 27.1492 2C21.9131 2 17.4717 5.46684 15.9993 10.2255C14.5268 5.46684 10.0854 2 4.84937 2C4.56907 2 4.3108 2.00895 4.05954 2.02736L3.6129 2.06003L3.58023 2.50667C3.56182 2.75793 3.55287 3.0162 3.55287 3.2965C3.55287 9.73051 8.78736 14.965 15.2214 14.965C15.3101 14.965 15.3959 14.9637 15.4807 14.962V19.1094H16.5179V14.962C16.6027 14.9638 16.6885 14.965 16.7772 14.965C23.2112 14.965 28.4457 9.73051 28.4457 3.2965ZM15.4778 13.925C15.3945 13.9269 15.3093 13.9278 15.2214 13.9278C9.35925 13.9278 4.59007 9.15863 4.59007 3.2965C4.59007 3.2086 4.59111 3.12342 4.59292 3.04005C4.67629 3.03811 4.76147 3.0372 4.84937 3.0372C10.7115 3.0372 15.4807 7.80638 15.4807 13.6685C15.4807 13.7564 15.4796 13.8416 15.4778 13.925ZM16.7772 13.9278C16.6893 13.9278 16.6041 13.9268 16.5207 13.925C16.5188 13.8416 16.5179 13.7564 16.5179 13.6685C16.5179 7.80638 21.2871 3.0372 27.1492 3.0372C27.2371 3.0372 27.3223 3.03824 27.4056 3.04005C27.4076 3.12342 27.4085 3.2086 27.4085 3.2965C27.4085 9.15863 22.6393 13.9278 16.7772 13.9278Z" fill="currentcolor"/>
</svg>
