<svg width="32" height="32" viewBox="0 0 32 32" fill="none" xmlns="http://www.w3.org/2000/svg">
<path d="M6.07273 21.0909C6.07273 21.7927 5.50178 22.3636 4.8 22.3636C4.09822 22.3636 3.52727 21.7927 3.52727 21.0909V14.9818H2V21.0909C2 22.6349 3.25605 23.8909 4.8 23.8909C6.34395 23.8909 7.6 22.6349 7.6 21.0909V14.9818H6.07273V21.0909Z" fill="currentcolor"/>
<path d="M26.4364 13.9636V14.9818H27.9636V13.9636C27.9636 7.36684 22.5968 2 16 2C9.4032 2 4.03636 7.36684 4.03636 13.9636V14.9818H5.56364V13.9636C5.56364 8.209 10.2454 3.52727 16 3.52727C21.7546 3.52727 26.4364 8.209 26.4364 13.9636Z" fill="currentcolor"/>
<path d="M28.4727 14.9818V21.0909C28.4727 21.7927 27.9018 22.3636 27.2 22.3636C26.4982 22.3636 25.9273 21.7927 25.9273 21.0909V14.9818H24.4V21.0909C24.4 22.3701 25.2625 23.4508 26.4364 23.7843V25.1587C26.4364 25.8605 25.8654 26.4314 25.1636 26.4314H14.6191C14.2841 25.2601 13.2046 24.4 11.9273 24.4C10.3833 24.4 9.12727 25.6561 9.12727 27.2C9.12727 28.7439 10.3833 30 11.9273 30C13.2083 30 14.2903 29.1351 14.622 27.9587H25.1636C26.7076 27.9587 27.9636 26.7026 27.9636 25.1587V23.7843C29.1375 23.4509 30 22.3701 30 21.0909V14.9818H28.4727ZM11.9273 28.4727C11.2255 28.4727 10.6545 27.9018 10.6545 27.2C10.6545 26.4982 11.2255 25.9273 11.9273 25.9273C12.6291 25.9273 13.2 26.4982 13.2 27.2C13.2 27.9018 12.6291 28.4727 11.9273 28.4727Z" fill="currentcolor"/>
</svg>
