<svg width="32" height="32" viewBox="0 0 32 32" fill="none" xmlns="http://www.w3.org/2000/svg">
<path d="M28.1333 16C28.1333 22.6904 22.6904 28.1333 16 28.1333C9.30963 28.1333 3.86667 22.6904 3.86667 16C3.86667 9.30963 9.30963 3.86667 16 3.86667V2C8.2804 2 2 8.2804 2 16C2 23.7196 8.2804 30 16 30C23.7196 30 30 23.7196 30 16H28.1333Z" fill="currentcolor"/>
<path d="M16 5.72902C10.339 5.72902 5.73333 10.3347 5.73333 15.9957V16.929H15.0667V15.0667H16.9333V16.929H24.3486C23.9168 20.8166 20.8209 23.9123 16.9333 24.3442V16.9335H15.0667V26.2625H16C21.661 26.2625 26.2667 21.6568 26.2667 15.9958V15.0625H16.9333V5.72902H16ZM15.0667 15.0623H7.65145C8.08323 11.1748 11.1791 8.07903 15.0667 7.64713V15.0623Z" fill="currentcolor"/>
<path d="M19.2667 10.4C20.0399 10.4 20.6667 9.7732 20.6667 9C20.6667 8.2268 20.0399 7.6 19.2667 7.6C18.4935 7.6 17.8667 8.2268 17.8667 9C17.8667 9.7732 18.4935 10.4 19.2667 10.4Z" fill="currentcolor"/>
<path d="M23 10.4C23.7732 10.4 24.4 9.7732 24.4 9C24.4 8.2268 23.7732 7.6 23 7.6C22.2268 7.6 21.6 8.2268 21.6 9C21.6 9.7732 22.2268 10.4 23 10.4Z" fill="currentcolor"/>
<path d="M19.2667 6.66702C20.0399 6.66702 20.6667 6.04022 20.6667 5.26702C20.6667 4.49382 20.0399 3.86702 19.2667 3.86702C18.4935 3.86702 17.8667 4.49382 17.8667 5.26702C17.8667 6.04022 18.4935 6.66702 19.2667 6.66702Z" fill="currentcolor"/>
<path d="M23 14.1333C23.7732 14.1333 24.4 13.5065 24.4 12.7333C24.4 11.9601 23.7732 11.3333 23 11.3333C22.2268 11.3333 21.6 11.9601 21.6 12.7333C21.6 13.5065 22.2268 14.1333 23 14.1333Z" fill="currentcolor"/>
<path d="M26.7331 14.1333C27.5063 14.1333 28.1331 13.5065 28.1331 12.7333C28.1331 11.9601 27.5063 11.3333 26.7331 11.3333C25.9599 11.3333 25.3331 11.9601 25.3331 12.7333C25.3331 13.5065 25.9599 14.1333 26.7331 14.1333Z" fill="currentcolor"/>
<path d="M19.2667 14.1333C20.0399 14.1333 20.6667 13.5065 20.6667 12.7333C20.6667 11.9601 20.0399 11.3333 19.2667 11.3333C18.4935 11.3333 17.8667 11.9601 17.8667 12.7333C17.8667 13.5065 18.4935 14.1333 19.2667 14.1333Z" fill="currentcolor"/>
</svg>
