<svg width="32" height="32" viewBox="0 0 32 32" fill="none" xmlns="http://www.w3.org/2000/svg">
<path d="M16.9355 7.63405V9.51959C19.7988 9.93108 22.0688 12.2011 22.4803 15.0644H24.3658C23.9329 11.1682 20.8315 8.06682 16.9353 7.63393L16.9355 7.63405Z" fill="currentcolor"/>
<path d="M15.0645 9.51971V7.63417C11.1683 8.06705 8.06694 11.1685 7.63405 15.0647H9.51959C9.93108 12.2013 12.2011 9.93131 15.0644 9.51982L15.0645 9.51971Z" fill="currentcolor"/>
<path d="M9.51971 16.9355H7.63417C8.06705 20.8317 11.1685 23.9331 15.0647 24.3659V22.4804C12.2013 22.0689 9.93131 19.7989 9.51982 16.9356L9.51971 16.9355Z" fill="currentcolor"/>
<path d="M16.9355 22.4803V24.3658C20.8317 23.9329 23.9331 20.8315 24.3659 16.9353H22.4804C22.0689 19.7987 19.7989 22.0687 16.9356 22.4802L16.9355 22.4803Z" fill="currentcolor"/>
<path d="M28.1253 15.0645H30C29.5373 8.07114 23.9287 2.46259 16.9355 2V3.87466C22.8969 4.33023 27.6698 9.10319 28.1253 15.0645Z" fill="currentcolor"/>
<path d="M16.9355 28.1253V30C23.9287 29.5373 29.5374 23.9289 30 16.9355H28.1253C27.6698 22.8968 22.8968 27.6698 16.9355 28.1253Z" fill="currentcolor"/>
<path d="M15.0645 3.87466V2C8.07126 2.46259 2.46259 8.07114 2 15.0645H3.87466C4.33023 9.10319 9.10319 4.33023 15.0645 3.87466Z" fill="currentcolor"/>
<path d="M3.87466 16.9355H2C2.4627 23.9289 8.07126 29.5374 15.0645 30V28.1253C9.10308 27.6698 4.33023 22.8968 3.87466 16.9355Z" fill="currentcolor"/>
<path d="M22.4803 15.0644L19.6234 15.0645C19.2842 13.7515 18.2484 12.7158 16.9355 12.3766V9.51795H15.0645V12.3766C13.7516 12.7158 12.7157 13.7516 12.3766 15.0645H9.51795V16.9355H12.3766C12.7158 18.2485 13.7516 19.2842 15.0645 19.6234V22.4824H16.9355V19.6234C18.2484 19.2842 19.2843 18.2484 19.6234 16.9355H22.4839V15.0645L22.4803 15.0644ZM17.6178 16.9355C17.4536 17.2181 17.2182 17.4537 16.9355 17.6178C16.6599 17.7777 16.341 17.8709 16 17.8709C15.659 17.8709 15.3401 17.7777 15.0645 17.6178C14.7819 17.4537 14.5464 17.2182 14.3822 16.9355C14.2223 16.66 14.1291 16.341 14.1291 16C14.1291 15.659 14.2223 15.34 14.3822 15.0645C14.5464 14.7819 14.7818 14.5463 15.0645 14.3822C15.3401 14.2223 15.659 14.1291 16 14.1291C16.341 14.1291 16.6599 14.2223 16.9355 14.3822C17.2181 14.5463 17.4536 14.7818 17.6178 15.0645C17.7777 15.34 17.8709 15.659 17.8709 16C17.8709 16.341 17.7777 16.66 17.6178 16.9355Z" fill="currentcolor"/>
</svg>
