<svg width="32" height="32" viewBox="0 0 32 32" fill="none" xmlns="http://www.w3.org/2000/svg">
<path d="M9.16964 15.0486C9.59158 12.0054 12.0054 9.59158 15.0486 9.16964V7.73139C11.2175 8.1695 8.1695 11.2175 7.73139 15.0486H9.16964Z" fill="currentcolor"/>
<path d="M22.8304 15.0486H24.2686C23.8305 11.2175 20.7825 8.1695 16.9514 7.73139V9.16964C19.9946 9.59158 22.4084 12.0054 22.8304 15.0486Z" fill="currentcolor"/>
<path d="M9.16964 16.9514H7.73139C8.1695 20.7825 11.2175 23.8305 15.0486 24.2686V22.8304C12.0054 22.4084 9.59158 19.9946 9.16964 16.9514Z" fill="currentcolor"/>
<path d="M16.9514 22.8304V24.2686C20.7825 23.8305 23.8305 20.7825 24.2686 16.9514H22.8304C22.4084 19.9946 19.9946 22.4084 16.9514 22.8304Z" fill="currentcolor"/>
<path d="M28.5701 15.0486H30C29.5303 8.06734 23.9325 2.46975 16.9514 2V3.42993C23.1454 3.89433 28.1057 8.85462 28.5701 15.0486Z" fill="currentcolor"/>
<path d="M3.42993 16.9514H2C2.46975 23.9327 8.06746 29.5303 15.0486 30V28.5701C8.85462 28.1057 3.89433 23.1454 3.42993 16.9514Z" fill="currentcolor"/>
<path d="M15.0486 3.42993V2C8.06734 2.46975 2.46975 8.06734 2 15.0486H3.42993C3.89433 8.85462 8.85462 3.89433 15.0486 3.42993Z" fill="currentcolor"/>
<path d="M16.9514 28.5701V30C23.9327 29.5303 29.5303 23.9325 30 16.9514H28.5701C28.1057 23.1454 23.1454 28.1057 16.9514 28.5701Z" fill="currentcolor"/>
<path d="M19.4378 16.9514C19.4596 16.873 19.4795 16.7939 19.4959 16.7135H22.5943V15.2865H19.4959C19.4795 15.2061 19.4596 15.127 19.4378 15.0486C19.1044 13.845 18.1549 12.8956 16.9514 12.5622C16.873 12.5404 16.7939 12.5204 16.7135 12.5041V9.40761H15.2865V12.5041C15.2061 12.5205 15.127 12.5405 15.0486 12.5622C13.8451 12.8956 12.8956 13.8451 12.5622 15.0486C12.5404 15.127 12.5205 15.2061 12.5041 15.2865H9.40761V16.7135H12.5041C12.5205 16.7939 12.5404 16.873 12.5622 16.9514C12.8956 18.155 13.8451 19.1044 15.0486 19.4378C15.127 19.4596 15.2061 19.4796 15.2865 19.4959V22.5927H16.7135V19.4959C16.7939 19.4795 16.873 19.4595 16.9514 19.4378C18.1549 19.1044 19.1044 18.1549 19.4378 16.9514ZM16 18.1406C15.658 18.1406 15.3357 18.058 15.0486 17.9148C14.632 17.7069 14.2931 17.368 14.0852 16.9514C13.942 16.6643 13.8594 16.342 13.8594 16C13.8594 15.658 13.942 15.3357 14.0852 15.0486C14.2931 14.632 14.632 14.2931 15.0486 14.0852C15.3357 13.942 15.658 13.8594 16 13.8594C16.342 13.8594 16.6643 13.942 16.9514 14.0852C17.368 14.2931 17.7069 14.632 17.9148 15.0486C18.058 15.3357 18.1406 15.658 18.1406 16C18.1406 16.342 18.058 16.6643 17.9148 16.9514C17.7069 17.368 17.368 17.7069 16.9514 17.9148C16.6643 18.058 16.342 18.1406 16 18.1406Z" fill="currentcolor"/>
</svg>
