<svg width="32" height="32" viewBox="0 0 32 32" fill="none" xmlns="http://www.w3.org/2000/svg">
<path d="M15.9998 2C14.5962 2 13.4543 3.14189 13.4543 4.54544C13.4543 5.949 14.5962 7.09089 15.9998 7.09089C17.4033 7.09089 18.5452 5.949 18.5452 4.54544C18.5452 3.14189 17.4033 2 15.9998 2ZM15.9998 6.07271C15.1576 6.07271 14.4725 5.3876 14.4725 4.54544C14.4725 3.70328 15.1576 3.01818 15.9998 3.01818C16.8419 3.01818 17.5271 3.70328 17.5271 4.54544C17.5271 5.3876 16.8419 6.07271 15.9998 6.07271Z" fill="currentcolor"/>
<path d="M16.5089 9.63633H15.4907V29.9999H16.5089V9.63633Z" fill="currentcolor"/>
<path d="M7.34528 16.7636C7.34528 15.36 6.20339 14.2181 4.79984 14.2181C3.39628 14.2181 2.25439 15.36 2.25439 16.7636C2.25439 18.1671 3.39628 19.309 4.79984 19.309C5.31784 19.309 5.79969 19.1526 6.20212 18.8858L7.34528 20.029V29.9999H8.36346V19.6072L6.9221 18.1659C7.18886 17.7634 7.34528 17.2816 7.34528 16.7636ZM4.79984 18.2908C3.95768 18.2908 3.27257 17.6057 3.27257 16.7636C3.27257 15.9214 3.95768 15.2363 4.79984 15.2363C5.642 15.2363 6.3271 15.9214 6.3271 16.7636C6.3271 17.6057 5.642 18.2908 4.79984 18.2908Z" fill="currentcolor"/>
<path d="M11.418 10.6545C11.418 9.25095 10.2761 8.10906 8.87255 8.10906C7.46899 8.10906 6.3271 9.25095 6.3271 10.6545C6.3271 12.0581 7.46899 13.1999 8.87255 13.1999C9.25704 13.1999 9.6204 13.1117 9.94749 12.9585L11.418 14.429V29.9999H12.4362V14.0072L10.772 12.343C11.1724 11.8931 11.418 11.3027 11.418 10.6545ZM8.87255 12.1818C8.03039 12.1818 7.34528 11.4967 7.34528 10.6545C7.34528 9.81235 8.03039 9.12724 8.87255 9.12724C9.71471 9.12724 10.3998 9.81235 10.3998 10.6545C10.3998 11.4967 9.71471 12.1818 8.87255 12.1818Z" fill="currentcolor"/>
<path d="M25.6725 10.6545C25.6725 9.25095 24.5306 8.10906 23.127 8.10906C21.7235 8.10906 20.5816 9.25095 20.5816 10.6545C20.5816 11.3027 20.8272 11.8932 21.2276 12.3432L19.5634 14.0074V30H20.5816V14.4291L22.0521 12.9586C22.3792 13.1119 22.7427 13.2001 23.127 13.2001C24.5306 13.2001 25.6725 12.0581 25.6725 10.6545ZM23.127 12.1818C22.2849 12.1818 21.5998 11.4967 21.5998 10.6545C21.5998 9.81235 22.2849 9.12724 23.127 9.12724C23.9692 9.12724 24.6543 9.81235 24.6543 10.6545C24.6543 11.4967 23.9692 12.1818 23.127 12.1818Z" fill="currentcolor"/>
<path d="M27.1997 14.2181C25.7962 14.2181 24.6543 15.36 24.6543 16.7636C24.6543 17.2816 24.8107 17.7634 25.0775 18.1659L23.6361 19.6072V29.9999H24.6543V20.029L25.7974 18.8858C26.1999 19.1526 26.6817 19.309 27.1997 19.309C28.6033 19.309 29.7452 18.1671 29.7452 16.7636C29.7452 15.36 28.6033 14.2181 27.1997 14.2181ZM27.1997 18.2908C26.3576 18.2908 25.6725 17.6057 25.6725 16.7636C25.6725 15.9214 26.3576 15.2363 27.1997 15.2363C28.0419 15.2363 28.727 15.9214 28.727 16.7636C28.727 17.6057 28.0419 18.2908 27.1997 18.2908Z" fill="currentcolor"/>
</svg>
