<svg width="32" height="32" viewBox="0 0 32 32" fill="none" xmlns="http://www.w3.org/2000/svg">
<path d="M16.9299 9.46667H15.0633V15.0667H16.9299V9.46667Z" fill="currentcolor"/>
<path d="M20.6605 15.0626L16.9302 15.0667L16.9322 16.9334L20.6625 16.9293L20.6605 15.0626Z" fill="currentcolor"/>
<path d="M30 16C30 8.2804 23.7196 2 16 2C8.2804 2 2 8.2804 2 16H3.86667C3.86667 9.30963 9.30963 3.86667 16 3.86667C22.6904 3.86667 28.1333 9.30963 28.1333 16C28.1333 19.6591 26.5061 23.0862 23.6686 25.4025L22.8687 26.0555L24.9468 28.1335H19.7333V22.9201L21.5694 24.7562L22.2174 24.2683C24.8404 22.2932 26.3448 19.2796 26.3448 16C26.3448 10.2958 21.7042 5.65517 16 5.65517C10.2958 5.65517 5.65517 10.2958 5.65517 16C5.65517 21.7042 10.2958 26.3448 16 26.3448V24.4782C11.3252 24.4782 7.52183 20.6748 7.52183 16C7.52183 11.3252 11.3252 7.52183 16 7.52183C20.6748 7.52183 24.4782 11.3252 24.4782 16C24.4782 18.4172 23.4807 20.6584 21.7158 22.2628L20.1199 20.6667H17.8667V30H27.2V27.7467L25.6224 26.1691C28.4166 23.529 30 19.8775 30 16Z" fill="currentcolor"/>
</svg>
