<svg width="32" height="32" viewBox="0 0 32 32" fill="none" xmlns="http://www.w3.org/2000/svg">
<path d="M15.0433 20.7268L29.9994 11.7531V10.4391L21.5563 2.00098H20.2424L11.2691 16.9523L7.89875 20.3226L11.6731 24.097L15.0433 20.7268ZM20.9374 2.82173L29.1787 11.0584L14.8066 19.6816L12.3143 17.1893L20.9374 2.82173ZM11.6733 17.9881L14.0077 20.3226L11.6733 22.6571L9.33879 20.3226L11.6733 17.9881Z" fill="currentcolor"/>
<path d="M29.9997 28.9768L5.56605 28.9818C4.16114 28.9818 3.01814 27.8389 3.01814 26.4339C3.01814 25.0289 4.16101 23.886 5.56605 23.886H7.60069V22.8678H5.56605C3.59976 22.8678 2 24.4675 2 26.4339C2 28.4003 3.59963 30 5.56618 30L30 29.995L29.9997 28.9768Z" fill="currentcolor"/>
</svg>
