<svg width="32" height="32" viewBox="0 0 32 32" fill="none" xmlns="http://www.w3.org/2000/svg">
<path d="M10.0021 6L13 17.1275V30H15V16.8627L12.0735 6H10.0021Z" fill="currentcolor"/>
<path d="M17 16.8627V30H19V17.1275L21.9979 6H19.9265L17 16.8627Z" fill="currentcolor"/>
<path d="M25.5 2H6.5C4.01863 2 2 4.01863 2 6.5C2 8.00812 2.7465 9.34425 3.8885 10.1613C3.97263 11.7408 5.284 13 6.884 13C8.53813 13 9.884 11.6541 9.884 10C9.884 8.34587 8.53813 7 6.884 7C5.95475 7 5.123 7.42475 4.57225 8.09013C4.21487 7.65775 4 7.1035 4 6.5C4 5.1215 5.1215 4 6.5 4H25.5C26.8785 4 28 5.1215 28 6.5C28 7.13662 27.7589 7.71662 27.3656 8.15837C26.8161 7.45412 25.9604 7 25 7C23.3459 7 22 8.34587 22 10C22 11.6541 23.3459 13 25 13C26.5711 13 27.8631 11.7857 27.989 10.2466C29.2001 9.43937 30 8.0615 30 6.5C30 4.01863 27.9814 2 25.5 2ZM6.884 9C7.43537 9 7.884 9.44863 7.884 10C7.884 10.5514 7.43537 11 6.884 11C6.33262 11 5.884 10.5514 5.884 10C5.884 9.44863 6.33262 9 6.884 9ZM25 11C24.4486 11 24 10.5514 24 10C24 9.44863 24.4486 9 25 9C25.5514 9 26 9.44863 26 10C26 10.5514 25.5514 11 25 11Z" fill="currentcolor"/>
</svg>
