<svg width="32" height="32" viewBox="0 0 32 32" fill="none" xmlns="http://www.w3.org/2000/svg">
<path d="M10.4203 5.56364L13.4545 16.826V30H14.4726V16.6913L11.4747 5.56364H10.4203Z" fill="currentcolor"/>
<path d="M17.5272 16.6913V30H18.5454V16.826L21.5795 5.56364H20.5251L17.5272 16.6913Z" fill="currentcolor"/>
<path d="M29.7454 6.07273C29.7454 3.827 27.9184 2 25.6726 2H6.32718C4.08146 2 2.25446 3.827 2.25446 6.07273C2.25446 7.53 3.02433 8.81024 4.17818 9.53009C4.17678 9.5656 4.17284 9.60047 4.17284 9.63636C4.17284 11.0399 5.31473 12.1818 6.71829 12.1818C8.12186 12.1818 9.26375 11.0399 9.26375 9.63636C9.26375 8.2328 8.12186 7.09091 6.71829 7.09091C5.73053 7.09091 4.87449 7.65753 4.45271 8.48175C3.7354 7.92225 3.27276 7.05082 3.27276 6.07273C3.27276 4.38853 4.64311 3.01818 6.32731 3.01818H25.6728C27.357 3.01818 28.7273 4.38853 28.7273 6.07273C28.7273 7.08964 28.2274 7.99149 27.4608 8.54691C27.0516 7.68756 26.1771 7.09091 25.1637 7.09091C23.7601 7.09091 22.6182 8.2328 22.6182 9.63636C22.6182 11.0399 23.7601 12.1818 25.1637 12.1818C26.5672 12.1818 27.7091 11.0399 27.7091 9.63636C27.7091 9.62364 27.7073 9.61129 27.7072 9.59856C28.9243 8.89347 29.7455 7.5776 29.7455 6.07273H29.7454ZM6.71816 8.10909C7.56033 8.10909 8.24544 8.7942 8.24544 9.63636C8.24544 10.4785 7.56033 11.1636 6.71816 11.1636C5.876 11.1636 5.19089 10.4785 5.19089 9.63636C5.19089 8.7942 5.876 8.10909 6.71816 8.10909ZM25.1635 11.1636C24.3214 11.1636 23.6363 10.4785 23.6363 9.63636C23.6363 8.7942 24.3214 8.10909 25.1635 8.10909C26.0057 8.10909 26.6908 8.7942 26.6908 9.63636C26.6908 10.4785 26.0057 11.1636 25.1635 11.1636Z" fill="currentcolor"/>
</svg>
