<svg width="32" height="32" viewBox="0 0 32 32" fill="none" xmlns="http://www.w3.org/2000/svg">
<path d="M13.2 14.3163C13.2 14.3978 13.1607 14.4748 13.0946 14.5225L10.6851 16.2656V12.0185C10.6851 11.0309 11.1606 10.1301 11.9273 9.56942V7.82298C10.2563 8.53558 9.15782 10.1774 9.15782 12.0185V16.9134C9.15782 17.3556 9.40002 17.7598 9.78985 17.9685C9.96715 18.0633 10.1611 18.1103 10.3546 18.1103C10.5865 18.1103 10.8176 18.0429 11.018 17.9091L13.9897 15.76C14.4515 15.4259 14.7273 14.8862 14.7273 14.3162V11.9271H13.2V14.3163Z" fill="currentcolor"/>
<path d="M20.0727 7.81624V9.5586C20.8485 10.1183 21.3307 11.0243 21.3307 12.0185V16.2675L18.9056 14.5213C18.8395 14.4736 18.7999 14.3965 18.7999 14.3149V11.9273H17.2726V14.3149C17.2726 14.8864 17.5495 15.4269 18.0132 15.7607L20.975 17.8934L20.9977 17.9091C21.1983 18.0429 21.4293 18.1103 21.6612 18.1103C21.8547 18.1103 22.0488 18.0633 22.2261 17.9684C22.6158 17.7598 22.858 17.3556 22.858 16.9134V12.0185C22.858 10.1715 21.7525 8.52527 20.0727 7.81624Z" fill="currentcolor"/>
<path d="M13.2004 9.88671L14.7277 9.88645L14.7273 5.81818L13.2 5.81831L13.2004 9.88671Z" fill="currentcolor"/>
<path d="M17.2727 9.88671L18.8 9.88645L18.7996 5.81818L17.2723 5.81831L17.2727 9.88671Z" fill="currentcolor"/>
<path d="M2 21.8545H30V2H2V21.8545ZM3.52727 3.52727H28.4727V20.3273H3.52727V3.52727Z" fill="currentcolor"/>
<path d="M7.09091 24.1455V30H24.9091V24.1455H23.3818V28.4727H8.61818V24.1455H7.09091Z" fill="currentcolor"/>
<path d="M14.9818 24.4H10.9091V25.9273H14.9818V24.4Z" fill="currentcolor"/>
</svg>
