<svg width="32" height="32" viewBox="0 0 32 32" fill="none" xmlns="http://www.w3.org/2000/svg">
<path d="M10.2963 19.1112C10.2963 22.2563 12.8549 24.8149 16 24.8149C19.1451 24.8149 21.7037 22.2563 21.7037 19.1112V15.4816H10.2963V19.1112ZM11.3333 16.5186H20.6667V19.1112C20.6667 21.6845 18.5733 23.7778 16 23.7778C13.4267 23.7778 11.3333 21.6845 11.3333 19.1112V16.5186Z" fill="currentcolor"/>
<path d="M7.18518 14.963H6.14815V18.0741H7.18518V14.963Z" fill="currentcolor"/>
<path d="M26.3704 11.3334H5.62963V12.3704H26.3704V11.3334Z" fill="currentcolor"/>
<path d="M28.963 27.926H3.03704V8.74081H2V28.963H30V8.74081H28.963V27.926Z" fill="currentcolor"/>
<path d="M3.03704 4.07415H28.963V6.66674H30V3.03711H2V6.66674H3.03704V4.07415Z" fill="currentcolor"/>
<path d="M28.4444 7.18526H3.55556V8.22229H28.4444V7.18526Z" fill="currentcolor"/>
</svg>
