<svg width="32" height="32" viewBox="0 0 32 32" fill="none" xmlns="http://www.w3.org/2000/svg">
<path d="M3.93103 11.1725H2V20.8277H3.93103V11.1725Z" fill="currentcolor"/>
<path d="M24.2069 16.0001C24.2069 18.1397 23.0402 20.0106 21.3103 21.0138V23.1585C24.138 22.0102 26.1379 19.235 26.1379 16.0001C26.1379 12.7651 24.138 9.98996 21.3103 8.8416V10.9864C23.0402 11.9896 24.2069 13.8605 24.2069 16.0001Z" fill="currentcolor"/>
<path d="M21.3103 4.78052V6.7894C25.2233 8.02272 28.069 11.6851 28.069 16.0001C28.069 20.3151 25.2233 23.9775 21.3103 25.2107V27.2196C26.3019 25.9302 30 21.3889 30 16.0001C30 10.6113 26.3019 6.06997 21.3103 4.78052Z" fill="currentcolor"/>
<path d="M22.2759 16.0001C22.2759 15.0232 21.9105 14.1306 21.3103 13.4497C20.8068 12.8786 20.1383 12.4563 19.3793 12.2603V5.37938H15.2456L5.86207 11.1138V20.8864L15.2456 26.6209H19.3793V19.74C20.1383 19.5439 20.8068 19.1217 21.3103 18.5506C21.9105 17.8698 22.2759 16.9769 22.2759 16.0001ZM17.4483 24.6897H15.7889L7.7931 19.8035V12.1968L15.7889 7.31053H17.4483V24.6897ZM19.3793 17.6698V14.3303C19.9555 14.6649 20.3448 15.2872 20.3448 16.0001C20.3448 16.713 19.9555 17.3353 19.3793 17.6698Z" fill="currentcolor"/>
</svg>
