<svg width="32" height="32" viewBox="0 0 32 32" fill="none" xmlns="http://www.w3.org/2000/svg">
<path d="M3.47368 11.0878H2V20.9123H3.47368V11.0878Z" fill="currentcolor"/>
<path d="M24.5965 16.0001C24.5965 18.3184 23.3047 20.3403 21.4035 21.385V23.0201C24.1425 21.8658 26.0702 19.1539 26.0702 16.0001C26.0702 12.8463 24.1425 10.1343 21.4035 8.98005V10.6151C23.3047 11.6599 24.5965 13.6817 24.5965 16.0001Z" fill="currentcolor"/>
<path d="M21.4035 4.83813V6.37089C25.5226 7.6342 28.5263 11.4725 28.5263 16.0001C28.5263 20.5276 25.5226 24.3659 21.4035 25.6292V27.162C26.3456 25.8559 30 21.347 30 16.0001C30 10.6532 26.3456 6.14419 21.4035 4.83813Z" fill="currentcolor"/>
<path d="M22.1404 16.0001C22.1404 15.1725 21.866 14.4079 21.4035 13.7921C20.9209 13.1496 20.2332 12.6702 19.4386 12.45C19.3577 12.4275 19.276 12.407 19.193 12.39V5.43866H15.3015L5.92982 11.1658V20.8344L15.3015 26.5615H19.193V19.6101C19.276 19.5932 19.3577 19.5726 19.4386 19.5502C20.2332 19.33 20.9209 18.8505 21.4035 18.208C21.866 17.5923 22.1404 16.8277 22.1404 16.0001ZM17.7193 25.0878H15.7161L7.40351 20.0079V11.9923L15.7161 6.91235H17.7193V25.0878ZM19.4386 17.9774C19.3593 18.0169 19.2774 18.0517 19.193 18.0816V13.9186C19.2774 13.9486 19.3593 13.9833 19.4386 14.0229C20.1652 14.3855 20.6667 15.1345 20.6667 16.0002C20.6667 16.8659 20.1652 17.6147 19.4386 17.9774Z" fill="currentcolor"/>
</svg>
