<svg width="32" height="32" viewBox="0 0 32 32" fill="none" xmlns="http://www.w3.org/2000/svg">
<path d="M3.00991 25.8468V9.68813C3.00991 8.29596 4.14253 7.16334 5.5347 7.16334H8.56444V6.15343H5.5347C3.58569 6.15343 2 7.73912 2 9.68813V25.8468C2 27.7958 3.58569 29.3815 5.5347 29.3815H22.7032V28.3715H5.5347C4.14253 28.3715 3.00991 27.2389 3.00991 25.8468Z" fill="currentcolor"/>
<path d="M29.2677 11.703V9.68813C29.2677 7.73912 27.682 6.15343 25.733 6.15343H22.7032V7.16334H25.733C27.1252 7.16334 28.2578 8.29596 28.2578 9.68813V11.703H29.2677Z" fill="currentcolor"/>
<path d="M21.1884 7.6683C21.1884 4.60548 18.6967 2.11377 15.6338 2.11377C12.571 2.11377 10.0793 4.60548 10.0793 7.6683C10.0793 10.7311 12.571 13.2228 15.6338 13.2228C18.6967 13.2228 21.1884 10.7311 21.1884 7.6683ZM15.6338 12.2129C13.1279 12.2129 11.0892 10.1743 11.0892 7.6683C11.0892 5.16232 13.1279 3.12368 15.6338 3.12368C18.1398 3.12368 20.1785 5.16232 20.1785 7.6683C20.1785 10.1743 18.1398 12.2129 15.6338 12.2129Z" fill="currentcolor"/>
<path d="M17.2965 5.79635L15.2768 7.81632L15.991 8.53037L18.0106 6.5104L17.2965 5.79635Z" fill="currentcolor"/>
<path d="M25.228 16.7575H24.2181V29.8864H25.228V16.7575Z" fill="currentcolor"/>
<path d="M24.9317 11.708H24.5136L19.4729 16.7575H20.9L24.7241 12.9267L28.5691 16.7575H30L24.9317 11.708Z" fill="currentcolor"/>
</svg>
