<svg width="32" height="32" viewBox="0 0 32 32" fill="none" xmlns="http://www.w3.org/2000/svg">
<path d="M14.8358 7.29279L12.8358 9.29269L14.25 10.7069L16.25 8.70706L14.8358 7.29279Z" fill="currentcolor"/>
<path d="M3.54297 26V10C3.54297 8.89725 4.44022 8 5.54297 8H8.54297V6H5.54297C3.33734 6 1.54297 7.79437 1.54297 10V26C1.54297 28.2056 3.33734 30 5.54297 30H19.543V28H5.54297C4.44022 28 3.54297 27.1028 3.54297 26Z" fill="currentcolor"/>
<path d="M29.543 10C29.543 7.79437 27.7486 6 25.543 6H22.543V8H25.543C26.6457 8 27.543 8.89725 27.543 10V23H29.543V10Z" fill="currentcolor"/>
<path d="M15.543 14C18.8513 14 21.543 11.3085 21.543 8C21.543 4.6915 18.8513 2 15.543 2C12.2346 2 9.54297 4.6915 9.54297 8C9.54297 11.3085 12.2346 14 15.543 14ZM15.543 4C17.7486 4 19.543 5.79437 19.543 8C19.543 10.2056 17.7486 12 15.543 12C13.3373 12 11.543 10.2056 11.543 8C11.543 5.79437 13.3373 4 15.543 4Z" fill="currentcolor"/>
<path d="M25.543 12H23.543V24.9951H25.543V12Z" fill="currentcolor"/>
<path d="M27.6287 25L24.543 28.0859L21.4572 25H18.6287L23.6287 30H25.4572L30.4572 25H27.6287Z" fill="currentcolor"/>
</svg>
