<svg width="32" height="32" viewBox="0 0 32 32" fill="none" xmlns="http://www.w3.org/2000/svg">
<path d="M19.0545 22.3638V23.891H20.4173C20.7631 25.3486 22.0746 26.4364 23.6364 26.4364C25.4609 26.4364 26.9455 24.9519 26.9455 23.1273C26.9455 21.3027 25.4609 19.8182 23.6364 19.8182C22.0745 19.8182 20.7628 20.9062 20.4171 22.3639L19.0545 22.3638ZM23.6364 21.3455C24.6189 21.3455 25.4182 22.1447 25.4182 23.1273C25.4182 24.1098 24.6189 24.9091 23.6364 24.9091C22.6538 24.9091 21.8545 24.1098 21.8545 23.1273C21.8545 22.1447 22.6538 21.3455 23.6364 21.3455Z" fill="currentcolor"/>
<path d="M17.0182 22.3638H14.9818V23.891H17.0182V22.3638Z" fill="currentcolor"/>
<path d="M7.79282 12.9455L2 18.7383V30H14.7273V24.1455H13.2V28.4727H3.52727V19.3708L8.36364 14.5345L13.2 19.3708V22.1091H14.7273V18.7383L8.93445 12.9455H7.79282Z" fill="currentcolor"/>
<path d="M17.2727 2V22.1091H18.8V3.52727H28.4727V28.4727H18.8V24.1455H17.2727V30H30V2H17.2727Z" fill="currentcolor"/>
<path d="M8.36364 19.8182C6.53905 19.8182 5.05455 21.3027 5.05455 23.1273C5.05455 24.9519 6.53905 26.4364 8.36364 26.4364C9.9254 26.4364 11.2369 25.3484 11.5827 23.8909H12.9455V22.3636H11.5827C11.2369 20.906 9.9254 19.8181 8.36364 19.8181V19.8182ZM8.36364 24.9091C7.38109 24.9091 6.58182 24.1098 6.58182 23.1273C6.58182 22.1447 7.38109 21.3455 8.36364 21.3455C9.34618 21.3455 10.1455 22.1447 10.1455 23.1273C10.1455 24.1098 9.34618 24.9091 8.36364 24.9091Z" fill="currentcolor"/>
<path d="M26.1818 6.07273H21.0909V7.6H26.1818V6.07273Z" fill="currentcolor"/>
<path d="M26.1818 10.1455H21.0909V11.6727H26.1818V10.1455Z" fill="currentcolor"/>
<path d="M26.1818 14.2182H21.0909V15.7455H26.1818V14.2182Z" fill="currentcolor"/>
</svg>
