<svg width="32" height="32" viewBox="0 0 32 32" fill="none" xmlns="http://www.w3.org/2000/svg">
<path d="M19.1111 22.7409V23.7779H20.7107C20.9585 25.2473 22.2391 26.3704 23.7778 26.3704C25.4933 26.3704 26.8889 24.9748 26.8889 23.2593C26.8889 21.5437 25.4933 20.1481 23.7778 20.1481C22.2389 20.1481 20.9582 21.2714 20.7106 22.741L19.1111 22.7409ZM23.7778 21.1852C24.9214 21.1852 25.8519 22.1157 25.8519 23.2593C25.8519 24.4029 24.9214 25.3333 23.7778 25.3333C22.6342 25.3333 21.7037 24.4029 21.7037 23.2593C21.7037 22.1157 22.6342 21.1852 23.7778 21.1852Z" fill="currentcolor"/>
<path d="M17.037 22.7409H14.963V23.7779H17.037V22.7409Z" fill="currentcolor"/>
<path d="M8.00743 12.8889L2 18.8963V30H14.4444V24.2963H13.4074V28.963H3.03704V19.3259L8.22222 14.1407L13.4074 19.3259V22.2222H14.4444V18.8963L8.43702 12.8889H8.00743Z" fill="currentcolor"/>
<path d="M17.5556 2V22.2222H18.5926V3.03704H28.963V28.963H18.5926V24.2963H17.5556V30H30V2H17.5556Z" fill="currentcolor"/>
<path d="M8.22222 20.1481C6.5067 20.1481 5.11111 21.5437 5.11111 23.2593C5.11111 24.9748 6.5067 26.3704 8.22222 26.3704C9.76106 26.3704 11.0417 25.2473 11.2893 23.7778H12.8889V22.7407H11.2893C11.0417 21.2713 9.76093 20.148 8.22222 20.148V20.1481ZM8.22222 25.3333C7.07863 25.3333 6.14815 24.4029 6.14815 23.2593C6.14815 22.1157 7.07863 21.1852 8.22222 21.1852C9.36581 21.1852 10.2963 22.1157 10.2963 23.2593C10.2963 24.4029 9.36581 25.3333 8.22222 25.3333Z" fill="currentcolor"/>
<path d="M26.3704 6.14815H21.1852V7.18518H26.3704V6.14815Z" fill="currentcolor"/>
<path d="M26.3704 10.2963H21.1852V11.3333H26.3704V10.2963Z" fill="currentcolor"/>
<path d="M26.3704 14.4444H21.1852V15.4815H26.3704V14.4444Z" fill="currentcolor"/>
</svg>
