<svg width="32" height="32" viewBox="0 0 32 32" fill="none" xmlns="http://www.w3.org/2000/svg">
<path d="M29.6651 14.251C28.4129 12.9988 26.8927 12.1741 25.2877 11.7753C25.7451 10.7213 26 9.56 26 8.33988V6.00013H23.6604C22.4402 6.00013 21.2789 6.25513 20.2249 6.71238C19.826 5.10725 19.0014 3.58725 17.7491 2.33488L17.4142 2H14.5857L14.2509 2.33488C12.9986 3.58713 12.174 5.10725 11.7751 6.71238C10.7211 6.255 9.55988 6.00013 8.33962 6.00013H6V8.33988C6 9.56 6.255 10.7214 6.71225 11.7753C5.10713 12.1741 3.58712 12.9988 2.33488 14.251L2 14.5859V17.4144L2.33488 17.7493C3.58875 19.0031 5.11112 19.8284 6.7185 20.2266C6.25737 21.2843 6 22.4504 6 23.6759V26.0155H8.33962C9.56125 26.0155 10.7239 25.7599 11.7787 25.3015C12.1789 26.9015 13.0021 28.4166 14.2509 29.6653L14.5857 30.0001H17.4142L17.7491 29.6653C19.0014 28.413 19.826 26.8929 20.2249 25.2878C21.2789 25.7451 22.4401 26 23.6602 26H25.9999V23.6604C25.9999 22.4403 25.7449 21.2789 25.2875 20.2249C26.8926 19.826 28.4128 19.0014 29.665 17.7491L29.9999 17.4143V14.5858L29.665 14.2509L29.6651 14.251ZM20.5007 8.79875C21.4415 8.28963 22.5177 8.00013 23.6604 8.00013H24V8.33988C24 9.4825 23.7105 10.5588 23.2014 11.4995C22.1284 11.4768 21.053 11.6354 20.0242 11.9759C20.3647 10.9473 20.5235 9.87175 20.5007 8.79875ZM8.00012 8.33975V8H8.33975C9.4825 8 10.5586 8.2895 11.4994 8.79863C11.4766 9.87163 11.6352 10.947 11.9757 11.9758C10.9471 11.6353 9.87162 11.4766 8.79862 11.4994C8.2895 10.5586 8.00012 9.48238 8.00012 8.33975ZM11.4997 23.2166C10.5589 23.7259 9.4825 24.0155 8.33975 24.0155H8.00012V23.6759C8.00012 22.5271 8.2925 21.4453 8.80675 20.501C8.87125 20.5023 8.93562 20.5056 9.00012 20.5056C10.0061 20.5056 11.0115 20.3436 11.9759 20.0244C11.6337 21.0579 11.4751 22.1386 11.4997 23.2166ZM24 23.6605V24.0001H23.6604C22.5177 24.0001 21.4415 23.7106 20.5007 23.2015C20.5235 22.1285 20.3649 21.0531 20.0244 20.0244C20.9886 20.3436 21.9941 20.5056 23.0001 20.5056C23.0672 20.5056 23.1342 20.5023 23.2014 20.5009C23.7105 21.4416 24.0001 22.5179 24.0001 23.6606L24 23.6605ZM28.251 16.335C25.5982 18.9879 21.4225 19.2084 18.5142 17.0001H17.0001V18.5143C19.2081 21.4224 18.9877 25.5983 16.335 28.2509L16.0001 28.5859L15.6652 28.2509C13.0126 25.5983 12.7921 21.4224 15.0001 18.5143V17.0001H13.486C10.5777 19.2083 6.402 18.9878 3.74925 16.335L3.41437 16.0001L3.74925 15.6653C6.402 13.0124 10.5777 12.7919 13.486 15.0001H15.0001V13.486C12.7921 10.5779 13.0125 6.402 15.6652 3.74938L16.0001 3.41438L16.335 3.74938C18.9876 6.402 19.2081 10.578 17.0001 13.486V15.0001H18.5142C21.4225 12.792 25.5982 13.0125 28.251 15.6653L28.5859 16.0001L28.251 16.335Z" fill="currentcolor"/>
</svg>
