<svg width="32" height="32" viewBox="0 0 32 32" fill="none" xmlns="http://www.w3.org/2000/svg">
<path d="M29.4886 14.4277C28.1936 13.1326 26.6041 12.3089 24.9339 11.9514C25.4567 10.8564 25.7502 9.63188 25.7502 8.33975V6.25H23.6606C22.3685 6.25 21.1439 6.54363 20.0489 7.0665C19.6914 5.39625 18.8676 3.80675 17.5726 2.51175L17.0609 2H14.9396L14.4279 2.51175C13.1327 3.80675 12.3091 5.39625 11.9516 7.0665C10.8566 6.54363 9.63199 6.25 8.33987 6.25H6.25024V8.33975C6.25024 9.63188 6.54374 10.8564 7.06662 11.9514C5.39637 12.3089 3.80687 13.1326 2.51187 14.4277L2.00024 14.9394V17.0606L2.51187 17.5723C3.80862 18.869 5.40049 19.6932 7.07299 20.05C6.54599 21.1485 6.25012 22.3781 6.25012 23.6758V25.7654H8.33974C9.63299 25.7654 10.8587 25.4714 11.9545 24.9475C12.3136 26.6126 13.1362 28.1968 14.4277 29.4883L14.9395 30H17.0607L17.5725 29.4883C18.8676 28.1933 19.6912 26.6038 20.0487 24.9335C21.1437 25.4564 22.3684 25.7499 23.6604 25.7499H25.75V23.6602C25.75 22.3681 25.4564 21.1435 24.9335 20.0485C26.6037 19.691 28.1932 18.8672 29.4884 17.5721L30 17.0605V14.9392L29.4884 14.4276L29.4886 14.4277ZM20.2476 8.65537C21.2552 8.08037 22.4197 7.75 23.6606 7.75H24.2502V8.33975C24.2502 9.5805 23.9199 10.7449 23.3449 11.7525C22.078 11.7052 20.8035 11.918 19.6087 12.3914C20.0821 11.1966 20.2947 9.92225 20.2476 8.65537ZM7.75024 8.33975V7.75H8.33987C9.58074 7.75 10.7451 8.08037 11.7529 8.65537C11.7056 9.92225 11.9184 11.1966 12.3917 12.3914C11.197 11.918 9.92249 11.7052 8.65562 11.7525C8.08074 10.7449 7.75024 9.5805 7.75024 8.33975ZM11.7532 23.3599C10.7455 23.935 9.58099 24.2655 8.33999 24.2655H7.75037V23.6759C7.75037 22.4287 8.08412 21.2589 8.66449 20.2477C8.77649 20.2517 8.88837 20.2558 9.00037 20.2558C10.1531 20.2558 11.3054 20.0391 12.3919 19.6086C11.9166 20.8083 11.7037 22.088 11.7532 23.3599ZM24.2502 23.6605V24.2501H23.6606C22.4197 24.2501 21.2554 23.9198 20.2477 23.3447C20.295 22.0779 20.0822 20.8034 19.6089 19.6086C20.6954 20.0391 21.8476 20.2558 23.0004 20.2558C23.1152 20.2558 23.2301 20.2519 23.3449 20.2475C23.9199 21.2551 24.2502 22.4196 24.2502 23.6605ZM28.428 16.5119C25.6084 19.3314 21.1232 19.4934 18.1109 17.0001H17.0004V18.1106C19.4937 21.1231 19.3317 25.608 16.512 28.4279L16.0004 28.9395L15.4887 28.4279C12.6691 25.6081 12.507 21.1231 15.0004 18.1106V17.0001H13.8899C10.8775 19.4934 6.39237 19.3314 3.57274 16.5119L3.06112 16.0001L3.57274 15.4884C6.39237 12.6689 10.8775 12.5069 13.8899 15.0001H15.0004V13.8896C12.507 10.8771 12.669 6.39213 15.4887 3.57238L16.0004 3.06075L16.512 3.57238C19.3316 6.39213 19.4937 10.877 17.0004 13.8896V15.0001H18.1109C21.1232 12.5069 25.6084 12.6689 28.428 15.4884L28.9396 16.0001L28.428 16.5119Z" fill="currentcolor"/>
</svg>
