<svg width="32" height="32" viewBox="0 0 32 32" fill="none" xmlns="http://www.w3.org/2000/svg">
<path d="M8.50113 15.4976V29.9976H23.5011V15.4976H22.5011V28.9976H9.50113V15.4976H8.50113Z" fill="black"/>
<path d="M25.2083 6.99757H19.5011V7.49757C19.5011 9.42744 17.931 10.9976 16.0011 10.9976C14.0712 10.9976 12.5011 9.42744 12.5011 7.49757V6.99757H6.794L2 11.7916V13.2037L6 17.2036V15.7894L2.70825 12.4977L7.20825 7.99769H11.5286C11.7781 10.2446 13.6887 11.9977 16.001 11.9977C18.3132 11.9977 20.2239 10.2446 20.4734 7.99769H24.7938L29.2938 12.4977L25.9998 15.7917V17.2058L29.9998 13.2059V11.7894L25.208 6.99769L25.2083 6.99757Z" fill="black"/>
<path d="M16 6.00244H15.5V8.50244H16.5V6.95232C17.6396 6.71994 18.5 5.70982 18.5 4.50244C18.5 3.12394 17.3785 2.00244 16 2.00244C14.6215 2.00244 13.5 3.12394 13.5 4.50244H14.5C14.5 3.67532 15.1729 3.00244 16 3.00244C16.8271 3.00244 17.5 3.67532 17.5 4.50244C17.5 5.32957 16.8271 6.00244 16 6.00244Z" fill="black"/>
</svg>
