<svg width="32" height="32" viewBox="0 0 32 32" fill="none" xmlns="http://www.w3.org/2000/svg">
<path d="M29.501 15.25C22.4706 15.25 16.751 9.53041 16.751 2.49854L16.75 1.99854L15.25 2.00154L15.251 2.50004C15.251 9.53041 9.53137 15.25 2.501 15.25H2V16.75H2.501C9.53137 16.75 15.251 22.4697 15.251 29.4985L15.25 29.9985L16.75 30.0015L16.751 29.5C16.751 22.4697 22.4706 16.75 29.501 16.75H30V15.25H29.501ZM16.001 24.9344C14.5797 20.7432 11.2579 17.4213 7.06663 16C11.2579 14.5788 14.5797 11.2569 16.001 7.06566C17.4222 11.2569 20.7441 14.5788 24.9354 16C20.7441 17.4213 17.4222 20.7432 16.001 24.9344Z" fill="black"/>
</svg>
