<svg width="32" height="32" viewBox="0 0 32 32" fill="none" xmlns="http://www.w3.org/2000/svg">
<path d="M28.5846 20.6334L25.0833 24.1348L21.5981 20.6184L20.5231 21.6837L24.0131 25.2048L20.5125 28.7054L21.5827 29.7756L25.0785 26.2798L28.5594 29.7918L29.6343 28.7263L26.1487 25.2096L29.6548 21.7035L28.5846 20.6334Z" fill="black"/>
<path d="M3.63949 4.77477H5.91026V3.26126H2.12598V7.04013H3.63949V4.77477Z" fill="black"/>
<path d="M29.8737 9.05814H28.3602V19.1532H29.8737V9.05814Z" fill="black"/>
<path d="M3.63949 9.05814H2.12598V30H19.0269V28.4865H3.63949V9.05814Z" fill="black"/>
<path d="M26.0904 3.26126V4.77477H28.3602V7.04013H29.8737V3.26126H26.0904Z" fill="black"/>
<path d="M9.69354 2H8.18003V5.02211H9.69354V2Z" fill="black"/>
<path d="M23.8197 2H22.3062V5.02211H23.8197V2Z" fill="black"/>
<path d="M20.0364 3.26126H11.9643V4.77477H20.0364V3.26126Z" fill="black"/>
<path d="M28.1085 7.2973H3.89225V8.81081H28.1085V7.2973Z" fill="black"/>
</svg>
