<svg width="32" height="32" viewBox="0 0 32 32" fill="none" xmlns="http://www.w3.org/2000/svg">
<path d="M25.8652 3.5684C26.2079 3.22553 26.6637 3.03679 27.1484 3.03679C27.6331 3.03679 28.0889 3.22553 28.4316 3.5684C29.1391 4.27606 29.1391 5.42731 28.4316 6.13496L25.8259 8.74067H27.2924L29.1648 6.86829C30.2768 5.75644 30.2768 3.94718 29.1648 2.83534C28.626 2.29672 27.9098 2 27.1481 2C26.3864 2 25.6702 2.2966 25.1315 2.83534L19.226 8.7408H20.6925L25.8646 3.56866L25.8652 3.5684Z" fill="black"/>
<path d="M2 10.2961V12.8887C2 18.5782 5.41162 23.4854 10.2964 25.6732V30H21.7039V25.6732C26.5886 23.4853 30.0003 18.5782 30.0003 12.8887V10.2961H2ZM20.6668 28.963H11.3334V26.0881C12.7938 26.606 14.3644 26.8889 16.0001 26.8889C17.6358 26.8889 19.2064 26.606 20.6668 26.0881V28.963ZM28.9632 12.8887C28.9632 20.0367 23.148 25.8518 16.0001 25.8518C8.85229 25.8518 3.03705 20.0367 3.03705 12.8887V11.3332H28.9632V12.8887Z" fill="black"/>
<path d="M16.5187 13.4073H15.4816V17.551H16.5187V13.4073Z" fill="black"/>
<path d="M21.1854 18.074H17.0372V19.111H21.1854V18.074Z" fill="black"/>
<path d="M16.5187 19.6251H15.4816V23.7777H16.5187V19.6251Z" fill="black"/>
<path d="M14.9745 18.074H10.8149V19.111H14.9745V18.074Z" fill="black"/>
</svg>
