<svg width="32" height="32" viewBox="0 0 32 32" fill="none" xmlns="http://www.w3.org/2000/svg">
<path d="M25.8661 4.366C26.1022 4.12987 26.4161 3.99987 26.75 3.99987C27.0839 3.99987 27.3978 4.12987 27.6339 4.366C28.1213 4.85337 28.1213 5.64637 27.6339 6.13375L24.7676 9H27.5961L29.048 7.54812C30.3151 6.28087 30.3151 4.21913 29.048 2.952C28.4341 2.338 27.618 2 26.7499 2C25.8817 2 25.0655 2.338 24.4517 2.95187L18.4036 9H21.2321L25.866 4.36612L25.8661 4.366Z" fill="black"/>
<path d="M2 9.99987V12.9999C2 18.5735 5.27425 23.3962 10 25.6472V29.9999H22V25.6472C26.7257 23.3962 30 18.5735 30 12.9999V9.99987H2ZM20 27.9999H12V26.4166C13.268 26.7954 14.6105 26.9999 16 26.9999C17.3895 26.9999 18.732 26.7954 20 26.4166V27.9999ZM28 12.9999C28 19.6167 22.6169 24.9999 16 24.9999C9.38312 24.9999 4 19.6167 4 12.9999V11.9999H28V12.9999Z" fill="black"/>
<path d="M17 13.4999H15V17.4956H17V13.4999Z" fill="black"/>
<path d="M15 23.4999H17V19.4999H21V17.4999H17V19.4956H15.011V17.4999H11V19.4999H15V23.4999Z" fill="black"/>
</svg>
