<svg width="32" height="32" viewBox="0 0 32 32" fill="none" xmlns="http://www.w3.org/2000/svg">
<path d="M16.0056 3.06324L17.6472 6.07273H18.807L16.5856 2H15.4256L13.2042 6.07273H14.364L16.0056 3.06324Z" fill="black"/>
<path d="M16.0058 22.8727C14.0409 22.8727 12.4422 24.4714 12.4422 26.4364C12.4422 28.4013 14.0409 30 16.0058 30C17.9708 30 19.5695 28.4013 19.5695 26.4364C19.5695 24.4714 17.9708 22.8727 16.0058 22.8727ZM16.0058 28.9818C14.6023 28.9818 13.4604 27.8399 13.4604 26.4364C13.4604 25.0328 14.6023 23.8909 16.0058 23.8909C17.4094 23.8909 18.5513 25.0328 18.5513 26.4364C18.5513 27.8399 17.4094 28.9818 16.0058 28.9818Z" fill="black"/>
<path d="M15.4965 20.3273H16.5147V8.10909H15.4965V20.3273Z" fill="black"/>
<path d="M12.951 18.8H7.86013C7.01797 18.8 6.33286 18.1149 6.33286 17.2727V10.1455H5.31468V17.2727C5.31468 18.6763 6.45657 19.8182 7.86013 19.8182H12.951V18.8Z" fill="black"/>
<path d="M25.6783 17.2727C25.6783 18.1149 24.9932 18.8 24.151 18.8H19.0601V19.8182H24.151C25.5546 19.8182 26.6965 18.6763 26.6965 17.2727V10.1455H25.6783V17.2727Z" fill="black"/>
<path d="M4.74375 6.42168L2.41199 8.75312L3.1319 9.47313L5.46366 7.14169L4.74375 6.42168Z" fill="black"/>
<path d="M3.12759 2.64496L2.40747 3.36495L4.74382 5.7017L5.46393 4.98171L3.12759 2.64496Z" fill="black"/>
<path d="M8.52151 2.64452L6.18376 4.98186L6.90366 5.70189L9.24141 3.36455L8.52151 2.64452Z" fill="black"/>
<path d="M6.90366 6.42187L6.18355 7.14186L8.51594 9.47465L9.23605 8.75466L6.90366 6.42187Z" fill="black"/>
<path d="M23.4786 2.65777L22.7585 3.37776L25.0821 5.70183L25.8022 4.98184L23.4786 2.65777Z" fill="black"/>
<path d="M25.0821 6.4218L22.763 8.74051L23.4829 9.46054L25.802 7.14183L25.0821 6.4218Z" fill="black"/>
<path d="M27.2422 6.422L26.522 7.14199L28.8671 9.48747L29.5872 8.76748L27.2422 6.422Z" fill="black"/>
<path d="M28.8725 2.63183L26.5221 4.98186L27.242 5.70188L29.5924 3.35186L28.8725 2.63183Z" fill="black"/>
</svg>
