<svg width="32" height="32" viewBox="0 0 32 32" fill="none" xmlns="http://www.w3.org/2000/svg">
<path d="M14.1333 10.4H12.2667V21.6H14.1333V10.4Z" fill="black"/>
<path d="M19.7333 10.4H17.8667V21.6H19.7333V10.4Z" fill="black"/>
<path d="M16 30C8.2804 30 2 23.7196 2 16C2 8.2804 8.2804 2 16 2C23.7196 2 30 8.2804 30 16C30 23.7196 23.7196 30 16 30ZM16 3.86667C9.30963 3.86667 3.86667 9.30963 3.86667 16C3.86667 22.6904 9.30963 28.1333 16 28.1333C22.6904 28.1333 28.1333 22.6904 28.1333 16C28.1333 9.30963 22.6904 3.86667 16 3.86667Z" fill="black"/>
</svg>
