<svg width="32" height="32" viewBox="0 0 32 32" fill="none" xmlns="http://www.w3.org/2000/svg">
<path d="M16.9918 26.9975H17.0078V29.9838H28.9847V27.9849H19.0066V24.9986H16.9918C15.3386 24.9986 13.9935 23.6536 13.9935 22.0003V16.0037H10.4348L13.9928 12.4057L13.9971 9.98481C14.003 6.6842 16.693 3.99886 19.9937 3.99886H28.9847V2H19.9937C15.5927 2 12.006 5.58033 11.9983 9.98119L11.9954 11.5828L9.01249 14.5993V18.0026H11.9948V22.0003C11.9948 24.7557 14.2364 26.9975 16.9918 26.9975Z" fill="black"/>
<path d="M10.0113 25.0029H9.51158C8.68492 25.0029 8.01243 24.3304 8.01243 23.5037V23.004H6.01358V23.5037C6.01358 25.4325 7.5828 27.0017 9.51158 27.0017H10.0113V25.0029Z" fill="black"/>
<path d="M3.01529 23.5037C3.01529 27.0858 5.9295 30 9.51158 30H10.0113V28.0011H9.51158C7.03162 28.0011 5.01415 25.9837 5.01415 23.5037V23.004H3.01529V23.5037Z" fill="black"/>
</svg>
