<svg width="32" height="32" viewBox="0 0 32 32" fill="none" xmlns="http://www.w3.org/2000/svg">
<path d="M16.8826 26.9429H17.1533V29.9835H29.0934V28.4571H18.6797V25.4165H16.8826C15.059 25.4165 13.5755 23.9329 13.5755 22.1094V16.2583H9.59711L13.5749 12.2356L13.5792 9.87496C13.5854 6.37434 16.4385 3.52638 19.9391 3.52638H29.0934V2H19.9391C15.5982 2 12.0606 5.53153 12.0528 9.87229L12.0497 11.6073L8.75837 14.9358V17.7847H12.0492V22.1094C12.0492 24.7746 14.2175 26.9429 16.8826 26.9429Z" fill="black"/>
<path d="M9.77532 25.4209H9.26652C8.28455 25.4209 7.48575 24.6221 7.48575 23.6401V23.1313H5.95937V23.6401C5.95937 25.4636 7.44288 26.9472 9.26652 26.9472H9.77532V25.4209Z" fill="black"/>
<path d="M9.26652 30H9.77532V28.4736H9.26652C6.60134 28.4736 4.43299 26.3053 4.43299 23.6401V23.1313H2.90662V23.6401C2.90662 27.1469 5.75967 30 9.26652 30Z" fill="black"/>
</svg>
