<svg width="32" height="32" viewBox="0 0 32 32" fill="none" xmlns="http://www.w3.org/2000/svg">
<path d="M22.8777 20.1754C22.8777 21.8007 24.1998 23.1228 25.825 23.1228C27.4503 23.1228 28.7724 21.8007 28.7724 20.1754C28.7724 18.5502 27.4503 17.2281 25.825 17.2281C24.1998 17.2281 22.8777 18.5502 22.8777 20.1754ZM25.825 18.2105C26.9084 18.2105 27.7899 19.092 27.7899 20.1754C27.7899 21.2588 26.9084 22.1404 25.825 22.1404C24.7416 22.1404 23.8601 21.2588 23.8601 20.1754C23.8601 19.092 24.7416 18.2105 25.825 18.2105Z" fill="black"/>
<path d="M13.0531 20.1754C13.0531 21.8007 14.3752 23.1228 16.0005 23.1228C17.6257 23.1228 18.9478 21.8007 18.9478 20.1754C18.9478 18.5502 17.6257 17.2281 16.0005 17.2281C14.3752 17.2281 13.0531 18.5502 13.0531 20.1754ZM16.0005 18.2105C17.0839 18.2105 17.9654 19.092 17.9654 20.1754C17.9654 21.2588 17.0839 22.1404 16.0005 22.1404C14.9171 22.1404 14.0356 21.2588 14.0356 20.1754C14.0356 19.092 14.9171 18.2105 16.0005 18.2105Z" fill="black"/>
<path d="M6.1759 23.1228C7.80113 23.1228 9.12327 21.8007 9.12327 20.1754C9.12327 18.5502 7.80113 17.2281 6.1759 17.2281C4.55067 17.2281 3.22853 18.5502 3.22853 20.1754C3.22853 21.8007 4.55067 23.1228 6.1759 23.1228ZM6.1759 18.2105C7.2593 18.2105 8.14081 19.092 8.14081 20.1754C8.14081 21.2588 7.2593 22.1404 6.1759 22.1404C5.0925 22.1404 4.21099 21.2588 4.21099 20.1754C4.21099 19.092 5.0925 18.2105 6.1759 18.2105Z" fill="black"/>
<path d="M3.71976 30V27.5439C3.71976 26.7312 4.38083 26.0702 5.19344 26.0702H7.15836C7.97097 26.0702 8.63204 26.7312 8.63204 27.5439V30H9.6145V27.5439C9.6145 26.1895 8.51267 25.0877 7.15836 25.0877H5.19344C3.83913 25.0877 2.7373 26.1895 2.7373 27.5439V30H3.71976Z" fill="black"/>
<path d="M26.8075 25.0877H24.8426C23.4883 25.0877 22.3864 26.1895 22.3864 27.5439V30H23.3689V27.5439C23.3689 26.7312 24.03 26.0702 24.8426 26.0702H26.8075C27.6201 26.0702 28.2812 26.7312 28.2812 27.5439V30H29.2636V27.5439C29.2636 26.1895 28.1618 25.0877 26.8075 25.0877Z" fill="black"/>
<path d="M20.9127 7.89474C22.538 7.89474 23.8601 6.5726 23.8601 4.94737C23.8601 3.32214 22.538 2 20.9127 2C19.2875 2 17.9654 3.32214 17.9654 4.94737C17.9654 6.5726 19.2875 7.89474 20.9127 7.89474ZM20.9127 2.98246C21.9961 2.98246 22.8777 3.86397 22.8777 4.94737C22.8777 6.03077 21.9961 6.91228 20.9127 6.91228C19.8293 6.91228 18.9478 6.03077 18.9478 4.94737C18.9478 3.86397 19.8293 2.98246 20.9127 2.98246Z" fill="black"/>
<path d="M18.4566 14.7719V12.3158C18.4566 11.5032 19.1177 10.8421 19.9303 10.8421H21.8952C22.7078 10.8421 23.3689 11.5032 23.3689 12.3158V14.7719H24.3513V12.3158C24.3513 10.9615 23.2495 9.85965 21.8952 9.85965H19.9303C18.576 9.85965 17.4741 10.9615 17.4741 12.3158V14.7719H18.4566Z" fill="black"/>
<path d="M11.0882 7.89474C12.7134 7.89474 14.0356 6.5726 14.0356 4.94737C14.0356 3.32214 12.7134 2 11.0882 2C9.46295 2 8.14081 3.32214 8.14081 4.94737C8.14081 6.5726 9.46295 7.89474 11.0882 7.89474ZM11.0882 2.98246C12.1716 2.98246 13.0531 3.86397 13.0531 4.94737C13.0531 6.03077 12.1716 6.91228 11.0882 6.91228C10.0048 6.91228 9.12327 6.03077 9.12327 4.94737C9.12327 3.86397 10.0048 2.98246 11.0882 2.98246Z" fill="black"/>
<path d="M8.64543 14.7719V12.3158C8.64543 11.5032 9.3065 10.8421 10.1191 10.8421H12.0706C12.8833 10.8421 13.5443 11.5032 13.5443 12.3158V14.7719H14.5268V12.3158C14.5268 10.9615 13.425 9.85965 12.0706 9.85965H10.1191C8.7648 9.85965 7.66297 10.9615 7.66297 12.3158V14.7719H8.64543Z" fill="black"/>
<path d="M16.9829 25.0877H15.018C13.6637 25.0877 12.5619 26.1895 12.5619 27.5439V30H13.5443V27.5439C13.5443 26.7312 14.2054 26.0702 15.018 26.0702H16.9829C17.7955 26.0702 18.4566 26.7312 18.4566 27.5439V30H19.4391V27.5439C19.4391 26.1895 18.3372 25.0877 16.9829 25.0877Z" fill="black"/>
</svg>
