<svg width="32" height="32" viewBox="0 0 32 32" fill="none" xmlns="http://www.w3.org/2000/svg">
<path d="M22.5736 20.2609C22.5736 22.0061 23.9936 23.4261 25.7388 23.4261C27.4841 23.4261 28.904 22.0061 28.904 20.2609C28.904 18.5156 27.4841 17.0957 25.7388 17.0957C23.9936 17.0957 22.5736 18.5156 22.5736 20.2609ZM25.7388 18.5565C26.6787 18.5565 27.4432 19.321 27.4432 20.2609C27.4432 21.2007 26.6787 21.9652 25.7388 21.9652C24.799 21.9652 24.0345 21.2007 24.0345 20.2609C24.0345 19.321 24.799 18.5565 25.7388 18.5565Z" fill="black"/>
<path d="M12.8345 20.2609C12.8345 22.0061 14.2544 23.4261 15.9997 23.4261C17.745 23.4261 19.1649 22.0061 19.1649 20.2609C19.1649 18.5156 17.745 17.0957 15.9997 17.0957C14.2544 17.0957 12.8345 18.5156 12.8345 20.2609ZM15.9997 18.5565C16.9395 18.5565 17.7041 19.321 17.7041 20.2609C17.7041 21.2007 16.9395 21.9652 15.9997 21.9652C15.0599 21.9652 14.2954 21.2007 14.2954 20.2609C14.2954 19.321 15.0599 18.5565 15.9997 18.5565Z" fill="black"/>
<path d="M6.26057 23.4261C8.00582 23.4261 9.42579 22.0061 9.42579 20.2609C9.42579 18.5156 8.00582 17.0957 6.26057 17.0957C4.51532 17.0957 3.09535 18.5156 3.09535 20.2609C3.09535 22.0061 4.51532 23.4261 6.26057 23.4261ZM6.26057 18.5565C7.2004 18.5565 7.96492 19.321 7.96492 20.2609C7.96492 21.2007 7.2004 21.9652 6.26057 21.9652C5.32075 21.9652 4.55622 21.2007 4.55622 20.2609C4.55622 19.321 5.32075 18.5565 6.26057 18.5565Z" fill="black"/>
<path d="M7.23449 24.887H5.28666C3.80984 24.887 2.6084 26.0884 2.6084 27.5652V30H4.06927V27.5652C4.06927 26.8939 4.61539 26.3478 5.28666 26.3478H7.23449C7.90575 26.3478 8.45188 26.8939 8.45188 27.5652V30H9.91275V27.5652C9.91275 26.0884 8.7113 24.887 7.23449 24.887Z" fill="black"/>
<path d="M26.7127 24.887H24.7649C23.2881 24.887 22.0867 26.0884 22.0867 27.5652V30H23.5475V27.5652C23.5475 26.8939 24.0937 26.3478 24.7649 26.3478H26.7127C27.384 26.3478 27.9301 26.8939 27.9301 27.5652V30H29.391V27.5652C29.391 26.0884 28.1896 24.887 26.7127 24.887Z" fill="black"/>
<path d="M20.8693 8.33043C22.6145 8.33043 24.0345 6.91047 24.0345 5.16522C24.0345 3.41997 22.6145 2 20.8693 2C19.124 2 17.7041 3.41997 17.7041 5.16522C17.7041 6.91047 19.124 8.33043 20.8693 8.33043ZM20.8693 3.46087C21.8091 3.46087 22.5736 4.22539 22.5736 5.16522C22.5736 6.10504 21.8091 6.86957 20.8693 6.86957C19.9294 6.86957 19.1649 6.10504 19.1649 5.16522C19.1649 4.22539 19.9294 3.46087 20.8693 3.46087Z" fill="black"/>
<path d="M23.0606 12.4696V14.9043H24.5214V12.4696C24.5214 10.9927 23.32 9.7913 21.8432 9.7913H19.8954C18.4185 9.7913 17.2171 10.9927 17.2171 12.4696V14.9043H18.678V12.4696C18.678 11.7983 19.2241 11.2522 19.8954 11.2522H21.8432C22.5145 11.2522 23.0606 11.7983 23.0606 12.4696Z" fill="black"/>
<path d="M11.1301 8.33043C12.8754 8.33043 14.2954 6.91047 14.2954 5.16522C14.2954 3.41997 12.8754 2 11.1301 2C9.38489 2 7.96492 3.41997 7.96492 5.16522C7.96492 6.91047 9.38489 8.33043 11.1301 8.33043ZM11.1301 3.46087C12.07 3.46087 12.8345 4.22539 12.8345 5.16522C12.8345 6.10504 12.07 6.86957 11.1301 6.86957C10.1903 6.86957 9.42579 6.10504 9.42579 5.16522C9.42579 4.22539 10.1903 3.46087 11.1301 3.46087Z" fill="black"/>
<path d="M13.3214 12.4696V14.9043H14.7823V12.4696C14.7823 10.9927 13.5809 9.7913 12.1041 9.7913H10.1695C8.69268 9.7913 7.49123 10.9927 7.49123 12.4696V14.9043H8.9521V12.4696C8.9521 11.7983 9.49822 11.2522 10.1695 11.2522H12.1041C12.7753 11.2522 13.3214 11.7983 13.3214 12.4696Z" fill="black"/>
<path d="M16.9736 24.887H15.0258C13.549 24.887 12.3475 26.0884 12.3475 27.5652V30H13.8084V27.5652C13.8084 26.8939 14.3545 26.3478 15.0258 26.3478H16.9736C17.6449 26.3478 18.191 26.8939 18.191 27.5652V30H19.6519V27.5652C19.6519 26.0884 18.4504 24.887 16.9736 24.887Z" fill="black"/>
</svg>
