<svg width="32" height="32" viewBox="0 0 32 32" fill="none" xmlns="http://www.w3.org/2000/svg">
<path d="M20.7458 10.5424H11.2542C9.66429 10.5424 8.30047 11.0658 7.31015 12.0559C6.31995 13.0461 5.79661 14.4099 5.79661 16C5.79661 18.6247 7.8832 21.4576 11.2542 21.4576C13.9966 21.4576 14.7151 20.2842 15.6247 18.7987L15.6578 18.7446C15.6752 18.7162 15.78 18.61 15.9747 18.61C16.2057 18.61 16.32 18.7092 16.3417 18.7439C17.1137 20.0072 18.3119 21.4575 20.7458 21.4575C24.1168 21.4575 26.2034 18.6246 26.2034 15.9999C26.2034 12.6288 23.3705 10.5424 20.7458 10.5424ZM20.7458 20.0339C19.3626 20.0339 18.4386 19.4452 17.5566 18.0016C17.3158 17.6075 16.7737 17.1864 15.9748 17.1864C15.3479 17.1864 14.7469 17.5062 14.4439 18.001L14.4106 18.0553C13.5537 19.4547 13.1989 20.034 11.2542 20.034C8.76259 20.034 7.22034 17.9402 7.22034 16.0001C7.22034 13.5496 8.80376 11.9662 11.2542 11.9662H20.7458C22.6858 11.9662 24.7797 13.5085 24.7797 16.0001C24.7797 17.9402 23.2374 20.034 20.7458 20.034V20.0339Z" fill="black"/>
<path d="M3.42373 12.1993H2V18.8434H3.42373V12.1993Z" fill="black"/>
<path d="M30 12.1993H28.5763V18.8434H30V12.1993Z" fill="black"/>
</svg>
