<svg width="32" height="32" viewBox="0 0 32 32" fill="none" xmlns="http://www.w3.org/2000/svg">
<path d="M28.4174 18.3865L22.8174 15.0265L17.2174 18.3865V25.057L22.087 27.9788V30H23.5478V27.9788L27.9335 25.3474L29.6348 26.3196V24.637L28.4174 23.9414V18.3865ZM26.9565 24.2299L22.8174 26.7134L18.6783 24.2299V19.2135L22.8174 16.7301L26.9565 19.2135V24.2299Z" fill="black"/>
<path d="M3.58263 18.3865V23.9413L2.36523 24.6369V26.3195L4.06654 25.3473L8.45219 27.9786V29.9999H9.91306V27.9786L14.7826 25.0569V18.3863L9.18263 15.0263L3.58263 18.3865ZM13.3218 24.2299L9.18263 26.7134L5.0435 24.2299V19.2135L9.18263 16.7301L13.3218 19.2135V24.2299Z" fill="black"/>
<path d="M21.6 7.48873L23.0147 6.70278C23.4845 7.10951 24.0964 7.35652 24.7652 7.35652C26.2421 7.35652 27.4435 6.15508 27.4435 4.67826C27.4435 3.20144 26.2421 2 24.7652 2C23.2884 2 22.087 3.20144 22.087 4.67826C22.087 4.95704 22.1299 5.22609 22.2093 5.47906L21.2041 6.03748L16.004 2.8501L10.7439 6.00619L9.79108 5.47772C9.87021 5.22511 9.91306 4.95668 9.91306 4.67826C9.91306 3.20144 8.71162 2 7.2348 2C5.75798 2 4.55654 3.20144 4.55654 4.67826C4.55654 6.15508 5.75798 7.35652 7.2348 7.35652C7.90412 7.35652 8.51635 7.10915 8.98626 6.70181L10.402 7.48703L10.4143 12.8786L16.0122 16.2429L21.6 12.9051V7.48873ZM24.7652 3.46087C25.4365 3.46087 25.9826 4.00699 25.9826 4.67826C25.9826 5.34953 25.4365 5.89565 24.7652 5.89565C24.094 5.89565 23.5478 5.34953 23.5478 4.67826C23.5478 4.00699 24.094 3.46087 24.7652 3.46087ZM7.2348 5.89565C6.56353 5.89565 6.01741 5.34953 6.01741 4.67826C6.01741 4.00699 6.56353 3.46087 7.2348 3.46087C7.90607 3.46087 8.45219 4.00699 8.45219 4.67826C8.45219 5.34953 7.90607 5.89565 7.2348 5.89565ZM20.1391 12.0761L16.0145 14.5397L11.8733 12.051L11.8619 7.03915L15.996 4.55871L20.1391 7.09831V12.0761Z" fill="black"/>
</svg>
