<svg width="32" height="32" viewBox="0 0 32 32" fill="none" xmlns="http://www.w3.org/2000/svg">
<path d="M28.5518 23.8535V18.35L22.7587 14.8742L16.9656 18.35V25.2364L21.7932 28.1329V30H23.7242V28.1329L27.8337 25.6673L29.5173 26.6294V24.4053L28.5518 23.8535ZM26.6207 24.1431L22.7587 26.4603L18.8966 24.1431V19.4433L22.7587 17.1261L26.6207 19.4433V24.1431Z" fill="black"/>
<path d="M3.44842 18.35V23.8535L2.48291 24.4052V26.6293L4.16652 25.6671L8.27599 28.1328V29.9999H10.207V28.1328L15.0346 25.2363V18.3499L9.2415 14.874L3.44842 18.35ZM13.1036 24.1431L9.2415 26.4603L5.37945 24.1431V19.4433L9.2415 17.1261L13.1036 19.4433V24.1431Z" fill="black"/>
<path d="M21.7932 7.82494L22.9286 7.1941C23.417 7.56932 24.0276 7.7932 24.6897 7.7932C26.2869 7.7932 27.5862 6.49386 27.5862 4.89666C27.5862 3.29946 26.2869 2.00012 24.6897 2.00012C23.0925 2.00012 21.7932 3.29946 21.7932 4.89666C21.7932 5.12899 21.8214 5.35468 21.8733 5.57131L21.1652 5.96464L16.0054 2.80186L10.7845 5.93434L10.1271 5.56974C10.1788 5.35359 10.2069 5.12838 10.2069 4.89654C10.2069 3.29934 8.90755 2 7.31035 2C5.71315 2 4.41382 3.29934 4.41382 4.89654C4.41382 6.49374 5.71315 7.79308 7.31035 7.79308C7.97306 7.79308 8.58399 7.56884 9.07266 7.19301L10.2092 7.82337L10.2214 13.1628L16.0117 16.6426L21.793 13.1893V7.8247L21.7932 7.82494ZM24.6897 3.93115C25.2221 3.93115 25.6552 4.3643 25.6552 4.89666C25.6552 5.42902 25.2221 5.86217 24.6897 5.86217C24.1573 5.86217 23.7242 5.42902 23.7242 4.89666C23.7242 4.3643 24.1573 3.93115 24.6897 3.93115ZM7.31047 5.86217C6.77812 5.86217 6.34496 5.42902 6.34496 4.89666C6.34496 4.3643 6.77812 3.93115 7.31047 3.93115C7.84283 3.93115 8.27599 4.3643 8.27599 4.89666C8.27599 5.42902 7.84283 5.86217 7.31047 5.86217ZM19.8621 12.0937L16.0148 14.3918L12.15 12.0691L12.1392 7.37356L15.9947 5.06031L19.862 7.43089V12.0937H19.8621Z" fill="black"/>
</svg>
