<svg width="32" height="32" viewBox="0 0 32 32" fill="none" xmlns="http://www.w3.org/2000/svg">
<path d="M16.196 5.27723L17.95 3.87335V2L14.5375 4.73135V5.82433L17.95 8.54994V6.67818L16.196 5.27723Z" fill="black"/>
<path d="M15.025 23.4502V25.3234L16.7791 26.7273L15.025 28.1282V30L18.4375 27.2744V26.1814L15.025 23.4502Z" fill="black"/>
<path d="M13.0775 25.9925L4.05625 25.9964V6.00909H12.5875V4.54658H2.59375V27.4594L13.0781 27.455L13.0775 25.9925Z" fill="black"/>
<path d="M19.9 4.54658V6.00909H27.9438V25.9966H20.3875V27.4591H29.4063V4.54658H19.9Z" fill="black"/>
<path d="M6.49376 8.44208V21.6091H25.5063V10.3966H14.7813V8.44696L6.49376 8.44208ZM24.0438 11.8591V20.1466H7.95626V9.90544L13.3188 9.90873V11.8591H24.0438Z" fill="black"/>
</svg>
