<svg width="32" height="32" viewBox="0 0 32 32" fill="none" xmlns="http://www.w3.org/2000/svg">
<path d="M15.8012 5.03284L17.9945 3.27733V2L14.5042 4.79363V5.27318L17.9945 8.06082V6.78461L15.8012 5.03284Z" fill="black"/>
<path d="M17.1961 26.972L15.0028 28.7238V30L18.4931 27.2122V26.7328L15.0028 23.9392V25.2165L17.1961 26.972Z" fill="black"/>
<path d="M13.0113 27.4668L13.0109 26.4695L3.53459 26.4737V5.53183H12.5097V4.5346H2.53735V27.4711L13.0113 27.4668Z" fill="black"/>
<path d="M19.989 4.5346V5.53183H28.4655V26.4738H20.4876V27.471H29.4627V4.5346H19.989Z" fill="black"/>
<path d="M6.52629 8.51905V21.4876H25.4738V10.518H14.5042V8.52379L6.52629 8.51905ZM24.4765 11.5152V20.4904H7.52353V9.51691L13.5069 9.52053V11.5152H24.4765Z" fill="black"/>
</svg>
