<svg width="32" height="32" viewBox="0 0 32 32" fill="none" xmlns="http://www.w3.org/2000/svg">
<path d="M23.6805 25H20.8447L25.8707 30.0001H28.7065L23.6805 25Z" fill="black"/>
<path d="M20.2937 6H8.2937V8H20.2937V6Z" fill="black"/>
<path d="M20.2937 10H8.2937V12H20.2937V10Z" fill="black"/>
<path d="M21.2937 28H5.2937V30H21.2937V28Z" fill="black"/>
<path d="M23.2925 22H25.2925L25.2937 2H5.2937V4H23.2937L23.2925 22Z" fill="black"/>
<path d="M5.2937 4H3.2937V28H5.2937V4Z" fill="black"/>
<path d="M16.2937 25C16.6346 25 16.9682 24.9699 17.2937 24.9151C19.4581 24.5504 21.232 23.0236 21.9497 21C22.1717 20.374 22.2937 19.7011 22.2937 19C22.2937 15.6916 19.6021 13 16.2937 13C15.0703 13 13.9318 13.3689 12.9821 14H8.2937V16H11.101C10.5887 16.8833 10.2937 17.9075 10.2937 19C10.2937 22.3084 12.9853 25 16.2937 25ZM16.2937 15C18.4993 15 20.2937 16.7944 20.2937 19C20.2937 21.2056 18.4993 23 16.2937 23C14.0881 23 12.2937 21.2056 12.2937 19C12.2937 16.7944 14.0881 15 16.2937 15Z" fill="black"/>
</svg>
