<svg width="32" height="32" viewBox="0 0 32 32" fill="none" xmlns="http://www.w3.org/2000/svg">
<path d="M2.25 2V12C2.25 14.0677 3.93225 15.75 6 15.75H7.2535C7.25112 15.8334 7.25 15.9167 7.25 16C7.25 19.5812 9.46775 22.76 12.817 24.0529L13.61 30H15.1233L14.181 22.9331L13.7324 22.7869C10.7056 21.8005 8.75 19.1365 8.75 16C8.75 15.6964 8.76887 15.3912 8.80612 15.0929L8.91138 14.25H6C4.75938 14.25 3.75 13.2406 3.75 12V2H2.25Z" fill="black"/>
<path d="M19.1829 24.0535C22.5158 22.7747 24.6837 19.7262 24.7485 16.1631C24.751 16.0255 24.7504 15.8877 24.7465 15.75H25.9999C28.0676 15.75 29.7499 14.0677 29.7499 12V2H28.2499V12C28.2499 13.2406 27.2405 14.25 25.9999 14.25H23.0914L23.1947 15.0914C23.2368 15.4348 23.2549 15.7863 23.2487 16.1356C23.1927 19.2081 21.2374 21.8189 18.2674 22.7868L17.8188 22.933L16.8765 29.9999H18.3898L19.1827 24.0534L19.1829 24.0535Z" fill="black"/>
<path d="M5.25 2V11.75C5.25 12.3014 5.69863 12.75 6.25 12.75H9.50263L9.71913 12.3755C11.1148 9.9625 13.7136 8.58013 16.5016 8.76688C18.9264 8.92963 21.0909 10.2776 22.2915 12.373L22.5076 12.7501H25.7499C26.3013 12.7501 26.7499 12.3015 26.7499 11.7501V2H25.2499V11.25H23.3641C21.8771 8.93437 19.3806 7.45662 16.6019 7.27025C13.3863 7.0555 10.379 8.57088 8.64963 11.25H6.74988V2H5.25Z" fill="black"/>
</svg>
