<svg width="32" height="32" viewBox="0 0 32 32" fill="none" xmlns="http://www.w3.org/2000/svg">
<path d="M14.4081 22.7441L13.8099 22.5491C10.888 21.5969 9 19.0261 9 15.9999C9 15.7065 9.01825 15.4119 9.05425 15.1238L9.1945 13.9999H6C4.89725 13.9999 4 13.1026 4 11.9999V2H2V12C2 14.2056 3.79437 16 6 16H7C7 19.6358 9.22087 22.868 12.5886 24.2314L13.3579 30H15.3755L14.4081 22.7441Z" fill="black"/>
<path d="M28 2V12C28 13.1028 27.1028 14 26 14H22.809L22.9468 15.1219C22.9875 15.4538 23.0051 15.7934 22.9989 16.1313C22.9449 19.0956 21.0574 21.6148 18.1903 22.5493L17.592 22.7443L16.6246 30.0001H18.6423L19.4114 24.2324C22.7614 22.8863 24.9328 19.7849 24.9986 16.1676C24.9996 16.1119 25.0001 16.0559 25.0001 16H26.0001C28.2058 16 30.0001 14.2056 30.0001 12V2H28Z" fill="black"/>
<path d="M6.24999 13H9.64687L9.93574 12.5006C11.2832 10.1708 13.791 8.83613 16.4851 9.01638C18.8262 9.17338 20.9159 10.4746 22.0749 12.4973L22.3631 13H25.7502C26.4395 13 27.0002 12.4393 27.0002 11.75V2H25.0002V11H23.4997C21.962 8.68375 19.431 7.2095 16.619 7.02075C13.3587 6.80225 10.3047 8.31563 8.51499 11H7.00024V2H5.00024V11.75C5.00024 12.4393 5.56099 13 6.25024 13H6.24999Z" fill="black"/>
</svg>
