<svg width="32" height="32" viewBox="0 0 32 32" fill="none" xmlns="http://www.w3.org/2000/svg">
<path d="M7.34555 18.2909C5.09983 18.2909 3.27283 16.4639 3.27283 14.2182V7.09091C3.27283 4.84518 5.09983 3.01818 7.34555 3.01818C9.4187 3.01818 11.1338 4.57575 11.3853 6.58182H12.4109C12.1546 4.01282 9.98073 2 7.34543 2C4.5383 2 2.25452 4.28378 2.25452 7.09091V14.2182C2.25452 17.0253 4.5383 19.3091 7.34543 19.3091C9.98073 19.3091 12.1546 17.2963 12.4109 14.7273H11.3853C11.1338 16.7333 9.4187 18.2909 7.34555 18.2909Z" fill="black"/>
<path d="M10.9092 9.12727H8.36373V6.58182H7.34555V13.7091H8.36373V10.1455H10.9092C12.3128 10.1455 13.4546 11.2873 13.4546 12.6909V30H14.4728V12.6909C14.4728 12.0208 14.2866 11.3935 13.9637 10.8575C13.3397 9.82167 12.2042 9.12727 10.9092 9.12727Z" fill="black"/>
<path d="M24.6546 2C22.0193 2 19.8455 4.01282 19.5892 6.58182H20.6147C20.8662 4.57575 22.5814 3.01818 24.6545 3.01818C26.9002 3.01818 28.7272 4.84518 28.7272 7.09091V14.2182C28.7272 16.4639 26.9002 18.2909 24.6545 18.2909C22.5814 18.2909 20.8662 16.7333 20.6147 14.7273H19.5892C19.8455 17.2963 22.0193 19.3091 24.6546 19.3091C27.4618 19.3091 29.7456 17.0253 29.7456 14.2182V7.09091C29.7456 4.28378 27.4618 2 24.6546 2Z" fill="black"/>
<path d="M23.6365 10.1455V13.7091H24.6546V6.58182H23.6365V9.12727H21.091C19.796 9.12727 18.6605 9.82167 18.0365 10.8575C17.7136 11.3935 17.5274 12.0208 17.5274 12.6909V30H18.5456V12.6909C18.5456 11.2873 19.6874 10.1455 21.091 10.1455H23.6365Z" fill="black"/>
</svg>
