<svg width="32" height="32" viewBox="0 0 32 32" fill="none" xmlns="http://www.w3.org/2000/svg">
<path d="M7.42346 18.1441C5.33708 18.1441 3.63968 16.4467 3.63968 14.3604V7.2973C3.63968 5.21092 5.33708 3.51351 7.42346 3.51351C9.33869 3.51351 10.9251 4.94416 11.1726 6.79279H12.696C12.4411 4.10769 10.1741 2 7.42334 2C4.50238 2 2.12604 4.37634 2.12604 7.2973V14.3604C2.12604 17.2813 4.50238 19.6577 7.42334 19.6577C10.1741 19.6577 12.441 17.55 12.696 14.8649H11.1726C10.925 16.7135 9.33869 18.1441 7.42346 18.1441Z" fill="black"/>
<path d="M10.955 9.06306H8.68472V6.79279H7.17121V13.8559H8.68472V10.5766H10.955C12.2068 10.5766 13.2253 11.595 13.2253 12.8468V30H14.7388V12.8468C14.7388 11.9969 14.457 11.2116 13.982 10.5792C13.2911 9.65926 12.1914 9.06306 10.955 9.06306Z" fill="black"/>
<path d="M24.5766 2C21.8258 2 19.5589 4.10769 19.3039 6.79279H20.8274C21.075 4.94416 22.6613 3.51351 24.5765 3.51351C26.6629 3.51351 28.3603 5.21092 28.3603 7.2973V14.3604C28.3603 16.4467 26.6629 18.1441 24.5765 18.1441C22.6613 18.1441 21.0749 16.7135 20.8274 14.8649H19.3039C19.5588 17.55 21.8258 19.6577 24.5766 19.6577C27.4976 19.6577 29.8739 17.2813 29.8739 14.3604V7.2973C29.8739 4.37634 27.4976 2 24.5766 2Z" fill="black"/>
<path d="M21.0451 10.5766H23.3154V13.8559H24.8289V6.79279H23.3154V9.06306H21.0451C19.8087 9.06306 18.709 9.65926 18.0181 10.5792C17.5431 11.2116 17.2613 11.9969 17.2613 12.8468V30H18.7748V12.8468C18.7748 11.595 19.7933 10.5766 21.0451 10.5766Z" fill="black"/>
</svg>
