<svg width="32" height="32" viewBox="0 0 32 32" fill="none" xmlns="http://www.w3.org/2000/svg">
<path d="M7.5 18C5.57013 18 4 16.4299 4 14.5V7.5C4 5.57013 5.57013 4 7.5 4C9.26013 4 10.7203 5.30613 10.9637 7H12.9762C12.7226 4.20088 10.3641 2 7.5 2C4.46725 2 2 4.46725 2 7.5V14.5C2 17.5328 4.46725 20 7.5 20C10.3641 20 12.7226 17.7991 12.9762 15H10.9637C10.7204 16.6939 9.26013 18 7.5 18Z" fill="black"/>
<path d="M11 9H9V7H7V14H9V11H11C12.1027 11 13 11.8973 13 13V30H15V13C15 11.9882 14.6216 11.0637 14 10.3585C13.2665 9.52637 12.1939 9 11 9Z" fill="black"/>
<path d="M24.5 2C21.6359 2 19.2774 4.20088 19.0238 7H21.0362C21.2796 5.30613 22.7399 4 24.5 4C26.4299 4 28 5.57013 28 7.5V14.5C28 16.4299 26.4299 18 24.5 18C22.7399 18 21.2797 16.6939 21.0362 15H19.0238C19.2774 17.7991 21.6359 20 24.5 20C27.5327 20 30 17.5328 30 14.5V7.5C30 4.46725 27.5327 2 24.5 2Z" fill="black"/>
<path d="M21 11H23V14H25V7H23V9H21C19.8061 9 18.7335 9.52637 18 10.3585C17.3784 11.0636 17 11.9882 17 13V30H19V13C19 11.8973 19.8973 11 21 11Z" fill="black"/>
</svg>
