<svg width="32" height="32" viewBox="0 0 32 32" fill="none" xmlns="http://www.w3.org/2000/svg">
<path d="M24 2H4V4H24V2Z" fill="black"/>
<path d="M16 21H14V25H16V21Z" fill="black"/>
<path d="M8.58587 18L4 22.5859V4H2V25H4.41425L9.41425 20H24V18H8.58587Z" fill="black"/>
<path d="M28 16V27.3385L25.9538 25H16V27H25.0462L27.6712 30H30V16H28Z" fill="black"/>
<path d="M26 14V4H24V18H26V16H28V14H26Z" fill="black"/>
<path d="M16.4934 13.6348L17.6499 12.4836L16.2389 11.0662L15.0791 12.2206L14.353 11.4945C15.6436 11.2659 16.6273 10.1368 16.6273 8.7815C16.6273 7.26188 15.3909 6.0255 13.8713 6.0255H11.0171L11.0001 13.4978L13.0001 13.5022L13.0014 12.9712L13.6617 13.6315L12.5052 14.7826L13.9163 16.2L15.076 15.0456L16.2375 16.207L17.6516 14.7927L16.4934 13.6348ZM13.0125 8.0255H13.8711C14.288 8.0255 14.6271 8.36462 14.6271 8.7815C14.6271 9.19837 14.288 9.5375 13.8711 9.5375H13.0091L13.0125 8.0255Z" fill="black"/>
</svg>
