<svg width="32" height="32" viewBox="0 0 32 32" fill="none" xmlns="http://www.w3.org/2000/svg">
<path d="M24.1453 2H3.78167V3.01818H24.1453V2Z" fill="black"/>
<path d="M8.66169 18.2909L3.27258 23.68V3.52727H2.25439V24.9091H3.48347L9.08347 19.3091H24.1453V18.2909H8.66169Z" fill="black"/>
<path d="M15.4908 20.8364H14.4726V24.9091H15.4908V20.8364Z" fill="black"/>
<path d="M28.7271 28.6451L25.9036 25.4182H15.9998V26.4364H25.4416L28.5598 30H29.7453V15.7455H28.7271V28.6451Z" fill="black"/>
<path d="M25.6726 14.2182V3.52727H24.6544V17.7818H25.6726V15.2364H28.218V14.2182H25.6726Z" fill="black"/>
<path d="M15.7813 13.3364L17.3204 11.8043L16.6021 11.0827L15.0613 12.6165L13.1375 10.6927H13.8323C15.0989 10.6927 16.1293 9.66233 16.1293 8.39571C16.1293 7.12909 15.0988 6.09869 13.8323 6.09869H11.4342L11.418 13.1989L12.4362 13.2011L12.4403 11.4355L14.3398 13.3348L12.8007 14.8669L13.519 15.5885L15.0598 14.0548L16.6016 15.5964L17.3214 14.8764L15.7813 13.3364ZM12.45 7.11687H13.8321C14.5374 7.11687 15.111 7.69049 15.111 8.39571C15.111 9.10093 14.5372 9.67455 13.8321 9.67455H12.4441L12.45 7.11687Z" fill="black"/>
</svg>
