<svg width="32" height="32" viewBox="0 0 32 32" fill="none" xmlns="http://www.w3.org/2000/svg">
<path d="M24.0719 2H3.89174V3.51351H24.0719V2Z" fill="black"/>
<path d="M25.8377 15.6216H28.108V14.1081H25.8377V3.76577H24.3242V17.8919H25.8377V15.6216Z" fill="black"/>
<path d="M24.0719 19.6577V18.1441H8.62336L3.63949 23.128V3.76577H2.12598V24.955H3.95291L9.25021 19.6577H24.0719Z" fill="black"/>
<path d="M15.7476 20.9189H14.2341V24.955H15.7476V20.9189Z" fill="black"/>
<path d="M28.3602 15.8739V27.9859L25.9289 25.2072H15.9999V26.7207H25.242L28.1114 30H29.8737V15.8739H28.3602Z" fill="black"/>
<path d="M16.1405 13.4869L17.4865 12.147L16.4187 11.0743L15.0702 12.4168L13.7723 11.1189H13.8518C15.2461 11.1189 16.3804 9.98454 16.3804 8.59034C16.3804 7.19614 15.246 6.06177 13.8518 6.06177H11.2237L11.2072 13.3496L12.7207 13.353L12.7233 12.2102L13.9977 13.4844L12.6517 14.8244L13.7195 15.8971L15.068 14.5546L16.418 15.9044L17.4881 14.8341L16.1407 13.4868L16.1405 13.4869ZM12.7337 7.57528H13.8518C14.4115 7.57528 14.8669 8.03059 14.8669 8.59034C14.8669 9.15009 14.4115 9.60541 13.8518 9.60541H12.7291L12.7338 7.57528H12.7337Z" fill="black"/>
</svg>
