<svg width="32" height="32" viewBox="0 0 32 32" fill="none" xmlns="http://www.w3.org/2000/svg">
<path d="M25.4187 11.8561C26.1913 11.8561 26.9179 11.5553 27.4642 11.009C28.0107 10.4626 28.3115 9.73619 28.3116 8.96357C28.3118 8.19095 28.0108 7.46438 27.4645 6.918C26.9181 6.3715 26.1917 6.07065 25.4191 6.07053H25.419C24.6463 6.07053 23.9199 6.37138 23.3736 6.91764C22.8271 7.46401 22.5263 8.19047 22.5262 8.96309C22.526 9.7357 22.827 10.4623 23.3733 11.0087C23.9196 11.5552 24.6461 11.856 25.4187 11.8561ZM24.7371 8.28147C24.9192 8.09935 25.1614 7.99906 25.419 7.99906C25.6765 7.99906 25.9187 8.09947 26.1008 8.28147C26.2829 8.4636 26.3832 8.70587 26.3832 8.96333C26.3832 9.22079 26.2828 9.46306 26.1008 9.64518C25.9187 9.82731 25.6765 9.92759 25.419 9.92759C25.1614 9.92759 24.9192 9.82719 24.7371 9.64518C24.555 9.46306 24.4547 9.22079 24.4547 8.96333C24.4547 8.70587 24.5551 8.4636 24.7371 8.28147Z" fill="black"/>
<path d="M18.6689 13.7847C19.4415 13.7847 20.168 13.4838 20.7143 12.9376C21.2608 12.3912 21.5617 11.6647 21.5618 10.8921C21.5619 10.1195 21.2609 9.39291 20.7147 8.84653C20.1683 8.30003 19.4418 7.99918 18.6692 7.99906H18.6691C17.8965 7.99906 17.17 8.29991 16.6238 8.84617C16.0773 9.39255 15.7764 10.119 15.7763 10.8916C15.7762 11.6642 16.0771 12.3908 16.6234 12.9372C17.1698 13.4837 17.8962 13.7845 18.6689 13.7847ZM17.9872 10.21C18.1694 10.0279 18.4115 9.92759 18.6691 9.92759C18.9267 9.92759 19.1688 10.028 19.351 10.21C19.5331 10.3921 19.6334 10.6344 19.6334 10.8919C19.6334 11.1493 19.533 11.3916 19.351 11.5737C19.1688 11.7558 18.9267 11.8561 18.6691 11.8561C18.4115 11.8561 18.1694 11.7557 17.9872 11.5737C17.8051 11.3916 17.7048 11.1493 17.7048 10.8919C17.7048 10.6344 17.8052 10.3921 17.9872 10.21Z" fill="black"/>
<path d="M10.9809 6.09813C11.2297 6.16479 11.4376 6.32437 11.5663 6.54748C11.695 6.77059 11.7293 7.03034 11.6626 7.27912C11.597 7.52356 11.4416 7.7281 11.2246 7.85731V7.88419L12.1774 9.53478C12.8466 9.14847 13.3254 8.52471 13.5255 7.77837C13.7255 7.03202 13.6228 6.25241 13.2367 5.58333C12.8504 4.91413 12.2266 4.4355 11.4802 4.23541C10.734 4.03533 9.9543 4.13778 9.2851 4.52421L10.2492 6.19444C10.4722 6.06559 10.732 6.03124 10.9809 6.09813Z" fill="black"/>
<path d="M29.1771 20.9865C28.9771 20.2402 28.4985 19.6163 27.8294 19.23C27.1603 18.8436 26.3806 18.7409 25.6344 18.9408C24.888 19.1408 24.2641 19.6194 23.8777 20.2886L25.5478 21.253C25.6767 21.0299 25.8846 20.8704 26.1334 20.8037C26.382 20.7371 26.642 20.7712 26.865 20.9001C27.3254 21.166 27.4837 21.7568 27.2178 22.2173L28.8879 23.1816C29.2742 22.5124 29.3769 21.7329 29.1769 20.9865H29.1771Z" fill="black"/>
<path d="M21.2396 5.54308C21.6524 4.0023 20.7348 2.41295 19.1943 2L18.6949 3.86272C19.2085 4.00037 19.5144 4.53023 19.3767 5.04371C19.239 5.5573 18.7089 5.86309 18.1956 5.72556L17.6964 7.58841C17.9463 7.6553 18.1973 7.68724 18.4445 7.68724C19.7216 7.68724 20.8935 6.83375 21.2395 5.54296L21.2396 5.54308Z" fill="black"/>
<path d="M23.37 12.8204H23.3699C22.5973 12.8204 21.8708 13.1212 21.3246 13.6675C20.7781 14.2139 20.4772 14.9403 20.4771 15.7129C20.477 16.4856 20.7779 17.2121 21.3242 17.7585C21.8706 18.305 22.597 18.6059 23.3697 18.606C24.1423 18.606 24.8688 18.3051 25.4151 17.7589C25.9616 17.2125 26.2624 16.486 26.2626 15.7134C26.2627 14.9408 25.9617 14.2142 25.4155 13.6679C24.8691 13.1214 24.1426 12.8205 23.37 12.8204ZM24.0516 16.395C23.8695 16.5772 23.6273 16.6775 23.3698 16.6775C23.1122 16.6775 22.87 16.5771 22.6879 16.395C22.5058 16.2129 22.4055 15.9706 22.4055 15.7132C22.4055 15.4557 22.5059 15.2135 22.6879 15.0313C22.87 14.8492 23.1122 14.7489 23.3698 14.7489C23.6273 14.7489 23.8695 14.8493 24.0516 15.0313C24.2338 15.2135 24.334 15.4557 24.334 15.7132C24.334 15.9706 24.2336 16.2129 24.0516 16.395Z" fill="black"/>
<path d="M10.2603 26.4058V28.4023L12.1886 27.8856V25.8891L10.2603 26.4058Z" fill="black"/>
<path d="M14.1172 25.3724V27.3689L16.0457 26.8522V24.8556L14.1172 25.3724Z" fill="black"/>
<path d="M10.2888 8.96309H7.93814L2.72314 28.4254L4.29779 30L8.3318 28.9191V26.9225L4.87418 27.8491L8.3318 14.945V26.9225L10.2603 26.4058V11.6619L12.1886 13.5902V25.8891L14.1172 25.3724V15.5188L16.0457 17.4473V24.8556L17.9742 24.3389V19.3758L21.8884 23.29L17.9742 24.3389V26.3354L23.7601 24.7851V22.4344L10.2888 8.96309Z" fill="black"/>
</svg>
