<svg width="32" height="32" viewBox="0 0 32 32" fill="none" xmlns="http://www.w3.org/2000/svg">
<path d="M17.7679 28.4513C20.5666 25.2334 22.189 21.2004 22.3998 16.9492H20.9736C20.7542 21.0417 19.1217 24.9123 16.319 27.9361L16.0182 28.2606L15.7175 27.9361C12.9147 24.9123 11.2822 21.0415 11.063 16.9492H9.63685C9.84756 21.203 11.4718 25.2383 14.2736 28.4573C8.46085 27.6557 3.90302 22.8672 3.45941 16.9492H2.03283C2.5226 24.2277 8.59943 30 16 30C23.4005 30 29.4773 24.2277 29.9671 16.9492H28.5405C28.098 22.853 23.5607 27.6327 17.7679 28.4513Z" fill="black"/>
<path d="M14.2727 3.54285C11.4713 6.76166 9.84721 10.797 9.63661 15.0508H11.0627C11.2821 10.956 12.9162 7.08319 15.7215 4.05871L16.0181 3.73885L16.3147 4.05871C19.1202 7.08331 20.7543 10.956 20.9736 15.0508H22.3997C22.1893 10.7995 20.5668 6.76653 17.7685 3.54866C23.561 4.36766 28.0979 9.14712 28.5404 15.0508H29.967C29.4772 7.77227 23.4004 2 15.9999 2C8.59931 2 2.52236 7.77227 2.03271 15.0508H3.45929C3.9029 9.133 8.46026 4.34476 14.2727 3.54285Z" fill="black"/>
<path d="M20.7402 15.2881H11.2937V16.7119H20.7402V15.2881Z" fill="black"/>
<path d="M9.39209 15.2881H3.69694V16.7119H9.39209V15.2881Z" fill="black"/>
<path d="M28.3571 15.2881H22.6444V16.7119H28.3571V15.2881Z" fill="black"/>
</svg>
