<svg width="32" height="32" viewBox="0 0 32 32" fill="none" xmlns="http://www.w3.org/2000/svg">
<path d="M15.9882 3.97463L17.1566 6H18.8884L16.5807 2H15.4292L13.0107 6H14.7636L15.9882 3.97463Z" fill="black"/>
<path d="M16.75 8H15.25V30H16.75V8Z" fill="black"/>
<path d="M10 13.4578L11.2253 15.4998H12.9745L10.575 11.5005H9.425L7.0255 15.4998H8.77475L10 13.4578Z" fill="black"/>
<path d="M9.25 28.25H2V29.75H10.75V17.5H9.25V28.25Z" fill="black"/>
<path d="M22 13.4578L23.2254 15.5H24.9746L22.5746 11.5H21.4254L19.0254 15.5H20.7746L22 13.4578Z" fill="black"/>
<path d="M22.75 17.5H21.25V29.75H30V28.25H22.75V17.5Z" fill="black"/>
</svg>
