<svg width="32" height="32" viewBox="0 0 32 32" fill="none" xmlns="http://www.w3.org/2000/svg">
<path d="M28.9834 2.00268L22.0154 2.00118L22.015 4.00118L26.9846 4.00218L26.999 28.0024H4.99976L5.00239 3.99843L10.015 3.99943L10.0154 1.99943L3.00264 1.99806L2.99951 30.0024H29.0003L28.9834 2.00268Z" fill="black"/>
<path d="M17.906 20.5288L17.9028 20.5256L19.3185 19.1162L17.9075 17.6988L16.4884 19.1114L15.3639 17.9871C16.901 17.8589 18.1128 16.5678 18.1128 14.9983C18.1128 14.1971 17.8006 13.4436 17.2341 12.8771C16.6676 12.3106 15.9141 11.9983 15.1128 11.9984H11.9985V20.0027H13.9985V19.4503L15.0709 20.5226L13.6551 21.9319L15.0661 23.3493L16.4853 21.9367L17.9061 23.3573L19.3203 21.9432L17.906 20.5291V20.5288ZM13.9986 13.9982H15.1129C15.38 13.9982 15.6311 14.1022 15.82 14.2911C16.0089 14.4799 16.1129 14.7311 16.1129 14.9981C16.1129 15.5494 15.6643 15.9981 15.1129 15.9981H13.9986V13.9981V13.9982Z" fill="black"/>
<path d="M19.9996 1.99756H11.9996V9.00243H19.9996V1.99756ZM17.9996 7.00243H13.9996V3.99756H17.9996V7.00243Z" fill="black"/>
</svg>
