<svg width="32" height="32" viewBox="0 0 32 32" fill="none" xmlns="http://www.w3.org/2000/svg">
<path d="M24.8149 8.74074H23.7779V18.0741H24.8149V8.74074Z" fill="black"/>
<path d="M8.22235 8.74074H7.18531V18.0741H8.22235V8.74074Z" fill="black"/>
<path d="M23.7779 28.963H17.0382V30H24.8149V20.1481H23.7779V28.963Z" fill="black"/>
<path d="M8.22235 28.963V20.1481H7.18531V30H14.9641V28.963H8.22235Z" fill="black"/>
<path d="M3.03717 18.5926V6.66667C3.03717 4.66531 4.66544 3.03704 6.6668 3.03704H11.5744L15.3769 8.74074H16.6233L20.4257 3.03704H25.3333C27.3347 3.03704 28.963 4.66531 28.963 6.66667V18.5922L25.3333 18.5891V19.6261L30 19.63V6.66667C30 4.09339 27.9066 2 25.3333 2H19.8706L16 7.80598L12.1294 2H6.66667C4.09339 2 2 4.09339 2 6.66667V19.6296H6.66667V18.5926H3.03717Z" fill="black"/>
<path d="M16.5186 10.8148H15.4816V28.4444H16.5186V10.8148Z" fill="black"/>
<path d="M12.889 18.5926H8.74087V19.6296H12.889V18.5926Z" fill="black"/>
<path d="M23.2594 18.5926H19.1112V19.6296H23.2594V18.5926Z" fill="black"/>
</svg>
