<svg width="32" height="32" viewBox="0 0 32 32" fill="none" xmlns="http://www.w3.org/2000/svg">
<path d="M28.067 17.4504C28.067 13.7318 26.3759 10.4012 23.7229 8.18599V9.48343C25.8052 11.5026 27.1016 14.3277 27.1016 17.4504C27.1016 21.031 25.3972 24.2205 22.7575 26.252V27.443C25.9591 25.271 28.067 21.6024 28.067 17.4504Z" fill="black"/>
<path d="M4.89846 17.4504C4.89846 11.4908 9.61905 6.61355 15.5174 6.35991V5.39395C9.08665 5.64832 3.93311 10.9584 3.93311 17.4504C3.93311 21.6023 6.04096 25.271 9.24256 27.443V26.252C6.60292 24.2207 4.89846 21.0311 4.89846 17.4504Z" fill="black"/>
<path d="M15.5174 7.79684C15.5174 6.66351 15.8754 5.61296 16.4827 4.74969V2H15.5174V7.79684Z" fill="black"/>
<path d="M16 28.8347L13.3039 26.1386H11.9387L15.8001 30H16.2L20.0614 26.1386H18.6962L16 28.8347Z" fill="black"/>
<path d="M15.5174 7.79684V8.27951H17.9308C18.9846 8.27951 19.9668 7.96963 20.7935 7.43809C20.8046 7.43097 20.8157 7.42397 20.8268 7.41673C21.4448 7.01285 21.9735 6.48407 22.3774 5.86613C22.9221 5.03254 23.2402 4.03799 23.2402 2.97006V2.48738H20.8268C19.0325 2.48738 17.4443 3.38299 16.4827 4.74969C15.8754 5.61296 15.5174 6.66351 15.5174 7.79684ZM20.8268 3.45274H22.2482C22.0072 5.62177 20.1629 7.31416 17.9308 7.31416H16.5094C16.7504 5.14513 18.5947 3.45274 20.8268 3.45274Z" fill="black"/>
<path d="M16.4827 25.1732V11.6583H15.5174V25.1732H16.4827Z" fill="black"/>
</svg>
