<svg width="32" height="32" viewBox="0 0 32 32" fill="none" xmlns="http://www.w3.org/2000/svg">
<path d="M15.2944 2H13.8665L5.83782 13.0395L5.82646 13.0554C3.53414 16.3458 3.2785 20.6275 5.15909 24.2296C7.04547 27.8428 10.5677 30 14.581 30V28.067C11.3013 28.067 8.41961 26.298 6.87271 23.3351C5.30455 20.3315 5.50461 16.9053 7.40707 14.1682L14.5873 4.29534L20.7488 12.6316H23.1525L15.2944 2Z" fill="black"/>
<path d="M23.2587 14.5646H21.3256V19.3972H23.2587V14.5646Z" fill="black"/>
<path d="M28.0912 19.3972H23.2587V21.3302H28.0912V19.3972Z" fill="black"/>
<path d="M23.2587 21.3302H21.3256V26.1627H23.2587V21.3302Z" fill="black"/>
<path d="M21.3256 19.3972H16.4931V21.3302H21.3256V19.3972Z" fill="black"/>
</svg>
