<svg width="32" height="32" viewBox="0 0 32 32" fill="none" xmlns="http://www.w3.org/2000/svg">
<path d="M17.4388 8.98936L16.7338 9.68785L22.322 15.3296L23.7322 13.932L18.1399 8.2864L17.4346 8.98514L17.4388 8.98936Z" fill="black"/>
<path d="M6.87028 16.6575L8.28041 15.2604L8.28364 15.2636L5.48931 12.442C4.5563 11.5 4.04592 10.2512 4.05225 8.92533C4.05858 7.59958 4.58074 6.3556 5.52269 5.42258C6.45893 4.49515 7.69819 3.9854 9.01514 3.9854C9.02308 3.9854 9.03139 3.9854 9.03933 3.9854C10.3652 3.99173 11.6091 4.51389 12.5421 5.45584L15.3326 8.273L16.7429 6.87565L13.9526 4.05861C12.6464 2.73993 10.9049 2.00881 9.04876 2C9.03747 2 9.02618 2 9.01489 2C7.17144 2 5.4362 2.71375 4.12559 4.01208C2.80691 5.31823 2.07579 7.0598 2.06698 8.9159C2.05816 10.772 2.77266 12.5205 4.07881 13.8392L6.87028 16.6575Z" fill="black"/>
<path d="M14.5641 23.0141L15.2693 22.3156L9.68099 16.6739L8.97555 17.3726L8.97245 17.3695L8.26751 18.0681L13.8596 23.7137L14.5641 23.0141Z" fill="black"/>
<path d="M23.7193 16.7401L26.5138 19.5615C28.4398 21.506 28.4249 24.6548 26.4803 26.5809C24.536 28.5067 21.387 28.4918 19.461 26.5474L16.667 23.7268L15.2566 25.1241L18.0503 27.9446C19.4071 29.3143 21.1968 30.0001 22.9876 30C24.7558 30 26.525 29.3309 27.8774 27.9913C30.5997 25.2948 30.6207 20.8863 27.9242 18.1642L25.1292 15.3424L23.7193 16.7401Z" fill="black"/>
<path d="M14.5641 23.0141L15.2708 22.3156L16.6674 23.7253L23.7193 16.7401L22.322 15.3296L15.2693 22.3156L14.5641 23.0141Z" fill="black"/>
<path d="M8.97245 17.3695L8.97555 17.3726L9.68099 16.6739L16.7338 9.68785L17.4388 8.98936L17.4346 8.98514L16.7292 9.68413L15.3359 8.27797L8.28364 15.2636L9.67776 16.6708L8.97245 17.3695Z" fill="black"/>
<path d="M8.55626 10.0456C7.73517 10.0456 7.06721 10.7136 7.06721 11.5346C7.06721 12.3557 7.73517 13.0237 8.55626 13.0237C9.37735 13.0237 10.0453 12.3557 10.0453 11.5346C10.0453 10.7136 9.37735 10.0456 8.55626 10.0456Z" fill="black"/>
<path d="M11.5344 7.06749C10.7133 7.06749 10.0453 7.73545 10.0453 8.55654C10.0453 9.37763 10.7133 10.0456 11.5344 10.0456C12.3555 10.0456 13.0234 9.37763 13.0234 8.55654C13.0234 7.73545 12.3555 7.06749 11.5344 7.06749Z" fill="black"/>
<path d="M9.05261 7.56384C9.05261 6.74275 8.38465 6.07479 7.56356 6.07479C6.74247 6.07479 6.07451 6.74275 6.07451 7.56384C6.07451 8.38493 6.74247 9.05289 7.56356 9.05289C8.38465 9.05289 9.05261 8.38493 9.05261 7.56384Z" fill="black"/>
<path d="M23.4468 21.958C24.2679 21.958 24.9358 21.29 24.9358 20.469C24.9358 19.6479 24.2679 18.9799 23.4468 18.9799C22.6257 18.9799 21.9577 19.6479 21.9577 20.469C21.9577 21.29 22.6257 21.958 23.4468 21.958Z" fill="black"/>
<path d="M20.4687 24.9361C21.2898 24.9361 21.9577 24.2681 21.9577 23.4471C21.9577 22.626 21.2898 21.958 20.4687 21.958C19.6476 21.958 18.9796 22.626 18.9796 23.4471C18.9796 24.2681 19.6476 24.9361 20.4687 24.9361Z" fill="black"/>
<path d="M22.9504 24.4398C22.9504 25.2608 23.6184 25.9288 24.4395 25.9288C25.2606 25.9288 25.9285 25.2608 25.9285 24.4398C25.9285 23.6187 25.2606 22.9507 24.4395 22.9507C23.6184 22.9507 22.9504 23.6187 22.9504 24.4398Z" fill="black"/>
</svg>
