<svg width="32" height="32" viewBox="0 0 32 32" fill="none" xmlns="http://www.w3.org/2000/svg">
<path d="M21 14.996V15.9959C23.0074 16.0403 24.0441 16.483 25.1364 16.9511C26.3299 17.4626 27.564 17.9915 30 17.9915V16.9915C27.7692 16.9915 26.6816 16.5254 25.5301 16.0319C24.3927 15.5445 23.216 15.0423 21 14.996Z" fill="black"/>
<path d="M9.5 18.4999H10.5L10.5011 9.99988H6.001C5.17387 9.99988 4.501 9.327 4.501 8.49988C4.501 7.67275 5.17387 6.99988 6.001 6.99988H13.4999V13.7675L15.0585 14.8065C16.2295 15.5873 17.5924 15.9999 18.9999 15.9999V14.9999C17.7905 14.9999 16.6194 14.6454 15.6131 13.9745L14.4999 13.2323V5.99988H6.00112C4.62262 5.99988 3.50113 7.12138 3.50113 8.49988C3.50113 9.87838 4.62262 10.9999 6.00112 10.9999H9.501L9.5 18.4999Z" fill="black"/>
<path d="M7.5 15.4999C7.5 14.1214 6.3785 12.9999 5 12.9999C3.6215 12.9999 2.5 14.1214 2.5 15.4999C2.5 16.8784 3.6215 17.9999 5 17.9999C6.3785 17.9999 7.5 16.8784 7.5 15.4999ZM3.5 15.4999C3.5 14.6728 4.17287 13.9999 5 13.9999C5.82713 13.9999 6.5 14.6728 6.5 15.4999C6.5 16.327 5.82713 16.9999 5 16.9999C4.17287 16.9999 3.5 16.327 3.5 15.4999Z" fill="black"/>
<path d="M20.6665 22.9999C18.2305 22.9999 16.9964 23.5288 15.8029 24.0403C14.6514 24.5338 13.5638 24.9999 11.333 24.9999C9.10225 24.9999 8.01488 24.5338 6.8635 24.0403C5.67 23.5288 4.43587 22.9999 2 22.9999V23.9999C4.23062 23.9999 5.31813 24.466 6.4695 24.9595C7.663 25.471 8.89713 25.9999 11.333 25.9999C13.7689 25.9999 15.0031 25.471 16.1966 24.9595C17.3481 24.466 18.4357 23.9999 20.6665 23.9999C22.8973 23.9999 23.9849 24.466 25.1364 24.9595C26.3299 25.471 27.564 25.9999 30 25.9999V24.9999C27.7692 24.9999 26.6816 24.5338 25.5301 24.0403C24.3366 23.5288 23.1025 22.9999 20.6665 22.9999Z" fill="black"/>
<path d="M15.8029 20.0403C15.4264 20.2016 15.0559 20.3596 14.6509 20.4999C13.8171 20.7884 12.8344 20.9999 11.333 20.9999C9.83162 20.9999 8.849 20.7884 8.01538 20.4999C7.65938 20.3766 7.33 20.2396 7 20.0986V21.1831C7.26925 21.2936 7.54875 21.401 7.85038 21.4999C8.72525 21.7864 9.78662 21.9999 11.333 21.9999C12.8794 21.9999 13.9409 21.7864 14.8158 21.4999C15.3189 21.335 15.7609 21.1463 16.1966 20.9595C16.4626 20.8455 16.7259 20.7333 17 20.6275C17.1139 20.5836 17.2299 20.541 17.3486 20.4999C18.1824 20.2114 19.1651 19.9999 20.6665 19.9999C20.7812 19.9999 20.8911 20.0019 21 20.0043C23.0074 20.0486 24.0441 20.4914 25.1364 20.9595C26.3299 21.471 27.564 21.9999 30 21.9999V20.9999C27.7692 20.9999 26.6816 20.5338 25.5301 20.0403C24.3927 19.5529 23.216 19.0506 21 19.0044C20.8906 19.0021 20.7811 18.9998 20.6665 18.9998C18.2305 18.9998 16.9964 19.5288 15.8029 20.0403Z" fill="black"/>
</svg>
