<svg width="32" height="32" viewBox="0 0 32 32" fill="none" xmlns="http://www.w3.org/2000/svg">
<path d="M15 25.9999C13.6215 25.9999 12.5 24.8784 12.5 23.4999V22.9999H14.5V23.4999C14.5 23.7756 14.7243 23.9999 15 23.9999C15.2758 23.9999 15.5 23.7756 15.5 23.4999V22.9999H17.5V23.4999C17.5 24.8784 16.3785 25.9999 15 25.9999Z" fill="black"/>
<path d="M12.6079 28.9136L12.6341 28.9388C13.38 29.6273 14.3438 30 15.3423 30C15.5271 30 15.7131 29.9873 15.8991 29.9614C17.0903 29.7954 18.1333 29.1116 18.7605 28.0854L27.8541 12.4998H25.5386L17.0493 27.0501C16.735 27.559 16.2159 27.8978 15.6234 27.9803C15.0335 28.0624 14.4436 27.8803 14.0029 27.48L2 15.5621V18.3805L12.6079 28.9135V28.9136Z" fill="black"/>
<path d="M24.8309 3.99988H25C26.6541 3.99988 28 5.34575 28 6.99988H30C30 4.24288 27.757 1.99988 25 1.99988H24.8309C23.0336 1.99988 21.3667 2.97125 20.4867 4.52425L13.2166 16.9999H15.5315L22.2207 5.52088C22.7524 4.58263 23.7525 3.99988 24.8309 3.99988Z" fill="black"/>
<path d="M14.5414 18.9999L7.74663 15.066C7.8215 14.7029 7.82325 14.3247 7.74838 13.9501C7.6015 13.216 7.17775 12.583 6.55475 12.1677L6.52138 12.1455L2 9.62811V11.9171L5.47163 13.8501C5.63563 13.9689 5.74713 14.1425 5.787 14.3422C5.82913 14.5526 5.78675 14.7667 5.66788 14.945L5.07688 15.8314L15.4988 21.8652L15.4999 21.8634V19.5547L14.5413 18.9997L14.5414 18.9999Z" fill="black"/>
</svg>
