<svg width="32" height="32" viewBox="0 0 32 32" fill="none" xmlns="http://www.w3.org/2000/svg">
<path d="M12.8812 28.8511L12.9011 28.8702C13.6065 29.5213 14.518 29.874 15.4628 29.874C15.6377 29.874 15.8136 29.8619 15.9895 29.8374C17.1165 29.6805 18.1029 29.0337 18.6962 28.063L27.795 12.4685H26.0427L17.401 27.2798C17.0447 27.859 16.4544 28.2446 15.7807 28.3385C15.1093 28.432 14.4377 28.2238 13.9371 27.7668L2 15.9137V18.0466L12.8812 28.851V28.8511Z" fill="black"/>
<path d="M25.2072 2.1261H25.0366C23.3138 2.1261 21.716 3.05716 20.8714 4.5481L13.6098 17.009H15.3613L22.1835 5.30221C22.7645 4.27668 23.8578 3.63961 25.0366 3.63961H25.2072C27.0155 3.63961 28.4865 5.11062 28.4865 6.9189H30C30 4.27617 27.8499 2.1261 25.2072 2.1261Z" fill="black"/>
<path d="M12.8469 23.0631V23.5676C12.8469 24.8194 13.8653 25.8378 15.1171 25.8378C16.3689 25.8378 17.3874 24.8194 17.3874 23.5676V23.0631H15.8739V23.5676C15.8739 23.9849 15.5345 24.3243 15.1171 24.3243C14.6998 24.3243 14.3604 23.9849 14.3604 23.5676V23.0631H12.8469Z" fill="black"/>
<path d="M14.1509 19.027L7.50768 15.1809C7.79928 14.1365 7.4059 12.9766 6.45579 12.3433L2 9.85964V11.5919L5.63799 13.6175C6.10755 13.9473 6.2309 14.5957 5.91092 15.0757L5.46368 15.7465L15.6216 21.6273V19.8786L14.1509 19.0271V19.027Z" fill="black"/>
</svg>
