<svg width="32" height="32" viewBox="0 0 32 32" fill="none" xmlns="http://www.w3.org/2000/svg">
<path d="M5.84375 8.49738C5.84375 7.15038 6.8165 6.02712 8.09625 5.79125V4.27525C5.98638 4.52362 4.34375 6.32175 4.34375 8.49738C4.34375 10.673 5.98638 12.4711 8.09625 12.7195V11.2036C6.8165 10.9676 5.84375 9.84425 5.84375 8.49738Z" fill="black"/>
<path d="M18.8294 15.3102C18.1829 14.7627 17.333 14.5287 16.4972 14.6679L13.3237 15.1969C13.1735 15.2219 13.0212 15.2219 12.8709 15.1969L9.69638 14.6677C8.86088 14.5287 8.01075 14.7626 7.36425 15.3101C6.71787 15.8576 6.34688 16.6575 6.34663 17.5047C6.34637 18.3636 6.72525 19.1707 7.386 19.7191L8.84988 20.9342C9.166 21.1966 9.34725 21.5827 9.34725 21.9936V29.995H10.8473V21.9936C10.8473 21.1351 10.4684 20.3284 9.80788 19.7801L8.344 18.565C8.02775 18.3025 7.8465 17.9162 7.84662 17.5051C7.84662 17.0997 8.02425 16.7169 8.33363 16.4549C8.643 16.1927 9.04963 16.0806 9.44975 16.1475L12.6244 16.6766C12.9382 16.7289 13.2565 16.7289 13.5702 16.6766L16.7439 16.1476C17.1436 16.0809 17.5506 16.193 17.86 16.455C18.1694 16.717 18.3469 17.0999 18.347 17.5052C18.347 17.9162 18.1658 18.3025 17.8495 18.565L16.3857 19.7801C15.7251 20.3284 15.3464 21.1351 15.3464 21.9936V29.995H16.8464V21.9936C16.8464 21.5827 17.0278 21.1966 17.3438 20.9342L18.8076 19.7191C19.4685 19.1706 19.8472 18.3635 19.847 17.5047C19.8468 16.6576 19.4759 15.8577 18.8294 15.3102Z" fill="black"/>
<path d="M18.3463 23.4999V29.9999H19.8463V23.4999C19.8463 23.1085 20.0331 22.7346 20.3463 22.4999L21.5463 21.5999L20.6462 20.3999L19.4463 21.2999C18.7575 21.8165 18.3463 22.6389 18.3463 23.4999Z" fill="black"/>
<path d="M18.2106 5.77325C17.369 6.26412 16.8463 7.17425 16.8463 8.14862C16.8463 9.85862 15.455 11.2499 13.745 11.2499H13.4475C11.7375 11.2499 10.3463 9.85862 10.3463 8.14862C10.3463 6.47863 11.2531 4.93738 12.713 4.12637L16.5406 2H13.452L11.9846 2.81525C11.2359 3.23125 10.5985 3.79313 10.0964 4.45263C9.30025 5.49825 8.84637 6.79087 8.84637 8.14875C8.84637 9.36575 9.32212 10.4731 10.0964 11.2967C10.9362 12.1902 12.1275 12.75 13.4476 12.75H13.7451C16.2822 12.75 18.3464 10.6859 18.3464 8.14875C18.3464 7.70587 18.584 7.29212 18.9665 7.069L27.6562 2H24.6793L18.2106 5.77325Z" fill="black"/>
</svg>
