<svg width="32" height="32" viewBox="0 0 32 32" fill="none" xmlns="http://www.w3.org/2000/svg">
<path d="M5.7168 8.4975C5.7168 7.01238 6.80105 5.77625 8.2193 5.53737V4.52738C6.24767 4.77438 4.7168 6.46 4.7168 8.4975C4.7168 10.535 6.24767 12.2206 8.2193 12.4676V11.4575C6.80105 11.2186 5.7168 9.98262 5.7168 8.49737V8.4975Z" fill="black"/>
<path d="M18.7908 15.5011C18.2004 15.0013 17.4244 14.7874 16.6613 14.9148L13.4878 15.4436C13.3103 15.4733 13.1303 15.4733 12.9528 15.4436L9.7783 14.9145C9.01517 14.7875 8.23917 15.0011 7.6488 15.501C7.05842 16.001 6.7198 16.7312 6.71955 17.5049C6.7193 18.289 7.0653 19.026 7.66855 19.5268L9.13242 20.7419C9.50592 21.0519 9.72017 21.5081 9.72017 21.9936V29.995H10.7202V21.9936C10.7202 21.2098 10.3743 20.473 9.77117 19.9725L8.3073 18.7572C7.93367 18.4471 7.71942 17.9907 7.71955 17.505C7.71955 17.0259 7.92942 16.5736 8.29505 16.264C8.66067 15.9544 9.14142 15.8219 9.6138 15.9008L12.7884 16.4299C13.0749 16.4776 13.3655 16.4776 13.6522 16.4299L16.8257 15.9009C17.298 15.8223 17.7788 15.9545 18.1445 16.2641C18.51 16.5738 18.7199 17.026 18.72 17.5051C18.72 17.9908 18.5059 18.4473 18.1323 18.7574L16.6684 19.9725C16.0653 20.4731 15.7193 21.2099 15.7193 21.9937V29.9951H16.7193V21.9937C16.7193 21.5082 16.9335 21.052 17.307 20.742L18.7709 19.5269C19.3743 19.0261 19.7203 18.2891 19.72 17.505C19.7198 16.7315 19.3812 16.0011 18.7908 15.5011Z" fill="black"/>
<path d="M18.7193 23.5V30H19.7193V23.5C19.7193 23.0304 19.9435 22.5817 20.3193 22.3L21.5193 21.4L20.9193 20.6L19.7193 21.5C19.0932 21.9696 18.7193 22.7173 18.7193 23.5Z" fill="black"/>
<path d="M18.4597 5.98938C17.6945 6.43563 17.2193 7.263 17.2193 8.14875C17.2193 9.99663 15.7159 11.5 13.868 11.5H13.5705C11.7227 11.5 10.2193 9.99663 10.2193 8.14875C10.2193 6.388 11.1754 4.763 12.7145 3.90788L16.1488 2H14.0898L12.229 3.03375C11.4087 3.4895 10.7263 4.12712 10.2193 4.87962C9.57917 5.82987 9.2193 6.96363 9.2193 8.14875C9.2193 9.20125 9.59505 10.1675 10.2193 10.9209C11.018 11.8847 12.2238 12.5 13.5705 12.5H13.868C16.2673 12.5 18.2193 10.548 18.2193 8.14875C18.2193 7.61738 18.5044 7.12087 18.9635 6.85313L27.283 2H25.2984L18.4597 5.98938Z" fill="black"/>
</svg>
