<svg width="32" height="32" viewBox="0 0 32 32" fill="none" xmlns="http://www.w3.org/2000/svg">
<path d="M24.6236 7.09248C24.2527 7.09248 23.9056 7.19379 23.6058 7.36778V5.05165C23.6058 3.92896 22.6922 3.01552 21.569 3.01552C21.1491 3.01552 20.7586 3.14343 20.4341 3.36196C20.1548 2.57006 19.401 2 18.5144 2C17.3916 2 16.478 2.91344 16.478 4.03613V5.3319C16.1781 5.15779 15.831 5.05636 15.4598 5.05636C14.916 5.05636 14.4045 5.26814 14.02 5.65276C13.6354 6.03726 13.4235 6.54864 13.4235 7.09248V17.1399L8.68327 12.8313C7.88514 12.042 6.73178 12.0451 5.93619 12.8403C5.55157 13.2249 5.33966 13.7143 5.33966 14.2184C5.33966 14.7226 5.55157 15.2118 5.93619 15.5964L13.4235 23.0823V30H14.4417V22.6605L6.65605 14.8763C6.46094 14.6813 6.35785 14.4537 6.35785 14.2184C6.35785 13.9831 6.46107 13.7554 6.65605 13.5604C7.0562 13.1605 7.57281 13.1608 7.97258 13.5604L13.1758 18.2905H14.4417V7.09261C14.4417 6.82075 14.5475 6.56506 14.7399 6.37288C14.9322 6.18057 15.1879 6.07467 15.4598 6.07467C16.0212 6.07467 16.478 6.53133 16.478 7.09261V7.71154L16.4784 14.7177H17.4966L17.4962 7.09261V4.03613C17.4962 3.47485 17.953 3.01819 18.5148 3.01819C19.0766 3.01819 19.533 3.47485 19.533 4.03613V5.04299C19.533 5.04592 19.5326 5.04872 19.5326 5.05152V8.72693H19.533V14.7251H20.5512V5.04299C20.5559 4.48566 21.0104 4.03358 21.5694 4.03358C22.1284 4.03358 22.5876 4.49024 22.5876 5.05152V9.11996C22.5876 9.12288 22.5872 9.12568 22.5872 9.12848V12.7989H22.5876V14.7226H23.6058V9.11983C23.6105 8.5625 24.065 8.11042 24.6239 8.11042C25.1829 8.11042 25.6421 8.56708 25.6421 9.12836V18.2908H25.6418V23.3818C25.6418 24.6378 24.8614 25.4181 23.6054 25.4181H23.0963V26.4363H23.6054C23.9709 26.4363 24.3111 26.3852 24.6236 26.2919V30H25.6418V25.7524C26.2844 25.2148 26.6599 24.3904 26.6599 23.3818V20.2068H26.6603V9.12836C26.6603 8.00567 25.7468 7.09223 24.6236 7.09223V7.09248Z" fill="black"/>
</svg>
