<svg width="32" height="32" viewBox="0 0 32 32" fill="none" xmlns="http://www.w3.org/2000/svg">
<path d="M16.75 9H15.25V15H16.75V9Z" fill="black"/>
<path d="M16.75 17H15.25V23H16.75V17Z" fill="black"/>
<path d="M23 15.25H17V16.75H23V15.25Z" fill="black"/>
<path d="M15 15.25H9V16.75H15V15.25Z" fill="black"/>
<path d="M25.9853 4.24988C22.9985 4.24988 20.0646 3.47187 17.4713 2H14.5288C11.9354 3.47187 9.0015 4.24988 6.01475 4.24988H3.25V13C3.25 20.3386 7.48075 26.9296 14.0919 30H17.9083C24.5194 26.9296 28.7501 20.3386 28.7501 13V4.24988H25.9853ZM27.25 13C27.25 19.986 23.0833 26.2361 16.6346 28.9231L16 29.1875L15.3654 28.9231C8.91675 26.2361 4.75 19.986 4.75 13V5.74988H6.01475C9.41213 5.74988 12.7476 4.826 15.6608 3.07838L16 2.87488L16.3393 3.07838C19.2524 4.826 22.5879 5.74988 25.9853 5.74988H27.25V13Z" fill="black"/>
</svg>
