<svg width="32" height="32" viewBox="0 0 32 32" fill="none" xmlns="http://www.w3.org/2000/svg">
<path d="M17 9H15V15H17V9Z" fill="black"/>
<path d="M17 17H15V23H17V17Z" fill="black"/>
<path d="M23 15H17V17H23V15Z" fill="black"/>
<path d="M15 15H9V17H15V15Z" fill="black"/>
<path d="M25.9853 3.99988C23.1929 3.99988 20.4474 3.30925 17.9906 2H14.0094C11.5526 3.30925 8.80725 3.99988 6.01475 3.99988H3V13C3 20.2614 7.08838 26.7994 13.518 30H18.4821C24.9118 26.7994 29.0001 20.2614 29.0001 13V3.99988H25.9853ZM27 13C27 19.8848 22.8935 26.0442 16.5385 28.6922L16 28.9166L15.4615 28.6924C9.10638 26.0444 5 19.8849 5 13V5.99988H6.01475C9.45738 5.99988 12.8374 5.06375 15.7893 3.29275L16 3.16637L16.2108 3.29275C19.1626 5.06375 22.5426 5.99988 25.9853 5.99988H27V13Z" fill="black"/>
</svg>
