<svg width="32" height="32" viewBox="0 0 32 32" fill="none" xmlns="http://www.w3.org/2000/svg">
<path d="M10.7756 28.0477L7.11168 28.0595L10.6707 24.204H8.04226L4.40723 28.142V29.9998L11.5782 29.9765L14.4536 27.1011H11.7222L10.7756 28.0477Z" fill="black"/>
<path d="M13.7907 14.5351C13.1874 13.9318 12.8414 13.0366 12.8416 12.0791C12.8416 11.1217 13.1875 10.2267 13.7906 9.62376C15.053 8.36146 16.9569 8.36134 18.2191 9.62376C19.4763 10.8811 19.4814 13.2537 18.2343 14.5199L17.1433 15.5102L19.9325 15.5124C20.679 14.5819 21.0993 13.3587 21.0993 12.0795C21.0993 10.6135 20.5473 9.22069 19.585 8.25813C17.5777 6.25079 14.4327 6.25067 12.4251 8.25813C11.4624 9.22057 10.9103 10.6134 10.9103 12.0792C10.9103 13.5451 11.4623 14.9381 12.4295 15.9054L24.7407 28.0593L21.22 28.0478L10.41 17.4316C8.91453 15.9356 8.09103 13.9489 8.09115 11.8375C8.09127 9.726 8.91513 7.73954 10.4108 6.24403C13.4957 3.15933 18.5148 3.15933 21.5992 6.24403C24.6839 9.32897 24.6839 14.3481 21.5992 17.4324L20.6798 18.41H23.3324C26.7984 14.5507 26.6759 8.58961 22.9649 4.87828C19.1275 1.04057 12.8831 1.04057 9.04502 4.87828C7.18459 6.73859 6.15986 9.21007 6.15974 11.8374C6.1595 14.4651 7.18423 16.9372 9.04502 18.7982L20.4275 29.9767L27.5934 30V28.1615L13.7907 14.5353V14.5351Z" fill="black"/>
</svg>
