<svg width="32" height="32" viewBox="0 0 32 32" fill="none" xmlns="http://www.w3.org/2000/svg">
<path d="M25.999 9.53783V11.2871L28.0413 12.5125L25.999 13.7378V15.4871L29.999 13.0871V11.9378L25.999 9.53783Z" fill="black"/>
<path d="M13 11.7625H2V13.2625H13V11.7625Z" fill="black"/>
<path d="M15.999 4.4702L17.2244 6.51245H18.9736L16.5736 2.51245H15.4244L13.0244 6.51245H14.7736L15.999 4.4702Z" fill="black"/>
<path d="M25.999 23.5378V25.2871L28.0413 26.5125L25.999 27.7378V29.4871L29.999 27.0871V25.9378L25.999 23.5378Z" fill="black"/>
<path d="M16.749 8.50758H15.249V18.7625H2V20.2625H16.749V8.50758Z" fill="black"/>
<path d="M24 25.7625H2V27.2625H24V25.7625Z" fill="black"/>
<path d="M24 11.7625H19V13.2625H24V11.7625Z" fill="black"/>
</svg>
