<svg width="32" height="32" viewBox="0 0 32 32" fill="none" xmlns="http://www.w3.org/2000/svg">
<path d="M25.999 9.97508V11.1413L28.5273 12.6582L25.999 14.1751V15.3413L29.999 12.9413V12.3751L25.999 9.97508Z" fill="black"/>
<path d="M13 12.1582H2V13.1582H13V12.1582Z" fill="black"/>
<path d="M15.999 4.12995L17.5159 6.6582H18.6821L16.2821 2.6582H15.7159L13.3159 6.6582H14.4821L15.999 4.12995Z" fill="black"/>
<path d="M25.999 23.9751V25.1413L28.5273 26.6582L25.999 28.1751V29.3413L29.999 26.9413V26.3751L25.999 23.9751Z" fill="black"/>
<path d="M16.499 8.65333H15.499V19.1582H2V20.1582H16.499V8.65333Z" fill="black"/>
<path d="M24 26.1582H2V27.1582H24V26.1582Z" fill="black"/>
<path d="M24 12.1582H19V13.1582H24V12.1582Z" fill="black"/>
</svg>
