<svg width="32" height="32" viewBox="0 0 32 32" fill="none" xmlns="http://www.w3.org/2000/svg">
<path d="M16 3.03704C20.7188 3.03704 24.806 5.79193 26.7384 9.77778H27.8794C25.8752 5.2038 21.305 2 15.9999 2C10.6948 2 6.12468 5.2038 4.12034 9.77778H5.26134C7.19373 5.79193 11.281 3.03704 15.9997 3.03704H16Z" fill="black"/>
<path d="M27.4074 11.3333V12.3704C28.2652 12.3704 28.963 13.0682 28.963 13.9259V16C28.963 16.8578 28.2652 17.5556 27.4074 17.5556V18.5926C28.837 18.5926 30 17.4296 30 16V13.9259C30 12.4964 28.837 11.3333 27.4074 11.3333Z" fill="black"/>
<path d="M2.30333 12.7119C2.11031 13.0744 2 13.4874 2 13.9259V16C2 17.4296 3.16304 18.5926 4.59259 18.5926V17.5556C3.73483 17.5556 3.03704 16.8578 3.03704 16V13.9259C3.03704 13.0682 3.73483 12.3704 4.59259 12.3704V11.3333C3.60157 11.3333 2.73954 11.8928 2.30333 12.7119Z" fill="black"/>
<path d="M26.8889 26.3704C26.8889 27.2281 26.1911 27.9259 25.3333 27.9259H17.4648C17.2505 27.3228 16.6758 26.8889 16 26.8889C15.1422 26.8889 14.4444 27.5867 14.4444 28.4444C14.4444 29.3022 15.1422 30 16 30C16.6758 30 17.2505 29.5661 17.4648 28.963H25.3333C26.7629 28.963 27.9259 27.7999 27.9259 26.3704V20.1481H26.8889V26.3704Z" fill="black"/>
<path d="M19.5047 18.0741H18.4034C17.9998 19.0071 17.0697 19.6623 15.9884 19.6623C14.9072 19.6623 13.9771 19.0071 13.5734 18.0741H12.4722C12.9213 19.5898 14.3271 20.6993 15.9884 20.6993C17.6498 20.6993 19.0557 19.5898 19.5047 18.0741Z" fill="black"/>
<path d="M24.6315 19.6296C25.3785 18.2484 25.8031 16.6686 25.8031 14.9914C25.8031 13.291 25.3663 11.691 24.6002 10.2963C24.5044 10.122 24.4021 9.95176 24.2962 9.78415C22.5619 7.03729 19.501 5.2077 16.0193 5.2077C12.5118 5.2077 9.4309 7.064 7.70358 9.84481C7.61155 9.99298 7.52262 10.1432 7.43849 10.2964C6.67238 11.6911 6.23553 13.291 6.23553 14.9915C6.23553 16.6688 6.66032 18.2486 7.40712 19.6298C9.06236 22.6908 12.3018 24.7752 16.0192 24.7752C19.7366 24.7752 22.976 22.6908 24.6313 19.6298L24.6315 19.6296ZM7.70371 17.6988C7.42527 16.8457 7.27269 15.9362 7.27269 14.9912C7.27269 14.0462 7.42527 13.1369 7.70371 12.2837C8.84666 8.78224 12.1413 6.24448 16.0195 6.24448C19.8549 6.24448 23.1194 8.72714 24.2963 12.1691C24.5993 13.0552 24.7662 14.0038 24.7662 14.9912C24.7662 15.9786 24.5994 16.9273 24.2963 17.8134C23.1194 21.2553 19.8549 23.738 16.0195 23.738C12.1415 23.738 8.84666 21.2002 7.70371 17.6988Z" fill="black"/>
<path d="M14.4444 13.4074C14.4444 12.2638 13.514 11.3333 12.3704 11.3333C11.2268 11.3333 10.2963 12.2638 10.2963 13.4074C10.2963 14.551 11.2268 15.4815 12.3704 15.4815C13.514 15.4815 14.4444 14.551 14.4444 13.4074ZM12.3704 14.4444C11.7986 14.4444 11.3333 13.9792 11.3333 13.4074C11.3333 12.8356 11.7986 12.3704 12.3704 12.3704C12.9422 12.3704 13.4074 12.8356 13.4074 13.4074C13.4074 13.9792 12.9422 14.4444 12.3704 14.4444Z" fill="black"/>
<path d="M19.6296 15.4815C20.7732 15.4815 21.7037 14.551 21.7037 13.4074C21.7037 12.2638 20.7732 11.3333 19.6296 11.3333C18.486 11.3333 17.5556 12.2638 17.5556 13.4074C17.5556 14.551 18.486 15.4815 19.6296 15.4815ZM19.6296 12.3704C20.2014 12.3704 20.6667 12.8356 20.6667 13.4074C20.6667 13.9792 20.2014 14.4444 19.6296 14.4444C19.0578 14.4444 18.5926 13.9792 18.5926 13.4074C18.5926 12.8356 19.0578 12.3704 19.6296 12.3704Z" fill="black"/>
</svg>
