<svg width="32" height="32" viewBox="0 0 32 32" fill="none" xmlns="http://www.w3.org/2000/svg">
<path d="M16 4C20.2661 4 23.9727 6.44125 25.7965 10H27.9994C26.0364 5.3065 21.3973 2 16 2C10.6028 2 5.96363 5.3065 4.00063 10H6.2035C8.02725 6.44125 11.7339 4 16 4Z" fill="black"/>
<path d="M27 11V13C27.5514 13 28 13.4486 28 14V16C28 16.5514 27.5514 17 27 17V19C28.6543 19 30 17.6541 30 16V14C30 12.3459 28.6543 11 27 11Z" fill="black"/>
<path d="M2.238 12.8294C2.08487 13.1892 2 13.5849 2 14V16C2 17.6541 3.34575 19 5 19V17C4.44863 17 4 16.5514 4 16V14C4 13.4486 4.44863 13 5 13V11C3.76087 11 2.695 11.7551 2.238 12.8294Z" fill="black"/>
<path d="M26 26C26 26.5514 25.5514 27 25 27H17.7294C17.3829 26.4033 16.7384 26 16 26C14.8973 26 14 26.8973 14 28C14 29.1028 14.8973 30 16 30C16.7384 30 17.3829 29.5968 17.7294 29H25C26.6543 29 28 27.6541 28 26V20H26V26Z" fill="black"/>
<path d="M19.899 18H17.7589C17.4085 18.615 16.7471 19.0315 15.9889 19.0315C15.2306 19.0315 14.5693 18.615 14.2189 18H12.0787C12.5251 19.7409 14.1089 21.0315 15.9889 21.0315C17.8689 21.0315 19.4526 19.7409 19.899 18Z" fill="black"/>
<path d="M24.885 19.5C25.5665 18.1546 25.9531 16.6358 25.9531 15.0274C25.9531 13.3971 25.5559 11.8589 24.857 10.5C24.7699 10.3305 24.6785 10.1636 24.582 10C22.8533 7.06675 19.663 5.093 16.0189 5.093C12.3748 5.093 9.1845 7.06675 7.45575 10C7.35925 10.1636 7.26788 10.3305 7.18075 10.5C6.48187 11.8588 6.08462 13.3971 6.08462 15.0274C6.08462 16.6358 6.47125 18.1548 7.15275 19.5C8.79213 22.7365 12.1496 24.9616 16.019 24.9616C19.8884 24.9616 23.2455 22.7365 24.885 19.5ZM8.0845 15.0274C8.0845 10.6524 11.6439 7.093 16.0189 7.093C20.3939 7.093 23.9533 10.6524 23.9533 15.0274C23.9533 19.4024 20.3939 22.9618 16.0189 22.9618C11.6439 22.9618 8.0845 19.4024 8.0845 15.0274Z" fill="black"/>
<path d="M15 13.5C15 12.1215 13.8785 11 12.5 11C11.1215 11 10 12.1215 10 13.5C10 14.8785 11.1215 16 12.5 16C13.8785 16 15 14.8785 15 13.5ZM12 13.5C12 13.2243 12.2242 13 12.5 13C12.7758 13 13 13.2243 13 13.5C13 13.7758 12.7758 14 12.5 14C12.2242 14 12 13.7758 12 13.5Z" fill="black"/>
<path d="M19.5 16C20.8785 16 22 14.8785 22 13.5C22 12.1215 20.8785 11 19.5 11C18.1215 11 17 12.1215 17 13.5C17 14.8785 18.1215 16 19.5 16ZM19.5 13C19.7758 13 20 13.2243 20 13.5C20 13.7758 19.7758 14 19.5 14C19.2243 14 19 13.7758 19 13.5C19 13.2243 19.2243 13 19.5 13Z" fill="black"/>
</svg>
