<svg width="32" height="32" viewBox="0 0 32 32" fill="none" xmlns="http://www.w3.org/2000/svg">
<path d="M30 4.16365H28.4727V20.4546H30V4.16365Z" fill="black"/>
<path d="M28.2182 2.38184H3.78182V3.90911H28.2182V2.38184Z" fill="black"/>
<path d="M3.52727 27.1746V4.16365H2V29.6182H3.33636L10.2218 22.2364H28.2182V20.7091H9.56L3.52727 27.1746Z" fill="black"/>
<path d="M22.1091 13.0727V11.5455H17.8455L21.1545 8.23638H18.9909L16.7636 10.4637V6.20002H15.2364V10.4637L13.0091 8.23638H10.8455L14.1545 11.5455H9.89091V13.0727H14.1545L10.8455 16.3818H13.0091L15.2364 14.1546V18.4182H16.7636V14.1546L18.9909 16.3818H21.1545L17.8455 13.0727H22.1091Z" fill="black"/>
</svg>
