<svg width="32" height="32" viewBox="0 0 32 32" fill="none" xmlns="http://www.w3.org/2000/svg">
<path d="M9.77894 12.6296H14.7493L11.1193 16.2593H12.5858L15.4826 13.3627V18.3334H16.5197V13.363L19.4157 16.2593H20.8821L17.2527 12.6296H22.2234V11.5926H17.2529L20.8828 7.96298H19.4163L16.5197 10.8594V5.88891H15.4826V10.8594L12.5865 7.96298H11.1201L14.7495 11.5926H9.77894V12.6296Z" fill="black"/>
<path d="M28.4444 2.25928H3.55556V3.29631H28.4444V2.25928Z" fill="black"/>
<path d="M3.03704 27.9068V3.81483H2V29.7408H2.74381L10.0031 21.963H28.4444V20.9259H9.55248L3.03704 27.9068Z" fill="black"/>
<path d="M30 3.81483H28.963V20.4074H30V3.81483Z" fill="black"/>
</svg>
