<svg width="32" height="32" viewBox="0 0 32 32" fill="none" xmlns="http://www.w3.org/2000/svg">
<path d="M30 4.5H28V20.5H30V4.5Z" fill="black"/>
<path d="M28 2.5H4V4.5H28V2.5Z" fill="black"/>
<path d="M9.5625 20.5L4 26.4625V4.5H2V29.5H3.9L10.4375 22.5H28V20.5H9.5625Z" fill="black"/>
<path d="M22 13.5V11.5H18.4125L21.4125 8.5H18.5875L17 10.0875V6.5H15V10.0875L13.4125 8.5H10.5875L13.5875 11.5H10V13.5H13.5875L10.5875 16.5H13.4125L15 14.9125V18.5H17V14.9125L18.5875 16.5H21.4125L18.4125 13.5H22Z" fill="black"/>
</svg>
