<svg width="32" height="32" viewBox="0 0 32 32" fill="none" xmlns="http://www.w3.org/2000/svg">
<path d="M9.89091 8.10909V9.63636H15.7455V2H2V9.63636H7.85455V8.10909H3.52727V3.52727H14.2182V8.10909H9.89091Z" fill="black"/>
<path d="M16.2545 12.1818V15.2364H9.90478V16.7636H16.2545V19.8182H30V12.1818H16.2545ZM28.4727 18.2909H17.7818V13.7091H28.4727V18.2909Z" fill="black"/>
<path d="M16.2545 25.4182H9.90478V26.9455H16.2545V30H30V22.3636H16.2545V25.4182ZM17.7818 23.8909H28.4727V28.4727H17.7818V23.8909Z" fill="black"/>
<path d="M9.63636 9.88658H8.10909V14.9775H9.63636V9.88658Z" fill="black"/>
<path d="M9.63636 17.0139H8.10909V25.1593H9.63636V17.0139Z" fill="black"/>
</svg>
