<svg width="32" height="32" viewBox="0 0 32 32" fill="none" xmlns="http://www.w3.org/2000/svg">
<path d="M4 2H2V30H4V26.0042H28V30H30V16.0042H4V2ZM28 18.0042V24.0042H4V18.0042H28Z" fill="black"/>
<path d="M13 13.0042H5V15.0042H13V13.0042Z" fill="black"/>
<path d="M24 11.0042C25.6543 11.0042 27 9.65837 27 8.00424C27 6.35012 25.6543 5.00424 24 5.00424C22.3458 5.00424 21 6.35012 21 8.00424C21 9.65837 22.3458 11.0042 24 11.0042ZM24 7.00424C24.5514 7.00424 25 7.45287 25 8.00424C25 8.55562 24.5514 9.00424 24 9.00424C23.4486 9.00424 23 8.55562 23 8.00424C23 7.45287 23.4486 7.00424 24 7.00424Z" fill="black"/>
<path d="M20 7.00424H18V9.00424H20V7.00424Z" fill="black"/>
<path d="M30 7.00424H28V9.00424H30V7.00424Z" fill="black"/>
<path d="M25 12.0042H23V14.0042H25V12.0042Z" fill="black"/>
<path d="M25 2.00424H23V4.00424H25V2.00424Z" fill="black"/>
<path d="M20.4647 3.05431L19.0505 4.46841L20.4646 5.88256L21.8788 4.46846L20.4647 3.05431Z" fill="black"/>
<path d="M27.5353 10.1256L26.1212 11.5397L27.5352 12.9539L28.9494 11.5398L27.5353 10.1256Z" fill="black"/>
<path d="M20.4643 10.1253L19.05 11.5394L20.4642 12.9537L21.8785 11.5395L20.4643 10.1253Z" fill="black"/>
<path d="M27.5356 3.05452L26.1213 4.46869L27.5355 5.88295L28.9498 4.46879L27.5356 3.05452Z" fill="black"/>
</svg>
