<svg width="32" height="32" viewBox="0 0 32 32" fill="none" xmlns="http://www.w3.org/2000/svg">
<path d="M3.625 2H2.125V30H3.625V25.7542H28.125V30H29.625V16.2542H3.625V2ZM28.125 17.7542V24.2542H3.625V17.7542H28.125Z" fill="black"/>
<path d="M12.875 13.2542H4.875V14.7542H12.875V13.2542Z" fill="black"/>
<path d="M23.875 10.7542C25.3914 10.7542 26.625 9.52062 26.625 8.00424C26.625 6.48787 25.3914 5.25424 23.875 5.25424C22.3586 5.25424 21.125 6.48787 21.125 8.00424C21.125 9.52062 22.3586 10.7542 23.875 10.7542ZM23.875 6.75424C24.5643 6.75424 25.125 7.31499 25.125 8.00424C25.125 8.69349 24.5643 9.25424 23.875 9.25424C23.1857 9.25424 22.625 8.69349 22.625 8.00424C22.625 7.31499 23.1857 6.75424 23.875 6.75424Z" fill="black"/>
<path d="M19.875 7.25424H17.875V8.75424H19.875V7.25424Z" fill="black"/>
<path d="M29.875 7.25424H27.875V8.75424H29.875V7.25424Z" fill="black"/>
<path d="M24.625 12.0042H23.125V14.0042H24.625V12.0042Z" fill="black"/>
<path d="M24.625 2.00424H23.125V4.00424H24.625V2.00424Z" fill="black"/>
<path d="M20.1628 3.23119L19.1022 4.29175L20.5163 5.7059L21.5769 4.64534L20.1628 3.23119Z" fill="black"/>
<path d="M27.2335 10.3025L26.1729 11.363L27.5869 12.7772L28.6476 11.7167L27.2335 10.3025Z" fill="black"/>
<path d="M20.516 10.302L19.1017 11.7161L20.1624 12.7769L21.5767 11.3628L20.516 10.302Z" fill="black"/>
<path d="M27.5874 3.23134L26.1731 4.64548L27.2338 5.70628L28.6481 4.29214L27.5874 3.23134Z" fill="black"/>
</svg>
