<svg width="32" height="32" viewBox="0 0 32 32" fill="none" xmlns="http://www.w3.org/2000/svg">
<path d="M3.25 2H2.25V30H3.25V25.5042H28.25V30H29.25V16.5042H3.25V2ZM28.25 17.5042V24.5042H3.25V17.5042H28.25Z" fill="black"/>
<path d="M12.75 13.5042H4.75V14.5042H12.75V13.5042Z" fill="black"/>
<path d="M23.75 10.5042C25.1285 10.5042 26.25 9.38274 26.25 8.00424C26.25 6.62574 25.1285 5.50424 23.75 5.50424C22.3715 5.50424 21.25 6.62574 21.25 8.00424C21.25 9.38274 22.3715 10.5042 23.75 10.5042ZM23.75 6.50424C24.5771 6.50424 25.25 7.17712 25.25 8.00424C25.25 8.83137 24.5771 9.50424 23.75 9.50424C22.9229 9.50424 22.25 8.83137 22.25 8.00424C22.25 7.17712 22.9229 6.50424 23.75 6.50424Z" fill="black"/>
<path d="M19.75 7.50424H17.75V8.50424H19.75V7.50424Z" fill="black"/>
<path d="M29.75 7.50424H27.75V8.50424H29.75V7.50424Z" fill="black"/>
<path d="M24.25 12.0042H23.25V14.0042H24.25V12.0042Z" fill="black"/>
<path d="M24.25 2.00424H23.25V4.00424H24.25V2.00424Z" fill="black"/>
<path d="M19.8611 3.40787L19.154 4.11496L20.5681 5.52911L21.2752 4.82202L19.8611 3.40787Z" fill="black"/>
<path d="M26.932 10.4793L26.2248 11.1863L27.6388 12.6006L28.346 11.8935L26.932 10.4793Z" fill="black"/>
<path d="M20.5678 10.479L19.1536 11.8932L19.8606 12.6003L21.2749 11.1861L20.5678 10.479Z" fill="black"/>
<path d="M27.6392 3.40839L26.225 4.8226L26.9321 5.52962L28.3463 4.11541L27.6392 3.40839Z" fill="black"/>
</svg>
