<svg width="32" height="32" viewBox="0 0 32 32" fill="none" xmlns="http://www.w3.org/2000/svg">
<path d="M26.2667 2.46667C24.5303 2.46667 23.067 3.65831 22.6515 5.26667H18.8V3.40001H13.2V5.26667H9.34848C8.93292 3.65831 7.46968 2.46667 5.73333 2.46667C3.67475 2.46667 2 4.14142 2 6.20001C2 8.25859 3.67475 9.93334 5.73333 9.93334C7.46968 9.93334 8.93303 8.74171 9.34848 7.13334H13.2V9.00001H18.8V7.13334H22.6515C23.0671 8.74171 24.5303 9.93334 26.2667 9.93334C28.3253 9.93334 30 8.25859 30 6.20001C30 4.14142 28.3253 2.46667 26.2667 2.46667ZM5.73333 8.06667C4.7041 8.06667 3.86667 7.22924 3.86667 6.20001C3.86667 5.17077 4.7041 4.33334 5.73333 4.33334C6.76257 4.33334 7.6 5.17077 7.6 6.20001C7.6 7.22924 6.76257 8.06667 5.73333 8.06667ZM16.9333 7.13334H15.0667V5.26667H16.9333V7.13334ZM26.2667 8.06667C25.2374 8.06667 24.4 7.22924 24.4 6.20001C24.4 5.17077 25.2374 4.33334 26.2667 4.33334C27.2959 4.33334 28.1333 5.17077 28.1333 6.20001C28.1333 7.22924 27.2959 8.06667 26.2667 8.06667Z" fill="black"/>
<path d="M14.9215 10.8667L5.73333 26.7372V29.5333H26.2667V26.7372L17.0785 10.8667H14.9215ZM7.3522 27.6667L16 12.7295L24.6478 27.6667H7.3522Z" fill="black"/>
</svg>
