<svg width="32" height="32" viewBox="0 0 32 32" fill="none" xmlns="http://www.w3.org/2000/svg">
<path d="M26.4407 2.47461C24.7218 2.47461 23.2837 3.69937 22.953 5.32207H18.6102V3.42376H13.3898V5.32207H9.04698C8.7162 3.69937 7.27812 2.47461 5.55932 2.47461C3.59671 2.47461 2 4.07132 2 6.03393C2 7.99654 3.59671 9.59325 5.55932 9.59325C7.27824 9.59325 8.71632 8.36849 9.04698 6.7458H13.3898V8.6441H18.6102V6.7458H22.953C23.2838 8.36849 24.7219 9.59325 26.4407 9.59325C28.4033 9.59325 30 7.99654 30 6.03393C30 4.07132 28.4033 2.47461 26.4407 2.47461ZM5.55932 8.16953C4.38178 8.16953 3.42373 7.21147 3.42373 6.03393C3.42373 4.85639 4.38178 3.89834 5.55932 3.89834C6.73686 3.89834 7.69492 4.85639 7.69492 6.03393C7.69492 7.21147 6.73686 8.16953 5.55932 8.16953ZM17.1864 7.22037H14.8136V4.84749H17.1864V7.22037ZM26.4407 8.16953C25.2631 8.16953 24.3051 7.21147 24.3051 6.03393C24.3051 4.85639 25.2631 3.89834 26.4407 3.89834C27.6182 3.89834 28.5763 4.85639 28.5763 6.03393C28.5763 7.21147 27.6182 8.16953 26.4407 8.16953Z" fill="black"/>
<path d="M15.1774 10.7797L5.55932 27.393V29.5255H26.4407V27.393L16.8226 10.7797H15.1774ZM6.79393 28.1017L16 12.2005L25.2061 28.1017H6.79393Z" fill="black"/>
</svg>
