<svg width="32" height="32" viewBox="0 0 32 32" fill="none" xmlns="http://www.w3.org/2000/svg">
<path d="M15.9998 3.42373C22.6151 3.42373 28.0536 8.55793 28.5404 15.0508H29.967C29.4772 7.77227 23.4004 2 15.9998 2C8.59931 2 2.52248 7.77227 2.03271 15.0508H3.45929C3.94609 8.55793 9.38461 3.42373 15.9998 3.42373Z" fill="black"/>
<path d="M15.9998 28.5763C9.38461 28.5763 3.94609 23.4421 3.45929 16.9492H2.03271C2.52248 24.2277 8.59931 30 15.9998 30C23.4004 30 29.4772 24.2277 29.967 16.9492H28.5404C28.0536 23.4421 22.6151 28.5763 15.9998 28.5763Z" fill="black"/>
<path d="M28.3026 15.2881H3.69705V16.7119H28.3026V15.2881Z" fill="black"/>
</svg>
