<svg width="32" height="32" viewBox="0 0 32 32" fill="none" xmlns="http://www.w3.org/2000/svg">
<path d="M28.0976 16.9333C27.6195 23.1892 22.3762 28.1333 15.9999 28.1333C9.62359 28.1333 4.38024 23.1892 3.90214 16.9333H2.03174C2.51369 24.2194 8.59401 30 15.9999 30C23.4058 30 29.486 24.2194 29.968 16.9333H28.0976Z" fill="black"/>
<path d="M3.90214 15.0667C4.38024 8.81077 9.62359 3.86667 15.9999 3.86667C22.3762 3.86667 27.6195 8.81077 28.0976 15.0667H29.968C29.4861 7.7806 23.4058 2 15.9999 2C8.59401 2 2.5138 7.7806 2.03174 15.0667H3.90214Z" fill="black"/>
<path d="M28.0976 15.0667H3.90214V16.9333H28.0976V15.0667Z" fill="black"/>
</svg>
