<svg width="32" height="32" viewBox="0 0 32 32" fill="none" xmlns="http://www.w3.org/2000/svg">
<path d="M16 30C8.28042 30 2 23.7196 2 16C2 8.28042 8.28042 2 16 2C23.7196 2 30 8.28042 30 16C30 23.7196 23.7196 30 16 30ZM16 3.42373C9.06549 3.42373 3.42373 9.06549 3.42373 16C3.42373 22.9345 9.06549 28.5763 16 28.5763C22.9345 28.5763 28.5763 22.9345 28.5763 16C28.5763 9.06549 22.9346 3.42373 16 3.42373Z" fill="black"/>
<path d="M16.6989 6.5131H15.2752V15.0555H16.6989V6.5131Z" fill="black"/>
<path d="M25.4786 15.2928H16.9362V16.7165H25.4786V15.2928Z" fill="black"/>
<path d="M16.6989 16.9538H15.2752V25.4962H16.6989V16.9538Z" fill="black"/>
<path d="M15.0379 15.2928H6.49554V16.7165H15.0379V15.2928Z" fill="black"/>
</svg>
