<svg width="32" height="32" viewBox="0 0 32 32" fill="none" xmlns="http://www.w3.org/2000/svg">
<path d="M16 30C8.28033 30 2 23.7197 2 16C2 8.28033 8.28033 2 16 2C23.7197 2 30 8.28033 30 16C30 23.7197 23.7197 30 16 30ZM16 2.96552C8.81269 2.96552 2.96552 8.81269 2.96552 16C2.96552 23.1873 8.81269 29.0345 16 29.0345C23.1873 29.0345 29.0345 23.1873 29.0345 16C29.0345 8.81269 23.1873 2.96552 16 2.96552Z" fill="black"/>
<path d="M16.4696 6.34953H15.5041V15.0392H16.4696V6.34953Z" fill="black"/>
<path d="M25.642 15.5219H16.9524V16.4875H25.642V15.5219Z" fill="black"/>
<path d="M16.4696 16.9702H15.5041V25.6599H16.4696V16.9702Z" fill="black"/>
<path d="M15.0213 15.5219H6.33167V16.4875H15.0213V15.5219Z" fill="black"/>
</svg>
