<svg width="32" height="32" viewBox="0 0 32 32" fill="none" xmlns="http://www.w3.org/2000/svg">
<path d="M13 14.3464L11.03 15.7715V12.0896C11.03 11.2664 11.3976 10.5108 12 10.0028V7.69938C10.2125 8.41512 9.03 10.1448 9.03 12.0896V16.8971C9.03 17.4237 9.3185 17.9052 9.78275 18.1537C9.99388 18.2668 10.225 18.3229 10.4554 18.3229C10.7315 18.3229 11.0069 18.2424 11.2456 18.0831L14.1721 15.9669C14.6905 15.592 15 14.9861 15 14.3464V12H13V14.3464Z" fill="black"/>
<path d="M20 9.99037C20.6114 10.4984 20.9855 11.2595 20.9855 12.0896V15.7746L19 14.3449V11.9999H17V14.3449C17 14.9864 17.3107 15.5931 17.8312 15.9677L20.7401 18.0624L20.7699 18.083C21.0087 18.2421 21.284 18.3226 21.5601 18.3226C21.7905 18.3226 22.0216 18.2666 22.2329 18.1535C22.6971 17.905 22.9855 17.4235 22.9855 16.8969V12.0894C22.9855 10.1389 21.7961 8.40475 20 7.69287V9.99037Z" fill="black"/>
<path d="M13.0004 9.99588L15.0004 9.99562L15 6L13 6.00012L13.0004 9.99588Z" fill="black"/>
<path d="M17 9.99588L19 9.99562L18.9996 6L16.9996 6.00012L17 9.99588Z" fill="black"/>
<path d="M2 22H30V2H2V22ZM4 4H28V20H4V4Z" fill="black"/>
<path d="M7 24V30H25V24H23V28H9V24H7Z" fill="black"/>
<path d="M15 24H11V26H15V24Z" fill="black"/>
</svg>
