<svg width="32" height="32" viewBox="0 0 32 32" fill="none" xmlns="http://www.w3.org/2000/svg">
<path d="M15.877 15.2632C13.3038 15.2632 11.2103 13.1697 11.2103 10.5965C11.2103 8.02332 13.3038 5.92982 15.877 5.92982C18.4501 5.92982 20.5436 8.02332 20.5436 10.5965C20.5436 13.1697 18.4501 15.2632 15.877 15.2632ZM15.877 7.40351C14.1164 7.40351 12.684 8.83581 12.684 10.5965C12.684 12.3572 14.1164 13.7895 15.877 13.7895C17.6375 13.7895 19.0699 12.3572 19.0699 10.5965C19.0699 8.83581 17.6375 7.40351 15.877 7.40351Z" fill="black"/>
<path d="M17.9872 30H14.0125L7.95812 13.578C6.96228 10.9077 7.3237 8.03056 8.95077 5.68728C10.578 3.344 13.1472 2 16.0001 2C18.8531 2 21.4222 3.34388 23.0494 5.68716C24.6765 8.03032 25.038 10.9073 24.0414 13.5802L17.9872 29.9999V30ZM15.0398 28.5263H16.9599L22.6597 13.0679C23.4861 10.8514 23.1867 8.46861 21.8389 6.52765C20.4912 4.58681 18.3631 3.47368 16.0001 3.47368C13.6372 3.47368 11.509 4.58681 10.1613 6.52777C8.8136 8.46874 8.51419 10.8517 9.33983 13.0656L15.0398 28.5263Z" fill="black"/>
</svg>
