<svg width="32" height="32" viewBox="0 0 32 32" fill="none" xmlns="http://www.w3.org/2000/svg">
<path d="M4 22.477V24.8291C7.54125 26.8837 11.7172 28 15.9671 28C20.2466 28 24.4513 26.8681 28.0081 24.786V22.4275C24.5594 24.7345 20.3088 26 15.9671 26C11.6565 26 7.43563 24.7526 4 22.477Z" fill="black"/>
<path d="M27.9824 9.55525V7.199C24.4309 5.1265 20.2362 4 15.9671 4C11.698 4 7.535 5.11787 3.99187 7.17562V9.5285C7.42887 7.24937 11.6531 6.00012 15.9671 6.00012C20.2811 6.00012 24.5381 7.25913 27.9824 9.55525Z" fill="black"/>
<path d="M27.7874 11.8964C24.8235 8.9325 20.9387 7.2245 16.7784 7.03825C16.5109 7.01425 16.2406 6.99988 15.967 6.99988C15.6429 6.99988 15.323 7.018 15.0077 7.05162C10.9404 7.29312 7.15013 8.991 4.24488 11.8964L2 14.1412V17.9051L4.24488 20.15C7.389 23.2939 11.5699 25.0257 16.0161 25.0257C20.4624 25.0257 24.6431 23.2941 27.7874 20.15L30 17.9374V14.1089L27.7874 11.8964ZM22.9671 16C22.9671 19.8597 19.827 23 15.9671 23C12.1073 23 8.96712 19.8597 8.96712 16C8.96712 12.4034 11.694 9.43287 15.1888 9.04425C15.4633 9.029 15.739 9.02063 16.0161 9.02063C16.2374 9.02063 16.4578 9.02613 16.6774 9.03588C20.2049 9.393 22.9671 12.3799 22.9671 16ZM5.65925 18.736L2.9465 16.0233L5.65925 13.3105C6.49137 12.4784 7.4065 11.7595 8.38525 11.1599C7.48925 12.5586 6.96712 14.2189 6.96712 15.9999C6.96712 17.8136 7.50825 19.5024 8.43475 20.917C7.43725 20.3114 6.50537 19.5821 5.65925 18.7359V18.736ZM26.3731 18.736C25.4821 19.627 24.496 20.3882 23.4385 21.012C24.4033 19.5785 24.9671 17.854 24.9671 16C24.9671 14.1776 24.4211 12.4812 23.4864 11.0625C24.5259 11.681 25.4955 12.433 26.3731 13.3106L29.0859 16.0234L26.3731 18.7361V18.736Z" fill="black"/>
<path d="M15.9671 21.0042C18.7241 21.0042 20.9671 18.7612 20.9671 16.0042C20.9671 13.2472 18.7241 11.0042 15.9671 11.0042V13.0042C17.6213 13.0042 18.9671 14.3501 18.9671 16.0042C18.9671 17.6584 17.6213 19.0042 15.9671 19.0042C14.313 19.0042 12.9671 17.6584 12.9671 16.0042H10.9671C10.9671 18.7612 13.2101 21.0042 15.9671 21.0042Z" fill="black"/>
</svg>
