<svg width="32" height="32" viewBox="0 0 32 32" fill="none" xmlns="http://www.w3.org/2000/svg">
<path d="M24.3508 18.5713V11.8251C24.3531 9.59463 23.4872 7.49819 21.9126 5.92197C20.3355 4.34328 18.2357 3.47368 15.9999 3.47368C13.7641 3.47368 11.671 4.34205 10.0941 5.91889C8.51729 7.49561 7.64892 9.59304 7.64905 11.8246V18.5713L4.21045 24.5889V26.0702H27.7894V24.5889L24.3508 18.5713ZM8.6315 18.8323V11.8247C8.6315 9.8556 9.39757 8.0049 10.7889 6.61361C12.1801 5.22233 14.0307 4.45626 15.9999 4.45626C17.9691 4.45626 19.826 5.22332 21.2174 6.61632C22.6064 8.00674 23.3703 9.85633 23.3683 11.8247V18.8323L26.9429 25.0878H5.05696L8.6315 18.8323Z" fill="black"/>
<path d="M19.4385 30H12.5613V25.0877H19.4385V30ZM13.5438 29.0175H18.4561V26.0702H13.5438V29.0175Z" fill="black"/>
<path d="M16.4912 2H15.5087V3.96491H16.4912V2Z" fill="black"/>
</svg>
