<svg width="32" height="32" viewBox="0 0 32 32" fill="none" xmlns="http://www.w3.org/2000/svg">
<path d="M13.9259 8.60567C14.5143 9.01698 15.2292 9.25926 16 9.25926C17.9443 9.25926 19.536 7.7225 19.6254 5.79983C21.7225 6.56296 23.5124 7.96906 24.7584 9.77778H25.9937C24.5371 7.36667 22.2331 5.52269 19.4974 4.6613C19.0725 3.12868 17.666 2 16 2C14.7694 2 13.6805 2.61613 13.024 3.55556C12.6126 4.14394 12.3704 4.85885 12.3704 5.62963C12.3704 6.8602 12.9865 7.94909 13.9259 8.60567ZM16 3.03704C17.4296 3.03704 18.5926 4.20007 18.5926 5.62963C18.5926 7.05919 17.4296 8.22222 16 8.22222C14.5704 8.22222 13.4074 7.05919 13.4074 5.62963C13.4074 4.20007 14.5704 3.03704 16 3.03704Z" fill="black"/>
<path d="M18.0741 23.3943C17.4857 22.983 16.7708 22.7407 16 22.7407C14.1932 22.7407 12.6909 24.0679 12.4159 25.7984C10.4653 25.0975 8.77794 23.8418 7.54361 22.2222H6.27078C7.71615 24.4019 9.87344 26.07 12.4086 26.8924C12.6626 28.6473 14.1761 30 16.0001 30C17.233 30 18.3235 29.3817 18.9798 28.4394C19.3889 27.8519 19.6298 27.1389 19.6298 26.3704C19.6298 25.1398 19.0136 24.0509 18.0742 23.3943H18.0741ZM16 28.963C14.5704 28.963 13.4074 27.7999 13.4074 26.3704C13.4074 24.9408 14.5704 23.7778 16 23.7778C17.4296 23.7778 18.5926 24.9408 18.5926 26.3704C18.5926 27.7999 17.4296 28.963 16 28.963Z" fill="black"/>
<path d="M28.963 13.9259V18.5926H23.7778V13.4074H28.4444V12.3704H22.7407V19.6296H25.9103C25.1624 21.5545 23.8701 23.2086 22.2222 24.4027V25.657C24.4321 24.2582 26.1418 22.138 27.0179 19.6296H30V13.9259H28.963Z" fill="black"/>
<path d="M3.55556 18.5926V19.6296H9.25926V12.3704H5.93906C6.65591 10.2684 8.01274 8.46152 9.77778 7.18233V5.92804C7.44717 7.40348 5.6728 9.68133 4.84615 12.3704H2V18.0741H3.03704V13.4074H8.22222V18.5926H3.55556Z" fill="black"/>
</svg>
