<svg width="32" height="32" viewBox="0 0 32 32" fill="none" xmlns="http://www.w3.org/2000/svg">
<path d="M21.3955 18.0001L19.9079 17.9999C21.0889 19.0265 22.2094 20.1588 23.1329 21.5H13.5V22.5H23.7598C24.2714 23.4011 24.6934 24.3931 24.9939 25.5H10.9999V26.5H25.2244C25.4017 27.4212 25.4999 28.4164 25.4999 29.5V30H26.4999V29.5C26.4999 24.0339 24.1164 20.5785 21.3954 18.0002L21.3955 18.0001Z" fill="black"/>
<path d="M21.5 2.5V2H20.5V2.5C20.5 3.59862 20.4286 4.59337 20.2955 5.5H6.806C6.60425 4.51575 6.49963 3.51075 6.5 2.5V2H5.5V2.5C5.49888 6.76363 7.24688 10.9318 10.2518 13.9998L11.6959 14C10.5529 12.976 9.575 11.7919 8.785 10.5002L18.5345 10.5028C17.3408 12.405 15.7193 13.7312 14.0019 15.009C13.7379 15.2054 13.4716 15.4008 13.2043 15.5969C13.0215 15.7309 12.8384 15.8652 12.6555 16.0002H12.6445L12.6501 16.0042C9.04425 18.6672 5.5 21.6489 5.5 29.5V30H6.5V29.5C6.5 21.7534 10.0439 19.1546 13.7956 16.4032C17.5834 13.6256 21.5 10.7534 21.5 2.5ZM8.2215 9.5C7.72763 8.54212 7.33363 7.53587 7.04763 6.5H20.1163C19.874 7.64 19.5254 8.62875 19.0933 9.50288L8.2215 9.5Z" fill="black"/>
</svg>
