<svg width="32" height="32" viewBox="0 0 32 32" fill="none" xmlns="http://www.w3.org/2000/svg">
<path d="M24.5453 6.61909H7.45051C4.89689 6.61909 2.81943 8.69655 2.81943 11.2502V18.8499H4.48187V11.2502C4.48187 9.61326 5.8136 8.28153 7.45051 8.28153H24.5453V6.61909Z" fill="black"/>
<path d="M24.5499 2V4.35093L27.6493 7.45031L24.5499 10.5497V12.9006L29.2997 8.15079V6.74983L24.5499 2Z" fill="black"/>
<path d="M27.5185 20.7498C27.5185 22.3867 26.1868 23.7185 24.5499 23.7185H7.45514V25.3809H24.5499C27.1035 25.3809 29.181 23.3035 29.181 20.7498V13.1501H27.5185V20.7498Z" fill="black"/>
<path d="M2.70068 25.2502L7.45051 30V27.6491L4.35113 24.5497L7.45051 21.4503V19.0994L2.70068 23.8492V25.2502Z" fill="black"/>
</svg>
