<svg width="32" height="32" viewBox="0 0 32 32" fill="none" xmlns="http://www.w3.org/2000/svg">
<path d="M2.77944 18.8845H4.22168V11.1925C4.22168 9.46939 5.62355 8.06765 7.34655 8.06765H24.6488V6.6254H7.34655C4.82827 6.6254 2.77944 8.67423 2.77944 11.1925V18.8845Z" fill="black"/>
<path d="M24.6535 2V4.03958L27.9604 7.34653L24.6535 10.6535V12.6931L29.461 7.88556V6.80749L24.6535 2Z" fill="black"/>
<path d="M29.2206 13.1155H27.7784V20.8075C27.7784 22.5306 26.3765 23.9324 24.6535 23.9324H7.35124V25.3746H24.6535C27.1718 25.3746 29.2206 23.3258 29.2206 20.8075V13.1155Z" fill="black"/>
<path d="M7.34655 30V27.9604L4.0396 24.6535L7.34655 21.3465V19.3069L2.53906 24.1144V25.1925L7.34655 30Z" fill="black"/>
</svg>
