<svg width="32" height="32" viewBox="0 0 32 32" fill="none" xmlns="http://www.w3.org/2000/svg">
<path d="M28.0614 26.0713L25.7287 28.6247L23.3519 26.0713H22.0097L25.6668 30H25.8031L29.3921 26.0713H28.0614Z" fill="black"/>
<path d="M23.7302 19.6842C26.7098 19.6842 29.1337 17.2602 29.1337 14.2807C29.1337 11.4236 26.9049 9.07725 24.0945 8.88935C23.3963 4.93312 19.933 2 15.8706 2C11.8081 2 8.34484 4.93312 7.64669 8.88935C4.83637 9.07725 2.60742 11.4237 2.60742 14.2807C2.60742 17.2602 5.03139 19.6842 8.01093 19.6842C8.25581 19.6842 8.49921 19.667 8.73967 19.634L12.432 23.3263V29.9952H13.4144V20.0747C14.1628 20.457 15.0018 20.6667 15.8706 20.6667C16.7393 20.6667 17.5783 20.457 18.3267 20.0747V29.9952H19.3092V23.3263L23.0015 19.634C23.2419 19.667 23.4854 19.6842 23.7302 19.6842ZM9.8534 19.3583C10.4453 19.1431 10.9988 18.8257 11.4844 18.4183C11.7575 18.7979 12.0776 19.1351 12.4321 19.4277V21.9369L9.8534 19.3583ZM15.8706 19.6842C14.2689 19.6842 12.7892 18.8147 12.0088 17.4149L11.9046 17.2281H11.3065L11.2225 17.3172C10.3806 18.2102 9.24011 18.7018 8.01105 18.7018C5.57321 18.7018 3.59 16.7185 3.59 14.2807C3.59 11.8429 5.57321 9.85965 8.01105 9.85965C10.1112 9.85965 11.8726 11.332 12.3207 13.2982H13.3234C12.8974 10.9897 11.0003 9.19158 8.64339 8.91539C9.3176 5.49902 12.3361 2.98246 15.8707 2.98246C19.4053 2.98246 22.4239 5.49914 23.098 8.91539C20.7411 9.19146 18.844 10.9897 18.418 13.2982H19.4207C19.8688 11.332 21.6302 9.85965 23.7304 9.85965C26.1682 9.85965 28.1514 11.8429 28.1514 14.2807C28.1514 16.7185 26.1682 18.7018 23.7304 18.7018C22.5013 18.7018 21.3609 18.21 20.5189 17.3172L20.4349 17.2281H19.8368L19.7326 17.4149C18.9522 18.8146 17.4725 19.6842 15.8708 19.6842H15.8706ZM19.3092 21.9369V19.4277C19.6636 19.1351 19.9838 18.7979 20.2569 18.4183C20.7423 18.8255 21.2958 19.143 21.8879 19.3583L19.3093 21.9369H19.3092Z" fill="black"/>
<path d="M26.1864 21.1579H25.2039V25.0877H26.1864V21.1579Z" fill="black"/>
</svg>
