<svg width="32" height="32" viewBox="0 0 32 32" fill="none" xmlns="http://www.w3.org/2000/svg">
<path d="M12.4037 26.8887C11.5133 26.2267 10.7425 25.4464 10.1149 24.588H8.92075C10.7784 27.5065 14.0109 29.5778 17.4645 29.9324V28.9434C15.7004 28.7387 13.9359 28.0283 12.4037 26.8887Z" fill="black"/>
<path d="M18.6038 7.43973H15.5782C15.2883 7.43973 15.0524 7.20383 15.0524 6.9095L15.0096 2L14.0277 2.00859L14.0705 6.9138C14.0705 7.74522 14.7469 8.42163 15.5782 8.42163H18.6038C23.9197 8.42163 28.2972 12.5147 28.7563 17.7147H29.7438C29.2822 11.9722 24.4614 7.43973 18.6036 7.43973H18.6038Z" fill="black"/>
<path d="M13.0548 18.2057H7.38163C6.71982 18.2057 6.1815 18.744 6.1815 19.4057V29.4975H7.1634V19.4057C7.1634 19.2854 7.26122 19.1876 7.38163 19.1876H13.0548V18.2057Z" fill="black"/>
<path d="M18.9457 13.7871V13.4839C18.9457 12.8749 18.563 12.3211 17.9934 12.106L12.0442 9.85889C11.4746 9.64385 11.0919 9.09006 11.0919 8.48103V2.0043H10.11V8.48128C10.11 9.49644 10.7478 10.4192 11.6972 10.7777L17.6463 13.0248C17.8362 13.0965 17.9637 13.2811 17.9637 13.4841V13.7872C17.9637 14.058 17.7435 14.2782 17.4729 14.2782H5.69227C3.79757 14.2782 2.2561 15.8199 2.2561 17.7148V29.4976H3.238V17.7148C3.238 16.3613 4.33896 15.2601 5.69227 15.2601H17.473C18.285 15.2601 18.9457 14.5993 18.9457 13.7871Z" fill="black"/>
<path d="M24.8286 27.0428C25.9114 27.0428 26.7925 26.1618 26.7925 25.079C26.7925 23.9962 25.9114 23.1152 24.8286 23.1152C23.7459 23.1152 22.8648 23.9962 22.8648 25.079C22.8648 26.1618 23.7459 27.0428 24.8286 27.0428ZM24.8286 24.0971C25.37 24.0971 25.8106 24.5376 25.8106 25.079C25.8106 25.6204 25.37 26.0609 24.8286 26.0609C24.2873 26.0609 23.8467 25.6204 23.8467 25.079C23.8467 24.5376 24.2873 24.0971 24.8286 24.0971Z" fill="black"/>
<path d="M20.901 25.0905V24.5995H19.9191V25.0905C19.9191 27.7976 22.1215 30 24.8286 30H25.3196V29.0181H24.8286C22.6629 29.0181 20.901 27.2562 20.901 25.0905Z" fill="black"/>
<path d="M24.8286 20.181H24.3377V21.1629H24.8286C26.9944 21.1629 28.7563 22.9248 28.7563 25.0905V25.5814H29.7382V25.0905C29.7382 22.3834 27.5357 20.181 24.8286 20.181Z" fill="black"/>
</svg>
