<svg width="32" height="32" viewBox="0 0 32 32" fill="none" xmlns="http://www.w3.org/2000/svg">
<path d="M6.19938 22.8727C4.23441 22.8727 2.63574 24.4714 2.63574 26.4364C2.63574 28.4013 4.23441 30 6.19938 30C8.16434 30 9.76301 28.4013 9.76301 26.4364C9.76301 24.4714 8.16434 22.8727 6.19938 22.8727ZM6.19938 28.9818C4.79581 28.9818 3.65392 27.8399 3.65392 26.4364C3.65392 25.0328 4.79581 23.8909 6.19938 23.8909C7.60294 23.8909 8.74483 25.0328 8.74483 26.4364C8.74483 27.8399 7.60294 28.9818 6.19938 28.9818Z" fill="black"/>
<path d="M27.1427 2H25.9828L23.7614 6.07273H24.9212L26.5628 3.06324L28.2043 6.07273H29.3642L27.1427 2Z" fill="black"/>
<path d="M26.0539 14.2182C26.0539 15.0603 25.3688 15.7455 24.5266 15.7455H8.23574C6.83218 15.7455 5.69029 16.8873 5.69029 18.2909V20.3273H6.70847V18.2909C6.70847 17.4487 7.39358 16.7636 8.23574 16.7636H24.5266C25.9302 16.7636 27.0721 15.6217 27.0721 14.2182V8.10909H26.0539V14.2182Z" fill="black"/>
<path d="M5.10799 6.42182L2.78888 8.74053L3.50878 9.46056L5.82789 7.14185L5.10799 6.42182Z" fill="black"/>
<path d="M3.50441 2.6577L2.78429 3.37769L5.10795 5.70176L5.82807 4.98177L3.50441 2.6577Z" fill="black"/>
<path d="M8.89846 2.63176L6.54803 4.98179L7.26793 5.70181L9.61836 3.35179L8.89846 2.63176Z" fill="black"/>
<path d="M7.2678 6.42198L6.54777 7.14188L8.89285 9.48736L9.61287 8.76746L7.2678 6.42198Z" fill="black"/>
<path d="M13.6863 2.65775L12.9662 3.37774L15.2898 5.70181L16.0099 4.98182L13.6863 2.65775Z" fill="black"/>
<path d="M15.2897 6.42175L12.9706 8.74045L13.6905 9.46048L16.0096 7.14177L15.2897 6.42175Z" fill="black"/>
<path d="M19.0802 2.63181L16.7298 4.98184L17.4497 5.70186L19.8001 3.35184L19.0802 2.63181Z" fill="black"/>
<path d="M17.4497 6.42203L16.7297 7.14193L19.0747 9.48741L19.7948 8.76751L17.4497 6.42203Z" fill="black"/>
</svg>
