<svg width="32" height="32" viewBox="0 0 32 32" fill="none" xmlns="http://www.w3.org/2000/svg">
<path d="M6.3396 30C4.13397 30 2.3396 28.2056 2.3396 26C2.3396 23.7944 4.13397 22 6.3396 22C8.54522 22 10.3396 23.7944 10.3396 26C10.3396 28.2056 8.54522 30 6.3396 30ZM6.3396 24C5.23685 24 4.3396 24.8973 4.3396 26C4.3396 27.1027 5.23685 28 6.3396 28C7.44235 28 8.3396 27.1027 8.3396 26C8.3396 24.8973 7.44235 24 6.3396 24Z" fill="black"/>
<path d="M27.4785 2H25.2002L23.0183 6H25.2967L26.3393 4.08838L27.382 6H29.6603L27.4785 2Z" fill="black"/>
<path d="M7.3396 20H5.3396V18C5.3396 16.3459 6.68547 15 8.3396 15H24.3396C24.891 15 25.3396 14.5514 25.3396 14V8H27.3396V14C27.3396 15.6541 25.9937 17 24.3396 17H8.3396C7.78822 17 7.3396 17.4486 7.3396 18V20Z" fill="black"/>
<path d="M6.32847 4.575V4.57513L4.04622 2.2925L2.63197 3.7065L4.91422 5.98912L6.32847 4.575Z" fill="black"/>
<path d="M4.91422 5.98912L2.63647 8.2665L4.0506 9.68075L6.32822 7.4035L4.9141 5.98925L4.91422 5.98912Z" fill="black"/>
<path d="M8.63697 2.267L6.32847 4.57513L7.7426 5.98938L6.32822 7.4035L8.63147 9.707L10.0457 8.293L7.7426 5.98938L10.051 3.68125L8.63697 2.267Z" fill="black"/>
<path d="M16.3285 4.575V4.57513L14.0462 2.2925L12.632 3.7065L14.9142 5.98912L16.3285 4.575Z" fill="black"/>
<path d="M14.9142 5.98912L12.6365 8.2665L14.0506 9.68075L16.3282 7.4035L14.9141 5.98925L14.9142 5.98912Z" fill="black"/>
<path d="M20.051 3.68125L18.637 2.267L16.3285 4.57513L17.7426 5.98938L16.3282 7.4035L18.6315 9.707L20.0457 8.293L17.7426 5.98938L20.051 3.68125Z" fill="black"/>
</svg>
