<svg width="32" height="32" viewBox="0 0 32 32" fill="none" xmlns="http://www.w3.org/2000/svg">
<path d="M6.27011 22.4324C4.18373 22.4324 2.48633 24.1298 2.48633 26.2162C2.48633 28.3026 4.18373 30 6.27011 30C8.35649 30 10.0539 28.3026 10.0539 26.2162C10.0539 24.1298 8.35649 22.4324 6.27011 22.4324ZM6.27011 28.4865C5.01831 28.4865 3.99984 27.468 3.99984 26.2162C3.99984 24.9644 5.01831 23.9459 6.27011 23.9459C7.52191 23.9459 8.54038 24.9644 8.54038 26.2162C8.54038 27.468 7.52191 28.4865 6.27011 28.4865Z" fill="black"/>
<path d="M27.3121 2H25.588L23.3866 6.03604H25.1106L26.45 3.58036L27.7895 6.03604H29.5135L27.3121 2Z" fill="black"/>
<path d="M25.6935 14.1081C25.6935 14.8036 25.1277 15.3694 24.4323 15.3694H8.28813C6.75809 15.3694 5.51336 16.6141 5.51336 18.1441V20.1622H7.02687V18.1441C7.02687 17.4487 7.59267 16.8829 8.28813 16.8829H24.4323C25.9623 16.8829 27.207 15.6381 27.207 14.1081V8.05405H25.6935V14.1081Z" fill="black"/>
<path d="M5.01026 6.20358L2.71196 8.50132L3.78205 9.57167L6.08035 7.27393L5.01026 6.20358Z" fill="black"/>
<path d="M3.77772 2.47351L2.70741 3.54363L5.01013 5.84676L6.08044 4.77664L3.77772 2.47351Z" fill="black"/>
<path d="M8.76655 2.44775L6.43721 4.77652L7.50729 5.84687L9.83664 3.5181L8.76655 2.44775Z" fill="black"/>
<path d="M7.50729 6.20366L6.43698 7.27378L8.76093 9.59814L9.83124 8.52802L7.50729 6.20366Z" fill="black"/>
<path d="M15.1004 6.20363L12.8021 8.50137L13.8722 9.57171L16.1705 7.27397L15.1004 6.20363Z" fill="black"/>
<path d="M13.8679 2.47356L12.7976 3.54368L15.1003 5.84681L16.1706 4.77669L13.8679 2.47356Z" fill="black"/>
<path d="M18.8567 2.4478L16.5274 4.77657L17.5974 5.84692L19.9268 3.51815L18.8567 2.4478Z" fill="black"/>
<path d="M17.5974 6.20371L16.5271 7.27383L18.8511 9.59819L19.9214 8.52806L17.5974 6.20371Z" fill="black"/>
</svg>
