<svg width="32" height="32" viewBox="0 0 32 32" fill="none" xmlns="http://www.w3.org/2000/svg">
<path d="M26.7331 2C24.9319 2 23.4665 3.46544 23.4665 5.26665C23.4665 5.82642 23.6081 6.35363 23.8573 6.81458L19.2149 11.4281C18.3019 10.7816 17.1885 10.4 15.987 10.4C14.7854 10.4 13.677 10.7798 12.7651 11.4238L8.14131 6.8168C8.39121 6.35526 8.53331 5.82723 8.53331 5.26665C8.53331 3.46544 7.06786 2 5.26665 2C3.46544 2 2 3.46544 2 5.26665C2 7.06786 3.46544 8.53331 5.26665 8.53331C5.82968 8.53331 6.36005 8.39004 6.82298 8.13816L11.4395 12.7381C10.7782 13.6574 10.3871 14.7836 10.3871 15.9999C10.3871 16.1256 10.3928 16.25 10.401 16.3736L8.20022 16.8977C7.66788 15.8143 6.55313 15.0666 5.26677 15.0666C3.46556 15.0666 2.00012 16.5321 2.00012 18.3333C2.00012 20.1345 3.46556 21.5999 5.26677 21.5999C6.92903 21.5999 8.30429 20.3517 8.50671 18.7435L10.8333 18.1895C11.5708 19.9189 13.1545 21.2033 15.061 21.522L15.0637 23.6004C13.7108 23.9999 12.7205 25.2527 12.7205 26.7333C12.7205 28.5346 14.1859 30 15.9871 30C17.7883 30 19.2538 28.5346 19.2538 26.7333C19.2538 25.26 18.2731 24.0119 16.9305 23.6061L16.9278 21.5195C19.5692 21.0707 21.5872 18.7674 21.5872 16.0001C21.5872 14.7863 21.1978 13.6624 20.5391 12.7441L25.175 8.13711C25.6384 8.38969 26.1695 8.53342 26.7335 8.53342C28.5347 8.53342 30.0001 7.06798 30.0001 5.26677C30.0001 3.46556 28.5347 2.00012 26.7335 2.00012L26.7331 2ZM5.26654 6.66665C4.49456 6.66665 3.86654 6.03863 3.86654 5.26665C3.86654 4.49467 4.49456 3.86666 5.26654 3.86666C6.03852 3.86666 6.66653 4.49467 6.66653 5.26665C6.66653 6.03863 6.03852 6.66665 5.26654 6.66665ZM5.26654 19.7333C4.49456 19.7333 3.86654 19.1052 3.86654 18.3333C3.86654 17.5613 4.49456 16.9333 5.26654 16.9333C6.03852 16.9333 6.66653 17.5613 6.66653 18.3333C6.66653 19.1052 6.03852 19.7333 5.26654 19.7333ZM17.387 26.7332C17.387 27.5052 16.759 28.1332 15.987 28.1332C15.215 28.1332 14.587 27.5052 14.587 26.7332C14.587 25.9612 15.215 25.3332 15.987 25.3332C16.759 25.3332 17.387 25.9612 17.387 26.7332ZM15.987 19.7333C13.9284 19.7333 12.2537 18.0585 12.2537 15.9999C12.2537 13.9414 13.9284 12.2666 15.987 12.2666C18.0456 12.2666 19.7203 13.9414 19.7203 15.9999C19.7203 18.0585 18.0456 19.7333 15.987 19.7333ZM26.7331 6.66665C25.9611 6.66665 25.3331 6.03863 25.3331 5.26665C25.3331 4.49467 25.9611 3.86666 26.7331 3.86666C27.5051 3.86666 28.1331 4.49467 28.1331 5.26665C28.1331 6.03863 27.5051 6.66665 26.7331 6.66665Z" fill="black"/>
</svg>
