<svg width="32" height="32" viewBox="0 0 32 32" fill="none" xmlns="http://www.w3.org/2000/svg">
<path d="M27.1034 2.00012C25.5064 2.00012 24.2069 3.29947 24.2069 4.89667C24.2069 5.51967 24.4052 6.09681 24.7412 6.56967L19.3684 11.909C18.4493 11.1479 17.2705 10.6898 15.9867 10.6898C14.7029 10.6898 13.5286 11.146 12.6102 11.9044L7.25772 6.57124C7.59433 6.09802 7.7931 5.52028 7.7931 4.89667C7.7931 3.29947 6.49364 2.00012 4.89655 2.00012C3.29947 2.00012 2 3.29947 2 4.89667C2 6.49388 3.29947 7.79322 4.89655 7.79322C5.52221 7.79322 6.10164 7.59324 6.57559 7.25471L11.9248 12.5846C11.1465 13.5086 10.6763 14.7003 10.6763 16.0001C10.6763 16.2576 10.6957 16.5105 10.7313 16.7583L7.64236 17.4938C7.25688 16.3465 6.172 15.5174 4.89655 15.5174C3.29947 15.5174 2 16.8167 2 18.4139C2 20.0111 3.29947 21.3105 4.89655 21.3105C6.48133 21.3105 7.77234 20.0309 7.79214 18.4506L10.956 17.6973C11.617 19.6511 13.3851 21.0983 15.5108 21.288L15.5147 24.246C14.1413 24.4721 13.0901 25.667 13.0901 27.1034C13.0901 28.7007 14.3895 30 15.9866 30C17.5837 30 18.8832 28.7007 18.8832 27.1034C18.8832 25.6746 17.8429 24.4848 16.4802 24.2499L16.4764 21.2869C19.1757 21.0388 21.2969 18.7631 21.2969 16C21.2969 14.7026 20.8286 13.5129 20.053 12.5897L25.4227 7.25338C25.897 7.59264 26.4771 7.7931 27.1034 7.7931C28.7005 7.7931 30 6.49376 30 4.89655C30 3.29934 28.7005 2 27.1034 2V2.00012ZM4.89655 6.82771C3.83183 6.82771 2.96552 5.9614 2.96552 4.89667C2.96552 3.83195 3.83183 2.96564 4.89655 2.96564C5.96128 2.96564 6.82759 3.83195 6.82759 4.89667C6.82759 5.9614 5.96128 6.82771 4.89655 6.82771ZM4.89655 20.3449C3.83183 20.3449 2.96552 19.4786 2.96552 18.4139C2.96552 17.3492 3.83183 16.4829 4.89655 16.4829C5.96128 16.4829 6.82759 17.3492 6.82759 18.4139C6.82759 19.4786 5.96128 20.3449 4.89655 20.3449ZM17.9178 27.1036C17.9178 28.1683 17.0514 29.0346 15.9867 29.0346C14.922 29.0346 14.0557 28.1683 14.0557 27.1036C14.0557 26.0388 14.922 25.1725 15.9867 25.1725C17.0514 25.1725 17.9178 26.0388 17.9178 27.1036ZM20.3316 16.0001C20.3316 18.3959 18.3825 20.3449 15.9867 20.3449C13.5909 20.3449 11.6419 18.3959 11.6419 16.0001C11.6419 13.6043 13.5909 11.6553 15.9867 11.6553C18.3825 11.6553 20.3316 13.6043 20.3316 16.0001ZM27.1034 6.82771C26.0387 6.82771 25.1724 5.9614 25.1724 4.89667C25.1724 3.83195 26.0387 2.96564 27.1034 2.96564C28.1682 2.96564 29.0345 3.83195 29.0345 4.89667C29.0345 5.9614 28.1682 6.82771 27.1034 6.82771Z" fill="black"/>
</svg>
