<svg width="32" height="32" viewBox="0 0 32 32" fill="none" xmlns="http://www.w3.org/2000/svg">
<path d="M26.9154 2C25.2144 2 23.8307 3.38385 23.8307 5.08472C23.8307 5.67592 23.9982 6.22856 24.2877 6.69838L19.2933 11.6617C18.375 10.9602 17.2293 10.5423 15.9872 10.5423C14.7451 10.5423 13.6039 10.9584 12.6867 11.6573L7.7116 6.70028C8.00192 6.2301 8.1698 5.67675 8.1698 5.08484C8.1698 3.38397 6.78607 2.00012 5.08508 2.00012C3.3841 2.00012 2.00036 3.38397 2.00036 5.08484C2.00036 6.78571 3.3841 8.16956 5.08508 8.16956C5.67925 8.16956 6.2345 8.00025 6.70575 7.70804L11.6756 12.66C10.9583 13.5838 10.5295 14.7425 10.5295 16C10.5295 16.1904 10.5395 16.3785 10.5586 16.5639L7.93311 17.189C7.46791 16.074 6.36666 15.2883 5.08496 15.2883C3.38398 15.2883 2.00024 16.6721 2.00024 18.373C2.00024 20.0738 3.38398 21.4577 5.08496 21.4577C6.71002 21.4577 8.04463 20.1944 8.16055 18.5984L10.8903 17.9485C11.5957 19.7873 13.2681 21.1496 15.2822 21.4106L15.2855 23.9119C13.9216 24.2305 12.9022 25.4556 12.9022 26.9153C12.9022 28.6161 14.286 30 15.987 30C17.6879 30 19.0717 28.6161 19.0717 26.9153C19.0717 25.4631 18.0627 24.2428 16.7093 23.9168L16.7059 21.4089C19.3765 21.0557 21.4445 18.7657 21.4445 16.0002C21.4445 14.7452 21.0177 13.5887 20.3028 12.6657L25.2926 7.70697C25.7643 7.9999 26.3202 8.16968 26.9152 8.16968C28.6162 8.16968 29.9999 6.78582 29.9999 5.08496C29.9999 3.38409 28.6162 2.00024 26.9152 2.00024L26.9154 2ZM5.08508 6.74572C4.16916 6.74572 3.42408 6.00064 3.42408 5.08472C3.42408 4.1688 4.16916 3.42372 5.08508 3.42372C6.00101 3.42372 6.74609 4.1688 6.74609 5.08472C6.74609 6.00064 6.00101 6.74572 5.08508 6.74572ZM5.08508 20.0337C4.16916 20.0337 3.42408 19.2887 3.42408 18.3727C3.42408 17.4568 4.16916 16.7117 5.08508 16.7117C6.00101 16.7117 6.74609 17.4568 6.74609 18.3727C6.74609 19.2887 6.00101 20.0337 5.08508 20.0337ZM17.6482 26.915C17.6482 27.831 16.9031 28.576 15.9872 28.576C15.0713 28.576 14.3262 27.831 14.3262 26.915C14.3262 25.9991 15.0713 25.254 15.9872 25.254C16.9031 25.254 17.6482 25.9991 17.6482 26.915ZM15.9872 20.0337C13.7629 20.0337 11.9533 18.2242 11.9533 15.9999C11.9533 13.7756 13.7629 11.966 15.9872 11.966C18.2115 11.966 20.0211 13.7756 20.0211 15.9999C20.0211 18.2242 18.2115 20.0337 15.9872 20.0337ZM26.9154 6.74572C25.9995 6.74572 25.2544 6.00064 25.2544 5.08472C25.2544 4.1688 25.9995 3.42372 26.9154 3.42372C27.8313 3.42372 28.5764 4.1688 28.5764 5.08472C28.5764 6.00064 27.8313 6.74572 26.9154 6.74572Z" fill="black"/>
</svg>
