<svg width="32" height="32" viewBox="0 0 32 32" fill="none" xmlns="http://www.w3.org/2000/svg">
<path d="M16.9826 13.7894V14.7719H21.8944C24.3323 14.7719 26.3155 16.7551 26.3155 19.1929V19.4964C26.3155 20.8878 25.6488 22.2142 24.5322 23.0444L15.9967 29.3903L7.50484 23.2143C6.36483 22.3851 5.68411 21.0485 5.68411 19.6389V19.193C5.68411 16.7552 7.66731 14.772 10.1051 14.772H15.0178V13.7895H10.1051C7.12561 13.7895 4.70166 16.2135 4.70166 19.193V19.6389C4.70166 21.3618 5.53355 22.9955 6.92704 24.009L15.1648 30H16.8233L25.1186 23.8328C26.4834 22.8182 27.2982 21.1971 27.2982 19.4964V19.1929C27.2982 16.2134 24.8742 13.7894 21.8947 13.7894H16.9826Z" fill="black"/>
<path d="M14.0348 10.8421H15.5085V13.2934H16.491V10.8421H17.9646C21.4859 10.8421 24.3506 7.97736 24.3506 4.45613V2H21.8944C19.2426 2 16.9636 3.6251 15.9997 5.93153C15.0358 3.6251 12.7569 2 10.105 2H7.64889V4.45613C7.64889 7.97736 10.5136 10.8421 14.0348 10.8421ZM16.491 8.38594C16.491 5.40641 18.9149 2.98245 21.8944 2.98245H23.3681V4.45613C23.3681 7.43566 20.9442 9.85961 17.9646 9.85961H16.491V8.38594ZM8.63134 2.98245H10.105C13.0846 2.98245 15.5085 5.40641 15.5085 8.38594V9.85961H14.0348C11.0553 9.85961 8.63134 7.43566 8.63134 4.45613V2.98245Z" fill="black"/>
</svg>
