<svg width="32" height="32" viewBox="0 0 32 32" fill="none" xmlns="http://www.w3.org/2000/svg">
<path d="M16.9743 13.687V15.1478H21.8435C24.1258 15.1478 25.9826 17.0046 25.9826 19.287V19.5878C25.9826 20.8905 25.3585 22.1322 24.3131 22.9094L15.9952 29.0934L7.7221 23.0765C6.65469 22.3001 6.01751 21.0488 6.01751 19.729V19.287C6.01751 17.0046 7.87428 15.1478 10.1566 15.1478H15.0266V13.687H10.1566C7.06885 13.687 4.55664 16.1992 4.55664 19.287V19.729C4.55664 21.5145 5.4188 23.2076 6.86287 24.2579L14.7583 30H17.2243L25.1847 24.0819C26.5992 23.0303 27.4436 21.3503 27.4436 19.5878V19.287C27.4436 16.1992 24.9314 13.687 21.8436 13.687H16.9743Z" fill="black"/>
<path d="M14.0522 11.2522H15.2696V13.4387H16.7304V11.2522H17.9478C21.5727 11.2522 24.5217 8.30304 24.5217 4.67826V2H21.8435C19.3013 2 17.0932 3.45137 16 5.56805C14.9068 3.45137 12.6987 2 10.1565 2H7.47826V4.67826C7.47826 8.30304 10.4273 11.2522 14.0522 11.2522ZM16.7304 8.57391C16.7304 5.75456 19.0241 3.46087 21.8435 3.46087H23.0609V4.67826C23.0609 7.49762 20.7672 9.7913 17.9478 9.7913H16.7304V8.57391ZM8.93913 3.46087H10.1565C12.9759 3.46087 15.2696 5.75456 15.2696 8.57391V9.7913H14.0522C11.2328 9.7913 8.93913 7.49762 8.93913 4.67826V3.46087Z" fill="black"/>
</svg>
