<svg width="32" height="32" viewBox="0 0 32 32" fill="none" xmlns="http://www.w3.org/2000/svg">
<path d="M21.793 13.5862H16.9658V15.5172H21.793C23.9226 15.5172 25.6551 17.2497 25.6551 19.3793V19.6775C25.6551 20.893 25.0727 22.0517 24.0972 22.777L15.9935 28.8017L7.93518 22.941C6.93925 22.2166 6.34461 21.0489 6.34461 19.8175V19.3793C6.34461 17.2497 8.07711 15.5172 10.2067 15.5172H15.0346V13.5862H10.2067C7.01238 13.5862 4.41357 16.1849 4.41357 19.3793V19.8175C4.41357 21.6647 5.30547 23.416 6.79937 24.5026L14.3583 30H17.618L25.2492 24.3265C26.7124 23.2387 27.586 21.5008 27.586 19.6774V19.3792C27.586 16.1848 24.9872 13.5861 21.7929 13.5861L21.793 13.5862Z" fill="black"/>
<path d="M14.0689 11.6552H15.0344V13.5815H16.9654V11.6552H17.9309C21.6576 11.6552 24.6896 8.62333 24.6896 4.89655V2H21.793C19.3371 2 17.1835 3.31697 15.9999 5.28155C14.8163 3.31697 12.6627 2 10.2068 2H7.31025V4.89655C7.31025 8.62333 10.3422 11.6552 14.0689 11.6552ZM16.9654 8.75862C16.9654 6.09669 19.1311 3.93103 21.793 3.93103H22.7585V4.89655C22.7585 7.55848 20.5929 9.72414 17.9309 9.72414H16.9654V8.75862ZM9.24128 3.93103H10.2068C12.8687 3.93103 15.0344 6.09669 15.0344 8.75862V9.72414H14.0689C11.4069 9.72414 9.24128 7.55848 9.24128 4.89655V3.93103Z" fill="black"/>
</svg>
