<svg width="32" height="32" viewBox="0 0 32 32" fill="none" xmlns="http://www.w3.org/2000/svg">
<path d="M25.0109 11.9871H18.0109V13.9871H25.0109C26.6651 13.9871 28.0109 15.333 28.0109 16.9871V28H3.98926V16.9871C3.98926 15.6755 4.83576 14.5585 6.01088 14.1517V12.0839C3.72076 12.5401 1.98926 14.5649 1.98926 16.9871V30H30.0109V16.9871C30.0109 14.2301 27.7679 11.9871 25.0109 11.9871Z" fill="black"/>
<path d="M27.0109 6C27.0109 3.79437 25.2165 2 23.0109 2C20.8053 2 19.0109 3.79437 19.0109 6C19.0109 8.20563 20.8053 10 23.0109 10C25.2165 10 27.0109 8.20563 27.0109 6ZM21.0109 6C21.0109 4.89725 21.9081 4 23.0109 4C24.1136 4 25.0109 4.89725 25.0109 6C25.0109 7.10275 24.1136 8 23.0109 8C21.9081 8 21.0109 7.10275 21.0109 6Z" fill="black"/>
<path d="M20.5076 22H20.5099C22.4393 22 24.0088 20.4304 24.0088 18.4989C24.0088 16.5674 22.4391 15 20.5076 15C18.5761 15 17.0088 16.5696 17.0088 18.5011C17.0088 20.4326 18.5784 22 20.5076 22ZM20.5099 17C21.3364 17 22.0088 17.6724 22.0088 18.5011C22.0088 19.3299 21.3364 20 20.5099 20H20.5076C19.6811 20 19.0088 19.3276 19.0088 18.4989C19.0088 17.6701 19.6811 17 20.5099 17Z" fill="black"/>
<path d="M7.01088 13.0016C7.01088 13.712 7.16076 14.3876 7.42901 15C8.20163 16.764 9.96338 18 12.0093 18H12.0124C14.0578 18 15.819 16.7646 16.592 15C16.8606 14.3868 17.0108 13.71 17.0108 12.9984C17.0108 12.2867 16.8609 11.6124 16.5925 11C15.8196 9.236 14.0574 8 12.0091 8C9.96088 8 8.20251 9.23537 7.42951 11C7.16088 11.6132 7.01088 12.29 7.01088 13.0016ZM12.0125 10C12.8985 10 13.6956 10.3865 14.245 11C14.7209 11.5312 15.0109 12.2327 15.0109 13.0016C15.0109 13.7705 14.721 14.4692 14.2454 15C13.696 15.6132 12.8986 16 12.0124 16H12.0093C11.1233 16 10.3261 15.6135 9.77676 15C9.30088 14.4688 9.01088 13.7673 9.01088 12.9984C9.01088 12.2295 9.30076 11.5308 9.77663 11C10.3264 10.3868 11.1246 10 12.0125 10Z" fill="black"/>
</svg>
