<svg width="32" height="32" viewBox="0 0 32 32" fill="none" xmlns="http://www.w3.org/2000/svg">
<path d="M29.7505 24.5024H25.25V19.9976H24.25V24.5024H19.7505V25.5024H24.25V29.9976H25.25V25.5024H29.7505V24.5024Z" fill="black"/>
<path d="M3.25 4.50244H5.7505V3.50244H2.25V6.99757H3.25V4.50244Z" fill="black"/>
<path d="M29.25 8.99757H28.25V19.0024H29.25V8.99757Z" fill="black"/>
<path d="M3.25 8.99757H2.25V29.5024H18.75V28.5024H3.25V8.99757Z" fill="black"/>
<path d="M28.25 6.99757H29.25V3.50244H25.7505V4.50244H28.25V6.99757Z" fill="black"/>
<path d="M9.25 2.00244H8.25V5.00244H9.25V2.00244Z" fill="black"/>
<path d="M23.25 2.00244H22.25V5.00244H23.25V2.00244Z" fill="black"/>
<path d="M19.7505 3.50244H11.7505V4.50244H19.7505V3.50244Z" fill="black"/>
<path d="M27.7505 7.50244H3.7505V8.50244H27.7505V7.50244Z" fill="black"/>
</svg>
