<svg width="32" height="32" viewBox="0 0 32 32" fill="none" xmlns="http://www.w3.org/2000/svg">
<path d="M15.5 8.5H11.5V2H10.5V8.5H6.5V2H5.5V11.5C5.5 14.1911 7.44338 16.4354 10 16.9072V15.8866C7.99863 15.4305 6.5 13.6376 6.5 11.5V9.5H15.5V11.5C15.5 13.6376 14.0014 15.4305 12 15.8866V16.9072C14.5566 16.4355 16.5 14.1911 16.5 11.5V2H15.5V8.5Z" fill="black"/>
<path d="M11.5 17.4171H10.5V30H11.5V17.4171Z" fill="black"/>
<path d="M19 2.5H18.5V30H19.5V3.519C22.8514 3.77513 25.5 6.58413 25.5 10V18H22V19H26.5V10C26.5 5.8645 23.1355 2.5 19 2.5Z" fill="black"/>
</svg>
