<svg width="32" height="32" viewBox="0 0 32 32" fill="none" xmlns="http://www.w3.org/2000/svg">
<path d="M22.2382 22.2087H20.1723L27.9636 30H30.0295L22.2382 22.2087Z" fill="black"/>
<path d="M19.2557 10.6279C18.5309 11.1079 17.7408 11.4781 16.9133 11.7293L13.0683 7.91129C13.3184 7.10367 13.6857 6.33306 14.1639 5.62235C13.6535 5.49379 13.1212 5.42233 12.5741 5.41198C11.494 7.28603 11.0317 9.46383 11.2861 11.6707L11.2993 11.7612C9.2563 11.5093 7.19684 11.876 5.38695 12.775C5.40947 13.301 5.48994 13.812 5.6219 14.3023C6.19322 13.98 6.79827 13.7225 7.42437 13.5323L11.268 17.349C11.0644 18.0072 10.783 18.6408 10.428 19.2366C10.9152 19.3817 11.4242 19.475 11.9489 19.5112C12.867 17.7666 13.2669 15.779 13.07 13.7662L13.0307 13.4986C13.4551 13.5512 13.8801 13.5782 14.3037 13.5782C16.1286 13.5782 17.9216 13.0948 19.4938 12.1938C19.473 11.654 19.3915 11.1298 19.2556 10.6275L19.2557 10.6279ZM11.6152 15.6354L9.151 13.1884C9.89689 13.1147 10.6559 13.133 11.4101 13.2514L11.5211 13.2688L11.6178 13.9262C11.6728 14.5007 11.6711 15.0727 11.6152 15.6354ZM12.9275 12.0106L12.8095 11.9921L12.7361 11.4924C12.6645 10.8647 12.6615 10.2399 12.7221 9.62623L15.1867 12.0734C14.4409 12.1472 13.6818 12.1288 12.9275 12.0106Z" fill="black"/>
<path d="M22.9096 12.4696C22.9096 6.6967 18.213 2 12.44 2C6.66703 2 1.97046 6.6967 1.97046 12.4696C1.97046 18.2424 6.66703 22.9391 12.44 22.9391C14.2065 22.9391 15.8712 22.4976 17.3324 21.7219C18.6799 21.0064 19.8533 20.0057 20.7716 18.8C22.1117 17.0405 22.9096 14.8469 22.9096 12.4696ZM12.44 21.4783C7.47258 21.4783 3.43133 17.437 3.43133 12.4696C3.43133 7.50212 7.47258 3.46087 12.44 3.46087C17.4075 3.46087 21.4487 7.50212 21.4487 12.4696C21.4487 17.437 17.4075 21.4783 12.44 21.4783Z" fill="black"/>
</svg>
