<svg width="32" height="32" viewBox="0 0 32 32" fill="none" xmlns="http://www.w3.org/2000/svg">
<path d="M22.4759 22.2759H19.7449L27.4691 30H30.2L22.4759 22.2759Z" fill="black"/>
<path d="M19.1083 10.551C18.4319 11.0077 17.6952 11.365 16.9229 11.6137L13.3186 8.0346C13.5662 7.2815 13.9212 6.56364 14.3764 5.90069C13.7553 5.71966 13.0996 5.62069 12.4209 5.62069C12.372 5.62069 12.3237 5.62334 12.2749 5.62443C11.2613 7.439 10.8141 9.52548 11.0158 11.646C9.08114 11.4647 7.14346 11.8261 5.42182 12.6587C5.42557 13.3606 5.53286 14.0383 5.72958 14.6774C6.25374 14.3768 6.80734 14.1323 7.38086 13.9478L10.9821 17.5238C10.7841 18.1268 10.5179 18.7066 10.1873 19.2534C10.8222 19.4679 11.4972 19.5933 12.1984 19.6154C13.0891 17.8774 13.4775 15.9088 13.2884 13.9141C13.6153 13.9448 13.9422 13.9618 14.2683 13.9618C16.0761 13.9618 17.853 13.4934 19.4209 12.6203C19.4209 11.9003 19.3113 11.2055 19.1084 10.5513L19.1083 10.551ZM11.3955 15.2127L9.70848 13.5376C10.2358 13.5177 10.7674 13.5459 11.297 13.6247L11.3659 14.0936C11.4015 14.4686 11.4092 14.842 11.3955 15.2127ZM12.9998 11.9353L12.9536 11.6207C12.9051 11.1933 12.8897 10.7673 12.9052 10.3454L14.5952 12.0235C14.0656 12.0436 13.5317 12.0149 12.9998 11.9353Z" fill="black"/>
<path d="M20.9832 18.8966C22.2763 17.137 23.0414 14.9667 23.0414 12.6207C23.0414 6.76447 18.277 2 12.4207 2C6.56452 2 1.80005 6.76447 1.80005 12.6207C1.80005 18.4769 6.56452 23.2414 12.4207 23.2414C14.167 23.2414 15.8162 22.8175 17.2709 22.0676C18.7403 21.3101 20.0109 20.2194 20.9832 18.8966ZM12.4207 21.3103C7.62924 21.3103 3.73108 17.4122 3.73108 12.6207C3.73108 7.82919 7.62924 3.93103 12.4207 3.93103C17.2122 3.93103 21.1104 7.82919 21.1104 12.6207C21.1104 17.4122 17.2122 21.3103 12.4207 21.3103Z" fill="black"/>
</svg>
