<svg width="32" height="32" viewBox="0 0 32 32" fill="none" xmlns="http://www.w3.org/2000/svg">
<path d="M15.3344 20.7588L29.9995 11.9597V10.0065L21.9894 2.00098H20.0364L11.2377 16.6613L7.74148 20.1576L11.8385 24.2546L15.3344 20.7588ZM21.069 3.22108L28.7792 10.9267L14.9825 19.2047L12.7913 17.0135L21.069 3.22108ZM11.8384 18.2008L13.7952 20.1576L11.8384 22.1143L9.88164 20.1576L11.8384 18.2008Z" fill="black"/>
<path d="M29.9997 28.4815L5.78617 28.4864C4.53303 28.4864 3.51346 27.4669 3.51346 26.2137C3.51346 24.9606 4.53303 23.941 5.78617 23.941H7.80248V22.4276H5.78617C3.69848 22.4276 2 24.126 2 26.2137C2 28.3014 3.69848 29.9999 5.7863 29.9999L30 29.995L29.9997 28.4815Z" fill="black"/>
</svg>
