<svg width="32" height="32" viewBox="0 0 32 32" fill="none" xmlns="http://www.w3.org/2000/svg">
<path d="M15.6206 20.7896L29.9995 12.1622V9.58171L22.4144 2.00098H19.8337L11.2063 16.3756L7.58647 19.9955L12.0004 24.4094L15.6206 20.7896ZM21.1985 3.61329L28.387 10.7975L15.1556 18.7365L13.2599 16.8408L21.1985 3.61329ZM12.0006 18.4098L13.5864 19.9956L12.0006 21.5814L10.4147 19.9956L12.0006 18.4098Z" fill="black"/>
<path d="M29.9996 27.9949L6.00236 27.9998C4.89827 27.9998 3.99993 27.1015 3.99993 25.9974C3.99993 24.8933 4.89827 23.9949 6.00236 23.9949H8.00066V21.995H6.00236C3.79556 21.995 2 23.7905 2 25.9974C2 28.2043 3.79544 29.9997 6.00248 29.9997L30 29.9949L29.9996 27.9949Z" fill="black"/>
</svg>
