<svg width="32" height="32" viewBox="0 0 32 32" fill="none" xmlns="http://www.w3.org/2000/svg">
<path d="M25.9831 11.9833C25.9831 6.47847 21.5047 2 15.9999 2C10.4951 2 6.0166 6.47847 6.0166 11.9833C6.0166 17.2421 10.1047 21.5612 15.2694 21.9369V24.158H16.7303V21.9369C21.895 21.5612 25.9831 17.2421 25.9831 11.9833ZM15.9999 20.5056C11.3007 20.5056 7.47757 16.6825 7.47757 11.9833C7.47757 7.28407 11.3007 3.46097 15.9999 3.46097C20.6991 3.46097 24.5222 7.28407 24.5222 11.9833C24.5222 16.6825 20.6991 20.5056 15.9999 20.5056Z" fill="black"/>
<path d="M16.7302 26.1032L15.2693 26.1089L15.2845 30L16.7455 29.9943L16.7302 26.1032Z" fill="black"/>
<path d="M15.0259 24.4015H11.13V25.8624H15.0259V24.4015Z" fill="black"/>
<path d="M20.8697 24.4015H16.9738V25.8624H20.8697V24.4015Z" fill="black"/>
</svg>
