<svg width="32" height="32" viewBox="0 0 32 32" fill="none" xmlns="http://www.w3.org/2000/svg">
<path d="M16.0004 2C10.5825 2 6.1748 6.40774 6.1748 11.8255C6.1748 17.0787 10.3186 21.3817 15.5091 21.6386V24.1075H16.4916V21.6386C21.6821 21.3817 25.8259 17.0787 25.8259 11.8255C25.8259 6.40774 21.4182 2 16.0004 2ZM16.0004 20.6685C11.1243 20.6685 7.15736 16.7016 7.15736 11.8255C7.15736 6.9495 11.1243 2.98255 16.0004 2.98255C20.8764 2.98255 24.8433 6.9495 24.8433 11.8255C24.8433 16.7016 20.8764 20.6685 16.0004 20.6685Z" fill="black"/>
<path d="M16.4915 26.0708L15.509 26.0746L15.5243 30L16.5069 29.9962L16.4915 26.0708Z" fill="black"/>
<path d="M15.0178 24.5988H11.0876V25.5813H15.0178V24.5988Z" fill="black"/>
<path d="M20.9131 24.5988H16.9829V25.5813H20.9131V24.5988Z" fill="black"/>
</svg>
