<svg width="32" height="32" viewBox="0 0 32 32" fill="none" xmlns="http://www.w3.org/2000/svg">
<path d="M16 29.0345C8.81281 29.0345 2.96552 23.1873 2.96552 16C2.96552 8.81269 8.81281 2.96552 16 2.96552V2C8.28033 2 2 8.28033 2 16C2 23.7197 8.28033 30 16 30C23.7197 30 30 23.7197 30 16H29.0345C29.0345 23.1873 23.1872 29.0345 16 29.0345Z" fill="black"/>
<path d="M16 26.1335C21.5901 26.1335 26.1379 21.5855 26.1379 15.9955V15.5128H16.9655V16.4783H25.1599C24.9161 21.1522 21.1567 24.9116 16.4828 25.1554V16.9655H15.5172V26.1335H16Z" fill="black"/>
<path d="M6.84014 15.5128C7.08393 10.8388 10.8433 7.07947 15.5172 6.83567V15.0346H16.4828V5.8576H16C10.4099 5.8576 5.86207 10.4056 5.86207 15.9955V16.4783H15.0345V15.5128H6.84014Z" fill="black"/>
<path d="M19.3793 9.72414C19.9125 9.72414 20.3448 9.29186 20.3448 8.75862C20.3448 8.22538 19.9125 7.7931 19.3793 7.7931C18.8461 7.7931 18.4138 8.22538 18.4138 8.75862C18.4138 9.29186 18.8461 9.72414 19.3793 9.72414Z" fill="black"/>
<path d="M23.2414 9.72414C23.7746 9.72414 24.2069 9.29186 24.2069 8.75862C24.2069 8.22538 23.7746 7.7931 23.2414 7.7931C22.7081 7.7931 22.2759 8.22538 22.2759 8.75862C22.2759 9.29186 22.7081 9.72414 23.2414 9.72414Z" fill="black"/>
<path d="M19.3793 5.86243C19.9125 5.86243 20.3448 5.43015 20.3448 4.89691C20.3448 4.36367 19.9125 3.9314 19.3793 3.9314C18.8461 3.9314 18.4138 4.36367 18.4138 4.89691C18.4138 5.43015 18.8461 5.86243 19.3793 5.86243Z" fill="black"/>
<path d="M23.2414 13.5862C23.7746 13.5862 24.2069 13.1539 24.2069 12.6207C24.2069 12.0874 23.7746 11.6552 23.2414 11.6552C22.7081 11.6552 22.2759 12.0874 22.2759 12.6207C22.2759 13.1539 22.7081 13.5862 23.2414 13.5862Z" fill="black"/>
<path d="M27.1032 13.5862C27.6364 13.5862 28.0687 13.1539 28.0687 12.6207C28.0687 12.0874 27.6364 11.6552 27.1032 11.6552C26.57 11.6552 26.1377 12.0874 26.1377 12.6207C26.1377 13.1539 26.57 13.5862 27.1032 13.5862Z" fill="black"/>
<path d="M19.3793 13.5862C19.9125 13.5862 20.3448 13.1539 20.3448 12.6207C20.3448 12.0874 19.9125 11.6552 19.3793 11.6552C18.8461 11.6552 18.4138 12.0874 18.4138 12.6207C18.4138 13.1539 18.8461 13.5862 19.3793 13.5862Z" fill="black"/>
</svg>
