<svg width="32" height="32" viewBox="0 0 32 32" fill="none" xmlns="http://www.w3.org/2000/svg">
<path d="M27.4937 26.7843L26.7822 27.5013L29.2916 29.9918L30.0032 29.2748L27.4937 26.7843Z" fill="black"/>
<path d="M25.3524 26.7859L22.8521 29.2857L23.5664 30L26.0666 27.5002L25.3524 26.7859Z" fill="black"/>
<path d="M29.2811 22.8575L26.7809 25.3573L27.4951 26.0717L29.9953 23.5719L29.2811 22.8575Z" fill="black"/>
<path d="M23.8731 12.4484C23.5083 12.0835 23.116 11.7628 22.7042 11.4824V12.7483C22.8599 12.8792 23.0123 13.0162 23.1588 13.1627C24.4944 14.4984 25.2297 16.2741 25.2296 18.1628C25.2296 20.0516 24.4938 21.8273 23.1583 23.1627C20.4011 25.9197 15.9151 25.9194 13.1583 23.1623C12.8597 22.8637 12.593 22.5421 12.3558 22.2032C11.5324 21.0261 11.0873 19.6287 11.0873 18.1622C11.0873 17.9929 11.0953 17.8248 11.107 17.6575C11.2262 15.9589 11.9428 14.378 13.1585 13.1623C14.4087 11.9123 16.0145 11.231 17.6532 11.1147V10.1027C15.7554 10.2205 13.8914 11.001 12.4444 12.448C11.0376 13.8547 10.2151 15.689 10.0944 17.6575C10.0841 17.8249 10.0771 17.993 10.0771 18.1622C10.0771 19.6043 10.454 20.9879 11.1582 22.2032C11.5081 22.807 11.9373 23.37 12.4439 23.8766C14.0194 25.4524 16.0887 26.2401 18.1584 26.24C20.0701 26.24 21.9813 25.566 23.5036 24.2214L25.3521 26.0716L26.0667 25.3576L24.218 23.5072C25.5242 22.0302 26.2395 20.152 26.2396 18.1631C26.2396 16.0045 25.3992 13.9751 23.873 12.4486L23.8731 12.4484Z" fill="black"/>
<path d="M7.69096 2H2.32856L1.99609 2.33234V7.69436L3.00625 6.68421V3.01015H6.68068L7.69096 2Z" fill="black"/>
<path d="M20.3773 9.57615C19.9889 8.77914 19.4677 8.04299 18.8223 7.39763C15.7916 4.36717 10.933 4.25277 7.76293 7.05253L5.38377 4.67337L4.66946 5.38755L7.04863 7.76671C5.74212 9.24381 5.02668 11.1222 5.02655 13.1113C5.02655 15.2699 5.867 17.2993 7.39322 18.8257C7.75813 19.1907 8.15033 19.5114 8.56209 19.7917V18.5259C8.4064 18.3949 8.25399 18.2579 8.10752 18.1114C6.77197 16.7758 6.03658 15 6.03671 13.1113C6.03671 11.2226 6.77248 9.44685 8.10803 8.11143C9.48663 6.73295 11.2971 6.0439 13.1078 6.0439C14.9185 6.0439 16.7296 6.73333 18.108 8.11181C18.5514 8.55514 18.9269 9.04771 19.233 9.57602C19.8492 10.6395 20.179 11.85 20.179 13.1119C20.179 13.4529 20.1541 13.79 20.107 14.1217C19.893 15.6272 19.2022 17.0174 18.1077 18.1118C16.8575 19.3619 15.2517 20.0431 13.613 20.1594V21.1713C15.5107 21.0534 17.3749 20.273 18.8218 18.8261C20.1075 17.5406 20.9043 15.8977 21.1245 14.1217C21.1658 13.7891 21.189 13.4524 21.189 13.1119C21.189 11.866 20.9076 10.6641 20.3773 9.57615Z" fill="black"/>
</svg>
