<svg width="32" height="32" viewBox="0 0 32 32" fill="none" xmlns="http://www.w3.org/2000/svg">
<path d="M28.963 24.3139C28.963 25.1716 28.2652 25.8694 27.4074 25.8694H4.59271C3.73495 25.8694 3.03716 25.1716 3.03716 24.3139V22.2354H2.00013V24.3139C2.00013 25.7434 3.16316 26.9065 4.59271 26.9065H27.4074C28.837 26.9065 30 25.7434 30 24.3139V22.2354H28.963V24.3139Z" fill="black"/>
<path d="M3.54375 19.5945C4.68514 20.8967 6.35865 21.7213 8.22232 21.7213C11.6532 21.7213 14.4445 18.9301 14.4445 15.4991C14.4445 15.0636 14.3991 14.6384 14.3135 14.2278L15.2358 13.6952C15.7158 13.4183 16.3118 13.418 16.7914 13.6952L17.6898 14.2138C17.6023 14.6288 17.5555 15.0586 17.5555 15.4992C17.5555 18.9303 20.3468 21.7214 23.7777 21.7214C25.6496 21.7214 27.3299 20.8893 28.4715 19.577C29.4222 18.4839 29.9999 17.0583 29.9999 15.4992C29.9999 15.3231 29.9907 15.149 29.9763 14.9763C29.73 12.0332 27.4278 9.6671 24.5136 9.32203L18.3333 5.71692C16.8937 4.88561 15.1056 4.88574 13.6645 5.71808L7.48629 9.32203C4.40112 9.68732 2 12.3174 2 15.4992C2 15.6722 2.00894 15.843 2.02281 16.0124C2.13494 17.3785 2.68963 18.6202 3.54362 19.5946L3.54375 19.5945ZM28.963 15.4991C28.963 18.3582 26.6369 20.6843 23.7778 20.6843C20.9187 20.6843 18.5926 18.3582 18.5926 15.4991C18.5926 12.64 20.9187 10.314 23.7778 10.314C26.6369 10.314 28.963 12.64 28.963 15.4991ZM14.1853 6.61486C15.3045 5.96879 16.6953 5.96866 17.8128 6.61369L22.579 9.39397C20.4902 9.80347 18.7736 11.2611 17.9996 13.1952L17.3101 12.7971C16.5105 12.3354 15.5169 12.3354 14.7173 12.7971L14.0056 13.208C13.2342 11.2676 11.5146 9.80425 9.42113 9.39384L14.1854 6.61473L14.1853 6.61486ZM8.22232 10.314C11.0814 10.314 13.4075 12.64 13.4075 15.4991C13.4075 18.3582 11.0814 20.6843 8.22232 20.6843C5.36323 20.6843 3.03716 18.3582 3.03716 15.4991C3.03716 12.64 5.36323 10.314 8.22232 10.314Z" fill="black"/>
</svg>
