<svg width="32" height="32" viewBox="0 0 32 32" fill="none" xmlns="http://www.w3.org/2000/svg">
<path d="M28.0001 24.0167C28.0001 24.568 27.5515 25.0167 27.0001 25.0167H5.00013C4.44875 25.0167 4.00013 24.568 4.00013 24.0167V22.0124H2.00013V24.0167C2.00013 25.6708 3.346 27.0167 5.00013 27.0167H27.0001C28.6543 27.0167 30.0001 25.6708 30.0001 24.0167V22.0124H28.0001V24.0167Z" fill="black"/>
<path d="M8.50013 22.0167C12.0843 22.0167 15.0001 19.1008 15.0001 15.5167C15.0001 15.1877 14.9751 14.8643 14.9276 14.5483L15.5131 14.2102C15.8216 14.0322 16.2049 14.032 16.5133 14.2102L17.0743 14.534C17.0254 14.8545 17 15.1828 17 15.5168C17 19.1009 19.9159 22.0168 23.5 22.0168C27.0841 22.0168 30 19.1009 30 15.5168C30 12.2292 27.546 9.50567 24.3739 9.07717L18.5 5.65067C16.9578 4.76054 15.0418 4.76029 13.4961 5.65304L7.62613 9.07729C4.454 9.50567 2 12.2293 2 15.5169C2 19.101 4.91588 22.0169 8.5 22.0169L8.50013 22.0167ZM28.0001 15.5167C28.0001 17.998 25.9815 20.0167 23.5001 20.0167C21.0188 20.0167 19.0001 17.998 19.0001 15.5167C19.0001 13.0353 21.0188 11.0167 23.5001 11.0167C25.9815 11.0167 28.0001 13.0353 28.0001 15.5167ZM14.5001 7.38267C15.4254 6.84867 16.5748 6.84854 17.4963 7.38042L21.0951 9.47979C19.6221 10.0687 18.4139 11.181 17.7009 12.5864L17.5133 12.4782C16.5881 11.9438 15.4385 11.9439 14.513 12.4782L14.3053 12.598C13.593 11.1872 12.3821 10.0703 10.905 9.47967L14.5001 7.38254V7.38267ZM8.50013 11.0167C10.9815 11.0167 13.0001 13.0353 13.0001 15.5167C13.0001 17.998 10.9815 20.0167 8.50013 20.0167C6.01875 20.0167 4.00013 17.998 4.00013 15.5167C4.00013 13.0353 6.01875 11.0167 8.50013 11.0167Z" fill="black"/>
</svg>
