<svg width="32" height="32" viewBox="0 0 32 32" fill="none" xmlns="http://www.w3.org/2000/svg">
<path d="M12.3418 21.6753C13.0383 21.6753 13.603 21.1107 13.603 20.4142C13.603 19.7176 13.0383 19.153 12.3418 19.153C11.6452 19.153 11.0806 19.7176 11.0806 20.4142C11.0806 21.1107 11.6452 21.6753 12.3418 21.6753Z" fill="black"/>
<path d="M21.6746 28.2335V25.1992L19.9089 25.2067C18.0932 25.2067 16.616 23.7337 16.616 21.9234V16.1219H12.6789L16.6315 12.1487L16.6195 9.82152C16.6257 6.34365 19.4592 3.51416 22.9358 3.51416H29.9985V2.00073H22.9358C18.6261 2.00073 15.1138 5.50798 15.1061 9.82391L15.1148 11.5273L11.8373 14.8219V17.6354H15.1025V21.9234C15.1025 24.5684 17.2588 26.7201 19.9122 26.7201L20.1613 26.7191V29.747H30V28.2335H21.6746Z" fill="black"/>
<path d="M12.0579 23.5988L12.0193 23.5755C11.4969 23.2615 10.8847 23.1736 10.2951 23.3273C9.70551 23.4812 9.2144 23.8572 8.9121 24.3863L7.86669 26.2155H7.54912V23.1069L9.22992 20.9137C9.66364 20.3476 9.84563 19.6192 9.72884 18.9155C9.72796 18.9104 9.72645 18.9056 9.72556 18.9006C9.60537 18.203 9.2004 17.5785 8.61117 17.1857C8.04944 16.8112 7.39816 16.6813 6.78156 16.776C6.16131 16.8713 5.57599 17.1939 5.15235 17.725L2 21.6758V29.9991H3.51343V22.2057L6.33548 18.6689C6.45756 18.5158 6.61244 18.4053 6.78169 18.3382C7.0985 18.2126 7.46677 18.2416 7.77185 18.445C7.94413 18.5599 8.07466 18.7173 8.15614 18.9007C8.19296 18.9836 8.22058 19.0712 8.23597 19.1636C8.28528 19.4601 8.21175 19.7548 8.02876 19.9933L6.03582 22.5936V27.7291H8.74511L10.2261 25.1372C10.3246 24.9647 10.4849 24.8419 10.6773 24.7918C10.8692 24.7416 11.0691 24.7702 11.2389 24.8722L11.2776 24.8957C11.603 25.0912 11.7253 25.5104 11.5561 25.85C10.9527 27.0609 10.0506 28.8728 9.53714 29.9042C9.52087 29.9369 9.50523 29.9682 9.48985 29.9992H11.1805C11.7002 28.9553 12.4089 27.5321 12.9107 26.5249C13.4298 25.483 13.0549 24.1975 12.0579 23.5988Z" fill="black"/>
</svg>
