<svg width="32" height="32" viewBox="0 0 32 32" fill="none" xmlns="http://www.w3.org/2000/svg">
<path d="M2 9.94231V25.7668C2 27.8118 3.66379 29.4756 5.70885 29.4756H22.5223V27.9921H5.70885C4.48184 27.9921 3.48354 26.9938 3.48354 25.7668V9.94231C3.48354 8.7153 4.48184 7.717 5.70885 7.717H8.67594V6.23346H5.70885C3.66379 6.23346 2 7.89725 2 9.94231Z" fill="black"/>
<path d="M29.1983 11.9155V9.94231C29.1983 7.89725 27.5345 6.23346 25.4894 6.23346H22.5223V7.717H25.4894C26.7164 7.717 27.7147 8.7153 27.7147 9.94231V11.9155H29.1983Z" fill="black"/>
<path d="M15.5991 2.27734C12.4634 2.27734 9.91222 4.82854 9.91222 7.96425C9.91222 11.1 12.4634 13.6512 15.5991 13.6512C18.7348 13.6512 21.286 11.1 21.286 7.96425C21.286 4.82854 18.7348 2.27734 15.5991 2.27734ZM15.5991 12.1676C13.2813 12.1676 11.3958 10.282 11.3958 7.96425C11.3958 5.64647 13.2813 3.76089 15.5991 3.76089C17.9169 3.76089 19.8025 5.64647 19.8025 7.96425C19.8025 10.282 17.9169 12.1676 15.5991 12.1676Z" fill="black"/>
<path d="M17.0526 5.95632L15.0746 7.93444L16.1236 8.98332L18.1015 7.0052L17.0526 5.95632Z" fill="black"/>
<path d="M25.2422 16.8703H23.7586V29.7229H25.2422V16.8703Z" fill="black"/>
<path d="M24.5004 13.4639L21.0987 16.8655H19.0008L23.9459 11.9204H25.0549L30 16.8655H27.902L24.5004 13.4639Z" fill="black"/>
</svg>
