<svg width="32" height="32" viewBox="0 0 32 32" fill="none" xmlns="http://www.w3.org/2000/svg">
<path d="M3.93676 25.684V10.1899C3.93676 9.12203 4.80564 8.25315 5.87352 8.25315H8.77866V6.31639H5.87352C3.73764 6.31639 2 8.05403 2 10.1899V25.684C2 27.8199 3.73764 29.5575 5.87352 29.5575H22.336V27.6208H5.87352C4.80564 27.6208 3.93676 26.7519 3.93676 25.684Z" fill="black"/>
<path d="M27.1779 10.1899V12.1267H29.1147V10.1899C29.1147 8.05403 27.377 6.31639 25.2411 6.31639H22.336V8.25315H25.2411C26.309 8.25315 27.1779 9.12203 27.1779 10.1899Z" fill="black"/>
<path d="M15.5573 14.0634C18.7611 14.0634 21.3676 11.457 21.3676 8.25315C21.3676 5.04927 18.7611 2.44287 15.5573 2.44287C12.3536 2.44287 9.74705 5.04927 9.74705 8.25315C9.74705 11.457 12.3536 14.0634 15.5573 14.0634ZM15.5573 4.37963C17.6932 4.37963 19.4309 6.11727 19.4309 8.25315C19.4309 10.389 17.6932 12.1267 15.5573 12.1267C13.4214 12.1267 11.6838 10.389 11.6838 8.25315C11.6838 6.11727 13.4214 4.37963 15.5573 4.37963Z" fill="black"/>
<path d="M16.8093 6.11575L14.8725 8.05241L16.242 9.42195L18.1788 7.4853L16.8093 6.11575Z" fill="black"/>
<path d="M25.2411 16.9733H23.3044V29.5575H25.2411V16.9733Z" fill="black"/>
<path d="M21.2846 16.9686L24.2728 13.9803L27.2609 16.9686H30L25.1581 12.1267H23.3874L18.5455 16.9686H21.2846Z" fill="black"/>
</svg>
