<svg width="32" height="32" viewBox="0 0 32 32" fill="none" xmlns="http://www.w3.org/2000/svg">
<path d="M21.9967 22.1404H20.6072L28.4669 30H29.8563L21.9967 22.1404Z" fill="black"/>
<path d="M20.5592 18.693C21.9453 16.9364 22.7756 14.7219 22.7756 12.3158C22.7756 6.62774 18.148 2 12.4598 2C6.77166 2 2.14404 6.62774 2.14404 12.3158C2.14404 18.0038 6.77166 22.6316 12.4598 22.6316C14.2466 22.6316 15.9283 22.1745 17.3952 21.3719C18.6228 20.7002 19.6978 19.7847 20.5592 18.693ZM12.4598 2.98246C17.6063 2.98246 21.7932 7.16944 21.7932 12.3158C21.7932 17.4621 17.6063 21.6491 12.4598 21.6491C7.31336 21.6491 3.1265 17.4621 3.1265 12.3158C3.1265 7.16944 7.31336 2.98246 12.4598 2.98246Z" fill="black"/>
<path d="M18.3546 12.8071V11.8247H6.5651V12.8071H18.3546Z" fill="black"/>
</svg>
