<svg width="32" height="32" viewBox="0 0 32 32" fill="none" xmlns="http://www.w3.org/2000/svg">
<path d="M22.2384 22.2087H20.1725L27.9638 30H30.0297L22.2384 22.2087Z" fill="black"/>
<path d="M20.7787 18.7914C22.1148 17.0334 22.9098 14.8429 22.9098 12.4696C22.9098 6.69657 18.2131 2 12.4403 2C6.6674 2 1.9707 6.69657 1.9707 12.4696C1.9707 18.2426 6.6674 22.9391 12.4403 22.9391C14.2067 22.9391 15.8715 22.4977 17.3327 21.7219C18.6835 21.0046 19.8593 20.001 20.7787 18.7914ZM12.4403 3.46087C17.4077 3.46087 21.449 7.50212 21.449 12.4696C21.449 17.437 17.4077 21.4783 12.4403 21.4783C7.47282 21.4783 3.43157 17.437 3.43157 12.4696C3.43157 7.50212 7.47282 3.46087 12.4403 3.46087Z" fill="black"/>
<path d="M18.2837 13.2001V11.7393H6.59679V13.2001H18.2837Z" fill="black"/>
</svg>
