<svg width="32" height="32" viewBox="0 0 32 32" fill="none" xmlns="http://www.w3.org/2000/svg">
<path d="M23.5 21C16.8831 21 11.5 15.6169 11.5 9C11.5 7.07763 11.965 5.16712 12.8448 3.475L13.0916 3H9.78325C5.60763 5.5075 2.99988 10.0281 2.99988 15C2.99988 16.7609 3.3275 18.4464 3.92362 20H6.0925C5.39163 18.477 4.99988 16.7835 4.99988 15C4.99988 11.0651 6.90475 7.45925 10.0142 5.23725C9.675 6.458 9.49988 7.727 9.49988 9C9.49988 16.7196 15.7802 23 23.4999 23C24.4044 23 25.2964 22.9151 26.17 22.7465C23.9187 25.4177 20.5916 27 16.9999 27C16.3185 27 15.6505 26.942 14.9999 26.8324V28.8565C15.6534 28.9504 16.3209 29 16.9999 29C21.6413 29 25.9026 26.7341 28.4999 22.9866V19.9191L28.1544 20.0645C26.6797 20.6853 25.1136 20.9999 23.4999 20.9999L23.5 21Z" fill="black"/>
<path d="M24 14C27.3084 14 30 11.3085 30 8C30 4.6915 27.3084 2 24 2C20.6916 2 18 4.6915 18 8C18 11.3085 20.6916 14 24 14ZM24 4C26.2056 4 28 5.79437 28 8C28 10.2056 26.2056 12 24 12C21.7944 12 20 10.2056 20 8C20 5.79437 21.7944 4 24 4Z" fill="black"/>
<path d="M26.2071 8.79288L25 7.58588V5.5H23V8.41413L24.7929 10.2071L26.2071 8.79288Z" fill="black"/>
<path d="M11.9059 24.1401C11.5113 22.3466 9.91038 21 8 21C6.08962 21 4.48862 22.3465 4.09412 24.1401C2.88137 24.5251 2 25.6615 2 27C2 28.6541 3.34575 30 5 30H11C12.6543 30 14 28.6541 14 27C14 25.6615 13.1186 24.5251 11.9059 24.1401ZM11 28H5C4.44863 28 4 27.5514 4 27C4 26.4486 4.44863 26 5 26V25.9958H6V25C6 23.8973 6.89725 23 8 23C8.8305 23 9.54387 23.509 9.84587 24.2313C8.763 24.6844 8 25.7547 8 27H10C10 26.4486 10.4486 26 11 26C11.5514 26 12 26.4486 12 27C12 27.5514 11.5514 28 11 28Z" fill="black"/>
</svg>
