<svg width="32" height="32" viewBox="0 0 32 32" fill="none" xmlns="http://www.w3.org/2000/svg">
<path d="M23.6364 21.3455C16.7588 21.3455 11.1636 15.7502 11.1636 8.87273C11.1636 6.8748 11.647 4.88884 12.5616 3.1298L12.752 2.76364H10.1752C5.78165 5.2214 3.01831 9.86291 3.01831 14.9818C3.01831 16.777 3.35838 18.4942 3.97667 20.0727H5.63275C4.93453 18.5173 4.54558 16.7942 4.54558 14.9818C4.54558 10.6445 6.77273 6.6914 10.3581 4.43116C9.88302 5.85675 9.63649 7.36187 9.63649 8.87273C9.63649 16.5923 15.9169 22.8727 23.6365 22.8727C24.7817 22.8727 25.9065 22.7367 26.9997 22.467C24.6668 25.585 20.9989 27.4545 17.0183 27.4545C16.3249 27.4545 15.6449 27.3968 14.9819 27.2874V28.8333C15.6469 28.9307 16.3267 28.9818 17.0183 28.9818C21.7859 28.9818 26.1534 26.5919 28.7274 22.6602V20.2667L28.4744 20.3732C26.9415 21.0184 25.3138 21.3456 23.6365 21.3456L23.6364 21.3455Z" fill="black"/>
<path d="M24.1455 13.7091C27.3736 13.7091 30 11.0827 30 7.85455C30 4.6264 27.3736 2 24.1455 2C20.9173 2 18.2909 4.6264 18.2909 7.85455C18.2909 11.0827 20.9173 13.7091 24.1455 13.7091ZM24.1455 3.52727C26.5316 3.52727 28.4727 5.46844 28.4727 7.85455C28.4727 10.2407 26.5316 12.1818 24.1455 12.1818C21.7593 12.1818 19.8182 10.2407 19.8182 7.85455C19.8182 5.46844 21.7593 3.52727 24.1455 3.52727Z" fill="black"/>
<path d="M26.2127 8.84193L24.9091 7.53827V5.30909H23.3818V8.17082L25.1327 9.92171L26.2127 8.84193Z" fill="black"/>
<path d="M11.6119 24.4895C11.2924 22.7047 9.72978 21.3455 7.85455 21.3455C5.97931 21.3455 4.41665 22.7047 4.0972 24.4895C2.89231 24.8021 2 25.8988 2 27.2C2 28.7439 3.25605 30 4.8 30H10.9091C12.453 30 13.7091 28.7439 13.7091 27.2C13.7091 25.8988 12.8168 24.8021 11.6119 24.4895ZM10.9091 28.4727H4.8C4.09822 28.4727 3.52727 27.9018 3.52727 27.2C3.52727 26.7809 3.7318 26.4095 4.0454 26.1775H5.56364V25.1636C5.56364 23.9005 6.59136 22.8727 7.85455 22.8727C8.89907 22.8727 9.78069 23.5762 10.0553 24.5336C8.92771 24.8956 8.10909 25.9537 8.10909 27.2H9.63636C9.63636 26.4982 10.2073 25.9273 10.9091 25.9273C11.6109 25.9273 12.1818 26.4982 12.1818 27.2C12.1818 27.9018 11.6109 28.4727 10.9091 28.4727Z" fill="black"/>
</svg>
