<svg width="32" height="32" viewBox="0 0 32 32" fill="none" xmlns="http://www.w3.org/2000/svg">
<path d="M28.2189 14.7065C27.6393 14.3351 26.9046 14.1993 26.2029 14.3353C25.4788 14.4751 24.8474 14.893 24.4689 15.484L21.3736 20.348H18.9582C18.9899 20.1919 19.0066 20.0305 19.0066 19.8651C19.0066 18.5339 17.9236 17.4509 16.5924 17.4509H7.50154L2.60352 22.349V25.0804L8.30148 19.3823H16.5927C16.8589 19.3823 17.0755 19.5988 17.0755 19.8651C17.0755 20.1314 16.8589 20.348 16.5927 20.348H13.2128V22.2793H22.434L26.0971 16.5232C26.1901 16.3778 26.3623 16.2716 26.5695 16.2315C26.7856 16.19 27.013 16.2275 27.1769 16.3326C27.4608 16.5146 27.5493 17.0986 27.3485 17.4442L22.8001 25.1763H7.50154L2.67775 30H5.40929L8.30148 27.1077H23.9046L29.0157 18.4191C29.7507 17.1545 29.3858 15.4543 28.219 14.7066L28.2189 14.7065Z" fill="black"/>
<path d="M18.3292 9.27709L15.5978 6.54568L14.2321 7.9115L16.9634 10.6428" fill="black"/>
<path d="M19.6946 10.6427L21.7432 8.59399C23.2492 7.0879 23.2492 4.63738 21.7432 3.13129C21.0136 2.40184 20.0436 2 19.0118 2C17.98 2 17.0101 2.40184 16.2805 3.13129L14.2319 5.17985L15.5979 6.5458L17.6462 4.49712C18.3991 3.74401 19.6244 3.74413 20.3775 4.49712C21.1305 5.25022 21.1305 6.47554 20.3775 7.22853L18.3326 9.27395" fill="black"/>
<path d="M13.2076 15.5296C14.2394 15.5296 15.2094 15.1278 15.939 14.3982L18.3289 12.0083L16.9634 10.6428L14.5733 13.0325C14.2086 13.3971 13.7236 13.5982 13.2077 13.5982C12.6918 13.5982 12.2068 13.3973 11.8421 13.0325C11.4773 12.6678 11.2764 12.1828 11.2764 11.667C11.2764 11.1511 11.4773 10.666 11.8421 10.3013L14.2322 7.91162L12.8662 6.54568L10.4763 8.9356C9.74674 9.66529 9.3449 10.6353 9.3449 11.667C9.3449 12.6988 9.74674 13.6689 10.4763 14.3983C11.2059 15.128 12.1759 15.5298 13.2076 15.5298V15.5296Z" fill="black"/>
</svg>
