<svg width="32" height="32" viewBox="0 0 32 32" fill="none" xmlns="http://www.w3.org/2000/svg">
<path d="M28.3209 14.7776C27.7882 14.4362 27.1115 14.3122 26.4648 14.4372C25.7995 14.5657 25.2204 14.9479 24.8749 15.4875L21.6807 20.507H18.7907C18.8718 20.2785 18.9159 20.0325 18.9159 19.7764C18.9159 18.5679 17.9326 17.5846 16.724 17.5846H7.6542L2.6123 22.6265V24.6928L8.25939 19.0458H16.724C17.127 19.0458 17.4546 19.3735 17.4546 19.7764C17.4546 20.1793 17.127 20.507 16.724 20.507H13.3146V21.9682H22.4829L26.1066 16.2738C26.2361 16.0714 26.4679 15.9249 26.7421 15.8718C27.0246 15.8176 27.3127 15.867 27.5325 16.0078C27.9348 16.2656 28.0584 16.9854 27.7839 17.4576L23.1251 25.3776H7.6542L3.03191 30H5.09818L8.25939 26.8388H23.9608L29.0453 18.1951C29.7116 17.0489 29.373 15.452 28.3209 14.7776Z" fill="black"/>
<path d="M15.5521 6.50986L14.519 7.543L17.2744 10.2984L18.3075 9.26522L15.5521 6.50986Z" fill="black"/>
<path d="M17.6145 4.10143C18.4692 3.24723 19.8597 3.24699 20.7142 4.10143C21.5688 4.95612 21.5688 6.34658 20.7142 7.20126L18.6477 9.26777L19.6808 10.3008L21.7474 8.23433C23.1715 6.81002 23.1715 4.49255 21.7472 3.06823C20.323 1.6438 18.0053 1.64404 16.5812 3.06823L14.5147 5.13475L15.5478 6.16782L17.6143 4.10131L17.6145 4.10143Z" fill="black"/>
<path d="M13.3094 15.1595C14.2853 15.1595 15.2027 14.7794 15.8925 14.0894L18.3034 11.6785L17.2703 10.6454L14.8593 13.0563C14.4454 13.4702 13.895 13.6983 13.3094 13.6983C12.7239 13.6983 12.1736 13.4702 11.7595 13.0563C11.3456 12.6423 11.1176 12.0919 11.1176 11.5065C11.1176 10.921 11.3457 10.3705 11.7596 9.95649L14.1705 7.54562L13.1374 6.51254L10.7265 8.92342C10.0365 9.61335 9.65642 10.5307 9.65642 11.5065C9.65642 12.4822 10.0365 13.3997 10.7264 14.0895C11.4163 14.7796 12.3337 15.1595 13.3094 15.1595Z" fill="black"/>
</svg>
