<svg width="32" height="32" viewBox="0 0 32 32" fill="none" xmlns="http://www.w3.org/2000/svg">
<path d="M16 14.1109L17.9527 16.0595H20.0853L17.0662 13.0468H14.9337L11.9146 16.0595H14.0472L16 14.1109Z" fill="black"/>
<path d="M12.2341 17.0637V21.5828C12.2341 22.5907 12.034 23.1542 11.5652 23.4668L4.08829 28.451C3.97945 28.5235 3.88016 28.4901 3.8307 28.4635C3.78112 28.437 3.69802 28.373 3.69802 28.2421V16.8876C3.69802 13.4133 5.91249 10.341 9.20841 9.24234L11.983 8.31743V6.72947L8.73202 7.81318C4.82 9.11718 2.19153 12.7638 2.19153 16.8876V28.2421C2.19153 28.8914 2.54716 29.4852 3.11982 29.7916C3.38017 29.931 3.66513 30 3.9492 30C4.28976 30 4.6292 29.9007 4.92382 29.7044L12.4006 24.7202C13.6013 23.9198 13.7403 22.5464 13.7403 21.583V17.0639H12.2339L12.2341 17.0637Z" fill="black"/>
<path d="M19.5992 24.7201L27.076 29.7043C27.3707 29.9006 27.7102 29.9999 28.0509 29.9999C28.3349 29.9999 28.6198 29.9308 28.8801 29.7915C29.4528 29.4852 29.8084 28.8913 29.8084 28.242V16.8875C29.8084 12.7637 27.1801 9.11706 23.2679 7.81305L20.0171 6.72935V8.3173L22.7917 9.24209C26.0877 10.3407 28.302 13.4132 28.302 16.8874V28.2418C28.302 28.3728 28.2189 28.4368 28.1694 28.4633C28.1199 28.4899 28.0205 28.5234 27.9116 28.4507L20.4348 23.4665C19.9661 23.154 19.766 22.5905 19.766 21.5826V17.0635H18.2596V21.5826C18.2596 22.546 18.3985 23.9194 19.5993 24.7198L19.5992 24.7201Z" fill="black"/>
<path d="M13.2394 9.69123L10.9788 11.7026V13.7189L14.7458 10.3671L14.7447 2L13.2383 2.00025L13.2394 9.69123Z" fill="black"/>
<path d="M18.7628 9.69123L18.7616 2L17.2553 2.00025L17.2564 10.3671L21.0212 13.7185V11.7017L18.7628 9.69123Z" fill="black"/>
</svg>
