<svg width="32" height="32" viewBox="0 0 32 32" fill="none" xmlns="http://www.w3.org/2000/svg">
<path d="M15.9999 13.8626L18.3291 16.1868H19.7636L16.7172 13.1468H15.2826L12.2363 16.1868H13.6708L15.9999 13.8626Z" fill="black"/>
<path d="M12.4533 17.2001V21.7601C12.4533 22.8722 12.2178 23.5038 11.6655 23.8719L4.12101 28.9012C3.89326 29.0529 3.68147 28.9693 3.60091 28.9264C3.52048 28.8833 3.3334 28.7536 3.3334 28.4796V17.0224C3.3334 13.4075 5.63746 10.2106 9.06695 9.06748L11.9468 8.10748V7.0393L8.74661 8.10608C4.90267 9.38731 2.32019 12.9705 2.32019 17.0224V28.4796C2.32019 29.0414 2.62786 29.5548 3.123 29.8199C3.34822 29.9403 3.59471 30 3.84031 30C4.13494 30 4.42868 29.9141 4.68328 29.7443L12.2278 24.715C13.3384 23.9746 13.4667 22.6741 13.4667 21.7601V17.2001H12.4533Z" fill="black"/>
<path d="M19.7722 24.715L27.3167 29.7443C27.5715 29.9141 27.865 30 28.1596 30C28.4052 30 28.6517 29.9403 28.877 29.8199C29.3721 29.5548 29.6798 29.0414 29.6798 28.4796V17.0224C29.6798 12.9706 27.0972 9.38744 23.2533 8.10608L20.0531 7.0393V8.10748L22.9329 9.06735C26.3622 10.2104 28.6664 13.4073 28.6664 17.0223V28.4795C28.6664 28.7535 28.4792 28.8833 28.3989 28.9262C28.3182 28.9691 28.1067 29.0529 27.8788 28.901L20.3343 23.8717C19.7822 23.5037 19.5466 22.8721 19.5466 21.76V17.2H18.5332V21.76C18.5332 22.674 18.6617 23.9745 19.7722 24.7148V24.715Z" fill="black"/>
<path d="M13.4677 9.87447L10.9333 12.1295V13.4859L14.4811 10.3292L14.4799 2L13.4666 2.00025L13.4677 9.87447Z" fill="black"/>
<path d="M18.5344 9.87447L18.5332 2L17.5199 2.00025L17.5211 10.3292L21.0666 13.4852V12.1288L18.5344 9.87447Z" fill="black"/>
</svg>
