<svg width="32" height="32" viewBox="0 0 32 32" fill="none" xmlns="http://www.w3.org/2000/svg">
<path d="M27 11.5859V9.99837C26.9921 5.58812 23.4034 2.00012 19 2.00012H17.001V4.00025H18.9999C22.3024 4.00025 24.994 6.6925 24.9999 10.0001V12.4144L28.5856 16.0001H24.9999V22.0001C24.9999 23.6542 23.654 25.0001 21.9999 25.0001H19.9999V28.0001H16.9999V13.8735C18.7231 13.4284 19.9999 11.8605 19.9999 10.0001C19.9999 8.13975 18.7231 6.57187 16.9999 6.12675V8.27075C17.5966 8.61725 17.9999 9.26175 17.9999 10.0001C17.9999 10.7385 17.5966 11.383 16.9999 11.7295V13.8727H14.9999V11.7295C14.4031 11.383 13.9999 10.7385 13.9999 10.0001C13.9999 9.26175 14.4031 8.61725 14.9999 8.27075V6.12675C13.2766 6.57187 11.9999 8.13975 11.9999 10.0001C11.9999 11.8605 13.2766 13.4284 14.9999 13.8735V28.0001H11.9999V25.0001H9.99988C8.34575 25.0001 6.99988 23.6542 6.99988 22.0001V16.0001H3.4145L7.00025 12.4152L7.00462 9.98962C7.0105 6.68712 9.70213 4.00025 13.0046 4.00025H15V6.12512H17V3.99525H15.001V2.00025H13.0046C8.60113 2.00025 5.01237 5.58262 5.00462 9.986L5.00175 11.5851L2 14.5862V18.0001H5V22.0001C5 24.7571 7.243 27.0001 10 27.0001V30.0001H22V27.0001C24.757 27.0001 27 24.7571 27 22.0001V18.0001H30V14.5859L27 11.5859Z" fill="black"/>
</svg>
