<svg width="32" height="32" viewBox="0 0 32 32" fill="none" xmlns="http://www.w3.org/2000/svg">
<path d="M19.6297 9.77794C19.6297 8.13683 18.5347 6.74745 17.0371 6.30009V7.40338C17.9516 7.80432 18.5926 8.71718 18.5926 9.77794C18.5926 10.8387 17.9516 11.7516 17.0371 12.1525V13.2558C18.5347 12.8084 19.6297 11.4191 19.6297 9.77794Z" fill="black"/>
<path d="M14.963 7.40338V6.30009C13.4654 6.74745 12.3704 8.13683 12.3704 9.77794C12.3704 11.4191 13.4654 12.8084 14.963 13.2558V12.1525C14.0484 11.7516 13.4074 10.8387 13.4074 9.77794C13.4074 8.71718 14.0484 7.80432 14.963 7.40338Z" fill="black"/>
<path d="M16.5186 3.55064H15.4815V5.62472H16.5186V3.55064Z" fill="black"/>
<path d="M26.889 11.6372V9.77691C26.8813 5.48874 23.3922 2 19.1112 2H17.0382V3.03717H19.1113C22.8216 3.03717 25.8454 6.06132 25.8521 9.77781V12.0667L30.3039 16.5186H25.8521V22.2223C25.8521 24.2237 24.2238 25.852 22.2224 25.852H20.6669V28.9631H16.5187V13.9209H15.4816V28.9631H11.3335V25.852H9.77791C7.77655 25.852 6.14826 24.2237 6.14826 22.2223V16.5186H1.69637L6.14878 12.0672L6.15293 9.76602C6.15954 6.05574 9.18343 3.03717 12.8937 3.03717H14.964V2.00013H12.8937C8.61253 2.00013 5.12354 5.48303 5.11589 9.76407L5.11252 11.6367L1.48145 15.267V17.5555H5.11109V22.2222C5.11109 24.7955 7.20449 26.8889 9.77778 26.8889H10.2963V30H21.7038V26.8889H22.2223C24.7956 26.8889 26.889 24.7955 26.889 22.2222V17.5555H30.5186V15.2666L26.889 11.637V11.6372Z" fill="black"/>
</svg>
