<svg width="32" height="32" viewBox="0 0 32 32" fill="none" xmlns="http://www.w3.org/2000/svg">
<path d="M23.7209 23.2404L23.72 24.2103C23.7179 26.3379 21.9855 28.0689 19.8579 28.0689H12.1292C9.99967 28.0689 8.2673 26.3365 8.26718 24.2069V23.2413C8.26718 21.1026 9.14097 19.1643 10.55 17.7639V15.2693C8.00794 17.0107 6.33615 19.934 6.33615 23.2414V24.207C6.33615 27.4013 8.93507 30 12.1292 30H19.8579C23.0492 30 25.6481 27.4036 25.651 24.2124L25.652 23.2414C25.652 19.9226 23.969 16.99 21.412 15.2508V17.7391C22.8359 19.1412 23.7207 21.0892 23.7209 23.2406V23.2404Z" fill="black"/>
<path d="M24.2153 9.23073C24.2153 9.5065 23.9912 9.73098 23.7155 9.73098V11.662C25.0558 11.662 26.1463 10.5713 26.1463 9.23073C26.1463 7.89011 25.0559 6.79944 23.7155 6.79944V8.73047C23.991 8.73047 24.2153 8.95483 24.2153 9.23073Z" fill="black"/>
<path d="M5.85352 9.23073C5.85352 10.5712 6.94394 11.662 8.28432 11.662V9.73098C8.00878 9.73098 7.78454 9.50662 7.78454 9.23073C7.78454 8.95483 8.00866 8.73047 8.28432 8.73047V6.79944C6.94406 6.79944 5.85352 7.89011 5.85352 9.23073Z" fill="black"/>
<path d="M22.4356 6.75213C21.9288 5.12525 20.8215 3.76158 19.3754 2.91784C18.3772 2.3354 17.2178 2 15.981 2C12.9527 2 10.3832 4.00211 9.52657 6.75213C9.329 7.38636 9.22255 8.06028 9.22255 8.75859C9.22255 10.0078 9.56447 11.178 10.1579 12.1831C10.2787 12.3877 10.4092 12.586 10.5501 12.7761C11.7826 14.4379 13.758 15.5172 15.9811 15.5172C18.2042 15.5172 20.1797 14.4379 21.4122 12.7762C21.5532 12.586 21.6837 12.3878 21.8045 12.1831C22.3978 11.178 22.7399 10.0078 22.7399 8.75859C22.7399 8.06028 22.6334 7.38636 22.4358 6.75213H22.4356ZM19.0025 12.5197C18.1747 13.1861 17.1239 13.5862 15.981 13.5862C14.8381 13.5862 13.7874 13.1861 12.9596 12.5197C11.8594 11.6341 11.1535 10.2776 11.1535 8.75859C11.1535 7.18263 11.9128 5.78083 13.0845 4.89919C13.0859 6.49507 14.3847 7.79308 15.981 7.79308C17.2397 7.79308 18.3129 6.98579 18.7115 5.86205H15.981C15.4487 5.86205 15.0155 5.4289 15.0155 4.89654C15.0155 4.36418 15.4487 3.93103 15.981 3.93103C17.3032 3.93103 18.5026 4.46568 19.3754 5.32981C20.2597 6.20529 20.8086 7.41894 20.8086 8.75859C20.8086 10.2776 20.1027 11.6341 19.0025 12.5197Z" fill="black"/>
</svg>
