<svg width="32" height="32" viewBox="0 0 32 32" fill="none" xmlns="http://www.w3.org/2000/svg">
<path d="M13 7H20V5H15C13.8973 5 13 5.89725 13 7Z" fill="black"/>
<path d="M8.5 8H11V6C11 4.89725 11.8973 4 13 4H20V2H13C10.7944 2 9 3.79437 9 6H8.5C8.22425 6 8 5.77575 8 5.5V2H6V5.5C6 6.8785 7.1215 8 8.5 8Z" fill="black"/>
<path d="M17 14C19.757 14 22 16.243 22 19V27.875C22 27.944 21.944 28 21.875 28H13C8.20525 28 4.275 24.2309 4.01463 19.5H4V18L3.79288 17.7929L4 17.5858V2H2V19C2 25.0654 6.93463 30 13 30H21.875C23.0467 30 24 29.0467 24 27.875V19C24 17.0428 23.1916 15.2715 21.8924 14H30V12H17V14Z" fill="black"/>
<path d="M13.5859 8L6 15.5857V18.4142L14.4141 10H30V8H13.5859Z" fill="black"/>
<path d="M12.5 26V24C9.76638 24 8 22.4299 8 20H6C6 23.5327 8.67287 26 12.5 26Z" fill="black"/>
</svg>
