<svg width="32" height="32" viewBox="0 0 32 32" fill="none" xmlns="http://www.w3.org/2000/svg">
<path d="M8.96164 6.99164L9.64452 6.309L7.93749 4.60089C7.7528 4.41607 7.65248 4.1703 7.6549 3.90895C7.65743 3.64772 7.76258 3.40388 7.95101 3.22232C8.13052 3.04934 8.36603 2.96363 8.60553 2.96363C8.86784 2.96363 9.13474 3.06648 9.33766 3.26952L11.0104 4.94335L11.6933 4.26059L10.0207 2.58688C9.26294 1.82879 8.03382 1.80175 7.28092 2.52676C6.90429 2.88963 6.69425 3.3772 6.6893 3.89977C6.68435 4.42235 6.88498 4.91378 7.25449 5.28341L8.96164 6.99164Z" fill="black"/>
<path d="M4.41153 7.79343C4.65888 7.79343 4.90646 7.88759 5.09466 8.07602L6.45994 9.44227L7.14283 8.75951L5.77766 7.3935C5.02464 6.64012 3.79927 6.63964 3.04625 7.39254C2.29287 8.14531 2.29251 9.37069 3.04528 10.1239L4.41105 11.4907L5.09393 10.8079L3.72829 9.44131C3.3519 9.06468 3.35214 8.45193 3.72877 8.07554C3.91709 7.88734 4.16431 7.79343 4.41153 7.79343Z" fill="black"/>
<path d="M8.50811 10.1256L7.82523 10.8084L8.84913 11.833C9.03153 12.0155 9.13184 12.2581 9.13172 12.5159C9.13172 12.7739 9.03117 13.0164 8.84865 13.1986C8.66625 13.381 8.42385 13.4814 8.16613 13.4814H8.16588C7.9078 13.4814 7.6654 13.3807 7.483 13.1983L6.45934 12.174L5.77646 12.8568L6.8 13.881C7.16468 14.2458 7.64971 14.4469 8.16552 14.447H8.16613C8.6817 14.447 9.16661 14.2462 9.53141 13.8817C9.89633 13.517 10.0974 13.032 10.0976 12.5162C10.0978 12.0003 9.89705 11.5152 9.53225 11.1504L8.50811 10.1256Z" fill="black"/>
<path d="M22.6625 3.2694C23.051 2.88106 23.673 2.85994 24.0492 3.2222C24.2377 3.40376 24.3429 3.64748 24.3453 3.90883C24.3478 4.17017 24.2474 4.41595 24.0627 4.60076L22.3557 6.30888L23.0385 6.99152L24.7457 5.28329C25.1152 4.91366 25.3158 4.42223 25.3109 3.89965C25.3059 3.37708 25.0959 2.88951 24.7193 2.52664C23.9664 1.80163 22.7375 1.82855 21.9795 2.58664L20.3069 4.26047L20.9898 4.94323L22.6625 3.26928V3.2694Z" fill="black"/>
<path d="M19.4036 9.26313C18.7655 9.90159 18.4142 10.7505 18.4144 11.6533L18.4183 28.0203C18.4183 28.5697 17.9935 29.0244 17.4712 29.0342C17.2067 29.0409 16.9626 28.9408 16.7762 28.758C16.5896 28.5748 16.487 28.3302 16.4869 28.0689L16.483 11.6539C16.4825 10.2352 17.0346 8.90135 18.0375 7.89785L19.6246 6.3096L18.9417 5.62684L17.3545 7.21521C16.7672 7.80285 16.3112 8.48645 16.0002 9.23054C15.6891 8.48645 15.2331 7.80285 14.6459 7.21521L13.0586 5.62684L12.3757 6.3096L13.9628 7.89785C14.9657 8.90135 15.5178 10.2352 15.5173 11.6539L15.5134 28.0689C15.5134 28.3302 15.4106 28.5748 15.2241 28.758C15.0376 28.941 14.7929 29.0404 14.5291 29.0342C14.0068 29.0244 13.5819 28.5695 13.582 28.0203L13.5859 11.6533C13.5861 10.7505 13.2348 9.90159 12.5967 9.26313L11.0098 7.67513L10.3269 8.35789L11.9137 9.94565C12.3694 10.4017 12.6204 11.0082 12.6203 11.653L12.6164 28.02C12.616 29.0922 13.4661 29.9802 14.5113 29.9996C14.5237 29.9999 14.5359 30 14.5483 30C15.0575 30 15.5365 29.8046 15.9006 29.4472C15.9358 29.4126 15.968 29.3759 16.0003 29.3392C16.0325 29.3759 16.0647 29.4126 16.1 29.4472C16.4642 29.8046 16.9431 30 17.4522 30C17.4647 30 17.477 30 17.4893 29.9996C18.5344 29.9802 19.3845 29.0921 19.3842 28.02L19.3803 11.653C19.38 11.0082 19.631 10.4018 20.0868 9.94565L21.6736 8.35789L20.9907 7.67513L19.4038 9.26313H19.4036Z" fill="black"/>
<path d="M28.9541 7.39254C28.201 6.63964 26.9754 6.64012 26.2226 7.3935L24.8575 8.75951L25.5404 9.44227L26.9056 8.07602C27.0941 7.88759 27.3413 7.79343 27.5888 7.79343C27.8362 7.79343 28.0832 7.88747 28.2714 8.07554C28.648 8.45193 28.6483 9.06468 28.2719 9.44131L26.9062 10.8078L27.5891 11.4906L28.9549 10.1238C29.7077 9.37057 29.7073 8.14519 28.9539 7.39241L28.9541 7.39254Z" fill="black"/>
<path d="M24.5174 13.1982C24.335 13.3807 24.0925 13.4813 23.8345 13.4814H23.8343C23.5765 13.4814 23.3341 13.381 23.1518 13.1987C22.9693 13.0163 22.8687 12.7738 22.8687 12.5159C22.8687 12.2579 22.9689 12.0154 23.1513 11.833L24.1752 10.8084L23.4923 10.1256L22.4682 11.1505C22.1035 11.5153 21.9026 12.0005 21.9029 12.5163C21.9029 13.0321 22.1041 13.5171 22.469 13.8818C22.8337 14.2464 23.3185 14.4471 23.8343 14.4471H23.8349C24.3507 14.4469 24.8358 14.2459 25.2004 13.881L26.2238 12.8568L25.541 12.174L24.5174 13.1982Z" fill="black"/>
</svg>
