<svg width="32" height="32" viewBox="0 0 32 32" fill="none" xmlns="http://www.w3.org/2000/svg">
<path d="M8.88711 26.308C8.54078 27.1288 8.62704 28.0628 9.11775 28.8062C9.60859 29.5496 10.4335 29.996 11.324 30H11.3476C11.3517 30 11.3558 30 11.3599 30C12.4565 30 13.4254 29.3425 13.8303 28.3222L16.0568 22.712L18.1781 28.2869C18.5684 29.3127 19.5659 29.9999 20.6628 29.9999H20.6746C21.568 29.9958 22.3944 29.5476 22.8849 28.8006C23.3752 28.0536 23.4581 27.1173 23.1066 26.2958L19.5602 18.0083V13.5546L26.7979 9.54808C27.6021 9.10292 28.1017 8.25532 28.1017 7.33606C28.1017 6.48858 27.6806 5.70208 26.9754 5.23201C26.2704 4.76218 25.3822 4.67616 24.6 5.00243L24.5706 5.01477L16.053 9.50133L7.45637 5.01536L7.39918 4.98867C6.61612 4.66489 5.72794 4.75257 5.02343 5.22371C4.31892 5.69473 3.89844 6.48194 3.89844 7.3293C3.89844 8.24987 4.39864 9.09889 5.20389 9.54488L12.4374 13.5521L12.3911 18.0068L8.88734 26.308H8.88711ZM5.89357 8.29946C5.54096 8.10417 5.32206 7.73246 5.32206 7.3293C5.32206 6.9526 5.50169 6.6166 5.81467 6.40731C6.00225 6.2819 6.21344 6.21819 6.42771 6.21819C6.56214 6.21819 6.69751 6.24322 6.82909 6.294L14.516 10.3053H17.5821L25.1743 6.3061C25.5141 6.17405 25.8812 6.2138 26.186 6.41704C26.4988 6.62538 26.6781 6.96043 26.6781 7.3363C26.6781 7.73791 26.4597 8.1082 26.1083 8.30278L18.1366 12.7157V18.3004L21.7977 26.8561C21.9633 27.2433 21.9258 27.6673 21.6947 28.0193C21.4636 28.3715 21.0894 28.5745 20.6683 28.5763H20.6628C20.1534 28.5763 19.6901 28.2571 19.5087 27.7807L16.471 19.7969H15.6823L12.5071 27.7974C12.319 28.2712 11.8691 28.5765 11.3601 28.5765H11.3308C10.911 28.5745 10.5373 28.3724 10.306 28.0219C10.0746 27.6715 10.0356 27.2486 10.1988 26.8617L13.8116 18.3021L13.8697 12.7183L5.89357 8.29946Z" fill="black"/>
<path d="M18.6232 4.61019C18.6232 3.17091 17.4523 2 16.013 2C14.5738 2 13.4029 3.17091 13.4029 4.61019C13.4029 6.04947 14.5738 7.22038 16.013 7.22038C17.4523 7.22038 18.6232 6.04947 18.6232 4.61019ZM14.8266 4.61019C14.8266 3.95598 15.3588 3.42374 16.013 3.42374C16.6673 3.42374 17.1995 3.95598 17.1995 4.61019C17.1995 5.2644 16.6673 5.79664 16.013 5.79664C15.3588 5.79664 14.8266 5.2644 14.8266 4.61019Z" fill="black"/>
</svg>
