<svg width="32" height="32" viewBox="0 0 32 32" fill="none" xmlns="http://www.w3.org/2000/svg">
<path d="M26.7309 9.8599C27.5958 9.38098 28.1333 8.46934 28.1333 7.48058C28.1333 6.56905 27.6804 5.72298 26.9218 5.21746C26.1634 4.71194 25.2082 4.61966 24.3667 4.97059L24.3281 4.98669L16.0516 9.34633L7.70657 4.99159L7.63132 4.95647C6.78898 4.6081 5.83382 4.70261 5.07642 5.20929C4.31878 5.71586 3.86646 6.5624 3.86646 7.47381C3.86646 8.46385 4.40441 9.37689 5.27032 9.85663L12.2617 13.7296L12.218 17.9249L8.79065 26.0455C8.41953 26.9246 8.51193 27.9249 9.03763 28.7213C9.56334 29.5177 10.4469 29.9957 11.4006 30H11.424C11.4284 30 11.4327 30 11.4371 30C12.6117 30 13.6496 29.2957 14.0833 28.203L16.0512 23.2442L17.9236 28.1652C18.3418 29.2639 19.4101 29.9999 20.585 29.9999H20.5976C21.5547 29.9956 22.4397 29.5154 22.9651 28.7154C23.4903 27.9153 23.5792 26.9123 23.2025 26.0324L19.7341 17.927V13.7328L26.7309 9.85966V9.8599ZM21.4864 26.7669C21.618 27.0744 21.5882 27.4113 21.4046 27.6909C21.221 27.9706 20.9238 28.1318 20.5894 28.1333H20.5849C20.1802 28.1333 19.8122 27.8798 19.6683 27.5014L16.7127 19.7335H15.4364L12.3483 27.5145C12.199 27.8909 11.8415 28.1334 11.4374 28.1334H11.4095C11.0759 28.1318 10.7792 27.9713 10.5954 27.6929C10.4116 27.4145 10.3806 27.0786 10.5103 26.7713L14.0808 18.312L14.1399 12.6361L6.17484 8.22364C5.90242 8.07267 5.73314 7.78531 5.73314 7.4737C5.73314 7.18249 5.87186 6.92279 6.11394 6.76097C6.25896 6.66402 6.42229 6.61479 6.58784 6.61479C6.68771 6.61479 6.7884 6.63276 6.8864 6.66892L14.0363 10.4H18.0564L25.1176 6.68059C25.3764 6.58399 25.6548 6.61619 25.8868 6.77066C26.1283 6.93154 26.2668 7.19031 26.2668 7.48035C26.2668 7.79045 26.0983 8.07628 25.8269 8.22655L17.8675 12.6325V18.3096L21.4865 26.7667L21.4864 26.7669Z" fill="black"/>
<path d="M18.8126 4.80002C18.8126 3.25604 17.5565 2 16.0126 2C14.4687 2 13.2126 3.25604 13.2126 4.80002C13.2126 6.344 14.4687 7.60005 16.0126 7.60005C17.5565 7.60005 18.8126 6.344 18.8126 4.80002ZM15.0793 4.80002C15.0793 4.2854 15.498 3.86668 16.0126 3.86668C16.5272 3.86668 16.9459 4.2854 16.9459 4.80002C16.9459 5.31464 16.5272 5.73336 16.0126 5.73336C15.498 5.73336 15.0793 5.31464 15.0793 4.80002Z" fill="black"/>
</svg>
