<svg width="32" height="32" viewBox="0 0 32 32" fill="none" xmlns="http://www.w3.org/2000/svg">
<path d="M8.49963 13.5033C8.49963 13.3233 8.59126 13.2048 8.64601 13.15C8.70076 13.0953 8.81938 13.0036 8.99963 13.0036H10.5V11.0036H8.99963C8.33188 11.0036 7.70413 11.2636 7.23176 11.7356C6.75951 12.2079 6.49951 12.8356 6.49963 13.5034V17.9953H8.49963V13.5033Z" fill="black"/>
<path d="M13.5 7.50101C13.5 7.22551 13.7243 7.00126 14 7.00126C14.2758 7.00126 14.5 7.22539 14.5 7.50101V9.99939H16.5V4.49914C16.5 4.22351 16.7243 3.99939 17.0004 3.99939C17.2765 3.99939 17.5004 4.22351 17.5004 4.49914V9.99939H19.5L19.5004 5.49289C19.5024 5.21901 19.7255 4.99676 20.0004 4.99676C20.2753 4.99676 20.5004 5.22089 20.5004 5.49651V10.9994H22.5L22.5004 9.49701C22.5024 9.22314 22.7255 9.00089 23.0004 9.00089C23.2753 9.00089 23.5004 9.22501 23.5004 9.50064V11.9994H25.5L25.5004 9.50064C25.5004 8.12226 24.3789 7.00089 23 7.00089C22.8289 7.00089 22.6619 7.01839 22.5004 7.05126V5.49651C22.5004 4.11814 21.3789 2.99676 20 2.99676C19.6861 2.99676 19.3869 3.05739 19.1099 3.16339C18.666 2.46501 17.8873 1.99939 17 1.99939C15.6215 1.99939 14.5 3.12076 14.5 4.49914V5.05164C14.3384 5.01876 14.1713 5.00126 14 5.00126C12.6215 5.00126 11.5 6.12264 11.5 7.50101V10.9994H13.5V7.50101Z" fill="black"/>
<path d="M23.5 13.053C23.3384 13.0201 23.1713 13.0026 23 13.0026C22.8288 13.0026 22.6619 13.0201 22.5004 13.053H22.5C22.3704 13.0794 22.2456 13.1184 22.1241 13.164C21.763 12.5974 21.1816 12.1848 20.5 12.0505C20.3434 12.0196 20.1818 12.0026 20.0163 12.0026C19.8408 12.0026 19.6683 12.0216 19.5004 12.0568H19.5C19.3681 12.0844 19.2398 12.1235 19.1149 12.1716C18.757 11.6039 18.1793 11.1881 17.5 11.0498C17.3384 11.0169 17.171 10.9994 16.9998 10.9994C16.8285 10.9994 16.6616 11.0169 16.5001 11.0498C15.8224 11.1879 15.2454 11.6023 14.8874 12.1685C14.7624 12.1208 14.6336 12.0804 14.5 12.0531C14.3383 12.0201 14.171 12.0026 13.9996 12.0026C13.8283 12.0026 13.6615 12.0201 13.5 12.053C12.3624 12.2846 11.5035 13.2911 11.5 14.4951C11.5 14.4976 11.4996 14.4999 11.4996 14.5024V17.2871C11.1934 17.4326 10.911 17.631 10.6643 17.878L9.35651 19.1855C8.78988 19.7521 8.47788 20.5056 8.47788 21.3074L8.47851 24.3301C8.47851 24.9785 8.69401 25.6204 9.08488 26.1378L11.4998 29.3345V29.9993H13.4998V28.6639L10.6806 24.9321C10.5503 24.7598 10.4785 24.5456 10.4785 24.3296L10.4779 21.3071C10.4779 21.0398 10.5819 20.7885 10.7708 20.5996L12.0786 19.292C12.2674 19.1033 12.5185 18.9993 12.7855 18.9993H16.9998C17.2755 18.9993 17.4999 19.2238 17.5 19.4994C17.5 19.7753 17.2756 19.9996 16.9998 19.9996H12.4786V21.9996H15.0849L16.0355 22.9503C16.2043 23.119 16.3589 23.2981 16.5 23.4854C17.1486 24.3463 17.5 25.3889 17.5 26.4858V30.0005H19.5V26.4858C19.5 25.4359 19.2703 24.4213 18.8349 23.4993C18.5598 22.9168 18.2011 22.3723 17.7678 21.8781C18.0315 21.7933 18.2788 21.6636 18.5021 21.4946C18.7989 21.7188 19.1375 21.8741 19.5 21.9484C19.6655 21.9823 19.8355 22.0003 20.0084 22.0003C20.1754 22.0003 20.3398 21.984 20.5 21.9523C20.9826 21.8569 21.4263 21.6211 21.782 21.2655C22.1473 20.9001 22.3844 20.4415 22.4745 19.9438C22.4831 19.9456 22.4914 19.9484 22.5 19.9501C22.663 19.983 22.8304 20.0003 23.0005 20.0003C23.1715 20.0003 23.3385 19.9828 23.5 19.9499V26.4995C23.5 27.4668 22.9673 27.9995 22 27.9995H21.5V29.9995H22C24.0608 29.9995 25.5 28.5603 25.5 26.4995V20.3808H25.5004L25.5 15.502C25.5 14.2949 24.6398 13.285 23.5 13.0528V13.053ZM13.4996 16.9993V14.5024C13.4996 14.5011 13.5 14.5 13.5 14.4988C13.502 14.2249 13.7251 14.0026 13.9996 14.0026C14.2741 14.0026 14.4996 14.2268 14.4996 14.5025L14.4999 16.9993H13.4996ZM17.5004 17.0496H17.5C17.3384 17.0166 17.171 16.9993 16.9998 16.9993H16.5V13.4991C16.5 13.4981 16.5003 13.4973 16.5003 13.4963C16.5019 13.222 16.7253 12.9994 17.0008 12.9994C17.2763 12.9994 17.498 13.2216 17.5 13.4955C17.5 13.4968 17.5004 13.4979 17.5004 13.4991V17.0496ZM20.5 19.6211C20.4708 19.7331 20.4089 19.8103 20.3676 19.8515C20.3121 19.9071 20.1914 20.0004 20.0081 20.0004C19.8249 20.0004 19.7039 19.9068 19.6483 19.851C19.5933 19.7959 19.5019 19.6766 19.5003 19.4966V19.378L19.5161 14.5055V14.5021C19.5161 14.3221 19.6078 14.2036 19.6624 14.149C19.7171 14.0943 19.8359 14.0026 20.0161 14.0026C20.2501 14.0026 20.4458 14.1649 20.4999 14.3824C20.5095 14.421 20.5161 14.4609 20.5161 14.5024L20.5164 19.4921C20.5164 19.5393 20.51 19.5821 20.4999 19.621L20.5 19.6211ZM23.5 17.5028C23.4986 17.7774 23.2751 18.0005 23.0003 18.0005C22.82 18.0005 22.7011 17.9088 22.6465 17.854C22.606 17.8135 22.5453 17.7376 22.5164 17.6278C22.5063 17.5894 22.5 17.547 22.5 17.5004V15.5023C22.5 15.4606 22.5066 15.4208 22.5163 15.3821C22.5704 15.1648 22.7659 15.0026 23 15.0026C23.2758 15.0026 23.5 15.2268 23.5 15.5025V17.5028Z" fill="black"/>
</svg>
