<svg width="32" height="32" viewBox="0 0 32 32" fill="none" xmlns="http://www.w3.org/2000/svg">
<path d="M10.4507 12.5983V11.0849H8.93694C8.33056 11.0849 7.76051 11.321 7.33158 11.7497C6.90278 12.1785 6.66668 12.7485 6.66681 13.3548V17.8869H8.18023V13.3547C8.18023 13.1526 8.2588 12.9628 8.40182 12.8199C8.54471 12.677 8.73477 12.5983 8.93694 12.5983H10.4507Z" fill="black"/>
<path d="M23.0625 7.04637C22.7971 7.04637 22.5432 7.09454 22.3062 7.17866V5.27617C22.3062 4.02458 21.2878 3.0063 20.0357 3.0063C19.6749 3.0063 19.3346 3.09307 19.0314 3.24365C18.6559 2.50687 17.8913 2 17.0089 2C15.7572 2 14.7388 3.01828 14.7388 4.26988V5.16115C14.5016 5.07691 14.2476 5.02873 13.982 5.02873C12.7303 5.02873 11.7119 6.04701 11.7119 7.2986V10.8283H13.2253V7.2986C13.2253 6.88153 13.5647 6.54215 13.982 6.54215C14.3994 6.54215 14.7388 6.8814 14.7388 7.2986V9.81933H16.2523V4.26988C16.2523 3.8528 16.5917 3.51342 17.0094 3.51342C17.4271 3.51342 17.7661 3.8528 17.7661 4.26988V9.81933H19.2795V5.26886C19.2834 4.85519 19.621 4.51972 20.0362 4.51972C20.4535 4.51972 20.7929 4.85897 20.7929 5.27617V10.8283H22.3063V9.3088C22.3103 8.89513 22.6479 8.55966 23.0631 8.55966C23.4804 8.55966 23.8198 8.89892 23.8198 9.31612V11.8372H25.3332V9.31612C25.3332 8.06452 24.3148 7.04624 23.0627 7.04624L23.0625 7.04637Z" fill="black"/>
<path d="M25.3327 15.3717C25.3327 14.2936 24.5765 13.3906 23.567 13.1603C23.4045 13.1232 23.2361 13.1019 23.0625 13.1019C22.889 13.1019 22.7206 13.1232 22.5581 13.1603C22.3879 13.1992 22.2255 13.2577 22.0721 13.3325C21.7674 12.7378 21.2094 12.2946 20.5402 12.1472C20.3828 12.1125 20.2197 12.093 20.0521 12.093C19.8743 12.093 19.7002 12.1157 19.5312 12.1552C19.3592 12.1954 19.1934 12.255 19.0361 12.334C18.7356 11.7373 18.1806 11.2913 17.5134 11.1392C17.3508 11.1021 17.1823 11.0808 17.0086 11.0808C16.835 11.0808 16.6668 11.1021 16.5044 11.1392C15.8391 11.2909 15.2853 11.7351 14.9842 12.3295C14.8274 12.2519 14.6611 12.1915 14.4865 12.1516C14.3238 12.1146 14.1555 12.0931 13.9817 12.0931C13.8079 12.0931 13.64 12.1144 13.4776 12.1515C12.468 12.3815 11.7115 13.2848 11.7115 14.363V17.3381C11.6258 17.373 11.5417 17.4119 11.4597 17.4553C11.2179 17.5834 10.9938 17.7481 10.7949 17.9471L9.47559 19.2663C8.95144 19.7904 8.66288 20.4873 8.66288 21.2289L8.66351 24.2786C8.66351 24.8783 8.86278 25.4721 9.22423 25.9505L11.7118 29.2433V29.9986H13.2252V28.7359L10.4318 25.0383C10.2676 24.8208 10.1771 24.5509 10.1769 24.2784L10.1763 21.2289C10.1763 20.8917 10.3075 20.5748 10.5457 20.3367L11.8651 19.0173C12.1033 18.7791 12.4198 18.648 12.7568 18.648H17.0088C17.2027 18.648 17.3794 18.722 17.5135 18.8425C17.6678 18.9811 17.7657 19.1815 17.7657 19.4048C17.7657 19.6282 17.6678 19.8287 17.5135 19.9673C17.3794 20.0877 17.2027 20.1618 17.0088 20.1618H12.4472V21.6752H15.1813L16.2143 22.7082C16.3161 22.8101 16.4121 22.9162 16.5045 23.0247C17.3199 23.9813 17.7657 25.1829 17.7657 26.4538V30H19.2791V26.4538C19.2791 25.391 19.0357 24.3663 18.5782 23.4406C18.3003 22.8786 17.9445 22.3528 17.5135 21.8786C17.4444 21.8026 17.373 21.7279 17.3001 21.6545C17.3721 21.6453 17.4432 21.6329 17.5135 21.6171C17.8882 21.5323 18.2342 21.353 18.5244 21.0916C18.8139 21.3518 19.1583 21.5307 19.5314 21.6162C19.6978 21.6543 19.8691 21.6761 20.0442 21.6761C20.2133 21.6761 20.379 21.6559 20.5403 21.6203C20.9594 21.5276 21.3447 21.3195 21.6554 21.0087C22.0541 20.6099 22.2843 20.0889 22.3162 19.5304C22.3954 19.558 22.476 19.5815 22.5582 19.6C22.7222 19.6371 22.8908 19.6582 23.0631 19.6582C23.235 19.6582 23.4033 19.6371 23.567 19.6002C23.6528 19.5807 23.7368 19.556 23.8193 19.5269V26.4678C23.8193 27.5899 23.1757 28.2335 22.0536 28.2335H21.5491V29.7469H22.0536C24.015 29.7469 25.3327 28.4291 25.3327 26.4678V17.3929C25.3327 17.3912 25.3329 17.3894 25.3329 17.3878L25.3327 15.3717ZM14.4865 17.1342H13.225V14.3627C13.225 14.1393 13.3229 13.9387 13.4776 13.8002C13.6115 13.6802 13.7879 13.6064 13.9817 13.6064C14.1754 13.6064 14.3525 13.6804 14.4865 13.8009C14.6408 13.9395 14.7384 14.1398 14.7384 14.3629L14.7386 17.1343H14.4865V17.1342ZM17.5134 17.1927C17.3508 17.1556 17.1823 17.1342 17.0086 17.1342H16.2522V13.3505C16.2522 13.1273 16.3499 12.927 16.5044 12.7883C16.6385 12.668 16.8153 12.5939 17.0096 12.5939C17.204 12.5939 17.3794 12.6677 17.5134 12.7878C17.668 12.9264 17.766 13.1269 17.766 13.3504V17.2667C17.6837 17.2375 17.5996 17.2124 17.5134 17.1927ZM20.585 19.9382C20.5706 19.9525 20.5554 19.9658 20.5402 19.9789C20.4018 20.0972 20.228 20.1623 20.044 20.1623C19.8523 20.1623 19.6721 20.0915 19.5312 19.9638C19.5215 19.9551 19.5116 19.9467 19.5024 19.9374C19.3596 19.7943 19.2809 19.6046 19.2794 19.4028V19.2812L19.2954 14.3651V14.3625C19.2954 14.1604 19.374 13.9706 19.5169 13.8277C19.5215 13.8231 19.5266 13.8192 19.5312 13.8146C19.6725 13.6804 19.8564 13.6062 20.0521 13.6062C20.238 13.6062 20.4083 13.6739 20.5402 13.7856C20.7041 13.9245 20.8087 14.1314 20.8088 14.3626C20.8088 14.3674 20.8091 19.397 20.8091 19.397C20.8091 19.6013 20.7295 19.7934 20.5851 19.9379L20.585 19.9382ZM23.8193 17.3926C23.818 17.5929 23.7396 17.7809 23.5979 17.9227C23.588 17.9326 23.5774 17.9415 23.567 17.9508C23.4282 18.0755 23.251 18.1444 23.0628 18.1445C22.8745 18.1445 22.6972 18.0754 22.5581 17.9505C22.5479 17.9413 22.5373 17.9326 22.5276 17.9228C22.4224 17.8176 22.3523 17.6867 22.3224 17.5444C22.3116 17.4934 22.3058 17.441 22.3058 17.3877V15.3717C22.3058 15.3181 22.3116 15.2659 22.3222 15.2154C22.3559 15.0556 22.4407 14.9148 22.5581 14.8094C22.6921 14.6891 22.8686 14.6152 23.0625 14.6152C23.2565 14.6152 23.433 14.6891 23.567 14.8094C23.7214 14.948 23.8193 15.1485 23.8193 15.3717V17.3926Z" fill="black"/>
</svg>
