<svg width="32" height="32" viewBox="0 0 32 32" fill="none" xmlns="http://www.w3.org/2000/svg">
<path d="M21.5259 4.99897C22.9906 4.99897 24.3675 5.56922 25.4031 6.60503C27.5409 8.74283 27.5409 12.2214 25.4031 14.3593L26.8129 15.7692C29.7282 12.8538 29.7282 8.1104 26.8129 5.195C25.4008 3.78284 23.5232 3.00511 21.5259 3.00511C19.5287 3.00511 17.6511 3.78284 16.239 5.195L17.6487 6.60491C18.6844 5.5691 20.0613 4.99897 21.5259 4.99897Z" fill="black"/>
<path d="M23.9682 13.6793C25.5229 12.1244 25.5229 9.59471 23.9682 8.03974C22.4133 6.48515 19.8835 6.48528 18.3288 8.03974L19.7386 9.44966C20.5161 8.67217 21.7809 8.6723 22.5583 9.44966C23.3356 10.2271 23.3356 11.4921 22.5583 12.2696L23.9682 13.6793Z" fill="black"/>
<path d="M24.191 16.9622H21.3742L18.5525 19.7836C18.3642 19.9719 18.1138 20.0756 17.8475 20.0756C17.5812 20.0756 17.3309 19.9719 17.1427 19.7836L12.2094 14.8497C12.0211 14.6614 11.9174 14.411 11.9175 14.1448C11.9175 13.8785 12.0212 13.6282 12.2095 13.44L15.0459 10.6039V7.81705L9.23775 2.0083H6.71962L6.11934 2.60484C3.46887 5.23836 2.00587 8.74644 2.00002 12.4829C1.99416 16.2192 3.44594 19.7321 6.08794 22.3743L9.61758 25.9039C12.2546 28.5408 15.7578 29.9917 19.4857 29.9917H19.5215C23.2626 29.9825 26.7724 28.5133 29.4046 25.8549L30 25.2537V22.7717L24.1911 16.9623L24.191 16.9622ZM27.9876 24.452C25.7314 26.7306 22.7229 27.99 19.5163 27.9978H19.4857C16.2907 27.9978 13.2875 26.7542 11.0274 24.494L7.49773 20.9644C5.23307 18.6997 3.98877 15.6887 3.99376 12.4862C3.99887 9.28354 5.25276 6.27654 7.52452 4.01924L7.978 3.5685L13.6195 9.21039L10.7996 12.0301C10.2347 12.595 9.92351 13.346 9.92351 14.145C9.92351 14.9438 10.2346 15.6949 10.7993 16.2597L15.7326 21.1935C16.2975 21.7584 17.0486 22.0696 17.8474 22.0696C18.6462 22.0696 19.3972 21.7585 19.9621 21.1938L22.7823 18.3737L28.4216 24.0136L27.9873 24.4522L27.9876 24.452Z" fill="black"/>
</svg>
