<svg width="32" height="32" viewBox="0 0 32 32" fill="none" xmlns="http://www.w3.org/2000/svg">
<path d="M26.6066 15.7149L25.5398 14.6481C27.7948 12.3929 27.7948 8.7236 25.5398 6.4684C24.4474 5.37601 22.9949 4.77436 21.45 4.77436C19.905 4.77436 18.4525 5.37601 17.3602 6.4684L16.2933 5.40166C17.6707 4.02422 19.5021 3.26566 21.45 3.26566C23.3979 3.26566 25.2293 4.02422 26.6066 5.40166C29.45 8.24492 29.45 12.8716 26.6066 15.7149Z" fill="black"/>
<path d="M23.7363 13.6063L22.6695 12.5396C23.5519 11.657 23.5519 10.2212 22.6695 9.3387C21.7869 8.45641 20.3512 8.45628 19.4687 9.3387L18.4019 8.2717C19.8726 6.8011 22.2656 6.8011 23.7363 8.2717C25.207 9.74244 25.207 12.1356 23.7363 13.6063Z" fill="black"/>
<path d="M23.7834 17.0965H21.6525L18.6277 20.121C18.3902 20.3586 18.0745 20.4893 17.7386 20.4893C17.4028 20.4893 17.0871 20.3586 16.8495 20.121L11.8719 15.1429C11.6344 14.9054 11.5036 14.5897 11.5038 14.2538C11.5038 13.918 11.6345 13.6023 11.872 13.3649L14.9117 10.3255V8.22468L8.69583 2.0083H6.86725L6.08203 2.78862C3.45554 5.39839 2.00593 8.87486 2.00002 12.5775C1.99411 16.2802 3.4329 19.7612 6.05097 22.3794L9.61231 25.9407C12.2255 28.5539 15.6972 29.9917 19.3913 29.9917H19.4266C23.1338 29.9825 26.612 28.5266 29.2204 25.8922L30 25.105V23.3137L23.7834 17.0965ZM28.1483 24.8305C25.8244 27.1775 22.7257 28.4744 19.4229 28.4827H19.3914C16.1004 28.4827 13.0072 27.2017 10.6792 24.8737L7.11784 21.3125C4.78532 18.9799 3.50357 15.8785 3.50872 12.5798C3.514 9.28124 4.80544 6.18399 7.1455 3.85888L7.78085 3.22756L13.828 9.27533L10.8049 12.298C10.2825 12.8204 9.99468 13.5151 9.99468 14.2541C9.99468 14.9929 10.2824 15.6876 10.8048 16.21L15.7823 21.1882C16.3047 21.7107 16.9994 21.9984 17.7382 21.9984C18.4769 21.9984 19.1716 21.7107 19.6942 21.1884L22.7175 18.1652L28.7623 24.2105L28.1479 24.8309L28.1483 24.8305Z" fill="black"/>
</svg>
