<svg width="32" height="32" viewBox="0 0 32 32" fill="none" xmlns="http://www.w3.org/2000/svg">
<path d="M2 21.8545H6.58182V10.1454H2V21.8545ZM3.52727 11.6726H5.05455V20.3272H3.52727V11.6726Z" fill="black"/>
<path d="M8.10909 24.909H12.6909V7.09082H8.10909V24.909ZM9.63636 8.61809H11.1636V23.3817H9.63636V8.61809Z" fill="black"/>
<path d="M25.4182 21.8545H30V10.1454H25.4182V21.8545ZM26.9455 11.6726H28.4727V20.3272H26.9455V11.6726Z" fill="black"/>
<path d="M19.3091 24.909H23.8909V7.09082H19.3091V24.909ZM20.8364 8.61809H22.3636V23.3817H20.8364V8.61809Z" fill="black"/>
<path d="M18.0364 13.709H13.9636V15.2363H18.0364V13.709Z" fill="black"/>
<path d="M18.0364 16.7635H13.9636V18.2908H18.0364V16.7635Z" fill="black"/>
</svg>
