<svg width="32" height="32" viewBox="0 0 32 32" fill="none" xmlns="http://www.w3.org/2000/svg">
<path d="M16.9457 6.66667H15.079V15.0667H16.9457V6.66667Z" fill="black"/>
<path d="M16 30C8.2804 30 2 23.7196 2 16C2 8.2804 8.2804 2 16 2C23.7196 2 30 8.2804 30 16C30 23.7196 23.7196 30 16 30ZM16 3.86667C9.30963 3.86667 3.86667 9.30963 3.86667 16C3.86667 22.6904 9.30963 28.1333 16 28.1333C22.6904 28.1333 28.1333 22.6904 28.1333 16C28.1333 9.30963 22.6903 3.86667 16 3.86667Z" fill="black"/>
<path d="M25.3457 15.0667H16.9457V16.9333H25.3457V15.0667Z" fill="black"/>
<path d="M16.9457 22.5333H15.079V25.3333H16.9457V22.5333Z" fill="black"/>
<path d="M9.47903 15.0667H6.67903V16.9333H9.47903V15.0667Z" fill="black"/>
<path d="M10.7325 19.9593L8.75245 21.9392L10.0723 23.2592L12.0524 21.2793L10.7325 19.9593Z" fill="black"/>
<path d="M21.9524 8.74041L19.9723 10.7203L21.2922 12.0403L23.2722 10.0604L21.9524 8.74041Z" fill="black"/>
<path d="M21.2922 19.9594L19.9724 21.2793L21.9524 23.2593L23.2723 21.9393L21.2922 19.9594Z" fill="black"/>
<path d="M10.0723 8.7406L8.75241 10.0606L10.7325 12.0405L12.0523 10.7205L10.0723 8.7406Z" fill="black"/>
</svg>
