<svg width="32" height="32" viewBox="0 0 32 32" fill="none" xmlns="http://www.w3.org/2000/svg">
<path d="M16.7244 6.50847H15.3007V15.0508H16.7244V6.50847Z" fill="black"/>
<path d="M16 30C8.28042 30 2 23.7196 2 16C2 8.28042 8.2803 2 16 2C23.7197 2 30 8.28042 30 16C30 23.7196 23.7196 30 16 30ZM16 3.42373C9.06537 3.42373 3.42373 9.06549 3.42373 16C3.42373 22.9345 9.06537 28.5763 16 28.5763C22.9346 28.5763 28.5763 22.9345 28.5763 16C28.5763 9.06549 22.9345 3.42373 16 3.42373Z" fill="black"/>
<path d="M25.5041 15.2881H16.9617V16.7119H25.5041V15.2881Z" fill="black"/>
<path d="M16.7244 22.6441H15.3007V25.4915H16.7244V22.6441Z" fill="black"/>
<path d="M9.36851 15.2881H6.52105V16.7119H9.36851V15.2881Z" fill="black"/>
<path d="M10.811 20.1944L8.79737 22.2078L9.80413 23.2147L11.8178 21.2012L10.811 20.1944Z" fill="black"/>
<path d="M22.2211 8.78531L20.2074 10.7987L21.2142 11.8056L23.2278 9.79217L22.2211 8.78531Z" fill="black"/>
<path d="M21.2142 20.1942L20.2075 21.201L22.2211 23.2145L23.2278 22.2077L21.2142 20.1942Z" fill="black"/>
<path d="M9.80412 8.78527L8.79735 9.79211L10.811 11.8056L11.8177 10.7987L9.80412 8.78527Z" fill="black"/>
</svg>
