<svg width="32" height="32" viewBox="0 0 32 32" fill="none" xmlns="http://www.w3.org/2000/svg">
<path d="M24.0719 2H3.89174V3.51351H24.0719V2Z" fill="black"/>
<path d="M24.0719 19.6577V18.1441H8.62336L3.63949 23.128V3.76577H2.12598V24.955H3.95304L9.25021 19.6577H24.0719Z" fill="black"/>
<path d="M25.8377 15.6216H28.108V14.1081H25.8377V3.76577H24.3242V17.8919H25.8377V15.6216Z" fill="black"/>
<path d="M28.3602 15.8739V27.986L25.9289 25.2072H15.9999V26.7207H25.242L28.1114 30H29.8737V15.8739H28.3602Z" fill="black"/>
<path d="M15.7476 20.9189H14.2341V24.955H15.7476V20.9189Z" fill="black"/>
<path d="M16.3541 11.1619L16.8062 10.8088C17.555 10.2295 18.1905 9.41027 18.1905 8.32256C18.1905 6.81106 16.9052 5.72335 15.1252 5.72335C13.1194 5.72335 11.749 6.98057 11.749 9.02886H13.317C13.317 7.71513 13.9951 6.98057 15.1112 6.98057C16.0716 6.98057 16.6509 7.55975 16.6509 8.39319C16.6509 8.98648 16.3119 9.4809 15.8175 9.8623L15.3937 10.2013C14.3625 11.0348 14.0799 11.7128 14.0799 13.0266H15.5349C15.5349 12.1084 15.7326 11.6421 16.3541 11.1619Z" fill="black"/>
<path d="M15.7184 14.0293H13.9244V15.8516H15.7184V14.0293Z" fill="black"/>
<path d="M26.091 21.1255H18.0179V22.639H26.091V21.1255Z" fill="black"/>
</svg>
