<svg width="32" height="32" viewBox="0 0 32 32" fill="none" xmlns="http://www.w3.org/2000/svg">
<path d="M16 21H14V25H16V21Z" fill="black"/>
<path d="M28 16V14H26V4H24V2H4V4H2V25H4.41425L9.41425 20H24V18H8.58587L4 22.5859V4H24V18H26V16H28V27.3385L25.9538 25H16V27H25.0462L27.6711 30H30V16H28Z" fill="black"/>
<path d="M16.456 11.3438L16.988 10.9518C17.5898 10.5038 18.2198 9.63591 18.2198 8.62778C18.2198 6.96178 16.904 5.92578 15.154 5.92578C13.04 5.92578 11.696 7.21391 11.696 9.27191H13.558C13.558 8.02578 14.146 7.42391 15.126 7.42391C15.938 7.42391 16.442 7.89991 16.442 8.68391C16.442 9.14591 16.232 9.57991 15.728 9.97191L15.238 10.3499C14.328 11.0499 14.006 11.6519 14.006 13.0239H15.658C15.658 12.1979 15.8398 11.8198 16.456 11.3438Z" fill="black"/>
<path d="M15.8959 13.8919H13.7819V15.9779H15.8959V13.8919Z" fill="black"/>
<path d="M26.001 20.9764H18V22.9764H26.001V20.9764Z" fill="black"/>
</svg>
