<svg width="32" height="32" viewBox="0 0 32 32" fill="none" xmlns="http://www.w3.org/2000/svg">
<path d="M15.9996 15.4471C14.9798 15.4471 14.0211 15.8443 13.2999 16.5653L14.3797 17.6453C14.8124 17.2127 15.3878 16.9744 15.9998 16.9744C16.6118 16.9744 17.187 17.2128 17.6197 17.6455L18.6997 16.5656C17.9786 15.8443 17.0197 15.4473 15.9999 15.4471H15.9996Z" fill="black"/>
<path d="M12.2199 15.4854C14.3042 13.4013 17.6954 13.4015 19.7795 15.4857L20.8596 14.4058C18.18 11.7261 13.8198 11.7257 11.14 14.4053L12.2199 15.4854Z" fill="black"/>
<path d="M16 10.8653C18.2438 10.8653 20.3531 11.7393 21.9396 13.3259L23.0196 12.246C21.1448 10.3709 18.6518 9.33804 16.0002 9.33791H15.9996C13.3482 9.33791 10.8553 10.3705 8.98043 12.2453L10.0602 13.3252C11.6469 11.7388 13.7563 10.8652 16 10.8653Z" fill="black"/>
<path d="M23.1273 30C24.6712 30 25.9273 28.7439 25.9273 27.2V4.8C25.9273 3.25605 24.6712 2 23.1273 2H8.87275C7.32881 2 6.07275 3.25605 6.07275 4.8V27.2C6.07275 28.7439 7.32881 30 8.87275 30H23.1273ZM7.60003 27.2V4.8C7.60003 4.09822 8.17097 3.52727 8.87275 3.52727H23.1273C23.8291 3.52727 24.4 4.09822 24.4 4.8V27.2C24.4 27.9018 23.8291 28.4727 23.1273 28.4727H8.87275C8.17097 28.4727 7.60003 27.9018 7.60003 27.2Z" fill="black"/>
<path d="M18.0364 24.4H13.9637V25.9273H18.0364V24.4Z" fill="black"/>
</svg>
