<svg width="32" height="32" viewBox="0 0 32 32" fill="none" xmlns="http://www.w3.org/2000/svg">
<path d="M15.9996 15.207C14.9313 15.207 13.9269 15.6231 13.1714 16.3785L14.5854 17.7927C14.9631 17.415 15.4655 17.207 15.9996 17.207C16.5338 17.207 17.0361 17.4151 17.4137 17.7929L18.828 16.3787C18.0725 15.6233 17.0681 15.2071 15.9996 15.207Z" fill="black"/>
<path d="M11.0501 14.2571L12.4641 15.6714C14.4139 13.722 17.5859 13.7221 19.5352 15.6717L20.9495 14.2576C18.22 11.5281 13.7794 11.5281 11.0501 14.2571Z" fill="black"/>
<path d="M15.9996 11.207H16C18.137 11.207 20.1459 12.0394 21.6567 13.5505L23.071 12.1364C21.1824 10.2475 18.6713 9.20712 16.0001 9.207H15.9996C13.3288 9.207 10.8176 10.2471 8.929 12.1357L10.343 13.5499C11.854 12.039 13.8629 11.207 15.9996 11.207Z" fill="black"/>
<path d="M23 30C24.6541 30 26 28.6541 26 27V5C26 3.34588 24.6541 2 23 2H9C7.34588 2 6 3.34588 6 5V27C6 28.6541 7.34588 30 9 30H23ZM8 27V5C8 4.44863 8.44863 4 9 4H23C23.5514 4 24 4.44863 24 5V27C24 27.5514 23.5514 28 23 28H9C8.44863 28 8 27.5514 8 27Z" fill="black"/>
<path d="M18 24H14V26H18V24Z" fill="black"/>
</svg>
