<svg width="32" height="32" viewBox="0 0 32 32" fill="none" xmlns="http://www.w3.org/2000/svg">
<path d="M15.0499 3.42993V2C8.07005 2.46927 2.47296 8.06423 2.00071 15.0432H3.43064C3.89753 8.85138 8.8572 3.89373 15.0499 3.42993Z" fill="black"/>
<path d="M3.42993 16.946H2C2.46725 23.9299 8.06637 29.5306 15.0499 30V28.5701C8.85352 28.1059 3.89182 23.1429 3.42993 16.946Z" fill="black"/>
<path d="M28.5707 16.946C28.1088 23.1423 23.148 28.1051 16.9525 28.5701V30C23.9351 29.5297 29.5333 23.9295 30.0005 16.9461H28.5705L28.5707 16.946Z" fill="black"/>
<path d="M28.5701 15.0432H30C29.5278 8.06494 23.9316 2.47022 16.9527 2.00012V3.43005C23.1446 3.89468 28.1032 8.85197 28.5701 15.0432Z" fill="black"/>
<path d="M19.8218 13.1459H18.1844L15.3639 18.1602L14.1552 16.9514H12.1371L14.9912 19.8056H16.0757L19.8218 13.1459Z" fill="black"/>
<path d="M24.2709 16.946C24.3054 16.6388 24.3249 16.3272 24.3249 16.011V15.989C24.3249 15.669 24.3049 15.3538 24.2695 15.0431C23.8334 11.2121 20.7842 8.16412 16.9525 7.73017C16.6433 7.69521 16.3296 7.67535 16.0111 7.67535H15.9891C15.6714 7.67535 15.3582 7.69497 15.0496 7.72993C11.2171 8.16317 8.16698 11.2115 7.73089 15.0431C7.69557 15.3537 7.67547 15.669 7.67547 15.989V16.011C7.67547 16.3272 7.69485 16.6388 7.72946 16.946C8.16103 20.7828 11.2134 23.8365 15.0496 24.2701C15.3582 24.3049 15.6714 24.3247 15.9891 24.3247H16.0111C16.3295 24.3247 16.6433 24.3049 16.9525 24.2698C20.7878 23.8354 23.8393 20.7822 24.2708 16.946H24.2709ZM15.9894 22.8976C15.6705 22.8976 15.3573 22.874 15.0499 22.8318C12.0016 22.4139 9.58382 19.9949 9.16795 16.946C9.12621 16.64 9.10278 16.3283 9.10278 16.011V15.989C9.10278 15.668 9.12668 15.3525 9.16937 15.0431C9.58953 11.9994 12.0052 9.58549 15.0499 9.16819C15.3573 9.12609 15.6705 9.10242 15.9894 9.10242H16.0114C16.3308 9.10242 16.6447 9.12609 16.9527 9.16842C19.9966 9.58656 22.4113 12 22.8313 15.0431C22.874 15.3525 22.8979 15.6679 22.8979 15.989V16.011C22.8979 16.3283 22.8745 16.64 22.8328 16.946C22.417 19.9943 20.0001 22.413 16.9527 22.8316C16.6447 22.8739 16.3309 22.8976 16.0114 22.8976H15.9894Z" fill="black"/>
</svg>
