<svg width="32" height="32" viewBox="0 0 32 32" fill="none" xmlns="http://www.w3.org/2000/svg">
<path d="M3.87466 16.9301H2C2.46013 23.9262 8.07021 29.5378 15.0658 30V28.1255C9.10214 27.6701 4.32778 22.8944 3.87466 16.9301Z" fill="black"/>
<path d="M28.1252 15.0592H30C29.5348 8.06869 23.9278 2.46305 16.9367 2V3.87466C22.896 4.33059 27.6672 9.1005 28.1252 15.0592Z" fill="black"/>
<path d="M15.0658 3.87455V2C8.07383 2.462 2.46586 8.0681 2.0007 15.0592H3.87548C4.33363 9.09992 9.10576 4.32965 15.0658 3.87455Z" fill="black"/>
<path d="M28.126 16.9301C27.6729 22.8936 22.8995 27.6691 16.9366 28.1252V29.9999C23.9313 29.5367 29.5405 23.9256 30.0006 16.9301H28.126Z" fill="black"/>
<path d="M20.0262 13.1936H17.8796L15.322 17.7405L14.5169 16.9355H11.871L14.6774 19.7418H16.3428L20.0262 13.1936Z" fill="black"/>
<path d="M24.3683 16.9301C24.4013 16.628 24.4195 16.3216 24.4195 16.0108V15.9891C24.4195 15.6747 24.4007 15.3647 24.3669 15.059C23.936 11.163 20.8334 8.06156 16.9367 7.63276C16.6326 7.59932 16.324 7.58073 16.0111 7.58073H15.9895C15.6771 7.58073 15.3693 7.59921 15.0657 7.63253C11.1681 8.0605 8.0646 11.1624 7.6337 15.059C7.59991 15.3646 7.58108 15.6747 7.58108 15.9891V16.0108C7.58108 16.3214 7.59932 16.6279 7.6323 16.9301C8.05863 20.8319 11.1645 23.9389 15.0657 24.3674C15.3693 24.4007 15.6771 24.4192 15.9895 24.4192H16.0111C16.324 24.4192 16.6326 24.4006 16.9367 24.3671C20.837 23.938 23.9419 20.8312 24.3683 16.9301ZM15.9896 22.5482C15.676 22.5482 15.3679 22.5246 15.0658 22.4817C12.1976 22.0741 9.92371 19.7989 9.51807 16.9301C9.47562 16.6296 9.45212 16.3228 9.45212 16.0108V15.9891C9.45212 15.6733 9.47586 15.3631 9.51935 15.059C9.9292 12.1952 12.2011 9.92523 15.0657 9.51819C15.3677 9.47527 15.6759 9.45165 15.9895 9.45165H16.0111C16.3254 9.45165 16.6341 9.47527 16.9367 9.51842C18.3464 9.71919 19.612 10.3707 20.5834 11.3226C20.6152 11.3537 20.6466 11.3851 20.6777 11.4168C21.6286 12.3871 22.2799 13.6512 22.4813 15.059C22.5248 15.3631 22.5486 15.6733 22.5486 15.9891V16.0108C22.5486 16.3228 22.5252 16.6294 22.4826 16.9301C22.077 19.7983 19.8041 22.0732 16.9366 22.4815C16.6341 22.5245 16.3253 22.5482 16.011 22.5482H15.9894H15.9896Z" fill="black"/>
</svg>
