<svg width="32" height="32" viewBox="0 0 32 32" fill="none" xmlns="http://www.w3.org/2000/svg">
<path d="M16.1322 2.25H15.8696L2 10.0445V11.75H30V10.1084L16.1322 2.25ZM15.9995 3.32413L29.104 10.75H2.78575L15.9995 3.32413Z" fill="black"/>
<path d="M2.5 29.75H29.5V24.75H2.5V29.75ZM3.5 25.75H28.5V28.75H3.5V25.75Z" fill="black"/>
<path d="M13.5 14.75V21.9688H18.5V14.75H13.5ZM17.5 20.9688H14.5V15.75H17.5V20.9688Z" fill="black"/>
<path d="M5.5 14.75V21.9688H10.5V14.75H5.5ZM9.5 20.9688H6.5V15.75H9.5V20.9688Z" fill="black"/>
<path d="M21.5 14.75V21.9688H26.5V14.75H21.5ZM25.5 20.9688H22.5V15.75H25.5V20.9688Z" fill="black"/>
</svg>
