<svg width="32" height="32" viewBox="0 0 32 32" fill="none" xmlns="http://www.w3.org/2000/svg">
<path d="M17.1465 2H14.849L2 9.221V12H30V9.28362L17.1465 2ZM15.9984 3.64825L27.2074 10H4.69613L15.9984 3.64825Z" fill="black"/>
<path d="M2 30H30V24H2V30ZM4 26H28V28H4V26Z" fill="black"/>
<path d="M13 14V22.2188H19V14H13ZM17 20.2188H15V16H17V20.2188Z" fill="black"/>
<path d="M5 14V22.2188H11V14H5ZM9 20.2188H7V16H9V20.2188Z" fill="black"/>
<path d="M21 14V22.2188H27V14H21ZM25 20.2188H23V16H25V20.2188Z" fill="black"/>
</svg>
