<svg width="32" height="32" viewBox="0 0 32 32" fill="none" xmlns="http://www.w3.org/2000/svg">
<path d="M15.9998 2C14.4698 2 13.225 3.24473 13.225 4.77476C13.225 6.30479 14.4698 7.54952 15.9998 7.54952C17.5298 7.54952 18.7745 6.30479 18.7745 4.77476C18.7745 3.24473 17.5298 2 15.9998 2ZM15.9998 6.03602C15.3043 6.03602 14.7385 5.47022 14.7385 4.77476C14.7385 4.07931 15.3043 3.51351 15.9998 3.51351C16.6952 3.51351 17.261 4.07931 17.261 4.77476C17.261 5.47022 16.6952 6.03602 15.9998 6.03602Z" fill="black"/>
<path d="M16.7565 9.81978H15.243V29.9999H16.7565V9.81978Z" fill="black"/>
<path d="M7.6755 16.8828C7.6755 15.3528 6.43077 14.1081 4.90074 14.1081C3.37071 14.1081 2.12598 15.3528 2.12598 16.8828C2.12598 18.4128 3.37071 19.6576 4.90074 19.6576C5.39137 19.6576 5.85223 19.5291 6.25255 19.3048L7.171 20.2234V30H8.6845V19.5965L7.32273 18.2348C7.54698 17.8344 7.6755 17.3736 7.6755 16.8829V16.8828ZM4.90074 18.1441C4.20528 18.1441 3.63948 17.5783 3.63948 16.8828C3.63948 16.1874 4.20528 15.6216 4.90074 15.6216C5.59619 15.6216 6.16199 16.1874 6.16199 16.8828C6.16199 17.5783 5.59619 18.1441 4.90074 18.1441Z" fill="black"/>
<path d="M11.7115 10.8288C11.7115 9.29876 10.4668 8.05403 8.93676 8.05403C7.40673 8.05403 6.16199 9.29876 6.16199 10.8288C6.16199 12.3588 7.40673 13.6036 8.93676 13.6036C9.29281 13.6036 9.63297 13.5354 9.94601 13.4127L11.207 14.6737V29.9999H12.7205V14.0469L11.1603 12.4868C11.5063 12.024 11.7115 11.4498 11.7115 10.8288ZM8.93676 12.09C8.2413 12.09 7.6755 11.5242 7.6755 10.8288C7.6755 10.1333 8.2413 9.56753 8.93676 9.56753C9.63221 9.56753 10.198 10.1333 10.198 10.8288C10.198 11.5242 9.63221 12.09 8.93676 12.09Z" fill="black"/>
<path d="M25.8376 10.8288C25.8376 9.29876 24.5928 8.05403 23.0628 8.05403C21.5328 8.05403 20.2881 9.29876 20.2881 10.8288C20.2881 11.4498 20.4931 12.0238 20.8392 12.4867L19.2791 14.0468V29.9997H20.7926V14.6736L22.0536 13.4126C22.3666 13.5353 22.7068 13.6034 23.0628 13.6034C24.5928 13.6034 25.8376 12.3588 25.8376 10.8288ZM23.0628 12.09C22.3674 12.09 21.8016 11.5242 21.8016 10.8288C21.8016 10.1333 22.3674 9.56753 23.0628 9.56753C23.7583 9.56753 24.3241 10.1333 24.3241 10.8288C24.3241 11.5242 23.7583 12.09 23.0628 12.09Z" fill="black"/>
<path d="M27.0988 14.1081C25.5688 14.1081 24.3241 15.3528 24.3241 16.8828C24.3241 17.3734 24.4526 17.8343 24.6768 18.2346L23.3151 19.5964V29.9999H24.8286V20.2233L25.747 19.3047C26.1473 19.5289 26.6082 19.6575 27.0988 19.6575C28.6289 19.6575 29.8736 18.4127 29.8736 16.8827C29.8736 15.3527 28.6289 14.1081 27.0988 14.1081ZM27.0988 18.1441C26.4034 18.1441 25.8376 17.5783 25.8376 16.8828C25.8376 16.1874 26.4034 15.6216 27.0988 15.6216C27.7943 15.6216 28.3601 16.1874 28.3601 16.8828C28.3601 17.5783 27.7943 18.1441 27.0988 18.1441Z" fill="black"/>
</svg>
