<svg width="32" height="32" viewBox="0 0 32 32" fill="none" xmlns="http://www.w3.org/2000/svg">
<path d="M16 28.1333C9.30963 28.1333 3.86667 22.6904 3.86667 16C3.86667 15.0366 3.98018 14.0993 4.19333 13.2H2.28152C2.09707 14.105 2 15.0414 2 16C2 23.7196 8.2804 30 16 30C20.3577 30 24.2564 27.9985 26.8261 24.8667H24.2731C22.1041 26.8918 19.1946 28.1333 16 28.1333Z" fill="black"/>
<path d="M16 3.86667C22.6904 3.86667 28.1333 9.30963 28.1333 16C28.1333 16.9634 28.0198 17.9007 27.8067 18.8H29.7185C29.9029 17.895 30 16.9586 30 16C30 8.2804 23.7196 2 16 2C11.6423 2 7.74362 4.00153 5.17392 7.13333H7.72693C9.89588 5.10823 12.8054 3.86667 16 3.86667Z" fill="black"/>
<path d="M8.06667 11.3333V9.46667H4.33333V5.73333H2.46667V11.3333H8.06667Z" fill="black"/>
<path d="M23.9333 20.6667V22.5333H27.6667V26.2667H29.5333V20.6667H23.9333Z" fill="black"/>
</svg>
