<svg width="32" height="32" viewBox="0 0 32 32" fill="none" xmlns="http://www.w3.org/2000/svg">
<path d="M26.8889 23.7778C26.2179 23.7778 25.5966 23.9919 25.0878 24.3545L21.8502 21.1169C23.0489 19.7481 23.7778 17.9581 23.7778 16C23.7778 14.0419 23.0489 12.2519 21.8502 10.8831L25.0878 7.6455C25.5966 8.00807 26.2181 8.22222 26.8889 8.22222C28.6043 8.22222 30 6.82663 30 5.11111C30 3.39559 28.6043 2 26.8889 2C25.1735 2 23.7778 3.39559 23.7778 5.11111C23.7778 5.78207 23.9919 6.40352 24.3545 6.91219L21.1169 10.1498C19.7481 8.95113 17.9581 8.22222 16 8.22222C14.0419 8.22222 12.2519 8.95113 10.8831 10.1498L7.6455 6.91219C8.00807 6.40352 8.22222 5.78207 8.22222 5.11111C8.22222 3.39559 6.8265 2 5.11111 2C3.39572 2 2 3.39559 2 5.11111C2 6.82663 3.39572 8.22222 5.11111 8.22222C5.78207 8.22222 6.40339 8.00807 6.91219 7.6455L10.1498 10.8831C8.95113 12.2519 8.22222 14.0419 8.22222 16C8.22222 17.9581 8.95113 19.7481 10.1498 21.1169L6.91219 24.3545C6.40339 23.9919 5.78194 23.7778 5.11111 23.7778C3.39572 23.7778 2 25.1734 2 26.8889C2 28.6044 3.39572 30 5.11111 30C6.8265 30 8.22222 28.6044 8.22222 26.8889C8.22222 26.2179 8.00807 25.5965 7.6455 25.0878L10.8831 21.8502C12.2519 23.0489 14.0419 23.7778 16 23.7778C17.9581 23.7778 19.7481 23.0489 21.1169 21.8502L24.3545 25.0878C23.9919 25.5965 23.7778 26.2179 23.7778 26.8889C23.7778 28.6044 25.1735 30 26.8889 30C28.6043 30 30 28.6044 30 26.8889C30 25.1734 28.6043 23.7778 26.8889 23.7778ZM26.8889 3.03704C28.0325 3.03704 28.963 3.96752 28.963 5.11111C28.963 6.2547 28.0325 7.18518 26.8889 7.18518C25.7453 7.18518 24.8148 6.2547 24.8148 5.11111C24.8148 3.96752 25.7453 3.03704 26.8889 3.03704ZM5.11111 7.18518C3.96752 7.18518 3.03704 6.2547 3.03704 5.11111C3.03704 3.96752 3.96752 3.03704 5.11111 3.03704C6.2547 3.03704 7.18518 3.96752 7.18518 5.11111C7.18518 6.2547 6.2547 7.18518 5.11111 7.18518ZM5.11111 28.963C3.96752 28.963 3.03704 28.0325 3.03704 26.8889C3.03704 25.7453 3.96752 24.8148 5.11111 24.8148C6.2547 24.8148 7.18518 25.7453 7.18518 26.8889C7.18518 28.0325 6.2547 28.963 5.11111 28.963ZM16 22.7407C12.2831 22.7407 9.25926 19.7169 9.25926 16C9.25926 12.2831 12.2831 9.25926 16 9.25926C19.7169 9.25926 22.7407 12.2831 22.7407 16C22.7407 19.7169 19.7169 22.7407 16 22.7407ZM26.8889 28.963C25.7453 28.963 24.8148 28.0325 24.8148 26.8889C24.8148 25.7453 25.7453 24.8148 26.8889 24.8148C28.0325 24.8148 28.963 25.7453 28.963 26.8889C28.963 28.0325 28.0325 28.963 26.8889 28.963Z" fill="black"/>
<path d="M13.4074 12.8838H12.3704V19.1111H13.4074V12.8838Z" fill="black"/>
<path d="M16.5185 14.9579H15.4815V19.1111H16.5185V14.9579Z" fill="black"/>
<path d="M19.6296 17.032H18.5926V19.1111H19.6296V17.032Z" fill="black"/>
</svg>
