<svg width="32" height="32" viewBox="0 0 32 32" fill="none" xmlns="http://www.w3.org/2000/svg">
<path d="M26.5 22.9998C25.898 22.9998 25.3311 23.1526 24.8359 23.4214L22.3159 20.9014C23.37 19.5462 24.0001 17.8458 24.0001 15.9999C24.0001 14.154 23.37 12.4535 22.3159 11.0984L24.8359 8.57837C25.3311 8.84713 25.898 9 26.5 9C28.4299 9 30 7.42987 30 5.5C30 3.57012 28.4299 2 26.5 2C24.5701 2 23 3.57012 23 5.5C23 6.102 23.1529 6.66887 23.4216 7.16412L20.9015 9.68425C19.5464 8.63013 17.8459 8 16 8C14.1541 8 12.4536 8.63013 11.0985 9.68425L8.57837 7.16412C8.84713 6.66887 9 6.102 9 5.5C9 3.57012 7.42987 2 5.5 2C3.57012 2 2 3.57012 2 5.5C2 7.42987 3.57012 9 5.5 9C6.102 9 6.66887 8.84713 7.16412 8.57837L9.68412 11.0984C8.63 12.4535 7.99988 14.154 7.99988 15.9999C7.99988 17.8458 8.63 19.5462 9.68412 20.9014L7.16412 23.4214C6.66887 23.1526 6.102 22.9998 5.5 22.9998C3.57012 22.9998 2 24.5699 2 26.4998C2 28.4296 3.57012 29.9998 5.5 29.9998C7.42987 29.9998 9 28.4296 9 26.4998C9 25.8978 8.84713 25.3309 8.57837 24.8356L11.0985 22.3155C12.4536 23.3696 14.1541 23.9998 16 23.9998C17.8459 23.9998 19.5464 23.3696 20.9015 22.3155L23.4216 24.8356C23.1529 25.3309 23 25.8978 23 26.4998C23 28.4296 24.5701 29.9998 26.5 29.9998C28.4299 29.9998 30 28.4296 30 26.4998C30 24.5699 28.4299 22.9998 26.5 22.9998ZM26.5 3.99975C27.3271 3.99975 28 4.67262 28 5.49975C28 6.32687 27.3271 6.99975 26.5 6.99975C25.6729 6.99975 25 6.32687 25 5.49975C25 4.67262 25.6729 3.99975 26.5 3.99975ZM5.5 6.99975C4.67287 6.99975 4 6.32687 4 5.49975C4 4.67262 4.67287 3.99975 5.5 3.99975C6.32713 3.99975 7 4.67262 7 5.49975C7 6.32687 6.32713 6.99975 5.5 6.99975ZM5.5 27.9998C4.67287 27.9998 4 27.3269 4 26.4998C4 25.6726 4.67287 24.9998 5.5 24.9998C6.32713 24.9998 7 25.6726 7 26.4998C7 27.3269 6.32713 27.9998 5.5 27.9998ZM16 21.9998C12.6915 21.9998 10 19.3081 10 15.9998C10 12.6914 12.6915 9.99975 16 9.99975C19.3085 9.99975 22 12.6914 22 15.9998C22 19.3081 19.3085 21.9998 16 21.9998ZM26.5 27.9998C25.6729 27.9998 25 27.3269 25 26.4998C25 25.6726 25.6729 24.9998 26.5 24.9998C27.3271 24.9998 28 25.6726 28 26.4998C28 27.3269 27.3271 27.9998 26.5 27.9998Z" fill="black"/>
<path d="M14 12.9949H12V18.9998H14V12.9949Z" fill="black"/>
<path d="M17 14.9949H15V18.9998H17V14.9949Z" fill="black"/>
<path d="M20 16.9949H18V18.9998H20V16.9949Z" fill="black"/>
</svg>
