<svg width="32" height="32" viewBox="0 0 32 32" fill="none" xmlns="http://www.w3.org/2000/svg">
<path d="M22.2382 22.2087H20.1723L27.9636 30H30.0295L22.2382 22.2087Z" fill="black"/>
<path d="M20.7716 18.8C22.1117 17.0405 22.9096 14.8469 22.9096 12.4696C22.9096 6.6967 18.213 2 12.44 2C6.66703 2 1.97046 6.6967 1.97046 12.4696C1.97046 18.2424 6.66703 22.9391 12.44 22.9391C14.2065 22.9391 15.8712 22.4976 17.3324 21.7219C18.6799 21.0064 19.8533 20.0057 20.7716 18.8ZM12.44 3.46087C17.4075 3.46087 21.4487 7.50212 21.4487 12.4696C21.4487 17.437 17.4075 21.4783 12.44 21.4783C7.47258 21.4783 3.43133 17.437 3.43133 12.4696C3.43133 7.50212 7.47258 3.46087 12.44 3.46087Z" fill="black"/>
<path d="M9.30147 7.6H7.8406V16.3652H9.30147V7.6Z" fill="black"/>
<path d="M13.1705 9.55196H11.7096V16.3652H13.1705V9.55196Z" fill="black"/>
<path d="M17.0661 11.4998H15.6052V16.3652H17.0661V11.4998Z" fill="black"/>
</svg>
