<svg width="32" height="32" viewBox="0 0 32 32" fill="none" xmlns="http://www.w3.org/2000/svg">
<path d="M22.4759 22.2759H19.7449L27.4691 30H30.2L22.4759 22.2759Z" fill="black"/>
<path d="M20.9832 18.8966C22.2763 17.137 23.0414 14.9667 23.0414 12.6207C23.0414 6.76447 18.277 2 12.4207 2C6.56452 2 1.80005 6.76447 1.80005 12.6207C1.80005 18.4769 6.56452 23.2414 12.4207 23.2414C14.167 23.2414 15.8162 22.8175 17.2709 22.0676C18.7403 21.3101 20.0109 20.2194 20.9832 18.8966ZM12.4207 3.93103C17.2122 3.93103 21.1104 7.82919 21.1104 12.6207C21.1104 17.4122 17.2122 21.3103 12.4207 21.3103C7.62924 21.3103 3.73108 17.4122 3.73108 12.6207C3.73108 7.82919 7.62924 3.93103 12.4207 3.93103Z" fill="black"/>
<path d="M9.55062 7.7931H7.61958V16.4828H9.55062V7.7931Z" fill="black"/>
<path d="M13.3863 9.72824H11.4552V16.4828H13.3863V9.72824Z" fill="black"/>
<path d="M17.2483 11.6593H15.3173V16.4828H17.2483V11.6593Z" fill="black"/>
</svg>
