<svg width="32" height="32" viewBox="0 0 32 32" fill="none" xmlns="http://www.w3.org/2000/svg">
<path d="M21.9964 22.1404H20.607L28.4666 30H29.8561L21.9964 22.1404Z" fill="black"/>
<path d="M20.5521 18.7018C21.9424 16.9438 22.7754 14.7259 22.7754 12.3158C22.7754 6.62761 18.1476 2 12.4596 2C6.77154 2 2.1438 6.62761 2.1438 12.3158C2.1438 18.004 6.77154 22.6316 12.4596 22.6316C14.2463 22.6316 15.928 22.1745 17.3948 21.3719C18.6192 20.702 19.6918 19.7896 20.5521 18.7018ZM12.4596 2.98246C17.6059 2.98246 21.7929 7.16932 21.7929 12.3158C21.7929 17.4623 17.6059 21.6491 12.4596 21.6491C7.31324 21.6491 3.12625 17.4623 3.12625 12.3158C3.12625 7.16932 7.31324 2.98246 12.4596 2.98246Z" fill="black"/>
<path d="M9.04789 7.40351H8.06543V16.2456H9.04789V7.40351Z" fill="black"/>
<path d="M12.9508 9.3726H11.9684V16.2456H12.9508V9.3726Z" fill="black"/>
<path d="M16.8806 11.3375H15.8982V16.2456H16.8806V11.3375Z" fill="black"/>
</svg>
