<svg width="32" height="32" viewBox="0 0 32 32" fill="none" xmlns="http://www.w3.org/2000/svg">
<path d="M18.3824 4.8C18.3824 3.25603 17.1264 2 15.5824 2C14.0385 2 12.7824 3.25603 12.7824 4.8C12.7824 6.34397 14.0385 7.6 15.5824 7.6C17.1264 7.6 18.3824 6.34397 18.3824 4.8ZM14.6491 4.8C14.6491 4.28538 15.0678 3.86667 15.5824 3.86667C16.097 3.86667 16.5158 4.28538 16.5158 4.8C16.5158 5.31462 16.097 5.73333 15.5824 5.73333C15.0678 5.73333 14.6491 5.31462 14.6491 4.8Z" fill="black"/>
<path d="M11.0336 27.4605L11.0103 27.5142C10.8608 27.8907 10.5035 28.1331 10.0992 28.1331H10.0714C9.73789 28.1315 9.44121 27.9709 9.25735 27.6926C9.0764 27.4184 9.04349 27.0885 9.16658 26.7849L11.5887 21.6085L10.6067 19.3026L7.46709 26.0124L7.45251 26.0451C7.08151 26.9242 7.17379 27.9245 7.69949 28.7209C8.22519 29.5172 9.10871 29.9952 10.0625 29.9995H10.0858C10.0902 29.9995 10.0945 29.9995 10.099 29.9995C11.263 29.9995 12.2925 29.3082 12.7332 28.2323L13.614 26.3641L12.6346 24.0644L11.0335 27.4602L11.0336 27.4605Z" fill="black"/>
<path d="M5.93678 13.9667C5.42111 14.5228 5.16328 15.2459 5.21064 16.0028C5.25813 16.7597 5.60428 17.4449 6.18528 17.9324C7.31624 18.8808 8.98108 18.7692 9.97508 17.6778L11.8617 15.6062V18.0656L16.5552 28.3135C17.0249 29.3392 18.0551 30.0001 19.1826 30H19.1955C20.1668 29.9956 21.0649 29.5082 21.5981 28.6962C22.1312 27.8844 22.2213 26.8663 21.8393 25.9734L18.396 17.927V15.2236L20.368 16.9288H23.9949C25.5389 16.9288 26.7949 15.6726 26.7949 14.1288C26.7949 12.5849 25.5389 11.3288 23.9949 11.3288H22.4721L19.1927 8.53333H10.9749L5.93678 13.9667ZM11.8618 10.4H18.5053L21.7847 13.1954H23.9951C24.5098 13.1954 24.9285 13.6142 24.9285 14.1288C24.9285 14.6434 24.5098 15.0621 23.9951 15.0621H21.0633L17.8304 12.2667H16.5295V18.3095L20.1233 26.7077C20.2606 27.0286 20.2295 27.38 20.0379 27.6718C19.8464 27.9635 19.5364 28.1318 19.1873 28.1333H19.1828C18.7836 28.1333 18.4188 27.8994 18.2526 27.5362L13.7286 17.6584V12.2666H12.3788L8.59514 16.4208C8.27769 16.7694 7.74616 16.805 7.38496 16.502C7.19946 16.3464 7.08886 16.1276 7.07381 15.8859C7.05864 15.6442 7.14101 15.4133 7.30563 15.2357L11.7898 10.3998H11.8619L11.8618 10.4Z" fill="black"/>
</svg>
