<svg width="32" height="32" viewBox="0 0 32 32" fill="none" xmlns="http://www.w3.org/2000/svg">
<path d="M18.1853 4.61016C18.1853 3.17089 17.0144 2 15.5751 2C14.1358 2 12.9649 3.17089 12.9649 4.61016C12.9649 6.04942 14.1358 7.22032 15.5751 7.22032C17.0144 7.22032 18.1853 6.04942 18.1853 4.61016ZM14.3887 4.61016C14.3887 3.95596 14.9209 3.42372 15.5751 3.42372C16.2293 3.42372 16.7615 3.95596 16.7615 4.61016C16.7615 5.26436 16.2293 5.79659 15.5751 5.79659C14.9209 5.79659 14.3887 5.26436 14.3887 4.61016Z" fill="black"/>
<path d="M7.52621 26.3077C7.17977 27.1284 7.26602 28.0623 7.75673 28.8059C8.24744 29.5494 9.07237 29.9956 9.96302 29.9996H9.98664C9.99079 29.9996 9.9947 29.9996 9.99897 29.9996C11.0876 29.9996 12.0504 29.3517 12.4606 28.3442L13.4491 26.2475L12.7021 24.4934L11.1641 27.7557L11.1464 27.7967C10.9583 28.2705 10.5084 28.5758 9.99933 28.5758H9.97003C9.55015 28.5738 9.17654 28.3717 8.9453 28.0213C8.7162 27.6742 8.67574 27.2561 8.83354 26.8723L11.3892 21.4102L10.6402 19.6516L7.5376 26.2825L7.52656 26.3075L7.52621 26.3077Z" fill="black"/>
<path d="M5.94006 14.0936C5.46026 14.611 5.22037 15.2837 5.2645 15.988C5.30864 16.6922 5.63064 17.3298 6.1713 17.7833C7.22378 18.6657 8.77256 18.5618 9.69738 17.5465L12.0287 14.9867V18.0489L16.7803 28.4233C17.2194 29.3822 18.1824 30.0001 19.2364 30H19.2485C20.1565 29.9958 20.9962 29.5403 21.4946 28.7813C21.993 28.0223 22.0772 27.0707 21.72 26.2358L18.1993 18.0082V14.6915L20.5304 16.7072H24.1305C25.5698 16.7072 26.7406 15.5363 26.7406 14.097C26.7406 12.6578 25.5698 11.4869 24.1305 11.4869H22.4944L19.1594 8.64404H10.9932L5.94006 14.0936ZM18.6348 10.0678L21.9698 12.9106H24.1303C24.7845 12.9106 25.3167 13.4428 25.3167 14.097C25.3167 14.7512 24.7845 15.2835 24.1303 15.2835H21.0603L17.4982 12.2033H16.7753V18.3001L20.4109 26.7958C20.5823 27.1966 20.5435 27.6354 20.3042 27.9998C20.065 28.3641 19.6778 28.5743 19.2419 28.5762H19.2362C18.7378 28.5762 18.2822 28.2839 18.0744 27.8305L13.4522 17.7383V12.2033H12.6377L8.64454 16.5878C8.23581 17.0366 7.55124 17.0827 7.08604 16.6925C6.84709 16.4921 6.70472 16.2103 6.68526 15.899C6.6658 15.5877 6.77175 15.2903 6.98389 15.0616L11.6145 10.0678H18.6348Z" fill="black"/>
</svg>
