<svg width="32" height="32" viewBox="0 0 32 32" fill="none" xmlns="http://www.w3.org/2000/svg">
<path d="M15.568 6.82759C16.8984 6.82759 17.9807 5.74476 17.9807 4.41379C17.9807 3.08283 16.8984 2 15.568 2C14.2377 2 13.1553 3.08283 13.1553 4.41379C13.1553 5.74476 14.2377 6.82759 15.568 6.82759ZM15.568 2.96552C16.3663 2.96552 17.0156 3.61519 17.0156 4.41379C17.0156 5.2124 16.3663 5.86207 15.568 5.86207C14.7698 5.86207 14.1204 5.2124 14.1204 4.41379C14.1204 3.61519 14.7698 2.96552 15.568 2.96552Z" fill="black"/>
<path d="M11.3009 28.0615L11.2889 28.0892C11.0609 28.664 10.5155 29.0342 9.89832 29.0342H9.86756C9.35848 29.0318 8.90574 28.7867 8.62526 28.3618C8.34636 27.9392 8.2981 27.4297 8.49208 26.9627L11.1846 21.2056L10.6769 20.0129L7.61374 26.5624L7.60626 26.5793C7.2855 27.3396 7.36524 28.2049 7.81979 28.8936C8.27434 29.5825 9.03819 29.9959 9.86285 29.9996H9.88674C9.8906 29.9996 9.89422 29.9996 9.8982 29.9996C10.9084 29.9996 11.8016 29.3969 12.18 28.4601L13.2796 26.1268L12.7732 24.9372L11.3008 28.0612L11.3009 28.0615Z" fill="black"/>
<path d="M24.2669 11.6505H22.5145L19.1236 8.75862H11.0145L5.94826 14.2249C5.50589 14.7022 5.28453 15.3231 5.32518 15.9727C5.36584 16.6224 5.66284 17.2108 6.16142 17.6291C7.13193 18.4435 8.56036 18.3475 9.41337 17.4106L12.2034 14.3457V18.0316L17.0127 28.5371C17.42 29.4268 18.3132 30.0001 19.2908 30H19.3019C20.1441 29.9961 20.9229 29.5735 21.385 28.8691C21.8473 28.1649 21.9253 27.2819 21.5941 26.5072L17.9948 18.0924V14.1413L20.6962 16.4781H24.2669C25.5972 16.4781 26.6795 15.3952 26.6795 14.0643C26.6795 12.7333 25.5972 11.6505 24.2669 11.6505ZM24.2669 15.5125H21.0556L17.1545 12.1379H17.0296V18.2903L20.7067 26.8872C20.9135 27.3705 20.8667 27.8999 20.5782 28.3393C20.2898 28.7789 19.823 29.0322 19.2976 29.0346C18.699 29.0394 18.1415 28.6842 17.8901 28.1352L13.1684 17.8211V12.1381H12.9078L8.69957 16.7607C8.19653 17.3135 7.3539 17.3699 6.78148 16.8896C6.48738 16.6428 6.31222 16.2958 6.28821 15.9125C6.2642 15.5292 6.39473 15.1631 6.65566 14.8816L11.4356 9.72438H18.7677L22.1586 12.6162H24.2666C25.0649 12.6162 25.7142 13.2659 25.7142 14.0645C25.7142 14.8631 25.0649 15.5128 24.2666 15.5128L24.2669 15.5125Z" fill="black"/>
</svg>
