<svg width="32" height="32" viewBox="0 0 32 32" fill="none" xmlns="http://www.w3.org/2000/svg">
<path d="M15.9997 15.5172C12.273 15.5172 9.24104 12.4854 9.24104 8.75862C9.24104 5.03184 12.273 2 15.9997 2C19.7263 2 22.7583 5.03184 22.7583 8.75862C22.7583 12.4854 19.7263 15.5172 15.9997 15.5172ZM15.9997 3.93103C13.3377 3.93103 11.1721 6.09669 11.1721 8.75862C11.1721 11.4206 13.3377 13.5862 15.9997 13.5862C18.6616 13.5862 20.8272 11.4206 20.8272 8.75862C20.8272 6.09669 18.6616 3.93103 15.9997 3.93103Z" fill="black"/>
<path d="M29.5169 26.1379H27.5859V22.2759C27.5859 20.6788 26.2864 19.3793 24.6893 19.3793H7.31001C5.71292 19.3793 4.41346 20.6788 4.41346 22.2759V26.1379H2.48242V22.2759C2.48242 19.6139 4.64808 17.4483 7.31001 17.4483H24.6893C27.3512 17.4483 29.5169 19.6139 29.5169 22.2759V26.1379Z" fill="black"/>
<path d="M29.5179 28.069H2.48339V30H29.5179V28.069Z" fill="black"/>
</svg>
