<svg width="32" height="32" viewBox="0 0 32 32" fill="none" xmlns="http://www.w3.org/2000/svg">
<path d="M15.999 15C12.4149 15 9.499 12.0841 9.499 8.5C9.499 4.91587 12.4149 2 15.999 2C19.5831 2 22.499 4.91587 22.499 8.5C22.499 12.0841 19.5831 15 15.999 15ZM15.999 3C12.9663 3 10.499 5.46725 10.499 8.5C10.499 11.5328 12.9663 14 15.999 14C19.0317 14 21.499 11.5328 21.499 8.5C21.499 5.46725 19.0317 3 15.999 3Z" fill="black"/>
<path d="M29.499 26.5H28.499V22.5C28.499 20.5701 26.9289 19 24.999 19H6.999C5.06913 19 3.499 20.5701 3.499 22.5V26.5H2.499V22.5C2.499 20.0186 4.51763 18 6.999 18H24.999C27.4804 18 29.499 20.0186 29.499 22.5V26.5Z" fill="black"/>
<path d="M30 29H2V30H30V29Z" fill="black"/>
</svg>
