<svg width="32" height="32" viewBox="0 0 32 32" fill="none" xmlns="http://www.w3.org/2000/svg">
<path d="M8.13984 22.0787V20.8245C5.26554 22.9679 3.28982 26.2519 2.88812 30H3.87696C4.24403 26.8351 5.82443 24.0354 8.13984 22.0787Z" fill="black"/>
<path d="M28.1597 30H29.1486C28.7451 26.2356 26.7537 22.9396 23.8591 20.7968V22.0468C26.1952 24.0048 27.7907 26.8179 28.1597 30Z" fill="black"/>
<path d="M28.2808 11.3354C28.2808 12.2494 27.6528 13.0174 26.8065 13.236V14.2413C28.1988 14.0072 29.2633 12.7936 29.2633 11.3354C29.2633 9.87721 28.1988 8.66363 26.8065 8.42956V9.43486C27.6528 9.65346 28.2808 10.4215 28.2808 11.3354Z" fill="black"/>
<path d="M3.71878 11.3354C3.71878 10.4215 4.34682 9.65346 5.19308 9.43486V8.42956C3.80082 8.66363 2.73633 9.87721 2.73633 11.3354C2.73633 12.7936 3.80082 14.0072 5.19308 14.2413V13.236C4.3467 13.0174 3.71878 12.2494 3.71878 11.3354Z" fill="black"/>
<path d="M24.4622 7.40351C23.6913 5.75004 22.4507 4.35875 20.9118 3.40209C19.4839 2.51444 17.8009 2 15.9995 2C12.2566 2 9.02307 4.21568 7.53673 7.40351C6.97943 8.59879 6.66615 9.92989 6.66615 11.3333C6.66615 12.7368 6.97943 14.0679 7.53673 15.2632C7.71357 15.6425 7.91547 16.0075 8.13984 16.3571C9.80056 18.9461 12.7019 20.6667 15.9995 20.6667C19.2971 20.6667 22.1984 18.9461 23.8591 16.3571C24.0834 16.0075 24.2853 15.6425 24.4622 15.2632C25.0195 14.0679 25.3328 12.7368 25.3328 11.3333C25.3328 9.92989 25.0195 8.59879 24.4622 7.40351ZM23.082 15.7502C21.6048 18.1103 18.9832 19.6842 15.9996 19.6842C13.016 19.6842 10.3943 18.1103 8.91721 15.7502C8.11871 14.4745 7.65414 12.9696 7.64947 11.3578C7.64947 11.3495 7.64885 11.3414 7.64885 11.3332C7.64885 11.325 7.64947 11.3169 7.64947 11.3087C7.65991 7.70365 9.96635 4.62954 13.1805 3.47319C12.7907 4.03074 12.5611 4.70802 12.5611 5.43835C12.5611 7.33437 14.1037 8.87695 15.9997 8.87695C17.5545 8.87695 18.8707 7.8396 19.2945 6.42081H18.2493C17.8695 7.28721 17.0047 7.89449 15.9996 7.89449C14.6453 7.89449 13.5435 6.79267 13.5435 5.43835C13.5435 4.08404 14.6453 2.98221 15.9996 2.98221C17.8347 2.98221 19.5323 3.57856 20.9119 4.58582C22.9941 6.10593 24.3505 8.56354 24.3505 11.3331C24.3505 12.9541 23.8847 14.4677 23.082 15.75V15.7502Z" fill="black"/>
</svg>
