<svg width="32" height="32" viewBox="0 0 32 32" fill="none" xmlns="http://www.w3.org/2000/svg">
<path d="M5.07454 12.597C4.06984 11.5922 3.51664 10.2566 3.51664 8.83583C3.51664 7.41509 4.06997 6.07921 5.07467 5.07451C6.11166 4.03751 7.47376 3.51914 8.83586 3.51914C10.198 3.51914 11.5602 4.03764 12.5972 5.07451L19.0451 11.5224L20.1196 10.4479L13.6717 4.00003C11.0052 1.33332 6.66651 1.33332 3.99993 4.00003C1.33336 6.66648 1.33336 11.0052 3.99993 13.6716L10.4478 20.1195L11.5223 19.0451L5.07441 12.5972L5.07454 12.597Z" fill="black"/>
<path d="M28.0003 18.3286L21.5523 11.8807L20.4779 12.9552L26.9258 19.4031C28.9996 21.4771 28.9996 24.8516 26.9258 26.9256C24.8517 28.9996 21.4772 28.9995 19.4033 26.9256L12.9553 20.4777L11.8809 21.5522L18.3288 28.0001C19.6619 29.3333 21.4132 30 23.1647 30C24.9162 30 26.6673 29.3333 28.0005 28.0001C30.6671 25.3336 30.6671 20.9949 28.0005 18.3285L28.0003 18.3286Z" fill="black"/>
<path d="M19.0451 11.8807L11.8807 19.0448L12.9552 20.1194L20.1196 12.9553L19.0451 11.8807Z" fill="black"/>
</svg>
