<svg width="32" height="32" viewBox="0 0 32 32" fill="none" xmlns="http://www.w3.org/2000/svg">
<path d="M27.9631 18.1111L21.6297 11.7777L20.2222 13.1852L26.5555 19.5186C28.4958 21.4587 28.4958 24.6155 26.5555 26.5555C24.6153 28.4958 21.4585 28.4955 19.5186 26.5555L13.1852 20.2221L11.7777 21.6295L18.1112 27.963C19.4694 29.321 21.2533 30 23.0373 30C24.8213 30 26.605 29.321 27.9632 27.963C30.6794 25.2467 30.6794 20.8273 27.9632 18.111L27.9631 18.1111Z" fill="black"/>
<path d="M11.7777 18.8147L5.44432 12.4813C4.50436 11.5415 3.98686 10.2919 3.98686 8.96293C3.98686 7.63397 4.50448 6.38426 5.44444 5.44442C6.41451 4.47435 7.68873 3.98932 8.96283 3.98932C10.2369 3.98932 11.5113 4.47435 12.4813 5.44442L18.8146 11.7778L20.2221 10.3704L13.8887 4.03696C11.1725 1.32107 6.75325 1.32095 4.03662 4.03696C1.32048 6.75323 1.32048 11.1726 4.03662 13.8889L10.37 20.2223L11.7775 18.8149L11.7777 18.8147Z" fill="black"/>
<path d="M18.8149 11.7777L11.7777 18.8147L13.1852 20.2221L13.1853 20.2222L20.2224 13.1853L20.2225 13.1852L20.2224 13.1851L18.8149 11.7777Z" fill="black"/>
</svg>
