<svg width="32" height="32" viewBox="0 0 32 32" fill="none" xmlns="http://www.w3.org/2000/svg">
<path d="M24.1453 2H3.78167V3.01818H24.1453V2Z" fill="black"/>
<path d="M24.1453 19.3091V18.2909H8.66169L3.27258 23.68V3.52727H2.25439V24.9091H3.48347L9.08347 19.3091H24.1453Z" fill="black"/>
<path d="M25.6726 15.2364H28.218V14.2182H25.6726V3.52727H24.6544V17.7818H25.6726V15.2364Z" fill="black"/>
<path d="M15.4908 20.8364H14.4726V24.9091H15.4908V20.8364Z" fill="black"/>
<path d="M28.7271 15.7455V28.6451L25.9036 25.4182H15.9998V26.4364H25.4416L28.5598 30H29.7453V15.7455H28.7271Z" fill="black"/>
<path d="M15.4908 5.56364H14.4726V9.63636H15.4908V5.56364Z" fill="black"/>
<path d="M15.4908 11.6727H14.4726V15.7455H15.4908V11.6727Z" fill="black"/>
<path d="M20.0726 10.1455H15.9998V11.1636H20.0726V10.1455Z" fill="black"/>
<path d="M13.9635 10.1455H9.89076V11.1636H13.9635V10.1455Z" fill="black"/>
</svg>
