<svg width="32" height="32" viewBox="0 0 32 32" fill="none" xmlns="http://www.w3.org/2000/svg">
<path d="M30 15.473C30 14.5511 29.4057 13.7675 28.581 13.4793C28.8073 13.1428 28.9397 12.7381 28.9397 12.303C28.9397 11.7384 28.7199 11.2076 28.3207 10.8086C27.9216 10.4094 27.3909 10.1894 26.8264 10.1894H23.6594V9.97438L21.573 7.06498C21.0779 6.37465 20.2754 5.96265 19.4259 5.96265L16.6078 5.96318C15.9022 5.96318 15.2391 6.2382 14.7402 6.73699L11.2875 10.1894H8.33609V11.2462H11.7253L15.4872 7.48425C15.7867 7.18493 16.1845 7.02007 16.6078 7.01994L19.4256 7.01941C19.9353 7.01941 20.4169 7.26669 20.7138 7.68081L22.6024 10.3143V15.4734C22.6024 16.6245 21.4623 16.5266 21.4134 16.5201C20.8961 16.4517 20.4885 16.0089 20.4885 15.4734V10.6956H19.4317V13.6684L18.2724 14.8278C17.1746 15.9255 15.7151 16.5301 14.1626 16.5301H10.4483V17.5869H14.1626C15.9974 17.5869 17.7223 16.8724 19.0197 15.5751L19.4318 15.163V15.4735C19.4318 16.0381 19.6516 16.569 20.051 16.968C20.0807 16.9978 20.1125 17.0244 20.1437 17.0522C20.114 17.0787 20.0835 17.1041 20.0552 17.1322C19.6527 17.5334 19.431 18.0672 19.431 18.6355C19.431 19.8057 20.3833 20.7576 21.5534 20.7576H21.8156C21.6396 21.0701 21.5443 21.4236 21.5443 21.7922C21.5443 22.9575 22.4928 23.9056 23.6581 23.9056L25.7692 23.9053C26.9345 23.9053 27.8825 22.9571 27.8825 21.7918C27.8825 21.3733 27.7611 20.9736 27.5359 20.632C28.3524 20.3392 28.9393 19.5598 28.9393 18.6438C28.9393 18.2185 28.8143 17.8125 28.5821 17.4674C29.406 17.1787 29.9995 16.3953 29.9995 15.4733L30 15.473ZM23.6596 11.2462H26.8265C27.1088 11.2462 27.3741 11.3561 27.5735 11.5557C27.773 11.7553 27.883 12.0207 27.883 12.303C27.883 12.8856 27.4091 13.3597 26.8265 13.3597H23.6596V11.2462ZM23.7005 22.8485C23.1185 22.8485 22.6138 22.3965 22.6016 21.8146C22.5955 21.5238 22.706 21.2494 22.9108 21.0444C22.9325 21.0227 22.955 21.0021 22.9782 20.9826C23.1602 20.8293 23.3972 20.7573 23.6352 20.7572H25.7873C26.0559 20.7572 26.3214 20.851 26.5124 21.0398C26.5139 21.0412 26.5153 21.0427 26.5169 21.0441C26.7219 21.2491 26.8322 21.5235 26.8261 21.8144C26.8139 22.3961 26.3094 22.8481 25.7275 22.8483L23.7005 22.8485ZM21.5961 19.7006C21.0087 19.7006 20.4996 19.2437 20.4883 18.6564C20.4827 18.3631 20.5944 18.0868 20.8015 17.8804C20.8031 17.8788 20.8047 17.8774 20.8062 17.8758C21.0025 17.6825 21.2752 17.587 21.5508 17.587H26.8354C27.1144 17.5893 27.3763 17.6985 27.5738 17.8961C27.7788 18.1012 27.8891 18.3755 27.883 18.6664C27.8708 19.2481 27.3663 19.7002 26.7844 19.7003L21.5961 19.7006ZM27.8869 16.5304H26.8363C26.8335 16.5304 26.8306 16.53 26.8279 16.53L23.3806 16.5188C23.5573 16.2101 23.6598 15.8537 23.6598 15.4733V14.4168L27.887 14.4165C28.4695 14.4165 28.9435 14.8904 28.9435 15.4739C28.9435 16.0574 28.4694 16.5304 27.8869 16.5304Z" fill="black"/>
<path d="M9.92057 20.7571V20.2287H8.86381V20.7571C8.86381 22.6533 10.1379 23.9274 12.0341 23.9274H18.904V22.8706H12.0341C10.7304 22.8706 9.92057 22.0607 9.92057 20.7571Z" fill="black"/>
<path d="M2 24.9807V26.0374H5.69484V8.14156H2V9.19832H4.63808V24.9807H2Z" fill="black"/>
</svg>
