<svg width="32" height="32" viewBox="0 0 32 32" fill="none" xmlns="http://www.w3.org/2000/svg">
<path d="M28.7271 2V27.4545C28.7271 28.2967 28.042 28.9818 27.1999 28.9818H13.9635C13.1213 28.9818 12.4362 28.2967 12.4362 27.4545V24.9091H15.9998C19.0877 24.9091 21.5998 22.397 21.5998 19.3091V3.52727H15.9998V4.54545H20.5817V13.7091H3.78167V14.7273H20.5817V19.3091C20.5817 21.8356 18.5263 23.8909 15.9998 23.8909H7.85439C5.3279 23.8909 3.27258 21.8356 3.27258 19.3091V19.3041L2.25439 19.3091C2.25439 22.397 4.7665 24.9091 7.85439 24.9091H11.418V27.4545C11.418 28.8581 12.5599 30 13.9635 30H27.1999C28.6034 30 29.7453 28.8581 29.7453 27.4545V2H28.7271Z" fill="black"/>
<path d="M14.4726 2.50909H9.38167V6.57685H14.4726V2.50909ZM13.4544 5.55867H10.3998V3.52727H13.4544V5.55867Z" fill="black"/>
<path d="M3.27258 15.2364H2.25439V17.2727H3.27258V15.2364Z" fill="black"/>
<path d="M3.27258 11.1636H2.25439V13.2H3.27258V11.1636Z" fill="black"/>
<path d="M3.27258 4.54545H7.85439V3.52727H2.25439V9.12727H3.27258V4.54545Z" fill="black"/>
<path d="M7.85439 9.63636H3.78167V10.6545H7.85439V9.63636Z" fill="black"/>
<path d="M7.85439 17.7818H3.78167V18.8H7.85439V17.7818Z" fill="black"/>
</svg>
