<svg width="32" height="32" viewBox="0 0 32 32" fill="none" xmlns="http://www.w3.org/2000/svg">
<path d="M28.3602 2V27.2252C28.3602 27.9207 27.7944 28.4865 27.0989 28.4865H13.9818C13.2864 28.4865 12.7206 27.9207 12.7206 27.2252V24.955H15.9999C19.1989 24.955 21.8017 22.3522 21.8017 19.1532V3.26126H15.9999V4.77477H20.2881V13.3514H3.89174V14.8649H20.2881V19.1532C20.2881 21.5178 18.3645 23.4414 15.9999 23.4414H7.92778C5.56317 23.4414 3.63949 21.5178 3.63949 19.1532V19.1482L2.12598 19.1532C2.12598 22.3522 4.72872 24.955 7.92778 24.955H11.2071V27.2252C11.2071 28.7553 12.4518 30 13.9818 30H27.0989C28.629 30 29.8737 28.7553 29.8737 27.2252V2H28.3602Z" fill="black"/>
<path d="M14.7386 2.25225H9.18904V6.78787H14.7386V2.25225ZM13.2251 5.27436H10.7026V3.76577H13.2251V5.27436Z" fill="black"/>
<path d="M3.63949 15.1171H2.12598V17.1351H3.63949V15.1171Z" fill="black"/>
<path d="M3.63949 11.0811H2.12598V13.0991H3.63949V11.0811Z" fill="black"/>
<path d="M3.63949 4.77477H7.92778V3.26126H2.12598V9.06306H3.63949V4.77477Z" fill="black"/>
<path d="M7.92778 9.31532H3.89174V10.8288H7.92778V9.31532Z" fill="black"/>
<path d="M7.92778 17.3874H3.89174V18.9009H7.92778V17.3874Z" fill="black"/>
</svg>
