<svg width="32" height="32" viewBox="0 0 32 32" fill="none" xmlns="http://www.w3.org/2000/svg">
<path d="M25.3005 20.3284C25.747 20.7438 26.3434 21 26.9999 21C28.3784 21 29.4999 19.8785 29.4999 18.5C29.4999 17.1215 28.3784 16 26.9999 16C25.6214 16 24.4999 17.1215 24.4999 18.5C24.4999 18.8618 24.5787 19.205 24.7176 19.5158L21.6992 21.6718C21.2527 21.2564 20.6564 21.0001 19.9999 21.0001C18.6214 21.0001 17.4999 22.1216 17.4999 23.5001C17.4999 24.8786 18.6214 26.0001 19.9999 26.0001C20.747 26.0001 21.4169 25.669 21.8754 25.1478L24.6264 26.7198C24.5452 26.9656 24.4999 27.2275 24.4999 27.5001C24.4999 28.8786 25.6214 30.0001 26.9999 30.0001C28.3784 30.0001 29.4999 28.8786 29.4999 27.5001C29.4999 26.1216 28.3784 25.0001 26.9999 25.0001C26.2527 25.0001 25.5829 25.3313 25.1244 25.8525L22.3734 24.2805C22.4545 24.0346 22.4999 23.7728 22.4999 23.5001C22.4999 23.1384 22.421 22.7951 22.2821 22.4844L25.3005 20.3285V20.3284ZM26.9999 17C27.827 17 28.4999 17.6729 28.4999 18.5C28.4999 19.3271 27.827 20 26.9999 20C26.1727 20 25.4999 19.3271 25.4999 18.5C25.4999 17.6729 26.1727 17 26.9999 17ZM19.9999 25C19.1727 25 18.4999 24.3271 18.4999 23.5C18.4999 22.6729 19.1727 22 19.9999 22C20.827 22 21.4999 22.6729 21.4999 23.5C21.4999 24.3271 20.827 25 19.9999 25ZM26.9999 26C27.827 26 28.4999 26.6729 28.4999 27.5C28.4999 28.3271 27.827 29 26.9999 29C26.1727 29 25.4999 28.3271 25.4999 27.5C25.4999 26.6729 26.1727 26 26.9999 26Z" fill="black"/>
<path d="M29.4749 12.5C29.3589 11.3371 28.8422 10.2908 28.0661 9.5C27.264 8.68288 26.1847 8.13925 24.9817 8.02363C23.7519 4.51988 20.4126 2 16.494 2C14.1849 2 11.8949 2.89113 10.2109 4.44513C8.59037 5.94038 7.64487 7.89713 7.51537 10H7.5C4.743 10 2.5 12.243 2.5 15C2.5 17.757 4.743 20 7.5 20H16.0011V19H7.49987C5.29425 19 3.49988 17.2056 3.49988 15C3.49988 12.7944 5.29425 11 7.49987 11H8.49987V10.5C8.49987 8.491 9.34837 6.6015 10.889 5.18C12.3904 3.79463 14.4332 3 16.494 3C19.8567 3 22.7391 5.08813 23.9179 8.035C21.4342 8.32438 19.4999 10.44 19.4999 13V13.5H20.4999V13C20.4999 10.7944 22.2942 9 24.4999 9C26.7055 9 28.4999 10.7944 28.4999 13V13.5H29.4999V13C29.4999 12.8313 29.4912 12.6645 29.4749 12.5Z" fill="black"/>
</svg>
