<svg width="32" height="32" viewBox="0 0 32 32" fill="none" xmlns="http://www.w3.org/2000/svg">
<path d="M16 7.22034C14.7038 7.22034 13.4736 7.50497 12.3651 8.01134C11.8185 7.51992 11.0962 7.22034 10.3051 7.22034C8.6042 7.22034 7.22034 8.60408 7.22034 10.3051C7.22034 11.0962 7.51992 11.8185 8.01134 12.3651C7.50497 13.4736 7.22034 14.7038 7.22034 16C7.22034 20.8412 11.1588 24.7797 16 24.7797C17.2962 24.7797 18.5264 24.495 19.6349 23.9887C20.1815 24.4801 20.9038 24.7797 21.6949 24.7797C23.3958 24.7797 24.7797 23.3959 24.7797 21.6949C24.7797 20.9038 24.4801 20.1815 23.9887 19.6349C24.495 18.5264 24.7797 17.2962 24.7797 16C24.7797 11.1588 20.8412 7.22034 16 7.22034ZM10.3051 8.64407C11.221 8.64407 11.9661 9.38915 11.9661 10.3051C11.9661 11.221 11.221 11.9661 10.3051 11.9661C9.38915 11.9661 8.64407 11.221 8.64407 10.3051C8.64407 9.38915 9.38915 8.64407 10.3051 8.64407ZM18.6102 21.6949C18.6102 22.0825 18.6828 22.4534 18.8139 22.7953C17.9465 23.1559 16.9964 23.3559 16 23.3559C11.9439 23.3559 8.64407 20.0561 8.64407 16C8.64407 15.0037 8.8441 14.0535 9.20466 13.1861C9.54671 13.3172 9.91747 13.3898 10.3051 13.3898C12.006 13.3898 13.3898 12.0061 13.3898 10.3051C13.3898 9.91747 13.3172 9.54659 13.1861 9.20466C14.0535 8.8441 15.0036 8.64407 16 8.64407C20.0561 8.64407 23.3559 11.9439 23.3559 16C23.3559 16.9963 23.1559 17.9465 22.7953 18.8139C22.4533 18.6828 22.0825 18.6102 21.6949 18.6102C19.994 18.6102 18.6102 19.9939 18.6102 21.6949ZM21.6949 23.3559C20.779 23.3559 20.0339 22.6108 20.0339 21.6949C20.0339 20.779 20.779 20.0339 21.6949 20.0339C22.6108 20.0339 23.3559 20.779 23.3559 21.6949C23.3559 22.6108 22.6108 23.3559 21.6949 23.3559Z" fill="black"/>
<path d="M27.8283 8.51878C28.2939 7.97847 28.5763 7.27598 28.5763 6.50847C28.5763 4.80747 27.1924 3.42373 25.4915 3.42373C24.724 3.42373 24.0216 3.7061 23.4812 4.17166C21.3157 2.79717 18.7493 2 16 2C8.28042 2 2 8.28042 2 16C2 18.7493 2.79717 21.3157 4.17166 23.4812C3.7061 24.0215 3.42373 24.724 3.42373 25.4915C3.42373 27.1925 4.80759 28.5763 6.50847 28.5763C7.27598 28.5763 7.97836 28.2939 8.51878 27.8283C10.6843 29.2028 13.2507 30 16 30C23.7196 30 30 23.7196 30 16C30 13.2507 29.2028 10.6843 27.8283 8.51878ZM25.4915 4.84746C26.4075 4.84746 27.1525 5.59254 27.1525 6.50847C27.1525 7.42441 26.4075 8.16949 25.4915 8.16949C24.5756 8.16949 23.8305 7.42441 23.8305 6.50847C23.8305 5.59254 24.5756 4.84746 25.4915 4.84746ZM6.50847 27.1525C5.59254 27.1525 4.84746 26.4075 4.84746 25.4915C4.84746 24.5756 5.59254 23.8305 6.50847 23.8305C7.42441 23.8305 8.16949 24.5756 8.16949 25.4915C8.16949 26.4075 7.42441 27.1525 6.50847 27.1525ZM16 28.5763C13.5629 28.5763 11.2862 27.8788 9.35724 26.6739C9.50898 26.3096 9.59322 25.9102 9.59322 25.4915C9.59322 23.7905 8.20936 22.4068 6.50847 22.4068C6.08978 22.4068 5.69042 22.491 5.32607 22.6428C4.12124 20.7138 3.42373 18.437 3.42373 16C3.42373 9.06549 9.06537 3.42373 16 3.42373C18.4371 3.42373 20.7138 4.12124 22.6428 5.32607C22.491 5.69042 22.4068 6.08978 22.4068 6.50847C22.4068 8.20947 23.7906 9.59322 25.4915 9.59322C25.9102 9.59322 26.3096 9.50898 26.6739 9.35724C27.8788 11.2862 28.5763 13.5631 28.5763 16C28.5763 22.9345 22.9346 28.5763 16 28.5763Z" fill="black"/>
</svg>
