<svg width="32" height="32" viewBox="0 0 32 32" fill="none" xmlns="http://www.w3.org/2000/svg">
<path d="M15.5138 9.24141H14.5483V15.0345H15.5138V9.24141Z" fill="black"/>
<path d="M19.857 15.5152H15.998V16.4808H19.857V15.5152Z" fill="black"/>
<path d="M25.2557 26.504C28.2776 23.8424 30.0002 20.0441 30.0002 16.0001C30.0002 8.28035 23.7199 2 16.0002 2C8.28048 2 2 8.28035 2 16.0001H2.96552C2.96552 8.81272 8.81272 2.96552 16.0001 2.96552C23.1874 2.96552 29.0346 8.81272 29.0346 16.0001C29.0346 19.9309 27.2865 23.6126 24.2385 26.1007L23.8248 26.4384L26.4208 29.0346H19.3794V21.9932L21.8062 24.4201L22.1414 24.1678C24.7327 22.2167 26.2188 19.2396 26.2188 15.9999C26.2188 10.3652 21.6347 5.7811 15.9999 5.7811C10.3652 5.7811 5.7811 10.3652 5.7811 15.9999C5.7811 21.6347 10.3652 26.2188 15.9999 26.2188H16.0144V25.2533H15.9999C10.8976 25.2533 6.74662 21.1022 6.74662 15.9999C6.74662 10.8976 10.8976 6.74662 15.9999 6.74662C21.1022 6.74662 25.2533 10.8976 25.2533 15.9999C25.2533 18.7937 24.0325 21.372 21.8891 23.1377L19.5793 20.8275H18.4139V30H27.5863V28.8345L25.2557 26.504Z" fill="black"/>
</svg>
