<svg width="32" height="32" viewBox="0 0 32 32" fill="none" xmlns="http://www.w3.org/2000/svg">
<path d="M15.7593 9.35593H14.3355V15.0508H15.7593V9.35593Z" fill="black"/>
<path d="M19.7915 15.2861H15.998V16.7098H19.7915V15.2861Z" fill="black"/>
<path d="M25.4436 26.3352C28.3489 23.6832 30 19.9595 30 16C30 8.28042 23.7196 2 16 2C8.28042 2 2 8.28042 2 16H3.42373C3.42373 9.06549 9.06549 3.42373 16 3.42373C22.9345 3.42373 28.5763 9.06549 28.5763 16C28.5763 19.7928 26.8895 23.3449 23.9487 25.7457L23.3386 26.2437L25.6712 28.5763H19.5592V22.4643L21.6858 24.591L22.1799 24.2188C24.7874 22.2556 26.2828 19.2599 26.2828 16C26.2828 10.33 21.6699 5.71712 15.9999 5.71712C10.3299 5.71712 5.717 10.33 5.717 16C5.717 21.67 10.3299 26.2829 15.9999 26.2829H16.0141V24.8592H15.9999C11.1149 24.8592 7.14073 20.8849 7.14073 16C7.14073 11.1151 11.1149 7.14085 15.9999 7.14085C20.8848 7.14085 24.859 11.1151 24.859 16C24.859 18.6025 23.7528 21.0095 21.8029 22.6947L19.854 20.7458H18.1355V30H27.3897V28.2814L25.4435 26.3353L25.4436 26.3352Z" fill="black"/>
</svg>
