<svg width="32" height="32" viewBox="0 0 32 32" fill="none" xmlns="http://www.w3.org/2000/svg">
<path d="M17.4146 7L12.4184 2H9.59101L14.5874 7H17.4146Z" fill="black"/>
<path d="M28.9995 14.5858L24.5663 10.1525C24.0911 9.67738 23.5355 9.24325 22.9595 8.89675C21.9838 8.31013 20.8534 8 19.6908 8H17.9995V11C17.9995 13.757 15.7565 16 12.9995 16H10.3224L8.41551 20.7674C8.30601 21.041 8.08289 21.2515 7.80326 21.3446L4.05151 22.5955C2.82476 23.0046 2.00051 24.1484 2.00051 25.4415V30.0001H14.7566C15.8251 30.0001 16.8296 29.584 17.5853 28.8285L28.9994 17.4144V14.5859L28.9995 14.5858ZM16.1713 27.414C15.7934 27.7918 15.291 28 14.7568 28H4.00051V25.4414C4.00051 25.0104 4.27526 24.6291 4.68426 24.4926L8.43576 23.242C8.67426 23.1625 8.89839 23.0536 9.10564 22.921L10.9995 23.8679V21.6319L10.353 21.3086L10.691 20.4636L12.4995 21.3679V19.1319L11.4364 18.6004L11.6765 18H12.9994C16.8591 18 19.9994 14.8599 19.9994 11V10.0105C20.6886 10.0578 21.3501 10.263 21.9288 10.6108C22.3671 10.8744 22.7901 11.205 23.1519 11.5668L27.5851 16L16.1713 27.414Z" fill="black"/>
<path d="M30.0005 27.9951H19.9995V29.9951H30.0005V27.9951Z" fill="black"/>
<path d="M30.0005 24H24.0005V26H30.0005V24Z" fill="black"/>
<path d="M14.1711 25H4.99951V27H14.1711C14.9725 27 15.7259 26.688 16.2925 26.1214L26.2066 16.2073L24.7925 14.793L14.8784 24.7071C14.6895 24.8961 14.4383 25.0001 14.1713 25.0001L14.1711 25Z" fill="black"/>
<path d="M12.4196 15L1.99951 4.57988V7.40838L9.59114 15H12.4196Z" fill="black"/>
</svg>
