<svg width="32" height="32" viewBox="0 0 32 32" fill="none" xmlns="http://www.w3.org/2000/svg">
<path d="M16.7079 7.25012L11.7115 2.25012H10.2979L15.2941 7.25012H16.7079Z" fill="black"/>
<path d="M30.0005 28.7453H19.9995V29.7453H30.0005V28.7453Z" fill="black"/>
<path d="M30.0005 24.7501H24.0005V25.7501H30.0005V24.7501Z" fill="black"/>
<path d="M14.1711 25.7501H4.99951V26.7501H14.1711C14.8389 26.7501 15.4668 26.4901 15.939 26.0179L25.8531 16.1037L25.146 15.3967L15.2319 25.3109C14.9485 25.5942 14.5719 25.7502 14.1713 25.7502L14.1711 25.7501Z" fill="black"/>
<path d="M11.7125 15.2501L1.99951 5.53712V6.95125L10.2984 15.2501H11.7125Z" fill="black"/>
<path d="M28.9995 15.543L24.2128 10.7562C23.7659 10.3094 23.2435 9.90112 22.7019 9.5755C21.8039 9.03562 20.7626 8.75012 19.6908 8.75012H18.4995V11.2501C18.4995 14.2829 16.0323 16.7501 12.9995 16.7501H10.661L8.87976 21.2031C8.85989 21.2527 8.83726 21.3009 8.81264 21.3476C8.73139 21.5012 8.62439 21.6378 8.49801 21.7531C8.34489 21.8929 8.16339 22.0019 7.96139 22.0691L4.20976 23.3199C3.18739 23.661 2.50051 24.614 2.50051 25.6916V29.7503H14.7566C15.6915 29.7503 16.5705 29.3861 17.2318 28.725L28.9994 16.9574V15.5432L28.9995 15.543ZM16.5248 28.0178C16.0524 28.4899 15.4245 28.75 14.7566 28.75H3.50051V25.6914C3.50051 25.0447 3.91264 24.473 4.52614 24.2684L8.27776 23.0176C8.56551 22.9216 8.82739 22.7737 9.05739 22.5879L10.9996 23.559V22.4409L9.70626 21.7941C9.74326 21.7226 9.77814 21.6499 9.80839 21.5744L10.4288 20.0235L12.7761 21.1971L13.2234 20.3026L10.8015 19.0916L11.3383 17.7499H12.9998C16.5839 17.7499 19.4998 14.834 19.4998 11.2499V9.74987H19.691C20.5814 9.74987 21.4444 9.98587 22.1868 10.4321C22.6596 10.7164 23.1158 11.073 23.5058 11.463L28.2926 16.2499L16.525 28.0176L16.5248 28.0178Z" fill="black"/>
</svg>
