<svg width="32" height="32" viewBox="0 0 32 32" fill="none" xmlns="http://www.w3.org/2000/svg">
<path d="M12.065 2.12488H9.94439L14.9408 7.12488H17.0613L12.065 2.12488Z" fill="black"/>
<path d="M10.4918 16.3749L8.64764 20.9851C8.51076 21.3271 8.23189 21.5903 7.88239 21.7066L4.13064 22.9575C3.00601 23.3325 2.25051 24.381 2.25051 25.5663V29.8749H14.7566C15.7584 29.8749 16.7001 29.4848 17.4085 28.7764L28.9994 17.1855V15.0641L24.3894 10.4541C23.9284 9.99313 23.3894 9.57175 22.8306 9.23575C21.8938 8.6725 20.808 8.37475 19.6906 8.37475H18.2494V11.1248C18.2494 14.0196 15.8943 16.3748 12.9994 16.3748M16.3479 27.7156C15.9228 28.1406 15.3576 28.3748 14.7566 28.3748H3.75051V25.5661C3.75051 25.0273 4.09401 24.5508 4.60514 24.3804L8.35676 23.1296C8.62076 23.0416 8.86576 22.9148 9.08676 22.7569L8.16414 22.2955L8.83489 20.954L10.0351 21.5541C10.0368 21.5501 10.0386 21.5463 10.0403 21.5421L10.5598 20.2434L9.66401 19.7955L10.3348 18.454L11.1186 18.846L11.5071 17.8749H12.9994C16.7214 17.8749 19.7494 14.8468 19.7494 11.1249V9.87525C20.5735 9.88538 21.3704 10.1083 22.0576 10.5214C22.5133 10.7954 22.9528 11.1389 23.3286 11.5148L27.9386 16.1249L16.3478 27.7158L16.3479 27.7156Z" fill="black"/>
<path d="M30.0005 28.37H19.9995V29.87H30.0005V28.37Z" fill="black"/>
<path d="M30.0005 24.3749H24.0005V25.8749H30.0005V24.3749Z" fill="black"/>
<path d="M24.9691 15.0946L15.055 25.0088C14.8189 25.2449 14.505 25.3749 14.1711 25.3749H4.99951V26.8749H14.1711C14.9056 26.8749 15.5963 26.5889 16.1158 26.0694L26.0299 16.1553L24.9693 15.0948L24.9691 15.0946Z" fill="black"/>
<path d="M10.9995 22.0364L10.0351 21.5541L8.83489 20.9541L8.16414 22.2955L10.9995 23.7134V22.0364Z" fill="black"/>
<path d="M12.4995 19.5364L11.1186 18.846L10.3349 18.4541L9.66414 19.7956L12.4995 21.2134V19.5364Z" fill="black"/>
<path d="M1.99951 5.05838V7.17963L9.94476 15.1249H12.066L1.99951 5.05838Z" fill="black"/>
</svg>
