<svg width="32" height="32" viewBox="0 0 32 32" fill="none" xmlns="http://www.w3.org/2000/svg">
<path d="M4.9363 20.7482C4.51968 21.4557 4.53255 22.3021 4.97155 23.0702C5.46868 23.94 6.40905 24.502 7.36718 24.502H18.3672C18.9186 24.502 19.3672 24.9506 19.3672 25.502V29.9977H20.3672V25.502C20.3672 24.3992 19.4699 23.502 18.3672 23.502H7.36718C6.76155 23.502 6.16205 23.1377 5.8398 22.574C5.58593 22.1297 5.5688 21.6536 5.7923 21.2656L18.4781 2.00195H17.2807L4.94955 20.727L4.9363 20.7482Z" fill="black"/>
<path d="M19.3672 19.502C20.2971 19.502 21.0784 20.1408 21.3013 21.002H22.3247C22.0858 19.5851 20.8509 18.502 19.3672 18.502C17.8834 18.502 16.6484 19.5851 16.4097 21.002H17.4331C17.6559 20.1407 18.4373 19.502 19.3672 19.502Z" fill="black"/>
<path d="M26.3672 21.502C26.3672 22.4318 25.7283 23.2132 24.8672 23.4361V24.4595C26.2842 24.2206 27.3672 22.9857 27.3672 21.502C27.3672 20.0182 26.2842 18.7832 24.8672 18.5445V19.5678C25.7283 19.7907 26.3672 20.5721 26.3672 21.502Z" fill="black"/>
</svg>
