<svg width="32" height="32" viewBox="0 0 32 32" fill="none" xmlns="http://www.w3.org/2000/svg">
<path d="M4.71886 20.6213C4.26224 21.3967 4.27474 22.3585 4.75249 23.1943C5.29336 24.1405 6.31886 24.752 7.36511 24.752H18.3651C18.7787 24.752 19.1151 25.0883 19.1151 25.502V29.9977H20.6151V25.502C20.6151 24.2613 19.6057 23.252 18.3651 23.252H7.36511C6.85561 23.252 6.32899 22.9297 6.05474 22.45C5.93249 22.236 5.76486 21.8168 6.00324 21.3965L18.7754 2.00195H16.9792L4.73874 20.5895L4.71886 20.6213Z" fill="black"/>
<path d="M19.3651 18.252C17.7431 18.252 16.3949 19.4465 16.1536 21.002H17.6887C17.9045 20.28 18.5739 19.752 19.365 19.752C20.1561 19.752 20.8255 20.2801 21.0412 21.002H22.5764C22.3351 19.4465 20.987 18.252 19.3649 18.252H19.3651Z" fill="black"/>
<path d="M26.1151 21.502C26.1151 22.2931 25.587 22.9625 24.8651 23.1782V24.7133C26.4206 24.4721 27.6151 23.124 27.6151 21.5018C27.6151 19.8797 26.4206 18.5316 24.8651 18.2903V19.8255C25.587 20.0412 26.1151 20.7106 26.1151 21.5017V21.502Z" fill="black"/>
</svg>
