<svg width="32" height="32" viewBox="0 0 32 32" fill="none" xmlns="http://www.w3.org/2000/svg">
<path d="M22.1045 3.03098V4.78023L24.1468 6.00561L22.1045 7.23098V8.98023L26.1045 6.58023V5.43098L22.1045 3.03098Z" fill="black"/>
<path d="M22.1045 13.031V14.7802L24.1468 16.0056L22.1045 17.231V18.9802L26.1045 16.5802V15.431L22.1045 13.031Z" fill="black"/>
<path d="M22.1045 23.031V24.7802L24.1468 26.0056L22.1045 27.231V28.9802L26.1045 26.5802V25.431L22.1045 23.031Z" fill="black"/>
<path d="M29.8819 2.00073H28.3819V29.9992H29.8819V2.00073Z" fill="black"/>
<path d="M20.1045 5.25561H2.11816V6.75561H20.1045V5.25561Z" fill="black"/>
<path d="M20.1045 15.2556H2.11816V16.7556H20.1045V15.2556Z" fill="black"/>
<path d="M20.1045 25.2556H2.11816V26.7556H20.1045V25.2556Z" fill="black"/>
</svg>
