<svg width="32" height="32" viewBox="0 0 32 32" fill="none" xmlns="http://www.w3.org/2000/svg">
<path d="M14.8706 20.0839L12.6533 17.8667H10.0134L13.7467 21.6H16.1472L22.1361 11.3333H19.9751L14.8706 20.0839Z" fill="black"/>
<path d="M16 2C8.2804 2 2 8.2804 2 16C2 23.7196 8.2804 30 16 30C23.7196 30 30 23.7196 30 16C30 8.2804 23.7196 2 16 2ZM16 28.1333C9.30963 28.1333 3.86667 22.6904 3.86667 16C3.86667 9.30963 9.30963 3.86667 16 3.86667C22.6904 3.86667 28.1333 9.30963 28.1333 16C28.1333 22.6904 22.6904 28.1333 16 28.1333Z" fill="black"/>
</svg>
