<svg width="32" height="32" viewBox="0 0 32 32" fill="none" xmlns="http://www.w3.org/2000/svg">
<path d="M30 4.50012H28V20.5001H30V4.50012Z" fill="black"/>
<path d="M28 2.50012H4V4.50012H28V2.50012Z" fill="black"/>
<path d="M9.56538 20.5001L4 26.4631V4.50012H2V29.5001H3.90125L10.4346 22.5001H28V20.5001H9.56538Z" fill="black"/>
<path d="M8 15.5001C9.65425 15.5001 11 14.1542 11 12.5001C11 10.846 9.65425 9.50012 8 9.50012C6.34575 9.50012 5 10.846 5 12.5001C5 14.1542 6.34575 15.5001 8 15.5001ZM8 11.5001C8.55137 11.5001 9 11.9487 9 12.5001C9 13.0515 8.55137 13.5001 8 13.5001C7.44863 13.5001 7 13.0515 7 12.5001C7 11.9487 7.44863 11.5001 8 11.5001Z" fill="black"/>
<path d="M16 15.5001C17.6543 15.5001 19 14.1542 19 12.5001C19 10.846 17.6543 9.50012 16 9.50012C14.3457 9.50012 13 10.846 13 12.5001C13 14.1542 14.3457 15.5001 16 15.5001ZM16 11.5001C16.5514 11.5001 17 11.9487 17 12.5001C17 13.0515 16.5514 13.5001 16 13.5001C15.4486 13.5001 15 13.0515 15 12.5001C15 11.9487 15.4486 11.5001 16 11.5001Z" fill="black"/>
<path d="M24 15.5001C25.6543 15.5001 27 14.1542 27 12.5001C27 10.846 25.6543 9.50012 24 9.50012C22.3458 9.50012 21 10.846 21 12.5001C21 14.1542 22.3458 15.5001 24 15.5001ZM24 11.5001C24.5514 11.5001 25 11.9487 25 12.5001C25 13.0515 24.5514 13.5001 24 13.5001C23.4486 13.5001 23 13.0515 23 12.5001C23 11.9487 23.4486 11.5001 24 11.5001Z" fill="black"/>
</svg>
