<svg width="32" height="32" viewBox="0 0 32 32" fill="none" xmlns="http://www.w3.org/2000/svg">
<path d="M28.4444 2.25928H3.55556V3.29631H28.4444V2.25928Z" fill="black"/>
<path d="M30 3.81483H28.963V20.4074H30V3.81483Z" fill="black"/>
<path d="M9.55248 20.9259L3.03704 27.9068V3.81483H2V29.7408H2.74394L10.0031 21.963H28.4444V20.9259H9.55248Z" fill="black"/>
<path d="M7.7037 9.51854C6.27415 9.51854 5.11111 10.6816 5.11111 12.1111C5.11111 13.5407 6.27415 14.7037 7.7037 14.7037C9.13326 14.7037 10.2963 13.5407 10.2963 12.1111C10.2963 10.6816 9.13326 9.51854 7.7037 9.51854ZM7.7037 13.6667C6.84594 13.6667 6.14815 12.9689 6.14815 12.1111C6.14815 11.2534 6.84594 10.5556 7.7037 10.5556C8.56146 10.5556 9.25926 11.2534 9.25926 12.1111C9.25926 12.9689 8.56146 13.6667 7.7037 13.6667Z" fill="black"/>
<path d="M16 9.51854C14.5704 9.51854 13.4074 10.6816 13.4074 12.1111C13.4074 13.5407 14.5704 14.7037 16 14.7037C17.4296 14.7037 18.5926 13.5407 18.5926 12.1111C18.5926 10.6816 17.4296 9.51854 16 9.51854ZM16 13.6667C15.1422 13.6667 14.4444 12.9689 14.4444 12.1111C14.4444 11.2534 15.1422 10.5556 16 10.5556C16.8578 10.5556 17.5556 11.2534 17.5556 12.1111C17.5556 12.9689 16.8578 13.6667 16 13.6667Z" fill="black"/>
<path d="M24.2963 9.51854C22.8667 9.51854 21.7037 10.6816 21.7037 12.1111C21.7037 13.5407 22.8667 14.7037 24.2963 14.7037C25.7259 14.7037 26.8889 13.5407 26.8889 12.1111C26.8889 10.6816 25.7259 9.51854 24.2963 9.51854ZM24.2963 13.6667C23.4385 13.6667 22.7407 12.9689 22.7407 12.1111C22.7407 11.2534 23.4385 10.5556 24.2963 10.5556C25.1541 10.5556 25.8519 11.2534 25.8519 12.1111C25.8519 12.9689 25.1541 13.6667 24.2963 13.6667Z" fill="black"/>
</svg>
