<svg width="32" height="32" viewBox="0 0 32 32" fill="none" xmlns="http://www.w3.org/2000/svg">
<path d="M22.6416 3.55725C19.5609 3.55725 17.1411 4.8878 16 7.01148C14.8589 4.8878 12.439 3.55725 9.35841 3.55725C5.36974 3.55725 2 6.92699 2 10.9157C2 15.4967 4.38534 19.9855 8.89827 23.8968C12.2614 26.8116 15.5774 28.3698 15.7169 28.4346L15.7343 28.4426H16.2992L16.3173 28.4342C16.4565 28.3693 19.7645 26.8111 23.1193 23.8962C27.6207 19.985 30 15.4964 30 10.9157C30 6.92699 26.6303 3.55725 22.6416 3.55725ZM22.2126 22.8C19.5725 25.0997 16.8965 26.5487 16.0162 26.9969C15.1345 26.5491 12.4509 25.0998 9.80327 22.7996C5.56894 19.1205 3.42179 15.1221 3.42179 10.9157C3.42179 7.69785 6.14036 4.97928 9.35817 4.97928C13.3239 4.97928 15.1708 7.31733 15.2879 9.71215C15.2851 9.79297 15.2837 9.8745 15.2837 9.95638L15.2938 10.6674H16.7159V9.95638C16.7159 9.8745 16.7145 9.79297 16.7116 9.71215C16.8287 7.31733 18.6757 4.97928 22.6414 4.97928C25.8592 4.97928 28.5777 7.69785 28.5777 10.9157C28.5777 15.1225 26.4362 19.1209 22.2124 22.8H22.2126Z" fill="black"/>
</svg>
