<svg width="32" height="32" viewBox="0 0 32 32" fill="none" xmlns="http://www.w3.org/2000/svg">
<path d="M22.7561 3.52954C19.5107 3.52954 17.01 5.02223 16.0001 7.36211C14.9901 5.02211 12.4895 3.52954 9.24407 3.52954C5.31736 3.52954 2 6.8469 2 10.7736C2 15.3616 4.39773 19.8647 8.93379 23.7962C12.3296 26.7394 15.673 28.3103 15.8137 28.3758L16.0173 28.4705L16.2208 28.3755C16.3611 28.3101 19.6964 26.739 23.0837 23.7957C27.6084 19.8643 30 15.3613 30 10.7736C30 6.8469 26.6828 3.52954 22.7561 3.52954ZM22.4692 23.0523C19.6488 25.5069 16.7912 27.0141 16.0168 27.4019C15.2409 27.0145 12.3756 25.5071 9.5476 23.0519C6.54425 20.4447 2.96435 16.1982 2.96435 10.7736C2.96435 7.36958 5.84016 4.49389 9.24407 4.49389C10.9874 4.49389 12.5708 4.99366 13.7026 5.90136C14.829 6.80459 15.453 8.05873 15.5175 9.54057C15.5143 9.62567 15.5126 9.7115 15.5126 9.79781L15.5229 10.28H16.4873V9.79781C16.4873 9.7115 16.4856 9.62567 16.4824 9.54057C16.5468 8.05873 17.1709 6.80447 18.2973 5.90136C19.4292 4.99378 21.0125 4.49389 22.7558 4.49389C26.1598 4.49389 29.0355 7.36958 29.0355 10.7736C29.0355 16.1984 25.4645 20.4451 22.4688 23.0523H22.4692Z" fill="black"/>
</svg>
