<svg width="32" height="32" viewBox="0 0 32 32" fill="none" xmlns="http://www.w3.org/2000/svg">
<path d="M5.81856 22.3636H5.81818C3.71322 22.3636 2.00025 24.0763 2 26.1814C1.99974 28.2868 3.71245 29.9997 5.8178 30H5.81818C7.92314 30 9.63611 28.2873 9.63636 26.1822C9.63662 24.0769 7.92391 22.3639 5.81856 22.3636ZM5.81831 28.4727H5.81805C4.55487 28.4727 3.52727 27.4447 3.5274 26.1816C3.5274 24.9184 4.55525 23.8909 5.81831 23.8909H5.81856C7.08174 23.8909 8.10934 24.9189 8.10922 26.1821C8.10922 27.4453 7.08136 28.4727 5.81831 28.4727Z" fill="black"/>
<path d="M26.1844 9.63636H26.1847C28.2897 9.63636 30.0027 7.92365 30.0029 5.81856C30.0029 3.71322 28.2903 2.00025 26.185 2H26.1846C25.1649 2 24.2062 2.39709 23.4852 3.11809C22.7639 3.83922 22.3667 4.79796 22.3666 5.8178C22.3666 6.83764 22.7635 7.79651 23.4847 8.51776C24.2058 9.23902 25.1645 9.63624 26.1844 9.63636ZM24.5649 4.19813C24.9977 3.76553 25.5728 3.52727 26.1846 3.52727H26.1849C27.4481 3.52727 28.4758 4.55525 28.4757 5.81844C28.4757 7.08162 27.4478 8.10909 26.1847 8.10909H26.1845C24.9213 8.10909 23.8937 7.08111 23.8938 5.81793C23.8938 5.206 24.1322 4.63073 24.5649 4.19813Z" fill="black"/>
<path d="M2 19.8182H9.63636V12.1818H2V19.8182ZM3.52727 13.7091H8.10909V18.2909H3.52727V13.7091Z" fill="black"/>
<path d="M30 12.1818H22.3636V19.8182H30V12.1818ZM28.4727 18.2909H23.8909V13.7091H28.4727V18.2909Z" fill="black"/>
<path d="M20.0757 15.2364H17.0211V16.7636H20.0757V15.2364Z" fill="black"/>
<path d="M14.9847 15.2364H11.9302V16.7636H14.9847V15.2364Z" fill="black"/>
<path d="M16.765 11.9229H15.2378V14.9775H16.765V11.9229Z" fill="black"/>
<path d="M16.7636 17.0139H15.2364V20.0684H16.7636V17.0139Z" fill="black"/>
<path d="M19.8182 2H12.1818V9.63636H19.8182V2ZM18.2909 8.10909H13.7091V3.52727H18.2909V8.10909Z" fill="black"/>
<path d="M12.1818 30H19.8182V22.3636H12.1818V30ZM13.7091 23.8909H18.2909V28.4727H13.7091V23.8909Z" fill="black"/>
<path d="M5.81525 9.63636C7.9206 9.63636 9.63343 7.92353 9.63343 5.81818C9.63343 3.71284 7.9206 2 5.81525 2C3.70991 2 1.99707 3.71284 1.99707 5.81818C1.99707 7.92353 3.70991 9.63636 5.81525 9.63636ZM5.81525 3.52727C7.07843 3.52727 8.10616 4.555 8.10616 5.81818C8.10616 7.08136 7.07843 8.10909 5.81525 8.10909C4.55207 8.10909 3.52434 7.08136 3.52434 5.81818C3.52434 4.555 4.55207 3.52727 5.81525 3.52727Z" fill="black"/>
<path d="M26.1847 22.3636C25.4788 22.3636 24.8174 22.557 24.2496 22.8923C24.1292 22.9635 24.0125 23.0402 23.901 23.1237C22.9701 23.8207 22.3666 24.932 22.3666 26.1817C22.3666 28.287 24.0794 29.9999 26.1847 29.9999C28.2901 29.9999 30.0029 28.287 30.0029 26.1817C30.0029 24.0763 28.2901 22.3635 26.1847 22.3635V22.3636ZM26.1847 28.4727C24.9216 28.4727 23.8938 27.445 23.8938 26.1818C23.8938 24.9186 24.9216 23.8909 26.1847 23.8909C27.4479 23.8909 28.4757 24.9186 28.4757 26.1818C28.4757 27.445 27.4479 28.4727 26.1847 28.4727Z" fill="black"/>
</svg>
