<svg width="32" height="32" viewBox="0 0 32 32" fill="none" xmlns="http://www.w3.org/2000/svg">
<path d="M15.9991 13.3655C14.5548 13.3655 13.3796 14.5406 13.3796 15.9851C13.3796 17.4295 14.5547 18.6046 15.9991 18.6046C17.4436 18.6046 18.6187 17.4295 18.6187 15.9851C18.6187 14.5406 17.4436 13.3655 15.9991 13.3655ZM15.9991 17.1754C15.3427 17.1754 14.8087 16.6414 14.8087 15.9849C14.8087 15.3285 15.3427 14.7945 15.9991 14.7945C16.6556 14.7945 17.1896 15.3285 17.1896 15.9849C17.1896 16.6414 16.6556 17.1754 15.9991 17.1754Z" fill="black"/>
<path d="M26.4832 17.156C26.2425 16.8555 25.9828 16.5549 25.7084 16.2552C25.6305 16.1701 25.5514 16.0851 25.4709 16.0002C24.8544 15.3496 24.1623 14.7049 23.409 14.0761C23.1597 13.8682 22.9047 13.6618 22.6425 13.4578C22.3257 13.2114 22.0003 12.9681 21.666 12.7287C21.5506 11.5522 21.3721 10.4209 21.1366 9.35743H20.4027C20.9956 9.19427 21.5729 9.0647 22.1315 8.96716C22.2408 8.94811 22.3506 8.92834 22.4584 8.91178C24.7394 8.5632 26.3949 8.86319 26.8865 9.7147C27.3014 10.4333 26.959 11.6745 25.9757 13.1268H27.6558C28.567 11.4926 28.7382 10.0636 28.1242 9.00015C27.3031 7.57794 25.2142 7.04477 22.2425 7.4991C22.2059 7.5047 22.1683 7.51197 22.1316 7.5178C20.8062 7.72955 19.3764 8.12148 17.9051 8.67002C17.2757 8.90464 16.6391 9.16712 15.9999 9.45711C15.1395 9.06684 14.2842 8.72636 13.445 8.43756C13.1757 8.3449 12.9082 8.25749 12.6428 8.17591C12.7797 7.718 12.9285 7.27819 13.0905 6.86255C13.0984 6.84231 13.1065 6.82254 13.1145 6.80241C13.9498 4.68911 15.0259 3.42911 15.9999 3.42911C16.7536 3.42911 17.5685 4.18404 18.2857 5.50478H19.8833C18.8306 3.23678 17.4698 2 15.9999 2C14.3576 2 12.8515 3.54249 11.7591 6.34319C11.7005 6.49337 11.6438 6.64688 11.5883 6.80229C11.2016 7.88413 10.8899 9.0903 10.6582 10.3791C10.6429 10.4639 10.6279 10.5491 10.6134 10.6346C10.498 11.3128 10.4039 12.012 10.3337 12.7285C9.99937 12.9678 9.67401 13.2111 9.35722 13.4576C8.71269 13.9589 8.10687 14.4734 7.54547 14.9952C7.21749 14.6475 6.91082 14.2988 6.63203 13.9506C6.35299 13.6022 6.10766 13.2622 5.89544 12.9339C5.01046 11.5646 4.7169 10.401 5.11336 9.71435C5.51684 9.01563 6.70431 8.68848 8.37792 8.78626V7.35548C6.13958 7.24234 4.56315 7.80922 3.87563 8.99979C3.05448 10.422 3.63732 12.4975 5.5166 14.844C5.60176 14.9504 5.69096 15.0567 5.78039 15.163C6.0156 15.4423 6.2651 15.7216 6.52877 15.9998C7.00312 16.5005 7.5226 16.9973 8.07972 17.4866C8.48618 17.8434 8.91206 18.196 9.35722 18.5422C9.67401 18.7886 9.99937 19.0319 10.3337 19.2713C10.4129 20.0781 10.5221 20.8632 10.6583 21.6206C10.7318 22.029 10.8133 22.4289 10.9027 22.8193C10.5514 22.9027 10.2064 22.9738 9.86825 23.0328C9.75892 23.0519 9.64912 23.0717 9.54134 23.0882C7.26036 23.4369 5.60485 23.1368 5.11324 22.2853C4.73464 21.6296 4.98664 20.5388 5.78039 19.2496C5.86257 19.1161 5.95082 18.9805 6.04466 18.8429H4.36093C3.43498 20.4899 3.25777 21.9298 3.87563 22.9999C4.50575 24.0911 5.88186 24.6588 7.83069 24.6588C8.42175 24.6588 9.0658 24.6067 9.75738 24.5009C9.79394 24.4953 9.83157 24.488 9.86825 24.4822C10.9063 24.3164 12.0081 24.0402 13.144 23.6646C13.2441 23.6315 13.3446 23.5971 13.4451 23.5624C14.2843 23.2735 15.1397 22.933 16 22.5429C17.1364 23.0583 18.2643 23.488 19.357 23.8241C19.3554 23.8292 19.3539 23.8345 19.3523 23.8396C19.321 23.9438 19.2892 24.047 19.2567 24.1492C19.2525 24.1624 19.2482 24.1755 19.2441 24.1886C19.213 24.2856 19.1814 24.3816 19.1493 24.4765C19.1371 24.5122 19.1246 24.5473 19.1123 24.5828C19.0867 24.6569 19.061 24.731 19.0346 24.8037C18.9936 24.9164 18.952 25.028 18.9093 25.1374C18.0706 27.2873 16.9831 28.5709 15.9999 28.5709C15.2404 28.5709 14.4188 27.8045 13.6976 26.465H12.1022C13.157 28.7524 14.5232 30 15.9997 30C17.642 30 19.1481 28.4575 20.2405 25.6568C20.2665 25.5902 20.2909 25.5208 20.3163 25.4532C20.7202 24.3767 21.0491 23.1716 21.295 21.8763C21.4535 21.041 21.5779 20.1693 21.666 19.2715C22.0003 19.0322 22.3257 18.7889 22.6425 18.5424C23.287 18.0411 23.8928 17.5266 24.4542 17.0048C24.7822 17.3525 25.0889 17.7012 25.3677 18.0494C25.4881 18.1998 25.6002 18.348 25.7083 18.4951C26.8953 20.1092 27.337 21.5054 26.8864 22.2857C26.483 22.9845 25.2952 23.3115 23.6213 23.2137V24.6434C23.8079 24.6529 23.9916 24.6592 24.1689 24.6592C26.1175 24.6592 27.494 24.0913 28.124 23.0002C28.9451 21.578 28.3623 19.5025 26.483 17.156H26.4832ZM19.7185 9.55917C19.8719 10.2363 20.0014 10.944 20.1037 11.6771C19.7144 11.4308 19.3171 11.19 18.912 10.9561C18.507 10.7222 18.0998 10.4986 17.6918 10.2846C18.3779 10.0065 19.0554 9.76484 19.7185 9.55917ZM12.0629 10.6349C12.0783 10.5494 12.0939 10.4642 12.1099 10.3795C12.1285 10.2818 12.1478 10.185 12.1675 10.0884C12.2037 9.9099 12.2415 9.73364 12.2811 9.55929C12.6644 9.67826 13.0528 9.80986 13.4448 9.95337C13.7309 10.058 14.0184 10.1675 14.3078 10.2848C13.8998 10.4988 13.4926 10.7225 13.0876 10.9564C12.6825 11.1903 12.2852 11.4311 11.8959 11.6774C11.9452 11.3238 12.0014 10.9766 12.0629 10.6352V10.6349ZM9.3571 16.7038C9.08248 16.4711 8.81773 16.2363 8.5624 16.0002C8.81773 15.764 9.08248 15.5293 9.3571 15.2966C9.63078 15.0648 9.91267 14.8349 10.2041 14.6076C10.1854 15.0679 10.1755 15.5324 10.1755 16.0002C10.1755 16.468 10.1854 16.9324 10.2041 17.3927C9.91267 17.1656 9.63078 16.9357 9.3571 16.7038ZM13.445 22.0471C13.0529 22.1906 12.6645 22.3222 12.2812 22.4412C12.2203 22.1724 12.163 21.8992 12.1101 21.6209C12.0295 21.198 11.9577 20.7654 11.896 20.3231C12.2854 20.5694 12.6826 20.8102 13.0877 21.0441C13.4927 21.278 13.8999 21.5017 14.3079 21.7157C14.0185 21.833 13.731 21.9424 13.445 22.0471ZM19.8323 21.9119C19.7981 22.0802 19.7622 22.2464 19.7251 22.4111C19.7228 22.4211 19.7204 22.4309 19.7182 22.441C19.0552 22.2353 18.3778 21.9936 17.6919 21.7157C18.0999 21.5017 18.5071 21.278 18.9121 21.0441C19.3166 20.8106 19.7133 20.5701 20.102 20.3242C20.093 20.3885 20.0833 20.4521 20.0739 20.5159C20.052 20.6648 20.0292 20.8128 20.0052 20.9594C19.991 21.0455 19.9768 21.1315 19.962 21.2169C19.9231 21.4389 19.883 21.6596 19.8394 21.8762C19.837 21.888 19.8348 21.9 19.8324 21.9118L19.8323 21.9119ZM20.3706 17.2784C20.3548 17.6843 20.3314 18.0861 20.301 18.4833C19.63 18.9422 18.9269 19.3853 18.1975 19.8064C17.468 20.2275 16.7328 20.6149 15.9999 20.9665C15.267 20.6149 14.5317 20.2275 13.8022 19.8064C13.0728 19.3853 12.3697 18.9422 11.6987 18.4833C11.6367 17.6727 11.6046 16.8423 11.6046 16.0001C11.6046 15.1578 11.6368 14.3273 11.6987 13.5169C12.3697 13.0579 13.0728 12.6149 13.8022 12.1937C14.5317 11.7726 15.267 11.3852 15.9999 11.0337C16.7328 11.3852 17.468 11.7726 18.1975 12.1937C18.9269 12.6149 19.63 13.0579 20.301 13.5169C20.3631 14.3274 20.3951 15.1578 20.3951 16.0001C20.3951 16.4295 20.3869 16.8561 20.3706 17.2784ZM23.4373 16.0001C23.182 16.2362 22.9172 16.471 22.6426 16.7037C22.3689 16.9354 22.087 17.1654 21.7956 17.3926C21.8143 16.9323 21.8242 16.4679 21.8242 16.0001C21.8242 15.5323 21.8143 15.0678 21.7956 14.6075C22.087 14.8346 22.3689 15.0646 22.6426 15.2965C22.9072 15.5206 23.1624 15.7467 23.4091 15.9741C23.4185 15.9828 23.428 15.9914 23.4373 16.0001Z" fill="black"/>
</svg>
