<svg width="32" height="32" viewBox="0 0 32 32" fill="none" xmlns="http://www.w3.org/2000/svg">
<path d="M15.9993 13.1751C14.4499 13.1751 13.1893 14.4356 13.1893 15.9851C13.1893 17.5345 14.4498 18.795 15.9993 18.795C17.5487 18.795 18.8092 17.5345 18.8092 15.9851C18.8092 14.4356 17.5487 13.1751 15.9993 13.1751ZM15.9993 16.9213C15.483 16.9213 15.0629 16.5012 15.0629 15.985C15.0629 15.4687 15.483 15.0486 15.9993 15.0486C16.5156 15.0486 16.9356 15.4687 16.9356 15.985C16.9356 16.5012 16.5156 16.9213 15.9993 16.9213Z" fill="black"/>
<path d="M25.6327 15.9999C24.9426 15.2557 24.1547 14.5179 23.2853 13.8028C23.0406 13.6015 22.7885 13.4027 22.5316 13.2053C22.2879 13.0181 22.0402 12.8325 21.7863 12.6495C21.6718 11.555 21.5022 10.4858 21.2803 9.47288C21.2867 9.47148 21.2933 9.46984 21.2997 9.46843C21.5463 9.41339 21.7895 9.36468 22.0291 9.32217C22.1487 9.30098 22.2682 9.27978 22.3859 9.26175C24.4977 8.9389 26.0749 9.19758 26.5017 9.93683C26.8579 10.5538 26.533 11.723 25.5461 13.1474C25.5398 13.1565 25.5338 13.1655 25.5274 13.1748H27.7263C28.5704 11.6241 28.7969 10.1653 28.1242 9.00003C27.2653 7.51227 25.1269 6.94761 22.1027 7.40969C22.0783 7.41344 22.0534 7.41835 22.029 7.4221C20.7253 7.62738 19.3194 8.00936 17.8732 8.54345C17.2544 8.77192 16.6286 9.02731 15.9999 9.30988C15.1538 8.92965 14.3128 8.59802 13.4877 8.31687C13.3199 8.25972 13.1529 8.20445 12.9866 8.15164C13.1206 7.72399 13.2631 7.32479 13.4121 6.95628C14.2116 4.97833 15.194 3.87361 15.9999 3.87361C16.6112 3.87361 17.324 4.50993 17.9817 5.68035H20.0704C19.0647 3.45298 17.6856 2 16 2C14.0104 2 12.448 4.02385 11.4226 6.95628C11.0487 8.02575 10.7464 9.2162 10.5207 10.4733C10.5057 10.5568 10.4911 10.6405 10.4768 10.7245C10.3699 11.3528 10.282 11.9966 10.2137 12.6495C9.95982 12.8325 9.71215 13.0181 9.46835 13.2053C8.84069 13.6874 8.24828 14.1821 7.6972 14.6847C7.15081 14.0905 6.69845 13.5187 6.34305 12.9854C5.44232 11.6344 5.15554 10.5304 5.49817 9.93683C5.84631 9.33377 6.96005 9.05062 8.50531 9.14207V7.26612C6.21694 7.15394 4.59603 7.75209 3.87551 9.00003C2.86915 10.7432 3.87563 13.1436 5.95123 15.5251C6.08742 15.6814 6.22806 15.8376 6.37326 15.9936C6.37526 15.9957 6.37725 15.998 6.37924 16.0001C6.9323 16.5936 7.54825 17.183 8.21221 17.758C8.61433 18.1062 9.03402 18.4491 9.46835 18.7844C9.71215 18.9725 9.9604 19.1583 10.2126 19.3413C10.2902 20.0846 10.3931 20.8163 10.5207 21.5267C10.5815 21.8654 10.6478 22.1992 10.7196 22.5271C10.4663 22.5839 10.2166 22.6343 9.97071 22.6778C9.85115 22.699 9.73159 22.7202 9.6139 22.7383C7.502 23.0611 5.92489 22.8024 5.49817 22.0632C5.20484 21.5552 5.37978 20.6902 5.95135 19.6576C6.1044 19.3811 6.28638 19.0924 6.49493 18.7955H4.28958C3.39318 20.4446 3.24013 21.8993 3.87563 23C4.53912 24.1491 5.96564 24.7476 7.97403 24.7476C8.56609 24.7476 9.20862 24.6956 9.89717 24.5903C9.92152 24.5866 9.94647 24.5816 9.97082 24.5779C11.2086 24.383 12.5384 24.0288 13.9074 23.5365C14.5973 23.2884 15.2969 23.0062 16 22.6901C17.018 23.1476 18.029 23.5356 19.0132 23.8484C18.1601 26.5713 16.956 28.1264 16 28.1264C15.3834 28.1264 14.6637 27.4793 14.0015 26.2899H11.9161C12.9228 28.5341 14.3068 30 16 30C17.9321 30 19.4615 28.091 20.4873 25.295C20.8772 24.2322 21.1942 23.0412 21.433 21.778C21.582 20.9894 21.7005 20.1726 21.7872 19.3414C22.0394 19.1585 22.2878 18.9727 22.5315 18.7845C23.1511 18.3061 23.7412 17.8123 24.2927 17.3095C24.554 17.5932 24.801 17.8775 25.0283 18.1614C25.2171 18.3971 25.3886 18.6288 25.546 18.856C26.5018 20.2359 26.8681 21.4286 26.5015 22.0633C26.1533 22.6664 25.0393 22.9494 23.4939 22.8579V24.7329C23.675 24.7418 23.8531 24.7476 24.0257 24.7476C26.0338 24.7476 27.4607 24.149 28.1241 23C28.983 21.5122 28.4029 19.3778 26.4905 16.99C26.2259 16.6596 25.9377 16.3292 25.6323 15.9999H25.6327ZM19.4873 9.96529C19.578 10.387 19.6604 10.8275 19.733 11.2865C19.4849 11.1347 19.2348 10.9843 18.9805 10.8375C18.7278 10.6915 18.4741 10.5509 18.22 10.4127C18.6471 10.2489 19.07 10.0997 19.4873 9.96529ZM12.3621 10.7245C12.4092 10.4648 12.4594 10.212 12.5125 9.96529C12.8344 10.069 13.1598 10.1822 13.4877 10.3034C13.585 10.3393 13.6822 10.3753 13.7799 10.4127C13.6824 10.4658 13.585 10.5189 13.4877 10.573C13.3982 10.6228 13.3089 10.6736 13.2197 10.7243C13.1529 10.7623 13.0859 10.7989 13.0193 10.8373C12.7651 10.9841 12.5149 11.1344 12.2668 11.2864C12.2969 11.0959 12.3288 10.9086 12.3621 10.7245ZM9.46823 16.3886C9.31834 16.2596 9.17196 16.1309 9.03016 16.0026C9.17325 15.8731 9.31904 15.7442 9.46823 15.6159C9.65781 15.4526 9.85208 15.2904 10.0509 15.1293C10.0431 15.4196 10.0387 15.71 10.0387 16.0001C10.0387 16.2901 10.0431 16.5828 10.051 16.8741C9.8508 16.7119 9.65582 16.5501 9.46823 16.3886ZM13.4877 21.6966C13.1597 21.818 12.8344 21.931 12.5125 22.0347C12.4768 21.8683 12.4422 21.6991 12.4091 21.5267C12.3584 21.2626 12.3108 20.9916 12.2668 20.7138C12.5158 20.8668 12.7666 21.0165 13.0193 21.1624C13.272 21.3083 13.5258 21.449 13.7799 21.5872C13.6822 21.6246 13.585 21.6607 13.4877 21.6966ZM19.4872 22.0347C19.0699 21.9002 18.6469 21.7511 18.2198 21.5873C18.474 21.4491 18.7277 21.3085 18.9804 21.1625C19.2331 21.0166 19.4839 20.8669 19.7329 20.7139C19.6603 21.1727 19.5779 21.6131 19.4873 22.0347H19.4872ZM20.0059 18.3109C19.3927 18.7263 18.7402 19.1376 18.0435 19.54C17.3649 19.9318 16.6814 20.2927 15.9997 20.6228C15.3181 20.2927 14.6346 19.9318 13.956 19.54C13.2592 19.1378 12.6068 18.7263 11.9936 18.3109C11.9407 17.5739 11.9122 16.8028 11.9122 16.0001C11.9122 15.1973 11.9408 14.4273 11.9936 13.6906C12.6212 13.2647 13.2765 12.8525 13.956 12.4602C14.6346 12.0684 15.3181 11.7075 15.9997 11.3774C16.6814 11.7075 17.3649 12.0684 18.0435 12.4602C18.723 12.8525 19.3784 13.2647 20.0059 13.6906C20.0587 14.4273 20.0872 15.1979 20.0872 16.0001C20.0872 16.8022 20.0587 17.5738 20.0059 18.3109ZM22.5314 16.3886C22.3438 16.5501 22.1489 16.7119 21.9486 16.8741C21.9565 16.5826 21.9609 16.2912 21.9609 16.0001C21.9609 15.7089 21.9565 15.4196 21.9487 15.1293C22.1475 15.2904 22.3418 15.4526 22.5314 15.6159C22.6804 15.7442 22.8263 15.8732 22.9694 16.0026C22.8276 16.1309 22.6813 16.2596 22.5314 16.3886Z" fill="black"/>
</svg>
