<svg width="32" height="32" viewBox="0 0 32 32" fill="none" xmlns="http://www.w3.org/2000/svg">
<path d="M27.1288 6.40054C26.0834 6.40054 25.1266 6.96946 24.6229 7.87045C24.6005 7.73376 24.5671 7.59782 24.5223 7.46325C24.2732 6.71615 23.7089 6.12554 22.974 5.84283C22.2391 5.55998 21.4245 5.62004 20.7388 6.00755L11.2257 11.3846H7.97721V13.3782H11.7501L21.7198 7.74311C21.9458 7.61539 22.154 7.66336 22.258 7.70348C22.3621 7.74361 22.5489 7.8474 22.631 8.09386C22.7171 8.3524 22.6285 8.63612 22.4103 8.79972L16.9702 12.8798V17.3654H22.5808L26.3266 8.91597C26.4672 8.59899 26.7819 8.39414 27.1287 8.39414C27.4245 8.39414 27.6892 8.53457 27.8551 8.77966C28.0209 9.02462 28.0531 9.32254 27.9432 9.59729L23.2411 21.3527H7.97708V23.3463H24.5908L29.7942 10.3378C30.1485 9.45225 30.0408 8.45196 29.506 7.66212C28.9714 6.87227 28.0826 6.40054 27.1288 6.40054ZM21.284 15.3718H18.964V13.8766L23.4328 10.5249L21.284 15.3718Z" fill="black"/>
<path d="M2 24.3398V26.3334H5.9836V8.45607H2V10.4497H3.98999V24.3398H2Z" fill="black"/>
</svg>
