<svg width="32" height="32" viewBox="0 0 32 32" fill="none" xmlns="http://www.w3.org/2000/svg">
<path d="M23.6021 21.6518H8.03097V23.1605H24.6235L29.8104 10.1932C30.1368 9.3772 30.0376 8.45568 29.5448 7.72789C29.0521 7.00011 28.2333 6.56563 27.3544 6.56563C26.3092 6.56563 25.3599 7.18316 24.9362 8.13874L21.6208 15.6174H18.8649V13.7316L23.6497 10.1429C24.477 9.52253 24.813 8.44675 24.486 7.46602C24.2585 6.78387 23.7433 6.24442 23.0721 5.98619C22.401 5.72796 21.6568 5.78278 21.0309 6.13668L11.3748 11.5945H8.03097V13.1031H11.7716L21.7731 7.45006C22.0056 7.31881 22.2815 7.29857 22.5302 7.39424C22.7791 7.49003 22.9704 7.69005 23.0547 7.94325C23.176 8.30708 23.0514 8.70598 22.7446 8.93605L17.3563 12.9774V17.1261H22.6022L26.3155 8.75036C26.4975 8.33964 26.9053 8.07437 27.3545 8.07437C27.7378 8.07437 28.0808 8.25641 28.2957 8.57385C28.5105 8.89117 28.5521 9.27725 28.4097 9.63316L23.6022 21.6521L23.6021 21.6518Z" fill="black"/>
<path d="M5.76791 8.63961H2V10.1482H4.25929V24.6658H2V26.1744H5.76791V8.63961Z" fill="black"/>
</svg>
