<svg width="32" height="32" viewBox="0 0 32 32" fill="none" xmlns="http://www.w3.org/2000/svg">
<path d="M20.4784 28.4727H11.5217L10.7864 25.1636H9.22172L10.2965 30H21.7035L22.7783 25.1636H21.2136L20.4784 28.4727Z" fill="black"/>
<path d="M6.07274 2V5.05455H4.03638V9.63636H27.9636V5.05455H25.927V2H6.07274ZM7.60001 3.52727H24.3998V5.05455H7.60001V3.52727ZM26.4364 6.58182V8.10909H5.56365V6.58182H26.4364Z" fill="black"/>
<path d="M23.6459 14.2182H8.3541L7.84501 11.9273H6.28045L8.71263 22.8727H23.2874L25.7196 11.9273H24.155L23.6459 14.2182ZM23.3065 15.7455L22.062 21.3455H9.93776L8.69329 15.7455H23.3065Z" fill="black"/>
</svg>
