<svg width="32" height="32" viewBox="0 0 32 32" fill="none" xmlns="http://www.w3.org/2000/svg">
<path d="M20 25.6232C20.0859 25.5542 20.1687 25.4817 20.2486 25.4059C20.978 26.0969 21.9564 26.5026 23 26.5026C25.2056 26.5026 27 24.7082 27 22.5026C27 21.4639 26.5974 20.4889 25.9115 19.7602C26.6059 19.0304 27.0136 18.0496 27.0136 17.0026C27.0136 15.9556 26.6058 14.9747 25.9115 14.2448C26.5974 13.5162 27 12.5412 27 11.5026C27 10.4581 26.5941 9.47943 25.9028 8.75006C26.5941 8.02081 27 7.04206 27 5.99756C27 3.79193 25.2056 1.99756 23 1.99756C21.9571 1.99756 20.9792 2.40268 20.25 3.09281C19.5208 2.40268 18.5429 1.99756 17.5 1.99756C16.4571 1.99756 15.4792 2.40268 14.75 3.09281C14.0208 2.40268 13.0429 1.99756 12 1.99756C10.9571 1.99756 9.97925 2.40268 9.25 3.09281C8.52075 2.40268 7.54288 1.99756 6.5 1.99756C4.29437 1.99756 2.5 3.79193 2.5 5.99756C2.5 7.04206 2.90587 8.02068 3.59725 8.75006C2.90575 9.47931 2.5 10.4579 2.5 11.5026C2.5 12.5472 2.90513 13.5233 3.59538 14.2526C2.90525 14.9818 2.5 15.9597 2.5 17.0026C2.5 19.2082 4.29437 21.0026 6.5 21.0026C8.70563 21.0026 10.5 19.2082 10.5 17.0026C10.5 15.9597 10.0949 14.9818 9.40462 14.2526C10.0947 13.5233 10.5 12.5454 10.5 11.5026C10.5 10.7459 10.287 10.0239 9.90687 9.40618C10.5241 9.78531 11.245 9.99756 12 9.99756C13.0429 9.99756 14.0208 9.59243 14.75 8.90218C15.4792 9.59231 16.4571 9.99756 17.5 9.99756C18.255 9.99756 18.9757 9.78518 19.5929 9.40618C19.2129 10.0238 19 10.7458 19 11.5024C19 12.5496 19.4078 13.5303 20.1021 14.2601C19.4161 14.9888 19.0136 15.9637 19.0136 17.0024C19.0136 17.7609 19.2284 18.4856 19.6114 19.1051C18.9903 18.7189 18.2626 18.5024 17.5 18.5024C15.2944 18.5024 13.5 20.2968 13.5 22.5024C13.5 23.7217 14.0627 24.8708 15 25.6237V30.0024H17V24.5234L16.5009 24.2346C15.8835 23.8773 15.5 23.2136 15.5 22.5024C15.5 21.3997 16.3973 20.5024 17.5 20.5024C18.2195 20.5024 18.8757 20.8889 19.2305 21.5024H21.2711C21.4469 21.1981 21.6973 20.9472 22 20.7721V18.7249C21.3945 18.3683 21.0136 17.7158 21.0136 17.0024C21.0136 16.2891 21.3945 15.6366 22 15.2799V13.2331C21.3864 12.8783 21 12.2222 21 11.5024C21 10.7827 21.3864 10.1264 22 9.77168V7.72631C21.6975 7.55168 21.4478 7.30306 21.2726 7.00243H19.2276C18.8721 7.61306 18.2172 7.99756 17.5 7.99756C16.7828 7.99756 16.1278 7.61318 15.7724 7.00243H13.7277C13.3722 7.61306 12.7174 7.99756 12.0001 7.99756C11.2829 7.99756 10.6279 7.61318 10.2725 7.00243H8.22775C8.05225 7.30431 7.80237 7.55356 7.50012 7.72806V9.77181C8.11375 10.1266 8.50012 10.7827 8.50012 11.5024C8.50012 12.2222 8.11363 12.8781 7.50012 13.2329V15.2719C8.11363 15.6267 8.50012 16.2832 8.50012 17.0024C8.50012 18.1052 7.60287 19.0024 6.50012 19.0024C5.39738 19.0024 4.50012 18.1052 4.50012 17.0024C4.50012 16.2832 4.88662 15.6267 5.50012 15.2719V13.2329C4.88662 12.8782 4.50012 12.2217 4.50012 11.5024C4.50012 10.7832 4.8865 10.1266 5.50012 9.77181V7.72818C4.8865 7.37343 4.50012 6.71718 4.50012 5.99756C4.50012 4.89468 5.39738 3.99756 6.50012 3.99756C7.22137 3.99756 7.87925 4.38606 8.23337 5.00243H10.2668C10.6209 4.38606 11.2789 3.99756 12 3.99756C12.7211 3.99756 13.3791 4.38606 13.7332 5.00243H15.7666C16.1207 4.38606 16.7787 3.99756 17.4999 3.99756C18.221 3.99756 18.879 4.38606 19.2331 5.00243H21.2665C21.6206 4.38606 22.2786 3.99756 22.9998 3.99756C24.1025 3.99756 24.9998 4.89468 24.9998 5.99756C24.9998 6.71731 24.6134 7.37343 23.9998 7.72818V9.77181C24.6134 10.1266 24.9998 10.7828 24.9998 11.5024C24.9998 12.2221 24.6131 12.8779 23.9998 13.2328V15.2641C24.6213 15.6169 25.0134 16.2773 25.0134 17.0026C25.0134 17.7278 24.6213 18.3882 23.9998 18.7411V20.7722C24.6131 21.1271 24.9998 21.7839 24.9998 22.5026C24.9998 23.6053 24.1025 24.5026 22.9998 24.5026C22.2805 24.5026 21.6241 24.1161 21.2693 23.5026H19.2295C19.0544 23.8033 18.8015 24.0592 18.4985 24.2347L17.9996 24.5236V30.0026H19.9996V25.6231L20 25.6232Z" fill="black"/>
<path d="M17 18.0027V16.0027C13.6916 16.0027 11 18.6943 11 22.0027H13C13 19.7971 14.7944 18.0027 17 18.0027Z" fill="black"/>
<path d="M29.5 23.0027H27.5C27.5 25.2083 25.7056 27.0027 23.5 27.0027V29.0027C26.8084 29.0027 29.5 26.3111 29.5 23.0027Z" fill="black"/>
</svg>
