<svg width="32" height="32" viewBox="0 0 32 32" fill="none" xmlns="http://www.w3.org/2000/svg">
<path d="M28.6119 8.91297L28.0333 8.46716V2.94791H26.0307V9.45228L27.3943 10.5029L27.4048 10.5109C27.565 10.6309 27.6904 10.7602 27.7777 10.8952C27.9338 11.1367 27.9975 11.3989 27.9975 11.8001C27.9975 12.9944 27.0259 13.966 25.8316 13.966H10.6386C10.2921 13.966 10.0103 13.6841 10.0103 13.3377C10.0103 13.1085 10.2199 12.8347 10.452 12.7586L21.0242 9.71324L21.0246 2.92676H19.0221L19.0217 8.20608L9.885 10.8379L9.86547 10.8438C8.78898 11.1778 8.00774 12.2267 8.00774 13.3377C8.00774 14.7883 9.18799 15.9685 10.6386 15.9685H25.8316C28.13 15.9685 30 14.0987 30 11.8001C30 11.0116 29.8283 10.3787 29.4597 9.80823C29.2447 9.47569 28.9596 9.17443 28.612 8.91285L28.6119 8.91297Z" fill="black"/>
<path d="M22.0256 8.98093V10.9835C23.6819 10.9835 25.0295 9.63601 25.0295 7.97966H23.0269C23.0269 8.53174 22.5777 8.98093 22.0256 8.98093Z" fill="black"/>
<path d="M6.2987 12.171L7.71462 10.7548L4.00279 7.04323V9.87494L6.2987 12.171Z" fill="black"/>
<path d="M7.71462 17.1773L6.29845 15.7613L4.00279 18.0571V20.8892L7.71462 17.1773Z" fill="black"/>
<path d="M2 14.9674L6.00933 14.9684L6.00983 12.9659L2.00038 12.9649L2 14.9674Z" fill="black"/>
<path d="M9.66247 16.933H8.12915V19.9997H9.04919V18.9394H9.35145C9.6144 18.9394 9.7457 19.027 9.7457 19.2986V19.9997H10.6964V19.2154C10.6964 18.8387 10.5431 18.6065 10.1401 18.5407C10.46 18.4531 10.7533 18.2165 10.7533 17.7827C10.7533 17.187 10.2802 16.933 9.66247 16.933ZM9.45646 18.1947H9.04906V17.6952H9.45207C9.65809 17.6952 9.80702 17.7435 9.80702 17.9363C9.80702 18.1378 9.65809 18.1947 9.45646 18.1947Z" fill="black"/>
<path d="M13.5307 17.7259V16.933H11.1914V19.9997H13.6053V19.2068H12.1377V18.8474H13.4564V18.0895H12.1377V17.7259H13.5307Z" fill="black"/>
<path d="M15.3007 16.933H14.0522V19.9997H15.2788C16.431 19.9997 17.0137 19.3689 17.0137 18.4707C17.0137 17.4324 16.3872 16.933 15.3007 16.933ZM15.2044 19.2068H14.9984V17.7259H15.2393C15.787 17.7259 16.0235 17.9932 16.0235 18.4707C16.0235 19.0402 15.6556 19.2068 15.2044 19.2068Z" fill="black"/>
<path d="M17.4035 16.933V18.7293C17.4035 19.5835 17.8722 20.0829 18.7791 20.0829C19.686 20.0829 20.1811 19.5835 20.1811 18.7293V16.933H19.2346V18.589C19.2346 19.0533 19.1295 19.2811 18.7922 19.2811C18.4549 19.2811 18.3497 19.0533 18.3497 18.589V16.933H17.4035Z" fill="black"/>
<path d="M22.1875 17.6251C22.516 17.6251 22.6912 17.8398 22.7175 18.1508H23.6901C23.6288 17.301 23.0199 16.8497 22.1961 16.8497C21.285 16.8497 20.5708 17.4279 20.5708 18.4574C20.5708 19.4651 21.1841 20.0828 22.1305 20.0828C23.0986 20.0828 23.6551 19.4958 23.6989 18.7159H22.7307C22.7044 19.0928 22.481 19.3074 22.17 19.3074C21.7976 19.3074 21.5611 19.0051 21.5611 18.4574C21.5611 17.8836 21.8413 17.6251 22.1875 17.6251Z" fill="black"/>
<path d="M26.4281 17.7259V16.933H24.0888V19.9997H26.5027V19.2068H25.035V18.8474H26.3538V18.0895H25.035V17.7259H26.4281Z" fill="black"/>
<path d="M28.1981 16.933H26.9495V19.9997H28.1762C29.3284 19.9997 29.911 19.3689 29.911 18.4707C29.911 17.4324 29.2845 16.933 28.198 16.933H28.1981ZM28.1017 19.2068H27.8957V17.7259H28.1366C28.6843 17.7259 28.9209 17.9932 28.9209 18.4707C28.9209 19.0402 28.5529 19.2068 28.1017 19.2068Z" fill="black"/>
<path d="M8.60037 21.0388H8.03277V22.8783H8.60037V21.0388Z" fill="black"/>
<path d="M10.705 21.0388H10.1585L10.1637 21.8377C10.1637 21.935 10.1664 22.0086 10.1767 22.1006L9.71954 21.039H8.92591V22.8784H9.47248L9.46722 21.8615C9.46722 21.7432 9.46459 21.6775 9.4542 21.5987L10.0244 22.8784H10.7077L10.705 21.039V21.0388Z" fill="black"/>
<path d="M11.0336 22.8783H11.6012V22.266H12.3869V21.7904H11.6012V21.5146H12.4421V21.0388H11.0336V22.8783Z" fill="black"/>
<path d="M13.262 21.0388H12.6944V22.8783H14.0739V22.4027H13.262V21.0388Z" fill="black"/>
<path d="M14.1502 22.8783H14.7493L14.8597 22.5289H15.4851L15.5955 22.8783H16.1999L15.5402 21.0388H14.8096L14.1502 22.8783ZM15.104 21.7536C15.1355 21.6512 15.1618 21.5724 15.1723 21.5093C15.1855 21.5724 15.2091 21.6512 15.2407 21.7511L15.3432 22.077H15.0016L15.104 21.7538V21.7536Z" fill="black"/>
<path d="M16.368 21.0388V22.8783H16.8988L16.8935 21.8351C16.8935 21.7431 16.8883 21.659 16.8805 21.5644L17.1826 22.8783H17.7975L18.0735 21.5565C18.0656 21.6511 18.0604 21.7405 18.0604 21.8324L18.0551 22.8782H18.5859V21.0387H17.7502L17.5322 22.0663C17.5112 22.1687 17.4954 22.2528 17.4875 22.3291C17.4798 22.2529 17.464 22.1688 17.4402 22.0663L17.2012 21.0387H16.3681L16.368 21.0388Z" fill="black"/>
<path d="M20.076 22.0664C20.055 22.1688 20.0392 22.2529 20.0314 22.3292C20.0236 22.253 20.0078 22.1689 19.9841 22.0664L19.745 21.0388H18.9119V22.8783H19.4427L19.4375 21.8351C19.4375 21.7431 19.4322 21.659 19.4245 21.5644L19.7266 22.8783H20.3415L20.6175 21.5565C20.6096 21.6511 20.6043 21.7405 20.6043 21.8324L20.5991 22.8782H21.1299V21.0387H20.2942L20.0762 22.0663L20.076 22.0664Z" fill="black"/>
<path d="M22.6882 21.0388H21.9577L21.298 22.8783H21.8971L22.0075 22.5289H22.6329L22.7433 22.8783H23.3477L22.6882 21.0388ZM22.1494 22.0769L22.2519 21.7536C22.2835 21.6512 22.3098 21.5724 22.3203 21.5093C22.3333 21.5724 22.3571 21.6512 22.3886 21.7511L22.491 22.077L22.1494 22.0769Z" fill="black"/>
<path d="M23.1876 21.5146H23.7525V22.8783H24.3202V21.5146H24.8799V21.0388H23.1876V21.5146Z" fill="black"/>
<path d="M25.6577 21.0388H25.0902V22.8783H25.6577V21.0388Z" fill="black"/>
<path d="M25.9124 21.9585C25.9124 22.5839 26.3197 22.9282 26.8715 22.9282C27.4234 22.9282 27.8518 22.5682 27.8518 21.9585C27.8518 21.3489 27.4261 20.9889 26.8715 20.9889C26.317 20.9889 25.9124 21.3331 25.9124 21.9585ZM27.2579 21.9585C27.2579 22.2897 27.0949 22.4553 26.8715 22.4553C26.6481 22.4553 26.5063 22.2897 26.5063 21.9585C26.5063 21.6248 26.6483 21.4619 26.8715 21.4619C27.0948 21.4619 27.2579 21.6248 27.2579 21.9585Z" fill="black"/>
<path d="M29.8885 22.8783L29.8859 21.0388H29.3393L29.3445 21.8377C29.3445 21.935 29.3472 22.0086 29.3577 22.1006L28.9005 21.039H28.1069V22.8784H28.6534L28.6482 21.8615C28.6482 21.7432 28.6455 21.6775 28.635 21.5987L29.2054 22.8784H29.8886L29.8885 22.8783Z" fill="black"/>
<path d="M8.5667 24.0044H8.02589V25.757H8.5667V24.0044Z" fill="black"/>
<path d="M10.4392 25.757L10.4367 24.0044H9.91591L9.92092 24.7654C9.92092 24.8581 9.92355 24.9283 9.93343 25.0159L9.49788 24.0044H8.7418V25.757H9.26258L9.25758 24.7881C9.25758 24.6755 9.25495 24.6129 9.24494 24.5377L9.78825 25.757H10.4392Z" fill="black"/>
<path d="M11.0674 25.757H11.6082V25.1736H12.3568V24.7205H11.6082V24.4576H12.4094V24.0044H11.0674V25.757Z" fill="black"/>
<path d="M13.0549 24.0044H12.5141V25.757H13.0549V24.0044Z" fill="black"/>
<path d="M14.4044 24.0044L14.4094 24.7654C14.4094 24.8581 14.4119 24.9283 14.4219 25.0159L13.9863 24.0044H13.2301V25.757H13.7509L13.7459 24.7881C13.7459 24.6755 13.7434 24.6129 13.7334 24.5377L14.2767 25.757H14.9276L14.925 24.0044H14.4044Z" fill="black"/>
<path d="M16.3167 25.5642C16.309 25.6318 16.3066 25.6693 16.3066 25.7294V25.757H16.7924V24.7705H15.926V25.141H16.2666C16.2416 25.2788 16.1288 25.3715 15.9712 25.3715C15.7284 25.3715 15.6006 25.1962 15.6006 24.8832C15.6006 24.5553 15.7584 24.4001 15.9637 24.4001C16.1089 24.4001 16.204 24.4802 16.2265 24.6029H16.7849C16.7573 24.2323 16.4469 23.9569 15.9662 23.9569C15.4229 23.9569 15.0349 24.3325 15.0349 24.9084C15.0349 25.4692 15.3554 25.8046 15.816 25.8046C16.0488 25.8046 16.2366 25.7121 16.3168 25.5643L16.3167 25.5642Z" fill="black"/>
<path d="M17.4855 25.0985H18.2391V24.6653H17.4855V24.4576H18.2816V24.0044H16.9447V25.757H18.3242V25.3039H17.4855V25.0985Z" fill="black"/>
<path d="M19.9463 24.4901C19.9463 24.1495 19.6759 24.0044 19.3228 24.0044H18.4466V25.757H18.9724V25.1511H19.1451C19.2953 25.1511 19.3705 25.2011 19.3705 25.3564V25.757H19.9138V25.3089C19.9138 25.0935 19.8262 24.9608 19.5958 24.9233C19.7787 24.8732 19.9463 24.738 19.9463 24.4901ZM19.2052 24.7255H18.9724V24.44H19.2027C19.3203 24.44 19.4054 24.4677 19.4054 24.5778C19.4054 24.693 19.3203 24.7255 19.2052 24.7255Z" fill="black"/>
<path d="M21.5708 25.1936C21.5708 24.8407 21.3028 24.7005 21.0175 24.6579L20.7545 24.6179C20.6294 24.5979 20.5668 24.5703 20.5668 24.5027C20.5668 24.4251 20.6519 24.3775 20.7595 24.3775C20.9147 24.3775 20.9823 24.4577 20.995 24.5653H21.5557C21.5331 24.2047 21.2727 23.9569 20.7769 23.9569C20.3514 23.9569 20.0285 24.1773 20.0285 24.5378C20.0285 24.8633 20.2788 25.006 20.5792 25.0586L20.8772 25.1111C20.9773 25.1288 21.0299 25.1637 21.0299 25.2314C21.0299 25.3215 20.9323 25.3691 20.8196 25.3691C20.6594 25.3691 20.5516 25.289 20.5416 25.1363H19.9783C19.9933 25.5645 20.3312 25.8048 20.8046 25.8048C21.3254 25.8048 21.5707 25.5294 21.5707 25.1939L21.5708 25.1936Z" fill="black"/>
<path d="M22.7855 25.6218V25.2287H23.1461V24.7905H22.7855V24.3975H22.3224V24.7905H21.9618V25.2287H22.3224V25.6218H22.7855Z" fill="black"/>
<path d="M24.5216 25.757V24.4576H25.0549V24.0044H23.4424V24.4576H23.9807V25.757H24.5216Z" fill="black"/>
<path d="M25.9108 25.8045C26.4391 25.8045 26.8446 25.4616 26.8446 24.8807C26.8446 24.2999 26.4391 23.9568 25.9108 23.9568C25.3825 23.9568 24.9969 24.2847 24.9969 24.8807C24.9969 25.4767 25.385 25.8045 25.9108 25.8045ZM25.9108 24.4075C26.1236 24.4075 26.2788 24.5627 26.2788 24.8807C26.2788 25.1962 26.1236 25.3538 25.9108 25.3538C25.698 25.3538 25.5628 25.1961 25.5628 24.8807C25.5628 24.5627 25.6979 24.4075 25.9108 24.4075Z" fill="black"/>
<path d="M28.2888 24.4576V24.0044H26.9519V25.757H28.3314V25.3039H27.4927V25.0985H28.2464V24.6653H27.4927V24.4576H28.2888Z" fill="black"/>
<path d="M29.4078 24.6579L29.1448 24.6179C29.0196 24.5979 28.9571 24.5703 28.9571 24.5027C28.9571 24.4251 29.0422 24.3775 29.1498 24.3775C29.305 24.3775 29.3726 24.4577 29.3852 24.5653H29.9459C29.9234 24.2047 29.663 23.9569 29.1672 23.9569C28.7417 23.9569 28.4187 24.1773 28.4187 24.5378C28.4187 24.8633 28.6691 25.006 28.9694 25.0586L29.2674 25.1111C29.3676 25.1288 29.4201 25.1637 29.4201 25.2314C29.4201 25.3215 29.3225 25.3691 29.2099 25.3691C29.0497 25.3691 28.9419 25.289 28.9319 25.1363H28.3686C28.3836 25.5645 28.7215 25.8048 29.1949 25.8048C29.7156 25.8048 29.961 25.5294 29.961 25.1939C29.961 24.8409 29.693 24.7007 29.4076 24.6582L29.4078 24.6579Z" fill="black"/>
<path d="M8.68873 26.7332L7.87195 29.0111H8.61401L8.75069 28.5783H9.52517L9.66184 29.0111H10.4103L9.5935 26.7332H8.68873ZM8.92628 28.0187L9.05319 27.6184C9.09224 27.4914 9.12478 27.3939 9.1378 27.3158C9.15407 27.3939 9.18336 27.4914 9.22241 27.6152L9.34944 28.0188H8.92641L8.92628 28.0187Z" fill="black"/>
<path d="M10.1107 27.3222H10.8103V29.0111H11.5132V27.3222H12.2064V26.7332H10.1107V27.3222Z" fill="black"/>
<path d="M14.2538 27.8526C14.436 27.7843 14.5987 27.6183 14.5987 27.3482C14.5987 26.9186 14.218 26.6714 13.7071 26.6714C13.1212 26.6714 12.7568 27 12.7372 27.4751H13.4336C13.4401 27.3222 13.541 27.2246 13.7005 27.2246C13.8373 27.2246 13.9219 27.2962 13.9219 27.4166C13.9219 27.5565 13.8015 27.6053 13.655 27.6053H13.463V28.1194H13.668C13.8374 28.1194 13.9479 28.1715 13.9479 28.3114C13.9479 28.4481 13.8469 28.5197 13.6907 28.5197C13.4955 28.5197 13.4012 28.3993 13.3978 28.2106H12.6949C12.7014 28.7475 13.0563 29.0729 13.6744 29.0729C14.2406 29.0729 14.6248 28.7865 14.6248 28.357C14.6248 28.0967 14.4686 27.9242 14.2538 27.8526Z" fill="black"/>
<path d="M16.8249 28.0056C16.7989 28.1326 16.7795 28.2367 16.7697 28.3311C16.76 28.2367 16.7404 28.1326 16.7112 28.0056L16.415 26.7332H15.3835V29.0111H16.0408L16.0343 27.7192C16.0343 27.6053 16.0277 27.5012 16.0179 27.384L16.3921 29.0111H17.1537L17.4953 27.3743C17.4855 27.4914 17.479 27.602 17.479 27.7159L17.4725 29.0111H18.1298V26.7332H17.0949L16.8249 28.0056Z" fill="black"/>
<path d="M19.5324 26.6714C18.849 26.6714 18.3446 27.0977 18.3446 27.8723C18.3446 28.6469 18.849 29.073 19.5324 29.073C20.2157 29.073 20.7461 28.6272 20.7461 27.8723C20.7461 27.1173 20.219 26.6714 19.5324 26.6714ZM19.5324 28.4873C19.2558 28.4873 19.08 28.2822 19.08 27.8723C19.08 27.4589 19.2558 27.2571 19.5324 27.2571C19.809 27.2571 20.0107 27.4589 20.0107 27.8723C20.0107 28.2822 19.809 28.4873 19.5324 28.4873Z" fill="black"/>
<path d="M22.487 26.7332L22.4935 27.7224C22.4935 27.8428 22.4967 27.9338 22.5099 28.0479L21.9437 26.7332H20.9608V29.0111H21.6376L21.6311 27.7517C21.6311 27.6053 21.6279 27.5241 21.6149 27.4263L22.321 29.0111H23.1672L23.164 26.7332H22.487Z" fill="black"/>
<path d="M23.3265 27.3222H24.0262V29.0111H24.7291V27.3222H25.4222V26.7332H23.3265V27.3222Z" fill="black"/>
<path d="M26.9744 27.5728H26.2845V26.7332H25.5817V29.0111H26.2845V28.1618H26.9744V29.0111H27.6773V26.7332H26.9744V27.5728Z" fill="black"/>
<path d="M29.2198 27.5825L28.8781 27.5305C28.7154 27.5044 28.634 27.4686 28.634 27.3808C28.634 27.2799 28.7447 27.2181 28.8846 27.2181C29.0863 27.2181 29.1742 27.3222 29.1905 27.4621H29.9194C29.8901 26.9935 29.5517 26.6714 28.9074 26.6714C28.354 26.6714 27.9344 26.9577 27.9344 27.4263C27.9344 27.8494 28.2598 28.0348 28.6503 28.1032L29.0377 28.1715C29.1678 28.1943 29.2362 28.2399 29.2362 28.3277C29.2362 28.445 29.1091 28.5067 28.9627 28.5067C28.7544 28.5067 28.6145 28.4026 28.6015 28.2041H27.8692C27.8887 28.7605 28.328 29.0729 28.9432 29.0729C29.62 29.0729 29.9389 28.715 29.9389 28.2789C29.9389 27.8201 29.5907 27.6378 29.2198 27.5825Z" fill="black"/>
</svg>
