<svg width="32" height="32" viewBox="0 0 32 32" fill="none" xmlns="http://www.w3.org/2000/svg">
<path d="M29.7883 11.782C29.7883 11.0427 29.629 10.4522 29.2872 9.92339C29.0869 9.61344 28.8197 9.33194 28.5006 9.09293L27.8189 8.56766V2.94269H26.3149V9.3075L27.5907 10.2902C27.775 10.4284 27.9207 10.5795 28.0242 10.7397C28.2066 11.0218 28.2844 11.3335 28.2844 11.7818C28.2844 13.116 27.199 14.2014 25.8649 14.2014H10.6506C10.1656 14.2014 9.7708 13.8067 9.7708 13.3216C9.7708 12.9835 10.0539 12.6097 10.3905 12.5019L20.8001 9.50327L20.8005 2.92139H19.2965L19.2961 8.37139L9.96544 11.0592L9.95078 11.0636C8.97506 11.3664 8.2668 12.316 8.2668 13.3216C8.2668 14.6359 9.33615 15.7054 10.6506 15.7054H25.8649C28.0284 15.7054 29.7884 13.9453 29.7884 11.7818L29.7883 11.782Z" fill="black"/>
<path d="M22.0536 9.20937V10.7134C23.574 10.7134 24.8109 9.47645 24.8109 7.95603H23.3069C23.3069 8.64712 22.7447 9.20937 22.0536 9.20937Z" fill="black"/>
<path d="M6.48193 11.9759L7.54538 10.9124L4.00559 7.37273V9.49952L6.48193 11.9759Z" fill="black"/>
<path d="M7.54526 16.9893L6.4818 15.9257L4.00559 18.4021V20.529L7.54526 16.9893Z" fill="black"/>
<path d="M2 14.7029L6.01493 14.7039L6.01543 13.1999L2.00038 13.1989L2 14.7029Z" fill="black"/>
<path d="M9.67317 16.9219H8.13771V19.9928H9.05903V18.9311H9.36171C9.62504 18.9311 9.75651 19.0188 9.75651 19.2908V19.9928H10.7085V19.2075C10.7085 18.8302 10.555 18.5977 10.1514 18.5318C10.4718 18.4441 10.7656 18.2072 10.7656 17.7728C10.7656 17.1762 10.2918 16.9219 9.67317 16.9219ZM9.46687 18.1854H9.05891V17.6852H9.46248C9.66878 17.6852 9.81793 17.7335 9.81793 17.9266C9.81793 18.1283 9.66878 18.1854 9.46687 18.1854Z" fill="black"/>
<path d="M13.6215 19.1988H12.1519V18.839H13.4724V18.08H12.1519V17.7159H13.5468V16.9219H11.2042V19.9928H13.6215V19.1988Z" fill="black"/>
<path d="M17.0348 18.4617C17.0348 17.422 16.4073 16.9219 15.3193 16.9219H14.069V19.9928H15.2974C16.4512 19.9928 17.0348 19.3611 17.0348 18.4617ZM15.2229 19.1988H15.0166V17.7159H15.2579C15.8064 17.7159 16.0432 17.9836 16.0432 18.4617C16.0432 19.032 15.6748 19.1988 15.2229 19.1988Z" fill="black"/>
<path d="M17.425 16.9219V18.7207C17.425 19.5761 17.8944 20.0762 18.8026 20.0762C19.7107 20.0762 20.2064 19.5761 20.2064 18.7207V16.9219H19.2587V18.5802C19.2587 19.0452 19.1534 19.2733 18.8156 19.2733C18.4778 19.2733 18.3726 19.0452 18.3726 18.5802V16.9219H17.425Z" fill="black"/>
<path d="M22.7597 18.7074C22.7334 19.0848 22.5097 19.2997 22.1982 19.2997C21.8254 19.2997 21.5885 18.997 21.5885 18.4486C21.5885 17.8739 21.8692 17.6151 22.2159 17.6151C22.5449 17.6151 22.7204 17.8301 22.7467 18.1415H23.7207C23.6593 17.2905 23.0495 16.8385 22.2246 16.8385C21.3121 16.8385 20.597 17.4176 20.597 18.4486C20.597 19.4576 21.2111 20.0762 22.1589 20.0762C23.1283 20.0762 23.6856 19.4883 23.7294 18.7074H22.7597Z" fill="black"/>
<path d="M26.5369 19.1988H25.0671V18.839H26.3878V18.08H25.0671V17.7159H26.4622V16.9219H24.1196V19.9928H26.5369V19.1988Z" fill="black"/>
<path d="M28.2347 16.9219H26.9844V19.9928H28.2127C29.3666 19.9928 29.95 19.3611 29.95 18.4617C29.95 17.422 29.3226 16.9219 28.2346 16.9219H28.2347ZM28.1382 19.1988H27.9319V17.7159H28.1731C28.7216 17.7159 28.9585 17.9836 28.9585 18.4617C28.9585 19.032 28.59 19.1988 28.1382 19.1988Z" fill="black"/>
<path d="M8.60959 21.0335H8.0412V22.8755H8.60959V21.0335Z" fill="black"/>
<path d="M10.7172 21.0335H10.1699L10.1751 21.8335C10.1751 21.9308 10.1778 22.0045 10.1882 22.0967L9.73032 21.0336H8.93558V22.8756H9.48291L9.47765 21.8573C9.47765 21.7388 9.47501 21.673 9.46461 21.5941L10.0356 22.8756H10.7198L10.7172 21.0336V21.0335Z" fill="black"/>
<path d="M11.0462 22.8755H11.6146V22.2624H12.4014V21.7861H11.6146V21.5098H12.4567V21.0335H11.0462V22.8755Z" fill="black"/>
<path d="M14.0908 22.3992H13.2778V21.0335H12.7094V22.8755H14.0908V22.3992Z" fill="black"/>
<path d="M14.1671 22.8755H14.7671L14.8776 22.5255H15.5039L15.6145 22.8755H16.2197L15.5591 21.0335H14.8275L14.1671 22.8755ZM15.1223 21.7492C15.1539 21.6467 15.1802 21.5678 15.1907 21.5046C15.2039 21.5678 15.2276 21.6467 15.2592 21.7467L15.3618 22.0731H15.0198L15.1223 21.7494V21.7492Z" fill="black"/>
<path d="M18.0775 22.8755H18.6091V21.0335H17.7722L17.5539 22.0624C17.5328 22.165 17.517 22.2492 17.5091 22.3256C17.5014 22.2493 17.4856 22.1651 17.4618 22.0624L17.2224 21.0335H16.3882V22.8755H16.9197L16.9144 21.8308C16.9144 21.7387 16.9092 21.6545 16.9014 21.5597L17.204 22.8755H17.8197L18.0961 21.5518C18.0882 21.6466 18.0829 21.7361 18.0829 21.8281L18.0777 22.8754L18.0775 22.8755Z" fill="black"/>
<path d="M20.6249 22.8755H21.1565V21.0335H20.3196L20.1013 22.0624C20.0802 22.165 20.0644 22.2492 20.0565 22.3256C20.0488 22.2493 20.033 22.1651 20.0092 22.0624L19.7698 21.0335H18.9356V22.8755H19.4671L19.4618 21.8308C19.4618 21.7387 19.4566 21.6545 19.4488 21.5597L19.7514 22.8755H20.3671L20.6435 21.5518C20.6356 21.6466 20.6303 21.7361 20.6303 21.8281L20.6251 22.8754L20.6249 22.8755Z" fill="black"/>
<path d="M22.7171 21.0335H21.9856L21.3249 22.8755H21.9249L22.0354 22.5255H22.6617L22.7723 22.8755H23.3775L22.7171 21.0335ZM22.1776 22.073L22.2802 21.7492C22.3118 21.6467 22.3381 21.5678 22.3486 21.5046C22.3617 21.5678 22.3855 21.6467 22.4171 21.7467L22.5196 22.0731L22.1776 22.073Z" fill="black"/>
<path d="M23.7828 22.8755H24.3513V21.5098H24.9118V21.0335H23.2172V21.5098H23.7828V22.8755Z" fill="black"/>
<path d="M25.6908 21.0335H25.1224V22.8755H25.6908V21.0335Z" fill="black"/>
<path d="M27.8879 21.9544C27.8879 21.3439 27.4616 20.9834 26.9063 20.9834C26.3509 20.9834 25.9458 21.3281 25.9458 21.9544C25.9458 22.5807 26.3537 22.9255 26.9063 22.9255C27.4589 22.9255 27.8879 22.5649 27.8879 21.9544ZM26.5405 21.9544C26.5405 21.6203 26.6827 21.4571 26.9063 21.4571C27.1299 21.4571 27.2932 21.6203 27.2932 21.9544C27.2932 22.286 27.13 22.4519 26.9063 22.4519C26.6826 22.4519 26.5405 22.286 26.5405 21.9544Z" fill="black"/>
<path d="M29.9274 22.8755L29.9248 21.0335H29.3775L29.3827 21.8335C29.3827 21.9308 29.3854 22.0045 29.3959 22.0967L28.9381 21.0336H28.1433V22.8756H28.6906L28.6854 21.8573C28.6854 21.7388 28.6827 21.673 28.6722 21.5941L29.2434 22.8756H29.9276L29.9274 22.8755Z" fill="black"/>
<path d="M8.57587 24.0031H8.03431V25.7582H8.57587V24.0031Z" fill="black"/>
<path d="M10.451 25.7582L10.4485 24.0031H9.92697L9.93198 24.7653C9.93198 24.858 9.93461 24.9283 9.94451 25.0161L9.50835 24.0031H8.75121V25.7582H9.27273L9.26771 24.7879C9.26771 24.6751 9.26508 24.6125 9.25505 24.5372L9.79913 25.7582H10.451Z" fill="black"/>
<path d="M11.08 25.7582H11.6216V25.174H12.3712V24.7203H11.6216V24.4569H12.424V24.0031H11.08V25.7582Z" fill="black"/>
<path d="M13.0703 24.0031H12.5288V25.7582H13.0703V24.0031Z" fill="black"/>
<path d="M14.4217 24.0031L14.4267 24.7653C14.4267 24.858 14.4292 24.9283 14.4392 25.0161L14.0031 24.0031H13.2458V25.7582H13.7673L13.7623 24.7879C13.7623 24.6751 13.7598 24.6125 13.7498 24.5372L14.2938 25.7582H14.9457L14.9431 24.0031H14.4217Z" fill="black"/>
<path d="M16.3366 25.5651C16.329 25.6328 16.3266 25.6704 16.3266 25.7306V25.7582H16.813V24.7703H15.9455V25.1414H16.2865C16.2614 25.2794 16.1485 25.3721 15.9907 25.3721C15.7476 25.3721 15.6196 25.1967 15.6196 24.8832C15.6196 24.5548 15.7777 24.3994 15.9832 24.3994C16.1286 24.3994 16.2238 24.4796 16.2464 24.6025H16.8055C16.7779 24.2313 16.4671 23.9556 15.9857 23.9556C15.4416 23.9556 15.0531 24.3317 15.0531 24.9084C15.0531 25.47 15.3741 25.8059 15.8353 25.8059C16.0684 25.8059 16.2564 25.7133 16.3368 25.5653L16.3366 25.5651Z" fill="black"/>
<path d="M17.5071 25.0988H18.2618V24.665H17.5071V24.4569H18.3044V24.0031H16.9656V25.7582H18.347V25.3044H17.5071V25.0988Z" fill="black"/>
<path d="M19.9713 24.4895C19.9713 24.1485 19.7006 24.0031 19.347 24.0031H18.4696V25.7582H18.9961V25.1514H19.1691C19.3195 25.1514 19.3948 25.2015 19.3948 25.3571V25.7582H19.9389V25.3095C19.9389 25.0938 19.8511 24.9609 19.6204 24.9233C19.8035 24.8732 19.9713 24.7378 19.9713 24.4895ZM19.2292 24.7253H18.9961V24.4394H19.2267C19.3445 24.4394 19.4298 24.4671 19.4298 24.5774C19.4298 24.6927 19.3445 24.7253 19.2292 24.7253Z" fill="black"/>
<path d="M21.5981 25.194C21.5981 24.8406 21.3298 24.7002 21.044 24.6576L20.7807 24.6175C20.6554 24.5974 20.5927 24.5699 20.5927 24.5022C20.5927 24.4245 20.6779 24.3767 20.7857 24.3767C20.9411 24.3767 21.0088 24.4571 21.0215 24.5649H21.583C21.5604 24.2038 21.2996 23.9556 20.8032 23.9556C20.377 23.9556 20.0537 24.1763 20.0537 24.5373C20.0537 24.8633 20.3043 25.0062 20.6051 25.0588L20.9035 25.1114C21.0038 25.1291 21.0565 25.1641 21.0565 25.2319C21.0565 25.3221 20.9587 25.3697 20.8459 25.3697C20.6855 25.3697 20.5776 25.2895 20.5675 25.1366H20.0034C20.0184 25.5654 20.3568 25.806 20.8309 25.806C21.3524 25.806 21.598 25.5303 21.598 25.1943L21.5981 25.194Z" fill="black"/>
<path d="M22.8145 25.6228V25.2291H23.1756V24.7903H22.8145V24.3968H22.3508V24.7903H21.9897V25.2291H22.3508V25.6228H22.8145Z" fill="black"/>
<path d="M24.553 25.7582V24.4569H25.0871V24.0031H23.4724V24.4569H24.0114V25.7582H24.553Z" fill="black"/>
<path d="M25.9442 25.8058C26.4732 25.8058 26.8793 25.4624 26.8793 24.8807C26.8793 24.299 26.4732 23.9555 25.9442 23.9555C25.4152 23.9555 25.029 24.2839 25.029 24.8807C25.029 25.4775 25.4177 25.8058 25.9442 25.8058ZM25.9442 24.4068C26.1573 24.4068 26.3127 24.5622 26.3127 24.8807C26.3127 25.1967 26.1573 25.3545 25.9442 25.3545C25.7311 25.3545 25.5957 25.1965 25.5957 24.8807C25.5957 24.5622 25.731 24.4068 25.9442 24.4068Z" fill="black"/>
<path d="M28.3682 25.3044H27.5283V25.0988H28.2831V24.665H27.5283V24.4569H28.3255V24.0031H26.9867V25.7582H28.3682V25.3044Z" fill="black"/>
<path d="M29.446 24.6576L29.1827 24.6175C29.0574 24.5974 28.9947 24.5699 28.9947 24.5022C28.9947 24.4245 29.0799 24.3767 29.1877 24.3767C29.3431 24.3767 29.4108 24.4571 29.4235 24.5649H29.985C29.9624 24.2038 29.7016 23.9556 29.2051 23.9556C28.779 23.9556 28.4556 24.1763 28.4556 24.5373C28.4556 24.8633 28.7063 25.0062 29.0071 25.0588L29.3055 25.1114C29.4058 25.1291 29.4584 25.1641 29.4584 25.2319C29.4584 25.3221 29.3607 25.3697 29.2479 25.3697C29.0875 25.3697 28.9795 25.2895 28.9695 25.1366H28.4054C28.4204 25.5654 28.7588 25.806 29.2328 25.806C29.7543 25.806 30 25.5303 30 25.1943C30 24.8408 29.7317 24.7005 29.4459 24.6578L29.446 24.6576Z" fill="black"/>
<path d="M8.69807 26.7358L7.88015 29.0168H8.62325L8.76011 28.5834H9.53568L9.67254 29.0168H10.422L9.60411 26.7358H8.69807ZM8.93596 28.0231L9.06304 27.6222C9.10215 27.495 9.13473 27.3974 9.14777 27.3192C9.16406 27.3974 9.19339 27.495 9.23249 27.619L9.35971 28.0232H8.93608L8.93596 28.0231Z" fill="black"/>
<path d="M10.122 27.3256H10.8226V29.0168H11.5265V27.3256H12.2207V26.7358H10.122V27.3256Z" fill="black"/>
<path d="M14.2709 27.8567C14.4534 27.7883 14.6163 27.6221 14.6163 27.3516C14.6163 26.9214 14.2351 26.6738 13.7234 26.6738C13.1368 26.6738 12.7718 27.003 12.7522 27.4787H13.4496C13.4561 27.3256 13.5571 27.2278 13.7168 27.2278C13.8538 27.2278 13.9385 27.2995 13.9385 27.4201C13.9385 27.5602 13.8179 27.6091 13.6713 27.6091H13.479V28.1239H13.6843C13.8539 28.1239 13.9646 28.1761 13.9646 28.3162C13.9646 28.4531 13.8634 28.5248 13.707 28.5248C13.5115 28.5248 13.4171 28.4042 13.4137 28.2152H12.7099C12.7164 28.7529 13.0717 29.0787 13.6907 29.0787C14.2577 29.0787 14.6424 28.792 14.6424 28.3618C14.6424 28.1011 14.486 27.9284 14.2709 27.8567Z" fill="black"/>
<path d="M16.8456 28.0099C16.8196 28.1371 16.8001 28.2414 16.7904 28.3359C16.7806 28.2414 16.761 28.1371 16.7317 28.0099L16.4352 26.7358H15.4022V29.0168H16.0604L16.0539 27.7231C16.0539 27.6091 16.0473 27.5048 16.0375 27.3875L16.4122 29.0168H17.1749L17.5169 27.3777C17.5071 27.495 17.5006 27.6058 17.5006 27.7199L17.4941 29.0168H18.1524V26.7358H17.116L16.8456 28.0099Z" fill="black"/>
<path d="M19.5568 26.6738C18.8725 26.6738 18.3674 27.1007 18.3674 27.8764C18.3674 28.6521 18.8725 29.0789 19.5568 29.0789C20.2412 29.0789 20.7723 28.6324 20.7723 27.8764C20.7723 27.1204 20.2444 26.6738 19.5568 26.6738ZM19.5568 28.4923C19.2799 28.4923 19.1039 28.2869 19.1039 27.8764C19.1039 27.4624 19.2799 27.2604 19.5568 27.2604C19.8338 27.2604 20.0359 27.4624 20.0359 27.8764C20.0359 28.2869 19.8338 28.4923 19.5568 28.4923Z" fill="black"/>
<path d="M22.5156 26.7358L22.5221 27.7264C22.5221 27.847 22.5254 27.9381 22.5385 28.0523L21.9715 26.7358H20.9873V29.0168H21.6651L21.6586 27.7557C21.6586 27.6091 21.6553 27.5277 21.6423 27.4298L22.3494 29.0168H23.1968L23.1935 26.7358H22.5156Z" fill="black"/>
<path d="M23.3563 27.3256H24.0569V29.0168H24.7608V27.3256H25.4549V26.7358H23.3563V27.3256Z" fill="black"/>
<path d="M27.0093 27.5765H26.3185V26.7358H25.6146V29.0168H26.3185V28.1663H27.0093V29.0168H27.7132V26.7358H27.0093V27.5765Z" fill="black"/>
<path d="M29.2578 27.5863L28.9156 27.5341C28.7527 27.5081 28.6712 27.4722 28.6712 27.3842C28.6712 27.2832 28.782 27.2213 28.9221 27.2213C29.1242 27.2213 29.2122 27.3256 29.2284 27.4657H29.9584C29.9291 26.9964 29.5902 26.6738 28.9449 26.6738C28.3908 26.6738 27.9706 26.9606 27.9706 27.4298C27.9706 27.8535 28.2965 28.0392 28.6875 28.1077L29.0754 28.1761C29.2058 28.1989 29.2742 28.2445 29.2742 28.3325C29.2742 28.4499 29.147 28.5117 29.0003 28.5117C28.7918 28.5117 28.6517 28.4075 28.6386 28.2087H27.9053C27.9249 28.7659 28.3648 29.0787 28.9808 29.0787C29.6586 29.0787 29.9779 28.7203 29.9779 28.2836C29.9779 27.8241 29.6293 27.6417 29.2578 27.5863Z" fill="black"/>
</svg>
