<svg width="32" height="32" viewBox="0 0 32 32" fill="none" xmlns="http://www.w3.org/2000/svg">
<path d="M17.0059 9.51109C17.008 7.50802 16.23 5.62406 14.8152 4.20627C13.1167 2.50428 10.7622 1.74727 8.46142 2.07459L6.32987 4.20152L10.5816 8.45663L10.3688 10.3655L8.45979 10.5768L4.20656 6.3202L2.08113 8.44113C1.74918 10.7415 2.50132 13.0987 4.19881 14.7998C5.61372 16.2177 7.49594 16.9998 9.49901 17.0018H9.50726C11.5071 17.0018 13.3881 16.224 14.8038 14.8112C16.2217 13.3964 17.0038 11.514 17.0059 9.51109ZM9.50714 15.0023H9.50114C8.03223 15.0006 6.65194 14.4272 5.61435 13.3875C4.43065 12.2012 3.87299 10.5798 4.03034 8.97293L7.72466 12.6702L10.1365 12.4032L12.4063 10.1383L12.6755 7.72299L8.98134 4.0258C10.5908 3.86932 12.2136 4.42986 13.3998 5.61856C15.5416 7.76511 15.5379 11.2538 13.3914 13.3956C12.3531 14.4319 10.9739 15.0021 9.50726 15.0021L9.50714 15.0023Z" fill="black"/>
<path d="M28.9733 24.0267L18.965 14.0414L17.5525 15.4569L27.5595 25.4408C28.1438 26.0261 28.1431 26.9775 27.5578 27.5619C27.2746 27.8447 26.8984 28.0003 26.4982 28.0003H26.4969C26.0963 27.9999 25.7198 27.8437 25.4379 27.5612L15.4679 17.5434L14.0505 18.954L24.0216 28.973C24.682 29.6346 25.5605 29.9993 26.4952 30H26.4981C27.4317 30 28.3098 29.6367 28.9704 28.9769C30.336 27.6136 30.3377 25.3934 28.9731 24.0267H28.9733Z" fill="black"/>
</svg>
