<svg width="32" height="32" viewBox="0 0 32 32" fill="none" xmlns="http://www.w3.org/2000/svg">
<path d="M21.6519 20.9719H10.287V22.3926H21.6519V20.9719Z" fill="black"/>
<path d="M11.242 16.7278C12.6781 16.7278 13.8465 15.5595 13.8465 14.1234C13.8465 12.6872 12.6781 11.5189 11.242 11.5189C9.80585 11.5189 8.63751 12.6872 8.63751 14.1234C8.63751 15.5595 9.80585 16.7278 11.242 16.7278ZM11.242 12.9395C11.8948 12.9395 12.4258 13.4706 12.4258 14.1234C12.4258 14.7761 11.8948 15.3072 11.242 15.3072C10.5892 15.3072 10.0581 14.7761 10.0581 14.1234C10.0581 13.4706 10.5892 12.9395 11.242 12.9395Z" fill="black"/>
<path d="M20.7039 16.7278C22.1401 16.7278 23.3084 15.5595 23.3084 14.1234C23.3084 12.6872 22.1401 11.5189 20.7039 11.5189C19.2678 11.5189 18.0994 12.6872 18.0994 14.1234C18.0994 15.5595 19.2678 16.7278 20.7039 16.7278ZM20.7039 12.9395C21.3567 12.9395 21.8878 13.4706 21.8878 14.1234C21.8878 14.7761 21.3567 15.3072 20.7039 15.3072C20.0511 15.3072 19.5201 14.7761 19.5201 14.1234C19.5201 13.4706 20.0511 12.9395 20.7039 12.9395Z" fill="black"/>
<path d="M16 30C23.7197 30 30 23.7197 30 16C30 8.28034 23.7197 2 16 2C8.28034 2 2 8.28034 2 16C2 23.7197 8.28034 30 16 30ZM16 3.42062C22.9363 3.42062 28.5794 9.06369 28.5794 16C28.5794 22.9363 22.9363 28.5794 16 28.5794C9.06369 28.5794 3.42062 22.9363 3.42062 16C3.42062 9.06369 9.06369 3.42062 16 3.42062Z" fill="black"/>
</svg>
