<svg width="32" height="32" viewBox="0 0 32 32" fill="none" xmlns="http://www.w3.org/2000/svg">
<path d="M9 19C7.34587 19 6 20.3459 6 22C6 23.6541 7.34587 25 9 25C10.6541 25 12 23.6541 12 22C12 20.3459 10.6541 19 9 19ZM9 23C8.44863 23 8 22.5514 8 22C8 21.4486 8.44863 21 9 21C9.55137 21 10 21.4486 10 22C10 22.5514 9.55137 23 9 23Z" fill="black"/>
<path d="M23 19C21.3459 19 20 20.3459 20 22C20 23.6541 21.3459 25 23 25C24.6541 25 26 23.6541 26 22C26 20.3459 24.6541 19 23 19ZM23 23C22.4486 23 22 22.5514 22 22C22 21.4486 22.4486 21 23 21C23.5514 21 24 21.4486 24 22C24 22.5514 23.5514 23 23 23Z" fill="black"/>
<path d="M28 2V12C28 13.1027 27.1027 14 26 14H21.25L17 19.6666V30H19V20.3334L22.25 16H26C28.2056 16 30 14.2056 30 12V2H28Z" fill="black"/>
<path d="M6 14C4.89725 14 4 13.1027 4 12V2H2V12C2 14.2056 3.79437 16 6 16H9.75L13 20.3334V30H15V19.6666L10.75 14H6Z" fill="black"/>
<path d="M25 2V10.5C25 7.46725 22.5327 5 19.5 5H12.5C9.46725 5 7 7.46725 7 10.5V2H5V11.75C5 12.4392 5.56075 13 6.25 13H9.67138L9.20012 11.6667C9.06737 11.291 8.99988 10.8985 8.99988 10.5C8.99988 8.57013 10.57 7 12.4999 7H19.4999C21.4297 7 22.9999 8.57013 22.9999 10.5C22.9999 10.8985 22.9325 11.291 22.7996 11.6667L22.3284 13H25.7498C26.439 13 26.9998 12.4392 26.9998 11.75V2H24.9998H25Z" fill="black"/>
</svg>
