<svg width="32" height="32" viewBox="0 0 32 32" fill="none" xmlns="http://www.w3.org/2000/svg">
<path d="M16.9022 20.6612H15.0396V23.4552H16.9022V20.6612Z" fill="black"/>
<path d="M16.9022 8.55389H15.0396V18.7985H16.9022V8.55389Z" fill="black"/>
<path d="M16 30C8.28031 30 2 23.7197 2 16C2 8.28031 8.28031 2 16 2C23.7197 2 30 8.28031 30 16C30 23.7197 23.7197 30 16 30ZM16 3.86266C9.30746 3.86266 3.86266 9.30746 3.86266 16C3.86266 22.6925 9.30746 28.1373 16 28.1373C22.6925 28.1373 28.1373 22.6925 28.1373 16C28.1373 9.30746 22.6925 3.86266 16 3.86266Z" fill="black"/>
</svg>
