<svg width="32" height="32" viewBox="0 0 32 32" fill="none" xmlns="http://www.w3.org/2000/svg">
<path d="M19.8182 2H12.1818V9.63636H19.8182V2ZM18.2909 8.10909H13.7091V3.52727H18.2909V8.10909Z" fill="black"/>
<path d="M2 30H9.63636V22.3636H2V30ZM3.52727 23.8909H8.10909V28.4727H3.52727V23.8909Z" fill="black"/>
<path d="M22.3636 22.3636V30H30V22.3636H22.3636ZM28.4727 28.4727H23.8909V23.8909H28.4727V28.4727Z" fill="black"/>
<path d="M5.05455 20.0678H6.58182V6.58182H9.89193V5.05455H5.05455V20.0678Z" fill="black"/>
<path d="M25.4182 20.0678H26.9455V5.05455H22.1101V6.58182H25.4182V20.0678Z" fill="black"/>
<path d="M20.0737 25.4182H11.9283V26.9455H20.0737V25.4182Z" fill="black"/>
</svg>
