<svg width="32" height="32" viewBox="0 0 32 32" fill="none" xmlns="http://www.w3.org/2000/svg">
<path d="M17.9986 3.50012C17.2536 3.50012 16.5504 3.77025 16 4.26375C15.4496 3.77025 14.7465 3.50012 14.0021 3.50012H6V22.5001H13.0028V20.5001H8V5.50012H14.0014C14.2681 5.50012 14.5187 5.604 14.7071 5.7925C14.896 5.98137 15 6.23262 15 6.50037L15.0029 24.0002H17.0029V23.1875C17.0029 22.8085 17.3112 22.5002 17.6901 22.5002H26V3.50012H17.9986ZM24 20.5001H17.6901C17.4526 20.5001 17.222 20.5311 17.0024 20.5892L16.9999 6.50012C16.9999 6.23262 17.1039 5.98137 17.2926 5.7925C17.4811 5.60387 17.7319 5.50012 17.9985 5.50012H23.9999V20.5001H24Z" fill="black"/>
<path d="M12.2192 28.5001H19.7808L20.2808 26.5001H30V6.50012H28V24.5001H18.7192L18.2192 26.5001H13.7808L13.2808 24.5001H4V6.50012H2V26.5001H11.7192L12.2192 28.5001Z" fill="black"/>
</svg>
