<svg width="32" height="32" viewBox="0 0 32 32" fill="none" xmlns="http://www.w3.org/2000/svg">
<path d="M17.5752 23.6648L19.1973 22.0503L18.12 20.968L16.4953 22.5851L14.7479 20.838H15.0953C15.1576 20.838 15.219 20.8353 15.2802 20.8312C16.0464 20.781 16.729 20.4214 17.2045 19.8762C17.6339 19.3842 17.8948 18.7414 17.8948 18.0386C17.8948 16.4949 16.639 15.2391 15.0953 15.2391H12.1795V23.1329H13.7065V21.9563L15.4131 23.6626L13.791 25.2772L14.8683 26.3595L16.4929 24.7423L18.1189 26.3682L19.1985 25.2883L17.5751 23.665L17.5752 23.6648ZM13.7067 16.766H15.0955C15.7971 16.766 16.368 17.3368 16.368 18.0385C16.368 18.7401 15.7971 19.311 15.0955 19.311H13.7067V16.766Z" fill="black"/>
<path d="M27.9587 15.9156L26.3365 8.87647H24.7694L26.2357 15.239H22.1091V16.766H26.4318L26.4345 28.473H5.56558V16.766H9.8931V15.239H5.7618L7.2295 8.87647H5.66241L4.03857 15.9156V30H27.9617L27.9587 15.9156Z" fill="black"/>
<path d="M26.9436 2.00496H24.7527L24.7516 2H7.24871L7.24757 2.00496H5.05658V7.60397H26.9436V2.00496ZM25.4166 6.07697H6.58358V3.53196H25.4166V6.07697Z" fill="black"/>
</svg>
