<svg width="32" height="32" viewBox="0 0 32 32" fill="none" xmlns="http://www.w3.org/2000/svg">
<path d="M2.00488 30H7.70999V28.9635H3.04142V11.3224H7.70999V10.2858H2.00488V30Z" fill="black"/>
<path d="M9.27244 29.9804H22.739V2H9.27244V29.9804ZM10.309 3.03654H21.7025V28.9439H10.309V3.03654Z" fill="black"/>
<path d="M19.1119 6.1446H12.8927V7.18114H19.1119V6.1446Z" fill="black"/>
<path d="M19.1119 10.2907H12.8927V11.3273H19.1119V10.2907Z" fill="black"/>
<path d="M19.1119 14.4369H12.8927V15.4734H19.1119V14.4369Z" fill="black"/>
<path d="M19.1119 18.5831H12.8927V19.6196H19.1119V18.5831Z" fill="black"/>
<path d="M19.1119 22.7292H12.8927V23.7657H19.1119V22.7292Z" fill="black"/>
<path d="M7.70999 14.4369H4.60037V15.4734H7.70999V14.4369Z" fill="black"/>
<path d="M24.2946 11.3224H28.9584V28.9635H24.2946V30H29.9949V10.2858H24.2946V11.3224Z" fill="black"/>
<path d="M27.4042 14.4369H24.2946V15.4734H27.4042V14.4369Z" fill="black"/>
<path d="M7.70999 18.5831H4.60037V19.6196H7.70999V18.5831Z" fill="black"/>
<path d="M27.4042 18.5831H24.2946V19.6196H27.4042V18.5831Z" fill="black"/>
<path d="M7.70999 22.7292H4.60037V23.7657H7.70999V22.7292Z" fill="black"/>
<path d="M27.4042 22.7292H24.2946V23.7657H27.4042V22.7292Z" fill="black"/>
</svg>
