<svg width="32" height="32" viewBox="0 0 32 32" fill="none" xmlns="http://www.w3.org/2000/svg">
<path d="M2.00488 30H8.0061V28.0009H4.00395V11.9891H8.0061V9.99004H2.00488V30Z" fill="black"/>
<path d="M9.01288 29.9811H22.9983V2H9.01288V29.9811ZM11.012 3.99907H20.9992V27.9821H11.012V3.99907Z" fill="black"/>
<path d="M19.001 5.99664H13.0038V7.99572H19.001V5.99664Z" fill="black"/>
<path d="M19.001 9.99479H13.0038V11.9939H19.001V9.99479Z" fill="black"/>
<path d="M19.001 13.9929H13.0038V15.992H19.001V13.9929Z" fill="black"/>
<path d="M19.001 17.9911H13.0038V19.9901H19.001V17.9911Z" fill="black"/>
<path d="M19.001 21.9892H13.0038V23.9883H19.001V21.9892Z" fill="black"/>
<path d="M8.0061 13.9929H5.00749V15.992H8.0061V13.9929Z" fill="black"/>
<path d="M23.9987 11.9891H27.9962V28.0009H23.9987V30H29.9953V9.99004H23.9987V11.9891Z" fill="black"/>
<path d="M26.9973 13.9929H23.9987V15.992H26.9973V13.9929Z" fill="black"/>
<path d="M8.0061 17.9911H5.00749V19.9901H8.0061V17.9911Z" fill="black"/>
<path d="M26.9973 17.9911H23.9987V19.9901H26.9973V17.9911Z" fill="black"/>
<path d="M8.0061 21.9892H5.00749V23.9883H8.0061V21.9892Z" fill="black"/>
<path d="M26.9973 21.9892H23.9987V23.9883H26.9973V21.9892Z" fill="black"/>
</svg>
