<svg width="32" height="32" viewBox="0 0 32 32" fill="none" xmlns="http://www.w3.org/2000/svg">
<path d="M27.0933 21.0918C26.0806 19.0663 25.8254 16.7409 26.3746 14.5441C27.1156 11.5797 27.4914 8.52717 27.4914 5.47149V2.02111H26.4921V5.47149C26.4921 8.44561 26.1264 11.4165 25.4051 14.3018C24.7982 16.7297 25.0801 19.2999 26.1993 21.5385L27.4882 24.1165C28.144 25.4277 28.4905 26.8957 28.4905 28.3617V29.9997H29.4897V28.3617C29.4897 26.7412 29.1068 25.1187 28.3821 23.6696L27.0933 21.0918Z" fill="black"/>
<path d="M3.50968 28.3619C3.50968 26.8959 3.85617 25.4278 4.51192 24.1166L5.80082 21.5387C6.92009 19.2999 7.20213 16.7298 6.59509 14.3019C5.87376 11.4165 5.50804 8.44561 5.50804 5.47162V2.02123H4.5088V5.47162C4.5088 8.5273 4.88464 11.5797 5.62558 14.5442C6.17478 16.7411 5.9196 19.0664 4.90687 21.0919L3.61797 23.6698C2.89327 25.1191 2.51031 26.7416 2.51031 28.362V30H3.50956L3.50968 28.3619Z" fill="black"/>
<path d="M13.5021 2.02111V2H12.5029V2.02111C12.5029 4.5006 10.4858 6.5177 8.00627 6.5177V7.51694C11.0367 7.51694 13.5021 5.05156 13.5021 2.02111Z" fill="black"/>
<path d="M23.9941 6.5177C21.5146 6.5177 19.4975 4.5006 19.4975 2.02111V2H18.4983V2.02111C18.4983 5.05156 20.9637 7.51694 23.9941 7.51694V6.5177Z" fill="black"/>
<path d="M17.9987 19.4867C17.9987 18.3848 17.1021 17.4882 16.0002 17.4882C14.8983 17.4882 14.0017 18.3848 14.0017 19.4867C14.0017 20.5886 14.8983 21.4852 16.0002 21.4852C17.1021 21.4852 17.9987 20.5886 17.9987 19.4867ZM16.0002 20.486C15.4492 20.486 15.001 20.0377 15.001 19.4867C15.001 18.9358 15.4492 18.4875 16.0002 18.4875C16.5512 18.4875 16.9994 18.9358 16.9994 19.4867C16.9994 20.0377 16.5512 20.486 16.0002 20.486Z" fill="black"/>
<path d="M16.0002 24.4948H16.4998V23.4956H16.0002C13.7962 23.4956 12.0032 21.7025 12.0032 19.4986V18.999H11.004V19.4986C11.004 22.2535 13.2453 24.4948 16.0002 24.4948Z" fill="black"/>
<path d="M20.9964 19.9982V19.4986C20.9964 16.7437 18.7551 14.5024 16.0002 14.5024H15.5006V15.5016H16.0002C18.2042 15.5016 19.9972 17.2946 19.9972 19.4986V19.9982H20.9964Z" fill="black"/>
</svg>
