<svg width="32" height="32" viewBox="0 0 32 32" fill="none" xmlns="http://www.w3.org/2000/svg">
<path d="M27.5399 20.8684C26.5805 18.9495 26.3388 16.7466 26.859 14.6654C27.6101 11.6613 27.9909 8.56802 27.9909 5.47162V2.02123H25.9924V5.47162C25.9924 8.40476 25.6317 11.3349 24.9204 14.1808C24.2843 16.7244 24.5799 19.4169 25.7525 21.7623L27.0414 24.3402C27.6625 25.5824 27.9909 26.973 27.9909 28.362V30H29.9894V28.362C29.9894 26.6644 29.5881 24.9646 28.8289 23.4463L27.5399 20.8684Z" fill="black"/>
<path d="M4.00898 28.3619C4.00898 26.9729 4.33735 25.5822 4.95851 24.34L6.24741 21.762C7.42001 19.4168 7.71554 16.7243 7.07952 14.1806C6.36819 11.3349 6.00746 8.40476 6.00746 5.47149V2.02111H4.00898V5.47149C4.00898 8.56789 4.38981 11.6613 5.14087 14.6653C5.6611 16.7464 5.41928 18.9494 4.46001 20.8682L3.17111 23.4461C2.41194 24.9643 2.01062 26.6643 2.01062 28.3617V29.9997H4.0091L4.00898 28.3619Z" fill="black"/>
<path d="M14.0014 2.02111V2H12.0029V2.02111C12.0029 4.22506 10.2099 6.01807 8.00595 6.01807V8.01656C11.3119 8.01656 14.0014 5.3271 14.0014 2.02111Z" fill="black"/>
<path d="M23.9938 6.01807C21.7899 6.01807 19.9968 4.22506 19.9968 2.02111V2H17.9984V2.02111C17.9984 5.3271 20.6878 8.01656 23.9938 8.01656V6.01807Z" fill="black"/>
<path d="M18.498 19.4867C18.498 18.1093 17.3773 16.9886 15.9999 16.9886C14.6224 16.9886 13.5018 18.1093 13.5018 19.4867C13.5018 20.8642 14.6224 21.9848 15.9999 21.9848C17.3773 21.9848 18.498 20.8642 18.498 19.4867ZM15.9999 19.9863C15.7243 19.9863 15.5003 19.7623 15.5003 19.4867C15.5003 19.2112 15.7243 18.9871 15.9999 18.9871C16.2754 18.9871 16.4995 19.2112 16.4995 19.4867C16.4995 19.7623 16.2754 19.9863 15.9999 19.9863Z" fill="black"/>
<path d="M15.9999 24.9944H16.4995V22.9959H15.9999C14.0715 22.9959 12.5025 21.427 12.5025 19.4986V18.999H10.504V19.4986C10.504 22.529 12.9694 24.9944 15.9999 24.9944Z" fill="black"/>
<path d="M21.4957 19.9982V19.4986C21.4957 16.4681 19.0303 14.0028 15.9999 14.0028H15.5003V16.0012H15.9999C17.9283 16.0012 19.4972 17.5702 19.4972 19.4986V19.9982H21.4957Z" fill="black"/>
</svg>
