<svg width="32" height="32" viewBox="0 0 32 32" fill="none" xmlns="http://www.w3.org/2000/svg">
<path d="M16.0202 2.96552C21.5027 2.96552 26.2049 6.36824 28.1274 11.1724H29.1621C27.1912 5.82429 22.044 2 16.0202 2C9.99629 2 4.849 5.82429 2.87814 11.1724H3.91281C5.83528 6.36824 10.5376 2.96552 16.02 2.96552H16.0202Z" fill="black"/>
<path d="M16.0202 29.0345C10.177 29.0345 5.21964 25.1696 3.56981 19.8621H2.56229C4.2429 25.7094 9.63978 30 16.0202 30C22.4005 30 27.7975 25.7094 29.478 19.8621H28.4705C26.8207 25.1696 21.8632 29.0345 16.0202 29.0345Z" fill="black"/>
<path d="M11.1724 10.6897C10.2785 10.6897 9.46719 10.8587 8.76272 11.1724C6.96396 11.9734 5.86207 13.7176 5.86207 16C5.86207 17.3855 6.46069 18.8298 7.53133 19.8621C8.43409 20.7325 9.67188 21.3103 11.1724 21.3103C13.0898 21.3103 13.9692 20.7433 14.6566 19.8621C14.9208 19.5233 15.1569 19.1383 15.4125 18.7209L15.4462 18.6659C15.4995 18.5787 15.6787 18.4138 15.9743 18.4138C16.3101 18.4138 16.4964 18.572 16.5535 18.6654C16.7966 19.0633 17.0833 19.48 17.4389 19.8621C18.1839 20.6625 19.2328 21.3103 20.8275 21.3103C22.328 21.3103 23.5659 20.7325 24.4686 19.8621C25.5391 18.8298 26.1378 17.3855 26.1378 16C26.1378 13.6601 24.7348 11.9569 23.0035 11.1724C22.3078 10.8572 21.5596 10.6897 20.8275 10.6897H11.1724ZM25.1724 16C25.1724 17.501 24.3153 19.0874 22.8377 19.8621C22.2582 20.1658 21.5835 20.3448 20.8276 20.3448C20.0968 20.3448 19.4856 20.1938 18.9411 19.8621C18.3655 19.5115 17.8643 18.9587 17.3776 18.162C17.1666 17.817 16.6873 17.4483 15.9745 17.4483C15.2994 17.4483 14.8245 17.8326 14.6231 18.1617L14.5893 18.2167C14.1344 18.9594 13.7979 19.508 13.2766 19.8621C12.8035 20.1835 12.1781 20.3448 11.1727 20.3448C10.4168 20.3448 9.742 20.1658 9.16257 19.8621C7.68497 19.0874 6.82783 17.501 6.82783 16C6.82783 13.3606 8.53329 11.6552 11.1727 11.6552H20.8278C22.9173 11.6552 25.1727 13.3163 25.1727 16H25.1724Z" fill="black"/>
<path d="M2.96552 13.1034H2V17.931H2.96552V13.1034Z" fill="black"/>
<path d="M30 13.1034H29.0345V17.931H30V13.1034Z" fill="black"/>
</svg>
