<svg width="32" height="32" viewBox="0 0 32 32" fill="none" xmlns="http://www.w3.org/2000/svg">
<path d="M16.0198 3.42373C21.2761 3.42373 25.7886 6.66544 27.6654 11.2542H29.1911C27.2427 5.86341 22.0742 2 16.0198 2C9.96541 2 4.7968 5.86341 2.84842 11.2542H4.37407C6.2509 6.66544 10.7635 3.42373 16.0197 3.42373H16.0198Z" fill="black"/>
<path d="M16.0198 28.5763C10.408 28.5763 5.64332 24.8813 4.02976 19.7966H2.54327C4.20227 25.6774 9.61553 30 16.0198 30C22.4241 30 27.8375 25.6774 29.4964 19.7966H28.0099C26.3962 24.8813 21.6317 28.5763 16.0198 28.5763Z" fill="black"/>
<path d="M23.4109 11.2542C22.5808 10.7908 21.651 10.5424 20.7458 10.5424H11.2542C10.1707 10.5424 9.19244 10.7859 8.36561 11.2542C7.97919 11.473 7.62563 11.7406 7.31027 12.0559C6.32007 13.0461 5.79673 14.4099 5.79673 16C5.79673 17.3484 6.34854 18.7506 7.34112 19.7966C8.28066 20.7867 9.61505 21.4576 11.2544 21.4576C13.3424 21.4576 14.2569 20.777 14.9761 19.7966C15.2014 19.4894 15.4078 19.1532 15.6248 18.7987L15.6579 18.7446C15.6753 18.7162 15.7802 18.6101 15.9748 18.6101C16.2058 18.6101 16.3201 18.7092 16.3418 18.7439C16.5545 19.092 16.7999 19.4542 17.0943 19.7965C17.8682 20.6963 18.9827 21.4575 20.7458 21.4575C22.3851 21.4575 23.7195 20.7866 24.659 19.7965C25.6516 18.7505 26.2034 17.3483 26.2034 15.9999C26.2034 13.7914 24.9875 12.1346 23.4109 11.2542ZM22.1292 19.7966C21.7094 19.9479 21.2472 20.0339 20.7458 20.0339C20.2536 20.0339 19.8203 19.9576 19.4257 19.7966C18.7111 19.505 18.1248 18.9316 17.5566 18.0016C17.3158 17.6075 16.7737 17.1864 15.9748 17.1864C15.3479 17.1864 14.7469 17.5062 14.4439 18.0011L14.4106 18.0553C13.8624 18.9506 13.5192 19.5097 12.8342 19.7967C12.4485 19.9583 11.9549 20.034 11.2542 20.034C10.7527 20.034 10.2906 19.948 9.87085 19.7967C8.20508 19.1963 7.22034 17.5497 7.22034 16.0001C7.22034 13.5496 8.80376 11.9662 11.2542 11.9662H20.7458C22.6858 11.9662 24.7797 13.5085 24.7797 16.0001C24.7797 17.5497 23.7949 19.1963 22.1292 19.7967V19.7966Z" fill="black"/>
<path d="M3.42373 13.1525H2V17.8983H3.42373V13.1525Z" fill="black"/>
<path d="M30 13.1525H28.5763V17.8983H30V13.1525Z" fill="black"/>
</svg>
