<svg width="32" height="32" viewBox="0 0 32 32" fill="none" xmlns="http://www.w3.org/2000/svg">
<path d="M16.0195 3.86667C21.0569 3.86667 25.3868 6.95273 27.2189 11.3333H29.2187C27.2924 5.90133 22.1034 2 16.0195 2C9.93555 2 4.74645 5.90133 2.82017 11.3333H4.81995C6.65208 6.95273 10.9819 3.86667 16.0194 3.86667H16.0195Z" fill="black"/>
<path d="M16.0195 28.1333C10.6312 28.1333 6.053 24.6025 4.47462 19.7333H2.5257C4.16358 25.6462 9.59232 30 16.0195 30C22.4467 30 27.8753 25.6462 29.5133 19.7333H27.5644C25.986 24.6025 21.4077 28.1333 16.0195 28.1333Z" fill="black"/>
<path d="M20.6667 21.6C18.1435 21.6 16.8806 20.0314 16.1495 18.8404C16.1331 18.8291 16.0812 18.8 15.9753 18.8C15.904 18.8 15.8655 18.8261 15.8531 18.8364L15.8301 18.874C14.9344 20.3367 14.1608 21.6 11.3335 21.6C7.87452 21.6 5.73345 18.6931 5.73345 16C5.73345 12.7028 8.03622 10.4 11.3335 10.4H20.6668C23.3599 10.4 26.2668 12.5411 26.2668 16C26.2668 18.6931 24.1256 21.6 20.6667 21.6ZM15.9753 16.9333C16.7132 16.9333 17.3854 17.2833 17.7297 17.8466C18.5594 19.2044 19.3829 19.7333 20.6667 19.7333C22.9727 19.7333 24.4 17.7955 24.4 16C24.4 13.694 22.4622 12.2667 20.6667 12.2667H11.3333C9.06545 12.2667 7.6 13.7321 7.6 16C7.6 17.7955 9.0273 19.7333 11.3333 19.7333C13.115 19.7333 13.4207 19.2339 14.2381 17.8991L14.2708 17.8458C14.5409 17.4048 15.1307 16.9333 15.9753 16.9333Z" fill="black"/>
<path d="M3.86667 13.2H2V17.8667H3.86667V13.2Z" fill="black"/>
<path d="M30 13.2H28.1333V17.8667H30V13.2Z" fill="black"/>
</svg>
