<svg width="32" height="32" viewBox="0 0 32 32" fill="none" xmlns="http://www.w3.org/2000/svg">
<path d="M5.25295 16.8546L5.23498 18.2107L3.65083 21.9641C3.34951 22.678 3.42475 23.4901 3.85194 24.1364C4.27912 24.7829 4.99678 25.1703 5.77159 25.1729H5.77976C6.7327 25.1729 7.57506 24.6013 7.92688 23.7147L8.47247 22.3401L8.98178 23.6789C9.32218 24.5733 10.1922 25.1729 11.1486 25.1728H11.1563C11.9251 25.1702 12.6407 24.7881 13.0705 24.1507C13.5004 23.5133 13.5865 22.7066 13.3007 21.9928L11.7923 18.2255V16.8606L13.9084 15.5381C14.9903 14.8619 15.3759 13.4913 14.8062 12.352L14.7943 12.3282C14.4805 11.7007 13.9122 11.2358 13.2349 11.0528C12.5573 10.8698 11.8325 10.9851 11.2451 11.3692L8.48682 13.1739L5.82828 11.4015C5.23813 11.0081 4.50695 10.8884 3.82277 11.0727C3.13802 11.2572 2.56618 11.728 2.25355 12.3646C1.69699 13.4982 2.08323 14.8603 3.15202 15.5328L5.25283 16.8547L5.25295 16.8546ZM3.92893 13.1872C4.0324 12.9765 4.211 12.9012 4.30829 12.875C4.34748 12.8645 4.40208 12.8542 4.46612 12.8542C4.56084 12.8542 4.67645 12.8768 4.7931 12.9545L8.47749 15.4109L12.2671 12.9313C12.4614 12.8041 12.6521 12.8287 12.7481 12.8547C12.8443 12.8808 13.0212 12.9553 13.1242 13.1612L13.1361 13.185C13.2741 13.4608 13.1807 13.7921 12.9193 13.9554L9.9261 15.8261V18.5852L11.5681 22.6865C11.6455 22.8798 11.5732 23.033 11.5232 23.1071C11.4733 23.1812 11.3584 23.3056 11.1501 23.3063H11.1486C10.9622 23.3063 10.7927 23.1896 10.7265 23.0152L9.25312 19.143H7.73324L6.19213 23.026C6.12447 23.1964 5.96255 23.3063 5.77941 23.3063H5.77789C5.57095 23.3056 5.45791 23.1813 5.40891 23.1072C5.36004 23.0331 5.28981 22.8803 5.3703 22.6897L7.09643 18.6001L7.12629 16.3474V16.3433L7.13306 15.8322L4.14626 13.9528C3.88787 13.7902 3.79443 13.461 3.92905 13.1871L3.92893 13.1872Z" fill="black"/>
<path d="M6.035 9.25201C6.035 10.5893 7.12302 11.6774 8.46034 11.6774C9.79766 11.6774 10.8857 10.5893 10.8857 9.25201C10.8857 7.91469 9.79766 6.82666 8.46034 6.82666C7.12302 6.82666 6.035 7.91469 6.035 9.25201ZM9.01923 9.25201C9.01923 9.56021 8.76854 9.81089 8.46034 9.81089C8.15214 9.81089 7.90145 9.56021 7.90145 9.25201C7.90145 8.94381 8.15214 8.69312 8.46034 8.69312C8.76854 8.69312 9.01923 8.94381 9.01923 9.25201Z" fill="black"/>
<path d="M29.7261 12.3283C29.4123 11.7008 28.8439 11.2359 28.1667 11.0529C27.489 10.8699 26.7642 10.9852 26.1769 11.3693L23.4186 13.174L20.7601 11.4016C20.1699 11.0082 19.4387 10.8885 18.7546 11.0729C18.0698 11.2573 17.498 11.7281 17.1853 12.3647C16.6288 13.4983 17.015 14.8604 18.0838 15.5329L20.1846 16.8548L20.1667 18.2109L18.5825 21.9643C18.2812 22.6783 18.3564 23.4903 18.7836 24.1367C19.2108 24.7832 19.9284 25.1706 20.7033 25.1731H20.7114C21.6644 25.1731 22.5067 24.6015 22.8586 23.715L23.4041 22.3403L23.9135 23.6792C24.2539 24.5735 25.1239 25.1731 26.0803 25.173H26.088C26.8567 25.1705 27.5724 24.7883 28.0022 24.1509C28.432 23.5135 28.5181 22.7068 28.2323 21.993L26.724 18.2257V16.8609L28.8401 15.5384C29.9219 14.8621 30.3076 13.4916 29.7379 12.3522L29.726 12.3284L29.7261 12.3283ZM27.8509 13.9555L24.8577 15.8263V18.5854L26.4997 22.6867C26.577 22.88 26.5048 23.0331 26.4548 23.1072C26.4048 23.1813 26.2899 23.3057 26.0817 23.3064H26.0802C25.8938 23.3064 25.7243 23.1897 25.658 23.0153L24.1847 19.1431H22.6648L21.1237 23.0261C21.056 23.1966 20.8941 23.3064 20.711 23.3064H20.7094C20.5025 23.3057 20.3895 23.1814 20.3405 23.1073C20.2916 23.0332 20.2214 22.8804 20.3019 22.6898L22.028 18.6002L22.0578 16.3475V16.3434L22.0646 15.8323L19.0778 13.9529C18.8194 13.7903 18.726 13.4611 18.8606 13.1872C18.9641 12.9765 19.1427 12.9012 19.24 12.875C19.2792 12.8645 19.3337 12.8542 19.3978 12.8542C19.4925 12.8542 19.6081 12.8768 19.7248 12.9545L23.4092 15.4109L27.1988 12.9313C27.3932 12.8041 27.5837 12.8287 27.6797 12.8547C27.776 12.8808 27.9528 12.9553 28.0558 13.1612L28.0677 13.185C28.2057 13.4608 28.1124 13.7921 27.851 13.9554L27.8509 13.9555Z" fill="black"/>
<path d="M23.392 11.6774C24.7293 11.6774 25.8174 10.5893 25.8174 9.25201C25.8174 7.91469 24.7293 6.82666 23.392 6.82666C22.0547 6.82666 20.9667 7.91469 20.9667 9.25201C20.9667 10.5893 22.0547 11.6774 23.392 11.6774ZM23.392 8.69312C23.7002 8.69312 23.9509 8.94381 23.9509 9.25201C23.9509 9.56021 23.7002 9.81089 23.392 9.81089C23.0838 9.81089 22.8331 9.56021 22.8331 9.25201C22.8331 8.94381 23.0838 8.69312 23.392 8.69312Z" fill="black"/>
</svg>
