<svg width="32" height="32" viewBox="0 0 32 32" fill="none" xmlns="http://www.w3.org/2000/svg">
<path d="M3.06063 15.3239L5.30967 16.7391L5.28891 18.2977L3.65996 22.1576C3.3845 22.8102 3.45319 23.5527 3.84384 24.1438C4.23438 24.7347 4.89054 25.089 5.59889 25.0914H5.60625C6.47761 25.0914 7.24765 24.5688 7.5695 23.7583L8.34939 21.7929L9.08456 23.7251C9.39574 24.5432 10.1915 25.0915 11.0663 25.0914H11.0734C11.7766 25.089 12.4311 24.7395 12.8242 24.1566C13.2174 23.5735 13.2961 22.8358 13.0347 22.183L11.4838 18.3093V16.744L13.7473 15.3293C14.7433 14.7068 15.0982 13.4451 14.5736 12.3959L14.5617 12.3722C14.2728 11.7946 13.7496 11.3667 13.1261 11.1982C12.5024 11.0297 11.8351 11.1359 11.2946 11.4896L8.35841 13.4107L5.52427 11.5212C4.98117 11.1591 4.30817 11.0487 3.67799 11.2186C3.04782 11.3884 2.52121 11.8217 2.2334 12.4078C1.72103 13.4514 2.07669 14.7052 3.06063 15.3242V15.3239ZM3.51132 13.0349C3.61986 12.8139 3.81051 12.6568 4.04825 12.5928C4.12227 12.5729 4.19689 12.5631 4.27068 12.5631C4.43392 12.5631 4.59348 12.6114 4.73454 12.7054L8.35094 15.1165L12.0739 12.6806C12.2778 12.5472 12.5198 12.509 12.7547 12.5723C12.9898 12.6359 13.1794 12.7908 13.2877 13.0075L13.2996 13.0312C13.4949 13.4217 13.3628 13.8907 12.9927 14.122L10.0601 15.9548V18.5834L11.713 22.712C11.8002 22.9297 11.7749 23.1661 11.6438 23.3605C11.5129 23.555 11.3031 23.667 11.0685 23.6677H11.0661C10.7786 23.6677 10.5172 23.4875 10.4149 23.2187L8.88455 19.1964H7.84805L6.24616 23.2329C6.14117 23.4972 5.89014 23.6677 5.60601 23.6677H5.60352C5.36898 23.6669 5.16055 23.5543 5.03124 23.3588C4.90193 23.1633 4.88022 22.9272 4.97121 22.7111L6.7087 18.5948L6.74358 15.9595L3.81869 14.1191C3.45295 13.889 3.32079 13.4228 3.5112 13.035L3.51132 13.0349Z" fill="black"/>
<path d="M6.1032 9.13743C6.1032 10.3666 7.10328 11.3667 8.33243 11.3667C9.56158 11.3667 10.5617 10.3666 10.5617 9.13743C10.5617 7.90828 9.56158 6.9082 8.33243 6.9082C7.10328 6.9082 6.1032 7.90828 6.1032 9.13743ZM9.13806 9.13743C9.13806 9.58171 8.77659 9.94306 8.33243 9.94306C7.88827 9.94306 7.5268 9.58171 7.5268 9.13743C7.5268 8.69315 7.88827 8.3318 8.33243 8.3318C8.77659 8.3318 9.13806 8.69315 9.13806 9.13743Z" fill="black"/>
<path d="M29.7467 12.372C29.4578 11.7943 28.9345 11.3664 28.3111 11.198C27.6875 11.0295 27.02 11.1357 26.4796 11.4893L23.5434 13.4105L20.7093 11.521C20.166 11.1588 19.4933 11.0485 18.863 11.2184C18.2328 11.3881 17.7062 11.8215 17.4184 12.4075C16.906 13.4512 17.2617 14.705 18.2456 15.324L20.4947 16.7392L20.4739 18.2978L18.8449 22.1577C18.5695 22.8103 18.6382 23.5528 19.0288 24.1439C19.4194 24.7348 20.0755 25.0891 20.7839 25.0915H20.7912C21.6626 25.0915 22.4326 24.5689 22.7545 23.7584L23.5344 21.793L24.2695 23.7252C24.5807 24.5433 25.3765 25.0916 26.2513 25.0915H26.2584C26.9616 25.0891 27.6161 24.7396 28.0092 24.1567C28.4024 23.5736 28.4811 22.8359 28.2197 22.1831L26.6688 18.3094V16.7442L28.9323 15.3295C29.9283 14.7069 30.2832 13.4452 29.7586 12.396L29.7467 12.3723V12.372ZM28.1777 14.1219L25.2451 15.9547V18.5833L26.898 22.7119C26.9852 22.9296 26.9599 23.166 26.8288 23.3604C26.6978 23.5549 26.4881 23.6669 26.2534 23.6676H26.2511C25.9636 23.6676 25.7022 23.4874 25.5999 23.2185L24.0695 19.1963H23.033L21.4311 23.2328C21.3262 23.4971 21.0751 23.6676 20.791 23.6676H20.7885C20.554 23.6667 20.3455 23.5542 20.2162 23.3586C20.0869 23.1631 20.0652 22.9271 20.1562 22.711L21.8937 18.5947L21.9286 15.9594L19.0037 14.1189C18.6379 13.8889 18.5058 13.4227 18.6962 13.0349C18.8047 12.8139 18.9954 12.6568 19.2331 12.5928C19.3071 12.5729 19.3818 12.5631 19.4555 12.5631C19.6188 12.5631 19.7784 12.6114 19.9194 12.7054L23.5358 15.1165L27.2587 12.6806C27.4628 12.5472 27.7047 12.509 27.9396 12.5723C28.1747 12.6359 28.3643 12.7908 28.4726 13.0075L28.4844 13.0312C28.6797 13.4217 28.5477 13.8907 28.1775 14.122L28.1777 14.1219Z" fill="black"/>
<path d="M23.5174 11.3667C24.7466 11.3667 25.7466 10.3666 25.7466 9.13743C25.7466 7.90828 24.7466 6.9082 23.5174 6.9082C22.2883 6.9082 21.2882 7.90828 21.2882 9.13743C21.2882 10.3666 22.2883 11.3667 23.5174 11.3667ZM23.5174 8.3318C23.9616 8.3318 24.3231 8.69315 24.3231 9.13743C24.3231 9.58171 23.9616 9.94306 23.5174 9.94306C23.0733 9.94306 22.7118 9.58171 22.7118 9.13743C22.7118 8.69315 23.0733 8.3318 23.5174 8.3318Z" fill="black"/>
</svg>
