<svg width="32" height="32" viewBox="0 0 32 32" fill="none" xmlns="http://www.w3.org/2000/svg">
<path d="M16 1.51075V2.51137C23.3135 2.78862 29.2114 8.68662 29.4886 16H30.4892C30.211 8.13512 23.8649 1.789 15.9999 1.51062L16 1.51075Z" fill="black"/>
<path d="M2.51137 16.0001H1.51074C1.78899 23.865 8.13512 30.2111 16.0001 30.4895V29.4889C8.68662 29.2116 2.78874 23.3136 2.51149 16.0002L2.51137 16.0001Z" fill="black"/>
<path d="M6.99999 9.50012H7.99999V8.50012H6.99999C6.17287 8.50012 5.49999 7.82725 5.49999 7.00012C5.49999 6.173 6.17287 5.50012 6.99999 5.50012H8.49999V8.00012H9.49999V5.50012H13V4.50012H9.49999V2.00012H8.49999V4.50012H6.99999C5.62149 4.50012 4.49999 5.62162 4.49999 7.00012C4.49999 8.37862 5.62149 9.50012 6.99999 9.50012Z" fill="black"/>
<path d="M9.49999 16.0001V13.5001H11C12.3785 13.5001 13.5 12.3786 13.5 11.0001C13.5 9.62162 12.3785 8.50012 11 8.50012H9.99999V9.50012H11C11.8271 9.50012 12.5 10.173 12.5 11.0001C12.5 11.8272 11.8271 12.5001 11 12.5001H9.49999V10.0001H8.49999V12.5001H4.99999V13.5001H8.49999V16.0001H9.49999Z" fill="black"/>
<path d="M22.5 24.9952H21.5V30.0001H22.5V24.9952Z" fill="black"/>
<path d="M28 23.5001H23.0005V24.5001H28V23.5001Z" fill="black"/>
<path d="M22.5 18.0001H21.5V23.0001H22.5V18.0001Z" fill="black"/>
<path d="M21 23.5001H16V24.5001H21V23.5001Z" fill="black"/>
</svg>
