<svg width="32" height="32" viewBox="0 0 32 32" fill="none" xmlns="http://www.w3.org/2000/svg">
<path d="M16.0001 1.01062V3.01187C23.0379 3.28862 28.7118 8.9625 28.9885 16.0002H30.9898C30.711 7.85962 24.1408 1.28925 16.0001 1.01062Z" fill="black"/>
<path d="M3.01175 16.0002H1.0105C1.28925 24.1409 7.8595 30.7113 16.0001 30.9899V28.9886C8.96237 28.7119 3.2885 23.038 3.01175 16.0002Z" fill="black"/>
<path d="M7.00012 8.00025C6.44875 8.00025 6.00012 7.55162 6.00012 7.00025C6.00012 6.44887 6.44875 6.00025 7.00012 6.00025H8.00012V8.00025H10.0001V6.00025H13.0001V4.00025H10.0001V2.00025H8.00012V4.00025H7.00012C5.346 4.00025 4.00012 5.34612 4.00012 7.00025C4.00012 8.65437 5.346 10.0002 7.00012 10.0002H8.00012V8.00025H7.00012Z" fill="black"/>
<path d="M11.0001 8.00025H10.0001V10.0002H11.0001C11.5515 10.0002 12.0001 10.4489 12.0001 11.0002C12.0001 11.5516 11.5515 12.0002 11.0001 12.0002H10.0001V10.0002H8.00012V12.0002H5.00012V14.0002H8.00012V16.0002H10.0001V14.0002H11.0001C12.6542 14.0002 14.0001 12.6544 14.0001 11.0002C14.0001 9.34612 12.6542 8.00025 11.0001 8.00025Z" fill="black"/>
<path d="M21.0001 30.0002H23.0001V24.9954H21.0001V25.0002V30.0002Z" fill="black"/>
<path d="M28.0001 23.0002H23.0006V25.0002H28.0001V23.0002Z" fill="black"/>
<path d="M23.0001 18.0002H21.0001V23.0002H23.0001V18.0002Z" fill="black"/>
<path d="M16.0001 25.0002H21.0001V24.9954V23.0002H16.0001V25.0002Z" fill="black"/>
</svg>
