<svg width="32" height="32" viewBox="0 0 32 32" fill="none" xmlns="http://www.w3.org/2000/svg">
<path d="M7.34565 30H15.4911V28.4727H7.34565C6.73309 28.4727 6.15744 28.2346 5.72484 27.802C5.29224 27.3695 5.05424 26.7944 5.05474 26.1818V16.6501C5.05474 16.3266 5.12156 16.0126 5.25367 15.7162L7.84215 9.89078H6.17093L3.85838 15.0951C3.63871 15.5876 3.52734 16.1107 3.52734 16.6501V26.1812C3.52658 27.2017 3.92342 28.1609 4.64493 28.8822C5.36605 29.603 6.32531 30 7.34565 30Z" fill="black"/>
<path d="M13.9767 9.89091L16.5664 15.7177C16.6974 16.0125 16.7638 16.3254 16.7638 16.6482V18.0364H18.2911V16.6482C18.2911 16.1105 18.1804 15.5888 17.9621 15.0975L15.648 9.89091H13.9767Z" fill="black"/>
<path d="M24.6707 23.3818H20.5979V24.9091H24.6707V23.3818Z" fill="black"/>
<path d="M16.7638 24.1455C16.7638 26.6578 18.3549 28.8052 20.582 29.6341C21.2166 29.8703 21.9026 30 22.6184 30C25.8465 30 28.4729 27.3736 28.4729 24.1455C28.4729 20.9173 25.8465 18.2909 22.6184 18.2909C21.9026 18.2909 21.2166 18.4206 20.582 18.6568C18.3549 19.4859 16.7638 21.6331 16.7638 24.1455ZM20.582 20.3287C21.1894 20.0034 21.8826 19.8182 22.6184 19.8182C25.0045 19.8182 26.9457 21.7593 26.9457 24.1455C26.9457 26.5316 25.0045 28.4727 22.6184 28.4727C21.8826 28.4727 21.1894 28.2877 20.582 27.9622C19.2199 27.2326 18.2911 25.7957 18.2911 24.1455C18.2911 22.4952 19.2199 21.0582 20.582 20.3287Z" fill="black"/>
<path d="M16.2547 7.6V4.8C16.2547 3.25605 14.9987 2 13.4547 2H8.36384C6.81989 2 5.56384 3.25605 5.56384 4.8V7.6H16.2547ZM7.09111 4.8C7.09111 4.09822 7.66205 3.52727 8.36384 3.52727H13.4547C14.1565 3.52727 14.7275 4.09822 14.7275 4.8V6.07273H7.09111V4.8Z" fill="black"/>
</svg>
