<svg width="32" height="32" viewBox="0 0 32 32" fill="none" xmlns="http://www.w3.org/2000/svg">
<path d="M19.354 25.3333H12.6461L9.77778 28.7752V29.4814L22.2222 29.4817V28.7754L19.354 25.3333ZM13.1317 26.3703H18.8682L20.5967 28.4446L11.4033 28.4444L13.1317 26.3703Z" fill="black"/>
<path d="M28.4444 19.1109H3.55556V20.1479H28.4444V19.1109Z" fill="black"/>
<path d="M30 20.6665H28.963C28.963 21.5242 28.2652 22.222 27.4074 22.222H4.59311C3.73535 22.222 3.03756 21.5242 3.03756 20.6665H2.00052C2.00052 22.096 3.16356 23.2591 4.59311 23.2591H27.4074C28.837 23.2591 30 22.096 30 20.6665Z" fill="black"/>
<path d="M30 5.1109C30 3.68135 28.837 2.51831 27.4074 2.51831H4.59298C3.16343 2.51831 2.00039 3.68135 2.00039 5.1109L2 18.5924H3.03704L3.03743 5.1109C3.03743 4.25314 3.73522 3.55535 4.59298 3.55535H27.4074C28.2652 3.55535 28.963 4.25314 28.963 5.1109V18.5924H30V5.1109Z" fill="black"/>
<path d="M16.5185 6.14794H15.4815V10.2961H16.5185V6.14794Z" fill="black"/>
<path d="M16.5185 12.3702H15.4815V16.5183H16.5185V12.3702Z" fill="black"/>
<path d="M21.1852 10.8146H17.037V11.8516H21.1852V10.8146Z" fill="black"/>
<path d="M14.963 10.8146H10.8148V11.8516H14.963V10.8146Z" fill="black"/>
</svg>
