<svg width="32" height="32" viewBox="0 0 32 32" fill="none" xmlns="http://www.w3.org/2000/svg">
<path d="M22 29.5V27.5383L19.4684 24.5003H12.5316L10 27.5383V29.5001M12.635 27.5003L13.4684 26.5003H18.5316L19.365 27.5004H12.635V27.5003Z" fill="black"/>
<path d="M4 20.5H4.0005H28V18.5H4V20.5Z" fill="black"/>
<path d="M27 21.5H5.0005C4.44913 21.5 4.0005 21.0514 4.0005 20.5H2.0005C2.0005 22.1541 3.34638 23.5 5.0005 23.5H27C28.6541 23.5 30 22.1541 30 20.5H28C28 21.0514 27.5514 21.5 27 21.5Z" fill="black"/>
<path d="M4.00037 5.5C4.00037 4.94863 4.449 4.5 5.00037 4.5H27C27.5514 4.5 28 4.94863 28 5.5V18.5H30V5.5C30 3.84588 28.6541 2.5 27 2.5H5.00037C3.34625 2.5 2.00038 3.84575 2.00038 5.5L2 18.5H4L4.00037 5.5Z" fill="black"/>
<path d="M17 6.5H15V10.5H17V6.5Z" fill="black"/>
<path d="M17 12.5H15V16.5H17V12.5Z" fill="black"/>
<path d="M21 10.5H17V12.5H21V10.5Z" fill="black"/>
<path d="M15 10.5H11V12.5H15V10.5Z" fill="black"/>
</svg>
