<svg width="32" height="32" viewBox="0 0 32 32" fill="none" xmlns="http://www.w3.org/2000/svg">
<path d="M19.4123 24.9089H12.5878L9.89104 28.1452V29.4907L22.1092 29.491V28.1455L19.4123 24.9089ZM13.3032 26.4362H18.6969L19.9698 27.9637L12.0304 27.9635L13.3032 26.4362Z" fill="black"/>
<path d="M28.2182 18.7997H3.78182V20.327H28.2182V18.7997Z" fill="black"/>
<path d="M30 20.5815H28.4727C28.4727 21.2833 27.9018 21.8542 27.2 21.8542H4.80051C4.09873 21.8542 3.52778 21.2833 3.52778 20.5815H2.00051C2.00051 22.1255 3.25656 23.3815 4.80051 23.3815H27.2C28.7439 23.3815 30 22.1255 30 20.5815Z" fill="black"/>
<path d="M30 5.30879C30 3.76484 28.7439 2.50879 27.2 2.50879H4.80038C3.25644 2.50879 2.00038 3.76484 2.00038 5.30879L2 18.5452H3.52727L3.52765 5.30879C3.52765 4.60701 4.0986 4.03606 4.80038 4.03606H27.2C27.9018 4.03606 28.4727 4.60701 28.4727 5.30879V18.5452H30V5.30879Z" fill="black"/>
<path d="M16.7636 6.32697H15.2364V10.3997H16.7636V6.32697Z" fill="black"/>
<path d="M16.7636 12.4361H15.2364V16.5088H16.7636V12.4361Z" fill="black"/>
<path d="M21.0909 10.6542H17.0182V12.1815H21.0909V10.6542Z" fill="black"/>
<path d="M14.9818 10.6542H10.9091V12.1815H14.9818V10.6542Z" fill="black"/>
</svg>
