<svg width="32" height="32" viewBox="0 0 32 32" fill="none" xmlns="http://www.w3.org/2000/svg">
<path d="M22.3846 22.1876H19.6921L27.3075 29.8029H30L22.3846 22.1876Z" fill="black"/>
<path d="M20.9192 18.8474C22.1903 17.1142 22.9422 14.9776 22.9422 12.6684C22.9422 6.89463 18.2449 2.19727 12.4711 2.19727C6.69737 2.19727 2 6.89463 2 12.6684C2 18.4421 6.69737 23.1395 12.4711 23.1395C14.1928 23.1395 15.8188 22.7216 17.2531 21.9822C18.7049 21.2338 19.9599 20.1555 20.9192 18.8474ZM12.4711 4.1011C17.1951 4.1011 21.0384 7.94436 21.0384 12.6684C21.0384 17.3924 17.1951 21.2357 12.4711 21.2357C7.7471 21.2357 3.90384 17.3924 3.90384 12.6684C3.90384 7.94436 7.7471 4.1011 12.4711 4.1011Z" fill="black"/>
</svg>
