<svg width="32" height="32" viewBox="0 0 32 32" fill="none" xmlns="http://www.w3.org/2000/svg">
<path d="M13.7499 13.0001H12.2499V19.0001H13.7499V13.0001Z" fill="black"/>
<path d="M16.7499 15.0001H15.2499V19.0001H16.7499V15.0001Z" fill="black"/>
<path d="M19.7499 17.0001H18.2499V19.0001H19.7499V17.0001Z" fill="black"/>
<path d="M3.99988 22.7767V24.5399C7.52975 26.6194 11.7106 27.75 15.9669 27.75C20.2529 27.75 24.4626 26.604 28.008 24.4967V22.7282C24.5436 25.0039 20.2995 26.25 15.9669 26.25C11.6653 26.25 7.45063 25.0216 3.99988 22.7767Z" fill="black"/>
<path d="M27.9821 9.25462V7.48837C24.4421 5.39087 20.2425 4.25012 15.9669 4.25012C11.6912 4.25012 7.52325 5.3825 3.99175 7.465V9.22862C7.444 6.98037 11.6619 5.75012 15.9669 5.75012C20.2719 5.75012 24.5225 6.98987 27.9821 9.25462Z" fill="black"/>
<path d="M27.6104 12.0732C24.6909 9.15362 20.8641 7.47137 16.7659 7.28812C16.5026 7.26412 16.2364 7.25012 15.967 7.25012C15.6505 7.25012 15.3381 7.268 15.0302 7.30087C11.0212 7.537 7.28512 9.20987 4.42175 12.0732L2 14.495V17.5519L4.42175 19.9736C7.5185 23.0702 11.6366 24.7761 16.0161 24.7761C20.3956 24.7761 24.5135 23.0705 27.6105 19.9736L30 17.5841V14.4629L27.6105 12.0734L27.6104 12.0732ZM23.217 16.0001C23.217 19.9977 19.9646 23.2501 15.967 23.2501C11.9694 23.2501 8.717 19.9977 8.717 16.0001C8.717 12.2732 11.544 9.1955 15.166 8.79537C15.448 8.77962 15.7314 8.77075 16.0161 8.77075C16.2416 8.77075 16.4663 8.77637 16.6901 8.78637C20.3495 9.1505 23.217 12.2465 23.217 16.0001ZM5.48225 18.9129L2.59288 16.0234L5.48225 13.1339C6.61 12.0061 7.887 11.082 9.26838 10.3789C7.98938 11.9005 7.217 13.8614 7.217 16.0001C7.217 18.1786 8.01912 20.172 9.341 21.7051C7.93175 20.9975 6.62988 20.0604 5.48225 18.9129ZM26.5499 18.9129C25.3564 20.1064 23.9956 21.0714 22.521 21.7882C23.886 20.2445 24.717 18.218 24.717 16.0001C24.717 13.8206 23.9141 11.8262 22.591 10.2929C24.0386 11.0061 25.3752 11.9595 26.5499 13.134L29.4393 16.0235L26.5499 18.9129Z" fill="black"/>
</svg>
