<svg width="32" height="32" viewBox="0 0 32 32" fill="none" xmlns="http://www.w3.org/2000/svg">
<path d="M2 3V7H4V5H28V7H29.9995V9H28V27H4V9H2V29H30V3H2Z" fill="black"/>
<path d="M28 7H4V9H28V7Z" fill="black"/>
<path d="M17 21H18.9937V25.9942H20.9937V21H21.9959C22.2634 21 22.5148 21.1042 22.7038 21.2936C22.8927 21.483 22.9965 21.7346 22.9959 22.002L22.9875 25.992L24.9875 25.9963L24.9959 22.0063C24.9976 21.2038 24.6863 20.449 24.1194 19.8809C23.5525 19.3127 22.7984 19 21.9959 19H17V21Z" fill="black"/>
<path d="M15.9981 17.9963C18.2027 17.9963 19.9963 16.2028 19.9963 13.9981C19.9963 11.7935 18.2026 10 15.9981 10C13.7936 10 12 11.7936 12 13.9981C12 16.2026 13.7936 17.9963 15.9981 17.9963ZM15.9981 12C17.0999 12 17.9963 12.8964 17.9963 13.9981C17.9963 15.0999 17.0999 15.9963 15.9981 15.9963C14.8964 15.9963 14 15.0999 14 13.9981C14 12.8964 14.8964 12 15.9981 12Z" fill="black"/>
<path d="M9.00412 21.989C9.003 21.44 9.44863 20.9905 9.98738 20.987L11.002 20.9907L11.0046 22.267C10.4053 22.6124 9.99988 23.2582 9.99988 23.9984C9.99988 25.1004 10.8964 25.9969 11.9983 25.9969C13.1001 25.9969 13.9966 25.1004 13.9966 23.9984C13.9966 23.2636 13.5969 22.6219 13.0045 22.2746L13.0019 20.9981L13.084 20.9984L14.9998 22.9141V26H16.9998V22.0859L13.9155 19.0016L9.98425 18.9871C8.33738 18.9979 7.0005 20.3465 7.00387 21.9902L6.99975 25.9991L8.99975 26.0012L9.00387 21.9893L9.00412 21.989Z" fill="black"/>
</svg>
