<svg width="32" height="32" viewBox="0 0 32 32" fill="none" xmlns="http://www.w3.org/2000/svg">
<path d="M28.963 27.926H3.03704V8.22229H2V28.963H30V8.22229H28.963V27.926Z" fill="black"/>
<path d="M2 3.03711V7.18526H3.03704V4.07415H28.963V7.18526H30V3.03711H2Z" fill="black"/>
<path d="M28.4444 7.18526H3.55556V8.22229H28.4444V7.18526Z" fill="black"/>
<path d="M24.8017 26.3656L24.8104 22.2277C24.8118 21.5341 24.543 20.8819 24.053 20.391C23.563 19.9001 22.9113 19.6297 22.2178 19.6297H17.0369V20.6667H19.623V26.3645H20.6601V20.6667H22.2178C22.6339 20.6667 23.025 20.8289 23.3189 21.1234C23.6128 21.4179 23.7743 21.8093 23.7734 22.2254L23.7647 26.3633L24.8017 26.3656Z" fill="black"/>
<path d="M19.6259 13.9241C19.6259 11.9236 17.9985 10.2964 15.9982 10.2964C13.9979 10.2964 12.3705 11.9237 12.3705 13.9241C12.3705 15.9244 13.9979 17.5517 15.9982 17.5517C17.9985 17.5517 19.6259 15.9244 19.6259 13.9241ZM15.9982 16.5147C14.5697 16.5147 13.4075 15.3524 13.4075 13.9241C13.4075 12.4957 14.5698 11.3334 15.9982 11.3334C17.4266 11.3334 18.5888 12.4957 18.5888 13.9241C18.5888 15.3524 17.4266 16.5147 15.9982 16.5147Z" fill="black"/>
<path d="M16.5185 26.3704V22.526L13.623 19.6305L9.76507 19.6164C8.34187 19.6257 7.18635 20.7911 7.18946 22.2127L7.18518 26.3699L8.22222 26.371L8.2265 22.2121C8.22468 21.3582 8.91794 20.659 9.76663 20.6534L11.3344 20.6592L11.3389 22.8292C10.7329 23.0413 10.2963 23.6175 10.2963 24.2949C10.2963 25.1517 10.9934 25.8488 11.8502 25.8488C12.7069 25.8488 13.404 25.1517 13.404 24.2949C13.404 23.6229 12.9743 23.0508 12.3758 22.8345L12.3713 20.6631L13.1917 20.6661L15.4814 22.9557V26.3706H16.5184L16.5185 26.3704Z" fill="black"/>
</svg>
