<svg width="32" height="32" viewBox="0 0 32 32" fill="none" xmlns="http://www.w3.org/2000/svg">
<path d="M28.4727 27.4544H3.52727V8.61807H2V28.9817H30V8.61807H28.4727V27.4544Z" fill="black"/>
<path d="M2 3.01807V7.09079H3.52727V4.54534H28.4727V7.09079H30V3.01807H2Z" fill="black"/>
<path d="M28.2182 7.09079H3.78182V8.61807H28.2182V7.09079Z" fill="black"/>
<path d="M24.8962 26.1775L24.9048 22.1148C24.9064 21.3658 24.6157 20.6614 24.0868 20.1312C23.5577 19.6009 22.8538 19.309 22.1048 19.309H17.0181V20.8362H19.3026V26.1758H20.8299V20.8362H22.1048C22.4452 20.8362 22.7652 20.969 23.0057 21.21C23.2461 21.4511 23.3783 21.7712 23.3775 22.1116L23.369 26.1743L24.8962 26.1775Z" fill="black"/>
<path d="M19.8145 13.9616C19.8145 11.8573 18.1025 10.1453 15.9982 10.1453C13.8939 10.1453 12.1819 11.8573 12.1819 13.9616C12.1819 16.0659 13.8939 17.7779 15.9982 17.7779C18.1025 17.7779 19.8145 16.0659 19.8145 13.9616ZM15.9982 16.2506C14.7361 16.2506 13.7092 15.2238 13.7092 13.9616C13.7092 12.6994 14.7361 11.6726 15.9982 11.6726C17.2604 11.6726 18.2872 12.6994 18.2872 13.9616C18.2872 15.2238 17.2604 16.2506 15.9982 16.2506Z" fill="black"/>
<path d="M16.7636 26.1817V22.3018L13.772 19.3101L9.87691 19.2959C8.33984 19.3059 7.09193 20.5646 7.09524 22.0993L7.09104 26.1809L8.61831 26.1825L8.62251 22.0984C8.62098 21.3998 9.18824 20.8277 9.87907 20.823L11.1653 20.8277L11.1689 22.5347C10.5652 22.8199 10.1456 23.4329 10.1456 24.1436C10.1456 25.1252 10.9441 25.9237 11.9257 25.9237C12.9074 25.9237 13.7059 25.1252 13.7059 24.1436C13.7059 23.4381 13.2924 22.8291 12.6961 22.5412L12.6926 20.8333L13.1371 20.835L15.2364 22.9342V26.1816H16.7636V26.1817ZM11.9256 24.3967C11.7861 24.3967 11.6727 24.2832 11.6727 24.1438C11.6727 24.0044 11.7863 23.8909 11.9256 23.8909C12.065 23.8909 12.1785 24.0044 12.1785 24.1438C12.1785 24.2832 12.065 24.3967 11.9256 24.3967Z" fill="black"/>
</svg>
