<svg width="32" height="32" viewBox="0 0 32 32" fill="none" xmlns="http://www.w3.org/2000/svg">
<path d="M6.14815 21.1852C6.14815 22.0429 5.45035 22.7407 4.59259 22.7407C3.73483 22.7407 3.03704 22.0429 3.03704 21.1852V14.963H2V21.1852C2 22.6147 3.16304 23.7778 4.59259 23.7778C6.02215 23.7778 7.18518 22.6147 7.18518 21.1852V14.963H6.14815V21.1852Z" fill="black"/>
<path d="M26.8889 13.9259V14.963H27.9259V13.9259C27.9259 7.34994 22.576 2 16 2C9.42402 2 4.07407 7.34994 4.07407 13.9259V14.963H5.11111V13.9259C5.11111 7.92187 9.99581 3.03704 16 3.03704C22.0042 3.03704 26.8889 7.92187 26.8889 13.9259Z" fill="black"/>
<path d="M28.963 14.963V21.1852C28.963 22.0429 28.2652 22.7407 27.4074 22.7407C26.5496 22.7407 25.8519 22.0429 25.8519 21.1852V14.963H24.8148V21.1852C24.8148 22.4373 25.7069 23.4846 26.8889 23.7255V25.3283C26.8889 26.186 26.1911 26.8838 25.3333 26.8838H14.3913C14.1485 25.7043 13.1021 24.8148 11.8519 24.8148C10.4223 24.8148 9.25926 25.9779 9.25926 27.4074C9.25926 28.837 10.4223 30 11.8519 30C13.1056 30 14.1539 29.1053 14.393 27.9209H25.3333C26.7629 27.9209 27.9259 26.7578 27.9259 25.3283V23.7255C29.1079 23.4847 30 22.4373 30 21.1852V14.963H28.963ZM11.8519 28.963C10.9941 28.963 10.2963 28.2652 10.2963 27.4074C10.2963 26.5496 10.9941 25.8519 11.8519 25.8519C12.7096 25.8519 13.4074 26.5496 13.4074 27.4074C13.4074 28.2652 12.7096 28.963 11.8519 28.963Z" fill="black"/>
</svg>
