<svg width="32" height="32" viewBox="0 0 32 32" fill="none" xmlns="http://www.w3.org/2000/svg">
<path d="M27.8943 17.7294L24.8671 14.7018L23.7834 15.7854L26.8106 18.8128C27.8787 19.8811 28.467 21.3014 28.467 22.812C28.467 24.3227 27.8785 25.743 26.8102 26.811C25.7419 27.8791 24.3217 28.4675 22.811 28.4674C21.3003 28.4674 19.8801 27.879 18.812 26.8107L14.2712 22.2694C12.6017 20.5997 12.1975 18.1377 13.0562 16.0831C13.2579 15.6008 13.5284 15.141 13.8692 14.7191C13.8747 14.7123 13.8799 14.7051 13.8854 14.6983C13.9312 14.6423 13.9793 14.5875 14.0276 14.5328C14.0434 14.5149 14.0581 14.4966 14.0742 14.4788C14.1189 14.4295 14.1658 14.3815 14.2125 14.3333C14.2324 14.3128 14.2513 14.2916 14.2716 14.2713C14.7993 13.7437 15.4131 13.3336 16.081 13.0533L14.9319 11.9042C14.3041 12.2329 13.7149 12.6606 13.1879 13.1875C12.661 13.7145 12.2331 14.3036 11.9044 14.9314C10.4843 17.6428 10.9119 21.0774 13.1874 23.3531L17.7282 27.8945C19.0859 29.2523 20.8909 30 22.811 30H22.8112C24.7311 30 26.5361 29.2524 27.8938 27.895C29.2516 26.5373 29.9993 24.7323 29.9995 22.8123C29.9995 20.8922 29.2517 19.087 27.8943 17.7294Z" fill="black"/>
<path d="M16.2155 8.21673L17.7291 9.73046C19.3986 11.4001 19.8028 13.8622 18.9441 15.9168C18.7424 16.399 18.472 16.8589 18.1311 17.2807C18.1256 17.2876 18.1204 17.2948 18.1149 17.3015C18.0692 17.3576 18.021 17.4124 17.9727 17.4671C17.9569 17.4849 17.9422 17.5033 17.9261 17.5211C17.8814 17.5704 17.8346 17.6184 17.7878 17.6665C17.7679 17.6871 17.749 17.7083 17.7287 17.7286C17.201 18.2562 16.5872 18.6662 15.9193 18.9466L17.0683 20.0957C17.6963 19.767 18.2854 19.3393 18.8123 18.8123C19.3392 18.2854 19.7671 17.6963 20.0958 17.0685C21.5159 14.3571 21.0883 10.9225 18.8128 8.64673L14.272 4.10566C12.9143 2.74799 11.1092 2.00013 9.18933 2H9.18882C7.2691 2 5.46394 2.74761 4.10639 4.10502C2.74859 5.46269 2.00086 7.26773 2.00073 9.18783C2.00073 11.1078 2.74834 12.913 4.10575 14.2706L7.13296 17.2982L8.2167 16.2146L5.18949 13.1872C4.12133 12.119 3.53311 10.6988 3.53311 9.18796C3.53311 7.67729 4.12159 6.25704 5.18987 5.18901C6.25816 4.12099 7.67815 3.53263 9.18869 3.53263H9.18907C10.6997 3.53263 12.12 4.12111 13.188 5.1894L16.2152 8.21686L16.2155 8.21673Z" fill="black"/>
</svg>
