<svg width="32" height="32" viewBox="0 0 32 32" fill="none" xmlns="http://www.w3.org/2000/svg">
<path d="M21.4885 5.05455H19.5637V3.01818H27.7092V16.7636H28.7274V2H18.5455V5.05455H16.6208L15.3481 10.1455H22.7612L21.4885 5.05455ZM16.6521 9.12727L17.4157 6.07273H20.6935L21.4572 9.12727H16.6521Z" fill="black"/>
<path d="M27.7092 23.8909C27.7092 25.2945 26.5673 26.4364 25.1637 26.4364H6.83646C5.43289 26.4364 4.291 25.2945 4.291 23.8909V21.8545H3.27282V23.8909C3.27282 25.8559 4.87149 27.4545 6.83646 27.4545H8.36373V30H9.38191V27.4545H22.6183V30H23.6365V27.4545H25.1637C27.1287 27.4545 28.7274 25.8559 28.7274 23.8909V21.8545H27.7092V23.8909Z" fill="black"/>
<path d="M2.25464 18.2909V19.3091H29.7455V18.2909H2.25464Z" fill="black"/>
<path d="M19.5637 11.6727H18.5455V13.7091H19.5637V11.6727Z" fill="black"/>
<path d="M19.5637 14.7273H18.5455V16.7636H19.5637V14.7273Z" fill="black"/>
<path d="M15.491 14.7273H14.4728V16.7636H15.491V14.7273Z" fill="black"/>
<path d="M23.6365 14.7273H22.6183V16.7636H23.6365V14.7273Z" fill="black"/>
</svg>
