<svg width="32" height="32" viewBox="0 0 32 32" fill="none" xmlns="http://www.w3.org/2000/svg">
<path d="M3.99347 14.9453L2 25.8623H3.51325L5.50671 14.9453H3.99347Z" fill="black"/>
<path d="M27.8972 14.9453H26.3813L28.484 25.8623H30L27.8972 14.9453Z" fill="black"/>
<path d="M22.9111 14.9453L18.6874 19.1633H16.765L16.7737 15.3592L21.7233 12.3894V5.59182L16.0167 2.16785L10.3101 5.59182V12.3894L15.2849 15.3743L15.2762 19.1633H13.3475L9.12955 14.9453H7.90126L5.42012 29.8321H6.9294L9.06963 16.9907L12.31 20.231V26.6067H19.7534V20.2025L22.9869 16.9734L25.105 29.8321H26.6137L24.1616 14.9453H22.911H22.9111ZM11.7988 11.5465V6.43466L16.0167 3.9039L20.2346 6.43466V11.5465L16.0167 14.0773L11.7988 11.5465ZM18.2648 25.118H13.7988V20.6519H18.2648V25.118Z" fill="black"/>
</svg>
