<svg width="32" height="32" viewBox="0 0 32 32" fill="none" xmlns="http://www.w3.org/2000/svg">
<path d="M2 25.896H3.02736L5.05743 14.7785H4.02995L2 25.896Z" fill="black"/>
<path d="M27.8586 14.7785H26.8294L28.9708 25.896H30L27.8586 14.7785Z" fill="black"/>
<path d="M23.3958 14.7785L18.8415 19.3266H16.526L16.5357 15.0567L21.576 12.0327V5.3964L16.0172 2.06116L10.4585 5.3964V12.0327L15.525 15.0725L15.5153 19.3266H13.1945L8.64648 14.7785H8.009L5.4823 29.9387H6.507L8.77421 16.3356L12.4953 20.0567V26.4014H19.57V20.0275L23.285 16.3176L25.5286 29.9386H26.5529L24.0558 14.7784L23.3958 14.7785ZM11.4692 11.4604V5.96845L16.0172 3.23961L20.5653 5.96845V11.4604L16.0172 14.1892L11.4692 11.4604ZM18.5594 25.3907H13.506V20.3373H18.5594V25.3907Z" fill="black"/>
</svg>
