<svg width="32" height="32" viewBox="0 0 32 32" fill="none" xmlns="http://www.w3.org/2000/svg">
<path d="M15.2579 23.25C15.3216 22.2253 15.7715 21.3591 16.5 20.7445V18.9517C14.8132 19.8359 13.75 21.4865 13.75 23.5049V24.75H16.5V23.25H15.2579Z" fill="black"/>
<path d="M11.25 8.00488C11.25 4.83438 8.6705 2.25487 5.5 2.25487H2.75V3.00487C2.75 6.17537 5.3295 8.75488 8.5 8.75488H11.25V8.00488ZM8.5 7.25488C6.41237 7.25488 4.67162 5.74187 4.31625 3.75487H5.5C7.58763 3.75487 9.32838 5.26788 9.68375 7.25488H8.5Z" fill="black"/>
<path d="M11.25 16.0049C11.25 12.8344 8.6705 10.2549 5.5 10.2549H2.75V11.0049C2.75 14.1754 5.3295 16.7549 8.5 16.7549H11.25V16.0049ZM8.5 15.2549C6.41237 15.2549 4.67162 13.7419 4.31625 11.7549H5.5C7.58763 11.7549 9.32838 13.2679 9.68375 15.2549H8.5Z" fill="black"/>
<path d="M22.25 3.00487V2.25487H19.5C16.3295 2.25487 13.75 4.83438 13.75 8.00488V8.75488H16.5C19.6705 8.75488 22.25 6.17537 22.25 3.00487ZM19.5 3.75487H20.6838C20.3285 5.74187 18.5876 7.25488 16.5 7.25488H15.3162C15.6715 5.26788 17.4124 3.75487 19.5 3.75487Z" fill="black"/>
<path d="M13.75 16.7549H16.5C19.6705 16.7549 22.25 14.1754 22.25 11.0049V10.2549H19.5C16.3295 10.2549 13.75 12.8344 13.75 16.0049V16.7549ZM19.5 11.7549H20.6838C20.3285 13.7419 18.5876 15.2549 16.5 15.2549H15.3162C15.6715 13.2679 17.4124 11.7549 19.5 11.7549Z" fill="black"/>
<path d="M2.75 18.2549V19.0049C2.75 22.1754 5.3295 24.7549 8.5 24.7549H11.25V24.0049C11.25 20.8344 8.6705 18.2549 5.5 18.2549H2.75ZM9.68375 23.2549H8.5C6.41237 23.2549 4.67162 21.7419 4.31625 19.7549H5.5C7.58763 19.7549 9.32838 21.2679 9.68375 23.2549Z" fill="black"/>
<path d="M13.25 2H11.75V30H13.25V2Z" fill="black"/>
<path d="M25.501 23.25H21.5V24.75H25.501V23.25Z" fill="black"/>
<path d="M17.75 24.0049C17.75 24.7079 17.8774 25.3816 18.1094 26.0049C18.9236 28.1922 21.0325 29.7549 23.5 29.7549C26.6705 29.7549 29.25 27.1754 29.25 24.0049C29.25 20.8344 26.6705 18.2549 23.5 18.2549C23.1589 18.2549 22.825 18.2865 22.5 18.3438C19.8048 18.8186 17.75 21.1756 17.75 24.0049ZM23.5 19.7549C25.8435 19.7549 27.75 21.6614 27.75 24.0049C27.75 26.3484 25.8435 28.2549 23.5 28.2549C21.8792 28.2549 20.4679 27.3426 19.7512 26.0049C19.4317 25.4084 19.25 24.7275 19.25 24.0049C19.25 22.0059 20.6376 20.3259 22.5 19.8749C22.8209 19.7971 23.1555 19.7549 23.5 19.7549Z" fill="black"/>
</svg>
