<svg width="32" height="32" viewBox="0 0 32 32" fill="none" xmlns="http://www.w3.org/2000/svg">
<path d="M15 23.5C15.0014 22.2076 15.5597 21.1301 16.5 20.42V19.2393C14.9625 20.0969 14 21.635 14 23.5049V24.5H16.5V23.5H15Z" fill="black"/>
<path d="M11 8.00488C11 4.97213 8.53275 2.50487 5.5 2.50487H3V3.00487C3 6.03762 5.46725 8.50488 8.5 8.50488H11V8.00488ZM8.5 7.50488C6.18762 7.50488 4.27713 5.75175 4.02763 3.50487H5.5C7.81238 3.50487 9.72288 5.258 9.97237 7.50488H8.5Z" fill="black"/>
<path d="M11 16.0049C11 12.9721 8.53275 10.5049 5.5 10.5049H3V11.0049C3 14.0376 5.46725 16.5049 8.5 16.5049H11V16.0049ZM8.5 15.5049C6.18762 15.5049 4.27713 13.7517 4.02763 11.5049H5.5C7.81238 11.5049 9.72288 13.258 9.97237 15.5049H8.5Z" fill="black"/>
<path d="M22 3.00487V2.50487H19.5C16.4672 2.50487 14 4.97213 14 8.00488V8.50488H16.5C19.5327 8.50488 22 6.03762 22 3.00487ZM19.5 3.50487H20.9724C20.7228 5.75175 18.8123 7.50488 16.5 7.50488H15.0276C15.2773 5.258 17.1877 3.50487 19.5 3.50487Z" fill="black"/>
<path d="M14 16.5049H16.5C19.5327 16.5049 22 14.0376 22 11.0049V10.5049H19.5C16.4672 10.5049 14 12.9721 14 16.0049V16.5049ZM19.5 11.5049H20.9724C20.7228 13.7517 18.8123 15.5049 16.5 15.5049H15.0276C15.2773 13.258 17.1877 11.5049 19.5 11.5049Z" fill="black"/>
<path d="M3 18.5049V19.0049C3 22.0376 5.46725 24.5049 8.5 24.5049H11V24.0049C11 20.9721 8.53275 18.5049 5.5 18.5049H3ZM9.97237 23.5049H8.5C6.18762 23.5049 4.27713 21.7518 4.02763 19.5049H5.5C7.81238 19.5049 9.72288 21.258 9.97237 23.5049Z" fill="black"/>
<path d="M13 2H12V30H13V2Z" fill="black"/>
<path d="M25.501 23.5H21.5V24.5H25.501V23.5Z" fill="black"/>
<path d="M18 24.0049C18 24.7104 18.135 25.3845 18.3781 26.0049C19.18 28.0513 21.1729 29.5049 23.5 29.5049C26.5327 29.5049 29 27.0376 29 24.0049C29 20.9721 26.5327 18.5049 23.5 18.5049C23.1584 18.5049 22.8245 18.5378 22.5 18.5976C19.9433 19.0694 18 21.3138 18 24.0049ZM23.5 19.5049C25.9814 19.5049 28 21.5235 28 24.0049C28 26.4862 25.9814 28.5049 23.5 28.5049C21.7369 28.5049 20.2083 27.4851 19.4705 26.0049C19.17 25.402 19 24.723 19 24.0049C19 21.8673 20.4986 20.0744 22.5 19.6182C22.8219 19.5449 23.1562 19.5049 23.5 19.5049Z" fill="black"/>
</svg>
