<svg width="32" height="32" viewBox="0 0 32 32" fill="none" xmlns="http://www.w3.org/2000/svg">
<path d="M16.5 9.00243C19.8084 9.00243 22.5 6.31093 22.5 3.00243V2.00243H19.5C16.1916 2.00243 13.5 4.69393 13.5 8.00243V1.99756H11.5V8.00243C11.5 4.69393 8.80837 2.00243 5.5 2.00243H2.5V3.00243C2.5 6.31093 5.19163 9.00243 8.5 9.00243H11.5V16.0024C11.5 12.6939 8.80837 10.0024 5.5 10.0024H2.5V11.0024C2.5 14.3109 5.19163 17.0024 8.5 17.0024H11.5V24.0024C11.5 20.6939 8.80837 18.0024 5.5 18.0024H2.5V19.0024C2.5 22.3109 5.19163 25.0024 8.5 25.0024H11.5V29.9976H13.5V24.9976H16.5V22.9976H15.5321C15.6375 22.1913 15.9961 21.5569 16.5 21.0827V18.6664C14.6645 19.5748 13.5 21.8364 13.5 24.0024V17.0024H16.5C19.8084 17.0024 22.5 14.3109 22.5 11.0024V10.0024H19.5C16.1916 10.0024 13.5 12.6939 13.5 16.0024V9.00243H16.5ZM19.5 4.00243H20.3735C19.9283 5.72568 18.3605 7.00243 16.5 7.00243H15.6265C16.0717 5.27918 17.6395 4.00243 19.5 4.00243ZM8.5 7.00243C6.6395 7.00243 5.07175 5.72568 4.6265 4.00243H5.5C7.3605 4.00243 8.92825 5.27918 9.3735 7.00243H8.5ZM8.5 15.0024C6.6395 15.0024 5.07175 13.7257 4.6265 12.0024H5.5C7.3605 12.0024 8.92825 13.2792 9.3735 15.0024H8.5ZM8.5 23.0024C6.6395 23.0024 5.07175 21.7257 4.6265 20.0024H5.5C7.3605 20.0024 8.92825 21.2792 9.3735 23.0024H8.5ZM19.5 12.0024H20.3735C19.9283 13.7257 18.3605 15.0024 16.5 15.0024H15.6265C16.0717 13.2792 17.6395 12.0024 19.5 12.0024Z" fill="black"/>
<path d="M25.501 22.9976H21.5V24.9976H25.501V22.9976Z" fill="black"/>
<path d="M23.5 30.0024C20.1916 30.0024 17.5 27.3109 17.5 24.0024C17.5 20.6939 20.1916 18.0024 23.5 18.0024C26.8084 18.0024 29.5 20.6939 29.5 24.0024C29.5 27.3109 26.8084 30.0024 23.5 30.0024ZM23.5 20.0024C21.2944 20.0024 19.5 21.7968 19.5 24.0024C19.5 26.2081 21.2944 28.0024 23.5 28.0024C25.7056 28.0024 27.5 26.2081 27.5 24.0024C27.5 21.7968 25.7056 20.0024 23.5 20.0024Z" fill="black"/>
</svg>
