<svg width="32" height="32" viewBox="0 0 32 32" fill="none" xmlns="http://www.w3.org/2000/svg">
<path d="M5.17865 18.1379C4.35539 18.6134 3.76632 19.3809 3.52026 20.2992C3.27419 21.2174 3.40055 22.1767 3.87583 23.0001C4.85713 24.6996 7.03826 25.2841 8.73794 24.3029C9.51671 23.8531 10.0944 23.1242 10.3583 22.2714L11.3509 21.6982C11.963 22.1973 12.6546 22.5973 13.3898 22.8773V24.0216C12.7831 24.6766 12.4407 25.5413 12.4407 26.4407C12.4407 28.4033 14.0374 30 16 30C17.9626 30 19.5593 28.4033 19.5593 26.4407C19.5593 25.5419 19.2172 24.6777 18.6111 24.0226V22.877C19.3459 22.5971 20.0371 22.1973 20.649 21.6982L21.6417 22.2714C21.9057 23.1243 22.4832 23.8531 23.2621 24.3029C24.9619 25.2841 27.1429 24.6997 28.1242 23.0001C28.5995 22.1768 28.7259 21.2176 28.4798 20.2992C28.2337 19.3809 27.6447 18.6134 26.8214 18.1379C26.0429 17.6885 25.1234 17.5526 24.2531 17.75L23.2604 17.1769C23.3238 16.7866 23.3557 16.3926 23.3557 16C23.3557 15.6074 23.3237 15.2128 23.2602 14.8221L24.2517 14.2498C25.1224 14.4479 26.0425 14.3119 26.8213 13.8622C28.521 12.8809 29.1053 10.6997 28.1241 9.00006C27.6487 8.1768 26.8812 7.58785 25.9629 7.34167C25.0445 7.09584 24.0854 7.22184 23.262 7.69724C22.4835 8.14678 21.9061 8.87513 21.6419 9.72734L20.648 10.3012C20.0364 9.80256 19.3455 9.40297 18.6109 9.12309V7.97747C19.2171 7.32245 19.5591 6.45825 19.5591 5.55929C19.5591 3.5967 17.9624 2 15.9998 2C14.0373 2 12.4406 3.5967 12.4406 5.55929C12.4406 6.45872 12.783 7.3234 13.3897 7.97854V9.12285C12.6548 9.40262 11.9635 9.80244 11.3516 10.3013L10.3578 9.72746C10.0936 8.87513 9.51624 8.1469 8.7377 7.69736C7.91456 7.22207 6.95545 7.09584 6.03679 7.34178C5.1185 7.58785 4.351 8.1768 3.87559 9.00018C2.8943 10.6999 3.47873 12.881 5.17829 13.8623C5.95707 14.3119 6.87726 14.4478 7.74787 14.2499L8.73937 14.8222C8.67589 15.2129 8.64386 15.6072 8.64386 16.0001C8.64386 16.3931 8.67589 16.7867 8.73913 17.1771L7.74644 17.7501C6.87631 17.5528 5.95671 17.6886 5.17829 18.1381L5.17865 18.1379ZM10.352 17.89L10.2296 17.3741C10.1223 16.9216 10.0679 16.4591 10.0679 16C10.0679 15.5409 10.1224 15.0779 10.2299 14.625L10.3523 14.1092L7.92713 12.709L7.62483 12.8081C7.04752 12.9979 6.4155 12.9324 5.89051 12.6291C4.87077 12.0403 4.52006 10.7317 5.10889 9.7118C5.39411 9.21777 5.85468 8.86445 6.40566 8.71674C6.95675 8.56927 7.53217 8.64496 8.0262 8.93018C8.55096 9.23319 8.92338 9.74763 9.04819 10.3416L9.11356 10.6528L11.5412 12.0544L11.9267 11.6898C12.6004 11.0529 13.4228 10.5774 14.3049 10.3149L14.8138 10.1635V7.36302L14.5767 7.15077C14.1242 6.74572 13.8646 6.16556 13.8646 5.55929C13.8646 4.38176 14.8227 3.42372 16.0002 3.42372C17.1777 3.42372 18.1358 4.38176 18.1358 5.55929C18.1358 6.1652 17.8765 6.74501 17.4244 7.15006L17.1876 7.36219V10.1636L17.6962 10.315C18.5781 10.5777 19.4002 11.0531 20.0737 11.6898L20.4593 12.0543L22.887 10.6528L22.9523 10.3416C23.077 9.74751 23.4496 9.23307 23.9743 8.93018C24.4683 8.64496 25.0439 8.56927 25.5949 8.71674C26.1458 8.86445 26.6064 9.21777 26.8916 9.7118C27.4803 10.7317 27.1297 12.0403 26.11 12.6291C25.585 12.9322 24.953 12.9974 24.3757 12.8081L24.0734 12.709L21.6482 14.1092L21.7706 14.625C21.8781 15.0778 21.9326 15.5405 21.9326 16C21.9326 16.4595 21.8783 16.9216 21.7709 17.3741L21.6486 17.89L24.0746 19.2906L24.3768 19.1916C24.9537 19.0026 25.5855 19.0681 26.1101 19.371C26.6042 19.6561 26.9575 20.1167 27.1052 20.6678C27.2529 21.2188 27.1771 21.7942 26.8919 22.2882C26.3032 23.3079 24.9945 23.6588 23.9747 23.0699C23.4497 22.7668 23.0771 22.2519 22.9524 21.6576L22.8872 21.3462L20.4602 19.9449L20.0746 20.3095C19.4011 20.9465 18.5789 21.4222 17.6967 21.685L17.1881 21.8364V24.6376L17.4249 24.8498C17.877 25.2549 18.1363 25.8348 18.1363 26.4406C18.1363 27.6181 17.1782 28.5762 16.0007 28.5762C14.8231 28.5762 13.8651 27.6181 13.8651 26.4406C13.8651 25.8344 14.1247 25.2543 14.5772 24.8492L14.8142 24.637V21.8365L14.3055 21.685C13.4228 21.4222 12.6001 20.9465 11.9266 20.3094L11.541 19.9448L9.11404 21.3461L9.04879 21.6575C8.92421 22.2519 8.55167 22.7668 8.02668 23.0698C7.00706 23.6588 5.69819 23.3081 5.10948 22.2881C4.82426 21.7941 4.74845 21.2185 4.89616 20.6677C5.04387 20.1166 5.39719 19.6561 5.89122 19.3709C6.41586 19.0678 7.04763 19.0025 7.6246 19.1915L7.92666 19.2904L10.3527 17.8899L10.352 17.89Z" fill="black"/>
<path d="M16.0255 19.6012C17.9881 19.6012 19.5848 18.0045 19.5848 16.0419C19.5848 14.0793 17.9881 12.4826 16.0255 12.4826C14.0629 12.4826 12.4662 14.0793 12.4662 16.0419C12.4662 18.0045 14.0629 19.6012 16.0255 19.6012ZM16.0255 13.9063C17.203 13.9063 18.161 14.8643 18.161 16.0419C18.161 17.2194 17.203 18.1775 16.0255 18.1775C14.8479 18.1775 13.8899 17.2194 13.8899 16.0419C13.8899 14.8643 14.8479 13.9063 16.0255 13.9063Z" fill="black"/>
</svg>
