<svg width="32" height="32" viewBox="0 0 32 32" fill="none" xmlns="http://www.w3.org/2000/svg">
<path d="M30 15C30 12.243 27.757 10 25 10H17.4644C17.8132 9.39875 18 8.71425 18 8.0005V2.00025H16V8.0005C16 8.534 15.7921 9.03513 15.4146 9.41213C15.038 9.78813 14.5376 9.99513 14.0055 9.99513H14.0022V10H8.5V12H25C26.6541 12 28 13.3459 28 15C28 16.6541 26.6541 18 25 18H22.1588C22.107 17.9984 22.0553 17.9963 22.0033 17.9963L6.49975 18L6.50025 20L17.5 19.9974V20H22.1548C22.8983 20.0368 23.5922 20.3438 24.1225 20.8738C24.6889 21.4399 25.0007 22.1928 25.0007 22.9974C25.0007 23.798 24.689 24.5509 24.1229 25.117C23.5567 25.6833 22.804 25.9951 22.0033 25.9951H17.7509C16.7859 25.9951 16.0009 26.7803 16.0009 27.7453V29.9999H18.0009V27.9953H22.0033C23.3381 27.995 24.5931 27.4751 25.5371 26.5311C26.4811 25.5871 27.0008 24.332 27.0006 22.9934C27.0006 21.8609 26.6252 20.787 25.9355 19.9108C28.2467 19.4713 29.9999 17.437 29.9999 14.9999L30 15Z" fill="black"/>
<path d="M22.5 22H7.00087C5.34625 22 4 20.6538 4 18.9991C4 17.3445 5.34562 15.9989 6.9995 15.9981L8.92962 15.9973C8.95287 15.9976 8.976 15.999 8.99938 15.999L25.5002 15.9951L25.4998 13.9951L13.9994 13.9979V13.9951L8.92962 13.9974C8.15475 13.9798 7.42875 13.6706 6.87875 13.1208C6.312 12.5543 6 11.8009 6 10.9995C6 9.34563 7.34563 8 8.9995 8H12.251C13.2159 8 14.001 7.215 14.001 6.25V2H12.001V6H8.9995C6.24275 6 4 8.24275 4 10.9995C4 12.2331 4.44462 13.3979 5.2565 14.3128C3.35675 15.0224 2 16.8554 2 18.9993C2 21.7568 4.24338 24.0001 7.00087 24.0001H12.5369C12.1967 24.5876 12.001 25.2685 12.001 25.9948V30.0001H14.001V25.9948C14.001 24.8949 14.8958 24.0001 15.9956 24.0001H22.5V22Z" fill="black"/>
</svg>
