<svg width="32" height="32" viewBox="0 0 32 32" fill="none" xmlns="http://www.w3.org/2000/svg">
<path d="M29.5 15C29.5 12.5186 27.4814 10.5 25 10.5H16.4468C16.4559 10.4911 16.4654 10.4826 16.4745 10.4736C17.1359 9.81337 17.5001 8.935 17.5001 8.0005V2.00025H16.5001V8.0005C16.5001 8.66762 16.2401 9.29462 15.768 9.76587C15.2969 10.2362 14.6713 10.4951 14.0056 10.4951H14.0014V10.5H8.5V11.5H25C26.9299 11.5 28.5 13.0701 28.5 15C28.5 16.9299 26.9299 18.5 25 18.5H22.1589C22.1071 18.4982 22.0554 18.4963 22.0033 18.4963L6.49988 18.5L6.50013 19.5L17.5 19.4974V19.5H22.1588C23.0344 19.5381 23.8521 19.8966 24.4759 20.5203C25.1368 21.1807 25.5006 22.0592 25.5007 22.9972C25.5007 23.9316 25.137 24.8099 24.4765 25.4706C23.8159 26.1313 22.9375 26.4951 22.0034 26.4951H17.751C17.0618 26.4951 16.501 27.056 16.501 27.7453V29.9999H17.501V27.7453C17.501 27.6074 17.6131 27.4953 17.751 27.4953H22.0034C23.2048 27.495 24.3341 27.0271 25.1836 26.1776C26.0331 25.328 26.5009 24.1985 26.5008 22.9934C26.5008 21.7919 26.0326 20.6624 25.183 19.8129C25.0719 19.7019 24.9558 19.5977 24.8356 19.4999H25.0001C27.4815 19.4999 29.5001 17.4812 29.5001 14.9999L29.5 15Z" fill="black"/>
<path d="M22.5 23.5V22.5H7.00088C5.0705 22.5 3.5 20.9296 3.5 18.9991C3.5 17.0686 5.06975 15.499 6.99938 15.4981L8.92975 15.4972C8.953 15.4976 8.97613 15.499 8.99938 15.499L25.5001 15.4951L25.4999 14.4951L13.9995 14.4979V14.4951L8.92963 14.4974C8.02125 14.4797 7.16963 14.1187 6.52525 13.4744C5.86413 12.8134 5.5 11.9345 5.5 10.9995C5.5 9.06975 7.06988 7.5 8.9995 7.5H12.251C12.9403 7.5 13.501 6.93925 13.501 6.25V2H12.501V6.25C12.501 6.38788 12.3889 6.5 12.251 6.5H8.9995C6.5185 6.5 4.5 8.51838 4.5 10.9995C4.5 12.2015 4.96813 13.3316 5.81825 14.1815C5.9555 14.3188 6.10063 14.4448 6.25163 14.5618C4.1255 14.9199 2.5 16.7731 2.5 18.9991C2.5 21.4809 4.51913 23.5 7.00088 23.5H13.5516C12.9039 24.1346 12.501 25.0182 12.501 25.9946V30H13.501V25.9946C13.501 24.6191 14.6201 23.5 15.9956 23.5H22.5Z" fill="black"/>
</svg>
