<svg width="32" height="32" viewBox="0 0 32 32" fill="none" xmlns="http://www.w3.org/2000/svg">
<path d="M26.8891 30H5.11133V4.07407H10.815V5.11111H6.14837V28.963H25.8521V5.11111H21.1854V4.07407H26.8891V30Z" fill="black"/>
<path d="M21.1854 2H10.815V3.03704H21.1854V2Z" fill="black"/>
<path d="M21.1854 6.14815H10.815V7.18518H21.1854V6.14815Z" fill="black"/>
<path d="M22.2366 24.8148H9.79213V25.8519H22.2366V24.8148Z" fill="black"/>
<path d="M21.7039 23.2542H20.6669V22.2222C20.6669 21.3645 19.9691 20.6667 19.1113 20.6667H12.8891C12.0313 20.6667 11.3336 21.3645 11.3336 22.2222V23.2542H10.2965V22.2222C10.2965 20.7927 11.4596 19.6296 12.8891 19.6296H19.1113C20.5409 19.6296 21.7039 20.7927 21.7039 22.2222V23.2542Z" fill="black"/>
<path d="M16.0119 17.5556C14.0105 17.5556 12.3823 15.9273 12.3823 13.9259C12.3823 11.9246 14.0105 10.2963 16.0119 10.2963C18.0132 10.2963 19.6415 11.9246 19.6415 13.9259C19.6415 15.9273 18.0132 17.5556 16.0119 17.5556ZM16.0119 11.3333C14.5823 11.3333 13.4193 12.4964 13.4193 13.9259C13.4193 15.3555 14.5823 16.5185 16.0119 16.5185C17.4414 16.5185 18.6045 15.3555 18.6045 13.9259C18.6045 12.4964 17.4414 11.3333 16.0119 11.3333Z" fill="black"/>
</svg>
