<svg width="32" height="32" viewBox="0 0 32 32" fill="none" xmlns="http://www.w3.org/2000/svg">
<path d="M27 30H5V4H11V6H7V28H25V6H21V4H27V30Z" fill="black"/>
<path d="M21 2H11V4H21V2Z" fill="black"/>
<path d="M21 6H11V8H21V6Z" fill="black"/>
<path d="M22.0136 24H10.0136V26H22.0136V24Z" fill="black"/>
<path d="M22 22.9951H20V22C20 21.4486 19.5514 21 19 21H13C12.4486 21 12 21.4486 12 22V22.9951H10V22C10 20.3459 11.3457 19 13 19H19C20.6543 19 22 20.3459 22 22V22.9951Z" fill="black"/>
<path d="M16.0112 18C13.8056 18 12.0112 16.2056 12.0112 14C12.0112 11.7944 13.8056 10 16.0112 10C18.2169 10 20.0112 11.7944 20.0112 14C20.0112 16.2056 18.2169 18 16.0112 18ZM16.0112 12C14.9085 12 14.0112 12.8973 14.0112 14C14.0112 15.1027 14.9085 16 16.0112 16C17.114 16 18.0112 15.1027 18.0112 14C18.0112 12.8973 17.114 12 16.0112 12Z" fill="black"/>
</svg>
